<svg width="50" height="50" viewBox="0 0 50 50" fill="none" xmlns="http://www.w3.org/2000/svg">
<g clip-path="url(#clip0_54_12)">
<path d="M25 50C38.8071 50 50 38.8071 50 25C50 11.1929 38.8071 0 25 0C11.1929 0 0 11.1929 0 25C0 38.8071 11.1929 50 25 50Z" fill="#1969FF"/>
<path d="M23.4858 7.94674C24.3235 7.50644 25.6121 7.50644 26.4498 7.94674L35.0408 12.4785C35.5456 12.747 35.8248 13.1443 35.8785 13.5524H35.8892V36.3187C35.8785 36.7698 35.5992 37.21 35.0408 37.5L26.4498 42.0318C25.6121 42.4721 24.3235 42.4721 23.4858 42.0318L14.8948 37.5C14.3471 37.21 14.0786 36.759 14.0679 36.3187C14.0679 36.2758 14.0679 36.2328 14.0679 36.2006V13.7027C14.0679 13.6705 14.0679 13.6383 14.0679 13.6061V13.5524C14.1108 13.1336 14.3686 12.747 14.8948 12.4785L23.4858 7.94674ZM34.5254 26.2242L26.4498 30.4983C25.6121 30.9386 24.3342 30.9386 23.4858 30.4983L15.4317 26.2242V36.2543L23.4858 40.4961C23.9584 40.7539 24.4523 41.0009 24.9356 41.0116H24.9678C25.451 41.0116 25.9128 40.7646 26.3853 40.5391L34.5146 36.2221V26.2242H34.5254ZM12.7148 35.8355C12.7148 36.7053 12.8114 37.2852 13.0155 37.6826C13.1766 38.0155 13.4343 38.2732 13.8853 38.5846L13.9068 38.6061C14.0035 38.6705 14.1108 38.7457 14.2504 38.8316L14.4115 38.9283L14.8948 39.2182L14.1968 40.378L13.6598 40.0451L13.5739 39.9914C13.4128 39.8948 13.284 39.8088 13.1658 39.7229C11.8772 38.8424 11.3939 37.8866 11.3832 35.8892V35.8247H12.7148V35.8355ZM24.3127 20.1675C24.2483 20.189 24.1946 20.2105 24.1409 20.2427L15.5606 24.7852C15.5498 24.7852 15.5391 24.796 15.5391 24.796H15.5284L15.5391 24.8067L15.5606 24.8174L24.1409 29.36C24.1946 29.3922 24.2483 29.4137 24.3127 29.4351V20.1675ZM25.6873 20.1675V29.4459C25.7517 29.4244 25.8054 29.4029 25.8591 29.3707L34.4395 24.8282C34.4502 24.8282 34.4609 24.8174 34.4609 24.8174H34.4717L34.4609 24.8067L34.4395 24.796L25.8591 20.2534C25.8054 20.2105 25.7517 20.189 25.6873 20.1675ZM34.5254 15.1847L26.8149 19.2332L34.5254 23.2818V15.1847ZM15.4317 15.1847V23.2925L23.1422 19.244L15.4317 15.1847ZM25.8484 9.16022C25.3974 8.92397 24.5919 8.92397 24.1517 9.16022L15.5606 13.7027C15.5498 13.7027 15.5391 13.7135 15.5391 13.7135H15.5284L15.5391 13.7242L15.5606 13.735L24.1517 18.2775C24.6027 18.5137 25.4081 18.5137 25.8484 18.2775L34.4395 13.735C34.4502 13.735 34.4609 13.7242 34.4609 13.7242H34.4717L34.4609 13.7135L34.4395 13.7027L25.8484 9.16022ZM35.8033 9.62199L36.3402 9.9549L36.4261 10.0086C36.5872 10.1052 36.7161 10.1912 36.8342 10.2771C38.1229 11.1576 38.6061 12.1134 38.6169 14.1108V14.1753H37.2745C37.2745 13.3054 37.1779 12.7255 36.9738 12.3282C36.8127 11.9953 36.555 11.7375 36.104 11.4261L36.0825 11.4046C35.9858 11.3402 35.8785 11.265 35.7388 11.1791L35.5778 11.0825L35.0945 10.7925L35.8033 9.62199Z" fill="white"/>
</g>
<defs>
<clipPath id="clip0_54_12">
<rect width="50" height="50" fill="white"/>
</clipPath>
</defs>
</svg>
