<svg width="50" height="50" viewBox="0 0 50 50" fill="none" xmlns="http://www.w3.org/2000/svg">
<g clip-path="url(#clip0_1_2)">
<path d="M14.8455 28.3861C16.3204 28.3861 17.6818 27.896 18.7786 27.0477L9.77776 18.075C8.92682 19.1495 8.43515 20.5067 8.43515 21.9959C8.41626 25.5208 11.2905 28.3861 14.8455 28.3861Z" fill="#04795B"/>
<path d="M41.6212 21.9769C41.6212 20.5067 41.1295 19.1495 40.2785 18.0562L31.2776 27.0288C32.3556 27.8771 33.717 28.3671 35.2108 28.3671C38.7469 28.386 41.6212 25.5208 41.6212 21.9769Z" fill="#04795B"/>
<path d="M46.1594 12.2316L42.1694 16.209C43.4931 17.7923 44.2875 19.7905 44.2875 22.0149C44.2875 27.01 40.2219 31.0629 35.2108 31.0629C32.9984 31.0629 30.9751 30.2712 29.3868 28.9517L25.0186 33.306L20.6506 28.9517C19.0622 30.2712 17.0578 31.0629 14.8265 31.0629C9.81541 31.0629 5.74989 27.01 5.74989 22.0149C5.74989 19.8093 6.54413 17.7923 7.86781 16.209L3.87788 12.2316C1.60877 15.9639 0.303986 20.3183 0.303986 24.9932C0.303986 38.6028 11.366 49.6115 24.9998 49.6115C38.6333 49.6115 49.6955 38.584 49.6955 24.9932C49.7333 20.2995 48.4285 15.9451 46.1594 12.2316Z" fill="#04795B"/>
<path d="M42.8882 7.99017C38.4066 3.29652 32.0529 0.355911 25.0187 0.355911C17.9843 0.355911 11.6497 3.29652 7.14923 7.99017C6.54416 8.63115 5.95801 9.30979 5.40958 10.0072L24.9998 29.5359L44.5899 9.98833C44.0983 9.30969 43.5121 8.61229 42.8882 7.99017ZM25.0187 3.56043C30.805 3.56043 36.1753 5.78476 40.2028 9.83757L25.0187 24.9742L9.83437 9.83757C13.881 5.78476 19.2324 3.56043 25.0187 3.56043Z" fill="#04795B"/>
</g>
<defs>
<clipPath id="clip0_1_2">
<rect width="50" height="50" fill="white"/>
</clipPath>
</defs>
</svg>
