<svg width="50" height="50" viewBox="0 0 50 50" fill="none" xmlns="http://www.w3.org/2000/svg">
<g clip-path="url(#clip0_62_2)">
<g clip-path="url(#clip1_62_2)">
<path d="M39.2139 -1.20056e-05C36.3581 -0.00222902 33.6181 1.12879 31.5953 3.14477C29.5726 5.16075 28.4324 7.89696 28.425 10.7528V22.675C27.3139 22.75 26.1778 22.7972 25 22.7972C23.8222 22.7972 22.6917 22.8444 21.575 22.9111V10.7528C21.5296 7.92172 20.3731 5.222 18.3549 3.23602C16.3368 1.25004 13.6189 0.136988 10.7875 0.136988C7.95609 0.136988 5.23816 1.25004 3.22005 3.23602C1.20195 5.222 0.0454307 7.92172 0 10.7528V39.2472C0.0454307 42.0783 1.20195 44.778 3.22005 46.764C5.23816 48.7499 7.95609 49.863 10.7875 49.863C13.6189 49.863 16.3368 48.7499 18.3549 46.764C20.3731 44.778 21.5296 42.0783 21.575 39.2472V27.325C22.6861 27.25 23.8222 27.2028 25 27.2028C26.1778 27.2028 27.3083 27.1555 28.425 27.0889V39.2472C28.4704 42.0783 29.6269 44.778 31.6451 46.764C33.6632 48.7499 36.3811 49.863 39.2125 49.863C42.0439 49.863 44.7618 48.7499 46.7799 46.764C48.7981 44.778 49.9546 42.0783 50 39.2472V10.7528C49.9926 7.89744 48.8528 5.16165 46.8307 3.14575C44.8085 1.12985 42.0692 -0.00149293 39.2139 -1.20056e-05ZM10.7861 4.40554C12.4715 4.4048 14.0884 5.07267 15.282 6.26261C16.4756 7.45254 17.1484 9.06737 17.1528 10.7528V23.3778C13.9966 23.8351 10.9145 24.7065 7.98611 25.9694C6.71732 26.5263 5.52291 27.2392 4.43055 28.0917V10.7528C4.43496 9.06929 5.10625 7.45615 6.29743 6.26653C7.48861 5.07691 9.10263 4.40774 10.7861 4.40554ZM17.1528 39.2472C17.1528 40.9358 16.482 42.5551 15.288 43.7491C14.094 44.9431 12.4747 45.6139 10.7861 45.6139C9.09757 45.6139 7.47818 44.9431 6.2842 43.7491C5.09022 42.5551 4.41945 40.9358 4.41945 39.2472V36.3889C4.41945 33.8639 6.41944 31.4722 9.77222 29.9833C12.1347 28.9641 14.6134 28.2392 17.1528 27.825V39.2472ZM39.2139 45.5944C37.5285 45.5952 35.9116 44.9273 34.718 43.7374C33.5244 42.5474 32.8516 40.9326 32.8472 39.2472V26.6222C36.0034 26.1649 39.0855 25.2935 42.0139 24.0305C43.2827 23.4737 44.4771 22.7608 45.5694 21.9083V39.2472C45.565 40.9307 44.8938 42.5438 43.7026 43.7335C42.5114 44.9231 40.8974 45.5922 39.2139 45.5944ZM40.2278 20C37.8654 21.0192 35.3866 21.7441 32.8472 22.1583V10.7528C32.8472 9.06422 33.518 7.44483 34.712 6.25085C35.906 5.05687 37.5253 4.3861 39.2139 4.3861C40.9024 4.3861 42.5218 5.05687 43.7158 6.25085C44.9098 7.44483 45.5806 9.06422 45.5806 10.7528V13.6111C45.5806 16.125 43.5806 18.5167 40.2278 20Z" fill="url(#paint0_linear_62_2)"/>
</g>
</g>
<defs>
<linearGradient id="paint0_linear_62_2" x1="3.16666" y1="46.148" x2="46.5481" y2="2.64821" gradientUnits="userSpaceOnUse">
<stop stop-color="#00AEE9"/>
<stop offset="1" stop-color="#69FABD"/>
</linearGradient>
<clipPath id="clip0_62_2">
<rect width="50" height="50" fill="white"/>
</clipPath>
<clipPath id="clip1_62_2">
<rect width="50" height="49.8639" fill="white"/>
</clipPath>
</defs>
</svg>
