<svg xmlns="http://www.w3.org/2000/svg" width="48" height="48" fill="none" viewBox="0 0 48 48"><g clip-path="url(#clip0_85_112)"><path fill="url(#paint0_linear_85_112)" fill-rule="evenodd" d="m45.884 33.858-1.41-.64c-.36.71-.65 1.45-1.1 2.11l1.34.78c.47-.7.79-1.49 1.17-2.25" clip-rule="evenodd"/><path fill="url(#paint1_linear_85_112)" fill-rule="evenodd" d="m47.344 29.539-1.51-.36c-.2.77-.36 1.55-.67 2.28l1.46.51c.33-.78.51-1.61.72-2.43" clip-rule="evenodd"/><path fill="url(#paint2_linear_85_112)" fill-rule="evenodd" d="m47.964 25.04-1.55-.07-.06 1.19c-.03.4-.11.79-.17 1.18l1.53.23c.06-.42.14-.84.18-1.26z" clip-rule="evenodd"/><path fill="url(#paint3_linear_85_112)" fill-rule="evenodd" d="m35.217 43.445-.51.31-.54.26.71 1.38.57-.28.55-.33 1.08-.66-.84-1.29z" clip-rule="evenodd"/><path fill="url(#paint4_linear_85_112)" fill-rule="evenodd" d="m40.646 41.286-1.07-1.12-.88.8c-.15.13-.29.27-.44.4l-.48.36.95 1.22.51-.38c.16-.14.32-.28.47-.42z" clip-rule="evenodd"/><path fill="url(#paint5_linear_85_112)" fill-rule="evenodd" d="m43.605 37.837-1.27-.89c-.49.62-.92 1.3-1.48 1.87l1.16 1.02c.61-.61 1.07-1.33 1.59-2" clip-rule="evenodd"/><path fill="url(#paint6_linear_85_112)" fill-rule="evenodd" d="m24.12 48.014-.01-1.55c-.79-.02-1.59-.08-2.38-.11l-.15 1.54c.84.05 1.69.11 2.54.12" clip-rule="evenodd"/><path fill="url(#paint7_linear_85_112)" fill-rule="evenodd" d="m28.659 47.564-.3-1.52c-.79.1-1.57.27-2.36.33l.14 1.54c.84-.07 1.68-.24 2.52-.35" clip-rule="evenodd"/><path fill="url(#paint8_linear_85_112)" fill-rule="evenodd" d="m33.008 46.254-.58-1.44-1.12.41-.56.21c-.19.07-.38.1-.57.16l.43 1.49c.2-.06.41-.1.61-.17l.6-.22z" clip-rule="evenodd"/><path fill="url(#paint9_linear_85_112)" fill-rule="evenodd" d="m11.444 42.645-.48-.35-.95-.72-.97 1.22 1.53 1.14.55.33.83-1.31z" clip-rule="evenodd"/><path fill="url(#paint10_linear_85_112)" fill-rule="evenodd" d="m15.183 46.334.57-1.44c-.19-.07-.38-.13-.56-.21l-.54-.26-1.07-.519-.72 1.37 1.15.55.57.28c.2.09.4.15.6.23" clip-rule="evenodd"/><path fill="url(#paint11_linear_85_112)" fill-rule="evenodd" d="m19.551 47.594.29-1.52c-.4-.04-.78-.17-1.16-.26l-1.149-.3-.45 1.48 1.23.32c.41.1.81.24 1.24.28" clip-rule="evenodd"/><path fill="url(#paint12_linear_85_112)" fill-rule="evenodd" d="m2.206 34.088 1.41-.65c-.38-.7-.6-1.47-.89-2.21l-1.47.5c.31.79.55 1.61.95 2.36" clip-rule="evenodd"/><path fill="url(#paint13_linear_85_112)" fill-rule="evenodd" d="m4.516 38.027 1.26-.91c-.51-.61-.86-1.33-1.29-2l-1.35.77c.45.72.84 1.48 1.38 2.14" clip-rule="evenodd"/><path fill="url(#paint14_linear_85_112)" fill-rule="evenodd" d="m7.505 41.446 1.06-1.13-.44-.4c-.14-.14-.27-.29-.4-.44l-.8-.88-1.18 1.01.86.94c.14.16.28.32.43.47z" clip-rule="evenodd"/><path fill="url(#paint15_linear_85_112)" fill-rule="evenodd" d="m.217 20.712 1.53.21.18-1.18c.04-.4.18-.77.27-1.16l-1.5-.37c-.09.41-.24.82-.29 1.24z" clip-rule="evenodd"/><path fill="url(#paint16_linear_85_112)" fill-rule="evenodd" d="m.027 22.72-.06 1.27.06 1.28 1.55-.08-.06-1.2.06-1.19z" clip-rule="evenodd"/><path fill="url(#paint17_linear_85_112)" fill-rule="evenodd" d="m.687 29.759 1.5-.37c-.23-.76-.33-1.55-.45-2.34l-1.54.21c.15.84.25 1.68.49 2.5" clip-rule="evenodd"/><path fill="url(#paint18_linear_85_112)" fill-rule="evenodd" d="m5.765 8.375 1.18 1.01.8-.88c.14-.15.26-.3.4-.44l.44-.4-1.06-1.12-.47.43c-.15.15-.29.31-.43.47z" clip-rule="evenodd"/><path fill="url(#paint19_linear_85_112)" fill-rule="evenodd" d="m3.136 12.104 1.34.77c.43-.67.79-1.38 1.29-2l-1.26-.91c-.53.66-.91 1.42-1.37 2.14" clip-rule="evenodd"/><path fill="url(#paint20_linear_85_112)" fill-rule="evenodd" d="m1.266 16.243 1.47.5c.28-.74.51-1.51.89-2.21l-1.4-.65c-.41.76-.66 1.57-.96 2.36" clip-rule="evenodd"/><path fill="url(#paint21_linear_85_112)" fill-rule="evenodd" d="m17.102.997.44 1.48 1.15-.3c.39-.09.77-.22 1.16-.26l-.28-1.52c-.42.05-.83.17-1.24.27z" clip-rule="evenodd"/><path fill="url(#paint22_linear_85_112)" fill-rule="evenodd" d="m12.873 2.716.72 1.37 1.07-.52.54-.26c.18-.08.37-.14.56-.21l-.57-1.43c-.2.07-.4.14-.6.22l-.57.28z" clip-rule="evenodd"/><path fill="url(#paint23_linear_85_112)" fill-rule="evenodd" d="m9.064 5.196.96 1.21.95-.71c.16-.12.32-.24.48-.35l.51-.31-.83-1.31-.54.33c-.18.12-.34.25-.51.38z" clip-rule="evenodd"/><path fill="url(#paint24_linear_85_112)" fill-rule="evenodd" d="m30.628.927-.43 1.49c.39.08.76.22 1.13.36l1.12.41.58-1.43-1.2-.44c-.38-.15-.78-.3-1.2-.39" clip-rule="evenodd"/><path fill="url(#paint25_linear_85_112)" fill-rule="evenodd" d="m26.15.087-.14 1.54c.79.06 1.57.23 2.359.33l.3-1.52c-.84-.11-1.68-.28-2.52-.35" clip-rule="evenodd"/><path fill="url(#paint26_linear_85_112)" fill-rule="evenodd" d="m21.6.097.15 1.54c.79-.03 1.59-.09 2.38-.11l.01-1.55c-.84.02-1.69.08-2.54.12" clip-rule="evenodd"/><path fill="url(#paint27_linear_85_112)" fill-rule="evenodd" d="m42.045 8.185-1.17 1.02.4.44c.13.15.24.32.36.47l.71.95 1.27-.89-.76-1.02c-.13-.17-.25-.34-.39-.5z" clip-rule="evenodd"/><path fill="url(#paint28_linear_85_112)" fill-rule="evenodd" d="m38.726 5.056-.95 1.22.48.36c.15.13.29.27.44.4l.88.799 1.08-1.12-.94-.86c-.16-.14-.31-.29-.47-.42z" clip-rule="evenodd"/><path fill="url(#paint29_linear_85_112)" fill-rule="evenodd" d="m34.727 4.256 1.53.93.85-1.3-1.09-.66-.55-.33-.57-.28-.7 1.38z" clip-rule="evenodd"/><path fill="url(#paint30_linear_85_112)" fill-rule="evenodd" d="m47.724 20.462-1.53.23c.05.39.14.78.16 1.18l.06 1.189 1.55-.06-.06-1.27c-.04-.44-.12-.85-.18-1.27" clip-rule="evenodd"/><path fill="url(#paint31_linear_85_112)" fill-rule="evenodd" d="m46.634 16.033-1.46.51c.31.73.47 1.52.67 2.279l1.51-.36c-.22-.81-.4-1.64-.72-2.43" clip-rule="evenodd"/><path fill="url(#paint32_linear_85_112)" fill-rule="evenodd" d="m44.724 11.914-1.34.78c.45.66.73 1.41 1.09 2.11l1.41-.64c-.37-.75-.69-1.55-1.16-2.25" clip-rule="evenodd"/></g><g clip-path="url(#circleClip)"><svg xmlns="http://www.w3.org/2000/svg" xml:space="preserve" id="logo" width="48" height="48" version="1.1" viewBox="0 0 706.8 665.2"><style>.st0{fill:#fff}.st2{fill:#1b314f}</style><path d="M168.2 366.5 186.9 226 24.7 113.4l148.2 50.2 35-53.7 127.8-79.3 281.7 155.2L632 422.6 506.5 597l-99.2 15.2 51.3-93.9v-90.4l-37.3-70.6-37.9-25.1-58.3 60.1v63.6l-45.5 42.6-57.8 7-25.6 14.5-42-13.4-17.5-63 31.5-44.3z" class="st0"/><path d="M427.2 112.2c-30.9-6.4-64.7-4.7-64.7-4.7s-11.1 51.3-79.9 64.8c.5 0 90.9 30.9 144.6-60.1m28 465.5c37.3-29.2 65.3-69.4 78.2-114.9.6-1.7 5.8-4.7 9.3-7 5.8-3.5 11.7-6.4 12.8-11.1 2.3-13.4 3.5-27.4 3.5-41.4 0-5.2-5.3-10.5-10.5-15.7-4.1-3.5-8.2-7.6-8.2-10.5-5.8-53.1-30.3-102.7-69.4-138.8l-4.1 4.1c37.9 35.6 62.4 84 67.7 135.3.6 4.7 5.2 9.3 9.9 14 4.1 3.5 8.8 8.8 8.8 11.1 0 13.4-1.2 26.8-3.5 40.2-.6 2.3-5.8 4.7-9.9 7-5.8 2.9-11.1 5.8-12.2 10.5-14 49.6-46.1 92.8-88.7 120.8 7.6-16.3 31.5-69.4 44.3-96.3l-2.3-86.3-74.1-71.7-42 5.8-46.1 74.7s21.6 27.4-8.8 59.5c-29.7 31.5-53.1 38.5-53.1 38.5l-21.6-11.7c6.4-8.2 19.3-20.4 29.2-28.6 16.9-14 33.8-15.2 33.8-30.3.7-31.6-33.2-22.9-33.2-22.9l-12.3 11.7-5.2 43.2-25.6 32.1-2.9-.6-42-9.3s25.7-13.4 29.8-28.6c4.1-14.6-8.2-63-8.8-65.9.6.6 12.3 10.5 17.5 26.8 9.3-25.7 21.6-50.2 25.1-52.5s50.7-27.4 50.7-27.4l-15.7 41.4 11.7-6.4 28-68.8s27.4-13.4 47.8-13.4c36.7-.6 91-45.5 66.5-126 7 2.9 128.3 63.6 149.3 182.6 15.7 91.5-36.2 177.2-123.7 226.8" style="fill:#94a6c3"/><path d="M316.4 125c13.4-15.8 8.2-39.1 8.2-39.1l-39.1 57.8c-.6 0 13.9.6 30.9-18.7M185.1 440.6l4.7-23.3s-19.3 33.8-21 38.5c-1.8 5.3 1.2 14.6 8.7 14 7.6-.6 16.9-11.7 16.9-19.8 0-10.5-9.3-9.4-9.3-9.4" class="st2"/><path d="M531.6 69.6s29.2 1.2 59.5 4.7c-68.3-53.7-133-69.4-185.5-69.4-72.3 0-121.3 29.8-124.3 31.5L304.1.2s-91-8.8-123.1 87.5c-8.2-20.4-15.7-50.2-15.7-50.2S118 79 140.2 147.8C85.9 128 8.4 100.5 5.4 100c-4.1-.6-5.3 1.2-5.3 1.2s-1.2 1.7 2.3 4.7c6.5 5.1 129 95.6 155.9 113.1-5.8 21-5.8 30.9 0 40.8 8.2 13.4 8.7 20.4 7.6 30.3-1.2 9.9-11.7 95.7-14 106.2s-26.8 47.8-25.7 58.9c1.2 11.1 16.3 58.3 29.8 63.6 9.9 3.5 34.4 11.1 50.7 11.1 5.8 0 11.1-1.2 13.4-3.5 9.9-8.7 12.8-10.5 19.8-10.5h1.7c2.9 0 6.4.6 10.5.6 9.3 0 21.6-1.8 30.3-9.9 12.8-12.8 35-30.3 42-38.5 8.8-11.1 13.4-26.2 11.1-41.4-1.8-14 5.8-26.3 14.6-38.5 11.1-14.6 31.5-40.8 31.5-40.8C421.9 377.6 447 423.7 447 475c0 91-79.3 164.5-177.3 164.5-15.2 0-29.7-1.7-44.3-5.2 44.9 15.7 82.8 21 113.8 21 65.9 0 100.9-23.9 100.9-23.9s-12.2 15.8-32.1 33.8h.6c109.1-15.2 162.2-105 162.2-105s-4.1 29.2-9.3 49c145.1-109.1 120.6-245.6 120-250.2 1.2 1.7 15.8 19.2 23.3 28.6 23.4-240.4-173.2-318-173.2-318M308.2 453.5c-2.3 2.9-12.2 11.7-19.2 18.1s-14.6 12.8-20.4 18.7c-2.3 2.3-7 3.5-14 3.5h-17.5c8.8-11.7 34.4-38.5 43.2-44.3 10.5-7 15.8-14 9.3-26.2-6.4-12.3-23.3-9.3-23.3-9.3s9.9-4.1 18.7-4.1c-11.1-2.9-25.1 0-31.5 6.4-7 6.4-5.8 29.2-8.7 43.7-2.9 15.2-12.8 22.8-28 36.8-8.2 7.6-14 9.9-18.7 9.9-9.9-1.7-21.6-4.7-29.8-7.6-5.8-7.6-14.6-32.7-16.9-43.2 1.7-5.8 8.7-18.1 12.2-25.1 7-13.4 11.1-21 12.3-28 2.3-9.9 9.9-71.2 12.8-96.8 7.6 9.9 18.1 26.3 15.7 36.8 16.9-23.9 4.7-47.3-1.2-56.6-5.2-9.3-12.2-28-6.4-47.8s26.8-74.7 26.8-74.7 7 12.3 16.9 9.9c9.9-2.3 89.8-122.5 89.8-122.5s21.6 47.2-1.2 81.7c-23.3 34.4-46.1 40.8-46.1 40.8s32.1 5.8 61.8-15.8c12.2 28.6 23.9 58.3 24.5 62.4-1.8 4.1-25.1 60.1-27.4 63.6-1.2 1.2-9.3 3.5-15.2 4.7-9.9 2.9-15.7 4.7-18.1 6.4-4.1 3.5-22.8 54.8-31.5 79.9-10.5 2.9-21 8.8-28.6 20.4 4.1-2.9 16.9-4.7 26.3-5.8 8.2-.6 33.2 12.8 39.7 37.9v1.2c1.3 9.2-1.6 18-6.3 25m-54.8 7c5.3-7.6 4.7-20.4 5.3-24.5s1.7-11.7 6.4-12.8c4.7-1.2 15.8.6 15.8 8.7 0 7.6-8.2 9.3-14 14.6-4.2 4-12.4 12.8-13.5 14M486.1 349c5.8-29.7 6.4-55.4 4.7-76.4 22.7 30.3 36.7 67.1 40.8 105 .6 4.7 5.2 9.3 9.9 14 4.1 3.5 8.8 8.2 8.8 11.1 0 13.4-1.2 26.8-3.5 40.3-.6 1.7-5.8 4.7-9.9 7-5.8 2.9-11.1 5.8-12.2 10.5-12.8 44.9-40.3 84.6-77 112.6 54.2-56.6 80.4-150 38.4-224.1m-36.7 229.3c37.9-29.2 67.1-70 79.9-116.1.6-1.7 5.8-4.7 9.3-7 5.8-2.9 11.7-6.4 12.8-11.1 2.3-13.4 3.5-27.4 3.5-41.4 0-5.2-5.3-10.5-10.5-15.7-2.9-3.5-7.6-7.6-7.6-10.5-4.7-42.6-21.6-82.8-47.8-116.1-11.7-70-58.3-91.6-59.5-92.2 1.2 1.8 31.5 45.5 10.5 96.8-21.6 51.9-77 43.8-81.7 44.3-4.7 0-22.7 23.3-45.5 66.5-2.9-1.2-15.2-4.1-29.2-1.7 10.5-29.2 26.3-70.6 29.2-74.1 1.2-1.2 9.9-3.5 15.8-5.2 11.1-2.9 16.3-4.7 18.1-7 1.2-1.8 7-15.2 12.8-29.2 5.3 0 18.7-1.2 19.8-1.8 1.2-1.2 12.3-29.7 12.3-33.2 0-2.9-22.8-59.5-31.5-81.1 4.1-4.7 8.2-10.5 12.2-16.9 119.6 12.9 213 114.4 213 237.4 0 94.5-55.4 176.8-135.9 215.3" class="st2"/><path d="M294.2 263.3c11.1-12.8 5.3-36.7-15.2-40.8 5.3-12.2 12.8-36.7 12.8-36.7s-59.5 93.3-64.7 95.1c-5.3 1.8-10.5-18.7-10.5-18.7-11.1 42.6 18.7 48.4 22.2 35 16.3-4.2 44.3-21.7 55.4-33.9" class="st2"/><path d="m243.4 286 30.3-51.9s17.5 8.8 8.7 22.8c-11 16.3-39 29.1-39 29.1" style="fill:#ffd923"/><path d="M618.5 526.4c-8.8 11.7-18.7 23.9-30.3 35.6 75.2-144.7 3.5-277.1.6-282.3 5.3 5.3 10.5 11.1 15.2 16.3 57.7 64.1 64.7 160.4 14.5 230.4m70-186.1c-26.3-70.6-63.6-130.7-145.8-184.9-79.3-52.5-164.5-48.4-169.2-47.8h-1.2c2.9-1.2 5.8-1.8 8.7-2.3 18.1-5.8 41.4-10.5 64.8-13.4C507.7 83 570.1 104 612.7 149l1.2 1.2c48.4 51.3 73.5 115.4 74.6 190.1M524 51.5c-86.9-16.3-142.9-8.2-183.2 7-1.2-4.7-5.3-14-8.8-21.6-12.1 14.6-25 32.1-33.1 43.2-22.2 15.2-31.5 29.8-31.5 29.8 12.8-43.8 50.2-76.4 95.7-84.6 12.8-2.3 26.8-3.5 42-3.5 40.2.6 80.4 10.5 118.9 29.7m-321.4 112c-68.2-2.3-45.5-81.7-44.3-86.3 0 .6 4.6 62.4 44.3 86.3m67.1-142.9c-52.5 31.5-42 106.7-42 106.7-50.2-76.3 37.9-104.9 42-106.7" style="fill:#d82122"/><path d="M183.4 184.5c3.5 2.9 7 8.2 2.9 15.8-2.3 4.1-5.8 3.5-11.1 1.2-7-3.5-49-28-86.9-53.1 43.2 15.2 86.9 31.5 93.9 35 0 0 .6.6 1.2 1.1" class="st0"/></svg></g><defs><linearGradient id="paint0_linear_85_112" x1="89.53" x2="-825.17" y1="68.3" y2="-779.228" gradientUnits="userSpaceOnUse"><stop stop-color="#B6509E"/><stop offset="1" stop-color="#2EBAC6"/></linearGradient><linearGradient id="paint1_linear_85_112" x1="128.494" x2="-821.333" y1="88.03" y2="-890.21" gradientUnits="userSpaceOnUse"><stop stop-color="#B6509E"/><stop offset="1" stop-color="#2EBAC6"/></linearGradient><linearGradient id="paint2_linear_85_112" x1="208.381" x2="-798.122" y1="123.642" y2="-1059.46" gradientUnits="userSpaceOnUse"><stop stop-color="#B6509E"/><stop offset="1" stop-color="#2EBAC6"/></linearGradient><linearGradient id="paint3_linear_85_112" x1="97.496" x2="-879.277" y1="92.507" y2="-598.994" gradientUnits="userSpaceOnUse"><stop stop-color="#B6509E"/><stop offset="1" stop-color="#2EBAC6"/></linearGradient><linearGradient id="paint4_linear_85_112" x1="78.258" x2="-846.56" y1="70.379" y2="-650.515" gradientUnits="userSpaceOnUse"><stop stop-color="#B6509E"/><stop offset="1" stop-color="#2EBAC6"/></linearGradient><linearGradient id="paint5_linear_85_112" x1="75.026" x2="-829.603" y1="62.533" y2="-702.513" gradientUnits="userSpaceOnUse"><stop stop-color="#B6509E"/><stop offset="1" stop-color="#2EBAC6"/></linearGradient><linearGradient id="paint6_linear_85_112" x1="262.521" x2="-1053.41" y1="317.895" y2="-374.189" gradientUnits="userSpaceOnUse"><stop stop-color="#B6509E"/><stop offset="1" stop-color="#2EBAC6"/></linearGradient><linearGradient id="paint7_linear_85_112" x1="189.598" x2="-1025.6" y1="215.72" y2="-471.757" gradientUnits="userSpaceOnUse"><stop stop-color="#B6509E"/><stop offset="1" stop-color="#2EBAC6"/></linearGradient><linearGradient id="paint8_linear_85_112" x1="133.663" x2="-930.647" y1="135.723" y2="-551.282" gradientUnits="userSpaceOnUse"><stop stop-color="#B6509E"/><stop offset="1" stop-color="#2EBAC6"/></linearGradient><linearGradient id="paint9_linear_85_112" x1="438.358" x2="-505.593" y1="383.608" y2="-318.594" gradientUnits="userSpaceOnUse"><stop stop-color="#B6509E"/><stop offset="1" stop-color="#2EBAC6"/></linearGradient><linearGradient id="paint10_linear_85_112" x1="367.884" x2="-644.885" y1="352.282" y2="-333.003" gradientUnits="userSpaceOnUse"><stop stop-color="#B6509E"/><stop offset="1" stop-color="#2EBAC6"/></linearGradient><linearGradient id="paint11_linear_85_112" x1="310.913" x2="-819.374" y1="330.087" y2="-355.394" gradientUnits="userSpaceOnUse"><stop stop-color="#B6509E"/><stop offset="1" stop-color="#2EBAC6"/></linearGradient><linearGradient id="paint12_linear_85_112" x1="796.792" x2="-129.901" y1="536.642" y2="-367.096" gradientUnits="userSpaceOnUse"><stop stop-color="#B6509E"/><stop offset="1" stop-color="#2EBAC6"/></linearGradient><linearGradient id="paint13_linear_85_112" x1="640.69" x2="-263.86" y1="473.543" y2="-328.827" gradientUnits="userSpaceOnUse"><stop stop-color="#B6509E"/><stop offset="1" stop-color="#2EBAC6"/></linearGradient><linearGradient id="paint14_linear_85_112" x1="527.908" x2="-382.812" y1="424.179" y2="-316.503" gradientUnits="userSpaceOnUse"><stop stop-color="#B6509E"/><stop offset="1" stop-color="#2EBAC6"/></linearGradient><linearGradient id="paint15_linear_85_112" x1="1168.67" x2="194.923" y1="698.93" y2="-373.582" gradientUnits="userSpaceOnUse"><stop stop-color="#B6509E"/><stop offset="1" stop-color="#2EBAC6"/></linearGradient><linearGradient id="paint16_linear_85_112" x1="1359.4" x2="349.59" y1="702.843" y2="-584.24" gradientUnits="userSpaceOnUse"><stop stop-color="#B6509E"/><stop offset="1" stop-color="#2EBAC6"/></linearGradient><linearGradient id="paint17_linear_85_112" x1="1029.35" x2="55.146" y1="617.607" y2="-450.02" gradientUnits="userSpaceOnUse"><stop stop-color="#B6509E"/><stop offset="1" stop-color="#2EBAC6"/></linearGradient><linearGradient id="paint18_linear_85_112" x1="874.387" x2="-38.877" y1="702.532" y2="-37.617" gradientUnits="userSpaceOnUse"><stop stop-color="#B6509E"/><stop offset="1" stop-color="#2EBAC6"/></linearGradient><linearGradient id="paint19_linear_85_112" x1="933.728" x2="28.774" y1="687.088" y2="-118.691" gradientUnits="userSpaceOnUse"><stop stop-color="#B6509E"/><stop offset="1" stop-color="#2EBAC6"/></linearGradient><linearGradient id="paint20_linear_85_112" x1="1019.51" x2="92.815" y1="686.801" y2="-216.936" gradientUnits="userSpaceOnUse"><stop stop-color="#B6509E"/><stop offset="1" stop-color="#2EBAC6"/></linearGradient><linearGradient id="paint21_linear_85_112" x1="812.862" x2="-319.316" y1="861.405" y2="172.282" gradientUnits="userSpaceOnUse"><stop stop-color="#B6509E"/><stop offset="1" stop-color="#2EBAC6"/></linearGradient><linearGradient id="paint22_linear_85_112" x1="813.991" x2="-201.396" y1="781.595" y2="97.365" gradientUnits="userSpaceOnUse"><stop stop-color="#B6509E"/><stop offset="1" stop-color="#2EBAC6"/></linearGradient><linearGradient id="paint23_linear_85_112" x1="837.936" x2="-109.46" y1="731.376" y2="26.812" gradientUnits="userSpaceOnUse"><stop stop-color="#B6509E"/><stop offset="1" stop-color="#2EBAC6"/></linearGradient><linearGradient id="paint24_linear_85_112" x1="606.97" x2="-460.098" y1="612.111" y2="-73.641" gradientUnits="userSpaceOnUse"><stop stop-color="#B6509E"/><stop offset="1" stop-color="#2EBAC6"/></linearGradient><linearGradient id="paint25_linear_85_112" x1="717.133" x2="-498.065" y1="817.847" y2="130.371" gradientUnits="userSpaceOnUse"><stop stop-color="#B6509E"/><stop offset="1" stop-color="#2EBAC6"/></linearGradient><linearGradient id="paint26_linear_85_112" x1="820.019" x2="-495.907" y1="1001.94" y2="309.858" gradientUnits="userSpaceOnUse"><stop stop-color="#B6509E"/><stop offset="1" stop-color="#2EBAC6"/></linearGradient><linearGradient id="paint27_linear_85_112" x1="394.545" x2="-513.251" y1="308.62" y2="-459.241" gradientUnits="userSpaceOnUse"><stop stop-color="#B6509E"/><stop offset="1" stop-color="#2EBAC6"/></linearGradient><linearGradient id="paint28_linear_85_112" x1="450.145" x2="-473.882" y1="380.09" y2="-337.685" gradientUnits="userSpaceOnUse"><stop stop-color="#B6509E"/><stop offset="1" stop-color="#2EBAC6"/></linearGradient><linearGradient id="paint29_linear_85_112" x1="518.793" x2="-455.432" y1="475.886" y2="-216.507" gradientUnits="userSpaceOnUse"><stop stop-color="#B6509E"/><stop offset="1" stop-color="#2EBAC6"/></linearGradient><linearGradient id="paint30_linear_85_112" x1="285.61" x2="-719.969" y1="167.357" y2="-1021.33" gradientUnits="userSpaceOnUse"><stop stop-color="#B6509E"/><stop offset="1" stop-color="#2EBAC6"/></linearGradient><linearGradient id="paint31_linear_85_112" x1="310.89" x2="-638.94" y1="204.963" y2="-773.277" gradientUnits="userSpaceOnUse"><stop stop-color="#B6509E"/><stop offset="1" stop-color="#2EBAC6"/></linearGradient><linearGradient id="paint32_linear_85_112" x1="57.625" x2="16.161" y1="23.836" y2="-9.531" gradientUnits="userSpaceOnUse"><stop stop-color="#B6509E"/><stop offset="1" stop-color="#2EBAC6"/></linearGradient><clipPath id="circleClip"><circle cx="24" cy="24" r="21"/></clipPath><clipPath id="clip0_85_112"><path fill="#fff" d="M0 0h48v48H0z"/></clipPath></defs></svg>