<svg xmlns="http://www.w3.org/2000/svg" width="48" height="48" fill="none" viewBox="0 0 48 48"><g fill-rule="evenodd" clip-path="url(#a)" clip-rule="evenodd"><path fill="url(#b)" d="m45.884 33.858-1.41-.64c-.36.71-.65 1.45-1.1 2.11l1.34.78c.47-.7.79-1.49 1.17-2.25"/><path fill="url(#c)" d="m47.344 29.539-1.51-.36c-.2.77-.36 1.55-.67 2.28l1.46.51c.33-.78.51-1.61.72-2.43"/><path fill="url(#d)" d="m47.964 25.04-1.55-.07-.06 1.19c-.03.4-.11.79-.17 1.18l1.53.23c.06-.42.14-.84.18-1.26z"/><path fill="url(#e)" d="m35.217 43.445-.51.31-.54.26.71 1.38.57-.28.55-.33 1.08-.66-.84-1.29z"/><path fill="url(#f)" d="m40.646 41.286-1.07-1.12-.88.8c-.15.13-.29.27-.44.4l-.48.36.95 1.22.51-.38c.16-.14.32-.28.47-.42z"/><path fill="url(#g)" d="m43.605 37.837-1.27-.89c-.49.62-.92 1.3-1.48 1.87l1.16 1.02c.61-.61 1.07-1.33 1.59-2"/><path fill="url(#h)" d="m24.12 48.014-.01-1.55c-.79-.02-1.59-.08-2.38-.11l-.15 1.54c.84.05 1.69.11 2.54.12"/><path fill="url(#i)" d="m28.659 47.564-.3-1.52c-.79.1-1.57.27-2.36.33l.14 1.54c.84-.07 1.68-.24 2.52-.35"/><path fill="url(#j)" d="m33.008 46.254-.58-1.44-1.12.41-.56.21c-.19.07-.38.1-.57.16l.43 1.49c.2-.06.41-.1.61-.17l.6-.22z"/><path fill="url(#k)" d="m11.444 42.645-.48-.35-.95-.72-.97 1.22 1.53 1.14.55.33.83-1.31z"/><path fill="url(#l)" d="m15.183 46.334.57-1.44c-.19-.07-.38-.13-.56-.21l-.54-.26-1.07-.519-.72 1.37 1.15.55.57.28c.2.09.4.15.6.23"/><path fill="url(#m)" d="m19.551 47.594.29-1.52c-.4-.04-.78-.17-1.16-.26l-1.149-.3-.45 1.48 1.23.32c.41.1.81.24 1.24.28"/><path fill="url(#n)" d="m2.206 34.088 1.41-.65c-.38-.7-.6-1.47-.89-2.21l-1.47.5c.31.79.55 1.61.95 2.36"/><path fill="url(#o)" d="m4.516 38.027 1.26-.91c-.51-.61-.86-1.33-1.29-2l-1.35.77c.45.72.84 1.48 1.38 2.14"/><path fill="url(#p)" d="m7.505 41.446 1.06-1.13-.44-.4c-.14-.14-.27-.29-.4-.44l-.8-.88-1.18 1.01.86.94c.14.16.28.32.43.47z"/><path fill="url(#q)" d="m.217 20.712 1.53.21.18-1.18c.04-.4.18-.77.27-1.16l-1.5-.37c-.09.41-.24.82-.29 1.24z"/><path fill="url(#r)" d="m.027 22.72-.06 1.27.06 1.28 1.55-.08-.06-1.2.06-1.19z"/><path fill="url(#s)" d="m.687 29.759 1.5-.37c-.23-.76-.33-1.55-.45-2.34l-1.54.21c.15.84.25 1.68.49 2.5"/><path fill="url(#t)" d="m5.765 8.375 1.18 1.01.8-.88c.14-.15.26-.3.4-.44l.44-.4-1.06-1.12-.47.43c-.15.15-.29.31-.43.47z"/><path fill="url(#u)" d="m3.136 12.104 1.34.77c.43-.67.79-1.38 1.29-2l-1.26-.91c-.53.66-.91 1.42-1.37 2.14"/><path fill="url(#v)" d="m1.266 16.243 1.47.5c.28-.74.51-1.51.89-2.21l-1.4-.65c-.41.76-.66 1.57-.96 2.36"/><path fill="url(#w)" d="m17.102.997.44 1.48 1.15-.3c.39-.09.77-.22 1.16-.26l-.28-1.52c-.42.05-.83.17-1.24.27z"/><path fill="url(#x)" d="m12.873 2.716.72 1.37 1.07-.52.54-.26c.18-.08.37-.14.56-.21l-.57-1.43c-.2.07-.4.14-.6.22l-.57.28z"/><path fill="url(#y)" d="m9.064 5.196.96 1.21.95-.71c.16-.12.32-.24.48-.35l.51-.31-.83-1.31-.54.33c-.18.12-.34.25-.51.38z"/><path fill="url(#z)" d="m30.628.927-.43 1.49c.39.08.76.22 1.13.36l1.12.41.58-1.43-1.2-.44c-.38-.15-.78-.3-1.2-.39"/><path fill="url(#A)" d="m26.15.087-.14 1.54c.79.06 1.57.23 2.359.33l.3-1.52c-.84-.11-1.68-.28-2.52-.35"/><path fill="url(#B)" d="m21.6.097.15 1.54c.79-.03 1.59-.09 2.38-.11l.01-1.55c-.84.02-1.69.08-2.54.12"/><path fill="url(#C)" d="m42.045 8.185-1.17 1.02.4.44c.13.15.24.32.36.47l.71.95 1.27-.89-.76-1.02c-.13-.17-.25-.34-.39-.5z"/><path fill="url(#D)" d="m38.726 5.056-.95 1.22.48.36c.15.13.29.27.44.4l.88.799 1.08-1.12-.94-.86c-.16-.14-.31-.29-.47-.42z"/><path fill="url(#E)" d="m34.727 4.256 1.53.93.85-1.3-1.09-.66-.55-.33-.57-.28-.7 1.38z"/><path fill="url(#F)" d="m47.724 20.462-1.53.23c.05.39.14.78.16 1.18l.06 1.189 1.55-.06-.06-1.27c-.04-.44-.12-.85-.18-1.27"/><path fill="url(#G)" d="m46.634 16.033-1.46.51c.31.73.47 1.52.67 2.279l1.51-.36c-.22-.81-.4-1.64-.72-2.43"/><path fill="url(#H)" d="m44.724 11.914-1.34.78c.45.66.73 1.41 1.09 2.11l1.41-.64c-.37-.75-.69-1.55-1.16-2.25"/></g><g clip-path="url(#I)"><svg xmlns="http://www.w3.org/2000/svg" xmlns:xlink="http://www.w3.org/1999/xlink" width="48" height="48" viewBox="0 0 512 512"><path fill="url(#J)" d="M512 257a256 256 0 1 1-512 0 256 256 0 0 1 512 0"/><g fill-rule="evenodd"><use xlink:href="#K" fill="#52be68"/><use xlink:href="#K" fill="url(#L)"/><g fill="#fff"><path d="m237 280 2 14-28 6-4-15zm-27 7 3 10 23-5-1-9z"/><path d="m210 285 3 14-24 8-6-14zm-24 9 4 10 20-6-2-10z"/><path d="m235 267 2 15-29 6-4-17zm-28 6 3 12 25-5-2-10z"/><path d="m207 271 3 16-26 8-5-17zm-25 9 4 12 21-6-2-12zm56 11 3 12-26 6-5-12zm-24 8 2 8 22-6-1-7z"/><path d="m213 297 4 12-23 9-6-13zm-22 10 4 8 19-8-3-7zm43-55 2 17-31 5-3-18zm-29 6 2 13 26-4-1-12z"/><path d="m204 255 3 18-27 7-5-18zm-26 8 3 14 24-5-3-14zm88 14 1 13-31 4-2-14zm-29 5 1 9 26-3v-8zm3 18 2 9-24 7-4-9zm-23 9 2 5 20-6-1-5zm-32-17 6 14-20 11-8-15zm-18 11 5 11 16-9-4-10z"/><path d="m216 306 4 10-20 9-7-10zm-19 10 3 6 17-8-2-5zm69-51v15l-31 3-2-16zm-30 4 1 11 27-3v-10zm-55 8 5 17-22 10-6-17zm-20 11 5 13 17-8-3-13zm106 0v10l-29 5-2-11zm-28 6 1 6 24-4v-6z"/><path d="m190 304 6 12-18 11-8-12zm-17 12 6 8 14-9-4-8zm60-80 1 18-32 4-2-19zm-30 5 1 14 28-3-1-13z"/><path d="m202 238 3 20-29 6-4-20zm-27 8 3 15 24-5-2-15zm91 5v16l-33 2-1-17zm-31 4 1 12 28-2v-11z"/><path d="m178 261 4 19-24 9-5-19zm-22 10 4 15 19-8-3-14zm111 25v9l-27 5-2-9zm-26 7 1 4 22-4v-4z"/><path d="m242 307 2 6-22 8-5-7zm-21 9 2 2 18-6-1-2zm-26-2 7 10-17 11-9-10zm-15 12 6 6 12-9-4-5z"/><path d="m219 314 5 6-18 9-8-6zm-16 10 3 3 15-8-2-2zm63-88v17l-34 2-1-19zm-33 3 1 13 30-1v-13zm-58 4 3 20-25 9-4-21zm-23 10 3 16 20-7-2-16zm115 49v6l-25 6-3-6zm-24 7v2l22-5v-1z"/><path d="M233 219v19l-33 3-1-20zm-32 4 1 16 29-3-1-14zm96 53-2 12-31 2v-13zm-30 4v8l26-2 1-7z"/><path d="m201 221 2 20-30 5-3-21zm-28 6 2 16 25-4-1-16zm123 59-2 10-30 3v-11zm-29 4v6l25-2 1-6zm-3-25h34l-1 14-33 1zm2 2v10l29-1v-9zm-101 34 8 15-16 12-9-15zm-14 12 7 11 12-9-5-11z"/><path d="m160 286 6 17-17 12-8-18zm-16 12 6 13 14-9-5-13zm56 24 8 6-15 11-10-6zm-12 11 5 3 11-8-4-3zm-16-20 8 13-14 12-10-12zm-13 13 7 9 11-10-6-8zm84-15 4 3-21 8-7-3zm-17 9 7-3zm69-27-2 8-29 4v-9zm-28 6v3l24-3 1-3zm-3-48 35 1-1 15h-34zm2 2v12h30l1-11z"/><path d="m223 318 6 3-18 10-8-3zm0 3-14 7h2zm7-102 36 1v18l-35 1zm3 3v14h31v-14zm-78 47 6 19-19 12-7-20zm-17 12 5 15 15-9-4-15zm129 25v3l-23 6-4-3zm-89 18 9 9-12 13-11-9zm-10 13 7 6 9-10-6-6zm4-112 3 21-26 8-3-22zm-24 9 3 17 21-7-2-16z"/><path d="m294 299-3 6-26 4-1-6zm-27 6v1l23-3v-1zm-35-103 1 20-34 1-1-20zm-32 3 1 16 29-2v-15zm64 31 36 2-1 16-35-1zm2 2v13l31 1v-12z"/><path d="m200 202 1 21-31 5-1-22zm-29 6 1 17 27-4-1-16zm34 119 9 2-14 12-10-2zm1 2-10 8 4 1 9-8zm-55-79 5 21-20 11-6-21zm-18 12 4 17 16-9-4-16zm123 45-11 8-13 5-2 1-3 1-1-2 5-2z"/><path d="m185 332 10 6-11 12-11-5zm1 3-9 9 7 3 7-9zm44-133 36 2v18h-36zm2 2 1 15 31 1v-14zm64 98-6 4-25 4v-4zm-1-26 32 1-3 11h-31zm2 3-1 7h26l2-7z"/><path d="m325 286-3 9-30 1 1-10zm-30 2v6l25-1 1-5zm-56 27-22 15-14 3 23-13zm25-95 37 3-1 17-36-2zm2 3v13l31 2 1-13zm2 82-1 4-28 8 7-5zm28-40 33 2-3 12h-32zm2 2-1 9 28 1 1-8zm-127-61 2 21-27 8-2-23zm-25 8 2 17 22-6-1-16z"/><path d="m323 293-4 7-29 2 2-8zm-29 3-1 3 24-1 2-3zm-144 15 9 15-11 14-11-15zm-10 14 8 11 8-10-7-11z"/><path d="m158 324 9 12-9 14-12-12zm0 4-9 10 9 9 7-10zm39-144 35 1v19l-34 1zm3 3v16l30-1v-15zm97 65 34 3-2 14-33-2zm2 2-1 11 29 1 1-9zm-156 42 8 17-13 14-9-18zm-11 14 7 13 9-10-6-13zm16-79 3 22-21 11-4-23zm-19 12 3 17 17-8-3-17z"/><path d="M200 184v21l-31 4-1-22zm-30 5 1 17 27-3-1-16zm151 108-5 6-27 2 2-6zm-28 5h-1l23-2zm-73 24-12 13-12 3 15-13zm-8 5-8 6h2l7-6z"/><path d="m192 336 10 3-9 13-11-2zm1 3-7 9 6 1 6-9zm-27-4 10 9-7 14-13-9zm0 3-7 10 9 6 5-9zm122-36 4 3-27 5v-4zm-151-24 7 20-14 14-8-20zm-12 15 6 15 10-11-5-14zm105-109 36 4v18l-36-2zm2 3v15l32 2v-14z"/><path d="m264 204 37 4-1 18-36-4zm2 2v14l32 3v-13zm31 32 35 4-1 15-35-3zm3 3-1 11 29 3 2-11zm-50 65-3 8-21 9 6-8zm-16 11 11-5 1-1z"/><path d="m268 302-1 6-23 7 3-7 21-7zm-19 8-1 1 17-5v-1zm66-10 1 3h-3l-28 3 5-4zm-76 10-9 11-13 8-1-1 5-5zm-69-123 1 21-27 7-1-22zm-25 7 1 18 23-6-1-16zm29 149 11 5-6 14-13-5zm1 3-5 10 8 3 4-10zm-43-86 6 21-15 14-7-22zm-13 14 5 16 11-10-4-16z"/><path d="m146 211 2 23-22 10-3-23zm-20 12 2 17 18-8-2-17zm172 0 36 5-2 16-35-4zm2 3v12l30 4 1-12zm-103-60 35 2v19h-35zm3 3v15l30 1v-15zm88 129 1 6-24 4v-6zm-20 6-1 2 19-4v-2zm-59 32-7 14-12 2 9-13zm-8 5-6 8 6-1 4-8zm121-55 30 1-5 8h-28zm2 2-2 5h24l2-4z"/><path d="m325 277 30 2-4 10-29-1zm1 2-1 7 24 1 2-6zm-62-92 37 6v17l-37-4zm2 3v14l33 4v-13zm-66-24v21l-32 2v-21zm-29 4-1 17 27-3v-15zm140 129 5 4-27 3-3-4zm-95 29 5-5 1 2-7 9-17 12zm104-35h29l-5 7h-28zm1 2-1 2h22l2-2z"/><path d="m327 266 31 4-4 11-30-2zm2 3-2 8 25 2 3-7zm-99-101 37 4-1 18-36-3zm2 2v15l32 2v-13zm-49 178 11 1-4 14-13-1zm2 2-5 10 8 1 3-10zm66-50-2 10-18 8 4-10zm-14 10-2 3 12-5 1-4zm111-13-8 5-27 1 5-5zm-29 3h8z"/><path d="M268 295v9l-22 7 3-10zm-17 8-1 4 15-5v-4zm78-49 31 5-3 13-31-3zm2 3-2 10 26 2 2-8zm-32-49 35 6-1 17-35-6zm2 3v12l30 5 1-12zm-173 29 5 22-17 14-5-23zm-14 14 4 17 12-10-3-17zm25 69 10 15-6 15-12-15zm0 5-6 10 9 11 5-11z"/><path d="m148 336 11 12-5 15-13-12zm0 4-4 11 9 8 3-10zm91-35-5 12-17 12 8-13zm-12 13-1 1 6-4 1-2zm-97-11 10 18-8 16-11-18zm-6 16 8 13 5-11-7-13zm47-155-1 21-27 6v-22zm-26 7v17l23-5v-16zm194 125 1 2h-4l-23 1v-2l3-1zm-30-5 4 6-26 3-2-6zm-21 5 1 2 20-3-1-1z"/><path d="m145 192 1 22-22 10-2-23zm-20 10 1 18 18-8-1-17zm32 145 12 9-4 15-13-9zm1 4-3 10 9 6 3-10zm129-60 1 9-23 5v-9zm-19 7v4l17-4v-4zm62-56 32 5-2 14-32-4zm2 2-1 11 27 4 1-10zm-68-73 37 7v17l-37-5zm2 3v14l33 4v-12zm-68-25 35 3-1 18-35-1zm2 3v14l30 2v-14zm16 178-5 15-12 7 7-15zm-8 9-3 7 4-3 2-6zm-85-49 9 20-9 16-10-20zm-7 16 7 15 6-11-6-15z"/><path d="m201 149-1 20-32 2 1-20zm-29 4-1 15 26-1 1-15zm58-2 37 5v18l-37-4zm3 3-1 14 32 3v-12zm-30 193-3 14-13 2 5-14zm-9 4-3 9 7-1 2-9zm105-159 36 8-1 17-35-7zm2 3v13l31 6v-12zm32 103 7 4-27 1-6-4zm-114 27 6-9 2 1-5 8-7 9-2-1zm-52 30 13 5-3 14-14-5zm2 3-3 10 9 3 2-10zm-43-138 3 23-17 13-4-24zm-15 13 3 18 12-9-2-18zm220-5 33 7-2 15-32-6zm2 3-1 11 28 5 1-10zm-65 55v12l-20 6 2-12zm-16 8-1 6 14-4 1-6z"/><path d="m253 291-2 12-17 8 4-13zm-13 9-2 7 11-6 1-6zm67-11 3 8-24 3-2-8zm-20 5 1 4 19-3-2-3zm-169-23 7 22-11 15-7-21zm-9 16 6 16 7-11-5-16zm240 0 26 2-5 8-26-2zm2 2-3 4 21 2 2-4z"/><path d="m346 293 26 2-7 6-24-1zm1 2-2 2 19 1 2-1zm5-16 27 4-5 9-26-3zm2 3-2 5 21 2 2-5zm-68 1 1 11-22 4 1-11zm-18 6v6l17-3-1-6zm-27 7-4 13-14 12 6-15zm-10 12-2 5 6-5 1-5zm99-14 5 6-25 2-4-7zm-20 4 1 1 19-1-1-2zm-46-142 37 8v16l-37-6zm2 3v13l33 5v-11zm-88 200 12 2-1 14-14-1zm2 3-2 10h9l1-9zm-34-190-1 22-23 9 1-22zm-21 10v18l18-7v-17z"/><path d="m343 297 27 1-9 4h-26zM172 150l-2 20-27 6 2-21zm-25 7-1 16 22-5 1-15zm208 112 27 5-4 11-26-4zm2 3-2 7 21 3 3-6zm-25-58 33 8-1 15-33-7zm2 3v11l27 6 1-10zm-35-40 36 9v16l-36-7zm2 3v13l31 6v-11zm-102-46 34 3v17l-35-2zm3 2-1 14 29 1 1-12zm21 185-5 15-12 13 7-16zm-8 13-2 4 3-3 1-4z"/><path d="M339 300h22v2h-25v-2zm-128 42-1 13-13 7 3-14zm-8 8-2 8 7-4v-8zm155-91 27 6-3 11-27-4zm2 2-2 9 22 4 2-8zM231 137l36 6v16l-37-5zm2 2v13l31 4v-11zm72 142 3 10-23 3-1-11zm-19 4 1 7 18-3-1-5zm-84-151-2 18-31 1 2-19zm-29 3-1 13h26l1-14zm-48 62 1 23-17 13-2-24zm-15 14 1 18 13-10-1-17zm3 38 6 23-11 16-6-24zm-9 16 5 17 7-11-4-17zm120 48 5-9 2 1-4 10-6 10-2-2z"/><path d="m327 288 4 8-24 2-2-9zm-19 4 1 3 18-1-1-3zm-167 57 13 12-1 15-13-12zm2 5-1 9 9 8 1-9z"/><path d="m131 335 12 16-1 15-13-15zm2 6-2 9 9 11 1-9zm135-66v14l-18 5 1-14zm-15 7-1 9 14-4v-8zm75 16h24l10 4h-26z"/><path d="m254 279-2 15-15 7 3-15zm-12 9-2 9 10-5 1-9zm118-41 28 7-3 13-28-6zm2 3-2 9 23 5 2-9zM152 359l14 9-1 15-14-9zm2 5-1 9 10 6v-10zm46-6v14l-14 3 2-14zm-10 5-1 9 9-2v-9zm142-164 34 10-1 15-33-8zm3 4-1 11 29 7v-10zM122 320l11 18-2 16-12-18zm1 6-1 9 7 13 2-9zm162-53 1 12-20 4v-13zm-17 5v8l16-3-1-8zm-4-136 37 9v15l-37-8zm3 3v11l32 7-1-10z"/><path d="m299 163 35 10 1 16-36-9zm2 3v12l31 7v-10zm-58 118-3 16-12 10 4-16zm-8 11-3 8 6-4 1-8zm-71 72 14 5v14l-15-5zm2 3-1 10 10 3v-10zm161-76h22l6 6h-23zm5 2 1 2h16l-1-2zM147 154l-2 21-22 8 2-21zm-20 9-2 17 18-7 1-16zm235 71 28 8-3 14-27-7zm2 3-2 10 23 6 2-9z"/><path d="m174 134-3 19-27 4 3-19zm-25 6-2 14 22-3 2-14zm-35 162 10 21-3 17-10-21zm1 8-2 8 7 14 1-9zm210-30 3 10-23 2-2-11zm-19 4 1 5 18-1-2-5z"/><path d="m304 271 2 12-22 3-1-13zm-18 4v8l17-2-1-7zm-85-155 33 4-1 15-34-3zm2 3-1 11 29 3 1-11zm-92 107 3 24-12 16-3-25zm-10 16 3 18 7-11-2-17zm117 87 1 14-12 11 2-15zm-7 11-1 7 6-5v-7z"/><path d="m232 123 35 7v15l-36-6zm2 3-1 11 31 5 1-10zm-6 182-3 17-11 19 5-18zm-7 18v2l2-4v-1zm111-141 33 11 1 15-34-9zm3 4v11l28 8v-10zm34 106 22 3-8 5-21-3zm1 2-2 2 14 1 2-1z"/><path d="m373 289 21 4-6 7-21-3zm1 3-3 3 16 2 2-3zM125 179v23l-18 12 1-23zm-15 13v18l12-9 1-17zm255 106 24 3-11 3-23-2z"/><path d="m377 282 21 5-6 8-21-4zm1 3-3 5 16 2 3-4zM174 120h30l-2 16-31 1zm2 2-2 12h26l1-11zm92 141v15l-17 5 1-16zm-14 6v11l12-4v-10zm-79 102 14 1 1 14h-15zm3 3v9l9 1v-9zm32-21 1 13-13 7v-14zm-10 8v8l9-4-1-9zm125-73h21l4 8h-21zm3 3 2 3h16l-2-3zm-96 3h3l-4 13-5 9-2-1 5-13zm131-73 28 10-2 14-28-8zm2 3-1 11 23 7 1-10z"/><path d="M285 261v14l-19 3v-15zm-17 4v11l15-3v-10zm-160 17 8 24-4 17-8-23zm0 9-2 8 6 15 1-8zm248 11v-2h5l17 1-1 3zm-101-36-2 16-14 7 3-17zm-11 8-2 11 9-4 1-11zm136 0 22 5-5 10-21-5zm2 2-3 7 16 3 3-5zm-84-126 36 10 1 15-36-10zm3 3v11l31 8-1-10z"/><path d="m265 130 35 9 1 14-37-8zm2 3v10l31 7v-9zm35 138h21l2 12h-22zm2 3 2 7 17-1-2-6zm42 23 23 2 10 5-23-2zm37-33 22 7-4 11-22-6zm2 3-3 7 17 5 3-7z"/><path d="m303 260 1 14-21 1-1-14zm-18 3v10l17-2-1-9zm-41 7-2 18-10 10 3-19zm-7 10-2 11 5-4 1-11zm95-108 33 11 1 15-34-10zm3 3v11l28 9v-10zm-13 105 21 1 4 10h-21zm4 3 1 5h16l-2-5zm37-75 29 11-1 14-29-9zm2 3v11l24 8v-10zM200 369l1 14-14 4v-15zm-11 5 1 10 9-3-1-9zm-80-165 2 24-12 16-2-25zm-10 16 2 18 8-10-2-18zm51-88-3 20-23 7 4-20zm-20 9-3 15 18-6 2-15zm74-38 32 5-2 13-33-4zm2 3-2 9 28 3 1-8z"/><path d="m176 120-3 17-26 3 4-17zm-23 5-3 12 21-3 3-12zm80-13 34 7v13l-35-6zm2 3-1 9 31 5v-8zm110 179 19 1 8 6-20-1zm7 3 1 1 12 1-2-2zm-213 64 14 12 2 15-14-13zm3 6 1 7 9 8-1-8zm244-114 22 8-4 12-21-7zm1 3-2 9 18 5 2-8z"/><path d="m128 347 14 16 2 16-14-16zm4 8 1 7 8 9-1-7zm93-34 1 14-10 15v-14zm-7 15 1 6 5-8-1-6zm-115-74 6 25-4 18-6-26zm0 10-2 7 4 16 2-8zm48 99 14 9 2 14-15-9zm3 5 1 8 9 6-1-9z"/><path d="M231 294v18l-10 23 3-20zm-4 19 1-2zm41-65v17l-16 4 1-18zm-13 5-1 13 12-3v-12zm-37 91 3 13-12 11-2-14zm-8 11 1 8 7-7-1-8zm88-217 34 11 2 14-36-11zm2 3 1 9 30 10-1-9z"/><path d="M285 247v16l-19 2v-16zm-16 4v12l14-2-1-11zm-142-91-2 22-18 12 3-22zm-15 13-2 16 13-8 1-16zm7 158 12 19 2 17-12-20zm3 10 1 6 7 10-1-6zm179-81 21 1 1 13h-21zm2 2 1 9h17l-2-8zM178 107l28 2-3 14-29-1zm2 3-3 10h24l2-9zm85 9 34 10 1 12-35-9zm2 3v8l31 8-1-7zm-12 129-1 18-13 6 2-19zm-10 7-1 13 8-4 1-13zm98 30 18 2 5 8-18-2zm4 3 2 3 13 1-3-3zm-112-12 2 1-2 15-9 18 6-26z"/><path d="m320 271 20 1 4 12-21-1zm3 3 2 7h15l-1-6zm64-32 23 9-3 12-22-8zm2 3-1 9 17 6 2-8zM163 379l14 5 2 13-15-4zm3 3 1 9 9 3-1-9zm197-187 29 12v14l-29-11zm2 3v11l24 9v-10zm-34-39 33 13 1 14-33-12zm3 4v10l28 10-1-9zm-52 84h20l1 15-20 1zm3 2v12l16-1-1-10zm-175 62 12 24 2 19-12-24zm4 15 1 3 5 11-1-4zm273-29 16 4-9 4-15-3zm0 3-2 1 9 2 2-1zm-176 63 1 14-13 7-1-14zm-11 9 1 8 9-4-1-9z"/><path d="m382 300 18 4-11 2-17-3zm9-8 16 5-7 6-15-4zm1 3-3 3 10 2 3-2z"/><path d="M373 303v-2h5l11 3v2l-5-1zm23-17 15 6-6 7-15-5zm1 3-3 4 10 3 3-3zm-152-35-1 19-9 9 2-20zm-6 9-1 13 4-4 1-12zm-139-23 4 27-4 18-5-27zm-2 19 2 14 2-6-2-15zm242 22 18 2 4 9-18-1zm4 3 2 4 12 1-2-4zM235 103l32 8v11l-34-7zm2 3-1 7 29 6v-6zm152 124 22 10-1 13-23-9zm2 3-1 9 18 8 1-9zm-281-45v25l-13 15v-24zm-10 16-1 17 8-9v-17zm75 179 14 1 2 14-15-1zm3 3 1 8 9 1-1-9z"/><path d="m207 99 30 5-2 11-32-4zm1 3-2 7 27 3 1-6zm89 26 34 12 2 12-35-12zm3 3v8l30 10-1-7zm60 166 20 4 13 6-21-4zm-60-50 21 2 1 14-21-1zm3 3v10h16v-9zm97 29 15 6-6 9-15-6zm1 3-3 5 10 4 3-5zM153 122l-4 18-22 7 5-19zm-19 8-3 13 16-5 3-13z"/><path d="m180 107-4 15-26 3 6-15zm-23 5-3 10 20-2 3-10zm162 148 20 2 2 13-20-1zm3 3 1 8 15 1-1-7zm-37-31v17l-19 2v-18zm-17 3v13l14-1v-12z"/><path d="m269 233-1 18-15 3v-19zm-14 4v14l11-2v-14zm108-55 28 13 1 14-29-11zm2 4v10l24 10v-9zM230 307l3 14-9 18-1-14zm-5 18 1 5 4-9-1-6zm40-215 33 11 2 10-35-10zm2 4v5l30 9-1-5zM103 289l10 29 3 22-10-29zm5 21v1l3 8zm222-162 32 14 2 13-33-13zm3 4 1 8 27 11-1-8z"/><path d="m226 332 3 13-10 14-3-13zm-7 14 1 7 7-9-2-7zm15-68 1 17-7 27 1-20zm126 16 15 3 9 7-16-3zm8 4 1 1 6 1-1-1zm-86-66 20 2v16l-20-1zm3 3v12h15v-11zm118 35 15 8-5 9-15-6zm1 3-2 7 10 4 3-5zM182 98l27 1-3 12-29-1zm2 2-4 8h24l2-7zm-53 43-4 20-18 12 4-21zm-15 12-3 15 12-8 2-14zm139 79v19l-12 6v-21zm-9 6-1 15 8-3v-14zm92 32 17 3 4 10-18-2zm3 3 2 6 12 1-2-5zm48-58 23 12-1 13-22-10zm3 4-1 10 18 8 1-9z"/><path d="m240 251-3 29-6 17 3-28zm-39 130 2 14-14 3-2-14zm-11 5 1 9 9-2-1-9zm30-32 3 14-13 11-2-14zm-9 12 1 8 8-7-1-8zm146-77 14 3 6 8-14-3zm6 3 2 3 7 1-2-2zm43-32 15 9-4 11-15-8zm1 4-2 7 11 5 2-6zm-89-15 20 3 1 13-20-2-1-15zm3 2 1 10 14 1-1-8z"/><path d="m300 233 20 3 1 15-21-2zm2 3 1 11 15 2v-11zM237 97l31 8-1 9-33-8zm1 3-1 4 28 6v-3zm-98 271 15 13 3 14-15-12zm4 7 2 6 8 8-1-7zm217-207 28 14 2 13-28-13zm3 4 1 9 23 10-1-8zm-68-55 33 12 3 11-35-13zm3 3v6l29 10-1-5z"/><path d="m129 358 14 16 4 15-14-16zm5 9 1 5 7 8-1-5zM99 217l2 29-5 20-2-29zm-3 20 1 14 2-5-1-14zm150 0-1 20-8 8 1-21zm-6 8-1 15 4-4v-14zM210 93l29 5-2 8-31-5zm2 2-3 4 26 4 1-3zM99 280l2-1 5 20 2 12h-2l-6-20zm167-64 19 1v18h-19zm3 3v14l13-1v-13zM152 382l15 9 2 13-14-8zm3 5 2 7 9 5-2-6zm173-248 32 14 3 11-33-13zm3 4 1 6 27 11-1-6z"/><path d="M269 216v19l-16 2v-20zm-14 3v15l11-1v-14zm81 43 17 3 3 12-18-2zm3 3 2 8 12 1-2-7zm-74-161 32 11 2 8-34-10zm2 4v3l29 9-1-3zm122 97 23 13v14l-23-12zm3 4v10l18 9v-9zm-280-41-2 24-13 16 3-24zm-10 17-2 15 8-9 1-15zm17 155 14 22 4 17-14-21zm6 14 1 3 5 9-1-3zm230-72 13 3 5 9-14-2zm4 4 2 4 8 1-3-4zm-77-69 20 2v17l-20-1zm3 3v12l15 1v-11zm123 30 15 9-3 12-15-9zm1 3-1 8 11 6 2-7zM185 98l-6 12-25 2 7-12zm-22 4-4 7 19-1 3-8z"/><path d="m159 109-6 16-22 6 7-16zm-19 8-4 10 15-4 4-11zm254 186 9 5-9 1-9-5zm-1 3 2 1 1-1-2-1z"/><path d="m399 300 8 6-8 3-7-5zm-2 4 3 2 2-1-3-2zm-233 86 15 5 2 12-15-4zm3 4 2 7 9 3-1-7zm210-92 12 2 13 6-13-2zm-122-85v20l-12 4v-21zm-9 5v16l7-3v-15z"/><path d="m404 296 8 6-7 5-8-5zm0 3-3 3 4 2 3-2zm-170-8 4 13-7 21-3-14zm0 9-3 11 1 5 3-12zm-22 75 2 13-14 8-1-14zm-11 8 1 9 9-5-1-9z"/><path d="m232 318 5 12-9 18-4-13zm-6 17 2 6 6-11-3-6zM187 91l26 2-5 9-27-2zm1 2-3 5 22 1 2-4zm130 143 19 4 1 14-20-3zm2 3 1 10 14 2v-9zm59 64 1-2 5 2 5 3-1 2-5-3zm-269 16 13 28 5 21-13-27zm126-59 2 17-5 29-1-19zm123-100 28 15 3 12-29-13zm3 5 2 7 23 11-2-6z"/><path d="m300 219 21 4-1 16-20-3zm2 3v12l16 2v-11zm107 69 7 6-6 7-8-6zm0 3-3 3 4 3 3-3zm-57-20 13 4 4 10-13-3zm4 3 2 6 7 2-2-5zm-61-163 32 13 3 8-34-12zm3 4v3l28 10-1-2zm-162 9-6 19-18 11 7-20zm-15 12-4 12 11-7 3-12zm288 100 16 11-2 12-16-10zm2 4-1 8 11 7 1-7zm-76 8 17 4 1 13-16-3zm3 3 1 9 12 2-1-8zM239 94l29 8-1 6-31-9zm1 3-1 1 26 7v-1zm148 97 23 13 1 14-23-13zm3 4 1 9 17 10v-8zm-150 37-2 28-5 16 2-29zm125 57 15 8 13 11-15-8z"/><path d="m326 131 31 15 4 10-32-14zm4 4 1 5 26 11-2-4zM229 342l3 14-11 14-3-14zm-8 15 1 7 7-9-2-8zm45-158 19 2v18h-19zm3 3v14l13 1 1-13zm144 82 7 7-6 8-7-6zm0 4-3 4 4 4 3-4zM176 394l15 1 2 12h-14zm3 3 2 7 9 1-1-8zm86-296 31 11 2 6-33-11zm3 3v1l26 9zM95 259l3-1 3 21 2 12h-3l-3-21z"/><path d="m283 201 20 4-1 17-20-3zm2 3v13l15 2 1-12zm-32-5h16v20l-16 1zm2 3 1 15 10-1v-14zM214 89l27 5-3 6-30-5zm1 3-2 1 24 4v-1zm31 127v21l-8 7v-23zm-6 7v16l3-3v-16zm-140-32-1 31-5 23v-32zm-3 23-1 10 1-2v-11zm269 72 10 6 8 10-10-6zm-260 22h2l7 19 2 10-2 1-7-19zm244-46 13 4 3 11-13-3zm4 3 1 7 8 2-2-6zm62 8 8 8-5 10-8-8zm1 4-3 5 4 5 3-5zm-99-57 19 5v15l-19-5zm3 3-1 10 15 4v-10zm89 1 15 13-1 12-15-11zm2 5-1 8 11 8 1-7zm-55-81 28 16 3 11-28-15zm4 5 1 6 22 11-1-5z"/><path d="m301 204 20 6-1 16-20-5zm2 4-1 12 16 3 1-11zm-48-9v20l-12 3v-21zm-10 4 1 16 7-2v-15zm90 36 16 6 1 13-17-4zm2 4 1 9 11 3v-9zm-44-133 31 14 5 6-34-13zm4 5 9 4zm-180 35-5 23-13 16 5-24zm-11 16-3 14 7-8 2-13zm281 17 22 15 3 13-23-14zm3 5 1 7 17 11-1-7zM190 91l-6 9-25 2 9-10zm-21 4-4 4 17-1 3-4zm195 188 9 6 6 10-9-5zm6 7 2 2h1l-2-2zm-148 75 2 14-13 11-1-14zm-10 12 1 8 8-7-1-8z"/><path d="m324 125 30 15 5 9-32-15zm4 5 1 2 24 12-1-2zM193 87l24 2-6 6-27-2zm0 3-2 1 19 2 2-2zm73 92 20 4-1 18-19-2zm3 3v15l14 1v-13zm-28-91 28 8-2 2-32-9zm-76 5-8 13-21 6 9-14zm-18 7-5 8 14-4 4-7zm272 161 8 10-4 10-8-9zm1 5-2 6 4 4 2-5zM202 392l2 13-13 3-3-13zm-11 5 1 8 10-2-2-8z"/><path d="m266 101 28 10 2 1-1 2-30-11zm17 84 21 6-1 16-20-4zm3 4-1 13 16 3 1-12zm-34-8 17 2v19h-16zm3 3v15h11v-14zm-19 89 5 13-4 23-5-13zm1 9-2 13 1 4 3-13zm112-28 13 6 2 12-13-5zm3 4 1 8 8 2-1-7z"/><path d="m236 301 6 12-7 21-5-13zm1 7-4 13 2 6 5-14zm-1-68 3 18-1 19h-3l-1-7zM218 89l28 6-7 2-33-7zm-76 292 15 13 3 13-14-13zm5 7 1 5 8 7-1-5zm263-172 15 14v12l-15-12zm2 5v8l11 9v-7z"/><path d="m131 367 15 17 3 15-14-17zm6 10 1 4 6 8-1-3zm182-168 19 7-1 14-19-5zm2 3v11l14 4 1-9zm-81 6v26l-4 14v-28zm122 57 8 6 5 11-9-5zm5 7 1 4h2l-2-3zm34 24-2 6-8 1 3-6zm-6 3v1h2l1-1zm-41-165 27 16 5 10-28-16zm4 5 2 4 21 11-2-3zM100 291h3l5 20 3 11h-3l-5-20z"/><path d="m302 190 21 7-2 15-21-5zm2 3-1 12 16 4 1-11zm85 112 7 2-2 6-8-2zm1 3v1l2 1 1-1zM142 113l-8 17-17 11 9-18zm-14 12-5 10 9-6 5-10zM94 237h2l2 12 1 21h-2l-2-11zm60 155 15 9 2 12-14-9zm4 5 1 5 9 6-1-5zm135-284 1-2 14 6 16 6-1 3-3-1-13-6-12-5zm114 190-3 8-8 2 3-7zm-6 5-1 1h2l1-2zM245 200l1 21-8 6-1-23zm-6 6 1 17 3-3v-16zm-3 121 3 14-9 18-3-15zm-7 18 2 7 5-12-1-6zm106-118 17 7-1 13-16-5zm2 4v9l12 4v-9zm84 26 8 11-3 12-8-10zm1 6-1 6 4 5 1-5zm-37-90 22 16 3 12-23-15zm3 5 1 7 17 11-1-6z"/><path d="m384 303 7 3-2 6-7-4zm1 3v1l2 1 1-1zm-264 44 14 22 5 17-14-22zm7 15v1l5 8v-1zm191-244 31 16 9 8-34-16zm93 178-3 9-8 4 3-7zm-6 7-1 1 2-1v-1zM266 166l20 5v17l-20-3zm3 3v14l14 3 1-13zm-14 12v20l-12 2-2-21zm-11 3 1 17 8-2-1-15zm-6-92 30 9v5l-26-8z"/><path d="m265 100 31 11-3 4-27-10zm19 70 22 7-2 16-21-5zm2 4v12l16 4 1-11zm93 125 7 5-2 6-7-6zm1 4v1l3 2v-1zM100 184h2l-2 20-3 13-3-1 3-20zm66 216 15 5 2 11-14-5zm3 4 2 5 9 3-1-5zm82-240 18 3v18l-17-1zm3 3 1 14 11 2v-14zm163 126-3 10-9 8 4-10zm-6 10 1-1zm-62-60 12 7 1 12-12-5zm2 4 1 8 7 4v-8zm9 20 8 6 3 12-8-6zm4 6 1 5 2 1-1-4zm44-68 16 15 2 13-16-14zm3 6 1 7 11 9-1-6zM198 87l32 3-16 2-21-2v-3zm15 299 2 13-13 7-2-13zm-10 8 1 8 9-5-1-7z"/><path d="m375 293 6 7-2 6-6-7zm1 5v1l2 3v-1zM197 87l-9 6-25 2 12-7zm-21 4-2 1 13-1 2-1zm144 105 20 8-2 14-19-6zm3 3-2 11 15 5 1-9zm-30-89 31 14-6 2-27-12z"/><path d="m303 176 22 8-2 15-21-7zm2 3-1 12 17 5 1-10zm118 68 7 12-2 13-7-12zm1 7-1 6 4 5 1-5zm-309 87 2-1 9 17 2 9-2 1-8-17zm98-253 29 6 4 5-25-5zm137 50 28 16 7 10-30-17zm6 6 1 2 19 11v-1zM231 352l2 15-11 15-2-15zm-8 16v7l7-9-1-8zm43-217 21 6-1 16-20-4zm3 3v13l15 3 1-11zm153 131-4 13-8 11 3-12zm-86-70 17 8-2 13-16-6zm2 4-1 9 12 5 1-9z"/><path d="m320 125 1-3 3 1 26 14-1 2-3-1zm61 39 23 17 5 11-24-16zm5 7 1 4 17 11-2-4zm-120-68 28 10-2 7-26-10zm2 3v2l22 9 1-2zm-145 26-7 23-14 17 8-23zm-11 18-3 10 4-6 4-10zm173 6 22 8-2 15-21-6zm2 4-1 11 17 5 2-10z"/><path d="m241 95 27 8v8l-24-8zm4 4 1 2 20 7v-3zm-73-8-9 11-21 6 11-11zm-17 8-5 4 12-3 3-4zm217 188 5 9-2 6-5-9zm0 5v1l2 3zM240 164h14l1 20h-13zm2 2 2 16 8-1-1-15zm8-19 19 5v17l-17-3zm3 4 1 13 12 2v-13zm-75 253 15 1 1 11-14-1zm3 3 1 6h10l-1-6z"/><path d="m244 181 1 22-8 4-2-22zm-7 5 2 17 4-2-1-16zm122 71 8 8 2 12-8-6zm4 7v5l2 2-1-5zm-266 6h2l3 11 3 21h-2l-3-11zm195-158 28 13-4 5-26-11zm1 3v2l22 10 1-1z"/><path d="m239 200 1 25-4 11-2-26zm-2 10v8zm112 22 13 8-1 13-12-7zm3 5-1 8 8 4v-8zm-86-100 22 7-1 15-21-6zm3 3v12l16 4 1-10zm157 135-5 17-8 14 4-15z"/><path d="m236 231 2-1 1 7v21h-2l-1-7zm69-68 22 10-3 14-21-8zm2 4-1 10 16 6 2-9zm-41-60 26 10-2 10-24-9zm2 4v5l21 7 1-4z"/><path d="m237 253 6 13-2 25-6-14zm2 9-1 15 1 4 2-15zm47-118 23 8-2 15-22-8zm2 3-1 10 18 6 2-9zm119 48 16 16 2 13-16-15zm3 7 1 6 10 9-1-5zm13 34 8 14-1 13-8-13zm2 8v6l3 6 1-5zm-103-61 20 10-2 13-20-8zm2 4-1 10 15 6 2-9z"/><path d="m240 282 6 12-5 23-6-12zm1 7-3 15 2 6 4-15zm100-158 32 20 5 3-2 2-24-14z"/><path d="m321 122 28 15-7 2-26-14zm0 3 22 12v-1zm-78-24 25 7v10l-22-7zm4 3 1 6 18 5v-5z"/><path d="m219 91 25 5 3 8-22-5zm5 3 2 3 17 4-1-3zm42 31 24 8-2 14-22-7zm3 3v10l17 6 1-9zM94 217l3-1 1 12v21h-3l-1-12z"/><path d="m266 115 25 9-2 12-23-9zm2 3v8l19 6 1-6zM108 322l2-1 7 19 3 10h-2l-7-18zm261-43 4 10-2 7-4-10zm0 7 2 4v-1z"/><path d="m290 117 27 11-3 9-26-11zm2 3-1 4 21 10 2-4zm-43 13 20 5v16l-19-4zm2 3 2 12 13 3v-11zm36-4 25 10-3 13-23-9zm2 4-1 8 19 8 2-8zm49 67 17 9-3 13-16-8zm2 4-2 9 12 6 2-9zM150 101l-10 16-18 11 12-16zm-15 13-4 6 7-5 4-5zm57-28 26 3 8 5-22-2-13-6zm185 71 23 17 7 12-24-18zm7 7 1 2 14 11v-1z"/><path d="m289 123 25 11-3 11-24-10zm2 4-1 6 20 9 1-6zm-50 182 4 15-7 21-4-15zm-4 21 1 6 4-12-1-7zm8-221 23 7v12l-21-6zm3 3 2 8 16 5v-7z"/><path d="m247 120 22 6v14l-20-5zm3 3 1 10 15 4v-9zm57 29 23 10-3 13-22-9zm2 3-2 9 18 8 2-9zm-72-9 16 2 1 18h-14zm3 3 2 15h9l-1-14zm184 127 2 1-2 8-3 7-2-1 2-7zM318 124l27 14-6 5-25-14zm1 3-2 2 22 11 1-2zm40 120 7 9 1 13-7-8zm3 7v6l2 2v-5zm26 55 8 2-11 6-9-3zm0 2-5 3h2l4-2zM183 88l15-1 1 2-6 1-17 1-1-3z"/><path d="m403 310-13 7-10-1 13-6zm-180 66 2 13-12 11-2-13zm-9 12 1 8 8-7-1-8zm169-82 8 4-11 5-7-4zm-5 5 2 2 5-3-2-1zm-53-139 20 10-3 13-20-9zm2 3-2 9 15 8 3-9zm23 46 13 9-2 13-12-8zm2 5v8l7 5 1-8zm-14-93 12 4 31 19-13-4zM224 97l22 4 2 11-20-4zm4 3 2 6 15 3-1-6zm82 41 23 12-4 11-22-10zm1 4-2 8 19 8 2-7zm-210 33 3-13 2 1-4 19-3 12-2-1zm103 224 2 11-14 3-2-11zm-11 5 1 6 9-2-1-6zm49-244 2 21-9 3-3-22zm-7 4 2 17 4-2-1-16zm132 103 3 12-2 9-3-12z"/><path d="m414 305-19 10-15 4 18-9zm9-80 8 16v14l-8-15zm2 10v5l4 6v-5zM315 127l26 14-5 7-25-12zm1 4-2 3 21 11 2-3zm88 54 16 17 4 13-17-16zm4 8 1 5 10 9-1-4zm-29 110 6 5-10 5-6-6zm-6 5 2 2 6-3-3-2z"/><path d="m312 133 25 13-5 9-23-11zm2 4-2 6 19 9 3-5zm-80-7 17 3 2 17-16-1zm3 3 3 13 10 2-1-13zm-92 257 14 13 2 10-13-12zm4 7 1 3 7 6v-2zm191-206 17 11-3 12-17-9zm2 4-2 9 12 7 2-8zm61 114 4-3 2 2-9 5-5 2-1-2zm-32-160 25 20 11 13-27-21zm-143-44 20 5 2 13-18-4zm3 3 3 9 13 3-1-8z"/><path d="m134 376 14 17 3 12-14-16zm5 10 1 2 6 7v-1zm285-109 2-9 3 1-2 8-3 8-2-1zm-49 20 5 7-9 5-6-7zm-6 6 2 3 6-2-3-4zM231 117l19 3 1 16-16-3zm3 3 3 11 12 2-2-11zm3 62 2 23-4 9-3-25zm-3 8 2 16 1-1-2-16zm4 146 2 16-9 19-2-16zm-7 19 1 8 6-11-1-7zM186 85l-17 10-15 4-1-2 9-5zm15 4 22 2 5 9-19-2zm6 3 4 4 12 1-2-3zm121 69 21 12-4 11-21-10zm1 4-2 8 16 8 3-7zm17-30 26 17-8 1-24-16zm-1 3 19 12h1l-19-12zM156 401l15 8 1 10-14-9zm4 5v3l9 5-1-3zm-57-104h2l3 10 6 19-3 1-3-10zm-8-53h3l2 12 2 20-2 1-3-12zm264-12 7 10v13l-7-9zm3 7-1 6 3 3v-5zM120 136l-2 2 1-1 1-2zm6-13 2 2-7 14-9 11-2-1 8-15zm286 179 1 2-4 4-9 5-1-2 4-4z"/><path d="m123 359 15 22 4 15-14-21zm243-100 2 15-2 10-3-13zm-132-49h3l1 6 1 21h-2l-1-6zm137 82 5 7-10 5-4-7zm-6 6 2 3 6-2-3-4zm-13-88 13 10-3 13-12-9zm2 5-1 8 8 5 1-7zm-23-63 22 13-5 10-21-12zm1 4-2 6 17 10 3-6zm-92-10 2 20-10 2-4-21zm-9 3 3 16 6-1-2-15zm112-13 23 16-6 4-23-15zm0 3-2 2 19 12 2-1zm78 75 9 18 2 15-9-17zm4 13v3l3 5v-3zm-25-51 17 19 6 13-18-18zm6 11 1 2 8 8v-1zm-63-6 17 11-4 12-16-10zm2 4-3 8 13 8 2-8zm27-32 2-2 4 3 18 15-1 2-5-3z"/><path d="m237 232 6 12v27l-6-13zm2 10v15l2 3v-15zm96-97 22 14-5 8-22-13zm1 3-3 5 18 11 3-5z"/><path d="m339 140 22 14-6 6-21-13zm0 3-2 3 18 11 3-2zM168 408l14 5 1 9-13-5zm3 4 1 3 9 3-1-3zm28-325 10 4-19 2-13-5zm-10 3h10l-1-1zm237 178 2-9 2 1-1 9-2 8h-3zm-3 24-10 12-15 10 9-11zM208 95l18 2 5 11-16-1zm4 3 4 6 11 1-2-6zm29 164 7 12-2 24-7-12zm2 8-2 15 3 5 2-16zm126 15 3 9-9 5-4-9zm-7 6 2 4 5-2-2-5zM98 187l3 21-4 30-3-21zm0 19-1 11v2l1-11zm55-109 2 2-8 7-12 8-1-2 9-8zm62 299 1 11-13 7-1-11zm-11 8 1 6 9-4-1-6zm-86-54 2-1 8 17 3 8-3 1-8-17zm106-219h13l3 18-11 1zm3 2 4 14h6l-2-14zm134 94 6 11-1 12-7-9zm1 7v6l2 4 1-6z"/><path d="m366 248 1 18-3 13-1-17zM214 104l16 2 5 13h-15zm3 3 5 9 9 1-3-9zm130 64 17 13-5 11-17-12zm1 4-3 7 13 9 3-6zm-114-11 3 22-4 7-5-24zm-3 6 3 17 1-2-2-16zm132-22 10 3 23 19-10-4zm-8 52 12 11-3 12-12-10zm1 5-1 7 8 7 2-7zm-111 84 4 16-5 24-4-16zm0 11-3 13 1 5 3-13z"/><path d="m219 116 15 1 3 16h-12zm3 3 4 12h8l-2-12zm10 245 2 14-11 14-2-14zm-8 15 1 7 7-9-1-7zm169-213 20 23 4 6-2 1-13-14zm31 121-6 11-14 10 6-11zm-12 12 4-2v-1zm7-97 9 21 4 18-10-20zm-52 75 2 10-9 5-3-9zm-7 7 1 5 6-3-2-5zM180 413h14l1 9-14-1zm3 2v4h9v-3zm246-165h2l-1 10-2 9-2-1 1-8zM193 87l-21 7-21 2 24-8zm187 226 9 2-18 6-9-3zm0 2-10 3h1l10-3zm-29-152 17 14-5 9-17-12zm1 4-3 6 13 10 3-5z"/><path d="m375 310 8 4-17 6-8-5zm-11 6 2 1 11-3-2-1zm5-166 20 16-8 1-20-16zm-2 2 15 12h1l-15-12zM100 282l2-1 3 11 3 20-2 1-3-11zm10-133h2l-3 12-6 17h-2l3-13zm275 165h13l-23 7h-11z"/><path d="m371 306 7 6-17 5-6-6zm-11 6 2 2 11-3-2-2zM205 89l8 9-15 1-11-8zm-11 4 5 3h8l-3-4zm38 97 2-1 2 14 2 13h-3l-1-6v-6l-2-9zm123-33 18 15-6 7-17-13zm1 4-3 4 14 11 3-4zm8-11 20 16-8 3-18-15zm-2 4 14 12 3-1-15-12zm2 93h2v10l-1 6-2-1v-8zm-1-29 6 11-2 12-7-10zm1 6-1 6 3 5 1-6zm-6-33 13 12-5 11-12-11zm1 4-2 7 8 8 3-7zm30 119 5-1 1 2-15 5-5 1v-2zm37-33-5 11-13 10 5-11zm-11 11-1 2 5-3 1-3z"/><path d="m367 301 6 7-16 5-6-7zm-12 7 3 2 11-3-3-3zm-244 24 3-1 6 19 3 8h-2l-7-17zm249-179 18 15-7 5-18-14zm0 3-3 3 14 11 3-2zm34 15 2-2 7 9 10 11-2 1-4-5-5-6-3-3zM244 318l2 17-8 23-1-18zm-5 23 1 6 4-12-1-6zM96 218l5 22-1 30-5-21zm2 20v13zm133-92 4 21-6 5-6-22zm-5 6 4 15 2-1-3-16zm139 116 2 11-9 6-2-10zm-7 8 1 5 5-3v-5zm60-73 2-1 6 14 2 7-2 1-6-12zm-292-80 8-11 2 2-7 10-9 12-2-2zm258 193 15-5 1 2-5 2-15 5-1-2z"/><path d="m364 296 5 8-16 4-5-7zm-12 6 2 4 11-4-2-3zm77-61h2v9l-4 22v-21zm-194-31 6 13 3 28-7-14zm3 12 1 15 1 1-1-14zM211 95l6 12-12 1-9-11zm-10 4 5 7 8-1-5-7zm161 83 13 14-6 9-12-12zm1 5-3 6 9 8 3-5zm21-27 12 9 18 22-12-9zM225 387l1 11-12 11-1-12zm-10 11 1 6 8-7-1-6zm-9 12v9l-14 3v-8zm-12 5 1 4 8-2v-4zm234-142-4 12-12 10 3-11zm-11 12v3l5-4 1-4zm-6 19-11 9-23 8 11-8zm-45-96 6 13-4 11-6-11zm0 7-1 6 3 5 1-5zm-140-85 5 19-7 4-6-20zm-5 5 5 14 2-1-3-15zm143 110 1-7h2l-1 9-1 7h-2zM172 87l-17 14-11 5-1-2 10-7zm-25 310 13 12 1 8-13-12zm3 6 1 1 7 7v-1z"/><path d="m361 289 4 9-16 5-3-9zm-12 7 2 4 11-4-2-4zm-213 87 14 17 2 9-13-15zm229-123 1 11-10 7-1-10zm-7 9v5l5-4v-5zm-117-28 7 11v26l-7-12zm2 8v16l3 5v-17zm-27-145 7 14-11 3-8-15zm-8 4 5 10 6-1-4-10zm-25-20 11 4-13 5-13-4zm-7 5 5 1 6-2-4-2zm239 103 2-1 3 7 6 13-3 1-3-7z"/><path d="m222 116 5 17-8 2-8-17zm-8 4 6 12 4-1-4-12zm-56 287 14 9v6l-13-8zm3 5v1l8 5v-1zm206-237 12 14-6 9-12-13zm0 4-3 5 9 10 3-4zm-265-8 3 19-6 25-2-19zm-3 26 1 5 2-12v-5zm284-34 9 3 15 18-10-3zm7 5 9 11zm39 56 2 17-4 19-1-17zm-1 19v1l1-3zm-199-83 5 29 1 6h-3l-4-20zM126 366l14 22 3 12-13-20zm286-65-7 8-21 8 8-8zm-19 10 10-4h1zm-287 2 2-1 3 9 5 19-2 1-3-9zm134 35 2 15-10 18-2-14zm-7 19 1 6 5-10-1-7zm126-85 3 9-16 6-2-9zm-12 7 1 5 11-4-1-5z"/><path d="m371 170 13 15-7 6-12-14zm0 4-3 3 10 11 3-3zm-125 94 5 16-3 27-4-16zm1 13-1 13 1 4 1-14zm140-117 13 17h-8l-13-16zm-3 3 9 12h2l-9-12zM97 249l7 23 2 31-6-21zm4 23 1 9zm328-7-2 12-12 11 2-12zm-10 13-1 3 7-5v-4zm-50-78 6 13-4 11-6-12zm0 6-2 6 4 6 2-5z"/><path d="m376 166 13 16-7 4-12-14zm-3 6 10 11 3-2-10-11z"/><path d="m382 164 13 16-8 3-13-16zm-4 4 10 12 3-1-10-12zm-13 70 2-9h2l-1 9-2 8-2-1zM169 415l14 4v6l-14-4zm3 3v1l9 3v-1zm189-104 8 5-23 5-7-4zm-16 7 2 1 16-4-2-1zm66-131 2-1 4 6 6 13-3 2-3-6zm-46 61v12l-10 8v-11zm-7 10v5l5-4v-6z"/><path d="m366 317 9 3-24 6-9-3zm-16 6h1l15-3v-1zm7-13 7 6-22 5-6-5zm-16 7 2 2 16-4-2-2z"/><path d="m370 318 13 1-27 7-12-1zM122 127l-5 20-12 22 5-20zm-10 23-1 3 4-7 1-3zm242 156 5 6-21 6-6-7zm-17 6 2 3 16-4-2-3zm77-16-5 9-20 7 6-8zm-17 10-1 1 11-4 1-2zm-277 52 3-1 7 17 2 5-2 1-8-16zm238-84 2 10-16 6-2-10zm-13 8 1 5 11-4-1-5zm82-65 3 15-3 17-3-14zm0 13-1 5 1 2 1-5zM191 90l10 8-10 5-12-8zm-7 6 7 4 5-3-6-4zm189 97 6 14-5 9-6-13zm-2 10 3 8 3-4-4-8zM216 404v9l-13 7v-9zm-10 9v3l8-4v-4z"/><path d="m375 319 5-1v2l-20 6h-4l-1-2zM231 186l7 16 5 29-8-15zm119 114 5 8-21 5-5-8zm-17 7 2 3 16-4-2-3zM225 147l6 23-1 11-8-25zm0 9v2-3zM99 201l4 20-3 26-4-19zm1 15-2 12 1 5 2-12zm329 41-1 12-12 11 1-11zm-9 13-1 4 7-6v-5zM149 99l-10 17-17 14 12-18zm-13 15-3 3 4-3 2-3zm268 65 9 10 8 19-9-9zM248 297l2 19-6 27-2-20zm-3 27v4l3-12-1-4zm125-103h2l-1 9-3 8-2-1 1-8zM175 91l-10 9-15 2 12-10zm-12 4-5 4 6-1 4-4zm204 147-2 12-10 9 1-11zm-8 11-1 4 5-4v-4zM181 419h14l-1 7-14-1zm2 2v2h9v-1z"/><path d="m384 316 1 2-5 2-20 6-1-3 5-1zm-150 58 1 12-11 15-1-12zm-9 15 1 5 6-8v-6zm192-100-5 10-19 8 5-9zm-18 11-1 2 12-5 2-3zm-51-6 3 8-20 6-4-9zm-18 7 2 4 16-4-2-4zm48-114 6 15-6 7-6-13zm-3 9 3 9 3-4-4-9zm-18 70 1 11-16 6v-10zm-13 8 1 5 11-4-1-5zm80-63 4 13-3 16-4-12zm1 10-1 7 1 2 1-6zm-25-43 9 6 7 18-9-6zm5 6 4 10 2 1-4-10zM199 96l8 11-7 5-11-11zm-6 6 7 7 4-2-6-8zm-90 190h2l3 10 3 19-2 1-3-9zm135-74 8 13 2 27-7-13zm4 10 1 17 2 3-1-16zm-22-97 6 20-2 8-9-21zm-2 7 5 14 1-1-5-14zM114 341l2-1 7 18 2 6h-3l-6-17z"/><path d="m383 183 6 14-7 6-6-14zm-4 7 4 9 3-2-4-10zm16 121-10 7-27 8 10-7zm34-62v12l-12 11v-11zm-9 13v4l7-6v-5zm-74 25 3 9-21 5-3-9zm-18 7 2 4 16-4-2-4zm49-89-3 18-7 14 3-16zm19-27 8 2 6 17-8-3zm4 4 4 11h2l-4-11zm-194-77 8 14-6 6-10-15zm-4 6 7 10 2-2-6-10z"/><path d="m213 117 8 17-5 7-9-18zm-3 6 7 13 1-2-6-13zm159 111-3 12-11 10 3-12zm-9 12v3l4-4 1-4zm28-66 6 15-7 4-6-15zm-4 5 4 10 3-1-4-11zm-275-29 2 17-8 22-2-17zm-6 22 1 7 5-12-1-7zm315 104-3 11-18 8 3-10zm-16 11-1 4 12-6 1-4zm-11-115h8l6 17-8-1zm4 3 4 11h2l-4-11z"/><path d="m393 178 6 16-7 2-6-15zm-4 4 4 11 3-1-4-11zm-31 76v11l-16 6v-10zm-14 9v5l11-5v-5zm-2 52 8 4-27 7-7-5zm-20 7 2 1 19-5-1-1z"/><path d="m338 315 7 6-26 6-6-6zm-20 7 2 2 20-4-2-2zM99 232l5 20v28l-6-19zm2 16-1 13 2 3v-12zm320-43 5 11-3 16-5-10zm1 8-1 8 1 3 1-8zM148 402l13 11-1 4-12-10zm97-72 2 16-7 22-2-16zm-5 22 1 5 4-11-1-5zm6-108 5 19v30l-5-19zm2 17v13l1 2v-13zm99 61 8 3-27 6-9-3zm-20 7h1l19-4-1-1z"/><path d="m138 389 13 15v6l-12-14zm90-214 2-1 3 7 5 21h-3l-3-7zm107 135 5 7-25 6-5-7zm-21 7 2 3 20-4-2-3zm82-10-7 8-25 7 7-7zm-23 10-1 1 16-5 1-1zM206 417l-2 6-13 3 1-6zm-12 5v1l8-2 1-1zm151-142 1 9-20 6-2-10zm-18 7 1 5 16-5-1-4zM159 412l13 8-2 3-12-7zm221-211-2 17-7 10 2-15zm-5 13v4-1l1-5zm-24 109 11 2-30 7-10-2zM171 91l12 4-7 8-14-3zm1 3-5 5 8 1 4-4z"/><path d="m332 305 4 7-25 6-4-8zm-21 7 2 3 20-4-2-4zm-85 83v10l-12 10v-9zm-10 12v3l7-6v-4zm212-166 1 11-11 12-2-11zm-9 13v5l8-8-1-5zM128 372l13 21 1 8-11-18zm2-253-3 16-13 16 4-17zm-10 16-2 7 7-8 1-6zm253 90-5 13-12 12 5-13zm-10 14-1 1 4-3v-2zm54-39 6 9-3 16-6-9zm1 6-1 10 2 2 1-9zm1 69-2 10-18 9 2-10zm-16 11-1 4 13-6 1-5zM157 98l-7 13-15 7 8-14zm-12 8-4 6 7-3 3-6zm215 217v3l-24 6h-4v-2l23-6zm-1-73-1 11-16 7 1-10zm-14 10v4l10-5 1-5z"/><path d="m329 299 4 8-25 5-3-8zm-21 7 2 4 20-5-2-4zm-199 16 2-1 3 7 4 19h-2l-2-7zm290-19-6 8-24 7 5-8zm-23 9-1 2 17-5 1-2zM170 419l14 4-3 3-13-4zm174-147 1 10-21 6v-10zm-18 8v5l16-5v-5zm58-83-2 16-7 8 2-15zm-5 10-1 7 2-2 1-7zm-275-23 4 18-6 24-4-18zm-3 24 1 7 3-13-1-7zm149 65 2 23-3 32-3-23zm0 23-1 9zm114 26 1 2-5 2-24 6v-3l4-1zm48-126 7 7-3 15-6-6zm2 5-2 10 3 2 1-9zm12 32 2 11-11 12-3-10zm-9 13 1 5 8-8-2-5zm-183-51 8 14 5 28-8-13zm5 13 2 15 2 2-3-15zM122 364l3-1 7 16 1 3-2 1-7-15zm-21-103 6 21 2 30-6-20z"/><path d="m328 292 2 9-24 5-3-9zm-22 7 1 4 20-4-1-4zm-65 59 1 14-9 18-1-13zm-7 19v5l6-10-1-5zm-12-221 3-1 5 19 3 7-3 1-6-20zm167 38-2 16-8 5 2-14zm-5 8-1 8 2-2 1-8zm-6 14-8 15-13 14 7-14zM181 94l11 7-5 8-13-7zm0 3-4 4 9 5 3-4zm239 170-1 11-18 9 1-10zm-16 11-1 5 14-7v-5zm3-85 7 5-2 15-7-4zm2 4-1 11 2 1 2-10z"/><path d="m361 243-2 10-17 8 3-10zm-14 10-1 4 10-5 1-5zm54 44-4 9-24 7 4-8zm-23 10-1 2 18-5 1-3zm-33-42v10l-21 6v-10zm-19 8v4l16-4v-5zm-8 49 6 6-29 7-6-6zm-24 8 2 2 23-6-2-1z"/><path d="m314 318 5 6-28 7-5-7zm-24 8 2 2 23-5-2-3zm104-134-2 15-8 4 2-15zm-5 6-2 9 3-1 1-9zM217 410l-3 8-13 6 2-7zm-12 9v1l7-4 1-1zm169-102-9 7-31 8 9-7zm-53 9 8 4-30 7-7-4zm-22 8h1l22-5-1-1zm-118 89h16l-6 4-14-1zm221-231 8 2-3 16-7-3zm2 3-1 10 2 1 2-10zm-78 90 2 9-24 5-2-9zm-21 7v5l20-5-1-4z"/><path d="m311 312 4 8-28 7-4-8zm-25 9 2 3 24-6-2-3zm113-129-2 15-8 1 2-15zm-5 3-2 10h3l1-10zm29 31 3 10-11 12-3-9zm-8 13 1 5 8-9-2-5z"/><path d="M397 192h7l-2 16-7-1zm2 2-2 11h3l2-10zm-74 134 9 3-30 7-9-3zm43-102 8-10 2 2-4 6-8 9-2-2zm-153-95 9 24 4 17-13-27zm93 176 4 8-28 6-4-8zm-25 8 2 3 24-5-2-4zM117 143l2 16-10 18-2-16zm-7 18 1 8 5-11-1-8zm134 70h2l3 10 2 22h-2l-3-10zm-54-131 11 11-3 8-13-11zm1 3-3 4 9 8 1-4zm-89 111 4 19-3 25-4-18zm0 13-1 13 1 6 2-13zm14 120 2-1 7 18 1 3-2 1-7-16zm304-88v11l-18 10-1-11zm-16 12v5l13-7v-6z"/><path d="m330 329 12 1-34 8h-13zM166 98l-4 11-15 2 6-12zm-11 4-4 6 9-1 3-6zm209 134-4 10-16 8 3-9zm-15 10-1 3 10-5 2-3zm54 44-3 10-24 8 3-10zm-22 10-2 4 19-6 1-4zm-5 14-7 7-29 8 7-7zm-28 10 20-5v-1zm-113 58-1 12-11 14 1-11zm-9 16v2l6-7v-3zm23-89 2 19-5 25-2-18zm-3 26v4l3-12-1-3zm100-78-2 10-20 6 1-9zm-19 9-1 4 16-5 1-5zm-221 36h2l3 8 3 19h-3l-2-7zm42 105 2-2v1l10 8-1 2-2-1zm178-130 1 10-25 5-1-9zm-22 8v4l20-4v-5z"/><path d="m139 392 17 20-8-5-9-11zm167-92 3 9-28 6-3-9zm-25 8 1 4 24-5-1-4zm139-89 4 9-11 13-4-8zm-8 14 2 4 7-9-2-4zM208 120l10 18v11l-12-19zm1 7v2l6 11v-1z"/><path d="m200 108 10 15-2 9-12-15zm0 5-1 4 8 9v-3zm-61-1-2 15-13 11 2-15zm-10 12-2 8 8-6 1-8zm247 92 4-4 2 1-8 10-5 5-1-2zM158 415l1-1 10 5 1 2-1 2-10-7-2-1zm70-244 8 18 9 30-10-17zm106 159 4-1v2l-25 6-4 1-1-2zm-203 53 2-1 8 13v5l-10-16zm81 36-11 5-18 4 9-5zm206-168 2 11-18 10-2-10zm-15 12v5l14-7-1-6zm-98 30 2 9-28 7-3-10zm-26 8 1 5 24-5-1-5zm137-87 5 7-11 14-5-8zm-8 13 2 4 8-10-3-3zm-30 82-5 8-28 8 5-8zm-27 10-1 2 21-6 1-2zm17-90-5 10-18 10 5-10zm-16 12-1 2 10-6 1-2zm-60 87 6 6-29 7-7-5zm-25 9 2 2 24-6-2-2zm137-54-2 10-24 8 2-9zm-22 11-1 4 19-7v-4z"/><path d="m288 324 6 6-30 8-5-7zm-25 9 2 2 24-6-2-2zm129-130-14 17-11 8 13-16zm-66 67v10l-24 5v-9zm-22 8v4l20-4v-5zm44-28-3 10-21 6 2-9zm-20 9-1 4 16-5 1-4zM161 417l18 6 11 6-21-6zm135-85 7 4-30 8-7-4zm-24 9h1l24-6-2-1zm-170-97 5 19v27l-6-18zm2 16v12l1 2v-11z"/><path d="m285 318 5 8-30 7-5-8zm-26 9 2 3 25-6-2-3zm92-3-12 7-35 9 12-7zm-102-61h2l1 12v21h-2l-1-12zm-139-94 4 17-8 21-4-17zm-5 21 2 8 4-12-2-9zm123 210-5 9-13 12 4-9zm183-190 6 6-11 13-5-6zm0 3-7 10 2 3 8-10z"/><path d="m300 334 8 3-30 8-9-2zm-22 9 22-6zm-31-3 1 16-8 22-1-15zm-6 23 1 3 3-11v-3zm-130-34 3-1 1 6 5 17-3 1-1-5zm284-125-12 15-9 3 11-14zm-8 6-6 7h1zM124 368l2-1 7 15v1l-2 1-7-14zm158-56 4 9-29 7-4-9zm-26 9 2 4 25-6-2-4zm48-35 1 9-28 7-2-10zm-26 8 1 5 23-5v-5zM164 98l13 3-3 11-15-3zm1 3-2 6 9 2 2-6zm252 143 2 10-18 11-2-10zm-16 12 1 5 14-8-1-5zm5-50 7 5-11 14-6-5zm1 4-8 9 3 2 7-9zm-34 13-7 10-19 11 7-10zm-17 13 8-5z"/><path d="m399 204-11 14-8 1 10-14zm-7 4-7 8h2l6-9zm-88 128h12l-34 9h-12zm76-32-4 8-28 8 4-8zm-26 10-1 2 21-6 1-2zm47-109 7 3-10 13-7-3zm1 3-8 9 3 1 7-9z"/><path d="m396 204 8 1-11 14-8-1zm1 3-7 9h2l7-9zm7 69-1 10-23 8v-9zm-21 10-1 5 19-7v-5zm-56-23-1 10-25 5 1-9zm-22 8-1 4 20-4v-5zm45-27-3 9-22 7 4-9zm-20 9-1 3 16-5 1-4zm20 69-7 7-31 7 8-6zm-70-16 3 9-29 6-4-9zm-26 8 1 5 25-6-1-4zm-30-152 2-1 3 8 7 20-2 1-4-8zm16 48 2-1 3 10 4 22h-2l-3-10zm-67 212 15 1 8 4-16-1zm-69-152 5 21 2 29-5-18zm200 9v9l-28 6-1-9zm-26 8v4l24-5-1-4z"/><path d="m308 336 4-1 1 2-26 7-4 1-1-2zM126 132l2 15-11 15-2-16zm-9 15 2 9 7-9-1-9zm297 90 3 9-18 11-3-9zm-15 12 2 5 13-9-1-4zM147 401l11 10 3 7-13-11zm63 16 3-1 1 2-10 5-3 1-1-2zm55-82 6 6-28 8-7-6zm-24 9 3 2 22-6-2-2z"/><path d="m261 330 6 7-29 8-6-7zm-24 10 2 2 24-6-3-3zm-98 51 11 12 1 8-12-15zm243-175-13 12-24 14 13-12zM150 108l-1 14-14 6 2-14zm-11 8-1 8 9-4 1-8zm130 223 7 4-28 9-8-5zm-23 9 2 1 22-7-1-1zm-3 18-2 14-10 19 1-13zm-8 20v1l4-8v-1zM106 197l5 18-6 23-4-17zm0 10-3 14 2 7 3-13zm12 145 2-1 1 3 6 15-3 1v-2zm161-53 2 9-30 6-2-9zm-27 8 1 5 25-6-1-4z"/><path d="m258 325 5 7-29 8-5-8zm-25 9 2 3 24-6-2-3zm-78 75 12 7 4 7-14-8zm226-111-2 9-28 7 3-9zm-25 9-1 4 22-6 1-4zm48-39v11l-24 8v-10zm-21 11v5l18-7v-5zM175 100l13 7-2 11-14-7zm1 3-1 7 9 4 1-6zm176 215-6 8-29 7 6-7zm-28 10-1 1 22-5 1-2z"/><path d="m251 285 2 22-3 32-2-23zm22 56 9 3-29 9-9-3zm-21 9 1 1 21-7h-1zm102-112-5 8-22 8 5-8zm-21 10-1 2 15-5 2-3zm-4 8-2 10-25 5 2-9zm-23 8-1 4 20-4 1-4zM133 380l8 14v6l-10-16zm193-50-13 7-36 10 13-7z"/><path d="m255 319 4 8-29 7-4-9zm-25 8 2 4 24-6-2-4zm181-96 4 8-18 11-4-8zm-15 12 2 4 14-8-2-5zm-181-98 3-1 8 18 3 7-2 1-9-17zm152 82-3 3-5 2-1-2 8-5 11-7 1 2-4 3zm-63 45v9l-29 6 1-9zm-26 8v4l23-5 1-4zm-170 30h3l1 6 3 18-2 1-2-6zm56 105 12 4 5 7-14-5zm5 4 6 2zm109-76h11l-32 10h-11zm0-51 1 9-30 6-1-10zm-27 7v5l25-5v-5zm-53 122 7 2-14 4-7-3z"/><path d="m253 312 3 9-29 7-3-10zm-26 8 2 5 24-6-2-5zm180-94 5 7-18 11-5-7zm-14 12 2 3 13-9-2-3zM186 105l13 11v11l-15-10zm1 5v5l9 8v-5zm52 273-7 15-15 20 6-14zm153-170-24 15-13 5 22-15zm11 48 1 10-24 9-1-10zm-21 11v5l19-8v-5zm-255 96 7 14-2 4-8-17zm255-77-1 9-28 8 2-9zm-25 10-1 4 23-7v-4zm-118 41 7 6-27 9-6-6zm-22 10 3 2 21-7-3-2z"/><path d="m235 337 6 7-27 9-6-7zm-22 10 2 3 22-7-3-3zM105 226l4 18-3 25-4-17zm1 13-2 13 2 5 1-13zm252-6-6 8-23 8 6-8zm-22 10v1l14-5 1-1zM205 124l13 20 4 15-15-21zm4 11 1 2 6 9v-1zm145 179-4 7-29 7 4-8zm-27 8-1 3 22-6 1-2zm-80-81h2l1 12 2 22h-2l-1-12zm-4 105 8 5-26 9-8-4zm-20 10 2 1 20-7-2-1zm102-28-8 7-31 8 8-6zm6-78-3 9-25 6 3-9zm-23 8-1 4 19-5 2-3z"/><path d="m196 114 12 15 2 12-14-16zm2 6v4l9 9-1-3zm84 223 4-1 1 2-25 8-4 1-1-2zm-51-12 5 8-26 9-6-9zm-23 10 3 4 22-7-3-4zm194-120 6 6-17 12-6-6zm-13 12 2 3 13-9-2-3zm-271-78 4 17-10 17-3-16zm-7 18 2 9 6-11-2-9zm281 42-19 13-10 1 19-13zm-158-26h2l6 21 3 9-2 1-6-21zM113 335l2-1 2 4 4 16-2 1-1-3zm35 62 10 9 1 8-12-10zm2 5v1l6 6v-2zm98-53 8 3-26 10-9-3zm0 3-20 7h2l19-7zm58-87-2 9-29 6 2-9zm-27 8-1 4 24-5 1-4z"/><path d="M251 318v20l-5 27-1-19zm-4 28 2-9zm-106 42 9 11-1 8-10-13zm1 5v1l5 7 1-1zm136-109v10l-30 6v-10zm-28 8v5l25-5v-5zm1 12 2 10-29 6-2-10zm-26 8 1 6 25-6-2-5zm173-94 6 5-17 12-7-5zm-14 12 3 2 13-9-3-2zm3-14 9 1-18 12-8-2zm1 2-12 8h1l12-8zM173 418l13 1 4 6h-13zm5 3 1 1 6 1-1-2z"/><path d="m392 216 8 3-18 12-7-3zm1 3-13 8 2 1 13-8zM228 325l5 9-27 7-5-9zm-23 9 2 4 22-6-2-4zm-49 70 11 7 1 8-12-7zm2 4v3l7 4-1-3zm4-301v13l-15 2 1-13zm-12 4-1 9 10-2 1-8zm82 291-18 16-12 6 16-14zm169-148 2 9-24 10-2-10zm-21 11 1 4 19-7-1-5zm-16-37-9 8-25 9 9-7zM134 377l9 13-2 7-10-14zm1 5h-1l6 9v-1zm248-98-1 10-28 7 1-9zm-26 10v4l23-6v-5zm-105 57h11l-28 11-11-1zm-147-97 5 18-1 27-5-17zm2 17v12zm183 69 1 2-4 2-25 8-1-2 5-3zm-75 10 7 6-23 10-7-6zm-19 10 4 3 17-8-2-2zm160-52-3 9-29 6 3-8zm-27 9-1 3 23-5 1-4zm-3 8-5 7-30 8 6-8zm-27 9-1 2 21-6 1-1z"/><path d="m211 345 6 7-23 9-7-7zm-20 10 4 4 18-8-3-3zm-73-3 4 2 6 16-3 1zm217-107-5 8-25 6 4-8zm-24 8-2 3 20-5 1-3zM137 124l2 15-13 10-2-15zm-10 11 1 10 9-7-2-9zm93 219 7 5-22 10-8-5zm-18 11 3 1 17-7-2-2zm24-47 3 9-27 7-3-10zm-24 8 2 5 22-6-2-5zm-38 84 11 3 2 9-12-4zm3 3v3l7 2-1-3z"/><path d="m207 338 5 9-23 9-6-9zm-20 10 3 5 19-7-3-5zm63-51 2 10-30 6-1-11zm-26 7v6l25-5-1-5zm-18 112 8 2-13 7-7-3zm1 2-7 4h1l6-3zm71-141v10l-30 5v-10zm-28 7v5l25-4v-5zm58-25-3 8-29 6 3-9zm-27 7-1 4 23-5 1-3zm117-19 3 9-23 9-3-8zm-20 11 1 4 19-7-1-5zm-153 99 8 3-22 11-9-3zm0 3-17 8h2l17-7zm138-133 1 3-5 2-19 8-1-2 4-3zM249 344l-2 20-10 26 3-18z"/><path d="M262 350v2l-22 9-5 1-1-2 23-9zm-111 41 9 8-2 9-11-9zm1 4-2 4 6 5 1-4zm-23-30 7 14-3 6-8-16zm-1 4 5 11v-1zm-21-78h2l2 7 2 30-5-18z"/><path d="m144 382 9 11-4 9-9-12zm0 5-1 3 5 7 2-4zm-31-205 4 17-8 20-4-17zm-5 20 2 9 4-12-2-9zm96 129 4 10-24 8-4-10zm-21 9 3 6 19-7-3-5zm11 19 8 6-19 10-8-7zm-14 10 3 3 14-8-3-3zm119-34-8 7-30 9 9-7z"/><path d="m190 353 6 7-19 10-7-8zm-16 10 4 4 14-7-3-4zm76-88h2l1 11v21l-2 1-1-12zm-92 123 10 5-2 10-10-6zm2 3-2 5 7 3v-4zm222-124 1 9-28 8v-9zm-25 9 1 5 22-6v-5zM194 417l6 6-13 2-4-5zm-7 4 1 2 7-2-2-1zm37-111 3 10-28 6-2-10zm-24 7 1 6 23-5-2-5zm27-147 2-1 7 20 3 10h-2l-8-19zm-27 193 7 5-18 11-8-5zm-14 11 3 2 14-8-3-2zm153-134-6 8-26 6 5-7zm-25 9-1 1 19-4 1-2zm14 71-4 8-28 7 4-8zm-27 9-1 2 23-5 1-3zm56-27-2 9-28 6 2-9zm-26 8-1 4 23-5 1-4zm-193 63 8 11-5 9-8-14zm-2 6 5 9 2-3-5-8zm93-20 11 1-24 11-11-1zm1 3-15 6h1zm165-121 4 8-23 10-4-8zm-20 11 2 4 19-8-2-4z"/><path d="m185 346 6 9-19 9-6-10zm-16 9 4 6 15-7-3-5zm194-128 5-1v2l-19 8-5 1-1-2zm-253 90 2-1 2 5 5 28-6-14zm63 96h11l3 9-12-1zm3 2 1 4h6l-1-3zm74-126 1 10-30 6v-11zm-27 7v6l25-5v-5zm-63-189 14 2v13l-15-2zm2 3v8l10 2v-9zm-6 274 9 7-6 10-9-8zm0 3-3 6 5 5 4-6zm22-20 7 7-14 10-8-7zm-11 10 4 4 10-7-4-4z"/><path d="m150 376 8 9-7 10-8-10zm0 4-4 5 5 6 4-5zm51-57 4 11-25 7-3-11zm-21 9 2 6 19-6-1-6zm-8 29 7 8-14 10-8-9zm-11 10 4 5 11-8-4-4zm44-5 8 3-18 11-9-3zm0 3-13 8 3 1 13-8zm-39 33 10 4-1 10-11-4 1-10zm1 4v4l6 2v-5zm76-186h2l4 21 1 12h-2l-4-21zm23 127 1 3-4 2-23 9-1-3 5-2zm-34 46 7-14 2 1-3 5-6 13-3-1zm47-123-1 10-30 5 1-10zm-28 7v5l25-5v-4zm59-24-3 8-29 6 3-8zm-27 8-1 3 23-5 1-3z"/><path d="m165 376 8 7-10 10-9-8zm0 3-7 6 5 5 6-7z"/><path d="m183 372 8 5-13 11-9-5zm0 3-10 8 4 2 10-8zm-20 15 9 5-5 11-10-6zm1 3-4 6 6 3 3-6zm-51-59 5 5 5 18-4-2zm278-98 5 7-23 10-5-8zm-19 10 2 4 19-8-3-3zM159 369l7 8-10 10-8-9zm-8 9 5 6 7-7-4-5zm229-153-27 11-12 1 27-11zM182 338l5 10-20 8-5-11zm-17 9 3 6 15-6-2-6z"/><path d="m168 353 6 10-15 9-7-11zm-13 9 4 7 11-7-3-6zm-11 5 7 11-7 9-8-13zm-5 8 5 7 4-4-4-7zm-15-23 6 15-4 5-6-18zm-1 3 4 12zm48 26 8 5-8 11-10-5zm0 3-6 7 5 3 6-7zm210-115 2 10-28 8-1-10zm-24 10v5l23-7-1-5z"/><path d="m133 361 6 14-5 7-7-15zm-3 6 5 10 1-2-4-10zm171-36-6 8-28 8 6-8zm-26 10-2 2 21-6 1-2-21 6zm-25 15-28 14-16 3 29-14zM110 210l4 17-6 22-4-16zm0 10-4 13 2 6 3-12zm113 82 2 10-28 6-1-11zm-25 7 1 6 23-5-1-5zm146-73-8 7-28 7 8-7zm-11 6 2-1zm54-10 6 6-23 9-6-6zm-19 10 2 3 19-8-3-3zM154 360l7 10-11 10-8-12zm-8 9 4 7 7-6-4-6zm227-143 9 1-24 10-9-2 24-10zm0 2-16 7zM189 376l9 3-13 11-10-3zm0 2-9 8 4 1 9-7z"/><path d="m210 368 10 1-18 12-11-1zm1 3-12 7h2l11-7zm25 22-13 17-8 4 11-15zM128 144l3 16-11 14-4-16zm-9 15 2 10 7-9-1-10zm239 136-2 9-28 7 2-10zm-26 8-1 5 23-6 1-4zm-162 91 9 3-4 11-10-3zm1 3-3 6 6 2 2-6zm211-169 7 5-23 10-6-5zm-18 11 2 1 18-7-2-2zm-34 75-3 8-28 8 3-9zm-26 9-1 3 22-6 1-3z"/><path d="m378 226 7 4-23 10-7-4zm-18 10 2 1 17-7-1-1zm-161 79 3 11-25 6-3-11zm-22 8 2 6 20-5-2-6zm0 62 9 3-8 12-10-4zm1 3-6 7 5 2 5-8zm-14-44 5 11-16 9-5-12zm-13 9 3 7 12-6-3-6zm65-208 13 24 4 19-14-25zm5 15 1 2 5 10v-2zm30 122-1 10-30 5 1-11zm-28 6v6l25-4v-5zm-50 117 11 1v10l-11-1zm3 3-1 5h7l-1-5z"/><path d="m179 329 4 11-21 8-4-12zm-18 8 3 7 16-5-3-7zm90-30h2l1 11-2 19h-3v-10zm-112 50 6 12-8 8-6-14zm-5 7 4 9 5-5-4-8zm80 45 8 1-11 9-7-1zm1 2-6 6h1l6-6zm-66-292 2 15-14 6-2-14zm-11 8 1 10 9-5-1-9zm138 215-9 8-28 10 9-8zM172 108l15 7v13l-15-6zm2 4v8l11 5-1-8zm18 299 4 8-12 3-3-8zm-8 4 2 4 6-2-1-3zm130-167-5 8-29 5 4-7zm-28 8-1 2 23-4 1-2z"/><path d="m150 351 5 11-11 8-7-12zm-9 8 3 8 8-5-3-8zm62 53 6 5-12 6-5-5zm-7 7 2 1 6-3-2-2zm85-155-2 9-30 5 2-10zm-28 7-1 4 25-4 1-4zm127-9 2 10-28 8-2-10zm-25 10 1 5 23-7-1-5zm-247-35 4 17-3 25-4-16zm1 14-2 12 1 3 2-11zm86 127h9l-13 12h-10zm1 2-9 8h4l7-8zm156-147-12 7-32 8 12-7zM226 365l18-9 1 2-5 2-18 10-1-3zm-97-16 5 15-6 5-6-16zm-4 5 4 11 2-2-4-10z"/><path d="m227 366-19 13-13 3 20-13zm-4-72v10l-27 5-1-11zm-25 6v6l23-4v-5zm-21 97h9l-3 11h-10zm1 2-2 7h6l1-6zm125-73-4 8-27 8 4-8zm-25 10-2 3 21-7 1-2z"/><path d="m184 387 9 1-7 12-11-1zm1 3-5 7h4l5-7zm-24-55 4 12-17 7-4-13zm-14 8 3 8 12-5-3-8zm60-211 13 20 3 15-14-19zm3 10 1 5 8 10-1-4zm148 146-1 9-28 7 1-10zm-26 8v5l23-6v-4zm-216 42h5l4 16-4 3zm3 3 3 12zm-11-78 4 17-1 27-4-16zm76-150 14 11 2 14-15-11zm3 6v7l10 7-1-7zm144 189-2 9-28 6 2-9 28-7zm-26 8-1 4 23-5 1-4zm-107-10 1 11-24 6-2-12zm-22 7 1 7 20-4-1-7z"/><path d="m177 320 3 12-21 6-3-12zm-18 7 2 8 16-5-2-7zm218-71 3 9-27 8-3-9zm-24 9 1 5 23-7-1-4zm-242 51 5 7 3 20-5-5zm25 29 4 14-8 6-6-15zm-7 7 4 9 5-3-4-9z"/><path d="m108 287 5 17 2 26-5-13zm88-165 14 15 2 14-15-15zm3 7 1 6 8 9-1-6zm-53 212 5 12-13 7-5-14 13-6zm-10 7 4 9 8-5-3-8zm198-108-9 2-4 1-1-2 13-3 15-4 1 2-5 1zm-82 35-2 9-29 5 1-10zm-28 6v5l24-4 1-5zm94-37-6 7-30 6 6-7zm-29 8-1 1 23-4v-1zm-12 86-6 8-26 10 7-9zm-24 11-1 2 18-7v-1z"/><path d="m245 355 4-18 3 1-2 8-3 18-3-1zm-54 49 1 10-10 2-1-10zm-7 4v5l6-1-1-5zm27-32-13 13-11 2 14-13zm-9 4-7 7 2-1 6-6zm46-127h2l1 12 2 21-2 1-1-12zm-11-54h2l6 21 1 12h-2l-6-21z"/><path d="m284 258-4 8-30 5 4-8zm-29 7-1 3 25-4 1-3zm-134-97 3 17-9 17-4-16zm-7 18 2 9 6-10-2-10zm142 162-11 10-26 13 12-10zm118-98 4 8-27 8-4-8zm-24 9 2 4 23-6-2-4z"/><path d="m226 365 1 2-14 9-5 3-2-2 15-10zm122-131h14l-33 9-13-1zM200 386l-7 12-11 2 8-12zm-8 4-5 7 4-1 4-7z"/><path d="m194 395-3 11-10 3 3-12zm-8 4-2 6 5-1 1-6zm37-113v10l-28 5 1-11zm-25 6v6l23-4v-5zm159-12 1 10-28 6-1-10zm-26 8 1 5 23-5v-5zm-173 37 3 13-16 6-4-14zm-14 7 2 9 12-5-2-8zm161-12-3 9-27 8 3-10zm-25 9-1 4 21-6 1-3zm-81 78 5 7-11 6-3-8zm-6 6 1 4 7-4-2-3zm-68-77 4 16-6 4-5-17zm-4 4 3 12 2-1-2-11zm211-39-1 9-28 7 1-10zm-26 8v5l23-6v-4zm-64 60 2-6 3 1-6 16-3 5-2-1zm129-125 4 8-27 8-4-8zm-24 10 2 3 23-6-2-4z"/><path d="m197 298 1 11-25 5v-12zm-22 6 1 7 20-4-1-6zm178-70 9 2-29 8-8-3zm-14 6-6 1z"/><path d="m175 311 2 12-21 5-2-12zm-18 6 1 8 17-4-2-7zm167-76-9 6-32 6 9-6zM162 118l1 15-14 2-2-15zm-13 4 2 10 10-1-2-10zm61 284 7 4-11 9-5-5zm0 3-6 5 2 2 7-6zm-66-79 3 13-13 6-3-15zm-11 6 3 9 8-4-2-8z"/><path d="m133 333 3 15-9 5-4-16zm-7 6 3 10 5-3-3-9zm241-99 5 7-27 7-5-6zm-23 9 2 3 22-7-2-2zm-90 19-3 9-29 4 2-9zm-28 6-1 4 24-3 2-4zm131-39 8 4-27 7-8-4zm-21 8 2 1 20-6-1-1zm-95 138-10 18-7 5 8-17z"/><path d="m362 237 7 5-28 8-6-6zm-22 9 2 1 22-6-2-1zm-61 87-4 8-25 9 5-9zm-22 10-2 3 18-7 1-2-18 6zm-36 56h8l-9 13-7-1zm2 2-6 8h2l5-8zm-84-265 3 16-13 10-3-15zm-11 12 2 10 9-7-2-10zm91 222-15 15-13 7 15-15zm68-117-4 8-31 4 5-7zm-29 7-1 2 24-3 2-3zm-142-66 4 17-8 20-4-16zm-5 21 2 8 4-12-2-8zm2 107 6 2 2 17h-5zm3 4 2 12zm240-53 1 10-28 6-1-10zm-26 8 1 5 23-5v-5zM198 400l2 9-10 6-1-10zm-6 6v5l6-3-1-5z"/><path d="m256 345-6 9-23 11 7-10zm-20 12-1 2 13-7 1-1z"/><path d="m231 361 1 2-5 4-13 9-2-2 5-4zm91-121 1 3-4 1-26 5-1-2 4-2zm-97 38-2 10-28 4 2-11zm-26 6-1 5 23-3 1-5zm107 29-2 10-27 7 3-10zm-24 9-1 5 21-6 1-4zm-76 59-7 13-10 6 8-13zm-8 7-3 6 3-2 3-5zm-41-73 2 12-17 6-3-14zm-15 6 2 9 12-4-1-8zm109-35h2l1 11v21h-3zm81 7v10l-28 6v-10zm-25 8v5l23-5v-5z"/><path d="m200 391-2 11-10 6 3-12zm-7 7-1 5 4-2 1-6zm-83-100 5 9 1 21-4-7zm118-127 11 28 2 21-11-28zm4 17v4l5 11-1-4zm-119 33 3 17-5 22-4-16zm-3 23 1 5 2-11-1-6zm88 45v11l-25 4v-11zm-23 6v6l20-3v-6z"/><path d="m175 301 1 12-21 5-1-13zm-19 6 1 8 16-4v-7zm198-41 2 10-28 5-3-9zm-26 8 2 5 23-5-1-5zm-205 49 3 16-7 2-3-17zm-4 3 2 12 2-1-2-11zm137-64-3 9-30 3 4-9zm-28 6-1 3 24-3 2-3zm63-18-5 6-31 4 6-6zm-29 6-1 1 23-3 1-1zm-153 16 4 15v25l-4-14z"/><path d="m110 247 4 16-3 24-4-15zm1 15-1 10v2l1-10zm31 56 2 14-13 5-3-15zm-11 5 2 10 8-3-1-9zm191-83h5v2l-26 5-4 1-1-3zM206 400l6 7-10 9-5-8zm-5 9 2 3 5-5-2-3zm80-83-3 10-24 8 3-10zm-22 10-1 4 18-6 1-4z"/><path d="m131 321 2 15-9 4-3-17zm-7 4 1 11 5-2-1-10zm88 49 5-4 2 1-9 9-6 5-1-2zm-53-256 15 2 2 15-15-2zm3 3 1 9 10 2-1-10zm82 111h2l4 21 1 12h-2l-4-21zm107 28 3 9-28 5-3-8zm-25 8 2 4 23-5-2-4zm5 18 1 10-28 6-1-11zm-25 7v6l24-5-1-5zm-48 47-4 9-21 10 5-10zm-19 11-1 3 14-7 1-3z"/><path d="m240 352-8 10-20 13 9-11zm-17 13h1zm84-59-2 10-26 7 1-11zm-24 8-1 6 21-6 1-5zm44-74 11 2-33 6-11-2zm-100 31-3 10-28 3 3-10zm-26 5-2 5 23-2 1-5zm49 51 1-9h3l-2 20-2 8h-2zM130 157l4 17-11 13-4-16zm-8 15 2 10 7-9-2-10zm34 133 1 12-17 4-1-14zm-15 4 1 9 12-3v-8z"/><path d="m213 374-7 15-12 10 9-15zm-9 11-1 3 1-1 1-2zm12 12 8 3-9 12-7-5zm1 2-5 8 2 1 6-7zm131-145 4 8-28 6-5-8zm-25 8 2 3 23-4-2-4zm-26-15-8 5-32 4 8-5zm-92 147 3 9-10 8-2-10zm-6 8 1 4 5-4-2-4zm20-246 12 23 2 19-12-23zm4 12v6l6 12v-6zM112 305l6 4 1 18-5-2zm3 5 1 13-1-12zm216-69 9 3-31 6-8-4zm-22 6h1l22-4h-1zm-49 10-5 8-30 3 5-8zm-28 5-2 3 24-2 1-3zm-33 19-1 11-25 3 1-11zm-22 5-1 6 20-2 1-6z"/><path d="m206 385-1 11-9 9 1-12zm-6 9-1 4 4-3v-4zm-25-102v12l-21 3v-12zm-18 5-1 8 17-3v-7zm187-48 5 8-28 5-5-7zm-24 8 2 3 23-5-2-3zm16-15 7 5-29 6-7-5zm-23 7 1 1 23-4-2-1zM150 131l3 16-14 6-3-15zm-11 8 2 11 9-4-1-11z"/><path d="m340 245 6 6-29 6-6-6zm-24 7 2 3 23-5-2-2zm-68 93 2 1-4 18-7 16 6-28zm82-66 2 9-28 6-2-10zm-25 7 1 5 23-4-1-5zm-23 33-2 10-24 8 3-11zm-21 9-1 5 18-6 1-4zm-26 58-7 15h-8l7-14zm-6 4-5 9h2l5-10zm-57-271 15 7 2 15-16-7zm3 4 1 10 10 4-1-10zm-34 184 1 14-13 3-1-15zm-11 4 1 10 9-2-1-9z"/><path d="m245 366-7 20-7 5 6-18zm-6 8-3 11v-1l4-11zm-18-10 2 1-4 6-9 9-2-1 5-7zm86-65v10l-27 6v-11zm-24 7v6l21-5v-5zm-168 3 7 1 2 15-8 1zm3 2 1 13 2-1-1-11zm188-67-13 5-37 5 13-5zm-98-101 14 19 2 17-14-19zm4 9 1 7 7 11v-7z"/><path d="m130 309 1 15-10 2-1-16zm-7 3v11l6-1-1-11zm-12-31 4 11v21l-5-9zm149 52-3 10-21 9 4-11zm-18 10-2 4 15-6 1-4zm-12-78-4 9-28 2 4-9zm-26 4-2 5 22-2 2-4zm-80-88 3 17-9 16-4-16zm-7 18 2 9 5-11-1-9z"/><path d="m242 346-6 11-17 11 6-12zm-15 12-2 3 9-6 1-2zm-43-234 15 11 2 15-15-10zm3 5 1 9 10 7-1-9zm77 124-6 7-30 3 6-7zm-29 5-1 2 23-3 1-1zm93 14 2 9-28 5-2-9zm-25 6 1 5 23-4-1-5zm-91 114 6 6-8 11-5-7zm1 4-5 6 2 3 5-7z"/><path d="m197 132 14 15 2 16-14-15zm3 7 1 8 9 9-1-8zm49 126h2l2 21 1 11h-3l-2-21zm-92 29-1 13-17 3v-14zm-15 4-1 9 13-2v-8zm154-53h5v2l-27 4h-4l-1-2zm-95 29-2 10-25 2 3-11zm-22 4-2 5 20-2 1-5zm34 94 2 1-4 8-5 8-2-2 4-8zm25-161h2l6 21 1 12h-2l-6-20zm-126 45 3 15-3 23-3-13zm1 15-1 10z"/><path d="m177 283-2 12-21 2 1-12zm-19 4-1 7 16-2 1-6zm-39-80 3 16-8 19-3-15 8-21zm-5 20 1 6 4-10-1-7zm169 85-1 10-24 7 2-11zm-21 8-1 6 19-6v-5zm44-29 1 10-27 6v-11zm-24 7 1 6 21-5v-5z"/><path d="m115 232 3 16-6 21-2-15zm-3 22 1 4 2-10-1-4zm213 11 4 9-28 5-4-9zm-25 7 2 4 23-4-1-4zm-90 114 4 8-8 11-3-10zm-5 10 2 4 4-6-1-4z"/><path d="M211 377v11l-9 12 1-13zm-5 11-1 4 4-5v-3zm95-143 13 2-35 4-13-2zm-188 44 5 6v17l-6-4zm2 6v13l1-12zm118-35-5 8-28 2 5-9zm-26 4-2 3 22-2 2-3zm62-14-7 6-32 2 8-5zm-30 5 22-2zm-97 41-1 14-13 2v-15zm-11 3-1 10 9-2v-8z"/><path d="m230 352-7 13-14 14 8-15zm-11 14-1 1 3-3 1-1zm3 19 8 3-7 14-8-3zm1 3-5 9 3 2 5-10zm38-63-2 11-20 8 3-11zm-17 9-1 6 14-6 1-5zm78-75 4 9-28 4-5-8zm-25 7 2 4 24-4-2-4zM163 130l2 16-14 2-3-16zm-12 4 2 11 10-1-2-11zm-10 15 3 17-12 10-4-16zm-10 12 2 10 8-6-2-11zm174 85 9 3-31 4-9-3zm-22 5 22-3z"/><path d="m243 339-4 11-15 10 4-12zm-13 11-2 5 9-6 2-4zm21-53h3v21l-2 9h-2v-20zm67-42 5 7-28 4-6-7zm-24 5 2 4 23-4-2-3zm16-13 7 5-30 5-7-6zm-24 6 2 1 23-3-2-1zm-170 41 7 2v16l-8-1zm2 3v12h2v-11z"/><path d="m121 296 10 1-1 14-10 1zm2 3v10h5v-10zm182-16 1 10-26 6-2-11 27-4zm-24 7 1 6 22-5-1-5zm33-40 6 7-29 4-6-7zm-24 6 2 2 23-3-2-2zm-86 11-3 9-25 2 4-10zm-23 3-2 5 20-1 2-4zm102 34v10l-24 6v-11zm-21 7v6l18-5v-5zm-104-26-2 12-17 2 2-14zm-15 3-1 8 12-1 1-8zm97 83-6 18-8 1 6-16zm-6 5-4 11h2l4-12zm43-128-12 5-34 3 12-5z"/><path d="m179 275-3 11-21 1 3-11zm-19 3-2 7 16-1 2-6zm53 94 4-8 2 1-4 8-4 8-2-1zm40-53-3 27-6 14 3-26zm-139-54 3 12-2 20-4-10zm1 12-2 10zm114-94 11 28 2 21-11-27zm4 17 1 4 4 11v-4zm4 56-6 6-28 2 6-7zm-26 3-2 2 21-1 2-2zm6 123 7 5-7 13-6-6zm1 3-4 8 3 3 4-9z"/><path d="m248 349-4 21-8 6 5-19zm-5 9-3 12 2-1 2-13zm59-82 3 10-27 4-2-10zm-23 6 1 6 22-4-2-5zm-17 35-1 11-19 7 1-12zm-17 8-1 7 15-6v-5zm0-81h2l4 21 1 11-3 1-4-21zm-112-73 3 16-11 13-3-16zm-8 14 1 10 7-8-1-11zm90 182 1 12-8 14 1-13zm-4 14v2l2-5v-1z"/><path d="m248 250 26-2v3h-4l-27 2v-2zm-33 126 4 7-7 13-4-8zm0 5-4 7 2 3 3-8zm16-36-4 13-12 11 5-14zm-9 11-1 5 4-4 1-4zm-92-71h13l-2 13-13 1zm2 2-1 10 8-1 1-8zm28-157 16 2 2 16-15-2zm3 3 2 11 10 1-1-11zm119 163 1 10-23 6-1-12zm-21 6 1 7 18-5v-5z"/><path d="m245 331-3 12-15 8 3-12zm-13 9-2 6 10-5 1-5zm-115-99 2 15-5 21-3-13zm-3 23v2l2-10v-2zm185 6 4 9-27 4-3-10zm-23 5 2 5 22-3-2-5zm-68-14-5 8-25 1 5-8zm-23 3-2 4 19-1 2-3zm-70 10 5 7-2 17-5-5zm2 7-2 11 1 1 1-11zm126-29-8 6-29 1 8-6zm-28 4-1 1 20-1 1-1zm59-8 15 3-36 2-15-2zm-148-54 3 16-9 16-3-15zm-6 17 1 8 5-9-1-9zm23 64 17 1-2 11-18 1zm2 3-2 7h13l1-7zm-23 5 10 2-2 14-10-1zm2 3-1 10 5 1 1-10z"/><path d="m121 218 2 16-7 18-3-14zm-5 20 1 5 3-10v-5zm45 30h21l-4 10h-21zm2 2-2 6 16-1 2-5zm57-102 12 24 3 19-13-23zm4 13 1 6 6 11-1-6zm72 83 4 8-26 3-5-8zm-23 5 2 4 22-3-2-4zm-47 104 8 1-5 16-8-2zm2 2-4 11 3 1 4-11zm-75-230 2 16-13 6-3-16zm-11 7 2 12 9-4-2-12zm-24 128 7 4-2 15-7-3zm2 4-2 11 3 1 1-11zm159-35 9 4-30 3-10-5zm-21 4 13-1zm4 56v11l-19 6v-12zm-17 7v7l14-5v-6zm35-28 2 10-23 5-2-11zm-20 6 1 6 18-4-1-6zm-40 61 2 1-3 9-4 8-2-1 4-11z"/><path d="m292 258 5 8-27 3-5-8zm-23 5 2 4 22-3-2-3zm14-12 8 5-29 3-8-6zm-22 4 2 1 21-2-1-1zm-88-124 15 7 3 16-15-6zm3 4 2 11 10 4-2-10z"/><path d="m288 254 6 7-28 3-6-7zm-23 5 2 2 22-2-2-2zm-14 6 3 32-3 21-3-31zm-1-14-11 4-31 1 11-5zm-62 6h25l-6 7h-26zm1 2-2 3 18-1 2-2zm56 63-1 12-15 8 2-13zm-12 8-1 7 10-4v-7z"/><path d="m233 337-3 13-11 9 3-14zm-9 9-1 6 5-4 1-5zm-14-191 13 19 2 18-13-19zm3 9 1 8 8 11-1-8zm8 206 7 3-5 16-7-5zm1 3-3 10 3 2 3-10zm21-18-4 19-8 2 4-17zm-6 5-3 13 3-1 3-13zm-19-4 2 11-6 18-1-13zm-85-82 13 2-3 12-14-1zm1 3-2 8h9l2-7zm52-141 15 11 2 17-15-11zm3 5 1 11 10 6-1-10zm-71 110 2 12-4 19-3-11zm-3 20 1 2 2-10v-1zm163 9 3 10-24 4-3-11zm-21 5 2 6 19-3-2-5zm-18-71 8 30 1 21-8-29zm3 19v3l3 10v-2z"/><path d="m198 144 15 15 2 17-15-15zm3 7 2 9 8 9-1-9zm17 214 5 6-5 15-5-8zm1 5-3 8 1 3 3-9zm33-70v27l-5 13v-25zm-3 15v13l1-1v-13zm-84-54 21 1-5 8h-21zm2 2-3 5h16l2-4z"/><path d="m261 300 1 11-19 5-1-12zm-17 6 1 7 14-4v-6zm6 25-3 22-7 7 2-21zm-5 9-2 14 2-2 2-14zm-21-89 24-1v3h-5l-24 1v-3zm-77 16 17 1-4 10h-18zm1 2-2 6 12 1 2-6zm-4-106 2 16-12 10-3-16zm-10 11 1 11 8-7-1-10zm-9 97 10 3-3 14-10-3zm2 3-2 10 5 1 2-9zm148-1 4 9-24 4-4-10zm-21 5 3 5 18-3-2-5zm-61-25h25l-8 6h-25zm1 2-2 2h17l2-1zm-75 5 4 9-4 16-4-8zm0 7-2 10 1 2 2-10zm46-123 2 16-14 2-3-16zm-12 4 2 11 10-1-2-12zm73 190-4 18-7 14 4-20zM122 228l2 15-7 18-2-13zm-4 20v4l3-9v-4z"/><path d="m248 250 5 1v2l-23 1-6-1v-2zm-3 63v12l-15 7v-14zm-12 7v8l10-4v-7zm-112-54 7 6-4 14-7-4zm1 5-2 10 3 2 2-10zm149-5 5 9-24 3-5-9zm-20 5 2 4 19-2-2-4z"/><path d="m233 327-1 13-10 8 1-14zm-8 8v8l5-4v-7zm-89-151 1 16-10 13-3-16zm-9 14 1 9 7-8-1-9zm111 160-4 18-9-1 4-16zm-7 3-3 12h4l3-12zm28-70 2 11-19 5-2-12zm-16 6 1 7 15-3-2-7zm10-46 10 4-28 1-11-4zm-18 3h3z"/><path d="m128 206 2 16-9 15-2-14zm-6 17v7l5-9v-7zm145 38 6 8-25 2-6-8zm-20 4 2 3 20-1-3-4zm-77-10 21 2-6 7-21-1zm1 3-2 3 15 1 2-3zm87-5 8 6-26 1-9-6zm-20 3 2 2 19-1-2-1zm-102 8 13 3-4 11-13-2zm2 3-3 7 8 1 3-6z"/><path d="m263 256 6 7-25 2-7-7zm-20 4 2 2 19-1-2-2zm-45-9 27 1-10 4-27-1zm33-54 11 26v20l-10-25zm3 15 1 5 4 12v-5z"/><path d="m246 247 6 29-2 19-6-28zm1 17v3l2 12v-3zm-27 80 2 11-4 20-1-13zm-69-85 17 2-5 9-17-1zm2 3-3 5 11 1 3-5zm71 95 7 2-3 17-7-4zm1 3-2 11 3 1 3-11z"/><path d="m220 353 6 5-4 16-5-6zm2 4-3 10 2 2 2-10zm35-74 3 11-20 3-3-11zm-17 5 2 6 15-2-2-6zm4 16 1 12-14 5-2-13zm-12 6 1 8 10-4-1-7zm-109-72 2 13-6 16-3-11zm-4 18v3l4-8-1-3zm126 81-2 21-8 3 2-19zm-6 7-2 14 4-2 1-14zm-76-201 15 3 2 16-15-2zm2 3 2 12 10 1-1-11zm39 104 20 1 1 2-6 1-20-1-1-2zm-74 10 9 5-5 12-9-4zm1 4-3 8 5 2 3-8z"/><path d="m226 330-2 16-6 10 2-18zm-4 9v6l1-6zm-67-180 2 16-13 6-3-16zm-11 7 2 11 8-4-1-11zm106 115 2 26-5 13-2-24zm-2 15 1 14 1-3-1-14z"/><path d="M233 317v13l-10 7v-15zm-8 7v8l5-3v-8zm-49-73 21 2-8 6-22-1zm0 3-2 2 14 1 2-2zm73 57v24l-7 8v-22zm-4 11v14l2-2v-15zm8-47 5 10-20 3-5-11zm-16 4 2 6 15-2-2-5zm-113-32 4 10-6 15-4-9zm-4 16 2 3 3-9-1-3zm102-81 12 22 1 19-12-22zm3 11 1 7 6 12v-7z"/><path d="m126 255 6 7-5 13-7-6zm1 4-4 9 3 3 3-9zm77-7v-2l21 1 5 1v2l-20-1zm-63 4 13 3-6 10-13-3zm2 3-4 6 8 1 3-5z"/><path d="m157 253 16 3-6 7-17-2zm1 2-4 4 12 2 3-4zm-28-38v15l-8 15-2-14zm-7 17 1 5 4-8v-6zm119 60 2 12-14 4-3-13zm-12 5 2 8 10-3-2-7zm-55-154 15 6 2 17-15-7zm3 4 2 11 9 4-1-11zm72 119 5 10-21 2-5-10zm-17 4 3 5 15-1-3-5zm-12 60 2 10-2 22-2-13zm18 10-2 19h-8l1-17zm-6 4-2 13 4-1 1-13zm-87-169 1 16-12 9-2-16zm-10 10 1 10 8-5-1-11zm68 64 26 1 11 4h-26z"/><path d="m240 229 8 27-2 17-7-25zm2 14-1 4 4 14v-5zm-31-74 14 18 1 18-13-18zm4 8v9l8 11-1-9zm-33 72 22 2-10 4-23-2zm0 2-1 1 12 1h1z"/><path d="m245 262 6 9-21 1-6-9zm-16 3 2 4h16l-3-4zm-92-69 1 16-10 12-2-14zm-8 14v8l6-7v-8zm83 43 23 1 9 6h-23zm7 3 3 2h14l-2-2z"/><path d="M218 258h22l7 7h-21zm6 2 3 3h15l-3-3zm-36-110 15 10 1 17-14-10zm3 5 1 10 9 7-1-10zm41 152 1 13-10 5-1-14zm-8 5 1 9 5-2v-9z"/><path d="m200 158 14 14 1 17-13-14zm3 6 1 10 9 9-1-10zm18 176 6 3-2 18-5-5zm2 4-1 11 2 1 1-11z"/><path d="M225 320v15l-5 8v-17zm-3 7v8l1-1v-8zm3 16h8l-2 18-8-2zm2 2-1 12 3 1 1-12zm13-60 3 12-15 3-4-13 15-2zm-13 4 3 8 10-2-2-7zm-92-38 9 6-6 10-9-5zm1 4-4 6 5 3 3-6zm31-98 2 17-14 1-2-16zm-12 4 2 12 9-1-1-12zm-25 66 1 13-8 14-2-11zm-6 16 1 4 4-7-1-5zm39 6 16 3-8 6-17-3zm0 2-3 2 10 2 3-2zm82 68v21l-9 5v-20zm-6 8v14l3-2v-15zm-51-79 27 3-16 2-28-3z"/><path d="m147 249 12 5-7 8-12-4zm1 3-4 5 8 2 3-4zm98 10 5 25-5 14-5-25zm-2 15 3 14 1-4-3-15zm-112-32 5 8-7 11-5-7zm0 4-4 8 2 3 4-7z"/><path d="m130 237 3 10-7 13-3-9zm-5 14 1 3 5-7-1-4zm122 41 2 23-6 10-2-22zm-4 11 2 15 2-3-2-16zm-7-26 4 11-15 2-5-12zm-12 3 3 7 10-1-3-6zm6 17 2 12-10 4-3-14zm-8 4 2 9 5-2-1-8zm-2 19 3 8v23l-3-12zm12-108 10 24-1 17-10-23zm2 11v6l5 13 1-6zm-46 28v-3l16 2 6 1v2l-16-1zm-50-43v14l-10 12-1-13zm-8 14v6l6-6v-7z"/><path d="m224 309 1 15-5 5-1-16zm-3 5 1 10 1-1-1-9zm-64-142 1 16-13 6-2-16zm-11 8 1 10 8-3v-11zm69 89h17l5 10-16 1zm4 3 4 6 10-1-3-5zm-50-26 17 4-10 4-17-4zm0 2-2 1 9 2 2-1zm70 76v20l-9 2v-18zm-6 5v14l3-1v-14zm-68-172 15 3 1 16-15-2zm2 3 1 12 10 1-1-11zm19 88 24 3 13 6-23-3zm-45-4 8 6-7 9-8-6zm1 3-5 6 5 3 4-5z"/><path d="m221 327 6 1v18l-6-3zm2 3v11l2 1v-12zm-76-140v15l-11 9-1-15zm-10 10 1 9 7-5v-10zm73 62 17 1 6 9h-16zm5 3 3 4h11l-3-4zm-19-13 20 2 9 6-19-1zm9 3 2 1 10 1-2-1z"/><path d="M233 327v19l-8-1v-17zm-6 3v13h3v-13zm-73-86 11 5-8 6-12-4zm0 3-4 3 7 3 4-3zm49 9 19 2 7 7h-17zm7 3 3 3 10 1-3-3zm17 28 3 12-10 2-4-13zm-8 3 3 9 5-2-2-7zm4-94 12 21-1 17-11-21zm2 9v8l7 12v-7zm-87 14v13l-9 11-1-12zm-8 13 1 5 5-6v-6zm110 11 7 24-4 14-7-23zm0 9-2 6 5 14 1-5zm-64-7 18 5-12 1-19-4zm-37-8 4 9-8 9-5-8zm-6 10 3 4 4-6-2-4zm110 54 2 21-8 6-2-20zm-6 8 2 15 3-3-1-15zm-60-150 15 6 1 16-15-6zm3 3v12l10 4v-11zm38 148 4 4 2 23-4-10z"/><path d="m222 299 2 13-5 4-3-16zm-3 3 2 10 1-1-2-9zm-81-73 2 10-9 11-2-10zm-7 11 1 5 5-6-1-5zm112 33 5 23-7 10-4-21zm-3 12 2 15 3-4-3-16zm-28-7h11l5 11-11 1zm3 2 4 8 5-1-3-7zm-2-98 13 18-1 17-12-17zm2 8v9l8 11v-9zm-46-19v16l-14 2-1-16zm-12 4v11l9-1v-11zm32-11 15 10v16l-14-10zm3 4v11l10 7v-11zm-16 79v-2l7 1 12 3-1 3-6-1zm-15-6 11 6-9 4-12-5zm-4 5 6 2 4-1-6-3z"/><path d="m149 239 7 7-8 6-8-7zm-5 7 4 3 4-4-3-3zm58-74 13 14v16l-13-14zm2 6v9l9 9v-9zm-57 24v14l-11 9v-14zm-9 10v8l6-5 1-8zm87 101 2 18-6-2-2-16zm-3 3 1 11 2 1-2-13zm15-10 2 21-9 3-1-18 8-5zm-6 7 1 14 4-2-1-14zm-25-45 12 1 6 11h-11zm5 3 3 7h6l-3-6z"/><path d="m158 186-1 15-12 5v-15zm-11 7v9l8-3v-10zm35 56 1-3 12 3 6 3-1 2-11-2zm49 62 2 19-8 1-2-18zm-5 4 1 13 3-1-1-13zm-14-27h7l3 13-5 1zm4 2 2 10 1-1-2-9zm16-65 9 22-3 15-9-21zm1 9-1 7 5 13 2-6zm-33 26 13 2 7 10-12-1zm5 3 4 5 6 1-4-4z"/><path d="m184 248 17 4 11 8-16-4zm11 5 2 1 4 1-1-1zm24 46 4 20-4-5-3-14z"/><path d="m193 253 14 3 9 9-14-2zm7 4 3 4 6 1-3-3zm-54-26 4 10-9 6-4-8zm-6 8 2 5 5-4-2-5zm29 2 11 6-11 1-12-6zm-4 2 5 3h2l-4-3zm-18-30-1 13-10 8v-12zm-9 10v6l6-5v-6zm28-52 15 2-1 16-14-2zm3 3v11l9 1v-11zm70 108 4 22-8 7-4-20zm-5 10 3 14 3-3-2-16z"/><path d="m146 223 1 11-9 7-2-10zm-8 9 1 5 6-4-1-6zm19 4 6 7-9 4-8-7zm-6 5 3 3 5-2-3-4zm87 14 6 22-6 11-6-21zm-4 12 5 15 2-6-4-15zm-27 9 7 2 5 12h-6zm4 3 4 9h1l-3-8zm11 18 4 18-6 1-3-16zm-3 4 3 12h1l-2-12zm4-91 11 19-3 15-10-19zm2 7-2 8 7 12 1-7zm-63 23 14 2 13 8-13-3zm13 4 1 1h1zm-17-46-2 14-12 5 1-14zm-11 7v8l7-3 1-8z"/><path d="m169 185-1 15-13 1v-15zm-11 4-1 10 9-1v-11zm56 93 6 19-3 2-4-14zm20 7 3 20-8 5-4-18zm-6 8 3 13 4-2-3-15zm-50-124 15 6-1 16-14-6zm3 3-1 11 9 4 1-11zm20 89 8 4 7 12-7-2zm6 5 3 7h1l-3-6z"/><path d="m228 294 3 19-8 3-3-17zm-5 6 2 13 3-2-2-13zm-68-72 3 10-10 4-4-9zm-7 6 1 5 6-3-2-4zm27 10 1-2 8 3 6 4-1 3-7-4z"/><path d="m165 235 5 8-10 1-6-8zm-6 3 2 3h5l-2-4zm54-42 12 17-2 15-12-16zm2 6-1 9 7 11 2-8zm-22 53 11 6 8 12-9-4zm9 8 3 4zm-12-86 14 10-1 16-14-10zm2 5v10l9 7 1-10zm-9 65 1-2 6 4 7 5-1 2-6-3zm-27-38-1 13-11 5v-12zm-9 7v7l6-3 1-7zm83 21 9 21-6 12-8-19zm0 7-2 7 5 13 3-6z"/><path d="m183 245 14 9 12 13-12-7zm19-60 13 14-2 15-13-13zm2 6-1 9 9 9 1-9zm30 73 6 21-8 9-6-20zm-5 11 4 14 4-5-4-14zm-73-56v12l-11 4-1-11zm-9 7v6l6-3v-6zm60 41 8 20v6l-7-15z"/><path d="m218 283 5 17-6 2-4-15zm-2 5 3 11 1-1-3-11zm-50-103 14 2-1 15-14-2zm3 2-1 11 9 1 1-10zm-7 47 11 2 5 9-10-2zm5 4 2 3h4l-1-3z"/><path d="m168 197-2 14-12 2 1-14zm-11 4v9l7-1 1-9zm71 71 6 20-8 6-5-18zm-4 9 3 13 4-3-4-14zm-60-54 2 10-11 1-2-9zm-8 4 1 5 6-1-1-5z"/><path d="m223 278 5 19-7 4-5-17zm-4 7 3 12 3-2-3-12zm-19-29 10 19 1 8-8-15zm22-34 10 19-5 13-10-18zm0 6-2 8 6 12 3-7zm-52 7 12 5 4 9-11-5-6-9zm5 5 2 2 4 2-1-2zm-8-31-2 12-12 2 1-13zm-11 3v8l7-1 1-8z"/><path d="m212 269 7 16-5 5-6-15zm-2 6 5 11 1-2-4-10zm-45-56-1 11-11 1v-11zm-10 3v6h7v-6zm72 26 8 19-7 10-8-18zm-4 11 5 13 4-5-6-14zm-45-73 14 6-2 15-14-6zm2 4-1 10 9 3 1-9zm13 58 11 16 2 9-10-14zm-16-11 13 9 3 9-11-8zm7 8v1l4 2z"/><path d="m185 241 12 13 3 9-10-11zm27-32 11 16-4 13-11-15zm1 5-2 9 7 10 3-8zm-52 13 12 2 1 10-11-2zm3 3 1 5 6 1v-5zm2-33 13 2-3 14-12-2zm2 3-1 9 8 1 1-9zm22-9 13 9-3 15-13-9zm1 4-1 10 9 6 1-10zm26 69 7 17-7 6-7-16zm-4 8 5 11 3-3-5-12z"/><path d="m201 198 13 13-4 14-12-12zm1 5-1 9 8 9 2-9zm20 54 7 18-7 8-7-17zm-4 9 5 12 3-4-5-12zm-13-9 8 15-4 5-7-13zm0 5-1 2 5 9 1-2z"/><path d="m218 233 10 18-7 11-8-17zm1 6-4 6 7 12 3-6zm-56-20 12 2-2 11-11-2zm2 3-1 6 7 1 1-6z"/><path d="m171 228 11 5v10l-11-5zm2 4 1 5 6 2v-4zm-9-23 13 2-3 12-12-2zm2 2-1 8 7 1 2-7zm31 35 10 13-4 8-8-12zm1 6-1 2 6 8 1-3z"/><path d="m177 199 13 5-3 14-13-6zm1 3-1 9 8 3 2-8zm2 30 11 8-1 9-11-7zm2 4v4l6 5v-4zm27 15 9 15-6 8-8-15zm-2 8 5 10 3-3-6-11z"/><path d="m189 238 10 11-2 8-10-10zm1 5v3l6 6v-3zm24 0 9 16-7 9-8-15zm-3 10 5 11 4-5-6-11z"/><path d="m209 221 11 15-6 12-10-15zm1 5-3 7 7 10 3-7zm-38-6 12 5-2 11-11-5zm2 3-1 7 7 3 2-6zm14-20 13 9-4 13-12-8zm1 4-2 9 8 6 3-9z"/><path d="m175 210 12 6-3 12-12-6zm1 3-1 8 7 3 2-7zm23-3 12 13-5 12-11-11zm1 5-3 8 8 8 3-8zm1 24 10 14-6 8-9-12zm0 5-2 5 6 8 3-4z"/><path d="m205 231 10 14-6 10-9-13zm1 5-3 6 6 9 4-6zm-24-12 12 8-4 10-10-7zm2 4-2 6 7 5 2-6z"/><path d="m192 230 11 12-5 9-10-10zm1 5-2 5 6 7 3-5z"/><path d="m185 214 12 9-4 12-11-9zm1 4-2 7 8 6 2-7z"/><path d="m195 221 12 12-6 11-10-11zm1 5-2 6 7 8 3-7z"/></g></g><defs><linearGradient id="J" x1="-29.4" x2="374.9" y1="-172.2" y2="512.8" gradientUnits="userSpaceOnUse"><stop offset=".3" stop-color="#2e6c49"/><stop offset="1" stop-color="#468949"/></linearGradient><linearGradient id="L" x1="531.4" x2="6.1" y1="519.9" y2="-4.3" gradientUnits="userSpaceOnUse"><stop offset=".3" stop-color="#2e6c49"/><stop offset="1" stop-color="#468949"/></linearGradient><path id="K" d="M256 501a244 244 0 1 0 0-489 244 244 0 0 0 0 489m0 12a256 256 0 1 0 0-512 256 256 0 0 0 0 512"/></defs></svg></g><defs><linearGradient id="b" x1="89.53" x2="-825.17" y1="68.3" y2="-779.228" gradientUnits="userSpaceOnUse"><stop stop-color="#B6509E"/><stop offset="1" stop-color="#2EBAC6"/></linearGradient><linearGradient id="c" x1="128.494" x2="-821.333" y1="88.03" y2="-890.21" gradientUnits="userSpaceOnUse"><stop stop-color="#B6509E"/><stop offset="1" stop-color="#2EBAC6"/></linearGradient><linearGradient id="d" x1="208.381" x2="-798.122" y1="123.642" y2="-1059.46" gradientUnits="userSpaceOnUse"><stop stop-color="#B6509E"/><stop offset="1" stop-color="#2EBAC6"/></linearGradient><linearGradient id="e" x1="97.496" x2="-879.277" y1="92.507" y2="-598.994" gradientUnits="userSpaceOnUse"><stop stop-color="#B6509E"/><stop offset="1" stop-color="#2EBAC6"/></linearGradient><linearGradient id="f" x1="78.258" x2="-846.56" y1="70.379" y2="-650.515" gradientUnits="userSpaceOnUse"><stop stop-color="#B6509E"/><stop offset="1" stop-color="#2EBAC6"/></linearGradient><linearGradient id="g" x1="75.026" x2="-829.603" y1="62.533" y2="-702.513" gradientUnits="userSpaceOnUse"><stop stop-color="#B6509E"/><stop offset="1" stop-color="#2EBAC6"/></linearGradient><linearGradient id="h" x1="262.521" x2="-1053.41" y1="317.895" y2="-374.189" gradientUnits="userSpaceOnUse"><stop stop-color="#B6509E"/><stop offset="1" stop-color="#2EBAC6"/></linearGradient><linearGradient id="i" x1="189.598" x2="-1025.6" y1="215.72" y2="-471.757" gradientUnits="userSpaceOnUse"><stop stop-color="#B6509E"/><stop offset="1" stop-color="#2EBAC6"/></linearGradient><linearGradient id="j" x1="133.663" x2="-930.647" y1="135.723" y2="-551.282" gradientUnits="userSpaceOnUse"><stop stop-color="#B6509E"/><stop offset="1" stop-color="#2EBAC6"/></linearGradient><linearGradient id="k" x1="438.358" x2="-505.593" y1="383.608" y2="-318.594" gradientUnits="userSpaceOnUse"><stop stop-color="#B6509E"/><stop offset="1" stop-color="#2EBAC6"/></linearGradient><linearGradient id="l" x1="367.884" x2="-644.885" y1="352.282" y2="-333.003" gradientUnits="userSpaceOnUse"><stop stop-color="#B6509E"/><stop offset="1" stop-color="#2EBAC6"/></linearGradient><linearGradient id="m" x1="310.913" x2="-819.374" y1="330.087" y2="-355.394" gradientUnits="userSpaceOnUse"><stop stop-color="#B6509E"/><stop offset="1" stop-color="#2EBAC6"/></linearGradient><linearGradient id="n" x1="796.792" x2="-129.901" y1="536.642" y2="-367.096" gradientUnits="userSpaceOnUse"><stop stop-color="#B6509E"/><stop offset="1" stop-color="#2EBAC6"/></linearGradient><linearGradient id="o" x1="640.69" x2="-263.86" y1="473.543" y2="-328.827" gradientUnits="userSpaceOnUse"><stop stop-color="#B6509E"/><stop offset="1" stop-color="#2EBAC6"/></linearGradient><linearGradient id="p" x1="527.908" x2="-382.812" y1="424.179" y2="-316.503" gradientUnits="userSpaceOnUse"><stop stop-color="#B6509E"/><stop offset="1" stop-color="#2EBAC6"/></linearGradient><linearGradient id="q" x1="1168.67" x2="194.923" y1="698.93" y2="-373.582" gradientUnits="userSpaceOnUse"><stop stop-color="#B6509E"/><stop offset="1" stop-color="#2EBAC6"/></linearGradient><linearGradient id="r" x1="1359.4" x2="349.59" y1="702.843" y2="-584.24" gradientUnits="userSpaceOnUse"><stop stop-color="#B6509E"/><stop offset="1" stop-color="#2EBAC6"/></linearGradient><linearGradient id="s" x1="1029.35" x2="55.146" y1="617.607" y2="-450.02" gradientUnits="userSpaceOnUse"><stop stop-color="#B6509E"/><stop offset="1" stop-color="#2EBAC6"/></linearGradient><linearGradient id="t" x1="874.387" x2="-38.877" y1="702.532" y2="-37.617" gradientUnits="userSpaceOnUse"><stop stop-color="#B6509E"/><stop offset="1" stop-color="#2EBAC6"/></linearGradient><linearGradient id="u" x1="933.728" x2="28.774" y1="687.088" y2="-118.691" gradientUnits="userSpaceOnUse"><stop stop-color="#B6509E"/><stop offset="1" stop-color="#2EBAC6"/></linearGradient><linearGradient id="v" x1="1019.51" x2="92.815" y1="686.801" y2="-216.936" gradientUnits="userSpaceOnUse"><stop stop-color="#B6509E"/><stop offset="1" stop-color="#2EBAC6"/></linearGradient><linearGradient id="w" x1="812.862" x2="-319.316" y1="861.405" y2="172.282" gradientUnits="userSpaceOnUse"><stop stop-color="#B6509E"/><stop offset="1" stop-color="#2EBAC6"/></linearGradient><linearGradient id="x" x1="813.991" x2="-201.396" y1="781.595" y2="97.365" gradientUnits="userSpaceOnUse"><stop stop-color="#B6509E"/><stop offset="1" stop-color="#2EBAC6"/></linearGradient><linearGradient id="y" x1="837.936" x2="-109.46" y1="731.376" y2="26.812" gradientUnits="userSpaceOnUse"><stop stop-color="#B6509E"/><stop offset="1" stop-color="#2EBAC6"/></linearGradient><linearGradient id="z" x1="606.97" x2="-460.098" y1="612.111" y2="-73.641" gradientUnits="userSpaceOnUse"><stop stop-color="#B6509E"/><stop offset="1" stop-color="#2EBAC6"/></linearGradient><linearGradient id="A" x1="717.133" x2="-498.065" y1="817.847" y2="130.371" gradientUnits="userSpaceOnUse"><stop stop-color="#B6509E"/><stop offset="1" stop-color="#2EBAC6"/></linearGradient><linearGradient id="B" x1="820.019" x2="-495.907" y1="1001.94" y2="309.858" gradientUnits="userSpaceOnUse"><stop stop-color="#B6509E"/><stop offset="1" stop-color="#2EBAC6"/></linearGradient><linearGradient id="C" x1="394.545" x2="-513.251" y1="308.62" y2="-459.241" gradientUnits="userSpaceOnUse"><stop stop-color="#B6509E"/><stop offset="1" stop-color="#2EBAC6"/></linearGradient><linearGradient id="D" x1="450.145" x2="-473.882" y1="380.09" y2="-337.685" gradientUnits="userSpaceOnUse"><stop stop-color="#B6509E"/><stop offset="1" stop-color="#2EBAC6"/></linearGradient><linearGradient id="E" x1="518.793" x2="-455.432" y1="475.886" y2="-216.507" gradientUnits="userSpaceOnUse"><stop stop-color="#B6509E"/><stop offset="1" stop-color="#2EBAC6"/></linearGradient><linearGradient id="F" x1="285.61" x2="-719.969" y1="167.357" y2="-1021.33" gradientUnits="userSpaceOnUse"><stop stop-color="#B6509E"/><stop offset="1" stop-color="#2EBAC6"/></linearGradient><linearGradient id="G" x1="310.89" x2="-638.94" y1="204.963" y2="-773.277" gradientUnits="userSpaceOnUse"><stop stop-color="#B6509E"/><stop offset="1" stop-color="#2EBAC6"/></linearGradient><linearGradient id="H" x1="57.625" x2="16.161" y1="23.836" y2="-9.531" gradientUnits="userSpaceOnUse"><stop stop-color="#B6509E"/><stop offset="1" stop-color="#2EBAC6"/></linearGradient><clipPath id="I"><circle cx="24" cy="24" r="21"/></clipPath><clipPath id="a"><path fill="#fff" d="M0 0h48v48H0z"/></clipPath></defs></svg>