<svg xmlns="http://www.w3.org/2000/svg" width="48" height="48" fill="none" viewBox="0 0 48 48"><g clip-path="url(#clip0_85_112)"><path fill="url(#paint0_linear_85_112)" fill-rule="evenodd" d="m45.884 33.858-1.41-.64c-.36.71-.65 1.45-1.1 2.11l1.34.78c.47-.7.79-1.49 1.17-2.25" clip-rule="evenodd"/><path fill="url(#paint1_linear_85_112)" fill-rule="evenodd" d="m47.344 29.539-1.51-.36c-.2.77-.36 1.55-.67 2.28l1.46.51c.33-.78.51-1.61.72-2.43" clip-rule="evenodd"/><path fill="url(#paint2_linear_85_112)" fill-rule="evenodd" d="m47.964 25.04-1.55-.07-.06 1.19c-.03.4-.11.79-.17 1.18l1.53.23c.06-.42.14-.84.18-1.26z" clip-rule="evenodd"/><path fill="url(#paint3_linear_85_112)" fill-rule="evenodd" d="m35.217 43.445-.51.31-.54.26.71 1.38.57-.28.55-.33 1.08-.66-.84-1.29z" clip-rule="evenodd"/><path fill="url(#paint4_linear_85_112)" fill-rule="evenodd" d="m40.646 41.286-1.07-1.12-.88.8c-.15.13-.29.27-.44.4l-.48.36.95 1.22.51-.38c.16-.14.32-.28.47-.42z" clip-rule="evenodd"/><path fill="url(#paint5_linear_85_112)" fill-rule="evenodd" d="m43.605 37.837-1.27-.89c-.49.62-.92 1.3-1.48 1.87l1.16 1.02c.61-.61 1.07-1.33 1.59-2" clip-rule="evenodd"/><path fill="url(#paint6_linear_85_112)" fill-rule="evenodd" d="m24.12 48.014-.01-1.55c-.79-.02-1.59-.08-2.38-.11l-.15 1.54c.84.05 1.69.11 2.54.12" clip-rule="evenodd"/><path fill="url(#paint7_linear_85_112)" fill-rule="evenodd" d="m28.659 47.564-.3-1.52c-.79.1-1.57.27-2.36.33l.14 1.54c.84-.07 1.68-.24 2.52-.35" clip-rule="evenodd"/><path fill="url(#paint8_linear_85_112)" fill-rule="evenodd" d="m33.008 46.254-.58-1.44-1.12.41-.56.21c-.19.07-.38.1-.57.16l.43 1.49c.2-.06.41-.1.61-.17l.6-.22z" clip-rule="evenodd"/><path fill="url(#paint9_linear_85_112)" fill-rule="evenodd" d="m11.444 42.645-.48-.35-.95-.72-.97 1.22 1.53 1.14.55.33.83-1.31z" clip-rule="evenodd"/><path fill="url(#paint10_linear_85_112)" fill-rule="evenodd" d="m15.183 46.334.57-1.44c-.19-.07-.38-.13-.56-.21l-.54-.26-1.07-.519-.72 1.37 1.15.55.57.28c.2.09.4.15.6.23" clip-rule="evenodd"/><path fill="url(#paint11_linear_85_112)" fill-rule="evenodd" d="m19.551 47.594.29-1.52c-.4-.04-.78-.17-1.16-.26l-1.149-.3-.45 1.48 1.23.32c.41.1.81.24 1.24.28" clip-rule="evenodd"/><path fill="url(#paint12_linear_85_112)" fill-rule="evenodd" d="m2.206 34.088 1.41-.65c-.38-.7-.6-1.47-.89-2.21l-1.47.5c.31.79.55 1.61.95 2.36" clip-rule="evenodd"/><path fill="url(#paint13_linear_85_112)" fill-rule="evenodd" d="m4.516 38.027 1.26-.91c-.51-.61-.86-1.33-1.29-2l-1.35.77c.45.72.84 1.48 1.38 2.14" clip-rule="evenodd"/><path fill="url(#paint14_linear_85_112)" fill-rule="evenodd" d="m7.505 41.446 1.06-1.13-.44-.4c-.14-.14-.27-.29-.4-.44l-.8-.88-1.18 1.01.86.94c.14.16.28.32.43.47z" clip-rule="evenodd"/><path fill="url(#paint15_linear_85_112)" fill-rule="evenodd" d="m.217 20.712 1.53.21.18-1.18c.04-.4.18-.77.27-1.16l-1.5-.37c-.09.41-.24.82-.29 1.24z" clip-rule="evenodd"/><path fill="url(#paint16_linear_85_112)" fill-rule="evenodd" d="m.027 22.72-.06 1.27.06 1.28 1.55-.08-.06-1.2.06-1.19z" clip-rule="evenodd"/><path fill="url(#paint17_linear_85_112)" fill-rule="evenodd" d="m.687 29.759 1.5-.37c-.23-.76-.33-1.55-.45-2.34l-1.54.21c.15.84.25 1.68.49 2.5" clip-rule="evenodd"/><path fill="url(#paint18_linear_85_112)" fill-rule="evenodd" d="m5.765 8.375 1.18 1.01.8-.88c.14-.15.26-.3.4-.44l.44-.4-1.06-1.12-.47.43c-.15.15-.29.31-.43.47z" clip-rule="evenodd"/><path fill="url(#paint19_linear_85_112)" fill-rule="evenodd" d="m3.136 12.104 1.34.77c.43-.67.79-1.38 1.29-2l-1.26-.91c-.53.66-.91 1.42-1.37 2.14" clip-rule="evenodd"/><path fill="url(#paint20_linear_85_112)" fill-rule="evenodd" d="m1.266 16.243 1.47.5c.28-.74.51-1.51.89-2.21l-1.4-.65c-.41.76-.66 1.57-.96 2.36" clip-rule="evenodd"/><path fill="url(#paint21_linear_85_112)" fill-rule="evenodd" d="m17.102.997.44 1.48 1.15-.3c.39-.09.77-.22 1.16-.26l-.28-1.52c-.42.05-.83.17-1.24.27z" clip-rule="evenodd"/><path fill="url(#paint22_linear_85_112)" fill-rule="evenodd" d="m12.873 2.716.72 1.37 1.07-.52.54-.26c.18-.08.37-.14.56-.21l-.57-1.43c-.2.07-.4.14-.6.22l-.57.28z" clip-rule="evenodd"/><path fill="url(#paint23_linear_85_112)" fill-rule="evenodd" d="m9.064 5.196.96 1.21.95-.71c.16-.12.32-.24.48-.35l.51-.31-.83-1.31-.54.33c-.18.12-.34.25-.51.38z" clip-rule="evenodd"/><path fill="url(#paint24_linear_85_112)" fill-rule="evenodd" d="m30.628.927-.43 1.49c.39.08.76.22 1.13.36l1.12.41.58-1.43-1.2-.44c-.38-.15-.78-.3-1.2-.39" clip-rule="evenodd"/><path fill="url(#paint25_linear_85_112)" fill-rule="evenodd" d="m26.15.087-.14 1.54c.79.06 1.57.23 2.359.33l.3-1.52c-.84-.11-1.68-.28-2.52-.35" clip-rule="evenodd"/><path fill="url(#paint26_linear_85_112)" fill-rule="evenodd" d="m21.6.097.15 1.54c.79-.03 1.59-.09 2.38-.11l.01-1.55c-.84.02-1.69.08-2.54.12" clip-rule="evenodd"/><path fill="url(#paint27_linear_85_112)" fill-rule="evenodd" d="m42.045 8.185-1.17 1.02.4.44c.13.15.24.32.36.47l.71.95 1.27-.89-.76-1.02c-.13-.17-.25-.34-.39-.5z" clip-rule="evenodd"/><path fill="url(#paint28_linear_85_112)" fill-rule="evenodd" d="m38.726 5.056-.95 1.22.48.36c.15.13.29.27.44.4l.88.799 1.08-1.12-.94-.86c-.16-.14-.31-.29-.47-.42z" clip-rule="evenodd"/><path fill="url(#paint29_linear_85_112)" fill-rule="evenodd" d="m34.727 4.256 1.53.93.85-1.3-1.09-.66-.55-.33-.57-.28-.7 1.38z" clip-rule="evenodd"/><path fill="url(#paint30_linear_85_112)" fill-rule="evenodd" d="m47.724 20.462-1.53.23c.05.39.14.78.16 1.18l.06 1.189 1.55-.06-.06-1.27c-.04-.44-.12-.85-.18-1.27" clip-rule="evenodd"/><path fill="url(#paint31_linear_85_112)" fill-rule="evenodd" d="m46.634 16.033-1.46.51c.31.73.47 1.52.67 2.279l1.51-.36c-.22-.81-.4-1.64-.72-2.43" clip-rule="evenodd"/><path fill="url(#paint32_linear_85_112)" fill-rule="evenodd" d="m44.724 11.914-1.34.78c.45.66.73 1.41 1.09 2.11l1.41-.64c-.37-.75-.69-1.55-1.16-2.25" clip-rule="evenodd"/></g><g clip-path="url(#circleClip)"><svg xmlns="http://www.w3.org/2000/svg" width="48" height="48" viewBox="0 0 256 256"><defs><linearGradient id="prefix__linear-gradient" x1=".636" x2=".997" y1=".506" y2=".764" gradientUnits="objectBoundingBox"><stop offset="0" stop-color="#5a27ed"/><stop offset="1" stop-color="#ab37f4"/></linearGradient><linearGradient id="prefix__linear-gradient-2" x1=".039" x2=".877" y1=".245" y2=".957" gradientUnits="objectBoundingBox"><stop offset="0" stop-color="#7618f4"/><stop offset=".504" stop-color="#575ff8"/><stop offset="1" stop-color="#09ffff"/></linearGradient><linearGradient id="prefix__linear-gradient-3" x1=".17" x2=".918" y1=".498" y2=".744" gradientUnits="objectBoundingBox"><stop offset="0" stop-color="#7f4cff"/><stop offset="1" stop-color="#3095ff"/></linearGradient><linearGradient id="prefix__linear-gradient-4" x1=".14" x2=".791" y1=".056" y2="1.241" gradientUnits="objectBoundingBox"><stop offset="0" stop-color="#7f52ff"/><stop offset="1" stop-color="#3096ff"/></linearGradient><linearGradient id="prefix__linear-gradient-5" x1=".81" x2=".575" y1=".81" y2=".511" gradientUnits="objectBoundingBox"><stop offset="0" stop-color="#fff"/><stop offset=".157" stop-color="#fbffff"/><stop offset=".319" stop-color="#efffff"/><stop offset=".483" stop-color="#daffff"/><stop offset=".648" stop-color="#bdfffe"/><stop offset=".814" stop-color="#98fffe"/><stop offset=".979" stop-color="#6bfffd"/><stop offset="1" stop-color="#65fffd"/></linearGradient><linearGradient id="prefix__linear-gradient-6" x1=".126" x2=".692" y1=".992" y2="-.06" gradientUnits="objectBoundingBox"><stop offset="0" stop-color="#fff" stop-opacity="0"/><stop offset=".515" stop-color="#e6ffff"/><stop offset="1" stop-color="#ceffff" stop-opacity=".502"/></linearGradient><linearGradient id="prefix__linear-gradient-7" x2="1" y1=".5" y2=".5" gradientUnits="objectBoundingBox"><stop offset="0" stop-color="#fff"/><stop offset=".867" stop-color="#fff" stop-opacity=".306"/><stop offset="1" stop-color="#fff" stop-opacity=".2"/></linearGradient><radialGradient id="prefix__radial-gradient" cx=".197" cy=".16" r=".555" gradientUnits="objectBoundingBox"><stop offset="0" stop-color="#7ff"/><stop offset=".394" stop-color="#87e4ff"/><stop offset=".861" stop-color="#6273ff"/><stop offset="1" stop-color="#9468ff"/></radialGradient><radialGradient id="prefix__radial-gradient-2" cx=".502" cy=".478" r=".554" gradientTransform="matrix(.819 -.106 .101 1.15 .031 -.033)" gradientUnits="objectBoundingBox"><stop offset=".497" stop-color="#0ff"/><stop offset="1" stop-color="#00f4ff" stop-opacity="0"/></radialGradient><clipPath id="prefix__clip-path"><circle id="prefix__Ellipse_1482" cx="119.514" cy="119.514" r="119.514" data-name="Ellipse 1482" transform="rotate(-4.226 238.728 8.808)"/></clipPath><style>.prefix__cls-5{fill:#fff}</style></defs><g id="prefix__Group_27940" data-name="Group 27940" transform="translate(2459 19192)"><g id="prefix__图层_1" transform="translate(-2459 -19192)"><g id="prefix__Group_27939" data-name="Group 27939"><g id="prefix__Group_27938" data-name="Group 27938"><g id="prefix__Group_27936" data-name="Group 27936"><g id="prefix__Group_27935" data-name="Group 27935"><path id="prefix__Path_10164" fill="url(#prefix__radial-gradient)" d="M478.5 533.344A119.514 119.514 0 1 1 358.984 413.83 119.513 119.513 0 0 1 478.5 533.344" data-name="Path 10164" transform="translate(-230.979 -405.366)"/><g id="prefix__Group_27933" data-name="Group 27933"><g id="prefix__Group_27932" clip-path="url(#prefix__clip-path)" data-name="Group 27932"><path id="prefix__Path_10165" fill="url(#prefix__radial-gradient-2)" d="M450.72 537.479c16.465 15.977 29 35.959 31.54 59.866 5.591 52.641-35.353 100.139-91.452 106.1S284.7 671.561 279.111 618.92s26.133-49.072 82.225-55.032c30.612-3.246 79.413-36.088 89.384-26.409" data-name="Path 10165" transform="translate(-244.297 -446.975)"/></g></g><path id="prefix__Path_10166" fill="url(#prefix__linear-gradient)" d="m455.792 526.742-.119-1.541H436.1l19.7-16.84-.033-.81a65.14 65.14 0 0 0-10.043-32.515l-.474-.9h-105.7c-9.984 0-29.38 3.089-43.618 19.014-6.21 6.942-19.514 27.786-19.343 51.166.1 13.159 1.376 23.387 6.342 34.833a106 106 0 0 0 8.41 15.8c10.03 17.993 20.963 30.519 32.495 37.237 9.767 5.684 18.414 6.454 25.593 6.454h59.912l.356-.2c.2-.1 19.8-10.346 37.5-21.1l.514-.31.2-.553c.059-.171.125-.336.184-.494a10 10 0 0 0 .389-1.047c2.18-6.243 4-19.666 4.88-27.088.356-2.707.56-4.485.56-4.5l.224-1.857h-.072l.151-1.5h-20.91l22.418-16.979.066-.744c1.367-16.513-.001-35.335-.009-35.526" data-name="Path 10166" transform="translate(-243.651 -425.957)"/><g id="prefix__Group_27934" data-name="Group 27934" transform="translate(35.065 49.876)"><path id="prefix__Path_10167" d="M374.866 658.688s-19.633 1.89-77.516-13.218c23.617 46.062 45.733 48.571 62.191 48.571h56.171s18.658-10.116 36.361-20.864z" class="prefix__cls-5" data-name="Path 10167" transform="translate(-285.805 -534.326)"/><path id="prefix__Path_10168" fill="url(#prefix__linear-gradient-2)" d="M360.892 693.493c-7.093 0-17.051.059-26.93-6.382-17.183-11.2-22.853-20.028-32.673-38.521 44.126 11.328 65.293 12.586 72.425 12.586 1.3 0 2.088-.046 2.437-.072l76.212 12.355c-15.615 9.332-34.043 18.928-36.163 20.041h-55.308z" data-name="Path 10168" transform="translate(-287.15 -535.391)"/><path id="prefix__Path_10169" d="M331.813 583.851s-9.49-11-12.8-19.356l107.357 19.356 27.516-20.838c-.033-17.09-.105-33.443-.105-33.443H319.017s4.762-13.653 13.343-19.079l98.3 18.362 23.2-19.843c-.935-18.664-9.872-30.038-9.872-30.038H340.243c-9.056 0-27.562 2-41.5 17.584s-26.357 50.323-12.994 82.686c13.574 32.87 31.191 37.092 41.149 37.092h119.266c.165-.481.4-.929.56-1.488 2.871-9.708 5.328-30.987 5.328-30.987H331.813z" class="prefix__cls-5" data-name="Path 10169" transform="translate(-279.89 -477.482)"/><path id="prefix__Path_10170" fill="url(#prefix__linear-gradient-3)" d="M376.256 495.64s-38.745 7.554-40.635 8.5-9.451 34.965-9.451 34.965H438.7l28.856-24.405z" data-name="Path 10170" transform="translate(-295.644 -483.173)"/><path id="prefix__Path_10171" fill="url(#prefix__linear-gradient-4)" d="M377.379 577.64s-38.745 7.561-40.628 8.509-9.451 34.958-9.451 34.958h108.378l33.122-25.013z" data-name="Path 10171" transform="translate(-296.03 -511.168)"/><path id="prefix__Path_10172" fill="url(#prefix__linear-gradient-5)" d="M453.82 562.241H319.052c3.306 8.364 12.8 19.356 12.8 19.356h120.242s-2.364 23.729-5.433 32.469h-116.2c-14.812 0-30.736-4.959-44.672-37.085s-.942-67.1 12.994-82.686 32.442-17.584 41.491-17.584h103.752s8.983 12.395 9.767 31.527H332.4c-8.581 5.433-13.35 19.079-13.35 19.079h134.763a257 257 0 0 1 .007 34.924" data-name="Path 10172" transform="translate(-279.82 -476.71)"/></g></g><path id="prefix__Path_10173" fill="url(#prefix__linear-gradient-6)" d="M429.78 454.607s-46.878-18.6-89.186 5.328c-37.079 20.976-79.136 54.5-47.9 123.308-28.221-40.266-28.524-72.985-6.362-107.265 20.95-32.402 82.613-61.947 143.448-21.371" data-name="Path 10173" transform="translate(-241.586 -412.555)"/></g><g id="prefix__Group_27937" data-name="Group 27937" transform="translate(8.49 8.424)"><path id="prefix__Path_10174" fill="url(#prefix__linear-gradient-7)" d="M358.878 413.77a120.086 120.086 0 0 0-114.864 152.813s-.053-1.153-.119-3.253c-.382-12.493 1.232-58.457 24.691-54.452s57.8 10.952 98.433-.25 73.018-49.2 52.147-78.537c.006-.001-24.434-16.321-60.288-16.321" data-name="Path 10174" opacity=".4" transform="translate(-239.468 -413.77)"/></g><path id="prefix__Path_10175" d="M366.652 471.774c2.911 7.409-7.027 16.28-19.475 18.994s-24.994-1.357-27.193-9c-3.491-12.138 8.614-16.458 21.062-19.165s19.754-5.733 25.606 9.171" class="prefix__cls-5" data-name="Path 10175" transform="translate(-258.259 -421.253)"/></g></g></g></g></svg></g><defs><linearGradient id="paint0_linear_85_112" x1="89.53" x2="-825.17" y1="68.3" y2="-779.228" gradientUnits="userSpaceOnUse"><stop stop-color="#B6509E"/><stop offset="1" stop-color="#2EBAC6"/></linearGradient><linearGradient id="paint1_linear_85_112" x1="128.494" x2="-821.333" y1="88.03" y2="-890.21" gradientUnits="userSpaceOnUse"><stop stop-color="#B6509E"/><stop offset="1" stop-color="#2EBAC6"/></linearGradient><linearGradient id="paint2_linear_85_112" x1="208.381" x2="-798.122" y1="123.642" y2="-1059.46" gradientUnits="userSpaceOnUse"><stop stop-color="#B6509E"/><stop offset="1" stop-color="#2EBAC6"/></linearGradient><linearGradient id="paint3_linear_85_112" x1="97.496" x2="-879.277" y1="92.507" y2="-598.994" gradientUnits="userSpaceOnUse"><stop stop-color="#B6509E"/><stop offset="1" stop-color="#2EBAC6"/></linearGradient><linearGradient id="paint4_linear_85_112" x1="78.258" x2="-846.56" y1="70.379" y2="-650.515" gradientUnits="userSpaceOnUse"><stop stop-color="#B6509E"/><stop offset="1" stop-color="#2EBAC6"/></linearGradient><linearGradient id="paint5_linear_85_112" x1="75.026" x2="-829.603" y1="62.533" y2="-702.513" gradientUnits="userSpaceOnUse"><stop stop-color="#B6509E"/><stop offset="1" stop-color="#2EBAC6"/></linearGradient><linearGradient id="paint6_linear_85_112" x1="262.521" x2="-1053.41" y1="317.895" y2="-374.189" gradientUnits="userSpaceOnUse"><stop stop-color="#B6509E"/><stop offset="1" stop-color="#2EBAC6"/></linearGradient><linearGradient id="paint7_linear_85_112" x1="189.598" x2="-1025.6" y1="215.72" y2="-471.757" gradientUnits="userSpaceOnUse"><stop stop-color="#B6509E"/><stop offset="1" stop-color="#2EBAC6"/></linearGradient><linearGradient id="paint8_linear_85_112" x1="133.663" x2="-930.647" y1="135.723" y2="-551.282" gradientUnits="userSpaceOnUse"><stop stop-color="#B6509E"/><stop offset="1" stop-color="#2EBAC6"/></linearGradient><linearGradient id="paint9_linear_85_112" x1="438.358" x2="-505.593" y1="383.608" y2="-318.594" gradientUnits="userSpaceOnUse"><stop stop-color="#B6509E"/><stop offset="1" stop-color="#2EBAC6"/></linearGradient><linearGradient id="paint10_linear_85_112" x1="367.884" x2="-644.885" y1="352.282" y2="-333.003" gradientUnits="userSpaceOnUse"><stop stop-color="#B6509E"/><stop offset="1" stop-color="#2EBAC6"/></linearGradient><linearGradient id="paint11_linear_85_112" x1="310.913" x2="-819.374" y1="330.087" y2="-355.394" gradientUnits="userSpaceOnUse"><stop stop-color="#B6509E"/><stop offset="1" stop-color="#2EBAC6"/></linearGradient><linearGradient id="paint12_linear_85_112" x1="796.792" x2="-129.901" y1="536.642" y2="-367.096" gradientUnits="userSpaceOnUse"><stop stop-color="#B6509E"/><stop offset="1" stop-color="#2EBAC6"/></linearGradient><linearGradient id="paint13_linear_85_112" x1="640.69" x2="-263.86" y1="473.543" y2="-328.827" gradientUnits="userSpaceOnUse"><stop stop-color="#B6509E"/><stop offset="1" stop-color="#2EBAC6"/></linearGradient><linearGradient id="paint14_linear_85_112" x1="527.908" x2="-382.812" y1="424.179" y2="-316.503" gradientUnits="userSpaceOnUse"><stop stop-color="#B6509E"/><stop offset="1" stop-color="#2EBAC6"/></linearGradient><linearGradient id="paint15_linear_85_112" x1="1168.67" x2="194.923" y1="698.93" y2="-373.582" gradientUnits="userSpaceOnUse"><stop stop-color="#B6509E"/><stop offset="1" stop-color="#2EBAC6"/></linearGradient><linearGradient id="paint16_linear_85_112" x1="1359.4" x2="349.59" y1="702.843" y2="-584.24" gradientUnits="userSpaceOnUse"><stop stop-color="#B6509E"/><stop offset="1" stop-color="#2EBAC6"/></linearGradient><linearGradient id="paint17_linear_85_112" x1="1029.35" x2="55.146" y1="617.607" y2="-450.02" gradientUnits="userSpaceOnUse"><stop stop-color="#B6509E"/><stop offset="1" stop-color="#2EBAC6"/></linearGradient><linearGradient id="paint18_linear_85_112" x1="874.387" x2="-38.877" y1="702.532" y2="-37.617" gradientUnits="userSpaceOnUse"><stop stop-color="#B6509E"/><stop offset="1" stop-color="#2EBAC6"/></linearGradient><linearGradient id="paint19_linear_85_112" x1="933.728" x2="28.774" y1="687.088" y2="-118.691" gradientUnits="userSpaceOnUse"><stop stop-color="#B6509E"/><stop offset="1" stop-color="#2EBAC6"/></linearGradient><linearGradient id="paint20_linear_85_112" x1="1019.51" x2="92.815" y1="686.801" y2="-216.936" gradientUnits="userSpaceOnUse"><stop stop-color="#B6509E"/><stop offset="1" stop-color="#2EBAC6"/></linearGradient><linearGradient id="paint21_linear_85_112" x1="812.862" x2="-319.316" y1="861.405" y2="172.282" gradientUnits="userSpaceOnUse"><stop stop-color="#B6509E"/><stop offset="1" stop-color="#2EBAC6"/></linearGradient><linearGradient id="paint22_linear_85_112" x1="813.991" x2="-201.396" y1="781.595" y2="97.365" gradientUnits="userSpaceOnUse"><stop stop-color="#B6509E"/><stop offset="1" stop-color="#2EBAC6"/></linearGradient><linearGradient id="paint23_linear_85_112" x1="837.936" x2="-109.46" y1="731.376" y2="26.812" gradientUnits="userSpaceOnUse"><stop stop-color="#B6509E"/><stop offset="1" stop-color="#2EBAC6"/></linearGradient><linearGradient id="paint24_linear_85_112" x1="606.97" x2="-460.098" y1="612.111" y2="-73.641" gradientUnits="userSpaceOnUse"><stop stop-color="#B6509E"/><stop offset="1" stop-color="#2EBAC6"/></linearGradient><linearGradient id="paint25_linear_85_112" x1="717.133" x2="-498.065" y1="817.847" y2="130.371" gradientUnits="userSpaceOnUse"><stop stop-color="#B6509E"/><stop offset="1" stop-color="#2EBAC6"/></linearGradient><linearGradient id="paint26_linear_85_112" x1="820.019" x2="-495.907" y1="1001.94" y2="309.858" gradientUnits="userSpaceOnUse"><stop stop-color="#B6509E"/><stop offset="1" stop-color="#2EBAC6"/></linearGradient><linearGradient id="paint27_linear_85_112" x1="394.545" x2="-513.251" y1="308.62" y2="-459.241" gradientUnits="userSpaceOnUse"><stop stop-color="#B6509E"/><stop offset="1" stop-color="#2EBAC6"/></linearGradient><linearGradient id="paint28_linear_85_112" x1="450.145" x2="-473.882" y1="380.09" y2="-337.685" gradientUnits="userSpaceOnUse"><stop stop-color="#B6509E"/><stop offset="1" stop-color="#2EBAC6"/></linearGradient><linearGradient id="paint29_linear_85_112" x1="518.793" x2="-455.432" y1="475.886" y2="-216.507" gradientUnits="userSpaceOnUse"><stop stop-color="#B6509E"/><stop offset="1" stop-color="#2EBAC6"/></linearGradient><linearGradient id="paint30_linear_85_112" x1="285.61" x2="-719.969" y1="167.357" y2="-1021.33" gradientUnits="userSpaceOnUse"><stop stop-color="#B6509E"/><stop offset="1" stop-color="#2EBAC6"/></linearGradient><linearGradient id="paint31_linear_85_112" x1="310.89" x2="-638.94" y1="204.963" y2="-773.277" gradientUnits="userSpaceOnUse"><stop stop-color="#B6509E"/><stop offset="1" stop-color="#2EBAC6"/></linearGradient><linearGradient id="paint32_linear_85_112" x1="57.625" x2="16.161" y1="23.836" y2="-9.531" gradientUnits="userSpaceOnUse"><stop stop-color="#B6509E"/><stop offset="1" stop-color="#2EBAC6"/></linearGradient><clipPath id="circleClip"><circle cx="24" cy="24" r="21"/></clipPath><clipPath id="clip0_85_112"><path fill="#fff" d="M0 0h48v48H0z"/></clipPath></defs></svg>