<svg xmlns="http://www.w3.org/2000/svg" width="48" height="48" fill="none" viewBox="0 0 48 48"><g fill-rule="evenodd" clip-path="url(#a)" clip-rule="evenodd"><path fill="url(#b)" d="m45.884 33.858-1.41-.64c-.36.71-.65 1.45-1.1 2.11l1.34.78c.47-.7.79-1.49 1.17-2.25"/><path fill="url(#c)" d="m47.344 29.539-1.51-.36c-.2.77-.36 1.55-.67 2.28l1.46.51c.33-.78.51-1.61.72-2.43"/><path fill="url(#d)" d="m47.964 25.04-1.55-.07-.06 1.19c-.03.4-.11.79-.17 1.18l1.53.23c.06-.42.14-.84.18-1.26z"/><path fill="url(#e)" d="m35.217 43.445-.51.31-.54.26.71 1.38.57-.28.55-.33 1.08-.66-.84-1.29z"/><path fill="url(#f)" d="m40.646 41.286-1.07-1.12-.88.8c-.15.13-.29.27-.44.4l-.48.36.95 1.22.51-.38c.16-.14.32-.28.47-.42z"/><path fill="url(#g)" d="m43.605 37.837-1.27-.89c-.49.62-.92 1.3-1.48 1.87l1.16 1.02c.61-.61 1.07-1.33 1.59-2"/><path fill="url(#h)" d="m24.12 48.014-.01-1.55c-.79-.02-1.59-.08-2.38-.11l-.15 1.54c.84.05 1.69.11 2.54.12"/><path fill="url(#i)" d="m28.659 47.564-.3-1.52c-.79.1-1.57.27-2.36.33l.14 1.54c.84-.07 1.68-.24 2.52-.35"/><path fill="url(#j)" d="m33.008 46.254-.58-1.44-1.12.41-.56.21c-.19.07-.38.1-.57.16l.43 1.49c.2-.06.41-.1.61-.17l.6-.22z"/><path fill="url(#k)" d="m11.444 42.645-.48-.35-.95-.72-.97 1.22 1.53 1.14.55.33.83-1.31z"/><path fill="url(#l)" d="m15.183 46.334.57-1.44c-.19-.07-.38-.13-.56-.21l-.54-.26-1.07-.519-.72 1.37 1.15.55.57.28c.2.09.4.15.6.23"/><path fill="url(#m)" d="m19.551 47.594.29-1.52c-.4-.04-.78-.17-1.16-.26l-1.149-.3-.45 1.48 1.23.32c.41.1.81.24 1.24.28"/><path fill="url(#n)" d="m2.206 34.088 1.41-.65c-.38-.7-.6-1.47-.89-2.21l-1.47.5c.31.79.55 1.61.95 2.36"/><path fill="url(#o)" d="m4.516 38.027 1.26-.91c-.51-.61-.86-1.33-1.29-2l-1.35.77c.45.72.84 1.48 1.38 2.14"/><path fill="url(#p)" d="m7.505 41.446 1.06-1.13-.44-.4c-.14-.14-.27-.29-.4-.44l-.8-.88-1.18 1.01.86.94c.14.16.28.32.43.47z"/><path fill="url(#q)" d="m.217 20.712 1.53.21.18-1.18c.04-.4.18-.77.27-1.16l-1.5-.37c-.09.41-.24.82-.29 1.24z"/><path fill="url(#r)" d="m.027 22.72-.06 1.27.06 1.28 1.55-.08-.06-1.2.06-1.19z"/><path fill="url(#s)" d="m.687 29.759 1.5-.37c-.23-.76-.33-1.55-.45-2.34l-1.54.21c.15.84.25 1.68.49 2.5"/><path fill="url(#t)" d="m5.765 8.375 1.18 1.01.8-.88c.14-.15.26-.3.4-.44l.44-.4-1.06-1.12-.47.43c-.15.15-.29.31-.43.47z"/><path fill="url(#u)" d="m3.136 12.104 1.34.77c.43-.67.79-1.38 1.29-2l-1.26-.91c-.53.66-.91 1.42-1.37 2.14"/><path fill="url(#v)" d="m1.266 16.243 1.47.5c.28-.74.51-1.51.89-2.21l-1.4-.65c-.41.76-.66 1.57-.96 2.36"/><path fill="url(#w)" d="m17.102.997.44 1.48 1.15-.3c.39-.09.77-.22 1.16-.26l-.28-1.52c-.42.05-.83.17-1.24.27z"/><path fill="url(#x)" d="m12.873 2.716.72 1.37 1.07-.52.54-.26c.18-.08.37-.14.56-.21l-.57-1.43c-.2.07-.4.14-.6.22l-.57.28z"/><path fill="url(#y)" d="m9.064 5.196.96 1.21.95-.71c.16-.12.32-.24.48-.35l.51-.31-.83-1.31-.54.33c-.18.12-.34.25-.51.38z"/><path fill="url(#z)" d="m30.628.927-.43 1.49c.39.08.76.22 1.13.36l1.12.41.58-1.43-1.2-.44c-.38-.15-.78-.3-1.2-.39"/><path fill="url(#A)" d="m26.15.087-.14 1.54c.79.06 1.57.23 2.359.33l.3-1.52c-.84-.11-1.68-.28-2.52-.35"/><path fill="url(#B)" d="m21.6.097.15 1.54c.79-.03 1.59-.09 2.38-.11l.01-1.55c-.84.02-1.69.08-2.54.12"/><path fill="url(#C)" d="m42.045 8.185-1.17 1.02.4.44c.13.15.24.32.36.47l.71.95 1.27-.89-.76-1.02c-.13-.17-.25-.34-.39-.5z"/><path fill="url(#D)" d="m38.726 5.056-.95 1.22.48.36c.15.13.29.27.44.4l.88.799 1.08-1.12-.94-.86c-.16-.14-.31-.29-.47-.42z"/><path fill="url(#E)" d="m34.727 4.256 1.53.93.85-1.3-1.09-.66-.55-.33-.57-.28-.7 1.38z"/><path fill="url(#F)" d="m47.724 20.462-1.53.23c.05.39.14.78.16 1.18l.06 1.189 1.55-.06-.06-1.27c-.04-.44-.12-.85-.18-1.27"/><path fill="url(#G)" d="m46.634 16.033-1.46.51c.31.73.47 1.52.67 2.279l1.51-.36c-.22-.81-.4-1.64-.72-2.43"/><path fill="url(#H)" d="m44.724 11.914-1.34.78c.45.66.73 1.41 1.09 2.11l1.41-.64c-.37-.75-.69-1.55-1.16-2.25"/></g><g clip-path="url(#I)"><svg xmlns="http://www.w3.org/2000/svg" width="48" height="48" viewBox="0 0 116 115"><g clip-path="url(#J)"><circle cx="57.764" cy="57.286" r="57.295" fill="url(#K)"/><path fill="#fff" d="M89.019 49.396 57.723 17.439 26.425 49.396l15.647 15.977 15.651-15.977 15.648 15.977z"/><path fill="#1F2333" d="M56.462 94.24q-2.334 0-4.016-.841-1.655-.868-2.55-2.442-.87-1.6-.869-3.771V74.867h3.582v12.427q0 1.737.977 2.74 1.004 1.005 2.876 1.004t2.849-1.004q1.005-1.003 1.004-2.74V74.867h3.581v12.319q0 2.17-.895 3.771-.869 1.574-2.55 2.442-1.656.84-3.99.841m15.624-.38V74.867h8.248q1.791 0 3.12.624t2.063 1.764.733 2.686v.325q0 1.71-.814 2.768a4.8 4.8 0 0 1-2.008 1.547v.488q1.085.055 1.682.76.597.678.597 1.818v6.213h-3.582v-5.698q0-.651-.352-1.058-.326-.407-1.113-.407h-4.993v7.163zm3.582-10.419h4.287q1.275 0 1.98-.678.733-.706.733-1.845v-.272q0-1.14-.706-1.818-.706-.705-2.007-.705h-4.287z"/><path fill="#1F2333" fill-rule="evenodd" d="M28.946 94.307V74.42H42.05v4.15h-8.628v3.637h7.868v4.15h-7.868v3.8h8.79v4.15zm23.296-.51-.004-.002c-1.176-.617-2.09-1.49-2.731-2.617l-.002-.004-.003-.004c-.62-1.144-.922-2.477-.922-3.984V74.42h4.476v12.874c0 1.07.298 1.86.848 2.427.561.56 1.39.87 2.558.87 1.17 0 1.987-.312 2.528-.868l.005-.005c.567-.567.873-1.357.873-2.424V74.42h4.475v12.766c0 1.508-.311 2.843-.951 3.988-.624 1.13-1.541 2.005-2.737 2.622l-.002.002c-1.18.6-2.583.89-4.191.89-1.609 0-3.02-.29-4.216-.89zm10.759-2.84q.895-1.6.895-3.771V74.867h-3.581v12.427q0 1.737-1.004 2.74-.977 1.005-2.85 1.004-1.871 0-2.875-1.004-.977-1.003-.977-2.74V74.867h-3.582v12.319q0 2.17.869 3.771.895 1.574 2.55 2.442 1.682.84 4.016.841 2.333 0 3.988-.841 1.683-.868 2.551-2.442m8.637 3.35V74.42h8.695c1.246 0 2.353.217 3.31.666s1.711 1.09 2.249 1.927c.54.842.803 1.824.803 2.928v.325c0 1.21-.288 2.237-.906 3.04a5.3 5.3 0 0 1-1.638 1.423 2.5 2.5 0 0 1 1.296.808c.485.553.706 1.272.706 2.11v6.66h-4.476v-6.145c0-.35-.093-.591-.244-.765l-.005-.007-.006-.007c-.096-.12-.304-.239-.763-.239h-4.546v7.163zm4.028-7.61h4.993q.787 0 1.112.407.353.407.353 1.058v5.698h3.582v-6.213q0-1.14-.597-1.818-.597-.706-1.682-.76v-.488a4.8 4.8 0 0 0 2.007-1.547q.815-1.058.815-2.768v-.325q0-1.547-.733-2.686t-2.062-1.764-3.12-.624h-8.25V93.86h3.582zm5.982-7.55-.003-.002c-.363-.364-.904-.575-1.692-.575h-3.84v4.424h3.84c.771 0 1.307-.203 1.671-.553.39-.376.596-.869.596-1.523v-.272c0-.66-.2-1.141-.569-1.495zm.286 3.616q-.705.678-1.98.678h-4.287v-5.318h4.287q1.302 0 2.007.705.706.68.706 1.818v.272q0 1.14-.733 1.845" clip-rule="evenodd"/></g><defs><linearGradient id="K" x1="19.049" x2="83.049" y1="92.008" y2="35.087" gradientUnits="userSpaceOnUse"><stop offset=".073" stop-color="#AAC4FD"/><stop offset="1" stop-color="#76A0FC"/></linearGradient><clipPath id="J"><path fill="#fff" d="M.48 0h115v115H.48z"/></clipPath></defs></svg></g><defs><linearGradient id="b" x1="89.53" x2="-825.17" y1="68.3" y2="-779.228" gradientUnits="userSpaceOnUse"><stop stop-color="#B6509E"/><stop offset="1" stop-color="#2EBAC6"/></linearGradient><linearGradient id="c" x1="128.494" x2="-821.333" y1="88.03" y2="-890.21" gradientUnits="userSpaceOnUse"><stop stop-color="#B6509E"/><stop offset="1" stop-color="#2EBAC6"/></linearGradient><linearGradient id="d" x1="208.381" x2="-798.122" y1="123.642" y2="-1059.46" gradientUnits="userSpaceOnUse"><stop stop-color="#B6509E"/><stop offset="1" stop-color="#2EBAC6"/></linearGradient><linearGradient id="e" x1="97.496" x2="-879.277" y1="92.507" y2="-598.994" gradientUnits="userSpaceOnUse"><stop stop-color="#B6509E"/><stop offset="1" stop-color="#2EBAC6"/></linearGradient><linearGradient id="f" x1="78.258" x2="-846.56" y1="70.379" y2="-650.515" gradientUnits="userSpaceOnUse"><stop stop-color="#B6509E"/><stop offset="1" stop-color="#2EBAC6"/></linearGradient><linearGradient id="g" x1="75.026" x2="-829.603" y1="62.533" y2="-702.513" gradientUnits="userSpaceOnUse"><stop stop-color="#B6509E"/><stop offset="1" stop-color="#2EBAC6"/></linearGradient><linearGradient id="h" x1="262.521" x2="-1053.41" y1="317.895" y2="-374.189" gradientUnits="userSpaceOnUse"><stop stop-color="#B6509E"/><stop offset="1" stop-color="#2EBAC6"/></linearGradient><linearGradient id="i" x1="189.598" x2="-1025.6" y1="215.72" y2="-471.757" gradientUnits="userSpaceOnUse"><stop stop-color="#B6509E"/><stop offset="1" stop-color="#2EBAC6"/></linearGradient><linearGradient id="j" x1="133.663" x2="-930.647" y1="135.723" y2="-551.282" gradientUnits="userSpaceOnUse"><stop stop-color="#B6509E"/><stop offset="1" stop-color="#2EBAC6"/></linearGradient><linearGradient id="k" x1="438.358" x2="-505.593" y1="383.608" y2="-318.594" gradientUnits="userSpaceOnUse"><stop stop-color="#B6509E"/><stop offset="1" stop-color="#2EBAC6"/></linearGradient><linearGradient id="l" x1="367.884" x2="-644.885" y1="352.282" y2="-333.003" gradientUnits="userSpaceOnUse"><stop stop-color="#B6509E"/><stop offset="1" stop-color="#2EBAC6"/></linearGradient><linearGradient id="m" x1="310.913" x2="-819.374" y1="330.087" y2="-355.394" gradientUnits="userSpaceOnUse"><stop stop-color="#B6509E"/><stop offset="1" stop-color="#2EBAC6"/></linearGradient><linearGradient id="n" x1="796.792" x2="-129.901" y1="536.642" y2="-367.096" gradientUnits="userSpaceOnUse"><stop stop-color="#B6509E"/><stop offset="1" stop-color="#2EBAC6"/></linearGradient><linearGradient id="o" x1="640.69" x2="-263.86" y1="473.543" y2="-328.827" gradientUnits="userSpaceOnUse"><stop stop-color="#B6509E"/><stop offset="1" stop-color="#2EBAC6"/></linearGradient><linearGradient id="p" x1="527.908" x2="-382.812" y1="424.179" y2="-316.503" gradientUnits="userSpaceOnUse"><stop stop-color="#B6509E"/><stop offset="1" stop-color="#2EBAC6"/></linearGradient><linearGradient id="q" x1="1168.67" x2="194.923" y1="698.93" y2="-373.582" gradientUnits="userSpaceOnUse"><stop stop-color="#B6509E"/><stop offset="1" stop-color="#2EBAC6"/></linearGradient><linearGradient id="r" x1="1359.4" x2="349.59" y1="702.843" y2="-584.24" gradientUnits="userSpaceOnUse"><stop stop-color="#B6509E"/><stop offset="1" stop-color="#2EBAC6"/></linearGradient><linearGradient id="s" x1="1029.35" x2="55.146" y1="617.607" y2="-450.02" gradientUnits="userSpaceOnUse"><stop stop-color="#B6509E"/><stop offset="1" stop-color="#2EBAC6"/></linearGradient><linearGradient id="t" x1="874.387" x2="-38.877" y1="702.532" y2="-37.617" gradientUnits="userSpaceOnUse"><stop stop-color="#B6509E"/><stop offset="1" stop-color="#2EBAC6"/></linearGradient><linearGradient id="u" x1="933.728" x2="28.774" y1="687.088" y2="-118.691" gradientUnits="userSpaceOnUse"><stop stop-color="#B6509E"/><stop offset="1" stop-color="#2EBAC6"/></linearGradient><linearGradient id="v" x1="1019.51" x2="92.815" y1="686.801" y2="-216.936" gradientUnits="userSpaceOnUse"><stop stop-color="#B6509E"/><stop offset="1" stop-color="#2EBAC6"/></linearGradient><linearGradient id="w" x1="812.862" x2="-319.316" y1="861.405" y2="172.282" gradientUnits="userSpaceOnUse"><stop stop-color="#B6509E"/><stop offset="1" stop-color="#2EBAC6"/></linearGradient><linearGradient id="x" x1="813.991" x2="-201.396" y1="781.595" y2="97.365" gradientUnits="userSpaceOnUse"><stop stop-color="#B6509E"/><stop offset="1" stop-color="#2EBAC6"/></linearGradient><linearGradient id="y" x1="837.936" x2="-109.46" y1="731.376" y2="26.812" gradientUnits="userSpaceOnUse"><stop stop-color="#B6509E"/><stop offset="1" stop-color="#2EBAC6"/></linearGradient><linearGradient id="z" x1="606.97" x2="-460.098" y1="612.111" y2="-73.641" gradientUnits="userSpaceOnUse"><stop stop-color="#B6509E"/><stop offset="1" stop-color="#2EBAC6"/></linearGradient><linearGradient id="A" x1="717.133" x2="-498.065" y1="817.847" y2="130.371" gradientUnits="userSpaceOnUse"><stop stop-color="#B6509E"/><stop offset="1" stop-color="#2EBAC6"/></linearGradient><linearGradient id="B" x1="820.019" x2="-495.907" y1="1001.94" y2="309.858" gradientUnits="userSpaceOnUse"><stop stop-color="#B6509E"/><stop offset="1" stop-color="#2EBAC6"/></linearGradient><linearGradient id="C" x1="394.545" x2="-513.251" y1="308.62" y2="-459.241" gradientUnits="userSpaceOnUse"><stop stop-color="#B6509E"/><stop offset="1" stop-color="#2EBAC6"/></linearGradient><linearGradient id="D" x1="450.145" x2="-473.882" y1="380.09" y2="-337.685" gradientUnits="userSpaceOnUse"><stop stop-color="#B6509E"/><stop offset="1" stop-color="#2EBAC6"/></linearGradient><linearGradient id="E" x1="518.793" x2="-455.432" y1="475.886" y2="-216.507" gradientUnits="userSpaceOnUse"><stop stop-color="#B6509E"/><stop offset="1" stop-color="#2EBAC6"/></linearGradient><linearGradient id="F" x1="285.61" x2="-719.969" y1="167.357" y2="-1021.33" gradientUnits="userSpaceOnUse"><stop stop-color="#B6509E"/><stop offset="1" stop-color="#2EBAC6"/></linearGradient><linearGradient id="G" x1="310.89" x2="-638.94" y1="204.963" y2="-773.277" gradientUnits="userSpaceOnUse"><stop stop-color="#B6509E"/><stop offset="1" stop-color="#2EBAC6"/></linearGradient><linearGradient id="H" x1="57.625" x2="16.161" y1="23.836" y2="-9.531" gradientUnits="userSpaceOnUse"><stop stop-color="#B6509E"/><stop offset="1" stop-color="#2EBAC6"/></linearGradient><clipPath id="I"><circle cx="24" cy="24" r="21"/></clipPath><clipPath id="a"><path fill="#fff" d="M0 0h48v48H0z"/></clipPath></defs></svg>