<svg xmlns="http://www.w3.org/2000/svg" xml:space="preserve" id="Слой_1" width="48" height="48" version="1.1" viewBox="0 0 48 48"><style id="style1" type="text/css">.st39{fill:none}</style><g id="g68" transform="matrix(.0958 0 0 .0958 .039 .049)"><g id="g67"><g id="g6"><g id="g1"><path id="path1" d="M407.4 250c-.3 3.8-.5 7.5-.7 11.3-.1 1.9 0 3.8-.3 5.6l-.9 5.5c-.7 3.7-.8 7.5-1.8 11.1s-1.9 7.2-2.8 10.8c-.3 1.8-1 3.6-1.7 5.3l-2 5.2-1.9 5.3c-.6 1.8-1.6 3.4-2.4 5.1l-4.8 10.1c-2 3.2-4 6.3-5.9 9.6l130.2 83.9 11.5-19.1c3.4-6.6 6.6-13.3 9.8-20 1.5-3.4 3.3-6.7 4.6-10.2l3.9-10.5 3.8-10.5c1.3-3.5 2.5-7 3.4-10.6l5.5-21.6c1.8-7.2 2.5-14.6 3.8-22l1.6-11c.5-3.7.5-7.4.8-11.1l1-22.2z" class="st39"/></g><linearGradient id="SVGID_00000104708511086881872630000014844121601543802027_" x1="482.791" x2="68.039" y1="377.153" y2="43.389" gradientUnits="userSpaceOnUse"><stop id="stop1" offset="0" style="stop-color:#b6509e"/><stop id="stop2" offset="1" style="stop-color:#2ebac6"/></linearGradient><path id="path2" d="m469 348.6-14.1-6.4c-3.6 7.1-6.5 14.5-11 21.1l13.4 7.8c4.7-7 7.9-14.9 11.7-22.5" style="clip-rule:evenodd;fill:url(#SVGID_00000104708511086881872630000014844121601543802027_);fill-rule:evenodd"/><linearGradient id="SVGID_00000147179263232614892750000003495048998020798140_" x1="509.181" x2="94.43" y1="344.359" y2="10.594" gradientUnits="userSpaceOnUse"><stop id="stop3" offset="0" style="stop-color:#b6509e"/><stop id="stop4" offset="1" style="stop-color:#2ebac6"/></linearGradient><path id="path4" d="m483.6 305.4-15.1-3.6c-2 7.7-3.6 15.5-6.7 22.8l14.6 5.1c3.3-7.8 5.1-16.1 7.2-24.3" style="clip-rule:evenodd;fill:url(#SVGID_00000147179263232614892750000003495048998020798140_);fill-rule:evenodd"/><linearGradient id="SVGID_00000154384627953943653370000009301978914104084362_" x1="533.46" x2="118.708" y1="314.189" y2="-19.576" gradientUnits="userSpaceOnUse"><stop id="stop5" offset="0" style="stop-color:#b6509e"/><stop id="stop6" offset="1" style="stop-color:#2ebac6"/></linearGradient><path id="path6" d="m489.8 260.4-15.5-.7-.6 11.9c-.3 4-1.1 7.9-1.7 11.8l15.3 2.3c.6-4.2 1.4-8.4 1.8-12.6z" style="clip-rule:evenodd;fill:url(#SVGID_00000154384627953943653370000009301978914104084362_);fill-rule:evenodd"/></g><g id="g12"><g id="g7"><path id="path7" d="M382.3 334.9c-16.2 25.2-39.8 45.8-67 58.1l64.4 140.9c54.2-24.6 100.7-65.1 132.8-115.1z" class="st39"/></g><linearGradient id="SVGID_00000091737110006325924560000006426042477305407383_" x1="400.601" x2="-14.151" y1="479.286" y2="145.521" gradientUnits="userSpaceOnUse"><stop id="stop7" offset="0" style="stop-color:#b6509e"/><stop id="stop8" offset="1" style="stop-color:#2ebac6"/></linearGradient><path id="polygon8" d="m362.3 444.5-5.1 3.1-5.4 2.6 7.1 13.8 5.7-2.8 5.5-3.3 10.8-6.6-8.4-12.9z" style="clip-rule:evenodd;fill:url(#SVGID_00000091737110006325924560000006426042477305407383_);fill-rule:evenodd"/><linearGradient id="SVGID_00000023276711056447914070000011818503130533663874_" x1="427.188" x2="12.436" y1="446.248" y2="112.483" gradientUnits="userSpaceOnUse"><stop id="stop9" offset="0" style="stop-color:#b6509e"/><stop id="stop10" offset="1" style="stop-color:#2ebac6"/></linearGradient><path id="path10" d="m416.6 422.9-10.7-11.2-8.8 8c-1.5 1.3-2.9 2.7-4.4 4l-4.8 3.6 9.5 12.2 5.1-3.8c1.6-1.4 3.2-2.8 4.7-4.2z" style="clip-rule:evenodd;fill:url(#SVGID_00000023276711056447914070000011818503130533663874_);fill-rule:evenodd"/><linearGradient id="SVGID_00000134224490732016085270000001901616526776264596_" x1="454.922" x2="40.17" y1="411.784" y2="78.019" gradientUnits="userSpaceOnUse"><stop id="stop11" offset="0" style="stop-color:#b6509e"/><stop id="stop12" offset="1" style="stop-color:#2ebac6"/></linearGradient><path id="path12" d="m446.2 388.4-12.7-8.9c-4.9 6.2-9.2 13-14.8 18.7l11.6 10.2c6.1-6.1 10.7-13.3 15.9-20" style="clip-rule:evenodd;fill:url(#SVGID_00000134224490732016085270000001901616526776264596_);fill-rule:evenodd"/></g><g id="g18"><g id="g13"><path id="path13" d="M315.3 393c-13.6 6-27.9 10.8-42.8 12.5l-5.5.9c-1.9.3-3.8.2-5.6.3-3.8.2-7.5.4-11.3.7-3.8-.3-7.5-.5-11.3-.7-1.9-.1-3.8 0-5.6-.3l-5.5-.9-21.9 153.4 11 1.6c3.7.5 7.4.5 11.1.8l22.2 1 22.2-1c3.7-.3 7.4-.3 11.1-.8l11-1.6c29.5-3.7 58.3-12.8 85.4-25z" class="st39"/></g><linearGradient id="SVGID_00000090996555707112800340000017514516171555815814_" x1="335.624" x2="-79.128" y1="560.03" y2="226.265" gradientUnits="userSpaceOnUse"><stop id="stop13" offset="0" style="stop-color:#b6509e"/><stop id="stop14" offset="1" style="stop-color:#2ebac6"/></linearGradient><path id="path14" d="m251.3 490.2-.1-15.5c-7.9-.2-15.9-.8-23.8-1.1l-1.5 15.4c8.4.5 16.9 1.1 25.4 1.2" style="clip-rule:evenodd;fill:url(#SVGID_00000090996555707112800340000017514516171555815814_);fill-rule:evenodd"/><linearGradient id="SVGID_00000001654109847398355510000014461126482698818221_" x1="353.943" x2="-60.809" y1="537.265" y2="203.501" gradientUnits="userSpaceOnUse"><stop id="stop15" offset="0" style="stop-color:#b6509e"/><stop id="stop16" offset="1" style="stop-color:#2ebac6"/></linearGradient><path id="path16" d="m296.7 485.7-3-15.2c-7.9 1-15.7 2.7-23.6 3.3l1.4 15.4c8.4-.7 16.8-2.4 25.2-3.5" style="clip-rule:evenodd;fill:url(#SVGID_00000001654109847398355510000014461126482698818221_);fill-rule:evenodd"/><linearGradient id="SVGID_00000082365719043996990750000000380436505949655995_" x1="375.751" x2="-39.001" y1="510.165" y2="176.4" gradientUnits="userSpaceOnUse"><stop id="stop17" offset="0" style="stop-color:#b6509e"/><stop id="stop18" offset="1" style="stop-color:#2ebac6"/></linearGradient><path id="path18" d="m340.2 472.6-5.8-14.4-11.2 4.1-5.6 2.1c-1.9.7-3.8 1-5.7 1.6l4.3 14.9c2-.6 4.1-1 6.1-1.7l6-2.2z" style="clip-rule:evenodd;fill:url(#SVGID_00000082365719043996990750000000380436505949655995_);fill-rule:evenodd"/></g><g id="g24"><g id="g19"><path id="path19" d="M227.6 405.5c-14.9-1.6-29.2-6.5-42.8-12.5l-10.1-4.8c-3.2-2-6.3-4-9.6-5.9-3.4-1.7-6.1-4.3-9.2-6.5-3-2.3-6.2-4.3-8.8-7l-101.5 117c44.7 38.9 101.1 65 160.1 73z" class="st39"/></g><linearGradient id="SVGID_00000176002008217702801830000010623875381781764515_" x1="308.152" x2="-106.599" y1="594.167" y2="260.402" gradientUnits="userSpaceOnUse"><stop id="stop19" offset="0" style="stop-color:#b6509e"/><stop id="stop20" offset="1" style="stop-color:#2ebac6"/></linearGradient><path id="polygon20" d="m124.5 436.5-4.8-3.5-9.5-7.2-9.7 12.2 10.2 7.6 5.1 3.8 5.5 3.3 8.3-13.1z" style="clip-rule:evenodd;fill:url(#SVGID_00000176002008217702801830000010623875381781764515_);fill-rule:evenodd"/><linearGradient id="SVGID_00000092444432135618381070000000326992058120110750_" x1="312.308" x2="-102.444" y1="589.003" y2="255.238" gradientUnits="userSpaceOnUse"><stop id="stop21" offset="0" style="stop-color:#b6509e"/><stop id="stop22" offset="1" style="stop-color:#2ebac6"/></linearGradient><path id="path22" d="m161.9 473.4 5.7-14.4c-1.9-.7-3.8-1.3-5.6-2.1l-5.4-2.6-10.7-5.2-7.2 13.7 11.5 5.5 5.7 2.8c2 .9 4 1.5 6 2.3" style="clip-rule:evenodd;fill:url(#SVGID_00000092444432135618381070000000326992058120110750_);fill-rule:evenodd"/><linearGradient id="SVGID_00000070103972701577133060000011142479575005581992_" x1="321.517" x2="-93.235" y1="577.559" y2="243.794" gradientUnits="userSpaceOnUse"><stop id="stop23" offset="0" style="stop-color:#b6509e"/><stop id="stop24" offset="1" style="stop-color:#2ebac6"/></linearGradient><path id="path24" d="m205.6 486 2.9-15.2c-4-.4-7.8-1.7-11.6-2.6l-11.5-3-4.5 14.8 12.3 3.2c4.1 1 8.1 2.4 12.4 2.8" style="clip-rule:evenodd;fill:url(#SVGID_00000070103972701577133060000011142479575005581992_);fill-rule:evenodd"/></g><g id="g30"><g id="g25"><path id="path25" d="M147.1 368.8c-22.8-19.6-39.5-45.9-48-74.5l-148.6 43.6c.9 3.6 2 7.2 3.4 10.6l3.8 10.5 3.9 10.5c1.3 3.5 3.1 6.8 4.6 10.2 3.2 6.7 6.4 13.4 9.8 20l11.5 19.1C-8.8 425.3-4.1 431 .3 437c4.5 5.9 8.8 12 13.9 17.4l15 16.4 16.4 15z" class="st39"/></g><linearGradient id="SVGID_00000003794775683124157800000011913993280982961829_" x1="326.474" x2="-88.278" y1="571.4" y2="237.635" gradientUnits="userSpaceOnUse"><stop id="stop25" offset="0" style="stop-color:#b6509e"/><stop id="stop26" offset="1" style="stop-color:#2ebac6"/></linearGradient><path id="path26" d="m32.1 350.9 14.1-6.5c-3.8-7-6-14.7-8.9-22.1l-14.7 5c3.1 7.9 5.5 16.1 9.5 23.6" style="clip-rule:evenodd;fill:url(#SVGID_00000003794775683124157800000011913993280982961829_);fill-rule:evenodd"/><linearGradient id="SVGID_00000104672211666729212850000016548978226426177681_" x1="315.329" x2="-99.423" y1="585.249" y2="251.484" gradientUnits="userSpaceOnUse"><stop id="stop27" offset="0" style="stop-color:#b6509e"/><stop id="stop28" offset="1" style="stop-color:#2ebac6"/></linearGradient><path id="path28" d="m55.2 390.3 12.6-9.1c-5.1-6.1-8.6-13.3-12.9-20l-13.5 7.7c4.5 7.2 8.4 14.8 13.8 21.4" style="clip-rule:evenodd;fill:url(#SVGID_00000104672211666729212850000016548978226426177681_);fill-rule:evenodd"/><linearGradient id="SVGID_00000148625317021203904910000009879789421656095403_" x1="309.172" x2="-105.58" y1="592.899" y2="259.135" gradientUnits="userSpaceOnUse"><stop id="stop29" offset="0" style="stop-color:#b6509e"/><stop id="stop30" offset="1" style="stop-color:#2ebac6"/></linearGradient><path id="path30" d="m85.1 424.5 10.6-11.3-4.4-4c-1.4-1.4-2.7-2.9-4-4.4l-8-8.8-11.8 10.1 8.6 9.4c1.4 1.6 2.8 3.2 4.3 4.7z" style="clip-rule:evenodd;fill:url(#SVGID_00000148625317021203904910000009879789421656095403_);fill-rule:evenodd"/></g><g id="g36"><g id="g31"><path id="path31" d="M99.1 294.3c-.9-3.6-1.8-7.2-2.8-10.8s-1.1-7.4-1.8-11.1l-.9-5.5c-.3-1.9-.2-3.8-.3-5.6-.2-3.8-.4-7.5-.7-11.3.3-3.8.5-7.5.7-11.3.1-1.9 0-3.8.3-5.6l.9-5.5c.7-3.7.8-7.5 1.8-11.1s1.9-7.2 2.8-10.8l-148.6-43.6-5.5 21.6c-1.8 7.2-2.5 14.6-3.8 22l-1.6 11c-.5 3.7-.5 7.4-.8 11.1l-1 22.2 1 22.2c.3 3.7.3 7.4.8 11.1l1.6 11c1.2 7.3 2 14.7 3.8 22l5.5 21.6z" class="st39"/></g><linearGradient id="SVGID_00000058550949854323963940000013213978808942152090_" x1="385.064" x2="-29.688" y1="498.568" y2="164.803" gradientUnits="userSpaceOnUse"><stop id="stop31" offset="0" style="stop-color:#b6509e"/><stop id="stop32" offset="1" style="stop-color:#2ebac6"/></linearGradient><path id="path32" d="m12.2 217.1 15.3 2.1 1.8-11.8c.4-4 1.8-7.7 2.7-11.6l-15-3.7c-.9 4.1-2.4 8.2-2.9 12.4z" style="clip-rule:evenodd;fill:url(#SVGID_00000058550949854323963940000013213978808942152090_);fill-rule:evenodd"/><linearGradient id="SVGID_00000148622084711658347150000016511535402227943326_" x1="362.065" x2="-52.687" y1="527.172" y2="193.407" gradientUnits="userSpaceOnUse"><stop id="stop33" offset="0" style="stop-color:#b6509e"/><stop id="stop34" offset="1" style="stop-color:#2ebac6"/></linearGradient><path id="polygon34" d="m10.3 237.2-.6 12.7.6 12.8 15.5-.8-.6-12 .6-11.9z" style="clip-rule:evenodd;fill:url(#SVGID_00000148622084711658347150000016511535402227943326_);fill-rule:evenodd"/><linearGradient id="SVGID_00000101083443461405630530000006842283544465970837_" x1="342.348" x2="-72.404" y1="551.674" y2="217.909" gradientUnits="userSpaceOnUse"><stop id="stop35" offset="0" style="stop-color:#b6509e"/><stop id="stop36" offset="1" style="stop-color:#2ebac6"/></linearGradient><path id="path36" d="m16.9 307.6 15-3.7c-2.3-7.6-3.3-15.5-4.5-23.4L12 282.6c1.5 8.4 2.5 16.8 4.9 25" style="clip-rule:evenodd;fill:url(#SVGID_00000101083443461405630530000006842283544465970837_);fill-rule:evenodd"/></g><g id="g42"><g id="g37"><path id="path37" d="M99.1 205.7c8.5-28.6 25.2-54.8 48-74.5L45.6 14.2l-16.4 15-15 16.4C9 51 4.7 57.1.3 63c-4.4 6-9.1 11.8-12.8 18.2L-24 100.3c-3.4 6.6-6.6 13.3-9.8 20-1.5 3.4-3.3 6.7-4.6 10.2l-3.9 10.5-3.8 10.5c-1.3 3.5-2.5 7-3.4 10.6z" class="st39"/></g><linearGradient id="SVGID_00000002376137640156149470000006679357018455115191_" x1="465.847" x2="51.096" y1="398.208" y2="64.443" gradientUnits="userSpaceOnUse"><stop id="stop37" offset="0" style="stop-color:#b6509e"/><stop id="stop38" offset="1" style="stop-color:#2ebac6"/></linearGradient><path id="path38" d="m67.7 93.7 11.8 10.1 8-8.8c1.4-1.5 2.6-3 4-4.4l4.4-4-10.6-11.2-4.7 4.3c-1.5 1.5-2.9 3.1-4.3 4.7z" style="clip-rule:evenodd;fill:url(#SVGID_00000002376137640156149470000006679357018455115191_);fill-rule:evenodd"/><linearGradient id="SVGID_00000066483276125556409010000015182069227145532805_" x1="437.715" x2="22.963" y1="433.167" y2="99.402" gradientUnits="userSpaceOnUse"><stop id="stop39" offset="0" style="stop-color:#b6509e"/><stop id="stop40" offset="1" style="stop-color:#2ebac6"/></linearGradient><path id="path40" d="m41.4 131 13.4 7.7c4.3-6.7 7.9-13.8 12.9-20l-12.6-9.1c-5.3 6.6-9.1 14.2-13.7 21.4" style="clip-rule:evenodd;fill:url(#SVGID_00000066483276125556409010000015182069227145532805_);fill-rule:evenodd"/><linearGradient id="SVGID_00000005264282004135174270000000348760371301044121_" x1="410.748" x2="-4.003" y1="466.676" y2="132.911" gradientUnits="userSpaceOnUse"><stop id="stop41" offset="0" style="stop-color:#b6509e"/><stop id="stop42" offset="1" style="stop-color:#2ebac6"/></linearGradient><path id="path42" d="m22.7 172.4 14.7 5c2.8-7.4 5.1-15.1 8.9-22.1l-14-6.5c-4.1 7.6-6.6 15.7-9.6 23.6" style="clip-rule:evenodd;fill:url(#SVGID_00000005264282004135174270000000348760371301044121_);fill-rule:evenodd"/></g><g id="g48"><g id="g43"><path id="path43" d="M147.1 131.2c2.6-2.7 5.8-4.7 8.8-7 3.1-2.2 5.8-4.8 9.2-6.5 3.2-1.9 6.4-3.9 9.6-5.9l10.1-4.8c13.6-6 27.9-10.8 42.8-12.5L205.7-58.8c-59 8-115.3 34.2-160.1 73z" class="st39"/></g><linearGradient id="SVGID_00000142877909234072922670000012744162597170337698_" x1="542.268" x2="127.516" y1="303.244" y2="-30.52" gradientUnits="userSpaceOnUse"><stop id="stop43" offset="0" style="stop-color:#b6509e"/><stop id="stop44" offset="1" style="stop-color:#2ebac6"/></linearGradient><path id="path44" d="m181.1 19.9 4.4 14.8 11.5-3c3.9-.9 7.7-2.2 11.6-2.6l-2.8-15.2c-4.2.5-8.3 1.7-12.4 2.7z" style="clip-rule:evenodd;fill:url(#SVGID_00000142877909234072922670000012744162597170337698_);fill-rule:evenodd"/><linearGradient id="SVGID_00000106857675396471537470000011430115657239397250_" x1="518.877" x2="104.126" y1="332.31" y2="-1.455" gradientUnits="userSpaceOnUse"><stop id="stop45" offset="0" style="stop-color:#b6509e"/><stop id="stop46" offset="1" style="stop-color:#2ebac6"/></linearGradient><path id="path46" d="m138.8 37.1 7.2 13.7 10.7-5.2 5.4-2.6c1.8-.8 3.7-1.4 5.6-2.1L162 26.6c-2 .7-4 1.4-6 2.2l-5.7 2.8z" style="clip-rule:evenodd;fill:url(#SVGID_00000106857675396471537470000011430115657239397250_);fill-rule:evenodd"/><linearGradient id="SVGID_00000103977686473083600680000014298624371071771265_" x1="493.213" x2="78.462" y1="364.201" y2="30.437" gradientUnits="userSpaceOnUse"><stop id="stop47" offset="0" style="stop-color:#b6509e"/><stop id="stop48" offset="1" style="stop-color:#2ebac6"/></linearGradient><path id="path48" d="m100.7 61.9 9.6 12.1 9.5-7.1c1.6-1.2 3.2-2.4 4.8-3.5l5.1-3.1-8.3-13.1-5.4 3.3c-1.8 1.2-3.4 2.5-5.1 3.8z" style="clip-rule:evenodd;fill:url(#SVGID_00000103977686473083600680000014298624371071771265_);fill-rule:evenodd"/></g><g id="g54"><g id="g49"><path id="path49" d="m227.6 94.5 5.5-.9c1.9-.3 3.8-.2 5.6-.3 3.8-.2 7.5-.4 11.3-.7 3.8.3 7.5.5 11.3.7 1.9.1 3.8 0 5.6.3l5.5.9c14.9 1.6 29.2 6.5 42.8 12.5l64.4-140.9c-27.1-12.2-55.8-21.3-85.4-25l-11-1.6c-3.7-.5-7.4-.5-11.1-.8l-22.2-1-22.2 1c-3.7.3-7.4.3-11.1.8l-11 1.6z" class="st39"/></g><linearGradient id="SVGID_00000052103213530023177160000002944217849268693427_" x1="590.461" x2="175.71" y1="243.356" y2="-90.409" gradientUnits="userSpaceOnUse"><stop id="stop49" offset="0" style="stop-color:#b6509e"/><stop id="stop50" offset="1" style="stop-color:#2ebac6"/></linearGradient><path id="path50" d="m316.4 19.2-4.3 14.9c3.9.8 7.6 2.2 11.3 3.6l11.2 4.1 5.8-14.3-12-4.4c-3.8-1.5-7.8-3-12-3.9" style="clip-rule:evenodd;fill:url(#SVGID_00000052103213530023177160000002944217849268693427_);fill-rule:evenodd"/><linearGradient id="SVGID_00000168113226916419175950000014654502115656089231_" x1="578.768" x2="164.016" y1="257.887" y2="-75.877" gradientUnits="userSpaceOnUse"><stop id="stop51" offset="0" style="stop-color:#b6509e"/><stop id="stop52" offset="1" style="stop-color:#2ebac6"/></linearGradient><path id="path52" d="m271.6 10.8-1.4 15.4c7.9.6 15.7 2.3 23.6 3.3l3-15.2c-8.4-1.1-16.8-2.8-25.2-3.5" style="clip-rule:evenodd;fill:url(#SVGID_00000168113226916419175950000014654502115656089231_);fill-rule:evenodd"/><linearGradient id="SVGID_00000032624055548118906680000017923149123676298943_" x1="562.599" x2="147.847" y1="277.979" y2="-55.785" gradientUnits="userSpaceOnUse"><stop id="stop53" offset="0" style="stop-color:#b6509e"/><stop id="stop54" offset="1" style="stop-color:#2ebac6"/></linearGradient><path id="path54" d="m226.1 10.9 1.5 15.4c7.9-.3 15.9-.9 23.8-1.1l.1-15.5c-8.4.2-16.9.8-25.4 1.2" style="clip-rule:evenodd;fill:url(#SVGID_00000032624055548118906680000017923149123676298943_);fill-rule:evenodd"/></g><g id="g60"><g id="g55"><path id="path55" d="M315.3 107c27.2 12.3 50.8 32.9 67 58.1l130.2-83.9C480.4 31.3 433.9-9.2 379.7-33.9Z" class="st39"/></g><linearGradient id="SVGID_00000064347573839370157820000017572030898596083878_" x1="595.196" x2="180.444" y1="237.473" y2="-96.292" gradientUnits="userSpaceOnUse"><stop id="stop55" offset="0" style="stop-color:#b6509e"/><stop id="stop56" offset="1" style="stop-color:#2ebac6"/></linearGradient><path id="path56" d="M430.6 91.8 418.9 102l4 4.4c1.3 1.5 2.4 3.2 3.6 4.7l7.1 9.5 12.7-8.9-7.6-10.2c-1.3-1.7-2.5-3.4-3.9-5z" style="clip-rule:evenodd;fill:url(#SVGID_00000064347573839370157820000017572030898596083878_);fill-rule:evenodd"/><linearGradient id="SVGID_00000055708723406501865340000017864807875619820717_" x1="598.848" x2="184.096" y1="232.934" y2="-100.83" gradientUnits="userSpaceOnUse"><stop id="stop57" offset="0" style="stop-color:#b6509e"/><stop id="stop58" offset="1" style="stop-color:#2ebac6"/></linearGradient><path id="path58" d="m397.4 60.5-9.5 12.2 4.8 3.6c1.5 1.3 2.9 2.7 4.4 4l8.8 8 10.8-11.2-9.4-8.6c-1.6-1.4-3.1-2.9-4.7-4.2z" style="clip-rule:evenodd;fill:url(#SVGID_00000055708723406501865340000017864807875619820717_);fill-rule:evenodd"/><linearGradient id="SVGID_00000003096860706853110920000000256122463884852656_" x1="597.237" x2="182.486" y1="234.936" y2="-98.829" gradientUnits="userSpaceOnUse"><stop id="stop59" offset="0" style="stop-color:#b6509e"/><stop id="stop60" offset="1" style="stop-color:#2ebac6"/></linearGradient><path id="polygon60" d="m357.4 52.5 5.1 3.1 10.2 6.2 4.5-6.881 4-6.119-10.9-6.6-5.5-3.3-5.7-2.8-7 13.8z" style="clip-rule:evenodd;fill:url(#SVGID_00000003096860706853110920000000256122463884852656_);fill-rule:evenodd"/></g><g id="g66"><g id="g61"><path id="path60" d="M382.3 165.1c1.9 3.2 3.9 6.4 5.9 9.6l4.8 10.1c.8 1.7 1.8 3.3 2.4 5.1l1.9 5.3 2 5.2c.7 1.7 1.4 3.5 1.7 5.3.9 3.6 1.8 7.2 2.8 10.8s1.1 7.4 1.8 11.1l.9 5.5c.3 1.9.2 3.8.3 5.6.2 3.8.4 7.5.7 11.3h154.9l-1-22.2c-.3-3.7-.3-7.4-.8-11.1l-1.6-11c-1.2-7.3-2-14.7-3.8-22l-5.5-21.6c-.9-3.6-2-7.2-3.4-10.6l-3.8-10.5-3.9-10.5c-1.3-3.5-3.1-6.8-4.6-10.2-3.2-6.7-6.4-13.4-9.8-20l-11.5-19.1Z" class="st39"/></g><linearGradient id="SVGID_00000081649527427247603540000013030321784522334646_" x1="555.106" x2="140.354" y1="287.291" y2="-46.474" gradientUnits="userSpaceOnUse"><stop id="stop61" offset="0" style="stop-color:#b6509e"/><stop id="stop62" offset="1" style="stop-color:#2ebac6"/></linearGradient><path id="path62" d="m487.4 214.6-15.3 2.3c.5 3.9 1.4 7.8 1.6 11.8l.6 11.9 15.5-.6-.6-12.7c-.4-4.4-1.2-8.5-1.8-12.7" style="clip-rule:evenodd;fill:url(#SVGID_00000081649527427247603540000013030321784522334646_);fill-rule:evenodd"/><linearGradient id="SVGID_00000178895552897056328320000005882026752739807421_" x1="572.959" x2="158.207" y1="265.106" y2="-68.659" gradientUnits="userSpaceOnUse"><stop id="stop63" offset="0" style="stop-color:#b6509e"/><stop id="stop64" offset="1" style="stop-color:#2ebac6"/></linearGradient><path id="path64" d="m476.5 170.3-14.6 5.1c3.1 7.3 4.7 15.2 6.7 22.8l15.1-3.6c-2.2-8.1-4-16.4-7.2-24.3" style="clip-rule:evenodd;fill:url(#SVGID_00000178895552897056328320000005882026752739807421_);fill-rule:evenodd"/><linearGradient id="SVGID_00000159430980987490825690000002652148113673706165_" x1="586.44" x2="171.688" y1="248.353" y2="-85.411" gradientUnits="userSpaceOnUse"><stop id="stop65" offset="0" style="stop-color:#b6509e"/><stop id="stop66" offset="1" style="stop-color:#2ebac6"/></linearGradient><path id="path66" d="m457.4 129.1-13.4 7.8c4.5 6.6 7.3 14.1 10.9 21.1l14.1-6.4c-3.7-7.5-6.9-15.5-11.6-22.5" style="clip-rule:evenodd;fill:url(#SVGID_00000159430980987490825690000002652148113673706165_);fill-rule:evenodd"/></g></g></g><svg xmlns="http://www.w3.org/2000/svg" id="g2" width="40" height="40" x="4" y="4" fill="none" viewBox="0 0 256 256"><rect width="256" height="256" fill="url(#a)" rx="128"/><g opacity=".8" style="mix-blend-mode:screen"><path fill="#fff" fill-rule="evenodd" d="M199.579 190.316v-25.398l-.068-.002-17.48-40.284h-27.969l16.607 39.41h-54.148c-10.441 0-20.295-4.112-27.746-11.578-7.451-7.47-11.56-17.345-11.56-27.806s4.109-20.336 11.56-27.802c7.45-7.466 17.305-11.578 27.746-11.578l51.593-.057-10.925-26.274-40.668.057c-36.128 0-66.837 29.449-66.837 65.654s30.709 65.658 66.837 65.658zm-87.449-69.187c7.241 0 13.11-5.882 13.11-13.137s-5.869-13.137-13.11-13.137-13.11 5.882-13.11 13.137 5.869 13.137 13.11 13.137m13.11 20.581c0 7.255-5.869 13.137-13.11 13.137s-13.11-5.882-13.11-13.137 5.869-13.137 13.11-13.137 13.11 5.882 13.11 13.137" clip-rule="evenodd"/><path fill="#000" d="M199.579 164.918h2.5v-2.425l-2.424-.074zm0 25.398v2.5h2.5v-2.5zm-.068-25.4-2.294.995.632 1.455 1.586.049zm-17.48-40.284 2.294-.996-.653-1.504h-1.641zm-27.969 0v-2.5h-3.766l1.463 3.47zm16.607 39.41v2.5h3.766l-1.462-3.471zm-54.148 0v-2.5zm-27.746-11.578-1.77 1.766zm0-55.608 1.77 1.766zm27.746-11.578v2.5h.002zm51.593-.057.003 2.5 3.743-.004-1.437-3.456zm-10.925-26.274 2.308-.96-.641-1.542-1.671.002zm-40.668.057v2.5h.003zm80.558 105.914v25.398h5v-25.398zm2.356 2.497.068.002.152-4.998-.068-.002zm-19.697-41.788 17.479 40.284 4.587-1.99-17.479-40.285zm-25.676 1.505h27.969v-5h-27.969zm18.911 35.939-16.607-39.41-4.607 1.941 16.606 39.411zm-56.452 3.471h54.148v-5h-54.148zM87.005 154.23c7.915 7.931 18.404 12.312 29.516 12.312v-5c-9.769 0-18.99-3.842-25.977-10.844zm-12.29-29.572c0 11.13 4.376 21.638 12.29 29.572l3.54-3.531c-6.989-7.007-10.83-16.249-10.83-26.041zm12.29-29.568c-7.914 7.93-12.29 18.438-12.29 29.568h5c0-9.793 3.841-19.034 10.83-26.036zm29.516-12.312c-11.112 0-21.601 4.381-29.516 12.312l3.54 3.532c6.987-7.002 16.207-10.844 25.976-10.844zm51.59-.057-51.593.057.005 5 51.594-.057zM154.88 59.907l10.926 26.274 4.617-1.92-10.926-26.273-4.617 1.92Zm-38.356 1.597 40.668-.057-.007-5-40.668.057zm-64.34 63.154c0-34.765 29.53-63.154 64.337-63.154v-5c-37.449 0-69.337 30.509-69.337 68.154zm64.337 63.158c-34.807 0-64.337-28.393-64.337-63.158h-5c0 37.645 31.888 68.158 69.337 68.158zm83.058 0h-83.058v5h83.058zm-76.839-79.824c0 5.879-4.755 10.637-10.61 10.637v5c8.626 0 15.61-7.006 15.61-15.637zm-10.61-10.637c5.855 0 10.61 4.758 10.61 10.637h5c0-8.631-6.984-15.637-15.61-15.637zm-10.61 10.637c0-5.879 4.755-10.637 10.61-10.637v-5c-8.626 0-15.61 7.006-15.61 15.637zm10.61 10.637c-5.855 0-10.61-4.758-10.61-10.637h-5c0 8.631 6.984 15.637 15.61 15.637zm0 38.718c8.626 0 15.61-7.006 15.61-15.637h-5c0 5.879-4.755 10.637-10.61 10.637zM96.52 141.71c0 8.631 6.984 15.637 15.61 15.637v-5c-5.855 0-10.61-4.758-10.61-10.637zm15.61-15.637c-8.626 0-15.61 7.006-15.61 15.637h5c0-5.88 4.755-10.637 10.61-10.637zm15.61 15.637c0-8.631-6.984-15.637-15.61-15.637v5c5.855 0 10.61 4.757 10.61 10.637z"/></g><defs><linearGradient id="a" x1="128" x2="128" y1="0" y2="256" gradientUnits="userSpaceOnUse"><stop stop-color="#B3B2D3"/><stop offset=".526" stop-color="#8C8ADA"/><stop offset="1" stop-color="#6D69DE"/></linearGradient></defs></svg></svg>