<svg xmlns="http://www.w3.org/2000/svg" width="48" height="48" fill="none" viewBox="0 0 48 48"><g fill-rule="evenodd" clip-path="url(#a)" clip-rule="evenodd"><path fill="url(#b)" d="m45.884 33.858-1.41-.64c-.36.71-.65 1.45-1.1 2.11l1.34.78c.47-.7.79-1.49 1.17-2.25"/><path fill="url(#c)" d="m47.344 29.539-1.51-.36c-.2.77-.36 1.55-.67 2.28l1.46.51c.33-.78.51-1.61.72-2.43"/><path fill="url(#d)" d="m47.964 25.04-1.55-.07-.06 1.19c-.03.4-.11.79-.17 1.18l1.53.23c.06-.42.14-.84.18-1.26z"/><path fill="url(#e)" d="m35.217 43.445-.51.31-.54.26.71 1.38.57-.28.55-.33 1.08-.66-.84-1.29z"/><path fill="url(#f)" d="m40.646 41.286-1.07-1.12-.88.8c-.15.13-.29.27-.44.4l-.48.36.95 1.22.51-.38c.16-.14.32-.28.47-.42z"/><path fill="url(#g)" d="m43.605 37.837-1.27-.89c-.49.62-.92 1.3-1.48 1.87l1.16 1.02c.61-.61 1.07-1.33 1.59-2"/><path fill="url(#h)" d="m24.12 48.014-.01-1.55c-.79-.02-1.59-.08-2.38-.11l-.15 1.54c.84.05 1.69.11 2.54.12"/><path fill="url(#i)" d="m28.659 47.564-.3-1.52c-.79.1-1.57.27-2.36.33l.14 1.54c.84-.07 1.68-.24 2.52-.35"/><path fill="url(#j)" d="m33.008 46.254-.58-1.44-1.12.41-.56.21c-.19.07-.38.1-.57.16l.43 1.49c.2-.06.41-.1.61-.17l.6-.22z"/><path fill="url(#k)" d="m11.444 42.645-.48-.35-.95-.72-.97 1.22 1.53 1.14.55.33.83-1.31z"/><path fill="url(#l)" d="m15.183 46.334.57-1.44c-.19-.07-.38-.13-.56-.21l-.54-.26-1.07-.519-.72 1.37 1.15.55.57.28c.2.09.4.15.6.23"/><path fill="url(#m)" d="m19.551 47.594.29-1.52c-.4-.04-.78-.17-1.16-.26l-1.149-.3-.45 1.48 1.23.32c.41.1.81.24 1.24.28"/><path fill="url(#n)" d="m2.206 34.088 1.41-.65c-.38-.7-.6-1.47-.89-2.21l-1.47.5c.31.79.55 1.61.95 2.36"/><path fill="url(#o)" d="m4.516 38.027 1.26-.91c-.51-.61-.86-1.33-1.29-2l-1.35.77c.45.72.84 1.48 1.38 2.14"/><path fill="url(#p)" d="m7.505 41.446 1.06-1.13-.44-.4c-.14-.14-.27-.29-.4-.44l-.8-.88-1.18 1.01.86.94c.14.16.28.32.43.47z"/><path fill="url(#q)" d="m.217 20.712 1.53.21.18-1.18c.04-.4.18-.77.27-1.16l-1.5-.37c-.09.41-.24.82-.29 1.24z"/><path fill="url(#r)" d="m.027 22.72-.06 1.27.06 1.28 1.55-.08-.06-1.2.06-1.19z"/><path fill="url(#s)" d="m.687 29.759 1.5-.37c-.23-.76-.33-1.55-.45-2.34l-1.54.21c.15.84.25 1.68.49 2.5"/><path fill="url(#t)" d="m5.765 8.375 1.18 1.01.8-.88c.14-.15.26-.3.4-.44l.44-.4-1.06-1.12-.47.43c-.15.15-.29.31-.43.47z"/><path fill="url(#u)" d="m3.136 12.104 1.34.77c.43-.67.79-1.38 1.29-2l-1.26-.91c-.53.66-.91 1.42-1.37 2.14"/><path fill="url(#v)" d="m1.266 16.243 1.47.5c.28-.74.51-1.51.89-2.21l-1.4-.65c-.41.76-.66 1.57-.96 2.36"/><path fill="url(#w)" d="m17.102.997.44 1.48 1.15-.3c.39-.09.77-.22 1.16-.26l-.28-1.52c-.42.05-.83.17-1.24.27z"/><path fill="url(#x)" d="m12.873 2.716.72 1.37 1.07-.52.54-.26c.18-.08.37-.14.56-.21l-.57-1.43c-.2.07-.4.14-.6.22l-.57.28z"/><path fill="url(#y)" d="m9.064 5.196.96 1.21.95-.71c.16-.12.32-.24.48-.35l.51-.31-.83-1.31-.54.33c-.18.12-.34.25-.51.38z"/><path fill="url(#z)" d="m30.628.927-.43 1.49c.39.08.76.22 1.13.36l1.12.41.58-1.43-1.2-.44c-.38-.15-.78-.3-1.2-.39"/><path fill="url(#A)" d="m26.15.087-.14 1.54c.79.06 1.57.23 2.359.33l.3-1.52c-.84-.11-1.68-.28-2.52-.35"/><path fill="url(#B)" d="m21.6.097.15 1.54c.79-.03 1.59-.09 2.38-.11l.01-1.55c-.84.02-1.69.08-2.54.12"/><path fill="url(#C)" d="m42.045 8.185-1.17 1.02.4.44c.13.15.24.32.36.47l.71.95 1.27-.89-.76-1.02c-.13-.17-.25-.34-.39-.5z"/><path fill="url(#D)" d="m38.726 5.056-.95 1.22.48.36c.15.13.29.27.44.4l.88.799 1.08-1.12-.94-.86c-.16-.14-.31-.29-.47-.42z"/><path fill="url(#E)" d="m34.727 4.256 1.53.93.85-1.3-1.09-.66-.55-.33-.57-.28-.7 1.38z"/><path fill="url(#F)" d="m47.724 20.462-1.53.23c.05.39.14.78.16 1.18l.06 1.189 1.55-.06-.06-1.27c-.04-.44-.12-.85-.18-1.27"/><path fill="url(#G)" d="m46.634 16.033-1.46.51c.31.73.47 1.52.67 2.279l1.51-.36c-.22-.81-.4-1.64-.72-2.43"/><path fill="url(#H)" d="m44.724 11.914-1.34.78c.45.66.73 1.41 1.09 2.11l1.41-.64c-.37-.75-.69-1.55-1.16-2.25"/></g><g clip-path="url(#I)"><svg xmlns="http://www.w3.org/2000/svg" width="48" height="48" viewBox="0 0 256 256"><g clip-path="url(#J)"><path fill="#fff" d="M256 128C256 57.308 198.692 0 128 0S0 57.308 0 128s57.308 128 128 128 128-57.308 128-128"/><path fill="#2C2C2E" d="M131.799 192.285v-10.969l27.09-15.955v-32.576l9.806-5.152.333 43.378z"/><path fill="#2C2C2E" d="m139.61 112.176 11.136-6.315 27.423 17.285.166 52.186-9.307-4.321-.333-43.378zm-8.309-59.831 46.702 26.758V90.24l-46.702-26.26zm-46.371 81.77-.165-54.513L131.3 52.179v11.634L93.407 85.419v42.547z"/><path fill="#2C2C2E" d="m112.354 149.406-27.423-15.291 8.476-6.315 47.035 27.09-28.088 15.956-9.307 5.318 28.752 16.287 37.229-21.439 9.307 4.321-46.868 27.921-46.536-26.591 37.063-21.939zM93.407 85.419l37.894-21.44 46.702 26.26-27.257 15.622-11.135 6.316 28.918 15.456-9.639 5.153-37.229-21.108 37.063-21.938-8.809-5.152-18.448-10.637-27.589 15.955z"/><path fill="#2C2C2E" d="m103.046 176.164 9.308-5.319 19.279 10.637v10.969zm-17.949.499v-11.634l27.257-15.623 9.806 5.318zm36.564-64.985.166-11.135 28.088-15.79 8.809 5.153zm-28.254 16.288.166-42.547 10.305 4.654.166 33.406 36.398 20.276v11.468z"/><path fill="#fff" fill-rule="evenodd" d="M168.952 127.204a.5.5 0 0 1 .243.425l.333 43.379a.5.5 0 0 1-.252.438l-37.229 21.273a.5.5 0 0 1-.748-.434v-10.969a.5.5 0 0 1 .246-.431l26.844-15.81v-32.29c0-.185.103-.356.268-.442l9.806-5.152a.5.5 0 0 1 .489.013m-9.563 5.884v32.273a.5.5 0 0 1-.246.43l-26.844 15.811v9.821l36.226-20.7-.324-42.265z" clip-rule="evenodd"/><path fill="#fff" fill-rule="evenodd" d="M150.499 105.426a.5.5 0 0 1 .513.012l27.423 17.285a.5.5 0 0 1 .234.421l.166 52.187a.5.5 0 0 1-.711.455l-9.307-4.321a.5.5 0 0 1-.289-.45l-.33-43.08-28.822-15.317a.5.5 0 0 1-.012-.876zm-9.85 6.736 28.281 15.029a.5.5 0 0 1 .265.438l.33 43.062 8.307 3.857-.162-51.126-26.938-16.979zm-9.599-60.249a.5.5 0 0 1 .499-.002l46.702 26.758a.5.5 0 0 1 .252.434V90.24a.5.5 0 0 1-.745.436l-46.702-26.26a.5.5 0 0 1-.255-.436V52.345a.5.5 0 0 1 .249-.432m.751 1.295v10.479l45.702 25.697v-9.99z" clip-rule="evenodd"/><path fill="#fff" fill-rule="evenodd" d="M131.549 51.745a.5.5 0 0 1 .252.434v11.634a.5.5 0 0 1-.253.434L93.907 85.709v42.257a.5.5 0 0 1-.206.404l-8.476 6.15a.5.5 0 0 1-.794-.403l-.166-54.514a.5.5 0 0 1 .246-.432l46.536-27.423a.5.5 0 0 1 .502-.003M85.265 79.887l.163 53.25 7.479-5.426V85.419a.5.5 0 0 1 .252-.435l37.642-21.462V53.054L85.266 79.887Z" clip-rule="evenodd"/><path fill="#fff" fill-rule="evenodd" d="M93.109 127.399a.5.5 0 0 1 .548-.032l47.034 27.09a.5.5 0 0 1-.002.868l-28.087 15.955-8.544 4.882 27.739 15.714 36.982-21.298a.5.5 0 0 1 .46-.02l9.307 4.321a.502.502 0 0 1 .045.883l-46.868 27.922a.5.5 0 0 1-.504.005l-46.536-26.592a.502.502 0 0 1-.007-.865l36.31-21.493-8.873-4.895-.002-.002-27.423-15.29a.5.5 0 0 1-.056-.838zm.334.998-7.594 5.658 26.747 14.913.002.001 9.637 5.317a.5.5 0 0 1 .013.868l-36.322 21.501 45.536 26.021 45.804-27.288-8.213-3.814-37.004 21.311a.5.5 0 0 1-.496.002L102.8 176.599a.5.5 0 0 1-.001-.869l9.308-5.319 27.328-15.524zm37.612-64.853a.5.5 0 0 1 .491 0l46.702 26.259a.5.5 0 0 1 .003.87l-27.256 15.622-.002.001-10.346 5.868 28.118 15.029a.499.499 0 0 1 0 .881l-9.639 5.153a.5.5 0 0 1-.483-.006l-37.228-21.108a.5.5 0 0 1-.009-.865l36.332-21.505-8.073-4.722-.002-.002-18.196-10.49-27.339 15.81a.5.5 0 0 1-.447.027l-10.47-4.488a.5.5 0 0 1-.05-.894zm.247 1.01-36.77 20.803 9.312 3.99 27.373-15.829a.5.5 0 0 1 .5 0l18.451 10.638 8.808 5.152a.5.5 0 0 1 .002.862l-36.319 21.499 36.238 20.546 8.572-4.582-28.094-15.015a.5.5 0 0 1-.011-.876l11.133-6.314.002-.002 26.491-15.183-45.688-25.69Z" clip-rule="evenodd"/><path fill="#fff" fill-rule="evenodd" d="M112.105 170.411a.5.5 0 0 1 .49-.004l19.279 10.637a.5.5 0 0 1 .259.438v10.969a.5.5 0 0 1-.748.435l-28.586-16.288a.5.5 0 0 1-.001-.869zm.253 1.008-8.303 4.744 27.078 15.428v-9.814zm-.253-22.447a.5.5 0 0 1 .487-.006l9.806 5.319a.501.501 0 0 1 .016.869l-37.062 21.939a.501.501 0 0 1-.755-.43v-11.634a.5.5 0 0 1 .252-.434zm.256 1.006-26.764 15.34v10.468l35.549-21.043zm37.309-65.66a.5.5 0 0 1 .498.004l8.808 5.153a.5.5 0 0 1 .001.863l-37.063 21.771a.498.498 0 0 1-.753-.438l.166-11.136a.5.5 0 0 1 .255-.428zm-27.347 16.52-.149 9.959 35.561-20.89-7.825-4.577zm-29.02-15.84a.5.5 0 0 1 .476-.035l10.305 4.654a.5.5 0 0 1 .294.453l.165 33.114 36.142 20.134a.5.5 0 0 1 .257.437v11.468a.5.5 0 0 1-.751.432l-47.035-27.256a.5.5 0 0 1-.249-.435l.166-42.547a.5.5 0 0 1 .23-.419m.767 1.194-.162 41.487 46.034 26.676v-10.306l-36.141-20.134a.5.5 0 0 1-.257-.434l-.165-33.085z" clip-rule="evenodd"/><path stroke="#fff" stroke-width="48" d="M243.2 128c0-63.623-51.577-115.2-115.2-115.2S12.8 64.377 12.8 128 64.377 243.2 128 243.2 243.2 191.623 243.2 128Z"/></g><defs><clipPath id="J"><path fill="#fff" d="M0 0h256v256H0z"/></clipPath></defs></svg></g><defs><linearGradient id="b" x1="89.53" x2="-825.17" y1="68.3" y2="-779.228" gradientUnits="userSpaceOnUse"><stop stop-color="#B6509E"/><stop offset="1" stop-color="#2EBAC6"/></linearGradient><linearGradient id="c" x1="128.494" x2="-821.333" y1="88.03" y2="-890.21" gradientUnits="userSpaceOnUse"><stop stop-color="#B6509E"/><stop offset="1" stop-color="#2EBAC6"/></linearGradient><linearGradient id="d" x1="208.381" x2="-798.122" y1="123.642" y2="-1059.46" gradientUnits="userSpaceOnUse"><stop stop-color="#B6509E"/><stop offset="1" stop-color="#2EBAC6"/></linearGradient><linearGradient id="e" x1="97.496" x2="-879.277" y1="92.507" y2="-598.994" gradientUnits="userSpaceOnUse"><stop stop-color="#B6509E"/><stop offset="1" stop-color="#2EBAC6"/></linearGradient><linearGradient id="f" x1="78.258" x2="-846.56" y1="70.379" y2="-650.515" gradientUnits="userSpaceOnUse"><stop stop-color="#B6509E"/><stop offset="1" stop-color="#2EBAC6"/></linearGradient><linearGradient id="g" x1="75.026" x2="-829.603" y1="62.533" y2="-702.513" gradientUnits="userSpaceOnUse"><stop stop-color="#B6509E"/><stop offset="1" stop-color="#2EBAC6"/></linearGradient><linearGradient id="h" x1="262.521" x2="-1053.41" y1="317.895" y2="-374.189" gradientUnits="userSpaceOnUse"><stop stop-color="#B6509E"/><stop offset="1" stop-color="#2EBAC6"/></linearGradient><linearGradient id="i" x1="189.598" x2="-1025.6" y1="215.72" y2="-471.757" gradientUnits="userSpaceOnUse"><stop stop-color="#B6509E"/><stop offset="1" stop-color="#2EBAC6"/></linearGradient><linearGradient id="j" x1="133.663" x2="-930.647" y1="135.723" y2="-551.282" gradientUnits="userSpaceOnUse"><stop stop-color="#B6509E"/><stop offset="1" stop-color="#2EBAC6"/></linearGradient><linearGradient id="k" x1="438.358" x2="-505.593" y1="383.608" y2="-318.594" gradientUnits="userSpaceOnUse"><stop stop-color="#B6509E"/><stop offset="1" stop-color="#2EBAC6"/></linearGradient><linearGradient id="l" x1="367.884" x2="-644.885" y1="352.282" y2="-333.003" gradientUnits="userSpaceOnUse"><stop stop-color="#B6509E"/><stop offset="1" stop-color="#2EBAC6"/></linearGradient><linearGradient id="m" x1="310.913" x2="-819.374" y1="330.087" y2="-355.394" gradientUnits="userSpaceOnUse"><stop stop-color="#B6509E"/><stop offset="1" stop-color="#2EBAC6"/></linearGradient><linearGradient id="n" x1="796.792" x2="-129.901" y1="536.642" y2="-367.096" gradientUnits="userSpaceOnUse"><stop stop-color="#B6509E"/><stop offset="1" stop-color="#2EBAC6"/></linearGradient><linearGradient id="o" x1="640.69" x2="-263.86" y1="473.543" y2="-328.827" gradientUnits="userSpaceOnUse"><stop stop-color="#B6509E"/><stop offset="1" stop-color="#2EBAC6"/></linearGradient><linearGradient id="p" x1="527.908" x2="-382.812" y1="424.179" y2="-316.503" gradientUnits="userSpaceOnUse"><stop stop-color="#B6509E"/><stop offset="1" stop-color="#2EBAC6"/></linearGradient><linearGradient id="q" x1="1168.67" x2="194.923" y1="698.93" y2="-373.582" gradientUnits="userSpaceOnUse"><stop stop-color="#B6509E"/><stop offset="1" stop-color="#2EBAC6"/></linearGradient><linearGradient id="r" x1="1359.4" x2="349.59" y1="702.843" y2="-584.24" gradientUnits="userSpaceOnUse"><stop stop-color="#B6509E"/><stop offset="1" stop-color="#2EBAC6"/></linearGradient><linearGradient id="s" x1="1029.35" x2="55.146" y1="617.607" y2="-450.02" gradientUnits="userSpaceOnUse"><stop stop-color="#B6509E"/><stop offset="1" stop-color="#2EBAC6"/></linearGradient><linearGradient id="t" x1="874.387" x2="-38.877" y1="702.532" y2="-37.617" gradientUnits="userSpaceOnUse"><stop stop-color="#B6509E"/><stop offset="1" stop-color="#2EBAC6"/></linearGradient><linearGradient id="u" x1="933.728" x2="28.774" y1="687.088" y2="-118.691" gradientUnits="userSpaceOnUse"><stop stop-color="#B6509E"/><stop offset="1" stop-color="#2EBAC6"/></linearGradient><linearGradient id="v" x1="1019.51" x2="92.815" y1="686.801" y2="-216.936" gradientUnits="userSpaceOnUse"><stop stop-color="#B6509E"/><stop offset="1" stop-color="#2EBAC6"/></linearGradient><linearGradient id="w" x1="812.862" x2="-319.316" y1="861.405" y2="172.282" gradientUnits="userSpaceOnUse"><stop stop-color="#B6509E"/><stop offset="1" stop-color="#2EBAC6"/></linearGradient><linearGradient id="x" x1="813.991" x2="-201.396" y1="781.595" y2="97.365" gradientUnits="userSpaceOnUse"><stop stop-color="#B6509E"/><stop offset="1" stop-color="#2EBAC6"/></linearGradient><linearGradient id="y" x1="837.936" x2="-109.46" y1="731.376" y2="26.812" gradientUnits="userSpaceOnUse"><stop stop-color="#B6509E"/><stop offset="1" stop-color="#2EBAC6"/></linearGradient><linearGradient id="z" x1="606.97" x2="-460.098" y1="612.111" y2="-73.641" gradientUnits="userSpaceOnUse"><stop stop-color="#B6509E"/><stop offset="1" stop-color="#2EBAC6"/></linearGradient><linearGradient id="A" x1="717.133" x2="-498.065" y1="817.847" y2="130.371" gradientUnits="userSpaceOnUse"><stop stop-color="#B6509E"/><stop offset="1" stop-color="#2EBAC6"/></linearGradient><linearGradient id="B" x1="820.019" x2="-495.907" y1="1001.94" y2="309.858" gradientUnits="userSpaceOnUse"><stop stop-color="#B6509E"/><stop offset="1" stop-color="#2EBAC6"/></linearGradient><linearGradient id="C" x1="394.545" x2="-513.251" y1="308.62" y2="-459.241" gradientUnits="userSpaceOnUse"><stop stop-color="#B6509E"/><stop offset="1" stop-color="#2EBAC6"/></linearGradient><linearGradient id="D" x1="450.145" x2="-473.882" y1="380.09" y2="-337.685" gradientUnits="userSpaceOnUse"><stop stop-color="#B6509E"/><stop offset="1" stop-color="#2EBAC6"/></linearGradient><linearGradient id="E" x1="518.793" x2="-455.432" y1="475.886" y2="-216.507" gradientUnits="userSpaceOnUse"><stop stop-color="#B6509E"/><stop offset="1" stop-color="#2EBAC6"/></linearGradient><linearGradient id="F" x1="285.61" x2="-719.969" y1="167.357" y2="-1021.33" gradientUnits="userSpaceOnUse"><stop stop-color="#B6509E"/><stop offset="1" stop-color="#2EBAC6"/></linearGradient><linearGradient id="G" x1="310.89" x2="-638.94" y1="204.963" y2="-773.277" gradientUnits="userSpaceOnUse"><stop stop-color="#B6509E"/><stop offset="1" stop-color="#2EBAC6"/></linearGradient><linearGradient id="H" x1="57.625" x2="16.161" y1="23.836" y2="-9.531" gradientUnits="userSpaceOnUse"><stop stop-color="#B6509E"/><stop offset="1" stop-color="#2EBAC6"/></linearGradient><clipPath id="I"><circle cx="24" cy="24" r="21"/></clipPath><clipPath id="a"><path fill="#fff" d="M0 0h48v48H0z"/></clipPath></defs></svg>