<svg xmlns="http://www.w3.org/2000/svg" xml:space="preserve" id="Слой_1" width="48" height="48" version="1.1" viewBox="0 0 48 48"><style id="style1" type="text/css">.st39{fill:none}</style><g id="g68" transform="translate(4.78 4.788)scale(.07685)"><g id="g67"><g id="g6"><g id="g1"><path id="path1" d="M407.4 250c-.3 3.8-.5 7.5-.7 11.3-.1 1.9 0 3.8-.3 5.6l-.9 5.5c-.7 3.7-.8 7.5-1.8 11.1s-1.9 7.2-2.8 10.8c-.3 1.8-1 3.6-1.7 5.3l-2 5.2-1.9 5.3c-.6 1.8-1.6 3.4-2.4 5.1l-4.8 10.1c-2 3.2-4 6.3-5.9 9.6l130.2 83.9 11.5-19.1c3.4-6.6 6.6-13.3 9.8-20 1.5-3.4 3.3-6.7 4.6-10.2l3.9-10.5 3.8-10.5c1.3-3.5 2.5-7 3.4-10.6l5.5-21.6c1.8-7.2 2.5-14.6 3.8-22l1.6-11c.5-3.7.5-7.4.8-11.1l1-22.2z" class="st39"/></g><linearGradient id="SVGID_00000104708511086881872630000014844121601543802027_" x1="482.791" x2="68.039" y1="377.153" y2="43.389" gradientUnits="userSpaceOnUse"><stop id="stop1" offset="0" style="stop-color:#b6509e"/><stop id="stop2" offset="1" style="stop-color:#2ebac6"/></linearGradient><path id="path2" d="m469 348.6-14.1-6.4c-3.6 7.1-6.5 14.5-11 21.1l13.4 7.8c4.7-7 7.9-14.9 11.7-22.5" style="clip-rule:evenodd;fill:url(#SVGID_00000104708511086881872630000014844121601543802027_);fill-rule:evenodd"/><linearGradient id="SVGID_00000147179263232614892750000003495048998020798140_" x1="509.181" x2="94.43" y1="344.359" y2="10.594" gradientUnits="userSpaceOnUse"><stop id="stop3" offset="0" style="stop-color:#b6509e"/><stop id="stop4" offset="1" style="stop-color:#2ebac6"/></linearGradient><path id="path4" d="m483.6 305.4-15.1-3.6c-2 7.7-3.6 15.5-6.7 22.8l14.6 5.1c3.3-7.8 5.1-16.1 7.2-24.3" style="clip-rule:evenodd;fill:url(#SVGID_00000147179263232614892750000003495048998020798140_);fill-rule:evenodd"/><linearGradient id="SVGID_00000154384627953943653370000009301978914104084362_" x1="533.46" x2="118.708" y1="314.189" y2="-19.576" gradientUnits="userSpaceOnUse"><stop id="stop5" offset="0" style="stop-color:#b6509e"/><stop id="stop6" offset="1" style="stop-color:#2ebac6"/></linearGradient><path id="path6" d="m489.8 260.4-15.5-.7-.6 11.9c-.3 4-1.1 7.9-1.7 11.8l15.3 2.3c.6-4.2 1.4-8.4 1.8-12.6z" style="clip-rule:evenodd;fill:url(#SVGID_00000154384627953943653370000009301978914104084362_);fill-rule:evenodd"/></g><g id="g12"><g id="g7"><path id="path7" d="M382.3 334.9c-16.2 25.2-39.8 45.8-67 58.1l64.4 140.9c54.2-24.6 100.7-65.1 132.8-115.1z" class="st39"/></g><linearGradient id="SVGID_00000091737110006325924560000006426042477305407383_" x1="400.601" x2="-14.151" y1="479.286" y2="145.521" gradientUnits="userSpaceOnUse"><stop id="stop7" offset="0" style="stop-color:#b6509e"/><stop id="stop8" offset="1" style="stop-color:#2ebac6"/></linearGradient><path id="polygon8" d="m362.3 444.5-5.1 3.1-5.4 2.6 7.1 13.8 5.7-2.8 5.5-3.3 10.8-6.6-8.4-12.9z" style="clip-rule:evenodd;fill:url(#SVGID_00000091737110006325924560000006426042477305407383_);fill-rule:evenodd"/><linearGradient id="SVGID_00000023276711056447914070000011818503130533663874_" x1="427.188" x2="12.436" y1="446.248" y2="112.483" gradientUnits="userSpaceOnUse"><stop id="stop9" offset="0" style="stop-color:#b6509e"/><stop id="stop10" offset="1" style="stop-color:#2ebac6"/></linearGradient><path id="path10" d="m416.6 422.9-10.7-11.2-8.8 8c-1.5 1.3-2.9 2.7-4.4 4l-4.8 3.6 9.5 12.2 5.1-3.8c1.6-1.4 3.2-2.8 4.7-4.2z" style="clip-rule:evenodd;fill:url(#SVGID_00000023276711056447914070000011818503130533663874_);fill-rule:evenodd"/><linearGradient id="SVGID_00000134224490732016085270000001901616526776264596_" x1="454.922" x2="40.17" y1="411.784" y2="78.019" gradientUnits="userSpaceOnUse"><stop id="stop11" offset="0" style="stop-color:#b6509e"/><stop id="stop12" offset="1" style="stop-color:#2ebac6"/></linearGradient><path id="path12" d="m446.2 388.4-12.7-8.9c-4.9 6.2-9.2 13-14.8 18.7l11.6 10.2c6.1-6.1 10.7-13.3 15.9-20" style="clip-rule:evenodd;fill:url(#SVGID_00000134224490732016085270000001901616526776264596_);fill-rule:evenodd"/></g><g id="g18"><g id="g13"><path id="path13" d="M315.3 393c-13.6 6-27.9 10.8-42.8 12.5l-5.5.9c-1.9.3-3.8.2-5.6.3-3.8.2-7.5.4-11.3.7-3.8-.3-7.5-.5-11.3-.7-1.9-.1-3.8 0-5.6-.3l-5.5-.9-21.9 153.4 11 1.6c3.7.5 7.4.5 11.1.8l22.2 1 22.2-1c3.7-.3 7.4-.3 11.1-.8l11-1.6c29.5-3.7 58.3-12.8 85.4-25z" class="st39"/></g><linearGradient id="SVGID_00000090996555707112800340000017514516171555815814_" x1="335.624" x2="-79.128" y1="560.03" y2="226.265" gradientUnits="userSpaceOnUse"><stop id="stop13" offset="0" style="stop-color:#b6509e"/><stop id="stop14" offset="1" style="stop-color:#2ebac6"/></linearGradient><path id="path14" d="m251.3 490.2-.1-15.5c-7.9-.2-15.9-.8-23.8-1.1l-1.5 15.4c8.4.5 16.9 1.1 25.4 1.2" style="clip-rule:evenodd;fill:url(#SVGID_00000090996555707112800340000017514516171555815814_);fill-rule:evenodd"/><linearGradient id="SVGID_00000001654109847398355510000014461126482698818221_" x1="353.943" x2="-60.809" y1="537.265" y2="203.501" gradientUnits="userSpaceOnUse"><stop id="stop15" offset="0" style="stop-color:#b6509e"/><stop id="stop16" offset="1" style="stop-color:#2ebac6"/></linearGradient><path id="path16" d="m296.7 485.7-3-15.2c-7.9 1-15.7 2.7-23.6 3.3l1.4 15.4c8.4-.7 16.8-2.4 25.2-3.5" style="clip-rule:evenodd;fill:url(#SVGID_00000001654109847398355510000014461126482698818221_);fill-rule:evenodd"/><linearGradient id="SVGID_00000082365719043996990750000000380436505949655995_" x1="375.751" x2="-39.001" y1="510.165" y2="176.4" gradientUnits="userSpaceOnUse"><stop id="stop17" offset="0" style="stop-color:#b6509e"/><stop id="stop18" offset="1" style="stop-color:#2ebac6"/></linearGradient><path id="path18" d="m340.2 472.6-5.8-14.4-11.2 4.1-5.6 2.1c-1.9.7-3.8 1-5.7 1.6l4.3 14.9c2-.6 4.1-1 6.1-1.7l6-2.2z" style="clip-rule:evenodd;fill:url(#SVGID_00000082365719043996990750000000380436505949655995_);fill-rule:evenodd"/></g><g id="g24"><g id="g19"><path id="path19" d="M227.6 405.5c-14.9-1.6-29.2-6.5-42.8-12.5l-10.1-4.8c-3.2-2-6.3-4-9.6-5.9-3.4-1.7-6.1-4.3-9.2-6.5-3-2.3-6.2-4.3-8.8-7l-101.5 117c44.7 38.9 101.1 65 160.1 73z" class="st39"/></g><linearGradient id="SVGID_00000176002008217702801830000010623875381781764515_" x1="308.152" x2="-106.599" y1="594.167" y2="260.402" gradientUnits="userSpaceOnUse"><stop id="stop19" offset="0" style="stop-color:#b6509e"/><stop id="stop20" offset="1" style="stop-color:#2ebac6"/></linearGradient><path id="polygon20" d="m124.5 436.5-4.8-3.5-9.5-7.2-9.7 12.2 10.2 7.6 5.1 3.8 5.5 3.3 8.3-13.1z" style="clip-rule:evenodd;fill:url(#SVGID_00000176002008217702801830000010623875381781764515_);fill-rule:evenodd"/><linearGradient id="SVGID_00000092444432135618381070000000326992058120110750_" x1="312.308" x2="-102.444" y1="589.003" y2="255.238" gradientUnits="userSpaceOnUse"><stop id="stop21" offset="0" style="stop-color:#b6509e"/><stop id="stop22" offset="1" style="stop-color:#2ebac6"/></linearGradient><path id="path22" d="m161.9 473.4 5.7-14.4c-1.9-.7-3.8-1.3-5.6-2.1l-5.4-2.6-10.7-5.2-7.2 13.7 11.5 5.5 5.7 2.8c2 .9 4 1.5 6 2.3" style="clip-rule:evenodd;fill:url(#SVGID_00000092444432135618381070000000326992058120110750_);fill-rule:evenodd"/><linearGradient id="SVGID_00000070103972701577133060000011142479575005581992_" x1="321.517" x2="-93.235" y1="577.559" y2="243.794" gradientUnits="userSpaceOnUse"><stop id="stop23" offset="0" style="stop-color:#b6509e"/><stop id="stop24" offset="1" style="stop-color:#2ebac6"/></linearGradient><path id="path24" d="m205.6 486 2.9-15.2c-4-.4-7.8-1.7-11.6-2.6l-11.5-3-4.5 14.8 12.3 3.2c4.1 1 8.1 2.4 12.4 2.8" style="clip-rule:evenodd;fill:url(#SVGID_00000070103972701577133060000011142479575005581992_);fill-rule:evenodd"/></g><g id="g30"><g id="g25"><path id="path25" d="M147.1 368.8c-22.8-19.6-39.5-45.9-48-74.5l-148.6 43.6c.9 3.6 2 7.2 3.4 10.6l3.8 10.5 3.9 10.5c1.3 3.5 3.1 6.8 4.6 10.2 3.2 6.7 6.4 13.4 9.8 20l11.5 19.1C-8.8 425.3-4.1 431 .3 437c4.5 5.9 8.8 12 13.9 17.4l15 16.4 16.4 15z" class="st39"/></g><linearGradient id="SVGID_00000003794775683124157800000011913993280982961829_" x1="326.474" x2="-88.278" y1="571.4" y2="237.635" gradientUnits="userSpaceOnUse"><stop id="stop25" offset="0" style="stop-color:#b6509e"/><stop id="stop26" offset="1" style="stop-color:#2ebac6"/></linearGradient><path id="path26" d="m32.1 350.9 14.1-6.5c-3.8-7-6-14.7-8.9-22.1l-14.7 5c3.1 7.9 5.5 16.1 9.5 23.6" style="clip-rule:evenodd;fill:url(#SVGID_00000003794775683124157800000011913993280982961829_);fill-rule:evenodd"/><linearGradient id="SVGID_00000104672211666729212850000016548978226426177681_" x1="315.329" x2="-99.423" y1="585.249" y2="251.484" gradientUnits="userSpaceOnUse"><stop id="stop27" offset="0" style="stop-color:#b6509e"/><stop id="stop28" offset="1" style="stop-color:#2ebac6"/></linearGradient><path id="path28" d="m55.2 390.3 12.6-9.1c-5.1-6.1-8.6-13.3-12.9-20l-13.5 7.7c4.5 7.2 8.4 14.8 13.8 21.4" style="clip-rule:evenodd;fill:url(#SVGID_00000104672211666729212850000016548978226426177681_);fill-rule:evenodd"/><linearGradient id="SVGID_00000148625317021203904910000009879789421656095403_" x1="309.172" x2="-105.58" y1="592.899" y2="259.135" gradientUnits="userSpaceOnUse"><stop id="stop29" offset="0" style="stop-color:#b6509e"/><stop id="stop30" offset="1" style="stop-color:#2ebac6"/></linearGradient><path id="path30" d="m85.1 424.5 10.6-11.3-4.4-4c-1.4-1.4-2.7-2.9-4-4.4l-8-8.8-11.8 10.1 8.6 9.4c1.4 1.6 2.8 3.2 4.3 4.7z" style="clip-rule:evenodd;fill:url(#SVGID_00000148625317021203904910000009879789421656095403_);fill-rule:evenodd"/></g><g id="g36"><g id="g31"><path id="path31" d="M99.1 294.3c-.9-3.6-1.8-7.2-2.8-10.8s-1.1-7.4-1.8-11.1l-.9-5.5c-.3-1.9-.2-3.8-.3-5.6-.2-3.8-.4-7.5-.7-11.3.3-3.8.5-7.5.7-11.3.1-1.9 0-3.8.3-5.6l.9-5.5c.7-3.7.8-7.5 1.8-11.1s1.9-7.2 2.8-10.8l-148.6-43.6-5.5 21.6c-1.8 7.2-2.5 14.6-3.8 22l-1.6 11c-.5 3.7-.5 7.4-.8 11.1l-1 22.2 1 22.2c.3 3.7.3 7.4.8 11.1l1.6 11c1.2 7.3 2 14.7 3.8 22l5.5 21.6z" class="st39"/></g><linearGradient id="SVGID_00000058550949854323963940000013213978808942152090_" x1="385.064" x2="-29.688" y1="498.568" y2="164.803" gradientUnits="userSpaceOnUse"><stop id="stop31" offset="0" style="stop-color:#b6509e"/><stop id="stop32" offset="1" style="stop-color:#2ebac6"/></linearGradient><path id="path32" d="m12.2 217.1 15.3 2.1 1.8-11.8c.4-4 1.8-7.7 2.7-11.6l-15-3.7c-.9 4.1-2.4 8.2-2.9 12.4z" style="clip-rule:evenodd;fill:url(#SVGID_00000058550949854323963940000013213978808942152090_);fill-rule:evenodd"/><linearGradient id="SVGID_00000148622084711658347150000016511535402227943326_" x1="362.065" x2="-52.687" y1="527.172" y2="193.407" gradientUnits="userSpaceOnUse"><stop id="stop33" offset="0" style="stop-color:#b6509e"/><stop id="stop34" offset="1" style="stop-color:#2ebac6"/></linearGradient><path id="polygon34" d="m10.3 237.2-.6 12.7.6 12.8 15.5-.8-.6-12 .6-11.9z" style="clip-rule:evenodd;fill:url(#SVGID_00000148622084711658347150000016511535402227943326_);fill-rule:evenodd"/><linearGradient id="SVGID_00000101083443461405630530000006842283544465970837_" x1="342.348" x2="-72.404" y1="551.674" y2="217.909" gradientUnits="userSpaceOnUse"><stop id="stop35" offset="0" style="stop-color:#b6509e"/><stop id="stop36" offset="1" style="stop-color:#2ebac6"/></linearGradient><path id="path36" d="m16.9 307.6 15-3.7c-2.3-7.6-3.3-15.5-4.5-23.4L12 282.6c1.5 8.4 2.5 16.8 4.9 25" style="clip-rule:evenodd;fill:url(#SVGID_00000101083443461405630530000006842283544465970837_);fill-rule:evenodd"/></g><g id="g42"><g id="g37"><path id="path37" d="M99.1 205.7c8.5-28.6 25.2-54.8 48-74.5L45.6 14.2l-16.4 15-15 16.4C9 51 4.7 57.1.3 63c-4.4 6-9.1 11.8-12.8 18.2L-24 100.3c-3.4 6.6-6.6 13.3-9.8 20-1.5 3.4-3.3 6.7-4.6 10.2l-3.9 10.5-3.8 10.5c-1.3 3.5-2.5 7-3.4 10.6z" class="st39"/></g><linearGradient id="SVGID_00000002376137640156149470000006679357018455115191_" x1="465.847" x2="51.096" y1="398.208" y2="64.443" gradientUnits="userSpaceOnUse"><stop id="stop37" offset="0" style="stop-color:#b6509e"/><stop id="stop38" offset="1" style="stop-color:#2ebac6"/></linearGradient><path id="path38" d="m67.7 93.7 11.8 10.1 8-8.8c1.4-1.5 2.6-3 4-4.4l4.4-4-10.6-11.2-4.7 4.3c-1.5 1.5-2.9 3.1-4.3 4.7z" style="clip-rule:evenodd;fill:url(#SVGID_00000002376137640156149470000006679357018455115191_);fill-rule:evenodd"/><linearGradient id="SVGID_00000066483276125556409010000015182069227145532805_" x1="437.715" x2="22.963" y1="433.167" y2="99.402" gradientUnits="userSpaceOnUse"><stop id="stop39" offset="0" style="stop-color:#b6509e"/><stop id="stop40" offset="1" style="stop-color:#2ebac6"/></linearGradient><path id="path40" d="m41.4 131 13.4 7.7c4.3-6.7 7.9-13.8 12.9-20l-12.6-9.1c-5.3 6.6-9.1 14.2-13.7 21.4" style="clip-rule:evenodd;fill:url(#SVGID_00000066483276125556409010000015182069227145532805_);fill-rule:evenodd"/><linearGradient id="SVGID_00000005264282004135174270000000348760371301044121_" x1="410.748" x2="-4.003" y1="466.676" y2="132.911" gradientUnits="userSpaceOnUse"><stop id="stop41" offset="0" style="stop-color:#b6509e"/><stop id="stop42" offset="1" style="stop-color:#2ebac6"/></linearGradient><path id="path42" d="m22.7 172.4 14.7 5c2.8-7.4 5.1-15.1 8.9-22.1l-14-6.5c-4.1 7.6-6.6 15.7-9.6 23.6" style="clip-rule:evenodd;fill:url(#SVGID_00000005264282004135174270000000348760371301044121_);fill-rule:evenodd"/></g><g id="g48"><g id="g43"><path id="path43" d="M147.1 131.2c2.6-2.7 5.8-4.7 8.8-7 3.1-2.2 5.8-4.8 9.2-6.5 3.2-1.9 6.4-3.9 9.6-5.9l10.1-4.8c13.6-6 27.9-10.8 42.8-12.5L205.7-58.8c-59 8-115.3 34.2-160.1 73z" class="st39"/></g><linearGradient id="SVGID_00000142877909234072922670000012744162597170337698_" x1="542.268" x2="127.516" y1="303.244" y2="-30.52" gradientUnits="userSpaceOnUse"><stop id="stop43" offset="0" style="stop-color:#b6509e"/><stop id="stop44" offset="1" style="stop-color:#2ebac6"/></linearGradient><path id="path44" d="m181.1 19.9 4.4 14.8 11.5-3c3.9-.9 7.7-2.2 11.6-2.6l-2.8-15.2c-4.2.5-8.3 1.7-12.4 2.7z" style="clip-rule:evenodd;fill:url(#SVGID_00000142877909234072922670000012744162597170337698_);fill-rule:evenodd"/><linearGradient id="SVGID_00000106857675396471537470000011430115657239397250_" x1="518.877" x2="104.126" y1="332.31" y2="-1.455" gradientUnits="userSpaceOnUse"><stop id="stop45" offset="0" style="stop-color:#b6509e"/><stop id="stop46" offset="1" style="stop-color:#2ebac6"/></linearGradient><path id="path46" d="m138.8 37.1 7.2 13.7 10.7-5.2 5.4-2.6c1.8-.8 3.7-1.4 5.6-2.1L162 26.6c-2 .7-4 1.4-6 2.2l-5.7 2.8z" style="clip-rule:evenodd;fill:url(#SVGID_00000106857675396471537470000011430115657239397250_);fill-rule:evenodd"/><linearGradient id="SVGID_00000103977686473083600680000014298624371071771265_" x1="493.213" x2="78.462" y1="364.201" y2="30.437" gradientUnits="userSpaceOnUse"><stop id="stop47" offset="0" style="stop-color:#b6509e"/><stop id="stop48" offset="1" style="stop-color:#2ebac6"/></linearGradient><path id="path48" d="m100.7 61.9 9.6 12.1 9.5-7.1c1.6-1.2 3.2-2.4 4.8-3.5l5.1-3.1-8.3-13.1-5.4 3.3c-1.8 1.2-3.4 2.5-5.1 3.8z" style="clip-rule:evenodd;fill:url(#SVGID_00000103977686473083600680000014298624371071771265_);fill-rule:evenodd"/></g><g id="g54"><g id="g49"><path id="path49" d="m227.6 94.5 5.5-.9c1.9-.3 3.8-.2 5.6-.3 3.8-.2 7.5-.4 11.3-.7 3.8.3 7.5.5 11.3.7 1.9.1 3.8 0 5.6.3l5.5.9c14.9 1.6 29.2 6.5 42.8 12.5l64.4-140.9c-27.1-12.2-55.8-21.3-85.4-25l-11-1.6c-3.7-.5-7.4-.5-11.1-.8l-22.2-1-22.2 1c-3.7.3-7.4.3-11.1.8l-11 1.6z" class="st39"/></g><linearGradient id="SVGID_00000052103213530023177160000002944217849268693427_" x1="590.461" x2="175.71" y1="243.356" y2="-90.409" gradientUnits="userSpaceOnUse"><stop id="stop49" offset="0" style="stop-color:#b6509e"/><stop id="stop50" offset="1" style="stop-color:#2ebac6"/></linearGradient><path id="path50" d="m316.4 19.2-4.3 14.9c3.9.8 7.6 2.2 11.3 3.6l11.2 4.1 5.8-14.3-12-4.4c-3.8-1.5-7.8-3-12-3.9" style="clip-rule:evenodd;fill:url(#SVGID_00000052103213530023177160000002944217849268693427_);fill-rule:evenodd"/><linearGradient id="SVGID_00000168113226916419175950000014654502115656089231_" x1="578.768" x2="164.016" y1="257.887" y2="-75.877" gradientUnits="userSpaceOnUse"><stop id="stop51" offset="0" style="stop-color:#b6509e"/><stop id="stop52" offset="1" style="stop-color:#2ebac6"/></linearGradient><path id="path52" d="m271.6 10.8-1.4 15.4c7.9.6 15.7 2.3 23.6 3.3l3-15.2c-8.4-1.1-16.8-2.8-25.2-3.5" style="clip-rule:evenodd;fill:url(#SVGID_00000168113226916419175950000014654502115656089231_);fill-rule:evenodd"/><linearGradient id="SVGID_00000032624055548118906680000017923149123676298943_" x1="562.599" x2="147.847" y1="277.979" y2="-55.785" gradientUnits="userSpaceOnUse"><stop id="stop53" offset="0" style="stop-color:#b6509e"/><stop id="stop54" offset="1" style="stop-color:#2ebac6"/></linearGradient><path id="path54" d="m226.1 10.9 1.5 15.4c7.9-.3 15.9-.9 23.8-1.1l.1-15.5c-8.4.2-16.9.8-25.4 1.2" style="clip-rule:evenodd;fill:url(#SVGID_00000032624055548118906680000017923149123676298943_);fill-rule:evenodd"/></g><g id="g60"><g id="g55"><path id="path55" d="M315.3 107c27.2 12.3 50.8 32.9 67 58.1l130.2-83.9C480.4 31.3 433.9-9.2 379.7-33.9Z" class="st39"/></g><linearGradient id="SVGID_00000064347573839370157820000017572030898596083878_" x1="595.196" x2="180.444" y1="237.473" y2="-96.292" gradientUnits="userSpaceOnUse"><stop id="stop55" offset="0" style="stop-color:#b6509e"/><stop id="stop56" offset="1" style="stop-color:#2ebac6"/></linearGradient><path id="path56" d="M430.6 91.8 418.9 102l4 4.4c1.3 1.5 2.4 3.2 3.6 4.7l7.1 9.5 12.7-8.9-7.6-10.2c-1.3-1.7-2.5-3.4-3.9-5z" style="clip-rule:evenodd;fill:url(#SVGID_00000064347573839370157820000017572030898596083878_);fill-rule:evenodd"/><linearGradient id="SVGID_00000055708723406501865340000017864807875619820717_" x1="598.848" x2="184.096" y1="232.934" y2="-100.83" gradientUnits="userSpaceOnUse"><stop id="stop57" offset="0" style="stop-color:#b6509e"/><stop id="stop58" offset="1" style="stop-color:#2ebac6"/></linearGradient><path id="path58" d="m397.4 60.5-9.5 12.2 4.8 3.6c1.5 1.3 2.9 2.7 4.4 4l8.8 8 10.8-11.2-9.4-8.6c-1.6-1.4-3.1-2.9-4.7-4.2z" style="clip-rule:evenodd;fill:url(#SVGID_00000055708723406501865340000017864807875619820717_);fill-rule:evenodd"/><linearGradient id="SVGID_00000003096860706853110920000000256122463884852656_" x1="597.237" x2="182.486" y1="234.936" y2="-98.829" gradientUnits="userSpaceOnUse"><stop id="stop59" offset="0" style="stop-color:#b6509e"/><stop id="stop60" offset="1" style="stop-color:#2ebac6"/></linearGradient><path id="polygon60" d="m357.4 52.5 5.1 3.1 10.2 6.2 8.5-13-10.9-6.6-5.5-3.3-5.7-2.8-7 13.8z" style="clip-rule:evenodd;fill:url(#SVGID_00000003096860706853110920000000256122463884852656_);fill-rule:evenodd"/></g><g id="g66"><g id="g61"><path id="path60" d="M382.3 165.1c1.9 3.2 3.9 6.4 5.9 9.6l4.8 10.1c.8 1.7 1.8 3.3 2.4 5.1l1.9 5.3 2 5.2c.7 1.7 1.4 3.5 1.7 5.3.9 3.6 1.8 7.2 2.8 10.8s1.1 7.4 1.8 11.1l.9 5.5c.3 1.9.2 3.8.3 5.6.2 3.8.4 7.5.7 11.3h154.9l-1-22.2c-.3-3.7-.3-7.4-.8-11.1l-1.6-11c-1.2-7.3-2-14.7-3.8-22l-5.5-21.6c-.9-3.6-2-7.2-3.4-10.6l-3.8-10.5-3.9-10.5c-1.3-3.5-3.1-6.8-4.6-10.2-3.2-6.7-6.4-13.4-9.8-20l-11.5-19.1Z" class="st39"/></g><linearGradient id="SVGID_00000081649527427247603540000013030321784522334646_" x1="555.106" x2="140.354" y1="287.291" y2="-46.474" gradientUnits="userSpaceOnUse"><stop id="stop61" offset="0" style="stop-color:#b6509e"/><stop id="stop62" offset="1" style="stop-color:#2ebac6"/></linearGradient><path id="path62" d="m487.4 214.6-15.3 2.3c.5 3.9 1.4 7.8 1.6 11.8l.6 11.9 15.5-.6-.6-12.7c-.4-4.4-1.2-8.5-1.8-12.7" style="clip-rule:evenodd;fill:url(#SVGID_00000081649527427247603540000013030321784522334646_);fill-rule:evenodd"/><linearGradient id="SVGID_00000178895552897056328320000005882026752739807421_" x1="572.959" x2="158.207" y1="265.106" y2="-68.659" gradientUnits="userSpaceOnUse"><stop id="stop63" offset="0" style="stop-color:#b6509e"/><stop id="stop64" offset="1" style="stop-color:#2ebac6"/></linearGradient><path id="path64" d="m476.5 170.3-14.6 5.1c3.1 7.3 4.7 15.2 6.7 22.8l15.1-3.6c-2.2-8.1-4-16.4-7.2-24.3" style="clip-rule:evenodd;fill:url(#SVGID_00000178895552897056328320000005882026752739807421_);fill-rule:evenodd"/><linearGradient id="SVGID_00000159430980987490825690000002652148113673706165_" x1="586.44" x2="171.688" y1="248.353" y2="-85.411" gradientUnits="userSpaceOnUse"><stop id="stop65" offset="0" style="stop-color:#b6509e"/><stop id="stop66" offset="1" style="stop-color:#2ebac6"/></linearGradient><path id="path66" d="m457.4 129.1-13.4 7.8c4.5 6.6 7.3 14.1 10.9 21.1l14.1-6.4c-3.7-7.5-6.9-15.5-11.6-22.5" style="clip-rule:evenodd;fill:url(#SVGID_00000159430980987490825690000002652148113673706165_);fill-rule:evenodd"/></g></g></g><svg xmlns="http://www.w3.org/2000/svg" width="30" height="30" x="9" y="9" fill="none" viewBox="0 0 256 256"><g clip-path="url(#a)"><path fill="#fff" d="M256 128C256 57.308 198.692 0 128 0S0 57.308 0 128s57.308 128 128 128 128-57.308 128-128"/><path fill="#2C2C2E" d="M131.799 192.285v-10.969l27.09-15.955v-32.576l9.806-5.152.333 43.378z"/><path fill="#2C2C2E" d="m139.61 112.176 11.136-6.315 27.423 17.285.166 52.186-9.307-4.321-.333-43.378zm-8.309-59.831 46.702 26.758V90.24l-46.702-26.26zm-46.371 81.77-.165-54.513L131.3 52.179v11.634L93.407 85.419v42.547z"/><path fill="#2C2C2E" d="m112.354 149.406-27.423-15.291 8.476-6.315 47.035 27.09-28.088 15.956-9.307 5.318 28.752 16.287 37.229-21.439 9.307 4.321-46.868 27.921-46.536-26.591 37.063-21.939zM93.407 85.419l37.894-21.44 46.702 26.26-27.257 15.622-11.135 6.316 28.918 15.456-9.639 5.153-37.229-21.108 37.063-21.938-8.809-5.152-18.448-10.637-27.589 15.955z"/><path fill="#2C2C2E" d="m103.046 176.164 9.308-5.319 19.279 10.637v10.969zm-17.949.499v-11.634l27.257-15.623 9.806 5.318zm36.564-64.985.166-11.135 28.088-15.79 8.809 5.153zm-28.254 16.288.166-42.547 10.305 4.654.166 33.406 36.398 20.276v11.468z"/><path fill="#fff" fill-rule="evenodd" d="M168.952 127.204a.5.5 0 0 1 .243.425l.333 43.379a.5.5 0 0 1-.252.438l-37.229 21.273a.5.5 0 0 1-.748-.434v-10.969a.5.5 0 0 1 .246-.431l26.844-15.81v-32.29c0-.185.103-.356.268-.442l9.806-5.152a.5.5 0 0 1 .489.013m-9.563 5.884v32.273a.5.5 0 0 1-.246.43l-26.844 15.811v9.821l36.226-20.7-.324-42.265z" clip-rule="evenodd"/><path fill="#fff" fill-rule="evenodd" d="M150.499 105.426a.5.5 0 0 1 .513.012l27.423 17.285a.5.5 0 0 1 .234.421l.166 52.187a.5.5 0 0 1-.711.455l-9.307-4.321a.5.5 0 0 1-.289-.45l-.33-43.08-28.822-15.317a.5.5 0 0 1-.012-.876zm-9.85 6.736 28.281 15.029a.5.5 0 0 1 .265.438l.33 43.062 8.307 3.857-.162-51.126-26.938-16.979zm-9.599-60.249a.5.5 0 0 1 .499-.002l46.702 26.758a.5.5 0 0 1 .252.434V90.24a.5.5 0 0 1-.745.436l-46.702-26.26a.5.5 0 0 1-.255-.436V52.345a.5.5 0 0 1 .249-.432m.751 1.295v10.479l45.702 25.697v-9.99z" clip-rule="evenodd"/><path fill="#fff" fill-rule="evenodd" d="M131.549 51.745a.5.5 0 0 1 .252.434v11.634a.5.5 0 0 1-.253.434L93.907 85.709v42.257a.5.5 0 0 1-.206.404l-8.476 6.15a.5.5 0 0 1-.794-.403l-.166-54.514a.5.5 0 0 1 .246-.432l46.536-27.423a.5.5 0 0 1 .502-.003M85.265 79.887l.163 53.25 7.479-5.426V85.419a.5.5 0 0 1 .252-.435l37.642-21.462V53.054L85.266 79.887Z" clip-rule="evenodd"/><path fill="#fff" fill-rule="evenodd" d="M93.109 127.399a.5.5 0 0 1 .548-.032l47.034 27.09a.5.5 0 0 1-.002.868l-28.087 15.955-8.544 4.882 27.739 15.714 36.982-21.298a.5.5 0 0 1 .46-.02l9.307 4.321a.502.502 0 0 1 .045.883l-46.868 27.922a.5.5 0 0 1-.504.005l-46.536-26.592a.502.502 0 0 1-.007-.865l36.31-21.493-8.873-4.895-.002-.002-27.423-15.29a.5.5 0 0 1-.056-.838zm.334.998-7.594 5.658 26.747 14.913.002.001 9.637 5.317a.5.5 0 0 1 .013.868l-36.322 21.501 45.536 26.021 45.804-27.288-8.213-3.814-37.004 21.311a.5.5 0 0 1-.496.002L102.8 176.599a.5.5 0 0 1-.001-.869l9.308-5.319 27.328-15.524zm37.612-64.853a.5.5 0 0 1 .491 0l46.702 26.259a.5.5 0 0 1 .003.87l-27.256 15.622-.002.001-10.346 5.868 28.118 15.029a.499.499 0 0 1 0 .881l-9.639 5.153a.5.5 0 0 1-.483-.006l-37.228-21.108a.5.5 0 0 1-.009-.865l36.332-21.505-8.073-4.722-.002-.002-18.196-10.49-27.339 15.81a.5.5 0 0 1-.447.027l-10.47-4.488a.5.5 0 0 1-.05-.894zm.247 1.01-36.77 20.803 9.312 3.99 27.373-15.829a.5.5 0 0 1 .5 0l18.451 10.638 8.808 5.152a.5.5 0 0 1 .002.862l-36.319 21.499 36.238 20.546 8.572-4.582-28.094-15.015a.5.5 0 0 1-.011-.876l11.133-6.314.002-.002 26.491-15.183-45.688-25.69Z" clip-rule="evenodd"/><path fill="#fff" fill-rule="evenodd" d="M112.105 170.411a.5.5 0 0 1 .49-.004l19.279 10.637a.5.5 0 0 1 .259.438v10.969a.5.5 0 0 1-.748.435l-28.586-16.288a.5.5 0 0 1-.001-.869zm.253 1.008-8.303 4.744 27.078 15.428v-9.814zm-.253-22.447a.5.5 0 0 1 .487-.006l9.806 5.319a.501.501 0 0 1 .016.869l-37.062 21.939a.501.501 0 0 1-.755-.43v-11.634a.5.5 0 0 1 .252-.434zm.256 1.006-26.764 15.34v10.468l35.549-21.043zm37.309-65.66a.5.5 0 0 1 .498.004l8.808 5.153a.5.5 0 0 1 .001.863l-37.063 21.771a.498.498 0 0 1-.753-.438l.166-11.136a.5.5 0 0 1 .255-.428zm-27.347 16.52-.149 9.959 35.561-20.89-7.825-4.577zm-29.02-15.84a.5.5 0 0 1 .476-.035l10.305 4.654a.5.5 0 0 1 .294.453l.165 33.114 36.142 20.134a.5.5 0 0 1 .257.437v11.468a.5.5 0 0 1-.751.432l-47.035-27.256a.5.5 0 0 1-.249-.435l.166-42.547a.5.5 0 0 1 .23-.419m.767 1.194-.162 41.487 46.034 26.676v-10.306l-36.141-20.134a.5.5 0 0 1-.257-.434l-.165-33.085z" clip-rule="evenodd"/><path stroke="#fff" stroke-width="1.2" d="M243.2 128c0-63.623-51.577-115.2-115.2-115.2S12.8 64.377 12.8 128 64.377 243.2 128 243.2 243.2 191.623 243.2 128Z"/></g><defs><clipPath id="a"><path fill="#fff" d="M0 0h256v256H0z"/></clipPath></defs></svg></svg>