<svg xmlns="http://www.w3.org/2000/svg" width="48" height="48" fill="none" viewBox="0 0 48 48"><g clip-path="url(#clip0_85_112)"><path fill="url(#paint0_linear_85_112)" fill-rule="evenodd" d="m45.884 33.858-1.41-.64c-.36.71-.65 1.45-1.1 2.11l1.34.78c.47-.7.79-1.49 1.17-2.25" clip-rule="evenodd"/><path fill="url(#paint1_linear_85_112)" fill-rule="evenodd" d="m47.344 29.539-1.51-.36c-.2.77-.36 1.55-.67 2.28l1.46.51c.33-.78.51-1.61.72-2.43" clip-rule="evenodd"/><path fill="url(#paint2_linear_85_112)" fill-rule="evenodd" d="m47.964 25.04-1.55-.07-.06 1.19c-.03.4-.11.79-.17 1.18l1.53.23c.06-.42.14-.84.18-1.26z" clip-rule="evenodd"/><path fill="url(#paint3_linear_85_112)" fill-rule="evenodd" d="m35.217 43.445-.51.31-.54.26.71 1.38.57-.28.55-.33 1.08-.66-.84-1.29z" clip-rule="evenodd"/><path fill="url(#paint4_linear_85_112)" fill-rule="evenodd" d="m40.646 41.286-1.07-1.12-.88.8c-.15.13-.29.27-.44.4l-.48.36.95 1.22.51-.38c.16-.14.32-.28.47-.42z" clip-rule="evenodd"/><path fill="url(#paint5_linear_85_112)" fill-rule="evenodd" d="m43.605 37.837-1.27-.89c-.49.62-.92 1.3-1.48 1.87l1.16 1.02c.61-.61 1.07-1.33 1.59-2" clip-rule="evenodd"/><path fill="url(#paint6_linear_85_112)" fill-rule="evenodd" d="m24.12 48.014-.01-1.55c-.79-.02-1.59-.08-2.38-.11l-.15 1.54c.84.05 1.69.11 2.54.12" clip-rule="evenodd"/><path fill="url(#paint7_linear_85_112)" fill-rule="evenodd" d="m28.659 47.564-.3-1.52c-.79.1-1.57.27-2.36.33l.14 1.54c.84-.07 1.68-.24 2.52-.35" clip-rule="evenodd"/><path fill="url(#paint8_linear_85_112)" fill-rule="evenodd" d="m33.008 46.254-.58-1.44-1.12.41-.56.21c-.19.07-.38.1-.57.16l.43 1.49c.2-.06.41-.1.61-.17l.6-.22z" clip-rule="evenodd"/><path fill="url(#paint9_linear_85_112)" fill-rule="evenodd" d="m11.444 42.645-.48-.35-.95-.72-.97 1.22 1.53 1.14.55.33.83-1.31z" clip-rule="evenodd"/><path fill="url(#paint10_linear_85_112)" fill-rule="evenodd" d="m15.183 46.334.57-1.44c-.19-.07-.38-.13-.56-.21l-.54-.26-1.07-.519-.72 1.37 1.15.55.57.28c.2.09.4.15.6.23" clip-rule="evenodd"/><path fill="url(#paint11_linear_85_112)" fill-rule="evenodd" d="m19.551 47.594.29-1.52c-.4-.04-.78-.17-1.16-.26l-1.149-.3-.45 1.48 1.23.32c.41.1.81.24 1.24.28" clip-rule="evenodd"/><path fill="url(#paint12_linear_85_112)" fill-rule="evenodd" d="m2.206 34.088 1.41-.65c-.38-.7-.6-1.47-.89-2.21l-1.47.5c.31.79.55 1.61.95 2.36" clip-rule="evenodd"/><path fill="url(#paint13_linear_85_112)" fill-rule="evenodd" d="m4.516 38.027 1.26-.91c-.51-.61-.86-1.33-1.29-2l-1.35.77c.45.72.84 1.48 1.38 2.14" clip-rule="evenodd"/><path fill="url(#paint14_linear_85_112)" fill-rule="evenodd" d="m7.505 41.446 1.06-1.13-.44-.4c-.14-.14-.27-.29-.4-.44l-.8-.88-1.18 1.01.86.94c.14.16.28.32.43.47z" clip-rule="evenodd"/><path fill="url(#paint15_linear_85_112)" fill-rule="evenodd" d="m.217 20.712 1.53.21.18-1.18c.04-.4.18-.77.27-1.16l-1.5-.37c-.09.41-.24.82-.29 1.24z" clip-rule="evenodd"/><path fill="url(#paint16_linear_85_112)" fill-rule="evenodd" d="m.027 22.72-.06 1.27.06 1.28 1.55-.08-.06-1.2.06-1.19z" clip-rule="evenodd"/><path fill="url(#paint17_linear_85_112)" fill-rule="evenodd" d="m.687 29.759 1.5-.37c-.23-.76-.33-1.55-.45-2.34l-1.54.21c.15.84.25 1.68.49 2.5" clip-rule="evenodd"/><path fill="url(#paint18_linear_85_112)" fill-rule="evenodd" d="m5.765 8.375 1.18 1.01.8-.88c.14-.15.26-.3.4-.44l.44-.4-1.06-1.12-.47.43c-.15.15-.29.31-.43.47z" clip-rule="evenodd"/><path fill="url(#paint19_linear_85_112)" fill-rule="evenodd" d="m3.136 12.104 1.34.77c.43-.67.79-1.38 1.29-2l-1.26-.91c-.53.66-.91 1.42-1.37 2.14" clip-rule="evenodd"/><path fill="url(#paint20_linear_85_112)" fill-rule="evenodd" d="m1.266 16.243 1.47.5c.28-.74.51-1.51.89-2.21l-1.4-.65c-.41.76-.66 1.57-.96 2.36" clip-rule="evenodd"/><path fill="url(#paint21_linear_85_112)" fill-rule="evenodd" d="m17.102.997.44 1.48 1.15-.3c.39-.09.77-.22 1.16-.26l-.28-1.52c-.42.05-.83.17-1.24.27z" clip-rule="evenodd"/><path fill="url(#paint22_linear_85_112)" fill-rule="evenodd" d="m12.873 2.716.72 1.37 1.07-.52.54-.26c.18-.08.37-.14.56-.21l-.57-1.43c-.2.07-.4.14-.6.22l-.57.28z" clip-rule="evenodd"/><path fill="url(#paint23_linear_85_112)" fill-rule="evenodd" d="m9.064 5.196.96 1.21.95-.71c.16-.12.32-.24.48-.35l.51-.31-.83-1.31-.54.33c-.18.12-.34.25-.51.38z" clip-rule="evenodd"/><path fill="url(#paint24_linear_85_112)" fill-rule="evenodd" d="m30.628.927-.43 1.49c.39.08.76.22 1.13.36l1.12.41.58-1.43-1.2-.44c-.38-.15-.78-.3-1.2-.39" clip-rule="evenodd"/><path fill="url(#paint25_linear_85_112)" fill-rule="evenodd" d="m26.15.087-.14 1.54c.79.06 1.57.23 2.359.33l.3-1.52c-.84-.11-1.68-.28-2.52-.35" clip-rule="evenodd"/><path fill="url(#paint26_linear_85_112)" fill-rule="evenodd" d="m21.6.097.15 1.54c.79-.03 1.59-.09 2.38-.11l.01-1.55c-.84.02-1.69.08-2.54.12" clip-rule="evenodd"/><path fill="url(#paint27_linear_85_112)" fill-rule="evenodd" d="m42.045 8.185-1.17 1.02.4.44c.13.15.24.32.36.47l.71.95 1.27-.89-.76-1.02c-.13-.17-.25-.34-.39-.5z" clip-rule="evenodd"/><path fill="url(#paint28_linear_85_112)" fill-rule="evenodd" d="m38.726 5.056-.95 1.22.48.36c.15.13.29.27.44.4l.88.799 1.08-1.12-.94-.86c-.16-.14-.31-.29-.47-.42z" clip-rule="evenodd"/><path fill="url(#paint29_linear_85_112)" fill-rule="evenodd" d="m34.727 4.256 1.53.93.85-1.3-1.09-.66-.55-.33-.57-.28-.7 1.38z" clip-rule="evenodd"/><path fill="url(#paint30_linear_85_112)" fill-rule="evenodd" d="m47.724 20.462-1.53.23c.05.39.14.78.16 1.18l.06 1.189 1.55-.06-.06-1.27c-.04-.44-.12-.85-.18-1.27" clip-rule="evenodd"/><path fill="url(#paint31_linear_85_112)" fill-rule="evenodd" d="m46.634 16.033-1.46.51c.31.73.47 1.52.67 2.279l1.51-.36c-.22-.81-.4-1.64-.72-2.43" clip-rule="evenodd"/><path fill="url(#paint32_linear_85_112)" fill-rule="evenodd" d="m44.724 11.914-1.34.78c.45.66.73 1.41 1.09 2.11l1.41-.64c-.37-.75-.69-1.55-1.16-2.25" clip-rule="evenodd"/></g><g clip-path="url(#circleClip)"><svg xmlns="http://www.w3.org/2000/svg" xml:space="preserve" id="TUSD" width="48" height="48" version="1.1" viewBox="0 0 500 500"><style>.st0{fill:#002868}.st1{fill:#fff}</style><path id="Coin_BG" d="M250 500C112.5 500 0 387.5 0 250S112.5 0 250 0s250 112.5 250 250-112.5 250-250 250" class="st0"/><path id="BG_1_" d="M376 400H124c-13.2 0-24-10.8-24-24V124c0-13.2 10.8-24 24-24h252c13.2 0 24 10.8 24 24v252c0 13.2-10.8 24-24 24" class="st1"/><path d="M158.54 369.8c-.79 0-1.43-.72-1.43-1.51v-40.31c0-.79-.64-1.51-1.43-1.51h-14.23c-.8 0-1.51-.64-1.51-1.43v-7.79c0-.79.72-1.51 1.51-1.51h43.8c.79 0 1.51.71 1.51 1.51v7.79c0 .79-.72 1.43-1.51 1.43H171.1c-.79 0-1.51.71-1.51 1.51v40.31c0 .79-.64 1.51-1.43 1.51zm71.94-52.55c0-.79.64-1.51 1.43-1.51h9.54c.79 0 1.51.71 1.51 1.51v27.51c0 16.3-9.22 25.76-23.85 25.76-14.55 0-23.69-9.46-23.69-25.76v-27.51c0-.79.64-1.51 1.43-1.51h9.54c.79 0 1.51.71 1.51 1.51v27.9c0 8.03 4.13 13.75 11.29 13.75s11.29-5.72 11.29-13.75zm56.29 16.14c-1.27 0-1.67-.48-2.15-1.43-1.67-3.9-5.33-6.36-10.89-6.36-5.01 0-9.22 1.75-9.22 5.09 0 3.66 3.9 5.17 12.48 6.2 13.04 1.51 20.51 5.49 20.51 15.82 0 11.61-10.18 17.73-23.21 17.73-11.29 0-20.99-5.49-22.5-17.01-.16-1.11.4-1.51 1.51-1.51h8.75c1.11 0 1.75.48 2.07 1.35 1.19 3.82 5.25 6.76 11.13 6.76 5.17 0 9.7-1.91 9.7-5.96 0-4.85-4.77-5.72-14.31-6.92-10.97-1.43-18.6-4.61-18.6-14.71s8.67-17.33 22.26-17.33c12.24 0 20.75 6.6 22.5 16.46.24 1.11-.08 1.83-1.27 1.83h-8.76zm21.54 36.41c-.79 0-1.43-.72-1.43-1.51v-51.04c0-.79.64-1.51 1.43-1.51h21.62c16.06 0 28.54 11.05 28.54 27.19 0 15.9-12.32 26.87-28.54 26.87zm21.62-10.74c8.67 0 15.42-6.84 15.42-16.3s-6.76-16.3-15.5-16.3h-8.98c-.79 0-1.43.71-1.43 1.51v29.65c0 .79.64 1.43 1.43 1.43h9.06z" class="st0"/><path id="BG" d="M392 286H108c-2.2 0-4-1.8-4-4V124c0-11 9-20 20-20h252c11 0 20 9 20 20v158c0 2.2-1.8 4-4 4" class="st0"/><path id="_x7C_" d="M264.73 253.56h-26c-1.65 0-3-1.35-3-3v-110c0-1.65 1.35-3 3-3h26c1.65 0 3 1.35 3 3v110c0 1.65-1.35 3-3 3" class="st1"/><path id="_x2014_" d="M309 169.56H191c-1.65 0-3-1.35-3-3v-26c0-1.65 1.35-3 3-3h118c1.65 0 3 1.35 3 3v26c0 1.65-1.35 3-3 3" class="st1"/></svg></g><defs><linearGradient id="paint0_linear_85_112" x1="89.53" x2="-825.17" y1="68.3" y2="-779.228" gradientUnits="userSpaceOnUse"><stop stop-color="#B6509E"/><stop offset="1" stop-color="#2EBAC6"/></linearGradient><linearGradient id="paint1_linear_85_112" x1="128.494" x2="-821.333" y1="88.03" y2="-890.21" gradientUnits="userSpaceOnUse"><stop stop-color="#B6509E"/><stop offset="1" stop-color="#2EBAC6"/></linearGradient><linearGradient id="paint2_linear_85_112" x1="208.381" x2="-798.122" y1="123.642" y2="-1059.46" gradientUnits="userSpaceOnUse"><stop stop-color="#B6509E"/><stop offset="1" stop-color="#2EBAC6"/></linearGradient><linearGradient id="paint3_linear_85_112" x1="97.496" x2="-879.277" y1="92.507" y2="-598.994" gradientUnits="userSpaceOnUse"><stop stop-color="#B6509E"/><stop offset="1" stop-color="#2EBAC6"/></linearGradient><linearGradient id="paint4_linear_85_112" x1="78.258" x2="-846.56" y1="70.379" y2="-650.515" gradientUnits="userSpaceOnUse"><stop stop-color="#B6509E"/><stop offset="1" stop-color="#2EBAC6"/></linearGradient><linearGradient id="paint5_linear_85_112" x1="75.026" x2="-829.603" y1="62.533" y2="-702.513" gradientUnits="userSpaceOnUse"><stop stop-color="#B6509E"/><stop offset="1" stop-color="#2EBAC6"/></linearGradient><linearGradient id="paint6_linear_85_112" x1="262.521" x2="-1053.41" y1="317.895" y2="-374.189" gradientUnits="userSpaceOnUse"><stop stop-color="#B6509E"/><stop offset="1" stop-color="#2EBAC6"/></linearGradient><linearGradient id="paint7_linear_85_112" x1="189.598" x2="-1025.6" y1="215.72" y2="-471.757" gradientUnits="userSpaceOnUse"><stop stop-color="#B6509E"/><stop offset="1" stop-color="#2EBAC6"/></linearGradient><linearGradient id="paint8_linear_85_112" x1="133.663" x2="-930.647" y1="135.723" y2="-551.282" gradientUnits="userSpaceOnUse"><stop stop-color="#B6509E"/><stop offset="1" stop-color="#2EBAC6"/></linearGradient><linearGradient id="paint9_linear_85_112" x1="438.358" x2="-505.593" y1="383.608" y2="-318.594" gradientUnits="userSpaceOnUse"><stop stop-color="#B6509E"/><stop offset="1" stop-color="#2EBAC6"/></linearGradient><linearGradient id="paint10_linear_85_112" x1="367.884" x2="-644.885" y1="352.282" y2="-333.003" gradientUnits="userSpaceOnUse"><stop stop-color="#B6509E"/><stop offset="1" stop-color="#2EBAC6"/></linearGradient><linearGradient id="paint11_linear_85_112" x1="310.913" x2="-819.374" y1="330.087" y2="-355.394" gradientUnits="userSpaceOnUse"><stop stop-color="#B6509E"/><stop offset="1" stop-color="#2EBAC6"/></linearGradient><linearGradient id="paint12_linear_85_112" x1="796.792" x2="-129.901" y1="536.642" y2="-367.096" gradientUnits="userSpaceOnUse"><stop stop-color="#B6509E"/><stop offset="1" stop-color="#2EBAC6"/></linearGradient><linearGradient id="paint13_linear_85_112" x1="640.69" x2="-263.86" y1="473.543" y2="-328.827" gradientUnits="userSpaceOnUse"><stop stop-color="#B6509E"/><stop offset="1" stop-color="#2EBAC6"/></linearGradient><linearGradient id="paint14_linear_85_112" x1="527.908" x2="-382.812" y1="424.179" y2="-316.503" gradientUnits="userSpaceOnUse"><stop stop-color="#B6509E"/><stop offset="1" stop-color="#2EBAC6"/></linearGradient><linearGradient id="paint15_linear_85_112" x1="1168.67" x2="194.923" y1="698.93" y2="-373.582" gradientUnits="userSpaceOnUse"><stop stop-color="#B6509E"/><stop offset="1" stop-color="#2EBAC6"/></linearGradient><linearGradient id="paint16_linear_85_112" x1="1359.4" x2="349.59" y1="702.843" y2="-584.24" gradientUnits="userSpaceOnUse"><stop stop-color="#B6509E"/><stop offset="1" stop-color="#2EBAC6"/></linearGradient><linearGradient id="paint17_linear_85_112" x1="1029.35" x2="55.146" y1="617.607" y2="-450.02" gradientUnits="userSpaceOnUse"><stop stop-color="#B6509E"/><stop offset="1" stop-color="#2EBAC6"/></linearGradient><linearGradient id="paint18_linear_85_112" x1="874.387" x2="-38.877" y1="702.532" y2="-37.617" gradientUnits="userSpaceOnUse"><stop stop-color="#B6509E"/><stop offset="1" stop-color="#2EBAC6"/></linearGradient><linearGradient id="paint19_linear_85_112" x1="933.728" x2="28.774" y1="687.088" y2="-118.691" gradientUnits="userSpaceOnUse"><stop stop-color="#B6509E"/><stop offset="1" stop-color="#2EBAC6"/></linearGradient><linearGradient id="paint20_linear_85_112" x1="1019.51" x2="92.815" y1="686.801" y2="-216.936" gradientUnits="userSpaceOnUse"><stop stop-color="#B6509E"/><stop offset="1" stop-color="#2EBAC6"/></linearGradient><linearGradient id="paint21_linear_85_112" x1="812.862" x2="-319.316" y1="861.405" y2="172.282" gradientUnits="userSpaceOnUse"><stop stop-color="#B6509E"/><stop offset="1" stop-color="#2EBAC6"/></linearGradient><linearGradient id="paint22_linear_85_112" x1="813.991" x2="-201.396" y1="781.595" y2="97.365" gradientUnits="userSpaceOnUse"><stop stop-color="#B6509E"/><stop offset="1" stop-color="#2EBAC6"/></linearGradient><linearGradient id="paint23_linear_85_112" x1="837.936" x2="-109.46" y1="731.376" y2="26.812" gradientUnits="userSpaceOnUse"><stop stop-color="#B6509E"/><stop offset="1" stop-color="#2EBAC6"/></linearGradient><linearGradient id="paint24_linear_85_112" x1="606.97" x2="-460.098" y1="612.111" y2="-73.641" gradientUnits="userSpaceOnUse"><stop stop-color="#B6509E"/><stop offset="1" stop-color="#2EBAC6"/></linearGradient><linearGradient id="paint25_linear_85_112" x1="717.133" x2="-498.065" y1="817.847" y2="130.371" gradientUnits="userSpaceOnUse"><stop stop-color="#B6509E"/><stop offset="1" stop-color="#2EBAC6"/></linearGradient><linearGradient id="paint26_linear_85_112" x1="820.019" x2="-495.907" y1="1001.94" y2="309.858" gradientUnits="userSpaceOnUse"><stop stop-color="#B6509E"/><stop offset="1" stop-color="#2EBAC6"/></linearGradient><linearGradient id="paint27_linear_85_112" x1="394.545" x2="-513.251" y1="308.62" y2="-459.241" gradientUnits="userSpaceOnUse"><stop stop-color="#B6509E"/><stop offset="1" stop-color="#2EBAC6"/></linearGradient><linearGradient id="paint28_linear_85_112" x1="450.145" x2="-473.882" y1="380.09" y2="-337.685" gradientUnits="userSpaceOnUse"><stop stop-color="#B6509E"/><stop offset="1" stop-color="#2EBAC6"/></linearGradient><linearGradient id="paint29_linear_85_112" x1="518.793" x2="-455.432" y1="475.886" y2="-216.507" gradientUnits="userSpaceOnUse"><stop stop-color="#B6509E"/><stop offset="1" stop-color="#2EBAC6"/></linearGradient><linearGradient id="paint30_linear_85_112" x1="285.61" x2="-719.969" y1="167.357" y2="-1021.33" gradientUnits="userSpaceOnUse"><stop stop-color="#B6509E"/><stop offset="1" stop-color="#2EBAC6"/></linearGradient><linearGradient id="paint31_linear_85_112" x1="310.89" x2="-638.94" y1="204.963" y2="-773.277" gradientUnits="userSpaceOnUse"><stop stop-color="#B6509E"/><stop offset="1" stop-color="#2EBAC6"/></linearGradient><linearGradient id="paint32_linear_85_112" x1="57.625" x2="16.161" y1="23.836" y2="-9.531" gradientUnits="userSpaceOnUse"><stop stop-color="#B6509E"/><stop offset="1" stop-color="#2EBAC6"/></linearGradient><clipPath id="circleClip"><circle cx="24" cy="24" r="21"/></clipPath><clipPath id="clip0_85_112"><path fill="#fff" d="M0 0h48v48H0z"/></clipPath></defs></svg>