<svg xmlns="http://www.w3.org/2000/svg" width="48" height="48" fill="none" viewBox="0 0 48 48"><g clip-path="url(#clip0_85_112)"><path fill="url(#paint0_linear_85_112)" fill-rule="evenodd" d="m45.884 33.858-1.41-.64c-.36.71-.65 1.45-1.1 2.11l1.34.78c.47-.7.79-1.49 1.17-2.25" clip-rule="evenodd"/><path fill="url(#paint1_linear_85_112)" fill-rule="evenodd" d="m47.344 29.539-1.51-.36c-.2.77-.36 1.55-.67 2.28l1.46.51c.33-.78.51-1.61.72-2.43" clip-rule="evenodd"/><path fill="url(#paint2_linear_85_112)" fill-rule="evenodd" d="m47.964 25.04-1.55-.07-.06 1.19c-.03.4-.11.79-.17 1.18l1.53.23c.06-.42.14-.84.18-1.26z" clip-rule="evenodd"/><path fill="url(#paint3_linear_85_112)" fill-rule="evenodd" d="m35.217 43.445-.51.31-.54.26.71 1.38.57-.28.55-.33 1.08-.66-.84-1.29z" clip-rule="evenodd"/><path fill="url(#paint4_linear_85_112)" fill-rule="evenodd" d="m40.646 41.286-1.07-1.12-.88.8c-.15.13-.29.27-.44.4l-.48.36.95 1.22.51-.38c.16-.14.32-.28.47-.42z" clip-rule="evenodd"/><path fill="url(#paint5_linear_85_112)" fill-rule="evenodd" d="m43.605 37.837-1.27-.89c-.49.62-.92 1.3-1.48 1.87l1.16 1.02c.61-.61 1.07-1.33 1.59-2" clip-rule="evenodd"/><path fill="url(#paint6_linear_85_112)" fill-rule="evenodd" d="m24.12 48.014-.01-1.55c-.79-.02-1.59-.08-2.38-.11l-.15 1.54c.84.05 1.69.11 2.54.12" clip-rule="evenodd"/><path fill="url(#paint7_linear_85_112)" fill-rule="evenodd" d="m28.659 47.564-.3-1.52c-.79.1-1.57.27-2.36.33l.14 1.54c.84-.07 1.68-.24 2.52-.35" clip-rule="evenodd"/><path fill="url(#paint8_linear_85_112)" fill-rule="evenodd" d="m33.008 46.254-.58-1.44-1.12.41-.56.21c-.19.07-.38.1-.57.16l.43 1.49c.2-.06.41-.1.61-.17l.6-.22z" clip-rule="evenodd"/><path fill="url(#paint9_linear_85_112)" fill-rule="evenodd" d="m11.444 42.645-.48-.35-.95-.72-.97 1.22 1.53 1.14.55.33.83-1.31z" clip-rule="evenodd"/><path fill="url(#paint10_linear_85_112)" fill-rule="evenodd" d="m15.183 46.334.57-1.44c-.19-.07-.38-.13-.56-.21l-.54-.26-1.07-.519-.72 1.37 1.15.55.57.28c.2.09.4.15.6.23" clip-rule="evenodd"/><path fill="url(#paint11_linear_85_112)" fill-rule="evenodd" d="m19.551 47.594.29-1.52c-.4-.04-.78-.17-1.16-.26l-1.149-.3-.45 1.48 1.23.32c.41.1.81.24 1.24.28" clip-rule="evenodd"/><path fill="url(#paint12_linear_85_112)" fill-rule="evenodd" d="m2.206 34.088 1.41-.65c-.38-.7-.6-1.47-.89-2.21l-1.47.5c.31.79.55 1.61.95 2.36" clip-rule="evenodd"/><path fill="url(#paint13_linear_85_112)" fill-rule="evenodd" d="m4.516 38.027 1.26-.91c-.51-.61-.86-1.33-1.29-2l-1.35.77c.45.72.84 1.48 1.38 2.14" clip-rule="evenodd"/><path fill="url(#paint14_linear_85_112)" fill-rule="evenodd" d="m7.505 41.446 1.06-1.13-.44-.4c-.14-.14-.27-.29-.4-.44l-.8-.88-1.18 1.01.86.94c.14.16.28.32.43.47z" clip-rule="evenodd"/><path fill="url(#paint15_linear_85_112)" fill-rule="evenodd" d="m.217 20.712 1.53.21.18-1.18c.04-.4.18-.77.27-1.16l-1.5-.37c-.09.41-.24.82-.29 1.24z" clip-rule="evenodd"/><path fill="url(#paint16_linear_85_112)" fill-rule="evenodd" d="m.027 22.72-.06 1.27.06 1.28 1.55-.08-.06-1.2.06-1.19z" clip-rule="evenodd"/><path fill="url(#paint17_linear_85_112)" fill-rule="evenodd" d="m.687 29.759 1.5-.37c-.23-.76-.33-1.55-.45-2.34l-1.54.21c.15.84.25 1.68.49 2.5" clip-rule="evenodd"/><path fill="url(#paint18_linear_85_112)" fill-rule="evenodd" d="m5.765 8.375 1.18 1.01.8-.88c.14-.15.26-.3.4-.44l.44-.4-1.06-1.12-.47.43c-.15.15-.29.31-.43.47z" clip-rule="evenodd"/><path fill="url(#paint19_linear_85_112)" fill-rule="evenodd" d="m3.136 12.104 1.34.77c.43-.67.79-1.38 1.29-2l-1.26-.91c-.53.66-.91 1.42-1.37 2.14" clip-rule="evenodd"/><path fill="url(#paint20_linear_85_112)" fill-rule="evenodd" d="m1.266 16.243 1.47.5c.28-.74.51-1.51.89-2.21l-1.4-.65c-.41.76-.66 1.57-.96 2.36" clip-rule="evenodd"/><path fill="url(#paint21_linear_85_112)" fill-rule="evenodd" d="m17.102.997.44 1.48 1.15-.3c.39-.09.77-.22 1.16-.26l-.28-1.52c-.42.05-.83.17-1.24.27z" clip-rule="evenodd"/><path fill="url(#paint22_linear_85_112)" fill-rule="evenodd" d="m12.873 2.716.72 1.37 1.07-.52.54-.26c.18-.08.37-.14.56-.21l-.57-1.43c-.2.07-.4.14-.6.22l-.57.28z" clip-rule="evenodd"/><path fill="url(#paint23_linear_85_112)" fill-rule="evenodd" d="m9.064 5.196.96 1.21.95-.71c.16-.12.32-.24.48-.35l.51-.31-.83-1.31-.54.33c-.18.12-.34.25-.51.38z" clip-rule="evenodd"/><path fill="url(#paint24_linear_85_112)" fill-rule="evenodd" d="m30.628.927-.43 1.49c.39.08.76.22 1.13.36l1.12.41.58-1.43-1.2-.44c-.38-.15-.78-.3-1.2-.39" clip-rule="evenodd"/><path fill="url(#paint25_linear_85_112)" fill-rule="evenodd" d="m26.15.087-.14 1.54c.79.06 1.57.23 2.359.33l.3-1.52c-.84-.11-1.68-.28-2.52-.35" clip-rule="evenodd"/><path fill="url(#paint26_linear_85_112)" fill-rule="evenodd" d="m21.6.097.15 1.54c.79-.03 1.59-.09 2.38-.11l.01-1.55c-.84.02-1.69.08-2.54.12" clip-rule="evenodd"/><path fill="url(#paint27_linear_85_112)" fill-rule="evenodd" d="m42.045 8.185-1.17 1.02.4.44c.13.15.24.32.36.47l.71.95 1.27-.89-.76-1.02c-.13-.17-.25-.34-.39-.5z" clip-rule="evenodd"/><path fill="url(#paint28_linear_85_112)" fill-rule="evenodd" d="m38.726 5.056-.95 1.22.48.36c.15.13.29.27.44.4l.88.799 1.08-1.12-.94-.86c-.16-.14-.31-.29-.47-.42z" clip-rule="evenodd"/><path fill="url(#paint29_linear_85_112)" fill-rule="evenodd" d="m34.727 4.256 1.53.93.85-1.3-1.09-.66-.55-.33-.57-.28-.7 1.38z" clip-rule="evenodd"/><path fill="url(#paint30_linear_85_112)" fill-rule="evenodd" d="m47.724 20.462-1.53.23c.05.39.14.78.16 1.18l.06 1.189 1.55-.06-.06-1.27c-.04-.44-.12-.85-.18-1.27" clip-rule="evenodd"/><path fill="url(#paint31_linear_85_112)" fill-rule="evenodd" d="m46.634 16.033-1.46.51c.31.73.47 1.52.67 2.279l1.51-.36c-.22-.81-.4-1.64-.72-2.43" clip-rule="evenodd"/><path fill="url(#paint32_linear_85_112)" fill-rule="evenodd" d="m44.724 11.914-1.34.78c.45.66.73 1.41 1.09 2.11l1.41-.64c-.37-.75-.69-1.55-1.16-2.25" clip-rule="evenodd"/></g><g clip-path="url(#circleClip)"><svg xmlns="http://www.w3.org/2000/svg" width="48" height="48" viewBox="0 0 256 256.002"><defs><style>.cls-2,.cls-3{fill:#ff007a}.cls-3{fill-rule:evenodd}</style></defs><g id="Group_33854" transform="translate(0 .002)"><circle id="Ellipse_1587" cx="128" cy="128" r="128" fill="#fff"/><path id="Subtraction_259" d="M1535 18716a128.8 128.8 0 0 1-25.8-2.6 127.9 127.9 0 0 1-64.714-34.889 128.2 128.2 0 0 1-27.431-40.686 127.3 127.3 0 0 1-7.458-24.027 129.3 129.3 0 0 1 0-51.594 127.3 127.3 0 0 1 19.259-45.77 128.35 128.35 0 0 1 56.316-46.375 127 127 0 0 1 24.027-7.459 129.2 129.2 0 0 1 51.594 0 127.3 127.3 0 0 1 45.768 19.26 128.36 128.36 0 0 1 46.373 56.318 127.4 127.4 0 0 1 7.458 24.025 129.3 129.3 0 0 1 0 51.594 127.3 127.3 0 0 1-19.259 45.77 128.4 128.4 0 0 1-56.314 46.375 127.4 127.4 0 0 1-24.026 7.457A128.8 128.8 0 0 1 1535 18716m0-253a126 126 0 0 0-25.193 2.539 124.3 124.3 0 0 0-44.7 18.809 125.36 125.36 0 0 0-45.29 55 124.4 124.4 0 0 0-7.284 23.463 126.2 126.2 0 0 0 0 50.385 124.3 124.3 0 0 0 18.809 44.7 125.34 125.34 0 0 0 55 45.287 124.4 124.4 0 0 0 23.464 7.283 126.2 126.2 0 0 0 50.384 0 124.3 124.3 0 0 0 44.7-18.807 125.4 125.4 0 0 0 45.289-55 124.4 124.4 0 0 0 7.284-23.463 126.2 126.2 0 0 0 0-50.385 124.3 124.3 0 0 0-18.809-44.7 125.37 125.37 0 0 0-55-45.289 124.5 124.5 0 0 0-23.464-7.283A126 126 0 0 0 1535 18463" class="cls-2" transform="translate(-1407 -18460)"/><g id="Group_33853" transform="translate(56.436 49.154)"><path id="Path_10841" d="M96.369 60.255c-2.016-.313-2.1-.349-1.152-.5a31.3 31.3 0 0 1 9.068.8c6.9 1.641 13.188 5.846 19.9 13.314l1.782 1.984 2.549-.41a53.8 53.8 0 0 1 30.8 3.867 40 40 0 0 1 6.972 4.067 10.8 10.8 0 0 1 .643 2.708c.679 4.5.339 7.947-1.036 10.523-.749 1.4-.791 1.846-.288 3.045a2.95 2.95 0 0 0 2.632 1.665c2.271 0 4.715-3.674 5.848-8.781l.449-2.029.892 1.009c4.888 5.538 8.727 13.09 9.387 18.466l.172 1.4-.821-1.274a15.7 15.7 0 0 0-4.654-4.89c-3.28-2.17-6.747-2.909-15.931-3.393-8.294-.437-12.988-1.145-17.643-2.663-7.919-2.582-11.911-6.021-21.319-18.363a90 90 0 0 0-9.33-10.958c-5.841-5.542-11.577-8.448-18.92-9.587" class="cls-2" transform="translate(-53.643 -50.746)"/><path id="Path_10842" d="M170.426 72.6a22.3 22.3 0 0 1 1.708-8.309 9 9 0 0 1 .825-1.593 5.4 5.4 0 0 1-.383 1.436 18.9 18.9 0 0 0-.346 8.5c.636 4.336 1 4.962 5.582 9.646 2.149 2.2 4.65 4.968 5.557 6.157l1.648 2.163-1.648-1.546a70 70 0 0 0-7.675-6.1c-.686-.353-.788-.347-1.212.074-.39.388-.472.972-.527 3.731-.084 4.3-.67 7.06-2.085 9.819-.764 1.493-.886 1.174-.193-.511.517-1.258.57-1.811.566-5.973-.009-8.364-1-10.374-6.824-13.819-1.476-.873-3.906-2.131-5.4-2.8a20.4 20.4 0 0 1-2.64-1.289 56 56 0 0 1 8.129 2.373c3.4 1.308 3.961 1.477 4.374 1.319.275-.098.409-.904.544-3.278" class="cls-2" transform="translate(-55.912 -50.858)"/><path id="Path_10843" d="M100.266 86.968c-4.092-5.634-6.624-14.268-6.076-20.729l.169-2 .931.17a23.4 23.4 0 0 1 6.178 2.3c3.876 2.354 5.553 5.453 7.26 13.41.5 2.331 1.157 4.968 1.458 5.861A39.6 39.6 0 0 0 114 92.957c1.076 1.57.361 2.314-2.015 2.1-3.629-.328-8.547-3.722-11.719-8.089" class="cls-2" transform="translate(-53.624 -50.912)"/><path id="Path_10844" d="M164.8 130.247c-19.123-7.7-25.858-14.383-25.858-25.66a18 18 0 0 1 .126-3.017 14.5 14.5 0 0 1 1.644 1.217c3.877 3.11 8.22 4.438 20.242 6.193 7.074 1.031 11.054 1.865 14.727 3.083 11.672 3.871 18.893 11.727 20.615 22.426a37 37 0 0 1-.6 12.012c-.641 2.427-2.6 6.8-3.113 6.969-.144.047-.285-.5-.322-1.254a15.5 15.5 0 0 0-5.636-10.859c-3.886-3.33-9.094-5.983-21.825-11.11" class="cls-2" transform="translate(-55.245 -52.263)"/><path id="Path_10845" d="M150.306 134.436a34 34 0 0 0-.923-4.046l-.489-1.454.907 1.018a16.3 16.3 0 0 1 3.085 5.608c.641 1.831.713 2.376.708 5.351 0 2.921-.085 3.534-.678 5.182a16.4 16.4 0 0 1-4.036 6.42c-3.493 3.556-7.984 5.524-14.465 6.34-1.127.142-4.41.381-7.3.531-7.275.379-12.063 1.16-16.365 2.671a3.5 3.5 0 0 1-1.227.293c-.174-.172 2.755-1.919 5.175-3.084 3.411-1.643 6.807-2.541 14.416-3.807 3.759-.626 7.64-1.386 8.626-1.689 9.312-2.854 14.098-10.219 12.566-19.334" class="cls-2" transform="translate(-54.181 -53.252)"/><path id="Path_10846" d="M160.839 150.172c-2.541-5.462-3.124-10.735-1.732-15.653.148-.525.388-.956.532-.956a5.2 5.2 0 0 1 1.333.721c1.17.787 3.519 2.116 9.775 5.527 7.806 4.256 12.257 7.552 15.284 11.317a24.6 24.6 0 0 1 5.08 11.633 39.6 39.6 0 0 1-.48 11.449 28.43 28.43 0 0 1-13.931 18.482 18 18 0 0 1-2.034 1.009 7.5 7.5 0 0 1 .825-2.1 18.88 18.88 0 0 0 .838-14.95c-1.083-3.243-3.292-7.2-7.753-13.891-5.189-7.776-6.461-9.845-7.737-12.588" class="cls-2" transform="translate(-55.948 -53.419)"/><path id="Path_10847" d="M86.327 180.926c7.1-5.992 15.927-10.248 23.97-11.555a37.4 37.4 0 0 1 12.451.482c5.145 1.317 9.747 4.266 12.141 7.78 2.339 3.434 3.343 6.427 4.387 13.085.413 2.626.861 5.264 1 5.861.785 3.451 2.311 6.21 4.2 7.595 3.005 2.2 8.181 2.336 13.272.351a6.6 6.6 0 0 1 1.666-.518c.185.183-2.379 1.9-4.187 2.8a14.24 14.24 0 0 1-6.941 1.686c-4.663 0-8.534-2.372-11.764-7.209a58 58 0 0 1-3.175-6.335c-3.41-7.779-5.095-10.148-9.054-12.742a11.68 11.68 0 0 0-11.234-1.022 7.278 7.278 0 0 0-2.471 11.323 9.75 9.75 0 0 0 5.488 2.869 5.86 5.86 0 0 0 6.631-5.87c0-2.338-.9-3.672-3.161-4.694-3.089-1.394-6.41.236-6.395 3.138a2.6 2.6 0 0 0 1.787 2.576c.8.361.814.389.165.254-2.835-.588-3.5-4.006-1.219-6.275 2.736-2.724 8.4-1.522 10.339 2.2a9.6 9.6 0 0 1 .2 6.55c-1.593 4.2-6.238 6.414-10.95 5.211-3.208-.819-4.515-1.706-8.382-5.69-6.721-6.923-9.33-8.265-19.019-9.777l-1.857-.29z" class="cls-2" transform="translate(-53.266 -54.705)"/><path id="Path_10848" d="M50.52 42.742c22.445 27.242 33.526 36.65 35.244 39.024 1.418 1.961.885 3.723-1.545 5.1a14.7 14.7 0 0 1-5.519 1.553 7.07 7.07 0 0 1-4.636-1.983c-.912-.865-4.594-6.363-13.094-19.552-6.5-10.092-11.946-18.463-12.095-18.6-.343-.324-.337-.313 11.432 20.745 7.39 13.223 9.885 17.9 9.885 18.523 0 1.271-.347 1.94-1.916 3.69-2.615 2.918-3.784 6.2-4.628 12.98-.946 7.6-3.606 12.976-10.978 22.17-4.315 5.382-5.022 6.369-6.11 8.538a15.75 15.75 0 0 0-1.9 7.712 24 24 0 0 0 1.267 9.49 34 34 0 0 0 4.6 9.1c2.246 3.479 3.54 6.064 3.54 7.076 0 .8.154.806 3.635.019 8.33-1.88 15.095-5.189 18.9-9.244 2.354-2.51 2.907-3.895 2.925-7.335.012-2.249-.067-2.72-.675-4.014-.99-2.106-2.792-3.857-6.763-6.572-5.2-3.557-7.426-6.421-8.04-10.359-.5-3.232.081-5.512 2.959-11.546 2.98-6.245 3.718-8.907 4.218-15.2.323-4.066.769-5.671 1.938-6.958 1.219-1.343 2.316-1.8 5.332-2.209 4.917-.672 8.048-1.944 10.622-4.316a9.22 9.22 0 0 0 3.311-7.024l.109-2.262-1.248-1.455C86.761 74.561 47.494 38.6 47.216 38.6c-.059 0 1.428 1.865 3.304 4.142m6.08 104.022a4 4 0 0 0-1.23-5.27c-1.615-1.074-4.123-.569-4.123.831 0 .427.236.737.768 1.011.9.461.961.979.256 2.039s-.656 2.016.162 2.657c1.317 1.032 3.185.468 4.167-1.268" class="cls-3" transform="translate(-44.616 -38.602)"/><path id="Path_10849" d="M104.827 110.031a8.67 8.67 0 0 0-5.247 5.72c-.424 1.565-.183 4.31.452 5.157 1.026 1.37 2.016 1.73 4.7 1.712 5.257-.037 9.827-2.291 10.358-5.11.436-2.31-1.572-5.512-4.336-6.917a10.3 10.3 0 0 0-5.927-.562m6.145 4.8c.811-1.152.456-2.4-.922-3.238-2.626-1.6-6.6-.277-6.6 2.2 0 1.235 2.07 2.582 3.968 2.582a5.13 5.13 0 0 0 3.554-1.539z" class="cls-3" transform="translate(-53.814 -52.561)"/></g></g></svg></g><defs><linearGradient id="paint0_linear_85_112" x1="89.53" x2="-825.17" y1="68.3" y2="-779.228" gradientUnits="userSpaceOnUse"><stop stop-color="#B6509E"/><stop offset="1" stop-color="#2EBAC6"/></linearGradient><linearGradient id="paint1_linear_85_112" x1="128.494" x2="-821.333" y1="88.03" y2="-890.21" gradientUnits="userSpaceOnUse"><stop stop-color="#B6509E"/><stop offset="1" stop-color="#2EBAC6"/></linearGradient><linearGradient id="paint2_linear_85_112" x1="208.381" x2="-798.122" y1="123.642" y2="-1059.46" gradientUnits="userSpaceOnUse"><stop stop-color="#B6509E"/><stop offset="1" stop-color="#2EBAC6"/></linearGradient><linearGradient id="paint3_linear_85_112" x1="97.496" x2="-879.277" y1="92.507" y2="-598.994" gradientUnits="userSpaceOnUse"><stop stop-color="#B6509E"/><stop offset="1" stop-color="#2EBAC6"/></linearGradient><linearGradient id="paint4_linear_85_112" x1="78.258" x2="-846.56" y1="70.379" y2="-650.515" gradientUnits="userSpaceOnUse"><stop stop-color="#B6509E"/><stop offset="1" stop-color="#2EBAC6"/></linearGradient><linearGradient id="paint5_linear_85_112" x1="75.026" x2="-829.603" y1="62.533" y2="-702.513" gradientUnits="userSpaceOnUse"><stop stop-color="#B6509E"/><stop offset="1" stop-color="#2EBAC6"/></linearGradient><linearGradient id="paint6_linear_85_112" x1="262.521" x2="-1053.41" y1="317.895" y2="-374.189" gradientUnits="userSpaceOnUse"><stop stop-color="#B6509E"/><stop offset="1" stop-color="#2EBAC6"/></linearGradient><linearGradient id="paint7_linear_85_112" x1="189.598" x2="-1025.6" y1="215.72" y2="-471.757" gradientUnits="userSpaceOnUse"><stop stop-color="#B6509E"/><stop offset="1" stop-color="#2EBAC6"/></linearGradient><linearGradient id="paint8_linear_85_112" x1="133.663" x2="-930.647" y1="135.723" y2="-551.282" gradientUnits="userSpaceOnUse"><stop stop-color="#B6509E"/><stop offset="1" stop-color="#2EBAC6"/></linearGradient><linearGradient id="paint9_linear_85_112" x1="438.358" x2="-505.593" y1="383.608" y2="-318.594" gradientUnits="userSpaceOnUse"><stop stop-color="#B6509E"/><stop offset="1" stop-color="#2EBAC6"/></linearGradient><linearGradient id="paint10_linear_85_112" x1="367.884" x2="-644.885" y1="352.282" y2="-333.003" gradientUnits="userSpaceOnUse"><stop stop-color="#B6509E"/><stop offset="1" stop-color="#2EBAC6"/></linearGradient><linearGradient id="paint11_linear_85_112" x1="310.913" x2="-819.374" y1="330.087" y2="-355.394" gradientUnits="userSpaceOnUse"><stop stop-color="#B6509E"/><stop offset="1" stop-color="#2EBAC6"/></linearGradient><linearGradient id="paint12_linear_85_112" x1="796.792" x2="-129.901" y1="536.642" y2="-367.096" gradientUnits="userSpaceOnUse"><stop stop-color="#B6509E"/><stop offset="1" stop-color="#2EBAC6"/></linearGradient><linearGradient id="paint13_linear_85_112" x1="640.69" x2="-263.86" y1="473.543" y2="-328.827" gradientUnits="userSpaceOnUse"><stop stop-color="#B6509E"/><stop offset="1" stop-color="#2EBAC6"/></linearGradient><linearGradient id="paint14_linear_85_112" x1="527.908" x2="-382.812" y1="424.179" y2="-316.503" gradientUnits="userSpaceOnUse"><stop stop-color="#B6509E"/><stop offset="1" stop-color="#2EBAC6"/></linearGradient><linearGradient id="paint15_linear_85_112" x1="1168.67" x2="194.923" y1="698.93" y2="-373.582" gradientUnits="userSpaceOnUse"><stop stop-color="#B6509E"/><stop offset="1" stop-color="#2EBAC6"/></linearGradient><linearGradient id="paint16_linear_85_112" x1="1359.4" x2="349.59" y1="702.843" y2="-584.24" gradientUnits="userSpaceOnUse"><stop stop-color="#B6509E"/><stop offset="1" stop-color="#2EBAC6"/></linearGradient><linearGradient id="paint17_linear_85_112" x1="1029.35" x2="55.146" y1="617.607" y2="-450.02" gradientUnits="userSpaceOnUse"><stop stop-color="#B6509E"/><stop offset="1" stop-color="#2EBAC6"/></linearGradient><linearGradient id="paint18_linear_85_112" x1="874.387" x2="-38.877" y1="702.532" y2="-37.617" gradientUnits="userSpaceOnUse"><stop stop-color="#B6509E"/><stop offset="1" stop-color="#2EBAC6"/></linearGradient><linearGradient id="paint19_linear_85_112" x1="933.728" x2="28.774" y1="687.088" y2="-118.691" gradientUnits="userSpaceOnUse"><stop stop-color="#B6509E"/><stop offset="1" stop-color="#2EBAC6"/></linearGradient><linearGradient id="paint20_linear_85_112" x1="1019.51" x2="92.815" y1="686.801" y2="-216.936" gradientUnits="userSpaceOnUse"><stop stop-color="#B6509E"/><stop offset="1" stop-color="#2EBAC6"/></linearGradient><linearGradient id="paint21_linear_85_112" x1="812.862" x2="-319.316" y1="861.405" y2="172.282" gradientUnits="userSpaceOnUse"><stop stop-color="#B6509E"/><stop offset="1" stop-color="#2EBAC6"/></linearGradient><linearGradient id="paint22_linear_85_112" x1="813.991" x2="-201.396" y1="781.595" y2="97.365" gradientUnits="userSpaceOnUse"><stop stop-color="#B6509E"/><stop offset="1" stop-color="#2EBAC6"/></linearGradient><linearGradient id="paint23_linear_85_112" x1="837.936" x2="-109.46" y1="731.376" y2="26.812" gradientUnits="userSpaceOnUse"><stop stop-color="#B6509E"/><stop offset="1" stop-color="#2EBAC6"/></linearGradient><linearGradient id="paint24_linear_85_112" x1="606.97" x2="-460.098" y1="612.111" y2="-73.641" gradientUnits="userSpaceOnUse"><stop stop-color="#B6509E"/><stop offset="1" stop-color="#2EBAC6"/></linearGradient><linearGradient id="paint25_linear_85_112" x1="717.133" x2="-498.065" y1="817.847" y2="130.371" gradientUnits="userSpaceOnUse"><stop stop-color="#B6509E"/><stop offset="1" stop-color="#2EBAC6"/></linearGradient><linearGradient id="paint26_linear_85_112" x1="820.019" x2="-495.907" y1="1001.94" y2="309.858" gradientUnits="userSpaceOnUse"><stop stop-color="#B6509E"/><stop offset="1" stop-color="#2EBAC6"/></linearGradient><linearGradient id="paint27_linear_85_112" x1="394.545" x2="-513.251" y1="308.62" y2="-459.241" gradientUnits="userSpaceOnUse"><stop stop-color="#B6509E"/><stop offset="1" stop-color="#2EBAC6"/></linearGradient><linearGradient id="paint28_linear_85_112" x1="450.145" x2="-473.882" y1="380.09" y2="-337.685" gradientUnits="userSpaceOnUse"><stop stop-color="#B6509E"/><stop offset="1" stop-color="#2EBAC6"/></linearGradient><linearGradient id="paint29_linear_85_112" x1="518.793" x2="-455.432" y1="475.886" y2="-216.507" gradientUnits="userSpaceOnUse"><stop stop-color="#B6509E"/><stop offset="1" stop-color="#2EBAC6"/></linearGradient><linearGradient id="paint30_linear_85_112" x1="285.61" x2="-719.969" y1="167.357" y2="-1021.33" gradientUnits="userSpaceOnUse"><stop stop-color="#B6509E"/><stop offset="1" stop-color="#2EBAC6"/></linearGradient><linearGradient id="paint31_linear_85_112" x1="310.89" x2="-638.94" y1="204.963" y2="-773.277" gradientUnits="userSpaceOnUse"><stop stop-color="#B6509E"/><stop offset="1" stop-color="#2EBAC6"/></linearGradient><linearGradient id="paint32_linear_85_112" x1="57.625" x2="16.161" y1="23.836" y2="-9.531" gradientUnits="userSpaceOnUse"><stop stop-color="#B6509E"/><stop offset="1" stop-color="#2EBAC6"/></linearGradient><clipPath id="circleClip"><circle cx="24" cy="24" r="21"/></clipPath><clipPath id="clip0_85_112"><path fill="#fff" d="M0 0h48v48H0z"/></clipPath></defs></svg>