<svg xmlns="http://www.w3.org/2000/svg" xmlns:xlink="http://www.w3.org/1999/xlink" xml:space="preserve" id="Слой_1" x="0" y="0" version="1.1" viewBox="0 0 136.06 136.06">
  <style>
    .st7{fill:none;stroke:#140275;stroke-width:2;stroke-linejoin:round;stroke-miterlimit:10}
  </style>
  <linearGradient id="SVGID_1_" x1="20.7216" x2="118.5066" y1="92.0286" y2="42.5333" gradientUnits="userSpaceOnUse">
    <stop offset="0" stop-color="#00bfff"/>
    <stop offset=".5016" stop-color="#6963ed"/>
    <stop offset=".5227" stop-color="#6d62ee"/>
    <stop offset=".8463" stop-color="#ab57fa"/>
    <stop offset="1" stop-color="#c353ff"/>
  </linearGradient>
  <circle cx="68.08" cy="68.06" r="59.49" fill="url(#SVGID_1_)"/>
  <circle cx="68.08" cy="68.06" r="54.93" class="st7"/>
  <path d="M68.02 23.51 40.8 40.55v27.51M53.21 47.79 40.8 40.55M68.02 113.18 40.8 95.83v-21.3M51.27 89.39 40.8 95.83M68.02 83.05l27.29-14.99-27.29-44.55L40.8 68.06z" class="st7"/>
  <path d="m68.02 23.51 27.29 17.04v27.51M82.89 47.79l12.42-7.24M68.02 90.11l27.29-15.58-27.29 38.65L40.8 74.53z" class="st7"/>
  <path d="m68.02 113.18 27.29-17.35v-21.3M84.84 89.39l10.47 6.44" class="st7"/>
  <defs>
    <circle id="SVGID_00000114755061595583807240000018028052631834467474_" cx="68.26" cy="68.03" r="56.88"/>
  </defs>
  <clipPath id="SVGID_00000168094593529864917790000007119462397314534844_">
    <use xlink:href="#SVGID_00000114755061595583807240000018028052631834467474_" overflow="visible"/>
  </clipPath>
  <defs>
    <path id="SVGID_00000180356725351103657230000015756920510687836594_" d="M.02.04h136.02v136.02H.02z"/>
  </defs>
  <clipPath id="SVGID_00000140693172270192709610000005811840809455992470_">
    <use xlink:href="#SVGID_00000180356725351103657230000015756920510687836594_" overflow="visible"/>
  </clipPath>
  <g clip-path="url(#SVGID_00000140693172270192709610000005811840809455992470_)">
    <linearGradient id="SVGID_00000148659470944066479550000002038542971821213593_" x1="242.5767" x2="-2349.5139" y1="-67.6923" y2="2334.0454" gradientTransform="matrix(1 0 0 -1 0 137.937)" gradientUnits="userSpaceOnUse">
      <stop offset="0" stop-color="#b6509e"/>
      <stop offset="1" stop-color="#2ebac6"/>
    </linearGradient>
    <path fill="url(#SVGID_00000148659470944066479550000002038542971821213593_)" fill-rule="evenodd" d="m130.05 95.99-3.99-1.81c-1.02 2.01-1.84 4.11-3.12 5.98l3.8 2.21c1.32-1.99 2.23-4.23 3.31-6.38z" clip-rule="evenodd"/>
    <linearGradient id="SVGID_00000151523692144379741880000011827498732270339223_" x1="325.669" x2="-2365.9644" y1="-148.925" y2="2623.2261" gradientTransform="matrix(1 0 0 -1 0 137.937)" gradientUnits="userSpaceOnUse">
      <stop offset="0" stop-color="#b6509e"/>
      <stop offset="1" stop-color="#2ebac6"/>
    </linearGradient>
    <path fill="url(#SVGID_00000151523692144379741880000011827498732270339223_)" fill-rule="evenodd" d="m134.18 83.75-4.28-1.02c-.57 2.18-1.02 4.39-1.9 6.46l4.14 1.44c.94-2.21 1.45-4.56 2.04-6.88z" clip-rule="evenodd"/>
    <linearGradient id="SVGID_00000150098527760326436070000011689939776929696139_" x1="461.6418" x2="-2390.6011" y1="-322.1333" y2="3030.5583" gradientTransform="matrix(1 0 0 -1 0 137.937)" gradientUnits="userSpaceOnUse">
      <stop offset="0" stop-color="#b6509e"/>
      <stop offset="1" stop-color="#2ebac6"/>
    </linearGradient>
    <path fill="url(#SVGID_00000150098527760326436070000011689939776929696139_)" fill-rule="evenodd" d="m135.94 71-4.39-.2-.17 3.37c-.09 1.13-.31 2.24-.48 3.34l4.33.65c.17-1.19.4-2.38.51-3.57l.2-3.59z" clip-rule="evenodd"/>
    <linearGradient id="SVGID_00000098191328061539030560000010823006724727384759_" x1="282.3759" x2="-2485.6167" y1="-115.6751" y2="1843.9109" gradientTransform="matrix(1 0 0 -1 0 137.937)" gradientUnits="userSpaceOnUse">
      <stop offset="0" stop-color="#b6509e"/>
      <stop offset="1" stop-color="#2ebac6"/>
    </linearGradient>
    <path fill="url(#SVGID_00000098191328061539030560000010823006724727384759_)" fill-rule="evenodd" d="m99.82 123.16-1.44.88-1.53.74 2.01 3.91 1.61-.79 1.56-.93 3.06-1.87-2.38-3.65-2.89 1.71z" clip-rule="evenodd"/>
    <linearGradient id="SVGID_00000062176295662476691750000007562298501346741632_" x1="219.5062" x2="-2401.2556" y1="-64.4706" y2="1978.4089" gradientTransform="matrix(1 0 0 -1 0 137.937)" gradientUnits="userSpaceOnUse">
      <stop offset="0" stop-color="#b6509e"/>
      <stop offset="1" stop-color="#2ebac6"/>
    </linearGradient>
    <path fill="url(#SVGID_00000062176295662476691750000007562298501346741632_)" fill-rule="evenodd" d="m115.2 117.04-3.03-3.17-2.49 2.27c-.43.37-.82.77-1.25 1.13l-1.36 1.02 2.69 3.46 1.44-1.08c.45-.4.91-.79 1.33-1.19l2.67-2.44z" clip-rule="evenodd"/>
    <linearGradient id="SVGID_00000171693471694113615800000009104113646494873235_" x1="207.6721" x2="-2355.8787" y1="-45.1733" y2="2122.8267" gradientTransform="matrix(1 0 0 -1 0 137.937)" gradientUnits="userSpaceOnUse">
      <stop offset="0" stop-color="#b6509e"/>
      <stop offset="1" stop-color="#2ebac6"/>
    </linearGradient>
    <path fill="url(#SVGID_00000171693471694113615800000009104113646494873235_)" fill-rule="evenodd" d="m123.59 107.26-3.6-2.52c-1.39 1.76-2.61 3.68-4.19 5.3l3.29 2.89c1.72-1.73 3.02-3.77 4.5-5.67z" clip-rule="evenodd"/>
    <linearGradient id="SVGID_00000183214768842307380680000014598200411649775266_" x1="912.8453" x2="-2816.259" y1="-441.831" y2="1519.4065" gradientTransform="matrix(1 0 0 -1 0 137.937)" gradientUnits="userSpaceOnUse">
      <stop offset="0" stop-color="#b6509e"/>
      <stop offset="1" stop-color="#2ebac6"/>
    </linearGradient>
    <path fill="url(#SVGID_00000183214768842307380680000014598200411649775266_)" fill-rule="evenodd" d="m68.37 136.1-.03-4.39c-2.24-.06-4.5-.23-6.74-.31l-.43 4.36c2.39.14 4.79.31 7.2.34z" clip-rule="evenodd"/>
    <linearGradient id="SVGID_00000054956375985214890630000008027461777540008875_" x1="630.6931" x2="-2812.9529" y1="-308.3397" y2="1639.8422" gradientTransform="matrix(1 0 0 -1 0 137.937)" gradientUnits="userSpaceOnUse">
      <stop offset="0" stop-color="#b6509e"/>
      <stop offset="1" stop-color="#2ebac6"/>
    </linearGradient>
    <path fill="url(#SVGID_00000054956375985214890630000008027461777540008875_)" fill-rule="evenodd" d="m81.23 134.83-.85-4.31c-2.24.28-4.45.77-6.69.93l.4 4.36c2.38-.19 4.76-.67 7.14-.98z" clip-rule="evenodd"/>
    <linearGradient id="SVGID_00000036947015821880386590000016201835759085210038_" x1="409.5781" x2="-2606.4788" y1="-199.0291" y2="1747.816" gradientTransform="matrix(1 0 0 -1 0 137.937)" gradientUnits="userSpaceOnUse">
      <stop offset="0" stop-color="#b6509e"/>
      <stop offset="1" stop-color="#2ebac6"/>
    </linearGradient>
    <path fill="url(#SVGID_00000036947015821880386590000016201835759085210038_)" fill-rule="evenodd" d="m93.56 131.12-1.64-4.08-3.17 1.16-1.59.59c-.54.2-1.08.28-1.61.45l1.22 4.22c.57-.17 1.16-.28 1.73-.48l1.7-.62 3.36-1.24z" clip-rule="evenodd"/>
    <linearGradient id="SVGID_00000039856376125046571320000009288860385179993527_" x1="1272.7102" x2="-1402.2722" y1="-908.2236" y2="1081.6865" gradientTransform="matrix(1 0 0 -1 0 137.937)" gradientUnits="userSpaceOnUse">
      <stop offset="0" stop-color="#b6509e"/>
      <stop offset="1" stop-color="#2ebac6"/>
    </linearGradient>
    <path fill="url(#SVGID_00000039856376125046571320000009288860385179993527_)" fill-rule="evenodd" d="m32.45 120.89-1.36-.99-2.69-2.04-2.75 3.46 4.33 3.23 1.56.93 2.35-3.71-1.44-.88z" clip-rule="evenodd"/>
    <linearGradient id="SVGID_00000091719671402011951730000009775242574902950533_" x1="1131.9111" x2="-1738.0886" y1="-728.3176" y2="1213.653" gradientTransform="matrix(1 0 0 -1 0 137.937)" gradientUnits="userSpaceOnUse">
      <stop offset="0" stop-color="#b6509e"/>
      <stop offset="1" stop-color="#2ebac6"/>
    </linearGradient>
    <path fill="url(#SVGID_00000091719671402011951730000009775242574902950533_)" fill-rule="evenodd" d="m43.04 131.34 1.61-4.08c-.54-.2-1.08-.37-1.59-.59l-1.53-.74-3.03-1.47-2.04 3.88 3.26 1.56 1.61.79c.58.26 1.15.43 1.71.65z" clip-rule="evenodd"/>
    <linearGradient id="SVGID_00000156547396386572899780000007240282993286755469_" x1="1014.5162" x2="-2188.5076" y1="-577.5017" y2="1365.0242" gradientTransform="matrix(1 0 0 -1 0 137.937)" gradientUnits="userSpaceOnUse">
      <stop offset="0" stop-color="#b6509e"/>
      <stop offset="1" stop-color="#2ebac6"/>
    </linearGradient>
    <path fill="url(#SVGID_00000156547396386572899780000007240282993286755469_)" fill-rule="evenodd" d="m55.42 134.91.82-4.31c-1.13-.11-2.21-.48-3.29-.74l-3.26-.85-1.27 4.19 3.48.91c1.17.29 2.31.69 3.52.8z" clip-rule="evenodd"/>
    <linearGradient id="SVGID_00000036964548016684725250000004637891738093435556_" x1="1874.5928" x2="-751.4832" y1="-1775.9728" y2="785.0534" gradientTransform="matrix(1 0 0 -1 0 137.937)" gradientUnits="userSpaceOnUse">
      <stop offset="0" stop-color="#b6509e"/>
      <stop offset="1" stop-color="#2ebac6"/>
    </linearGradient>
    <path fill="url(#SVGID_00000036964548016684725250000004637891738093435556_)" fill-rule="evenodd" d="m6.27 96.64 3.99-1.84c-1.08-1.98-1.7-4.16-2.52-6.26l-4.16 1.42c.88 2.23 1.56 4.55 2.69 6.68z" clip-rule="evenodd"/>
    <linearGradient id="SVGID_00000180366072356425188250000017432928570144847232_" x1="1636.4578" x2="-926.8694" y1="-1406.0103" y2="867.7574" gradientTransform="matrix(1 0 0 -1 0 137.937)" gradientUnits="userSpaceOnUse">
      <stop offset="0" stop-color="#b6509e"/>
      <stop offset="1" stop-color="#2ebac6"/>
    </linearGradient>
    <path fill="url(#SVGID_00000180366072356425188250000017432928570144847232_)" fill-rule="evenodd" d="m12.82 107.8 3.57-2.58c-1.44-1.73-2.44-3.77-3.65-5.67l-3.82 2.18c1.26 2.05 2.37 4.2 3.9 6.07z" clip-rule="evenodd"/>
    <linearGradient id="SVGID_00000124144769398609231380000011198635679730714524_" x1="1441.4723" x2="-1139.3395" y1="-1131.2096" y2="967.7454" gradientTransform="matrix(1 0 0 -1 0 137.937)" gradientUnits="userSpaceOnUse">
      <stop offset="0" stop-color="#b6509e"/>
      <stop offset="1" stop-color="#2ebac6"/>
    </linearGradient>
    <path fill="url(#SVGID_00000124144769398609231380000011198635679730714524_)" fill-rule="evenodd" d="m21.29 117.49 3-3.2-1.25-1.13c-.4-.4-.76-.82-1.13-1.25l-2.27-2.49-3.34 2.86 2.44 2.66c.4.45.79.91 1.22 1.33l1.33 1.22z" clip-rule="evenodd"/>
    <linearGradient id="SVGID_00000052082349454220575010000015518717401513638790_" x1="2456.3232" x2="-303.0959" y1="-2619.4521" y2="419.8475" gradientTransform="matrix(1 0 0 -1 0 137.937)" gradientUnits="userSpaceOnUse">
      <stop offset="0" stop-color="#b6509e"/>
      <stop offset="1" stop-color="#2ebac6"/>
    </linearGradient>
    <path fill="url(#SVGID_00000052082349454220575010000015518717401513638790_)" fill-rule="evenodd" d="m.63 58.73 4.33.59.51-3.34c.11-1.13.51-2.18.76-3.29l-4.25-1.05c-.25 1.16-.68 2.32-.82 3.51l-.53 3.58z" clip-rule="evenodd"/>
    <linearGradient id="SVGID_00000164483336326713570900000013009347390394236831_" x1="2403.3926" x2="-458.222" y1="-2990.6086" y2="656.7458" gradientTransform="matrix(1 0 0 -1 0 137.937)" gradientUnits="userSpaceOnUse">
      <stop offset="0" stop-color="#b6509e"/>
      <stop offset="1" stop-color="#2ebac6"/>
    </linearGradient>
    <path fill="url(#SVGID_00000164483336326713570900000013009347390394236831_)" fill-rule="evenodd" d="m.1 64.43-.17 3.6.17 3.63 4.39-.23-.17-3.4.17-3.37-4.39-.23z" clip-rule="evenodd"/>
    <linearGradient id="SVGID_00000045615777515080486710000012237096270588994688_" x1="2158.5581" x2="-602.1559" y1="-2304.3672" y2="721.0894" gradientTransform="matrix(1 0 0 -1 0 137.937)" gradientUnits="userSpaceOnUse">
      <stop offset="0" stop-color="#b6509e"/>
      <stop offset="1" stop-color="#2ebac6"/>
    </linearGradient>
    <path fill="url(#SVGID_00000045615777515080486710000012237096270588994688_)" fill-rule="evenodd" d="m1.97 84.37 4.25-1.05c-.65-2.15-.93-4.39-1.27-6.63l-4.36.59c.41 2.39.7 4.77 1.38 7.09z" clip-rule="evenodd"/>
    <linearGradient id="SVGID_00000126309437853106901070000013690092619099164803_" x1="2466.4895" x2="-121.5324" y1="-1866.9915" y2="230.4529" gradientTransform="matrix(1 0 0 -1 0 137.937)" gradientUnits="userSpaceOnUse">
      <stop offset="0" stop-color="#b6509e"/>
      <stop offset="1" stop-color="#2ebac6"/>
    </linearGradient>
    <path fill="url(#SVGID_00000126309437853106901070000013690092619099164803_)" fill-rule="evenodd" d="m16.36 23.77 3.34 2.86 2.27-2.49c.4-.42.74-.85 1.13-1.25l1.25-1.13-3-3.17-1.33 1.22c-.42.42-.82.88-1.22 1.33l-2.44 2.63z" clip-rule="evenodd"/>
    <linearGradient id="SVGID_00000149350211493179472930000007273749902801226372_" x1="2432.3328" x2="-132.1381" y1="-2049.1841" y2="234.2441" gradientTransform="matrix(1 0 0 -1 0 137.937)" gradientUnits="userSpaceOnUse">
      <stop offset="0" stop-color="#b6509e"/>
      <stop offset="1" stop-color="#2ebac6"/>
    </linearGradient>
    <path fill="url(#SVGID_00000149350211493179472930000007273749902801226372_)" fill-rule="evenodd" d="m8.91 34.34 3.8 2.18c1.22-1.9 2.24-3.91 3.65-5.67l-3.57-2.58c-1.5 1.88-2.58 4.03-3.88 6.07z" clip-rule="evenodd"/>
    <linearGradient id="SVGID_00000124148945389303621390000009463291487059597472_" x1="2435.2112" x2="-190.8699" y1="-2273.8115" y2="287.2115" gradientTransform="matrix(1 0 0 -1 0 137.937)" gradientUnits="userSpaceOnUse">
      <stop offset="0" stop-color="#b6509e"/>
      <stop offset="1" stop-color="#2ebac6"/>
    </linearGradient>
    <path fill="url(#SVGID_00000124148945389303621390000009463291487059597472_)" fill-rule="evenodd" d="m3.61 46.07 4.16 1.42c.79-2.1 1.44-4.28 2.52-6.26l-3.97-1.84c-1.15 2.15-1.86 4.44-2.71 6.68z" clip-rule="evenodd"/>
    <linearGradient id="SVGID_00000114783898294189476590000004389495039407687090_" x1="2777.3733" x2="-431.009" y1="-1524.6595" y2="428.1877" gradientTransform="matrix(1 0 0 -1 0 137.937)" gradientUnits="userSpaceOnUse">
      <stop offset="0" stop-color="#b6509e"/>
      <stop offset="1" stop-color="#2ebac6"/>
    </linearGradient>
    <path fill="url(#SVGID_00000114783898294189476590000004389495039407687090_)" fill-rule="evenodd" d="m48.48 2.87 1.25 4.19 3.26-.85c1.1-.25 2.18-.62 3.29-.74l-.79-4.31c-1.19.14-2.35.48-3.51.76l-3.5.95z" clip-rule="evenodd"/>
    <linearGradient id="SVGID_00000109723270033821934380000005233959343889838993_" x1="2621.771" x2="-255.6477" y1="-1609.4669" y2="329.5151" gradientTransform="matrix(1 0 0 -1 0 137.937)" gradientUnits="userSpaceOnUse">
      <stop offset="0" stop-color="#b6509e"/>
      <stop offset="1" stop-color="#2ebac6"/>
    </linearGradient>
    <path fill="url(#SVGID_00000109723270033821934380000005233959343889838993_)" fill-rule="evenodd" d="m36.5 7.74 2.04 3.88 3.03-1.47 1.53-.74c.51-.23 1.05-.4 1.59-.59l-1.61-4.05c-.57.2-1.13.4-1.7.62l-1.61.79-3.27 1.56z" clip-rule="evenodd"/>
    <linearGradient id="SVGID_00000011007848055724214990000011041747889721284275_" x1="2525.2222" x2="-159.5222" y1="-1732.1183" y2="264.4852" gradientTransform="matrix(1 0 0 -1 0 137.937)" gradientUnits="userSpaceOnUse">
      <stop offset="0" stop-color="#b6509e"/>
      <stop offset="1" stop-color="#2ebac6"/>
    </linearGradient>
    <path fill="url(#SVGID_00000011007848055724214990000011041747889721284275_)" fill-rule="evenodd" d="m25.71 14.76 2.72 3.43 2.69-2.01c.45-.34.91-.68 1.36-.99l1.44-.88-2.35-3.71-1.53.93c-.51.34-.96.71-1.44 1.08l-2.89 2.15z" clip-rule="evenodd"/>
    <linearGradient id="SVGID_00000154415119999583413820000005119209024207900303_" x1="2029.7346" x2="-994.1382" y1="-1114.8419" y2="828.4529" gradientTransform="matrix(1 0 0 -1 0 137.937)" gradientUnits="userSpaceOnUse">
      <stop offset="0" stop-color="#b6509e"/>
      <stop offset="1" stop-color="#2ebac6"/>
    </linearGradient>
    <path fill="url(#SVGID_00000154415119999583413820000005119209024207900303_)" fill-rule="evenodd" d="M86.81 2.67 85.6 6.89c1.1.23 2.15.62 3.2 1.02l3.17 1.16 1.64-4.05-3.4-1.25c-1.07-.42-2.21-.85-3.4-1.1z" clip-rule="evenodd"/>
    <linearGradient id="SVGID_00000115489365391294017640000001112769560932124579_" x1="2550.3115" x2="-893.3342" y1="-1263.978" y2="684.2013" gradientTransform="matrix(1 0 0 -1 0 137.937)" gradientUnits="userSpaceOnUse">
      <stop offset="0" stop-color="#b6509e"/>
      <stop offset="1" stop-color="#2ebac6"/>
    </linearGradient>
    <path fill="url(#SVGID_00000115489365391294017640000001112769560932124579_)" fill-rule="evenodd" d="m74.12.29-.4 4.36c2.24.17 4.45.65 6.69.93l.85-4.31C78.88.97 76.5.49 74.12.29z" clip-rule="evenodd"/>
    <linearGradient id="SVGID_00000105400203020836833100000006166930913357334925_" x1="3003.1826" x2="-725.9073" y1="-1409.6393" y2="551.5932" gradientTransform="matrix(1 0 0 -1 0 137.937)" gradientUnits="userSpaceOnUse">
      <stop offset="0" stop-color="#b6509e"/>
      <stop offset="1" stop-color="#2ebac6"/>
    </linearGradient>
    <path fill="url(#SVGID_00000105400203020836833100000006166930913357334925_)" fill-rule="evenodd" d="m61.23.32.43 4.36c2.24-.08 4.5-.25 6.74-.31l.03-4.39c-2.38.05-4.79.22-7.2.34z" clip-rule="evenodd"/>
    <linearGradient id="SVGID_00000121264574598269229450000002974720757613238197_" x1="1119.4283" x2="-1453.0972" y1="-735.0894" y2="1440.886" gradientTransform="matrix(1 0 0 -1 0 137.937)" gradientUnits="userSpaceOnUse">
      <stop offset="0" stop-color="#b6509e"/>
      <stop offset="1" stop-color="#2ebac6"/>
    </linearGradient>
    <path fill="url(#SVGID_00000121264574598269229450000002974720757613238197_)" fill-rule="evenodd" d="m119.17 23.23-3.31 2.89 1.13 1.25c.37.42.68.91 1.02 1.33l2.01 2.69 3.6-2.52-2.15-2.89c-.37-.48-.71-.96-1.1-1.42l-1.2-1.33z" clip-rule="evenodd"/>
    <linearGradient id="SVGID_00000150102395634167635170000009477622546296662442_" x1="1350.3326" x2="-1268.1885" y1="-843.0615" y2="1190.9797" gradientTransform="matrix(1 0 0 -1 0 137.937)" gradientUnits="userSpaceOnUse">
      <stop offset="0" stop-color="#b6509e"/>
      <stop offset="1" stop-color="#2ebac6"/>
    </linearGradient>
    <path fill="url(#SVGID_00000150102395634167635170000009477622546296662442_)" fill-rule="evenodd" d="m109.76 14.37-2.69 3.46 1.36 1.02c.43.37.82.76 1.25 1.13l2.49 2.27 3.06-3.17-2.66-2.44c-.45-.4-.88-.82-1.33-1.19l-1.48-1.08z" clip-rule="evenodd"/>
    <linearGradient id="SVGID_00000170256715736269117950000004300772368002509231_" x1="1642.2268" x2="-1118.546" y1="-968.6031" y2="993.5105" gradientTransform="matrix(1 0 0 -1 0 137.937)" gradientUnits="userSpaceOnUse">
      <stop offset="0" stop-color="#b6509e"/>
      <stop offset="1" stop-color="#2ebac6"/>
    </linearGradient>
    <path fill="url(#SVGID_00000170256715736269117950000004300772368002509231_)" fill-rule="evenodd" d="m98.43 12.1 4.33 2.63 2.41-3.68-3.09-1.87-1.56-.93-1.61-.79-1.98 3.91 1.5.73z" clip-rule="evenodd"/>
    <linearGradient id="SVGID_00000078032346896494578980000008760999871147324820_" x1="618.8179" x2="-2230.8064" y1="-497.5739" y2="2870.9446" gradientTransform="matrix(1 0 0 -1 0 137.937)" gradientUnits="userSpaceOnUse">
      <stop offset="0" stop-color="#b6509e"/>
      <stop offset="1" stop-color="#2ebac6"/>
    </linearGradient>
    <path fill="url(#SVGID_00000078032346896494578980000008760999871147324820_)" fill-rule="evenodd" d="m135.26 58.02-4.33.65c.14 1.1.4 2.21.45 3.34l.17 3.37 4.39-.17-.17-3.6c-.11-1.23-.34-2.4-.51-3.59z" clip-rule="evenodd"/>
    <linearGradient id="SVGID_00000054985774535792014350000012192550767439391154_" x1="760.5954" x2="-1931.0465" y1="-559.8617" y2="2212.2893" gradientTransform="matrix(1 0 0 -1 0 137.937)" gradientUnits="userSpaceOnUse">
      <stop offset="0" stop-color="#b6509e"/>
      <stop offset="1" stop-color="#2ebac6"/>
    </linearGradient>
    <path fill="url(#SVGID_00000054985774535792014350000012192550767439391154_)" fill-rule="evenodd" d="m132.17 45.47-4.14 1.44c.88 2.07 1.33 4.31 1.9 6.46l4.28-1.02c-.62-2.29-1.13-4.64-2.04-6.88z" clip-rule="evenodd"/>
    <linearGradient id="SVGID_00000080196221061647865670000004800246639537308554_" x1="163.3117" x2="45.8113" y1="70.3429" y2="164.899" gradientTransform="matrix(1 0 0 -1 0 137.937)" gradientUnits="userSpaceOnUse">
      <stop offset="0" stop-color="#b6509e"/>
      <stop offset="1" stop-color="#2ebac6"/>
    </linearGradient>
    <path fill="url(#SVGID_00000080196221061647865670000004800246639537308554_)" fill-rule="evenodd" d="m126.76 33.8-3.8 2.21c1.27 1.87 2.07 3.99 3.09 5.98l3.99-1.81c-1.04-2.13-1.95-4.4-3.28-6.38z" clip-rule="evenodd"/>
  </g>
  <defs>
    <circle id="SVGID_00000031905529549102433130000010224349525314698158_" cx="68.03" cy="68.05" r="59.51"/>
  </defs>
  <clipPath id="SVGID_00000167383049377272342020000005411016121513373343_">
    <use xlink:href="#SVGID_00000031905529549102433130000010224349525314698158_" overflow="visible"/>
  </clipPath>
</svg>
