<svg xmlns="http://www.w3.org/2000/svg" xml:space="preserve" id="Слой_1" width="48" height="48" version="1.1"
    viewBox="0 0 48 48">
    <style id="style1" type="text/css">
        .st39 {
            fill: none
        }
    </style>
    <g id="g68" transform="matrix(.07685 0 0 .07685 4.78 4.788)">
        <g id="g67">
            <g id="g6">
                <g id="g1">
                    <path id="path1"
                        d="M407.4 250c-.3 3.8-.5 7.5-.7 11.3-.1 1.9 0 3.8-.3 5.6l-.9 5.5c-.7 3.7-.8 7.5-1.8 11.1s-1.9 7.2-2.8 10.8c-.3 1.8-1 3.6-1.7 5.3l-2 5.2-1.9 5.3c-.6 1.8-1.6 3.4-2.4 5.1l-4.8 10.1c-2 3.2-4 6.3-5.9 9.6l130.2 83.9 11.5-19.1c3.4-6.6 6.6-13.3 9.8-20 1.5-3.4 3.3-6.7 4.6-10.2l3.9-10.5 3.8-10.5c1.3-3.5 2.5-7 3.4-10.6l5.5-21.6c1.8-7.2 2.5-14.6 3.8-22l1.6-11c.5-3.7.5-7.4.8-11.1l1-22.2z"
                        class="st39" />
                </g>
                <linearGradient id="SVGID_00000104708511086881872630000014844121601543802027_" x1="482.791" x2="68.039"
                    y1="377.153" y2="43.389" gradientUnits="userSpaceOnUse">
                    <stop id="stop1" offset="0" style="stop-color:#b6509e" />
                    <stop id="stop2" offset="1" style="stop-color:#2ebac6" />
                </linearGradient>
                <path id="path2" d="m469 348.6-14.1-6.4c-3.6 7.1-6.5 14.5-11 21.1l13.4 7.8c4.7-7 7.9-14.9 11.7-22.5"
                    style="clip-rule:evenodd;fill:url(#SVGID_00000104708511086881872630000014844121601543802027_);fill-rule:evenodd" />
                <linearGradient id="SVGID_00000147179263232614892750000003495048998020798140_" x1="509.181" x2="94.43"
                    y1="344.359" y2="10.594" gradientUnits="userSpaceOnUse">
                    <stop id="stop3" offset="0" style="stop-color:#b6509e" />
                    <stop id="stop4" offset="1" style="stop-color:#2ebac6" />
                </linearGradient>
                <path id="path4" d="m483.6 305.4-15.1-3.6c-2 7.7-3.6 15.5-6.7 22.8l14.6 5.1c3.3-7.8 5.1-16.1 7.2-24.3"
                    style="clip-rule:evenodd;fill:url(#SVGID_00000147179263232614892750000003495048998020798140_);fill-rule:evenodd" />
                <linearGradient id="SVGID_00000154384627953943653370000009301978914104084362_" x1="533.46" x2="118.708"
                    y1="314.189" y2="-19.576" gradientUnits="userSpaceOnUse">
                    <stop id="stop5" offset="0" style="stop-color:#b6509e" />
                    <stop id="stop6" offset="1" style="stop-color:#2ebac6" />
                </linearGradient>
                <path id="path6"
                    d="m489.8 260.4-15.5-.7-.6 11.9c-.3 4-1.1 7.9-1.7 11.8l15.3 2.3c.6-4.2 1.4-8.4 1.8-12.6z"
                    style="clip-rule:evenodd;fill:url(#SVGID_00000154384627953943653370000009301978914104084362_);fill-rule:evenodd" />
            </g>
            <g id="g12">
                <g id="g7">
                    <path id="path7"
                        d="M382.3 334.9c-16.2 25.2-39.8 45.8-67 58.1l64.4 140.9c54.2-24.6 100.7-65.1 132.8-115.1z"
                        class="st39" />
                </g>
                <linearGradient id="SVGID_00000091737110006325924560000006426042477305407383_" x1="400.601" x2="-14.151"
                    y1="479.286" y2="145.521" gradientUnits="userSpaceOnUse">
                    <stop id="stop7" offset="0" style="stop-color:#b6509e" />
                    <stop id="stop8" offset="1" style="stop-color:#2ebac6" />
                </linearGradient>
                <path id="polygon8" d="m362.3 444.5-5.1 3.1-5.4 2.6 7.1 13.8 5.7-2.8 5.5-3.3 10.8-6.6-8.4-12.9z"
                    style="clip-rule:evenodd;fill:url(#SVGID_00000091737110006325924560000006426042477305407383_);fill-rule:evenodd" />
                <linearGradient id="SVGID_00000023276711056447914070000011818503130533663874_" x1="427.188" x2="12.436"
                    y1="446.248" y2="112.483" gradientUnits="userSpaceOnUse">
                    <stop id="stop9" offset="0" style="stop-color:#b6509e" />
                    <stop id="stop10" offset="1" style="stop-color:#2ebac6" />
                </linearGradient>
                <path id="path10"
                    d="m416.6 422.9-10.7-11.2-8.8 8c-1.5 1.3-2.9 2.7-4.4 4l-4.8 3.6 9.5 12.2 5.1-3.8c1.6-1.4 3.2-2.8 4.7-4.2z"
                    style="clip-rule:evenodd;fill:url(#SVGID_00000023276711056447914070000011818503130533663874_);fill-rule:evenodd" />
                <linearGradient id="SVGID_00000134224490732016085270000001901616526776264596_" x1="454.922" x2="40.17"
                    y1="411.784" y2="78.019" gradientUnits="userSpaceOnUse">
                    <stop id="stop11" offset="0" style="stop-color:#b6509e" />
                    <stop id="stop12" offset="1" style="stop-color:#2ebac6" />
                </linearGradient>
                <path id="path12"
                    d="m446.2 388.4-12.7-8.9c-4.9 6.2-9.2 13-14.8 18.7l11.6 10.2c6.1-6.1 10.7-13.3 15.9-20"
                    style="clip-rule:evenodd;fill:url(#SVGID_00000134224490732016085270000001901616526776264596_);fill-rule:evenodd" />
            </g>
            <g id="g18">
                <g id="g13">
                    <path id="path13"
                        d="M315.3 393c-13.6 6-27.9 10.8-42.8 12.5l-5.5.9c-1.9.3-3.8.2-5.6.3-3.8.2-7.5.4-11.3.7-3.8-.3-7.5-.5-11.3-.7-1.9-.1-3.8 0-5.6-.3l-5.5-.9-21.9 153.4 11 1.6c3.7.5 7.4.5 11.1.8l22.2 1 22.2-1c3.7-.3 7.4-.3 11.1-.8l11-1.6c29.5-3.7 58.3-12.8 85.4-25z"
                        class="st39" />
                </g>
                <linearGradient id="SVGID_00000090996555707112800340000017514516171555815814_" x1="335.624" x2="-79.128"
                    y1="560.03" y2="226.265" gradientUnits="userSpaceOnUse">
                    <stop id="stop13" offset="0" style="stop-color:#b6509e" />
                    <stop id="stop14" offset="1" style="stop-color:#2ebac6" />
                </linearGradient>
                <path id="path14" d="m251.3 490.2-.1-15.5c-7.9-.2-15.9-.8-23.8-1.1l-1.5 15.4c8.4.5 16.9 1.1 25.4 1.2"
                    style="clip-rule:evenodd;fill:url(#SVGID_00000090996555707112800340000017514516171555815814_);fill-rule:evenodd" />
                <linearGradient id="SVGID_00000001654109847398355510000014461126482698818221_" x1="353.943" x2="-60.809"
                    y1="537.265" y2="203.501" gradientUnits="userSpaceOnUse">
                    <stop id="stop15" offset="0" style="stop-color:#b6509e" />
                    <stop id="stop16" offset="1" style="stop-color:#2ebac6" />
                </linearGradient>
                <path id="path16" d="m296.7 485.7-3-15.2c-7.9 1-15.7 2.7-23.6 3.3l1.4 15.4c8.4-.7 16.8-2.4 25.2-3.5"
                    style="clip-rule:evenodd;fill:url(#SVGID_00000001654109847398355510000014461126482698818221_);fill-rule:evenodd" />
                <linearGradient id="SVGID_00000082365719043996990750000000380436505949655995_" x1="375.751" x2="-39.001"
                    y1="510.165" y2="176.4" gradientUnits="userSpaceOnUse">
                    <stop id="stop17" offset="0" style="stop-color:#b6509e" />
                    <stop id="stop18" offset="1" style="stop-color:#2ebac6" />
                </linearGradient>
                <path id="path18"
                    d="m340.2 472.6-5.8-14.4-11.2 4.1-5.6 2.1c-1.9.7-3.8 1-5.7 1.6l4.3 14.9c2-.6 4.1-1 6.1-1.7l6-2.2z"
                    style="clip-rule:evenodd;fill:url(#SVGID_00000082365719043996990750000000380436505949655995_);fill-rule:evenodd" />
            </g>
            <g id="g24">
                <g id="g19">
                    <path id="path19"
                        d="M227.6 405.5c-14.9-1.6-29.2-6.5-42.8-12.5l-10.1-4.8c-3.2-2-6.3-4-9.6-5.9-3.4-1.7-6.1-4.3-9.2-6.5-3-2.3-6.2-4.3-8.8-7l-101.5 117c44.7 38.9 101.1 65 160.1 73z"
                        class="st39" />
                </g>
                <linearGradient id="SVGID_00000176002008217702801830000010623875381781764515_" x1="308.152"
                    x2="-106.599" y1="594.167" y2="260.402" gradientUnits="userSpaceOnUse">
                    <stop id="stop19" offset="0" style="stop-color:#b6509e" />
                    <stop id="stop20" offset="1" style="stop-color:#2ebac6" />
                </linearGradient>
                <path id="polygon20" d="m124.5 436.5-4.8-3.5-9.5-7.2-9.7 12.2 10.2 7.6 5.1 3.8 5.5 3.3 8.3-13.1z"
                    style="clip-rule:evenodd;fill:url(#SVGID_00000176002008217702801830000010623875381781764515_);fill-rule:evenodd" />
                <linearGradient id="SVGID_00000092444432135618381070000000326992058120110750_" x1="312.308"
                    x2="-102.444" y1="589.003" y2="255.238" gradientUnits="userSpaceOnUse">
                    <stop id="stop21" offset="0" style="stop-color:#b6509e" />
                    <stop id="stop22" offset="1" style="stop-color:#2ebac6" />
                </linearGradient>
                <path id="path22"
                    d="m161.9 473.4 5.7-14.4c-1.9-.7-3.8-1.3-5.6-2.1l-5.4-2.6-10.7-5.2-7.2 13.7 11.5 5.5 5.7 2.8c2 .9 4 1.5 6 2.3"
                    style="clip-rule:evenodd;fill:url(#SVGID_00000092444432135618381070000000326992058120110750_);fill-rule:evenodd" />
                <linearGradient id="SVGID_00000070103972701577133060000011142479575005581992_" x1="321.517" x2="-93.235"
                    y1="577.559" y2="243.794" gradientUnits="userSpaceOnUse">
                    <stop id="stop23" offset="0" style="stop-color:#b6509e" />
                    <stop id="stop24" offset="1" style="stop-color:#2ebac6" />
                </linearGradient>
                <path id="path24"
                    d="m205.6 486 2.9-15.2c-4-.4-7.8-1.7-11.6-2.6l-11.5-3-4.5 14.8 12.3 3.2c4.1 1 8.1 2.4 12.4 2.8"
                    style="clip-rule:evenodd;fill:url(#SVGID_00000070103972701577133060000011142479575005581992_);fill-rule:evenodd" />
            </g>
            <g id="g30">
                <g id="g25">
                    <path id="path25"
                        d="M147.1 368.8c-22.8-19.6-39.5-45.9-48-74.5l-148.6 43.6c.9 3.6 2 7.2 3.4 10.6l3.8 10.5 3.9 10.5c1.3 3.5 3.1 6.8 4.6 10.2 3.2 6.7 6.4 13.4 9.8 20l11.5 19.1C-8.8 425.3-4.1 431 .3 437c4.5 5.9 8.8 12 13.9 17.4l15 16.4 16.4 15z"
                        class="st39" />
                </g>
                <linearGradient id="SVGID_00000003794775683124157800000011913993280982961829_" x1="326.474" x2="-88.278"
                    y1="571.4" y2="237.635" gradientUnits="userSpaceOnUse">
                    <stop id="stop25" offset="0" style="stop-color:#b6509e" />
                    <stop id="stop26" offset="1" style="stop-color:#2ebac6" />
                </linearGradient>
                <path id="path26" d="m32.1 350.9 14.1-6.5c-3.8-7-6-14.7-8.9-22.1l-14.7 5c3.1 7.9 5.5 16.1 9.5 23.6"
                    style="clip-rule:evenodd;fill:url(#SVGID_00000003794775683124157800000011913993280982961829_);fill-rule:evenodd" />
                <linearGradient id="SVGID_00000104672211666729212850000016548978226426177681_" x1="315.329" x2="-99.423"
                    y1="585.249" y2="251.484" gradientUnits="userSpaceOnUse">
                    <stop id="stop27" offset="0" style="stop-color:#b6509e" />
                    <stop id="stop28" offset="1" style="stop-color:#2ebac6" />
                </linearGradient>
                <path id="path28"
                    d="m55.2 390.3 12.6-9.1c-5.1-6.1-8.6-13.3-12.9-20l-13.5 7.7c4.5 7.2 8.4 14.8 13.8 21.4"
                    style="clip-rule:evenodd;fill:url(#SVGID_00000104672211666729212850000016548978226426177681_);fill-rule:evenodd" />
                <linearGradient id="SVGID_00000148625317021203904910000009879789421656095403_" x1="309.172" x2="-105.58"
                    y1="592.899" y2="259.135" gradientUnits="userSpaceOnUse">
                    <stop id="stop29" offset="0" style="stop-color:#b6509e" />
                    <stop id="stop30" offset="1" style="stop-color:#2ebac6" />
                </linearGradient>
                <path id="path30"
                    d="m85.1 424.5 10.6-11.3-4.4-4c-1.4-1.4-2.7-2.9-4-4.4l-8-8.8-11.8 10.1 8.6 9.4c1.4 1.6 2.8 3.2 4.3 4.7z"
                    style="clip-rule:evenodd;fill:url(#SVGID_00000148625317021203904910000009879789421656095403_);fill-rule:evenodd" />
            </g>
            <g id="g36">
                <g id="g31">
                    <path id="path31"
                        d="M99.1 294.3c-.9-3.6-1.8-7.2-2.8-10.8s-1.1-7.4-1.8-11.1l-.9-5.5c-.3-1.9-.2-3.8-.3-5.6-.2-3.8-.4-7.5-.7-11.3.3-3.8.5-7.5.7-11.3.1-1.9 0-3.8.3-5.6l.9-5.5c.7-3.7.8-7.5 1.8-11.1s1.9-7.2 2.8-10.8l-148.6-43.6-5.5 21.6c-1.8 7.2-2.5 14.6-3.8 22l-1.6 11c-.5 3.7-.5 7.4-.8 11.1l-1 22.2 1 22.2c.3 3.7.3 7.4.8 11.1l1.6 11c1.2 7.3 2 14.7 3.8 22l5.5 21.6z"
                        class="st39" />
                </g>
                <linearGradient id="SVGID_00000058550949854323963940000013213978808942152090_" x1="385.064" x2="-29.688"
                    y1="498.568" y2="164.803" gradientUnits="userSpaceOnUse">
                    <stop id="stop31" offset="0" style="stop-color:#b6509e" />
                    <stop id="stop32" offset="1" style="stop-color:#2ebac6" />
                </linearGradient>
                <path id="path32"
                    d="m12.2 217.1 15.3 2.1 1.8-11.8c.4-4 1.8-7.7 2.7-11.6l-15-3.7c-.9 4.1-2.4 8.2-2.9 12.4z"
                    style="clip-rule:evenodd;fill:url(#SVGID_00000058550949854323963940000013213978808942152090_);fill-rule:evenodd" />
                <linearGradient id="SVGID_00000148622084711658347150000016511535402227943326_" x1="362.065" x2="-52.687"
                    y1="527.172" y2="193.407" gradientUnits="userSpaceOnUse">
                    <stop id="stop33" offset="0" style="stop-color:#b6509e" />
                    <stop id="stop34" offset="1" style="stop-color:#2ebac6" />
                </linearGradient>
                <path id="polygon34" d="m10.3 237.2-.6 12.7.6 12.8 15.5-.8-.6-12 .6-11.9z"
                    style="clip-rule:evenodd;fill:url(#SVGID_00000148622084711658347150000016511535402227943326_);fill-rule:evenodd" />
                <linearGradient id="SVGID_00000101083443461405630530000006842283544465970837_" x1="342.348" x2="-72.404"
                    y1="551.674" y2="217.909" gradientUnits="userSpaceOnUse">
                    <stop id="stop35" offset="0" style="stop-color:#b6509e" />
                    <stop id="stop36" offset="1" style="stop-color:#2ebac6" />
                </linearGradient>
                <path id="path36" d="m16.9 307.6 15-3.7c-2.3-7.6-3.3-15.5-4.5-23.4L12 282.6c1.5 8.4 2.5 16.8 4.9 25"
                    style="clip-rule:evenodd;fill:url(#SVGID_00000101083443461405630530000006842283544465970837_);fill-rule:evenodd" />
            </g>
            <g id="g42">
                <g id="g37">
                    <path id="path37"
                        d="M99.1 205.7c8.5-28.6 25.2-54.8 48-74.5L45.6 14.2l-16.4 15-15 16.4C9 51 4.7 57.1.3 63c-4.4 6-9.1 11.8-12.8 18.2L-24 100.3c-3.4 6.6-6.6 13.3-9.8 20-1.5 3.4-3.3 6.7-4.6 10.2l-3.9 10.5-3.8 10.5c-1.3 3.5-2.5 7-3.4 10.6z"
                        class="st39" />
                </g>
                <linearGradient id="SVGID_00000002376137640156149470000006679357018455115191_" x1="465.847" x2="51.096"
                    y1="398.208" y2="64.443" gradientUnits="userSpaceOnUse">
                    <stop id="stop37" offset="0" style="stop-color:#b6509e" />
                    <stop id="stop38" offset="1" style="stop-color:#2ebac6" />
                </linearGradient>
                <path id="path38"
                    d="m67.7 93.7 11.8 10.1 8-8.8c1.4-1.5 2.6-3 4-4.4l4.4-4-10.6-11.2-4.7 4.3c-1.5 1.5-2.9 3.1-4.3 4.7z"
                    style="clip-rule:evenodd;fill:url(#SVGID_00000002376137640156149470000006679357018455115191_);fill-rule:evenodd" />
                <linearGradient id="SVGID_00000066483276125556409010000015182069227145532805_" x1="437.715" x2="22.963"
                    y1="433.167" y2="99.402" gradientUnits="userSpaceOnUse">
                    <stop id="stop39" offset="0" style="stop-color:#b6509e" />
                    <stop id="stop40" offset="1" style="stop-color:#2ebac6" />
                </linearGradient>
                <path id="path40" d="m41.4 131 13.4 7.7c4.3-6.7 7.9-13.8 12.9-20l-12.6-9.1c-5.3 6.6-9.1 14.2-13.7 21.4"
                    style="clip-rule:evenodd;fill:url(#SVGID_00000066483276125556409010000015182069227145532805_);fill-rule:evenodd" />
                <linearGradient id="SVGID_00000005264282004135174270000000348760371301044121_" x1="410.748" x2="-4.003"
                    y1="466.676" y2="132.911" gradientUnits="userSpaceOnUse">
                    <stop id="stop41" offset="0" style="stop-color:#b6509e" />
                    <stop id="stop42" offset="1" style="stop-color:#2ebac6" />
                </linearGradient>
                <path id="path42" d="m22.7 172.4 14.7 5c2.8-7.4 5.1-15.1 8.9-22.1l-14-6.5c-4.1 7.6-6.6 15.7-9.6 23.6"
                    style="clip-rule:evenodd;fill:url(#SVGID_00000005264282004135174270000000348760371301044121_);fill-rule:evenodd" />
            </g>
            <g id="g48">
                <g id="g43">
                    <path id="path43"
                        d="M147.1 131.2c2.6-2.7 5.8-4.7 8.8-7 3.1-2.2 5.8-4.8 9.2-6.5 3.2-1.9 6.4-3.9 9.6-5.9l10.1-4.8c13.6-6 27.9-10.8 42.8-12.5L205.7-58.8c-59 8-115.3 34.2-160.1 73z"
                        class="st39" />
                </g>
                <linearGradient id="SVGID_00000142877909234072922670000012744162597170337698_" x1="542.268" x2="127.516"
                    y1="303.244" y2="-30.52" gradientUnits="userSpaceOnUse">
                    <stop id="stop43" offset="0" style="stop-color:#b6509e" />
                    <stop id="stop44" offset="1" style="stop-color:#2ebac6" />
                </linearGradient>
                <path id="path44"
                    d="m181.1 19.9 4.4 14.8 11.5-3c3.9-.9 7.7-2.2 11.6-2.6l-2.8-15.2c-4.2.5-8.3 1.7-12.4 2.7z"
                    style="clip-rule:evenodd;fill:url(#SVGID_00000142877909234072922670000012744162597170337698_);fill-rule:evenodd" />
                <linearGradient id="SVGID_00000106857675396471537470000011430115657239397250_" x1="518.877" x2="104.126"
                    y1="332.31" y2="-1.455" gradientUnits="userSpaceOnUse">
                    <stop id="stop45" offset="0" style="stop-color:#b6509e" />
                    <stop id="stop46" offset="1" style="stop-color:#2ebac6" />
                </linearGradient>
                <path id="path46"
                    d="m138.8 37.1 7.2 13.7 10.7-5.2 5.4-2.6c1.8-.8 3.7-1.4 5.6-2.1L162 26.6c-2 .7-4 1.4-6 2.2l-5.7 2.8z"
                    style="clip-rule:evenodd;fill:url(#SVGID_00000106857675396471537470000011430115657239397250_);fill-rule:evenodd" />
                <linearGradient id="SVGID_00000103977686473083600680000014298624371071771265_" x1="493.213" x2="78.462"
                    y1="364.201" y2="30.437" gradientUnits="userSpaceOnUse">
                    <stop id="stop47" offset="0" style="stop-color:#b6509e" />
                    <stop id="stop48" offset="1" style="stop-color:#2ebac6" />
                </linearGradient>
                <path id="path48"
                    d="m100.7 61.9 9.6 12.1 9.5-7.1c1.6-1.2 3.2-2.4 4.8-3.5l5.1-3.1-8.3-13.1-5.4 3.3c-1.8 1.2-3.4 2.5-5.1 3.8z"
                    style="clip-rule:evenodd;fill:url(#SVGID_00000103977686473083600680000014298624371071771265_);fill-rule:evenodd" />
            </g>
            <g id="g54">
                <g id="g49">
                    <path id="path49"
                        d="m227.6 94.5 5.5-.9c1.9-.3 3.8-.2 5.6-.3 3.8-.2 7.5-.4 11.3-.7 3.8.3 7.5.5 11.3.7 1.9.1 3.8 0 5.6.3l5.5.9c14.9 1.6 29.2 6.5 42.8 12.5l64.4-140.9c-27.1-12.2-55.8-21.3-85.4-25l-11-1.6c-3.7-.5-7.4-.5-11.1-.8l-22.2-1-22.2 1c-3.7.3-7.4.3-11.1.8l-11 1.6z"
                        class="st39" />
                </g>
                <linearGradient id="SVGID_00000052103213530023177160000002944217849268693427_" x1="590.461" x2="175.71"
                    y1="243.356" y2="-90.409" gradientUnits="userSpaceOnUse">
                    <stop id="stop49" offset="0" style="stop-color:#b6509e" />
                    <stop id="stop50" offset="1" style="stop-color:#2ebac6" />
                </linearGradient>
                <path id="path50"
                    d="m316.4 19.2-4.3 14.9c3.9.8 7.6 2.2 11.3 3.6l11.2 4.1 5.8-14.3-12-4.4c-3.8-1.5-7.8-3-12-3.9"
                    style="clip-rule:evenodd;fill:url(#SVGID_00000052103213530023177160000002944217849268693427_);fill-rule:evenodd" />
                <linearGradient id="SVGID_00000168113226916419175950000014654502115656089231_" x1="578.768" x2="164.016"
                    y1="257.887" y2="-75.877" gradientUnits="userSpaceOnUse">
                    <stop id="stop51" offset="0" style="stop-color:#b6509e" />
                    <stop id="stop52" offset="1" style="stop-color:#2ebac6" />
                </linearGradient>
                <path id="path52" d="m271.6 10.8-1.4 15.4c7.9.6 15.7 2.3 23.6 3.3l3-15.2c-8.4-1.1-16.8-2.8-25.2-3.5"
                    style="clip-rule:evenodd;fill:url(#SVGID_00000168113226916419175950000014654502115656089231_);fill-rule:evenodd" />
                <linearGradient id="SVGID_00000032624055548118906680000017923149123676298943_" x1="562.599" x2="147.847"
                    y1="277.979" y2="-55.785" gradientUnits="userSpaceOnUse">
                    <stop id="stop53" offset="0" style="stop-color:#b6509e" />
                    <stop id="stop54" offset="1" style="stop-color:#2ebac6" />
                </linearGradient>
                <path id="path54" d="m226.1 10.9 1.5 15.4c7.9-.3 15.9-.9 23.8-1.1l.1-15.5c-8.4.2-16.9.8-25.4 1.2"
                    style="clip-rule:evenodd;fill:url(#SVGID_00000032624055548118906680000017923149123676298943_);fill-rule:evenodd" />
            </g>
            <g id="g60">
                <g id="g55">
                    <path id="path55"
                        d="M315.3 107c27.2 12.3 50.8 32.9 67 58.1l130.2-83.9C480.4 31.3 433.9-9.2 379.7-33.9Z"
                        class="st39" />
                </g>
                <linearGradient id="SVGID_00000064347573839370157820000017572030898596083878_" x1="595.196" x2="180.444"
                    y1="237.473" y2="-96.292" gradientUnits="userSpaceOnUse">
                    <stop id="stop55" offset="0" style="stop-color:#b6509e" />
                    <stop id="stop56" offset="1" style="stop-color:#2ebac6" />
                </linearGradient>
                <path id="path56"
                    d="M430.6 91.8 418.9 102l4 4.4c1.3 1.5 2.4 3.2 3.6 4.7l7.1 9.5 12.7-8.9-7.6-10.2c-1.3-1.7-2.5-3.4-3.9-5z"
                    style="clip-rule:evenodd;fill:url(#SVGID_00000064347573839370157820000017572030898596083878_);fill-rule:evenodd" />
                <linearGradient id="SVGID_00000055708723406501865340000017864807875619820717_" x1="598.848" x2="184.096"
                    y1="232.934" y2="-100.83" gradientUnits="userSpaceOnUse">
                    <stop id="stop57" offset="0" style="stop-color:#b6509e" />
                    <stop id="stop58" offset="1" style="stop-color:#2ebac6" />
                </linearGradient>
                <path id="path58"
                    d="m397.4 60.5-9.5 12.2 4.8 3.6c1.5 1.3 2.9 2.7 4.4 4l8.8 8 10.8-11.2-9.4-8.6c-1.6-1.4-3.1-2.9-4.7-4.2z"
                    style="clip-rule:evenodd;fill:url(#SVGID_00000055708723406501865340000017864807875619820717_);fill-rule:evenodd" />
                <linearGradient id="SVGID_00000003096860706853110920000000256122463884852656_" x1="597.237" x2="182.486"
                    y1="234.936" y2="-98.829" gradientUnits="userSpaceOnUse">
                    <stop id="stop59" offset="0" style="stop-color:#b6509e" />
                    <stop id="stop60" offset="1" style="stop-color:#2ebac6" />
                </linearGradient>
                <path id="polygon60" d="m357.4 52.5 5.1 3.1 10.2 6.2 8.5-13-10.9-6.6-5.5-3.3-5.7-2.8-7 13.8z"
                    style="clip-rule:evenodd;fill:url(#SVGID_00000003096860706853110920000000256122463884852656_);fill-rule:evenodd" />
            </g>
            <g id="g66">
                <g id="g61">
                    <path id="path60"
                        d="M382.3 165.1c1.9 3.2 3.9 6.4 5.9 9.6l4.8 10.1c.8 1.7 1.8 3.3 2.4 5.1l1.9 5.3 2 5.2c.7 1.7 1.4 3.5 1.7 5.3.9 3.6 1.8 7.2 2.8 10.8s1.1 7.4 1.8 11.1l.9 5.5c.3 1.9.2 3.8.3 5.6.2 3.8.4 7.5.7 11.3h154.9l-1-22.2c-.3-3.7-.3-7.4-.8-11.1l-1.6-11c-1.2-7.3-2-14.7-3.8-22l-5.5-21.6c-.9-3.6-2-7.2-3.4-10.6l-3.8-10.5-3.9-10.5c-1.3-3.5-3.1-6.8-4.6-10.2-3.2-6.7-6.4-13.4-9.8-20l-11.5-19.1Z"
                        class="st39" />
                </g>
                <linearGradient id="SVGID_00000081649527427247603540000013030321784522334646_" x1="555.106" x2="140.354"
                    y1="287.291" y2="-46.474" gradientUnits="userSpaceOnUse">
                    <stop id="stop61" offset="0" style="stop-color:#b6509e" />
                    <stop id="stop62" offset="1" style="stop-color:#2ebac6" />
                </linearGradient>
                <path id="path62"
                    d="m487.4 214.6-15.3 2.3c.5 3.9 1.4 7.8 1.6 11.8l.6 11.9 15.5-.6-.6-12.7c-.4-4.4-1.2-8.5-1.8-12.7"
                    style="clip-rule:evenodd;fill:url(#SVGID_00000081649527427247603540000013030321784522334646_);fill-rule:evenodd" />
                <linearGradient id="SVGID_00000178895552897056328320000005882026752739807421_" x1="572.959" x2="158.207"
                    y1="265.106" y2="-68.659" gradientUnits="userSpaceOnUse">
                    <stop id="stop63" offset="0" style="stop-color:#b6509e" />
                    <stop id="stop64" offset="1" style="stop-color:#2ebac6" />
                </linearGradient>
                <path id="path64" d="m476.5 170.3-14.6 5.1c3.1 7.3 4.7 15.2 6.7 22.8l15.1-3.6c-2.2-8.1-4-16.4-7.2-24.3"
                    style="clip-rule:evenodd;fill:url(#SVGID_00000178895552897056328320000005882026752739807421_);fill-rule:evenodd" />
                <linearGradient id="SVGID_00000159430980987490825690000002652148113673706165_" x1="586.44" x2="171.688"
                    y1="248.353" y2="-85.411" gradientUnits="userSpaceOnUse">
                    <stop id="stop65" offset="0" style="stop-color:#b6509e" />
                    <stop id="stop66" offset="1" style="stop-color:#2ebac6" />
                </linearGradient>
                <path id="path66"
                    d="m457.4 129.1-13.4 7.8c4.5 6.6 7.3 14.1 10.9 21.1l14.1-6.4c-3.7-7.5-6.9-15.5-11.6-22.5"
                    style="clip-rule:evenodd;fill:url(#SVGID_00000159430980987490825690000002652148113673706165_);fill-rule:evenodd" />
            </g>
        </g>
    </g>
    <g><svg xmlns="http://www.w3.org/2000/svg"  x="9" y="9" width="30" height="30" fill="none" viewBox="0 0 256 256"><path fill="#fff" d="M128 256c70.692 0 128-57.308 128-128S198.692 0 128 0 0 57.307 0 128c0 70.692 57.307 128 128 128"/><path fill="#000" d="M91.036 221.498c47.857 0 47.857-.713 55.972-3.121 10.6-3.148-29.94-31.213-55.972-31.213s-47.133 7.685-47.133 17.165 21.1 17.169 47.133 17.169"/><path fill="#000" d="m199.706 75.513 2.2 2.372-1.924 2.6c-62.415 84.39-98.37 122.6-113.625 117.474-9.292-3.121-18.61-12.509-27.929-26.141-3.276-4.791-6.35-9.837-9.149-14.858-1.863-3.343-3.44-6.393-4.258-8.11a20.2 20.2 0 0 1-1.835-5.313l-.042-.213c-.146-.753-.2-.99-.306-1.4a85.088 85.088 0 0 1 123.685-96.148l.324.2q15.436 10.75 32.859 29.537m-37.159-23.02a77.3 77.3 0 0 0-112.166 87.43c.17.636.245.995.424 1.917l.037.189a12.6 12.6 0 0 0 1.223 3.466c.747 1.567 2.248 4.469 4.031 7.67 2.69 4.826 5.643 9.672 8.774 14.252 8.42 12.316 16.77 20.727 23.972 23.147 9.607 3.227 45.774-35.058 102.931-112.1q-15.566-16.432-29.226-25.971"/><path fill="#EC1C79" d="M162.546 52.493a77.3 77.3 0 0 0-112.165 87.43c.169.636.245.995.424 1.917l.037.189a12.6 12.6 0 0 0 1.223 3.464c.747 1.567 2.248 4.469 4.03 7.67 2.69 4.826 5.644 9.672 8.775 14.252 8.419 12.316 16.769 20.727 23.972 23.147 9.607 3.227 45.774-35.058 102.931-112.1q-15.566-16.432-29.227-25.969"/><path fill="#000" d="M140.663 220.718a85.058 85.058 0 0 1-83.422-101.65 85.056 85.056 0 1 1 83.422 101.65m0-7.8a77.25 77.25 0 0 0 42.918-13.02 77.248 77.248 0 0 0 11.707-118.857A77.252 77.252 0 0 0 69.29 165.226a77.26 77.26 0 0 0 41.81 41.809 77.3 77.3 0 0 0 29.563 5.88z"/><path fill="#fff" d="M140.662 212.915a77.26 77.26 0 0 0 71.372-47.689 77.25 77.25 0 0 0-16.746-84.188A77.254 77.254 0 0 0 76.43 92.743a77.251 77.251 0 0 0 64.232 120.172"/><path fill="#1969FF" d="M136.331 83.487c2.594-1.368 6.541-1.368 9.135 0l26.472 13.955c1.562.824 2.42 2.051 2.574 3.318h.025v70.147c-.034 1.382-.9 2.755-2.599 3.651l-26.472 13.955c-2.594 1.368-6.541 1.368-9.135 0l-26.471-13.955c-1.692-.892-2.504-2.274-2.544-3.651a5 5 0 0 1 0-.353v-69.322a4 4 0 0 1 0-.291v-.181h.012c.117-1.28.936-2.477 2.532-3.318zm33.995 56.273-24.868 13.153c-2.59 1.37-6.532 1.37-9.122 0l-24.813-13.124v30.901l24.813 13.055c1.466.784 2.991 1.549 4.475 1.582l.086.001c1.482.005 2.92-.748 4.379-1.462l25.05-13.288zm-67.161 29.627c0 2.689.31 4.456.925 5.701.51 1.032 1.275 1.821 2.671 2.781l.08.054c.307.209.644.427 1.055.684l.485.299 1.488.907-2.134 3.56-1.666-1.015-.28-.173c-.482-.3-.881-.558-1.253-.811-3.981-2.708-5.465-5.66-5.495-11.8v-.187zm35.73-48.276a4 4 0 0 0-.538.23l-26.431 14.001-.079.043-.023.013.042.024.06.033 26.431 14q.247.131.538.231zm4.21 0v28.575q.29-.1.538-.231l26.431-14 .079-.044.023-.013-.042-.023-.06-.033-26.431-14.001a4 4 0 0 0-.538-.23m27.221-15.34-23.762 12.483 23.762 12.482zm-58.803 0v24.965l23.762-12.482zm32.097-18.554c-1.375-.727-3.864-.727-5.24 0l-26.454 13.986-.079.044-.023.013.042.024.06.032 26.454 13.986c1.376.728 3.865.728 5.24 0l26.454-13.986q.042-.021.079-.043l.023-.013-.042-.024-.06-.033zm30.645 1.41 1.666 1.015.28.173c.482.3.881.558 1.253.811 3.981 2.708 5.465 5.66 5.495 11.8v.187h-4.124c0-2.689-.31-4.456-.925-5.701-.51-1.033-1.275-1.821-2.671-2.78l-.08-.055a33 33 0 0 0-1.055-.684l-.485-.3-1.488-.906z"/><path fill="#000" d="M45.07 111.479a4.37 4.37 0 0 1 3.904-7.817l12.485 6.243a4.38 4.38 0 0 1 2.228 2.525 4.37 4.37 0 0 1-6.136 5.292zm-1.438 20.701a4.38 4.38 0 0 1-2.311-2.454 4.369 4.369 0 0 1 5.973-5.481l12.485 5.762a4.38 4.38 0 0 1 2.312 2.454 4.369 4.369 0 0 1-5.974 5.481z"/></svg>
        <g>
</svg>