<svg xmlns="http://www.w3.org/2000/svg" width="48" height="48" fill="none" viewBox="0 0 48 48"><g fill-rule="evenodd" clip-path="url(#a)" clip-rule="evenodd"><path fill="url(#b)" d="m45.884 33.858-1.41-.64c-.36.71-.65 1.45-1.1 2.11l1.34.78c.47-.7.79-1.49 1.17-2.25"/><path fill="url(#c)" d="m47.344 29.539-1.51-.36c-.2.77-.36 1.55-.67 2.28l1.46.51c.33-.78.51-1.61.72-2.43"/><path fill="url(#d)" d="m47.964 25.04-1.55-.07-.06 1.19c-.03.4-.11.79-.17 1.18l1.53.23c.06-.42.14-.84.18-1.26z"/><path fill="url(#e)" d="m35.217 43.445-.51.31-.54.26.71 1.38.57-.28.55-.33 1.08-.66-.84-1.29z"/><path fill="url(#f)" d="m40.646 41.286-1.07-1.12-.88.8c-.15.13-.29.27-.44.4l-.48.36.95 1.22.51-.38c.16-.14.32-.28.47-.42z"/><path fill="url(#g)" d="m43.605 37.837-1.27-.89c-.49.62-.92 1.3-1.48 1.87l1.16 1.02c.61-.61 1.07-1.33 1.59-2"/><path fill="url(#h)" d="m24.12 48.014-.01-1.55c-.79-.02-1.59-.08-2.38-.11l-.15 1.54c.84.05 1.69.11 2.54.12"/><path fill="url(#i)" d="m28.659 47.564-.3-1.52c-.79.1-1.57.27-2.36.33l.14 1.54c.84-.07 1.68-.24 2.52-.35"/><path fill="url(#j)" d="m33.008 46.254-.58-1.44-1.12.41-.56.21c-.19.07-.38.1-.57.16l.43 1.49c.2-.06.41-.1.61-.17l.6-.22z"/><path fill="url(#k)" d="m11.444 42.645-.48-.35-.95-.72-.97 1.22 1.53 1.14.55.33.83-1.31z"/><path fill="url(#l)" d="m15.183 46.334.57-1.44c-.19-.07-.38-.13-.56-.21l-.54-.26-1.07-.519-.72 1.37 1.15.55.57.28c.2.09.4.15.6.23"/><path fill="url(#m)" d="m19.551 47.594.29-1.52c-.4-.04-.78-.17-1.16-.26l-1.149-.3-.45 1.48 1.23.32c.41.1.81.24 1.24.28"/><path fill="url(#n)" d="m2.206 34.088 1.41-.65c-.38-.7-.6-1.47-.89-2.21l-1.47.5c.31.79.55 1.61.95 2.36"/><path fill="url(#o)" d="m4.516 38.027 1.26-.91c-.51-.61-.86-1.33-1.29-2l-1.35.77c.45.72.84 1.48 1.38 2.14"/><path fill="url(#p)" d="m7.505 41.446 1.06-1.13-.44-.4c-.14-.14-.27-.29-.4-.44l-.8-.88-1.18 1.01.86.94c.14.16.28.32.43.47z"/><path fill="url(#q)" d="m.217 20.712 1.53.21.18-1.18c.04-.4.18-.77.27-1.16l-1.5-.37c-.09.41-.24.82-.29 1.24z"/><path fill="url(#r)" d="m.027 22.72-.06 1.27.06 1.28 1.55-.08-.06-1.2.06-1.19z"/><path fill="url(#s)" d="m.687 29.759 1.5-.37c-.23-.76-.33-1.55-.45-2.34l-1.54.21c.15.84.25 1.68.49 2.5"/><path fill="url(#t)" d="m5.765 8.375 1.18 1.01.8-.88c.14-.15.26-.3.4-.44l.44-.4-1.06-1.12-.47.43c-.15.15-.29.31-.43.47z"/><path fill="url(#u)" d="m3.136 12.104 1.34.77c.43-.67.79-1.38 1.29-2l-1.26-.91c-.53.66-.91 1.42-1.37 2.14"/><path fill="url(#v)" d="m1.266 16.243 1.47.5c.28-.74.51-1.51.89-2.21l-1.4-.65c-.41.76-.66 1.57-.96 2.36"/><path fill="url(#w)" d="m17.102.997.44 1.48 1.15-.3c.39-.09.77-.22 1.16-.26l-.28-1.52c-.42.05-.83.17-1.24.27z"/><path fill="url(#x)" d="m12.873 2.716.72 1.37 1.07-.52.54-.26c.18-.08.37-.14.56-.21l-.57-1.43c-.2.07-.4.14-.6.22l-.57.28z"/><path fill="url(#y)" d="m9.064 5.196.96 1.21.95-.71c.16-.12.32-.24.48-.35l.51-.31-.83-1.31-.54.33c-.18.12-.34.25-.51.38z"/><path fill="url(#z)" d="m30.628.927-.43 1.49c.39.08.76.22 1.13.36l1.12.41.58-1.43-1.2-.44c-.38-.15-.78-.3-1.2-.39"/><path fill="url(#A)" d="m26.15.087-.14 1.54c.79.06 1.57.23 2.359.33l.3-1.52c-.84-.11-1.68-.28-2.52-.35"/><path fill="url(#B)" d="m21.6.097.15 1.54c.79-.03 1.59-.09 2.38-.11l.01-1.55c-.84.02-1.69.08-2.54.12"/><path fill="url(#C)" d="m42.045 8.185-1.17 1.02.4.44c.13.15.24.32.36.47l.71.95 1.27-.89-.76-1.02c-.13-.17-.25-.34-.39-.5z"/><path fill="url(#D)" d="m38.726 5.056-.95 1.22.48.36c.15.13.29.27.44.4l.88.799 1.08-1.12-.94-.86c-.16-.14-.31-.29-.47-.42z"/><path fill="url(#E)" d="m34.727 4.256 1.53.93.85-1.3-1.09-.66-.55-.33-.57-.28-.7 1.38z"/><path fill="url(#F)" d="m47.724 20.462-1.53.23c.05.39.14.78.16 1.18l.06 1.189 1.55-.06-.06-1.27c-.04-.44-.12-.85-.18-1.27"/><path fill="url(#G)" d="m46.634 16.033-1.46.51c.31.73.47 1.52.67 2.279l1.51-.36c-.22-.81-.4-1.64-.72-2.43"/><path fill="url(#H)" d="m44.724 11.914-1.34.78c.45.66.73 1.41 1.09 2.11l1.41-.64c-.37-.75-.69-1.55-1.16-2.25"/></g><g clip-path="url(#I)"><svg xmlns="http://www.w3.org/2000/svg" width="48" height="48" viewBox="0 0 256 256"><path fill="#fff" d="M128 256c70.692 0 128-57.308 128-128S198.692 0 128 0 0 57.307 0 128c0 70.692 57.307 128 128 128"/><path fill="#000" d="M91.036 221.498c47.857 0 47.857-.713 55.972-3.121 10.6-3.148-29.94-31.213-55.972-31.213s-47.133 7.685-47.133 17.165 21.1 17.169 47.133 17.169"/><path fill="#000" d="m199.706 75.513 2.2 2.372-1.924 2.6c-62.415 84.39-98.37 122.6-113.625 117.474-9.292-3.121-18.61-12.509-27.929-26.141-3.276-4.791-6.35-9.837-9.149-14.858-1.863-3.343-3.44-6.393-4.258-8.11a20.2 20.2 0 0 1-1.835-5.313l-.042-.213c-.146-.753-.2-.99-.306-1.4a85.088 85.088 0 0 1 123.685-96.148l.324.2q15.436 10.75 32.859 29.537m-37.159-23.02a77.3 77.3 0 0 0-112.166 87.43c.17.636.245.995.424 1.917l.037.189a12.6 12.6 0 0 0 1.223 3.466c.747 1.567 2.248 4.469 4.031 7.67 2.69 4.826 5.643 9.672 8.774 14.252 8.42 12.316 16.77 20.727 23.972 23.147 9.607 3.227 45.774-35.058 102.931-112.1q-15.566-16.432-29.226-25.971"/><path fill="#EC1C79" d="M162.546 52.493a77.3 77.3 0 0 0-112.165 87.43c.169.636.245.995.424 1.917l.037.189a12.6 12.6 0 0 0 1.223 3.464c.747 1.567 2.248 4.469 4.03 7.67 2.69 4.826 5.644 9.672 8.775 14.252 8.419 12.316 16.769 20.727 23.972 23.147 9.607 3.227 45.774-35.058 102.931-112.1q-15.566-16.432-29.227-25.969"/><path fill="#000" d="M140.663 220.718a85.058 85.058 0 0 1-83.422-101.65 85.056 85.056 0 1 1 83.422 101.65m0-7.8a77.25 77.25 0 0 0 42.918-13.02 77.248 77.248 0 0 0 11.707-118.857A77.252 77.252 0 0 0 69.29 165.226a77.26 77.26 0 0 0 41.81 41.809 77.3 77.3 0 0 0 29.563 5.88z"/><path fill="#fff" d="M140.662 212.915a77.26 77.26 0 0 0 71.372-47.689 77.25 77.25 0 0 0-16.746-84.188A77.254 77.254 0 0 0 76.43 92.743a77.251 77.251 0 0 0 64.232 120.172"/><path fill="#1969FF" d="M136.331 83.487c2.594-1.368 6.541-1.368 9.135 0l26.472 13.955c1.562.824 2.42 2.051 2.574 3.318h.025v70.147c-.034 1.382-.9 2.755-2.599 3.651l-26.472 13.955c-2.594 1.368-6.541 1.368-9.135 0l-26.471-13.955c-1.692-.892-2.504-2.274-2.544-3.651a5 5 0 0 1 0-.353v-69.322a4 4 0 0 1 0-.291v-.181h.012c.117-1.28.936-2.477 2.532-3.318zm33.995 56.273-24.868 13.153c-2.59 1.37-6.532 1.37-9.122 0l-24.813-13.124v30.901l24.813 13.055c1.466.784 2.991 1.549 4.475 1.582l.086.001c1.482.005 2.92-.748 4.379-1.462l25.05-13.288zm-67.161 29.627c0 2.689.31 4.456.925 5.701.51 1.032 1.275 1.821 2.671 2.781l.08.054c.307.209.644.427 1.055.684l.485.299 1.488.907-2.134 3.56-1.666-1.015-.28-.173c-.482-.3-.881-.558-1.253-.811-3.981-2.708-5.465-5.66-5.495-11.8v-.187zm35.73-48.276a4 4 0 0 0-.538.23l-26.431 14.001-.079.043-.023.013.042.024.06.033 26.431 14q.247.131.538.231zm4.21 0v28.575q.29-.1.538-.231l26.431-14 .079-.044.023-.013-.042-.023-.06-.033-26.431-14.001a4 4 0 0 0-.538-.23m27.221-15.34-23.762 12.483 23.762 12.482zm-58.803 0v24.965l23.762-12.482zm32.097-18.554c-1.375-.727-3.864-.727-5.24 0l-26.454 13.986-.079.044-.023.013.042.024.06.032 26.454 13.986c1.376.728 3.865.728 5.24 0l26.454-13.986q.042-.021.079-.043l.023-.013-.042-.024-.06-.033zm30.645 1.41 1.666 1.015.28.173c.482.3.881.558 1.253.811 3.981 2.708 5.465 5.66 5.495 11.8v.187h-4.124c0-2.689-.31-4.456-.925-5.701-.51-1.033-1.275-1.821-2.671-2.78l-.08-.055a33 33 0 0 0-1.055-.684l-.485-.3-1.488-.906z"/><path fill="#000" d="M45.07 111.479a4.37 4.37 0 0 1 3.904-7.817l12.485 6.243a4.38 4.38 0 0 1 2.228 2.525 4.37 4.37 0 0 1-6.136 5.292zm-1.438 20.701a4.38 4.38 0 0 1-2.311-2.454 4.369 4.369 0 0 1 5.973-5.481l12.485 5.762a4.38 4.38 0 0 1 2.312 2.454 4.369 4.369 0 0 1-5.974 5.481z"/></svg></g><defs><linearGradient id="b" x1="89.53" x2="-825.17" y1="68.3" y2="-779.228" gradientUnits="userSpaceOnUse"><stop stop-color="#B6509E"/><stop offset="1" stop-color="#2EBAC6"/></linearGradient><linearGradient id="c" x1="128.494" x2="-821.333" y1="88.03" y2="-890.21" gradientUnits="userSpaceOnUse"><stop stop-color="#B6509E"/><stop offset="1" stop-color="#2EBAC6"/></linearGradient><linearGradient id="d" x1="208.381" x2="-798.122" y1="123.642" y2="-1059.46" gradientUnits="userSpaceOnUse"><stop stop-color="#B6509E"/><stop offset="1" stop-color="#2EBAC6"/></linearGradient><linearGradient id="e" x1="97.496" x2="-879.277" y1="92.507" y2="-598.994" gradientUnits="userSpaceOnUse"><stop stop-color="#B6509E"/><stop offset="1" stop-color="#2EBAC6"/></linearGradient><linearGradient id="f" x1="78.258" x2="-846.56" y1="70.379" y2="-650.515" gradientUnits="userSpaceOnUse"><stop stop-color="#B6509E"/><stop offset="1" stop-color="#2EBAC6"/></linearGradient><linearGradient id="g" x1="75.026" x2="-829.603" y1="62.533" y2="-702.513" gradientUnits="userSpaceOnUse"><stop stop-color="#B6509E"/><stop offset="1" stop-color="#2EBAC6"/></linearGradient><linearGradient id="h" x1="262.521" x2="-1053.41" y1="317.895" y2="-374.189" gradientUnits="userSpaceOnUse"><stop stop-color="#B6509E"/><stop offset="1" stop-color="#2EBAC6"/></linearGradient><linearGradient id="i" x1="189.598" x2="-1025.6" y1="215.72" y2="-471.757" gradientUnits="userSpaceOnUse"><stop stop-color="#B6509E"/><stop offset="1" stop-color="#2EBAC6"/></linearGradient><linearGradient id="j" x1="133.663" x2="-930.647" y1="135.723" y2="-551.282" gradientUnits="userSpaceOnUse"><stop stop-color="#B6509E"/><stop offset="1" stop-color="#2EBAC6"/></linearGradient><linearGradient id="k" x1="438.358" x2="-505.593" y1="383.608" y2="-318.594" gradientUnits="userSpaceOnUse"><stop stop-color="#B6509E"/><stop offset="1" stop-color="#2EBAC6"/></linearGradient><linearGradient id="l" x1="367.884" x2="-644.885" y1="352.282" y2="-333.003" gradientUnits="userSpaceOnUse"><stop stop-color="#B6509E"/><stop offset="1" stop-color="#2EBAC6"/></linearGradient><linearGradient id="m" x1="310.913" x2="-819.374" y1="330.087" y2="-355.394" gradientUnits="userSpaceOnUse"><stop stop-color="#B6509E"/><stop offset="1" stop-color="#2EBAC6"/></linearGradient><linearGradient id="n" x1="796.792" x2="-129.901" y1="536.642" y2="-367.096" gradientUnits="userSpaceOnUse"><stop stop-color="#B6509E"/><stop offset="1" stop-color="#2EBAC6"/></linearGradient><linearGradient id="o" x1="640.69" x2="-263.86" y1="473.543" y2="-328.827" gradientUnits="userSpaceOnUse"><stop stop-color="#B6509E"/><stop offset="1" stop-color="#2EBAC6"/></linearGradient><linearGradient id="p" x1="527.908" x2="-382.812" y1="424.179" y2="-316.503" gradientUnits="userSpaceOnUse"><stop stop-color="#B6509E"/><stop offset="1" stop-color="#2EBAC6"/></linearGradient><linearGradient id="q" x1="1168.67" x2="194.923" y1="698.93" y2="-373.582" gradientUnits="userSpaceOnUse"><stop stop-color="#B6509E"/><stop offset="1" stop-color="#2EBAC6"/></linearGradient><linearGradient id="r" x1="1359.4" x2="349.59" y1="702.843" y2="-584.24" gradientUnits="userSpaceOnUse"><stop stop-color="#B6509E"/><stop offset="1" stop-color="#2EBAC6"/></linearGradient><linearGradient id="s" x1="1029.35" x2="55.146" y1="617.607" y2="-450.02" gradientUnits="userSpaceOnUse"><stop stop-color="#B6509E"/><stop offset="1" stop-color="#2EBAC6"/></linearGradient><linearGradient id="t" x1="874.387" x2="-38.877" y1="702.532" y2="-37.617" gradientUnits="userSpaceOnUse"><stop stop-color="#B6509E"/><stop offset="1" stop-color="#2EBAC6"/></linearGradient><linearGradient id="u" x1="933.728" x2="28.774" y1="687.088" y2="-118.691" gradientUnits="userSpaceOnUse"><stop stop-color="#B6509E"/><stop offset="1" stop-color="#2EBAC6"/></linearGradient><linearGradient id="v" x1="1019.51" x2="92.815" y1="686.801" y2="-216.936" gradientUnits="userSpaceOnUse"><stop stop-color="#B6509E"/><stop offset="1" stop-color="#2EBAC6"/></linearGradient><linearGradient id="w" x1="812.862" x2="-319.316" y1="861.405" y2="172.282" gradientUnits="userSpaceOnUse"><stop stop-color="#B6509E"/><stop offset="1" stop-color="#2EBAC6"/></linearGradient><linearGradient id="x" x1="813.991" x2="-201.396" y1="781.595" y2="97.365" gradientUnits="userSpaceOnUse"><stop stop-color="#B6509E"/><stop offset="1" stop-color="#2EBAC6"/></linearGradient><linearGradient id="y" x1="837.936" x2="-109.46" y1="731.376" y2="26.812" gradientUnits="userSpaceOnUse"><stop stop-color="#B6509E"/><stop offset="1" stop-color="#2EBAC6"/></linearGradient><linearGradient id="z" x1="606.97" x2="-460.098" y1="612.111" y2="-73.641" gradientUnits="userSpaceOnUse"><stop stop-color="#B6509E"/><stop offset="1" stop-color="#2EBAC6"/></linearGradient><linearGradient id="A" x1="717.133" x2="-498.065" y1="817.847" y2="130.371" gradientUnits="userSpaceOnUse"><stop stop-color="#B6509E"/><stop offset="1" stop-color="#2EBAC6"/></linearGradient><linearGradient id="B" x1="820.019" x2="-495.907" y1="1001.94" y2="309.858" gradientUnits="userSpaceOnUse"><stop stop-color="#B6509E"/><stop offset="1" stop-color="#2EBAC6"/></linearGradient><linearGradient id="C" x1="394.545" x2="-513.251" y1="308.62" y2="-459.241" gradientUnits="userSpaceOnUse"><stop stop-color="#B6509E"/><stop offset="1" stop-color="#2EBAC6"/></linearGradient><linearGradient id="D" x1="450.145" x2="-473.882" y1="380.09" y2="-337.685" gradientUnits="userSpaceOnUse"><stop stop-color="#B6509E"/><stop offset="1" stop-color="#2EBAC6"/></linearGradient><linearGradient id="E" x1="518.793" x2="-455.432" y1="475.886" y2="-216.507" gradientUnits="userSpaceOnUse"><stop stop-color="#B6509E"/><stop offset="1" stop-color="#2EBAC6"/></linearGradient><linearGradient id="F" x1="285.61" x2="-719.969" y1="167.357" y2="-1021.33" gradientUnits="userSpaceOnUse"><stop stop-color="#B6509E"/><stop offset="1" stop-color="#2EBAC6"/></linearGradient><linearGradient id="G" x1="310.89" x2="-638.94" y1="204.963" y2="-773.277" gradientUnits="userSpaceOnUse"><stop stop-color="#B6509E"/><stop offset="1" stop-color="#2EBAC6"/></linearGradient><linearGradient id="H" x1="57.625" x2="16.161" y1="23.836" y2="-9.531" gradientUnits="userSpaceOnUse"><stop stop-color="#B6509E"/><stop offset="1" stop-color="#2EBAC6"/></linearGradient><clipPath id="I"><circle cx="24" cy="24" r="21"/></clipPath><clipPath id="a"><path fill="#fff" d="M0 0h48v48H0z"/></clipPath></defs></svg>