<svg xmlns="http://www.w3.org/2000/svg" width="48" height="48" fill="none" viewBox="0 0 48 48"><g fill-rule="evenodd" clip-path="url(#a)" clip-rule="evenodd"><path fill="url(#b)" d="m45.884 33.858-1.41-.64c-.36.71-.65 1.45-1.1 2.11l1.34.78c.47-.7.79-1.49 1.17-2.25"/><path fill="url(#c)" d="m47.344 29.539-1.51-.36c-.2.77-.36 1.55-.67 2.28l1.46.51c.33-.78.51-1.61.72-2.43"/><path fill="url(#d)" d="m47.964 25.04-1.55-.07-.06 1.19c-.03.4-.11.79-.17 1.18l1.53.23c.06-.42.14-.84.18-1.26z"/><path fill="url(#e)" d="m35.217 43.445-.51.31-.54.26.71 1.38.57-.28.55-.33 1.08-.66-.84-1.29z"/><path fill="url(#f)" d="m40.646 41.286-1.07-1.12-.88.8c-.15.13-.29.27-.44.4l-.48.36.95 1.22.51-.38c.16-.14.32-.28.47-.42z"/><path fill="url(#g)" d="m43.605 37.837-1.27-.89c-.49.62-.92 1.3-1.48 1.87l1.16 1.02c.61-.61 1.07-1.33 1.59-2"/><path fill="url(#h)" d="m24.12 48.014-.01-1.55c-.79-.02-1.59-.08-2.38-.11l-.15 1.54c.84.05 1.69.11 2.54.12"/><path fill="url(#i)" d="m28.659 47.564-.3-1.52c-.79.1-1.57.27-2.36.33l.14 1.54c.84-.07 1.68-.24 2.52-.35"/><path fill="url(#j)" d="m33.008 46.254-.58-1.44-1.12.41-.56.21c-.19.07-.38.1-.57.16l.43 1.49c.2-.06.41-.1.61-.17l.6-.22z"/><path fill="url(#k)" d="m11.444 42.645-.48-.35-.95-.72-.97 1.22 1.53 1.14.55.33.83-1.31z"/><path fill="url(#l)" d="m15.183 46.334.57-1.44c-.19-.07-.38-.13-.56-.21l-.54-.26-1.07-.519-.72 1.37 1.15.55.57.28c.2.09.4.15.6.23"/><path fill="url(#m)" d="m19.551 47.594.29-1.52c-.4-.04-.78-.17-1.16-.26l-1.149-.3-.45 1.48 1.23.32c.41.1.81.24 1.24.28"/><path fill="url(#n)" d="m2.206 34.088 1.41-.65c-.38-.7-.6-1.47-.89-2.21l-1.47.5c.31.79.55 1.61.95 2.36"/><path fill="url(#o)" d="m4.516 38.027 1.26-.91c-.51-.61-.86-1.33-1.29-2l-1.35.77c.45.72.84 1.48 1.38 2.14"/><path fill="url(#p)" d="m7.505 41.446 1.06-1.13-.44-.4c-.14-.14-.27-.29-.4-.44l-.8-.88-1.18 1.01.86.94c.14.16.28.32.43.47z"/><path fill="url(#q)" d="m.217 20.712 1.53.21.18-1.18c.04-.4.18-.77.27-1.16l-1.5-.37c-.09.41-.24.82-.29 1.24z"/><path fill="url(#r)" d="m.027 22.72-.06 1.27.06 1.28 1.55-.08-.06-1.2.06-1.19z"/><path fill="url(#s)" d="m.687 29.759 1.5-.37c-.23-.76-.33-1.55-.45-2.34l-1.54.21c.15.84.25 1.68.49 2.5"/><path fill="url(#t)" d="m5.765 8.375 1.18 1.01.8-.88c.14-.15.26-.3.4-.44l.44-.4-1.06-1.12-.47.43c-.15.15-.29.31-.43.47z"/><path fill="url(#u)" d="m3.136 12.104 1.34.77c.43-.67.79-1.38 1.29-2l-1.26-.91c-.53.66-.91 1.42-1.37 2.14"/><path fill="url(#v)" d="m1.266 16.243 1.47.5c.28-.74.51-1.51.89-2.21l-1.4-.65c-.41.76-.66 1.57-.96 2.36"/><path fill="url(#w)" d="m17.102.997.44 1.48 1.15-.3c.39-.09.77-.22 1.16-.26l-.28-1.52c-.42.05-.83.17-1.24.27z"/><path fill="url(#x)" d="m12.873 2.716.72 1.37 1.07-.52.54-.26c.18-.08.37-.14.56-.21l-.57-1.43c-.2.07-.4.14-.6.22l-.57.28z"/><path fill="url(#y)" d="m9.064 5.196.96 1.21.95-.71c.16-.12.32-.24.48-.35l.51-.31-.83-1.31-.54.33c-.18.12-.34.25-.51.38z"/><path fill="url(#z)" d="m30.628.927-.43 1.49c.39.08.76.22 1.13.36l1.12.41.58-1.43-1.2-.44c-.38-.15-.78-.3-1.2-.39"/><path fill="url(#A)" d="m26.15.087-.14 1.54c.79.06 1.57.23 2.359.33l.3-1.52c-.84-.11-1.68-.28-2.52-.35"/><path fill="url(#B)" d="m21.6.097.15 1.54c.79-.03 1.59-.09 2.38-.11l.01-1.55c-.84.02-1.69.08-2.54.12"/><path fill="url(#C)" d="m42.045 8.185-1.17 1.02.4.44c.13.15.24.32.36.47l.71.95 1.27-.89-.76-1.02c-.13-.17-.25-.34-.39-.5z"/><path fill="url(#D)" d="m38.726 5.056-.95 1.22.48.36c.15.13.29.27.44.4l.88.799 1.08-1.12-.94-.86c-.16-.14-.31-.29-.47-.42z"/><path fill="url(#E)" d="m34.727 4.256 1.53.93.85-1.3-1.09-.66-.55-.33-.57-.28-.7 1.38z"/><path fill="url(#F)" d="m47.724 20.462-1.53.23c.05.39.14.78.16 1.18l.06 1.189 1.55-.06-.06-1.27c-.04-.44-.12-.85-.18-1.27"/><path fill="url(#G)" d="m46.634 16.033-1.46.51c.31.73.47 1.52.67 2.279l1.51-.36c-.22-.81-.4-1.64-.72-2.43"/><path fill="url(#H)" d="m44.724 11.914-1.34.78c.45.66.73 1.41 1.09 2.11l1.41-.64c-.37-.75-.69-1.55-1.16-2.25"/></g><g clip-path="url(#I)"><svg xmlns="http://www.w3.org/2000/svg" width="48" height="48" viewBox="0 0 48 48"><path fill="#09E33A" d="M15.578 7.904c.423.332.792.704 1.16 1.095q.308.316.644.598c.707.617 1.358 1.294 2.019 1.96l.438.44 2.316 2.327 2.292 2.304a21 21 0 0 0 1.541-1.439l.474-.482.25-.256q.664-.675 1.33-1.349.845-.855 1.685-1.712.681-.697 1.368-1.389.26-.262.517-.527c1.201-1.234 2.362-2.39 4.181-2.434 1.538-.013 2.676.351 3.82 1.419A4.98 4.98 0 0 1 41 11.769c-.055 2.215-1.37 3.515-2.852 4.972l-.516.515q-.675.672-1.352 1.341-.959.949-1.913 1.9l-1.018 1.01-.461.458-.215.211-.194.193-.17.168c-.263.287-.26.534-.27.913l-.012.3c.103.71.697 1.205 1.187 1.686l.216.214.463.46q.368.363.735.728 1.042 1.038 2.088 2.072.64.634 1.279 1.27l.486.481c1.626 1.601 1.626 1.601 2.062 2.531l.106.215c.517 1.102.384 2.49 0 3.608-.508 1.013-1.209 1.688-2.118 2.336l-.245.18c-1.305.639-2.631.565-3.99.139-1.56-.603-2.838-2.3-3.993-3.462l-.5-.503-2.64-2.65-2.61-2.623c-.317.142-.537.3-.78.548l-.209.209-.224.23-.239.241-.513.52-.815.826q-1.16 1.17-2.317 2.345-.709.72-1.42 1.434l-.537.547-.757.765-.22.227c-.934.932-2.03 1.59-3.364 1.608l-.286-.004-.299-.002c-1.287-.033-2.193-.466-3.163-1.318a5.6 5.6 0 0 1-.635-.85l-.124-.192c-.585-.955-.78-2.251-.568-3.355.4-1.493 1.298-2.44 2.373-3.49q.38-.373.757-.748.802-.795 1.606-1.585.934-.92 1.864-1.844l.746-.733.456-.452.21-.203c.488-.488.879-1.013.88-1.74-.086-.78-.644-1.26-1.179-1.786l-.213-.213-.456-.454-.72-.717-1.529-1.521-1.774-1.768-.712-.707-.433-.432-.202-.2a16 16 0 0 1-.452-.477v-.212l-.318-.106c-.8-.921-1.01-2.26-.94-3.445.178-1.413.84-2.565 1.947-3.46 1.7-1.178 3.883-1.162 5.584-.014"/><path fill="#0DB50A" d="M28.366 20.663c.496.415.965.847 1.42 1.308l.185.186.578.583.39.392.86.866q.711.715 1.427 1.425l2.18 2.17q.657.657 1.316 1.31.64.636 1.277 1.273l.485.482c1.622 1.604 1.622 1.604 2.06 2.534l.105.215c.517 1.102.384 2.49 0 3.608-.508 1.013-1.209 1.688-2.118 2.336l-.245.18c-1.305.639-2.631.565-3.99.139-1.568-.606-2.855-2.318-4.016-3.486a1982 1982 0 0 1-3.184-3.198l-2.649-2.66c.664-.787.664-.787.99-1.1q.09-.09.186-.181l.194-.187.42-.411q.325-.32.652-.634c.863-.83 1.574-1.552 2.006-2.69l.118-.272c.153-.424.134-.84.133-1.288v-.288c-.012-.695-.106-1.262-.463-1.869l-.185-.319-.133-.212z"/><path fill="#02795B" d="M38.875 7.834c1.066.808 1.783 1.835 2.062 3.158.194 1.435-.16 2.779-1.03 3.937-.547.64-1.159 1.222-1.759 1.812l-.516.515q-.675.672-1.352 1.341-.959.949-1.913 1.9l-1.018 1.01-.461.458-.215.211-.194.193-.17.168c-.3.327-.248.63-.244 1.059l.003.383.004.294a21 21 0 0 1-1.448-1.333l-.2-.201-.648-.652-.453-.454-1.185-1.191-1.212-1.217-2.373-2.385c.143-.32.304-.544.55-.793l.21-.215.23-.233.244-.248.8-.81.277-.28 1.305-1.315q.825-.83 1.643-1.663.576-.585 1.156-1.166.276-.278.55-.558c2.043-2.084 4.565-3.549 7.357-1.725"/><path fill="#0AE23A" d="M38.875 7.834c1.066.808 1.783 1.835 2.062 3.158.218 1.617-.287 2.948-1.25 4.23-.811.927-1.903 1.353-3.113 1.459-.891.042-1.688-.072-2.49-.478l-.277-.136c-1.242-.678-1.944-1.768-2.386-3.094a4.9 4.9 0 0 1 .333-3.247c.218-.312.218-.312.424-.531l.139-.252c.592-.924 1.563-1.52 2.61-1.826a5.23 5.23 0 0 1 3.948.717"/></svg></g><defs><linearGradient id="b" x1="89.53" x2="-825.17" y1="68.3" y2="-779.228" gradientUnits="userSpaceOnUse"><stop stop-color="#B6509E"/><stop offset="1" stop-color="#2EBAC6"/></linearGradient><linearGradient id="c" x1="128.494" x2="-821.333" y1="88.03" y2="-890.21" gradientUnits="userSpaceOnUse"><stop stop-color="#B6509E"/><stop offset="1" stop-color="#2EBAC6"/></linearGradient><linearGradient id="d" x1="208.381" x2="-798.122" y1="123.642" y2="-1059.46" gradientUnits="userSpaceOnUse"><stop stop-color="#B6509E"/><stop offset="1" stop-color="#2EBAC6"/></linearGradient><linearGradient id="e" x1="97.496" x2="-879.277" y1="92.507" y2="-598.994" gradientUnits="userSpaceOnUse"><stop stop-color="#B6509E"/><stop offset="1" stop-color="#2EBAC6"/></linearGradient><linearGradient id="f" x1="78.258" x2="-846.56" y1="70.379" y2="-650.515" gradientUnits="userSpaceOnUse"><stop stop-color="#B6509E"/><stop offset="1" stop-color="#2EBAC6"/></linearGradient><linearGradient id="g" x1="75.026" x2="-829.603" y1="62.533" y2="-702.513" gradientUnits="userSpaceOnUse"><stop stop-color="#B6509E"/><stop offset="1" stop-color="#2EBAC6"/></linearGradient><linearGradient id="h" x1="262.521" x2="-1053.41" y1="317.895" y2="-374.189" gradientUnits="userSpaceOnUse"><stop stop-color="#B6509E"/><stop offset="1" stop-color="#2EBAC6"/></linearGradient><linearGradient id="i" x1="189.598" x2="-1025.6" y1="215.72" y2="-471.757" gradientUnits="userSpaceOnUse"><stop stop-color="#B6509E"/><stop offset="1" stop-color="#2EBAC6"/></linearGradient><linearGradient id="j" x1="133.663" x2="-930.647" y1="135.723" y2="-551.282" gradientUnits="userSpaceOnUse"><stop stop-color="#B6509E"/><stop offset="1" stop-color="#2EBAC6"/></linearGradient><linearGradient id="k" x1="438.358" x2="-505.593" y1="383.608" y2="-318.594" gradientUnits="userSpaceOnUse"><stop stop-color="#B6509E"/><stop offset="1" stop-color="#2EBAC6"/></linearGradient><linearGradient id="l" x1="367.884" x2="-644.885" y1="352.282" y2="-333.003" gradientUnits="userSpaceOnUse"><stop stop-color="#B6509E"/><stop offset="1" stop-color="#2EBAC6"/></linearGradient><linearGradient id="m" x1="310.913" x2="-819.374" y1="330.087" y2="-355.394" gradientUnits="userSpaceOnUse"><stop stop-color="#B6509E"/><stop offset="1" stop-color="#2EBAC6"/></linearGradient><linearGradient id="n" x1="796.792" x2="-129.901" y1="536.642" y2="-367.096" gradientUnits="userSpaceOnUse"><stop stop-color="#B6509E"/><stop offset="1" stop-color="#2EBAC6"/></linearGradient><linearGradient id="o" x1="640.69" x2="-263.86" y1="473.543" y2="-328.827" gradientUnits="userSpaceOnUse"><stop stop-color="#B6509E"/><stop offset="1" stop-color="#2EBAC6"/></linearGradient><linearGradient id="p" x1="527.908" x2="-382.812" y1="424.179" y2="-316.503" gradientUnits="userSpaceOnUse"><stop stop-color="#B6509E"/><stop offset="1" stop-color="#2EBAC6"/></linearGradient><linearGradient id="q" x1="1168.67" x2="194.923" y1="698.93" y2="-373.582" gradientUnits="userSpaceOnUse"><stop stop-color="#B6509E"/><stop offset="1" stop-color="#2EBAC6"/></linearGradient><linearGradient id="r" x1="1359.4" x2="349.59" y1="702.843" y2="-584.24" gradientUnits="userSpaceOnUse"><stop stop-color="#B6509E"/><stop offset="1" stop-color="#2EBAC6"/></linearGradient><linearGradient id="s" x1="1029.35" x2="55.146" y1="617.607" y2="-450.02" gradientUnits="userSpaceOnUse"><stop stop-color="#B6509E"/><stop offset="1" stop-color="#2EBAC6"/></linearGradient><linearGradient id="t" x1="874.387" x2="-38.877" y1="702.532" y2="-37.617" gradientUnits="userSpaceOnUse"><stop stop-color="#B6509E"/><stop offset="1" stop-color="#2EBAC6"/></linearGradient><linearGradient id="u" x1="933.728" x2="28.774" y1="687.088" y2="-118.691" gradientUnits="userSpaceOnUse"><stop stop-color="#B6509E"/><stop offset="1" stop-color="#2EBAC6"/></linearGradient><linearGradient id="v" x1="1019.51" x2="92.815" y1="686.801" y2="-216.936" gradientUnits="userSpaceOnUse"><stop stop-color="#B6509E"/><stop offset="1" stop-color="#2EBAC6"/></linearGradient><linearGradient id="w" x1="812.862" x2="-319.316" y1="861.405" y2="172.282" gradientUnits="userSpaceOnUse"><stop stop-color="#B6509E"/><stop offset="1" stop-color="#2EBAC6"/></linearGradient><linearGradient id="x" x1="813.991" x2="-201.396" y1="781.595" y2="97.365" gradientUnits="userSpaceOnUse"><stop stop-color="#B6509E"/><stop offset="1" stop-color="#2EBAC6"/></linearGradient><linearGradient id="y" x1="837.936" x2="-109.46" y1="731.376" y2="26.812" gradientUnits="userSpaceOnUse"><stop stop-color="#B6509E"/><stop offset="1" stop-color="#2EBAC6"/></linearGradient><linearGradient id="z" x1="606.97" x2="-460.098" y1="612.111" y2="-73.641" gradientUnits="userSpaceOnUse"><stop stop-color="#B6509E"/><stop offset="1" stop-color="#2EBAC6"/></linearGradient><linearGradient id="A" x1="717.133" x2="-498.065" y1="817.847" y2="130.371" gradientUnits="userSpaceOnUse"><stop stop-color="#B6509E"/><stop offset="1" stop-color="#2EBAC6"/></linearGradient><linearGradient id="B" x1="820.019" x2="-495.907" y1="1001.94" y2="309.858" gradientUnits="userSpaceOnUse"><stop stop-color="#B6509E"/><stop offset="1" stop-color="#2EBAC6"/></linearGradient><linearGradient id="C" x1="394.545" x2="-513.251" y1="308.62" y2="-459.241" gradientUnits="userSpaceOnUse"><stop stop-color="#B6509E"/><stop offset="1" stop-color="#2EBAC6"/></linearGradient><linearGradient id="D" x1="450.145" x2="-473.882" y1="380.09" y2="-337.685" gradientUnits="userSpaceOnUse"><stop stop-color="#B6509E"/><stop offset="1" stop-color="#2EBAC6"/></linearGradient><linearGradient id="E" x1="518.793" x2="-455.432" y1="475.886" y2="-216.507" gradientUnits="userSpaceOnUse"><stop stop-color="#B6509E"/><stop offset="1" stop-color="#2EBAC6"/></linearGradient><linearGradient id="F" x1="285.61" x2="-719.969" y1="167.357" y2="-1021.33" gradientUnits="userSpaceOnUse"><stop stop-color="#B6509E"/><stop offset="1" stop-color="#2EBAC6"/></linearGradient><linearGradient id="G" x1="310.89" x2="-638.94" y1="204.963" y2="-773.277" gradientUnits="userSpaceOnUse"><stop stop-color="#B6509E"/><stop offset="1" stop-color="#2EBAC6"/></linearGradient><linearGradient id="H" x1="57.625" x2="16.161" y1="23.836" y2="-9.531" gradientUnits="userSpaceOnUse"><stop stop-color="#B6509E"/><stop offset="1" stop-color="#2EBAC6"/></linearGradient><clipPath id="I"><circle cx="24" cy="24" r="21"/></clipPath><clipPath id="a"><path fill="#fff" d="M0 0h48v48H0z"/></clipPath></defs></svg>