<svg xmlns="http://www.w3.org/2000/svg" xml:space="preserve" id="Слой_1" width="48" height="48" version="1.1"
    viewBox="0 0 48 48">
    <style id="style1" type="text/css">
        .st39 {
            fill: none
        }
    </style>
    <g id="g68" transform="matrix(.07685 0 0 .07685 4.78 4.788)">
        <g id="g67">
            <g id="g6">
                <g id="g1">
                    <path id="path1"
                        d="M407.4 250c-.3 3.8-.5 7.5-.7 11.3-.1 1.9 0 3.8-.3 5.6l-.9 5.5c-.7 3.7-.8 7.5-1.8 11.1s-1.9 7.2-2.8 10.8c-.3 1.8-1 3.6-1.7 5.3l-2 5.2-1.9 5.3c-.6 1.8-1.6 3.4-2.4 5.1l-4.8 10.1c-2 3.2-4 6.3-5.9 9.6l130.2 83.9 11.5-19.1c3.4-6.6 6.6-13.3 9.8-20 1.5-3.4 3.3-6.7 4.6-10.2l3.9-10.5 3.8-10.5c1.3-3.5 2.5-7 3.4-10.6l5.5-21.6c1.8-7.2 2.5-14.6 3.8-22l1.6-11c.5-3.7.5-7.4.8-11.1l1-22.2z"
                        class="st39" />
                </g>
                <linearGradient id="SVGID_00000104708511086881872630000014844121601543802027_" x1="482.791" x2="68.039"
                    y1="377.153" y2="43.389" gradientUnits="userSpaceOnUse">
                    <stop id="stop1" offset="0" style="stop-color:#b6509e" />
                    <stop id="stop2" offset="1" style="stop-color:#2ebac6" />
                </linearGradient>
                <path id="path2" d="m469 348.6-14.1-6.4c-3.6 7.1-6.5 14.5-11 21.1l13.4 7.8c4.7-7 7.9-14.9 11.7-22.5"
                    style="clip-rule:evenodd;fill:url(#SVGID_00000104708511086881872630000014844121601543802027_);fill-rule:evenodd" />
                <linearGradient id="SVGID_00000147179263232614892750000003495048998020798140_" x1="509.181" x2="94.43"
                    y1="344.359" y2="10.594" gradientUnits="userSpaceOnUse">
                    <stop id="stop3" offset="0" style="stop-color:#b6509e" />
                    <stop id="stop4" offset="1" style="stop-color:#2ebac6" />
                </linearGradient>
                <path id="path4" d="m483.6 305.4-15.1-3.6c-2 7.7-3.6 15.5-6.7 22.8l14.6 5.1c3.3-7.8 5.1-16.1 7.2-24.3"
                    style="clip-rule:evenodd;fill:url(#SVGID_00000147179263232614892750000003495048998020798140_);fill-rule:evenodd" />
                <linearGradient id="SVGID_00000154384627953943653370000009301978914104084362_" x1="533.46" x2="118.708"
                    y1="314.189" y2="-19.576" gradientUnits="userSpaceOnUse">
                    <stop id="stop5" offset="0" style="stop-color:#b6509e" />
                    <stop id="stop6" offset="1" style="stop-color:#2ebac6" />
                </linearGradient>
                <path id="path6"
                    d="m489.8 260.4-15.5-.7-.6 11.9c-.3 4-1.1 7.9-1.7 11.8l15.3 2.3c.6-4.2 1.4-8.4 1.8-12.6z"
                    style="clip-rule:evenodd;fill:url(#SVGID_00000154384627953943653370000009301978914104084362_);fill-rule:evenodd" />
            </g>
            <g id="g12">
                <g id="g7">
                    <path id="path7"
                        d="M382.3 334.9c-16.2 25.2-39.8 45.8-67 58.1l64.4 140.9c54.2-24.6 100.7-65.1 132.8-115.1z"
                        class="st39" />
                </g>
                <linearGradient id="SVGID_00000091737110006325924560000006426042477305407383_" x1="400.601" x2="-14.151"
                    y1="479.286" y2="145.521" gradientUnits="userSpaceOnUse">
                    <stop id="stop7" offset="0" style="stop-color:#b6509e" />
                    <stop id="stop8" offset="1" style="stop-color:#2ebac6" />
                </linearGradient>
                <path id="polygon8" d="m362.3 444.5-5.1 3.1-5.4 2.6 7.1 13.8 5.7-2.8 5.5-3.3 10.8-6.6-8.4-12.9z"
                    style="clip-rule:evenodd;fill:url(#SVGID_00000091737110006325924560000006426042477305407383_);fill-rule:evenodd" />
                <linearGradient id="SVGID_00000023276711056447914070000011818503130533663874_" x1="427.188" x2="12.436"
                    y1="446.248" y2="112.483" gradientUnits="userSpaceOnUse">
                    <stop id="stop9" offset="0" style="stop-color:#b6509e" />
                    <stop id="stop10" offset="1" style="stop-color:#2ebac6" />
                </linearGradient>
                <path id="path10"
                    d="m416.6 422.9-10.7-11.2-8.8 8c-1.5 1.3-2.9 2.7-4.4 4l-4.8 3.6 9.5 12.2 5.1-3.8c1.6-1.4 3.2-2.8 4.7-4.2z"
                    style="clip-rule:evenodd;fill:url(#SVGID_00000023276711056447914070000011818503130533663874_);fill-rule:evenodd" />
                <linearGradient id="SVGID_00000134224490732016085270000001901616526776264596_" x1="454.922" x2="40.17"
                    y1="411.784" y2="78.019" gradientUnits="userSpaceOnUse">
                    <stop id="stop11" offset="0" style="stop-color:#b6509e" />
                    <stop id="stop12" offset="1" style="stop-color:#2ebac6" />
                </linearGradient>
                <path id="path12"
                    d="m446.2 388.4-12.7-8.9c-4.9 6.2-9.2 13-14.8 18.7l11.6 10.2c6.1-6.1 10.7-13.3 15.9-20"
                    style="clip-rule:evenodd;fill:url(#SVGID_00000134224490732016085270000001901616526776264596_);fill-rule:evenodd" />
            </g>
            <g id="g18">
                <g id="g13">
                    <path id="path13"
                        d="M315.3 393c-13.6 6-27.9 10.8-42.8 12.5l-5.5.9c-1.9.3-3.8.2-5.6.3-3.8.2-7.5.4-11.3.7-3.8-.3-7.5-.5-11.3-.7-1.9-.1-3.8 0-5.6-.3l-5.5-.9-21.9 153.4 11 1.6c3.7.5 7.4.5 11.1.8l22.2 1 22.2-1c3.7-.3 7.4-.3 11.1-.8l11-1.6c29.5-3.7 58.3-12.8 85.4-25z"
                        class="st39" />
                </g>
                <linearGradient id="SVGID_00000090996555707112800340000017514516171555815814_" x1="335.624" x2="-79.128"
                    y1="560.03" y2="226.265" gradientUnits="userSpaceOnUse">
                    <stop id="stop13" offset="0" style="stop-color:#b6509e" />
                    <stop id="stop14" offset="1" style="stop-color:#2ebac6" />
                </linearGradient>
                <path id="path14" d="m251.3 490.2-.1-15.5c-7.9-.2-15.9-.8-23.8-1.1l-1.5 15.4c8.4.5 16.9 1.1 25.4 1.2"
                    style="clip-rule:evenodd;fill:url(#SVGID_00000090996555707112800340000017514516171555815814_);fill-rule:evenodd" />
                <linearGradient id="SVGID_00000001654109847398355510000014461126482698818221_" x1="353.943" x2="-60.809"
                    y1="537.265" y2="203.501" gradientUnits="userSpaceOnUse">
                    <stop id="stop15" offset="0" style="stop-color:#b6509e" />
                    <stop id="stop16" offset="1" style="stop-color:#2ebac6" />
                </linearGradient>
                <path id="path16" d="m296.7 485.7-3-15.2c-7.9 1-15.7 2.7-23.6 3.3l1.4 15.4c8.4-.7 16.8-2.4 25.2-3.5"
                    style="clip-rule:evenodd;fill:url(#SVGID_00000001654109847398355510000014461126482698818221_);fill-rule:evenodd" />
                <linearGradient id="SVGID_00000082365719043996990750000000380436505949655995_" x1="375.751" x2="-39.001"
                    y1="510.165" y2="176.4" gradientUnits="userSpaceOnUse">
                    <stop id="stop17" offset="0" style="stop-color:#b6509e" />
                    <stop id="stop18" offset="1" style="stop-color:#2ebac6" />
                </linearGradient>
                <path id="path18"
                    d="m340.2 472.6-5.8-14.4-11.2 4.1-5.6 2.1c-1.9.7-3.8 1-5.7 1.6l4.3 14.9c2-.6 4.1-1 6.1-1.7l6-2.2z"
                    style="clip-rule:evenodd;fill:url(#SVGID_00000082365719043996990750000000380436505949655995_);fill-rule:evenodd" />
            </g>
            <g id="g24">
                <g id="g19">
                    <path id="path19"
                        d="M227.6 405.5c-14.9-1.6-29.2-6.5-42.8-12.5l-10.1-4.8c-3.2-2-6.3-4-9.6-5.9-3.4-1.7-6.1-4.3-9.2-6.5-3-2.3-6.2-4.3-8.8-7l-101.5 117c44.7 38.9 101.1 65 160.1 73z"
                        class="st39" />
                </g>
                <linearGradient id="SVGID_00000176002008217702801830000010623875381781764515_" x1="308.152"
                    x2="-106.599" y1="594.167" y2="260.402" gradientUnits="userSpaceOnUse">
                    <stop id="stop19" offset="0" style="stop-color:#b6509e" />
                    <stop id="stop20" offset="1" style="stop-color:#2ebac6" />
                </linearGradient>
                <path id="polygon20" d="m124.5 436.5-4.8-3.5-9.5-7.2-9.7 12.2 10.2 7.6 5.1 3.8 5.5 3.3 8.3-13.1z"
                    style="clip-rule:evenodd;fill:url(#SVGID_00000176002008217702801830000010623875381781764515_);fill-rule:evenodd" />
                <linearGradient id="SVGID_00000092444432135618381070000000326992058120110750_" x1="312.308"
                    x2="-102.444" y1="589.003" y2="255.238" gradientUnits="userSpaceOnUse">
                    <stop id="stop21" offset="0" style="stop-color:#b6509e" />
                    <stop id="stop22" offset="1" style="stop-color:#2ebac6" />
                </linearGradient>
                <path id="path22"
                    d="m161.9 473.4 5.7-14.4c-1.9-.7-3.8-1.3-5.6-2.1l-5.4-2.6-10.7-5.2-7.2 13.7 11.5 5.5 5.7 2.8c2 .9 4 1.5 6 2.3"
                    style="clip-rule:evenodd;fill:url(#SVGID_00000092444432135618381070000000326992058120110750_);fill-rule:evenodd" />
                <linearGradient id="SVGID_00000070103972701577133060000011142479575005581992_" x1="321.517" x2="-93.235"
                    y1="577.559" y2="243.794" gradientUnits="userSpaceOnUse">
                    <stop id="stop23" offset="0" style="stop-color:#b6509e" />
                    <stop id="stop24" offset="1" style="stop-color:#2ebac6" />
                </linearGradient>
                <path id="path24"
                    d="m205.6 486 2.9-15.2c-4-.4-7.8-1.7-11.6-2.6l-11.5-3-4.5 14.8 12.3 3.2c4.1 1 8.1 2.4 12.4 2.8"
                    style="clip-rule:evenodd;fill:url(#SVGID_00000070103972701577133060000011142479575005581992_);fill-rule:evenodd" />
            </g>
            <g id="g30">
                <g id="g25">
                    <path id="path25"
                        d="M147.1 368.8c-22.8-19.6-39.5-45.9-48-74.5l-148.6 43.6c.9 3.6 2 7.2 3.4 10.6l3.8 10.5 3.9 10.5c1.3 3.5 3.1 6.8 4.6 10.2 3.2 6.7 6.4 13.4 9.8 20l11.5 19.1C-8.8 425.3-4.1 431 .3 437c4.5 5.9 8.8 12 13.9 17.4l15 16.4 16.4 15z"
                        class="st39" />
                </g>
                <linearGradient id="SVGID_00000003794775683124157800000011913993280982961829_" x1="326.474" x2="-88.278"
                    y1="571.4" y2="237.635" gradientUnits="userSpaceOnUse">
                    <stop id="stop25" offset="0" style="stop-color:#b6509e" />
                    <stop id="stop26" offset="1" style="stop-color:#2ebac6" />
                </linearGradient>
                <path id="path26" d="m32.1 350.9 14.1-6.5c-3.8-7-6-14.7-8.9-22.1l-14.7 5c3.1 7.9 5.5 16.1 9.5 23.6"
                    style="clip-rule:evenodd;fill:url(#SVGID_00000003794775683124157800000011913993280982961829_);fill-rule:evenodd" />
                <linearGradient id="SVGID_00000104672211666729212850000016548978226426177681_" x1="315.329" x2="-99.423"
                    y1="585.249" y2="251.484" gradientUnits="userSpaceOnUse">
                    <stop id="stop27" offset="0" style="stop-color:#b6509e" />
                    <stop id="stop28" offset="1" style="stop-color:#2ebac6" />
                </linearGradient>
                <path id="path28"
                    d="m55.2 390.3 12.6-9.1c-5.1-6.1-8.6-13.3-12.9-20l-13.5 7.7c4.5 7.2 8.4 14.8 13.8 21.4"
                    style="clip-rule:evenodd;fill:url(#SVGID_00000104672211666729212850000016548978226426177681_);fill-rule:evenodd" />
                <linearGradient id="SVGID_00000148625317021203904910000009879789421656095403_" x1="309.172" x2="-105.58"
                    y1="592.899" y2="259.135" gradientUnits="userSpaceOnUse">
                    <stop id="stop29" offset="0" style="stop-color:#b6509e" />
                    <stop id="stop30" offset="1" style="stop-color:#2ebac6" />
                </linearGradient>
                <path id="path30"
                    d="m85.1 424.5 10.6-11.3-4.4-4c-1.4-1.4-2.7-2.9-4-4.4l-8-8.8-11.8 10.1 8.6 9.4c1.4 1.6 2.8 3.2 4.3 4.7z"
                    style="clip-rule:evenodd;fill:url(#SVGID_00000148625317021203904910000009879789421656095403_);fill-rule:evenodd" />
            </g>
            <g id="g36">
                <g id="g31">
                    <path id="path31"
                        d="M99.1 294.3c-.9-3.6-1.8-7.2-2.8-10.8s-1.1-7.4-1.8-11.1l-.9-5.5c-.3-1.9-.2-3.8-.3-5.6-.2-3.8-.4-7.5-.7-11.3.3-3.8.5-7.5.7-11.3.1-1.9 0-3.8.3-5.6l.9-5.5c.7-3.7.8-7.5 1.8-11.1s1.9-7.2 2.8-10.8l-148.6-43.6-5.5 21.6c-1.8 7.2-2.5 14.6-3.8 22l-1.6 11c-.5 3.7-.5 7.4-.8 11.1l-1 22.2 1 22.2c.3 3.7.3 7.4.8 11.1l1.6 11c1.2 7.3 2 14.7 3.8 22l5.5 21.6z"
                        class="st39" />
                </g>
                <linearGradient id="SVGID_00000058550949854323963940000013213978808942152090_" x1="385.064" x2="-29.688"
                    y1="498.568" y2="164.803" gradientUnits="userSpaceOnUse">
                    <stop id="stop31" offset="0" style="stop-color:#b6509e" />
                    <stop id="stop32" offset="1" style="stop-color:#2ebac6" />
                </linearGradient>
                <path id="path32"
                    d="m12.2 217.1 15.3 2.1 1.8-11.8c.4-4 1.8-7.7 2.7-11.6l-15-3.7c-.9 4.1-2.4 8.2-2.9 12.4z"
                    style="clip-rule:evenodd;fill:url(#SVGID_00000058550949854323963940000013213978808942152090_);fill-rule:evenodd" />
                <linearGradient id="SVGID_00000148622084711658347150000016511535402227943326_" x1="362.065" x2="-52.687"
                    y1="527.172" y2="193.407" gradientUnits="userSpaceOnUse">
                    <stop id="stop33" offset="0" style="stop-color:#b6509e" />
                    <stop id="stop34" offset="1" style="stop-color:#2ebac6" />
                </linearGradient>
                <path id="polygon34" d="m10.3 237.2-.6 12.7.6 12.8 15.5-.8-.6-12 .6-11.9z"
                    style="clip-rule:evenodd;fill:url(#SVGID_00000148622084711658347150000016511535402227943326_);fill-rule:evenodd" />
                <linearGradient id="SVGID_00000101083443461405630530000006842283544465970837_" x1="342.348" x2="-72.404"
                    y1="551.674" y2="217.909" gradientUnits="userSpaceOnUse">
                    <stop id="stop35" offset="0" style="stop-color:#b6509e" />
                    <stop id="stop36" offset="1" style="stop-color:#2ebac6" />
                </linearGradient>
                <path id="path36" d="m16.9 307.6 15-3.7c-2.3-7.6-3.3-15.5-4.5-23.4L12 282.6c1.5 8.4 2.5 16.8 4.9 25"
                    style="clip-rule:evenodd;fill:url(#SVGID_00000101083443461405630530000006842283544465970837_);fill-rule:evenodd" />
            </g>
            <g id="g42">
                <g id="g37">
                    <path id="path37"
                        d="M99.1 205.7c8.5-28.6 25.2-54.8 48-74.5L45.6 14.2l-16.4 15-15 16.4C9 51 4.7 57.1.3 63c-4.4 6-9.1 11.8-12.8 18.2L-24 100.3c-3.4 6.6-6.6 13.3-9.8 20-1.5 3.4-3.3 6.7-4.6 10.2l-3.9 10.5-3.8 10.5c-1.3 3.5-2.5 7-3.4 10.6z"
                        class="st39" />
                </g>
                <linearGradient id="SVGID_00000002376137640156149470000006679357018455115191_" x1="465.847" x2="51.096"
                    y1="398.208" y2="64.443" gradientUnits="userSpaceOnUse">
                    <stop id="stop37" offset="0" style="stop-color:#b6509e" />
                    <stop id="stop38" offset="1" style="stop-color:#2ebac6" />
                </linearGradient>
                <path id="path38"
                    d="m67.7 93.7 11.8 10.1 8-8.8c1.4-1.5 2.6-3 4-4.4l4.4-4-10.6-11.2-4.7 4.3c-1.5 1.5-2.9 3.1-4.3 4.7z"
                    style="clip-rule:evenodd;fill:url(#SVGID_00000002376137640156149470000006679357018455115191_);fill-rule:evenodd" />
                <linearGradient id="SVGID_00000066483276125556409010000015182069227145532805_" x1="437.715" x2="22.963"
                    y1="433.167" y2="99.402" gradientUnits="userSpaceOnUse">
                    <stop id="stop39" offset="0" style="stop-color:#b6509e" />
                    <stop id="stop40" offset="1" style="stop-color:#2ebac6" />
                </linearGradient>
                <path id="path40" d="m41.4 131 13.4 7.7c4.3-6.7 7.9-13.8 12.9-20l-12.6-9.1c-5.3 6.6-9.1 14.2-13.7 21.4"
                    style="clip-rule:evenodd;fill:url(#SVGID_00000066483276125556409010000015182069227145532805_);fill-rule:evenodd" />
                <linearGradient id="SVGID_00000005264282004135174270000000348760371301044121_" x1="410.748" x2="-4.003"
                    y1="466.676" y2="132.911" gradientUnits="userSpaceOnUse">
                    <stop id="stop41" offset="0" style="stop-color:#b6509e" />
                    <stop id="stop42" offset="1" style="stop-color:#2ebac6" />
                </linearGradient>
                <path id="path42" d="m22.7 172.4 14.7 5c2.8-7.4 5.1-15.1 8.9-22.1l-14-6.5c-4.1 7.6-6.6 15.7-9.6 23.6"
                    style="clip-rule:evenodd;fill:url(#SVGID_00000005264282004135174270000000348760371301044121_);fill-rule:evenodd" />
            </g>
            <g id="g48">
                <g id="g43">
                    <path id="path43"
                        d="M147.1 131.2c2.6-2.7 5.8-4.7 8.8-7 3.1-2.2 5.8-4.8 9.2-6.5 3.2-1.9 6.4-3.9 9.6-5.9l10.1-4.8c13.6-6 27.9-10.8 42.8-12.5L205.7-58.8c-59 8-115.3 34.2-160.1 73z"
                        class="st39" />
                </g>
                <linearGradient id="SVGID_00000142877909234072922670000012744162597170337698_" x1="542.268" x2="127.516"
                    y1="303.244" y2="-30.52" gradientUnits="userSpaceOnUse">
                    <stop id="stop43" offset="0" style="stop-color:#b6509e" />
                    <stop id="stop44" offset="1" style="stop-color:#2ebac6" />
                </linearGradient>
                <path id="path44"
                    d="m181.1 19.9 4.4 14.8 11.5-3c3.9-.9 7.7-2.2 11.6-2.6l-2.8-15.2c-4.2.5-8.3 1.7-12.4 2.7z"
                    style="clip-rule:evenodd;fill:url(#SVGID_00000142877909234072922670000012744162597170337698_);fill-rule:evenodd" />
                <linearGradient id="SVGID_00000106857675396471537470000011430115657239397250_" x1="518.877" x2="104.126"
                    y1="332.31" y2="-1.455" gradientUnits="userSpaceOnUse">
                    <stop id="stop45" offset="0" style="stop-color:#b6509e" />
                    <stop id="stop46" offset="1" style="stop-color:#2ebac6" />
                </linearGradient>
                <path id="path46"
                    d="m138.8 37.1 7.2 13.7 10.7-5.2 5.4-2.6c1.8-.8 3.7-1.4 5.6-2.1L162 26.6c-2 .7-4 1.4-6 2.2l-5.7 2.8z"
                    style="clip-rule:evenodd;fill:url(#SVGID_00000106857675396471537470000011430115657239397250_);fill-rule:evenodd" />
                <linearGradient id="SVGID_00000103977686473083600680000014298624371071771265_" x1="493.213" x2="78.462"
                    y1="364.201" y2="30.437" gradientUnits="userSpaceOnUse">
                    <stop id="stop47" offset="0" style="stop-color:#b6509e" />
                    <stop id="stop48" offset="1" style="stop-color:#2ebac6" />
                </linearGradient>
                <path id="path48"
                    d="m100.7 61.9 9.6 12.1 9.5-7.1c1.6-1.2 3.2-2.4 4.8-3.5l5.1-3.1-8.3-13.1-5.4 3.3c-1.8 1.2-3.4 2.5-5.1 3.8z"
                    style="clip-rule:evenodd;fill:url(#SVGID_00000103977686473083600680000014298624371071771265_);fill-rule:evenodd" />
            </g>
            <g id="g54">
                <g id="g49">
                    <path id="path49"
                        d="m227.6 94.5 5.5-.9c1.9-.3 3.8-.2 5.6-.3 3.8-.2 7.5-.4 11.3-.7 3.8.3 7.5.5 11.3.7 1.9.1 3.8 0 5.6.3l5.5.9c14.9 1.6 29.2 6.5 42.8 12.5l64.4-140.9c-27.1-12.2-55.8-21.3-85.4-25l-11-1.6c-3.7-.5-7.4-.5-11.1-.8l-22.2-1-22.2 1c-3.7.3-7.4.3-11.1.8l-11 1.6z"
                        class="st39" />
                </g>
                <linearGradient id="SVGID_00000052103213530023177160000002944217849268693427_" x1="590.461" x2="175.71"
                    y1="243.356" y2="-90.409" gradientUnits="userSpaceOnUse">
                    <stop id="stop49" offset="0" style="stop-color:#b6509e" />
                    <stop id="stop50" offset="1" style="stop-color:#2ebac6" />
                </linearGradient>
                <path id="path50"
                    d="m316.4 19.2-4.3 14.9c3.9.8 7.6 2.2 11.3 3.6l11.2 4.1 5.8-14.3-12-4.4c-3.8-1.5-7.8-3-12-3.9"
                    style="clip-rule:evenodd;fill:url(#SVGID_00000052103213530023177160000002944217849268693427_);fill-rule:evenodd" />
                <linearGradient id="SVGID_00000168113226916419175950000014654502115656089231_" x1="578.768" x2="164.016"
                    y1="257.887" y2="-75.877" gradientUnits="userSpaceOnUse">
                    <stop id="stop51" offset="0" style="stop-color:#b6509e" />
                    <stop id="stop52" offset="1" style="stop-color:#2ebac6" />
                </linearGradient>
                <path id="path52" d="m271.6 10.8-1.4 15.4c7.9.6 15.7 2.3 23.6 3.3l3-15.2c-8.4-1.1-16.8-2.8-25.2-3.5"
                    style="clip-rule:evenodd;fill:url(#SVGID_00000168113226916419175950000014654502115656089231_);fill-rule:evenodd" />
                <linearGradient id="SVGID_00000032624055548118906680000017923149123676298943_" x1="562.599" x2="147.847"
                    y1="277.979" y2="-55.785" gradientUnits="userSpaceOnUse">
                    <stop id="stop53" offset="0" style="stop-color:#b6509e" />
                    <stop id="stop54" offset="1" style="stop-color:#2ebac6" />
                </linearGradient>
                <path id="path54" d="m226.1 10.9 1.5 15.4c7.9-.3 15.9-.9 23.8-1.1l.1-15.5c-8.4.2-16.9.8-25.4 1.2"
                    style="clip-rule:evenodd;fill:url(#SVGID_00000032624055548118906680000017923149123676298943_);fill-rule:evenodd" />
            </g>
            <g id="g60">
                <g id="g55">
                    <path id="path55"
                        d="M315.3 107c27.2 12.3 50.8 32.9 67 58.1l130.2-83.9C480.4 31.3 433.9-9.2 379.7-33.9Z"
                        class="st39" />
                </g>
                <linearGradient id="SVGID_00000064347573839370157820000017572030898596083878_" x1="595.196" x2="180.444"
                    y1="237.473" y2="-96.292" gradientUnits="userSpaceOnUse">
                    <stop id="stop55" offset="0" style="stop-color:#b6509e" />
                    <stop id="stop56" offset="1" style="stop-color:#2ebac6" />
                </linearGradient>
                <path id="path56"
                    d="M430.6 91.8 418.9 102l4 4.4c1.3 1.5 2.4 3.2 3.6 4.7l7.1 9.5 12.7-8.9-7.6-10.2c-1.3-1.7-2.5-3.4-3.9-5z"
                    style="clip-rule:evenodd;fill:url(#SVGID_00000064347573839370157820000017572030898596083878_);fill-rule:evenodd" />
                <linearGradient id="SVGID_00000055708723406501865340000017864807875619820717_" x1="598.848" x2="184.096"
                    y1="232.934" y2="-100.83" gradientUnits="userSpaceOnUse">
                    <stop id="stop57" offset="0" style="stop-color:#b6509e" />
                    <stop id="stop58" offset="1" style="stop-color:#2ebac6" />
                </linearGradient>
                <path id="path58"
                    d="m397.4 60.5-9.5 12.2 4.8 3.6c1.5 1.3 2.9 2.7 4.4 4l8.8 8 10.8-11.2-9.4-8.6c-1.6-1.4-3.1-2.9-4.7-4.2z"
                    style="clip-rule:evenodd;fill:url(#SVGID_00000055708723406501865340000017864807875619820717_);fill-rule:evenodd" />
                <linearGradient id="SVGID_00000003096860706853110920000000256122463884852656_" x1="597.237" x2="182.486"
                    y1="234.936" y2="-98.829" gradientUnits="userSpaceOnUse">
                    <stop id="stop59" offset="0" style="stop-color:#b6509e" />
                    <stop id="stop60" offset="1" style="stop-color:#2ebac6" />
                </linearGradient>
                <path id="polygon60" d="m357.4 52.5 5.1 3.1 10.2 6.2 8.5-13-10.9-6.6-5.5-3.3-5.7-2.8-7 13.8z"
                    style="clip-rule:evenodd;fill:url(#SVGID_00000003096860706853110920000000256122463884852656_);fill-rule:evenodd" />
            </g>
            <g id="g66">
                <g id="g61">
                    <path id="path60"
                        d="M382.3 165.1c1.9 3.2 3.9 6.4 5.9 9.6l4.8 10.1c.8 1.7 1.8 3.3 2.4 5.1l1.9 5.3 2 5.2c.7 1.7 1.4 3.5 1.7 5.3.9 3.6 1.8 7.2 2.8 10.8s1.1 7.4 1.8 11.1l.9 5.5c.3 1.9.2 3.8.3 5.6.2 3.8.4 7.5.7 11.3h154.9l-1-22.2c-.3-3.7-.3-7.4-.8-11.1l-1.6-11c-1.2-7.3-2-14.7-3.8-22l-5.5-21.6c-.9-3.6-2-7.2-3.4-10.6l-3.8-10.5-3.9-10.5c-1.3-3.5-3.1-6.8-4.6-10.2-3.2-6.7-6.4-13.4-9.8-20l-11.5-19.1Z"
                        class="st39" />
                </g>
                <linearGradient id="SVGID_00000081649527427247603540000013030321784522334646_" x1="555.106" x2="140.354"
                    y1="287.291" y2="-46.474" gradientUnits="userSpaceOnUse">
                    <stop id="stop61" offset="0" style="stop-color:#b6509e" />
                    <stop id="stop62" offset="1" style="stop-color:#2ebac6" />
                </linearGradient>
                <path id="path62"
                    d="m487.4 214.6-15.3 2.3c.5 3.9 1.4 7.8 1.6 11.8l.6 11.9 15.5-.6-.6-12.7c-.4-4.4-1.2-8.5-1.8-12.7"
                    style="clip-rule:evenodd;fill:url(#SVGID_00000081649527427247603540000013030321784522334646_);fill-rule:evenodd" />
                <linearGradient id="SVGID_00000178895552897056328320000005882026752739807421_" x1="572.959" x2="158.207"
                    y1="265.106" y2="-68.659" gradientUnits="userSpaceOnUse">
                    <stop id="stop63" offset="0" style="stop-color:#b6509e" />
                    <stop id="stop64" offset="1" style="stop-color:#2ebac6" />
                </linearGradient>
                <path id="path64" d="m476.5 170.3-14.6 5.1c3.1 7.3 4.7 15.2 6.7 22.8l15.1-3.6c-2.2-8.1-4-16.4-7.2-24.3"
                    style="clip-rule:evenodd;fill:url(#SVGID_00000178895552897056328320000005882026752739807421_);fill-rule:evenodd" />
                <linearGradient id="SVGID_00000159430980987490825690000002652148113673706165_" x1="586.44" x2="171.688"
                    y1="248.353" y2="-85.411" gradientUnits="userSpaceOnUse">
                    <stop id="stop65" offset="0" style="stop-color:#b6509e" />
                    <stop id="stop66" offset="1" style="stop-color:#2ebac6" />
                </linearGradient>
                <path id="path66"
                    d="m457.4 129.1-13.4 7.8c4.5 6.6 7.3 14.1 10.9 21.1l14.1-6.4c-3.7-7.5-6.9-15.5-11.6-22.5"
                    style="clip-rule:evenodd;fill:url(#SVGID_00000159430980987490825690000002652148113673706165_);fill-rule:evenodd" />
            </g>
        </g>
    </g>
    <g><svg xmlns="http://www.w3.org/2000/svg"  x="9" y="9" width="30" height="30"><path fill="#FEFEFE" d="M0 0h553v553H0z"/><path fill="#09E33A" d="M197.238 133.844c4.003 3.125 7.481 6.632 10.961 10.312a86 86 0 0 0 6.08 5.631c6.675 5.814 12.821 12.19 19.065 18.46l4.136 4.14q5.407 5.414 10.81 10.834 5.529 5.543 11.062 11.082Q270.18 205.148 281 216c5.127-4.28 9.88-8.775 14.55-13.547l4.471-4.54 2.366-2.408c4.176-4.246 8.37-8.475 12.56-12.706a5058 5058 0 0 0 15.91-16.13q6.439-6.558 12.921-13.073a884 884 0 0 0 4.88-4.964c11.342-11.621 22.305-22.506 39.485-22.925 14.521-.122 25.265 3.305 36.08 13.36 8.177 8.544 12.686 19.4 13.09 31.183-.518 20.854-12.937 33.09-26.93 46.82q-2.439 2.421-4.873 4.845a4172 4172 0 0 1-12.772 12.632c-6.034 5.953-12.047 11.925-18.062 17.896a4378 4378 0 0 1-9.612 9.508l-4.36 4.311-2.025 1.99-1.834 1.817-1.601 1.578c-2.49 2.708-2.464 5.032-2.557 8.603l-.113 2.828c.975 6.688 6.585 11.343 11.21 15.87l2.042 2.023q2.185 2.164 4.377 4.321 3.476 3.425 6.937 6.866a8910 8910 0 0 0 19.72 19.51q6.048 5.97 12.074 11.964 2.289 2.271 4.59 4.53C428.88 363.241 428.88 363.241 433 372l.999 2.018c4.878 10.382 3.624 23.458.001 33.982-4.804 9.537-11.415 15.893-20 22l-2.313 1.688c-12.33 6.021-24.85 5.329-37.687 1.312-14.721-5.673-26.796-21.66-37.703-32.605l-4.724-4.729q-6.158-6.165-12.31-12.334-6.303-6.317-12.61-12.63Q294.323 358.354 282 346c-2.998 1.345-5.07 2.828-7.375 5.161l-1.962 1.971-2.119 2.16-2.258 2.277a2670 2670 0 0 0-4.849 4.904q-3.841 3.891-7.696 7.769a11215 11215 0 0 0-21.881 22.09q-6.687 6.765-13.397 13.506-2.547 2.565-5.083 5.143a1597 1597 0 0 1-7.148 7.21l-2.082 2.135c-8.81 8.776-19.164 14.974-31.762 15.143l-2.7-.031-2.818-.028c-12.156-.306-20.715-4.381-29.87-12.41-2.305-2.511-4.2-5.11-6-8l-1.176-1.813c-5.519-8.99-7.355-21.197-5.363-31.593 3.782-14.062 12.263-22.979 22.416-32.877a1218 1218 0 0 0 7.149-7.04c5.04-4.99 10.1-9.96 15.161-14.927a5980 5980 0 0 0 17.605-17.357c2.34-2.31 4.692-4.608 7.044-6.905q2.156-2.128 4.31-4.259l1.978-1.911c4.613-4.6 8.299-9.541 8.314-16.38-.817-7.351-6.088-11.867-11.134-16.83l-2.012-2.002q-2.151-2.14-4.308-4.273c-2.274-2.247-4.54-4.501-6.806-6.757a10827 10827 0 0 0-14.428-14.326q-8.387-8.314-16.757-16.646a3411 3411 0 0 0-6.728-6.664l-4.086-4.066-1.908-1.876c-1.462-1.462-2.873-2.975-4.271-4.498v-2l-3-1c-7.55-8.671-9.545-21.274-8.875-32.438 1.678-13.313 7.934-24.154 18.383-32.585 16.062-11.1 36.674-10.945 52.73-.133"/><path fill="#0DB50A" d="M318 254c4.685 3.912 9.12 7.98 13.414 12.316l1.75 1.755q2.733 2.743 5.461 5.491l3.68 3.694q4.061 4.076 8.116 8.158a2656 2656 0 0 0 13.477 13.42 12345 12345 0 0 1 20.582 20.44q6.209 6.178 12.435 12.339 6.041 5.978 12.058 11.98 2.284 2.275 4.582 4.539C428.87 363.238 428.87 363.238 433 372l.999 2.018c4.878 10.383 3.624 23.458.001 33.982-4.804 9.537-11.415 15.893-20 22l-2.313 1.688c-12.33 6.021-24.85 5.329-37.687 1.312-14.803-5.704-26.958-21.823-37.922-32.824a20058 20058 0 0 1-17.279-17.308 25749 25749 0 0 0-12.791-12.811Q293.5 357.532 281 345c6.263-7.406 6.263-7.406 9.34-10.358.58-.562 1.161-1.123 1.76-1.701l1.837-1.765 3.961-3.87a958 958 0 0 1 6.162-5.968c8.142-7.82 14.858-14.619 18.94-25.338l1.116-2.553c1.445-3.999 1.266-7.92 1.259-12.135l-.003-2.71c-.117-6.55-1-11.885-4.372-17.602l-1.75-3-1.25-2z"/><path fill="#02795B" d="M417.25 133.188c10.058 7.604 16.835 17.275 19.469 29.734 1.83 13.521-1.518 26.172-9.719 37.078-5.178 6.025-10.951 11.511-16.617 17.07q-2.439 2.421-4.873 4.845a4172 4172 0 0 1-12.772 12.632c-6.034 5.953-12.047 11.925-18.062 17.896a4378 4378 0 0 1-9.612 9.508l-4.36 4.311-2.025 1.99-1.834 1.817-1.601 1.578c-2.833 3.081-2.346 5.944-2.307 9.978l.028 3.602L353 288a198 198 0 0 1-13.67-12.556l-1.894-1.894q-3.062-3.066-6.12-6.136l-4.274-4.279q-5.599-5.604-11.19-11.215-5.72-5.734-11.444-11.463A45637 45637 0 0 1 282 218c1.353-3.012 2.868-5.126 5.183-7.471l1.987-2.026 2.179-2.19 2.297-2.332a2859 2859 0 0 1 7.557-7.626l2.616-2.636q6.155-6.204 12.325-12.394c5.19-5.205 10.358-10.43 15.518-15.665a2832 2832 0 0 1 10.913-10.977 1071 1071 0 0 0 5.19-5.25c19.302-19.634 43.113-33.427 69.485-16.245"/><path fill="#0AE23A" d="M417.25 133.188c10.058 7.604 16.835 17.275 19.469 29.734 2.061 15.23-2.709 27.766-11.801 39.844-7.666 8.724-17.975 12.735-29.406 13.734-8.412.398-15.932-.674-23.512-4.5l-2.61-1.285c-11.733-6.383-18.363-16.644-22.53-29.133-2.5-10.42-1.37-20.9 3.14-30.582 2.063-2.938 2.063-2.938 4-5l1.313-2.375c5.594-8.703 14.763-14.31 24.643-17.197 12.918-2.708 26.314-.394 37.294 6.76"/></svg>
        <g>
</svg>