<svg xmlns="http://www.w3.org/2000/svg" width="48" height="48" fill="none" viewBox="0 0 48 48"><g fill-rule="evenodd" clip-path="url(#a)" clip-rule="evenodd"><path fill="url(#b)" d="m45.884 33.858-1.41-.64c-.36.71-.65 1.45-1.1 2.11l1.34.78c.47-.7.79-1.49 1.17-2.25"/><path fill="url(#c)" d="m47.344 29.539-1.51-.36c-.2.77-.36 1.55-.67 2.28l1.46.51c.33-.78.51-1.61.72-2.43"/><path fill="url(#d)" d="m47.964 25.04-1.55-.07-.06 1.19c-.03.4-.11.79-.17 1.18l1.53.23c.06-.42.14-.84.18-1.26z"/><path fill="url(#e)" d="m35.217 43.445-.51.31-.54.26.71 1.38.57-.28.55-.33 1.08-.66-.84-1.29z"/><path fill="url(#f)" d="m40.646 41.286-1.07-1.12-.88.8c-.15.13-.29.27-.44.4l-.48.36.95 1.22.51-.38c.16-.14.32-.28.47-.42z"/><path fill="url(#g)" d="m43.605 37.837-1.27-.89c-.49.62-.92 1.3-1.48 1.87l1.16 1.02c.61-.61 1.07-1.33 1.59-2"/><path fill="url(#h)" d="m24.12 48.014-.01-1.55c-.79-.02-1.59-.08-2.38-.11l-.15 1.54c.84.05 1.69.11 2.54.12"/><path fill="url(#i)" d="m28.659 47.564-.3-1.52c-.79.1-1.57.27-2.36.33l.14 1.54c.84-.07 1.68-.24 2.52-.35"/><path fill="url(#j)" d="m33.008 46.254-.58-1.44-1.12.41-.56.21c-.19.07-.38.1-.57.16l.43 1.49c.2-.06.41-.1.61-.17l.6-.22z"/><path fill="url(#k)" d="m11.444 42.645-.48-.35-.95-.72-.97 1.22 1.53 1.14.55.33.83-1.31z"/><path fill="url(#l)" d="m15.183 46.334.57-1.44c-.19-.07-.38-.13-.56-.21l-.54-.26-1.07-.519-.72 1.37 1.15.55.57.28c.2.09.4.15.6.23"/><path fill="url(#m)" d="m19.551 47.594.29-1.52c-.4-.04-.78-.17-1.16-.26l-1.149-.3-.45 1.48 1.23.32c.41.1.81.24 1.24.28"/><path fill="url(#n)" d="m2.206 34.088 1.41-.65c-.38-.7-.6-1.47-.89-2.21l-1.47.5c.31.79.55 1.61.95 2.36"/><path fill="url(#o)" d="m4.516 38.027 1.26-.91c-.51-.61-.86-1.33-1.29-2l-1.35.77c.45.72.84 1.48 1.38 2.14"/><path fill="url(#p)" d="m7.505 41.446 1.06-1.13-.44-.4c-.14-.14-.27-.29-.4-.44l-.8-.88-1.18 1.01.86.94c.14.16.28.32.43.47z"/><path fill="url(#q)" d="m.217 20.712 1.53.21.18-1.18c.04-.4.18-.77.27-1.16l-1.5-.37c-.09.41-.24.82-.29 1.24z"/><path fill="url(#r)" d="m.027 22.72-.06 1.27.06 1.28 1.55-.08-.06-1.2.06-1.19z"/><path fill="url(#s)" d="m.687 29.759 1.5-.37c-.23-.76-.33-1.55-.45-2.34l-1.54.21c.15.84.25 1.68.49 2.5"/><path fill="url(#t)" d="m5.765 8.375 1.18 1.01.8-.88c.14-.15.26-.3.4-.44l.44-.4-1.06-1.12-.47.43c-.15.15-.29.31-.43.47z"/><path fill="url(#u)" d="m3.136 12.104 1.34.77c.43-.67.79-1.38 1.29-2l-1.26-.91c-.53.66-.91 1.42-1.37 2.14"/><path fill="url(#v)" d="m1.266 16.243 1.47.5c.28-.74.51-1.51.89-2.21l-1.4-.65c-.41.76-.66 1.57-.96 2.36"/><path fill="url(#w)" d="m17.102.997.44 1.48 1.15-.3c.39-.09.77-.22 1.16-.26l-.28-1.52c-.42.05-.83.17-1.24.27z"/><path fill="url(#x)" d="m12.873 2.716.72 1.37 1.07-.52.54-.26c.18-.08.37-.14.56-.21l-.57-1.43c-.2.07-.4.14-.6.22l-.57.28z"/><path fill="url(#y)" d="m9.064 5.196.96 1.21.95-.71c.16-.12.32-.24.48-.35l.51-.31-.83-1.31-.54.33c-.18.12-.34.25-.51.38z"/><path fill="url(#z)" d="m30.628.927-.43 1.49c.39.08.76.22 1.13.36l1.12.41.58-1.43-1.2-.44c-.38-.15-.78-.3-1.2-.39"/><path fill="url(#A)" d="m26.15.087-.14 1.54c.79.06 1.57.23 2.359.33l.3-1.52c-.84-.11-1.68-.28-2.52-.35"/><path fill="url(#B)" d="m21.6.097.15 1.54c.79-.03 1.59-.09 2.38-.11l.01-1.55c-.84.02-1.69.08-2.54.12"/><path fill="url(#C)" d="m42.045 8.185-1.17 1.02.4.44c.13.15.24.32.36.47l.71.95 1.27-.89-.76-1.02c-.13-.17-.25-.34-.39-.5z"/><path fill="url(#D)" d="m38.726 5.056-.95 1.22.48.36c.15.13.29.27.44.4l.88.799 1.08-1.12-.94-.86c-.16-.14-.31-.29-.47-.42z"/><path fill="url(#E)" d="m34.727 4.256 1.53.93.85-1.3-1.09-.66-.55-.33-.57-.28-.7 1.38z"/><path fill="url(#F)" d="m47.724 20.462-1.53.23c.05.39.14.78.16 1.18l.06 1.189 1.55-.06-.06-1.27c-.04-.44-.12-.85-.18-1.27"/><path fill="url(#G)" d="m46.634 16.033-1.46.51c.31.73.47 1.52.67 2.279l1.51-.36c-.22-.81-.4-1.64-.72-2.43"/><path fill="url(#H)" d="m44.724 11.914-1.34.78c.45.66.73 1.41 1.09 2.11l1.41-.64c-.37-.75-.69-1.55-1.16-2.25"/></g><g clip-path="url(#I)"><svg xmlns="http://www.w3.org/2000/svg" width="48" height="48" viewBox="0 0 256 256"><path fill="#fff" d="M128 256c70.692 0 128-57.308 128-128S198.692 0 128 0 0 57.307 0 128c0 70.692 57.307 128 128 128"/><path fill="#fff" fill-rule="evenodd" d="m212.384 153.039-33.57 46.795c-5.281 7.432-15.523 11.01-28.844 9.914-17.18-1.418-39.953-10.501-61.785-26.156s-37.746-34.327-44.684-50.128c-5.28-12.246-5.2-23.059.16-30.5L77.153 56.17c5.36-7.43 15.6-11.01 28.84-9.915 17.184 1.42 40.04 10.506 61.868 26.164s37.747 34.321 44.597 50.121c5.359 12.247 5.2 23.066-.078 30.5zM86.138 62.602c3.465-4.808 10.4-6.053 18.992-5.344 15.684 1.293 36.332 9.836 56.27 24.13s34.671 31.128 40.976 45.55c3.387 7.9 4.493 14.872 1.024 19.679l-33.571 46.795c-3.387 4.8-10.324 6.052-18.914 5.334-15.684-1.284-36.406-9.834-56.343-24.121-19.939-14.287-34.675-31.137-40.899-45.549-3.469-7.913-4.492-14.88-1.027-19.681z" clip-rule="evenodd"/><path fill="#fff" fill-rule="evenodd" d="M81.713 60.523c10.957-15.287 48.073-7.438 82.899 17.512s54.222 57.638 43.265 72.926l-33.492 46.795c-10.953 15.289-48.144 7.439-82.98-17.518s-54.223-57.632-43.27-72.92l33.578-46.794Z" clip-rule="evenodd"/><path fill="#0E0F23" fill-rule="evenodd" d="M79.297 57.693c4.871-6.82 14.289-9.827 26.477-8.851 16.813 1.383 39.063 10.4 60.5 25.664 21.359 15.352 37.034 33.625 43.699 49.055 4.875 11.207 5.035 21.116.16 27.937l-33.461 46.781c-4.871 6.82-14.37 9.828-26.472 8.856-16.816-1.461-39.148-10.4-60.508-25.746-21.441-15.27-37.035-33.547-43.777-48.977-4.871-11.207-5.032-21.113-.16-27.933zm126.211 90.399c3.9-5.363 3.086-13.324-.734-22.258-6.414-14.7-21.437-31.996-41.906-46.613-20.387-14.621-41.582-23.31-57.582-24.61-9.746-.812-17.462.977-21.36 6.414l-.164.329c-3.656 5.44-2.84 13.155.977 21.93 6.414 14.78 21.441 32.076 41.824 46.698s41.586 23.314 57.582 24.61c9.586.73 17.137-.977 21.117-6.09zm-52.14-55.637c10.23 7.31 17.781 16.004 20.953 23.395 1.867 4.141 2.352 7.796.484 10.312-1.785 2.516-5.441 3.25-9.906 2.844-8.039-.652-18.6-5.039-28.832-12.348s-17.785-15.917-20.957-23.308c-1.781-4.145-2.274-7.8-.485-10.317 1.789-2.516 5.446-3.246 9.993-2.922 7.958.73 18.593 5.036 28.75 12.344" clip-rule="evenodd"/><path fill="#FFB260" fill-rule="evenodd" d="M70.126 165.134c-11.359-11.023-19.725-22.48-24.173-32.728-4.863-11.2-5.035-21.1-.16-27.908l33.534-46.795c4.875-6.8 14.306-9.823 26.479-8.819 16.807 1.386 39.1 10.341 60.492 25.672s37.04 33.56 43.758 49.03a55 55 0 0 1 1.542 3.963 16.1 16.1 0 0 0-5.848-1.645 17 17 0 0 0-.99-.072c-6.415-14.74-21.433-32-41.81-46.6-20.4-14.617-41.594-23.294-57.617-24.615-9.717-.8-17.438 1.005-21.329 6.436l-.234.326c-3.632 5.418-2.817 13.175.989 21.942 6.4 14.75 21.431 32.029 41.831 46.647 16.594 11.891 33.71 19.85 48.144 23.117-5.855 8.212-12.156 15.5-20.446 17.156-7.23 1.441-14.375-1.807-20.914-9.2-6.795-7.676-12.321-18.609-20.1-20.371-13.954-3.16-26.4 20.85-40.206 23.975q-1.456.333-2.942.489m83.313-72.632c10.21 7.314 17.749 15.943 20.955 23.323 1.806 4.161 2.3 7.827.49 10.354s-5.439 3.236-9.96 2.863c-8.019-.662-18.615-5.028-28.823-12.344s-17.752-15.943-20.952-23.324c-1.806-4.161-2.3-7.827-.492-10.354s5.442-3.235 9.963-2.863c8.019.662 18.611 5.03 28.819 12.345" clip-rule="evenodd"/><path fill="#fff" fill-rule="evenodd" d="M176.077 161.006a53.3 53.3 0 0 0 17.054.484 1.26 1.26 0 0 0 1.059-1.382 1.314 1.314 0 0 0-1.383-1.055 48.8 48.8 0 0 1-16.324-.485 1.257 1.257 0 0 0-1.379 1.055 1.2 1.2 0 0 0 .203.891c.182.258.459.435.77.492m-9.582-2.117c1.625.41 3.168.812 4.789 1.14a1.1 1.1 0 0 0 .894-.136 1.1 1.1 0 0 0 .489-.758 1.215 1.215 0 0 0-.465-1.266 1.2 1.2 0 0 0-.43-.195c-1.543-.324-3.086-.73-4.629-1.137a1.2 1.2 0 0 0-.48-.066 1.17 1.17 0 0 0-.844.445 1.2 1.2 0 0 0-.219.434c-.066.321-.013.657.152.941.166.284.43.496.743.598m-90.72-76.907c4.548 18.595 22.415 35.978 36.79 48.321a1.2 1.2 0 0 0 .871.324 1.2 1.2 0 0 0 .836-.41 1.18 1.18 0 0 0 .141-1.336 1.2 1.2 0 0 0-.305-.363c-13.969-12.1-31.51-29-35.898-47.106a1.29 1.29 0 0 0-1.543-.89 1.22 1.22 0 0 0-.75.546 1.2 1.2 0 0 0-.14.914Zm-1.058-7.472c0 .813.082 1.706.164 2.52a1.26 1.26 0 0 0 1.379 1.055 1.2 1.2 0 0 0 .797-.43 1.2 1.2 0 0 0 .262-.871c-.082-.813-.164-1.626-.164-2.356a1.21 1.21 0 0 0-.809-1.149 1.2 1.2 0 0 0-.492-.07 1.325 1.325 0 0 0-1.137 1.3Z" clip-rule="evenodd"/></svg></g><defs><linearGradient id="b" x1="89.53" x2="-825.17" y1="68.3" y2="-779.228" gradientUnits="userSpaceOnUse"><stop stop-color="#B6509E"/><stop offset="1" stop-color="#2EBAC6"/></linearGradient><linearGradient id="c" x1="128.494" x2="-821.333" y1="88.03" y2="-890.21" gradientUnits="userSpaceOnUse"><stop stop-color="#B6509E"/><stop offset="1" stop-color="#2EBAC6"/></linearGradient><linearGradient id="d" x1="208.381" x2="-798.122" y1="123.642" y2="-1059.46" gradientUnits="userSpaceOnUse"><stop stop-color="#B6509E"/><stop offset="1" stop-color="#2EBAC6"/></linearGradient><linearGradient id="e" x1="97.496" x2="-879.277" y1="92.507" y2="-598.994" gradientUnits="userSpaceOnUse"><stop stop-color="#B6509E"/><stop offset="1" stop-color="#2EBAC6"/></linearGradient><linearGradient id="f" x1="78.258" x2="-846.56" y1="70.379" y2="-650.515" gradientUnits="userSpaceOnUse"><stop stop-color="#B6509E"/><stop offset="1" stop-color="#2EBAC6"/></linearGradient><linearGradient id="g" x1="75.026" x2="-829.603" y1="62.533" y2="-702.513" gradientUnits="userSpaceOnUse"><stop stop-color="#B6509E"/><stop offset="1" stop-color="#2EBAC6"/></linearGradient><linearGradient id="h" x1="262.521" x2="-1053.41" y1="317.895" y2="-374.189" gradientUnits="userSpaceOnUse"><stop stop-color="#B6509E"/><stop offset="1" stop-color="#2EBAC6"/></linearGradient><linearGradient id="i" x1="189.598" x2="-1025.6" y1="215.72" y2="-471.757" gradientUnits="userSpaceOnUse"><stop stop-color="#B6509E"/><stop offset="1" stop-color="#2EBAC6"/></linearGradient><linearGradient id="j" x1="133.663" x2="-930.647" y1="135.723" y2="-551.282" gradientUnits="userSpaceOnUse"><stop stop-color="#B6509E"/><stop offset="1" stop-color="#2EBAC6"/></linearGradient><linearGradient id="k" x1="438.358" x2="-505.593" y1="383.608" y2="-318.594" gradientUnits="userSpaceOnUse"><stop stop-color="#B6509E"/><stop offset="1" stop-color="#2EBAC6"/></linearGradient><linearGradient id="l" x1="367.884" x2="-644.885" y1="352.282" y2="-333.003" gradientUnits="userSpaceOnUse"><stop stop-color="#B6509E"/><stop offset="1" stop-color="#2EBAC6"/></linearGradient><linearGradient id="m" x1="310.913" x2="-819.374" y1="330.087" y2="-355.394" gradientUnits="userSpaceOnUse"><stop stop-color="#B6509E"/><stop offset="1" stop-color="#2EBAC6"/></linearGradient><linearGradient id="n" x1="796.792" x2="-129.901" y1="536.642" y2="-367.096" gradientUnits="userSpaceOnUse"><stop stop-color="#B6509E"/><stop offset="1" stop-color="#2EBAC6"/></linearGradient><linearGradient id="o" x1="640.69" x2="-263.86" y1="473.543" y2="-328.827" gradientUnits="userSpaceOnUse"><stop stop-color="#B6509E"/><stop offset="1" stop-color="#2EBAC6"/></linearGradient><linearGradient id="p" x1="527.908" x2="-382.812" y1="424.179" y2="-316.503" gradientUnits="userSpaceOnUse"><stop stop-color="#B6509E"/><stop offset="1" stop-color="#2EBAC6"/></linearGradient><linearGradient id="q" x1="1168.67" x2="194.923" y1="698.93" y2="-373.582" gradientUnits="userSpaceOnUse"><stop stop-color="#B6509E"/><stop offset="1" stop-color="#2EBAC6"/></linearGradient><linearGradient id="r" x1="1359.4" x2="349.59" y1="702.843" y2="-584.24" gradientUnits="userSpaceOnUse"><stop stop-color="#B6509E"/><stop offset="1" stop-color="#2EBAC6"/></linearGradient><linearGradient id="s" x1="1029.35" x2="55.146" y1="617.607" y2="-450.02" gradientUnits="userSpaceOnUse"><stop stop-color="#B6509E"/><stop offset="1" stop-color="#2EBAC6"/></linearGradient><linearGradient id="t" x1="874.387" x2="-38.877" y1="702.532" y2="-37.617" gradientUnits="userSpaceOnUse"><stop stop-color="#B6509E"/><stop offset="1" stop-color="#2EBAC6"/></linearGradient><linearGradient id="u" x1="933.728" x2="28.774" y1="687.088" y2="-118.691" gradientUnits="userSpaceOnUse"><stop stop-color="#B6509E"/><stop offset="1" stop-color="#2EBAC6"/></linearGradient><linearGradient id="v" x1="1019.51" x2="92.815" y1="686.801" y2="-216.936" gradientUnits="userSpaceOnUse"><stop stop-color="#B6509E"/><stop offset="1" stop-color="#2EBAC6"/></linearGradient><linearGradient id="w" x1="812.862" x2="-319.316" y1="861.405" y2="172.282" gradientUnits="userSpaceOnUse"><stop stop-color="#B6509E"/><stop offset="1" stop-color="#2EBAC6"/></linearGradient><linearGradient id="x" x1="813.991" x2="-201.396" y1="781.595" y2="97.365" gradientUnits="userSpaceOnUse"><stop stop-color="#B6509E"/><stop offset="1" stop-color="#2EBAC6"/></linearGradient><linearGradient id="y" x1="837.936" x2="-109.46" y1="731.376" y2="26.812" gradientUnits="userSpaceOnUse"><stop stop-color="#B6509E"/><stop offset="1" stop-color="#2EBAC6"/></linearGradient><linearGradient id="z" x1="606.97" x2="-460.098" y1="612.111" y2="-73.641" gradientUnits="userSpaceOnUse"><stop stop-color="#B6509E"/><stop offset="1" stop-color="#2EBAC6"/></linearGradient><linearGradient id="A" x1="717.133" x2="-498.065" y1="817.847" y2="130.371" gradientUnits="userSpaceOnUse"><stop stop-color="#B6509E"/><stop offset="1" stop-color="#2EBAC6"/></linearGradient><linearGradient id="B" x1="820.019" x2="-495.907" y1="1001.94" y2="309.858" gradientUnits="userSpaceOnUse"><stop stop-color="#B6509E"/><stop offset="1" stop-color="#2EBAC6"/></linearGradient><linearGradient id="C" x1="394.545" x2="-513.251" y1="308.62" y2="-459.241" gradientUnits="userSpaceOnUse"><stop stop-color="#B6509E"/><stop offset="1" stop-color="#2EBAC6"/></linearGradient><linearGradient id="D" x1="450.145" x2="-473.882" y1="380.09" y2="-337.685" gradientUnits="userSpaceOnUse"><stop stop-color="#B6509E"/><stop offset="1" stop-color="#2EBAC6"/></linearGradient><linearGradient id="E" x1="518.793" x2="-455.432" y1="475.886" y2="-216.507" gradientUnits="userSpaceOnUse"><stop stop-color="#B6509E"/><stop offset="1" stop-color="#2EBAC6"/></linearGradient><linearGradient id="F" x1="285.61" x2="-719.969" y1="167.357" y2="-1021.33" gradientUnits="userSpaceOnUse"><stop stop-color="#B6509E"/><stop offset="1" stop-color="#2EBAC6"/></linearGradient><linearGradient id="G" x1="310.89" x2="-638.94" y1="204.963" y2="-773.277" gradientUnits="userSpaceOnUse"><stop stop-color="#B6509E"/><stop offset="1" stop-color="#2EBAC6"/></linearGradient><linearGradient id="H" x1="57.625" x2="16.161" y1="23.836" y2="-9.531" gradientUnits="userSpaceOnUse"><stop stop-color="#B6509E"/><stop offset="1" stop-color="#2EBAC6"/></linearGradient><clipPath id="I"><circle cx="24" cy="24" r="21"/></clipPath><clipPath id="a"><path fill="#fff" d="M0 0h48v48H0z"/></clipPath></defs></svg>