<svg xmlns="http://www.w3.org/2000/svg" width="48" height="48" fill="none" viewBox="0 0 48 48"><g clip-path="url(#clip0_85_112)"><path fill="url(#paint0_linear_85_112)" fill-rule="evenodd" d="m45.884 33.858-1.41-.64c-.36.71-.65 1.45-1.1 2.11l1.34.78c.47-.7.79-1.49 1.17-2.25" clip-rule="evenodd"/><path fill="url(#paint1_linear_85_112)" fill-rule="evenodd" d="m47.344 29.539-1.51-.36c-.2.77-.36 1.55-.67 2.28l1.46.51c.33-.78.51-1.61.72-2.43" clip-rule="evenodd"/><path fill="url(#paint2_linear_85_112)" fill-rule="evenodd" d="m47.964 25.04-1.55-.07-.06 1.19c-.03.4-.11.79-.17 1.18l1.53.23c.06-.42.14-.84.18-1.26z" clip-rule="evenodd"/><path fill="url(#paint3_linear_85_112)" fill-rule="evenodd" d="m35.217 43.445-.51.31-.54.26.71 1.38.57-.28.55-.33 1.08-.66-.84-1.29z" clip-rule="evenodd"/><path fill="url(#paint4_linear_85_112)" fill-rule="evenodd" d="m40.646 41.286-1.07-1.12-.88.8c-.15.13-.29.27-.44.4l-.48.36.95 1.22.51-.38c.16-.14.32-.28.47-.42z" clip-rule="evenodd"/><path fill="url(#paint5_linear_85_112)" fill-rule="evenodd" d="m43.605 37.837-1.27-.89c-.49.62-.92 1.3-1.48 1.87l1.16 1.02c.61-.61 1.07-1.33 1.59-2" clip-rule="evenodd"/><path fill="url(#paint6_linear_85_112)" fill-rule="evenodd" d="m24.12 48.014-.01-1.55c-.79-.02-1.59-.08-2.38-.11l-.15 1.54c.84.05 1.69.11 2.54.12" clip-rule="evenodd"/><path fill="url(#paint7_linear_85_112)" fill-rule="evenodd" d="m28.659 47.564-.3-1.52c-.79.1-1.57.27-2.36.33l.14 1.54c.84-.07 1.68-.24 2.52-.35" clip-rule="evenodd"/><path fill="url(#paint8_linear_85_112)" fill-rule="evenodd" d="m33.008 46.254-.58-1.44-1.12.41-.56.21c-.19.07-.38.1-.57.16l.43 1.49c.2-.06.41-.1.61-.17l.6-.22z" clip-rule="evenodd"/><path fill="url(#paint9_linear_85_112)" fill-rule="evenodd" d="m11.444 42.645-.48-.35-.95-.72-.97 1.22 1.53 1.14.55.33.83-1.31z" clip-rule="evenodd"/><path fill="url(#paint10_linear_85_112)" fill-rule="evenodd" d="m15.183 46.334.57-1.44c-.19-.07-.38-.13-.56-.21l-.54-.26-1.07-.519-.72 1.37 1.15.55.57.28c.2.09.4.15.6.23" clip-rule="evenodd"/><path fill="url(#paint11_linear_85_112)" fill-rule="evenodd" d="m19.551 47.594.29-1.52c-.4-.04-.78-.17-1.16-.26l-1.149-.3-.45 1.48 1.23.32c.41.1.81.24 1.24.28" clip-rule="evenodd"/><path fill="url(#paint12_linear_85_112)" fill-rule="evenodd" d="m2.206 34.088 1.41-.65c-.38-.7-.6-1.47-.89-2.21l-1.47.5c.31.79.55 1.61.95 2.36" clip-rule="evenodd"/><path fill="url(#paint13_linear_85_112)" fill-rule="evenodd" d="m4.516 38.027 1.26-.91c-.51-.61-.86-1.33-1.29-2l-1.35.77c.45.72.84 1.48 1.38 2.14" clip-rule="evenodd"/><path fill="url(#paint14_linear_85_112)" fill-rule="evenodd" d="m7.505 41.446 1.06-1.13-.44-.4c-.14-.14-.27-.29-.4-.44l-.8-.88-1.18 1.01.86.94c.14.16.28.32.43.47z" clip-rule="evenodd"/><path fill="url(#paint15_linear_85_112)" fill-rule="evenodd" d="m.217 20.712 1.53.21.18-1.18c.04-.4.18-.77.27-1.16l-1.5-.37c-.09.41-.24.82-.29 1.24z" clip-rule="evenodd"/><path fill="url(#paint16_linear_85_112)" fill-rule="evenodd" d="m.027 22.72-.06 1.27.06 1.28 1.55-.08-.06-1.2.06-1.19z" clip-rule="evenodd"/><path fill="url(#paint17_linear_85_112)" fill-rule="evenodd" d="m.687 29.759 1.5-.37c-.23-.76-.33-1.55-.45-2.34l-1.54.21c.15.84.25 1.68.49 2.5" clip-rule="evenodd"/><path fill="url(#paint18_linear_85_112)" fill-rule="evenodd" d="m5.765 8.375 1.18 1.01.8-.88c.14-.15.26-.3.4-.44l.44-.4-1.06-1.12-.47.43c-.15.15-.29.31-.43.47z" clip-rule="evenodd"/><path fill="url(#paint19_linear_85_112)" fill-rule="evenodd" d="m3.136 12.104 1.34.77c.43-.67.79-1.38 1.29-2l-1.26-.91c-.53.66-.91 1.42-1.37 2.14" clip-rule="evenodd"/><path fill="url(#paint20_linear_85_112)" fill-rule="evenodd" d="m1.266 16.243 1.47.5c.28-.74.51-1.51.89-2.21l-1.4-.65c-.41.76-.66 1.57-.96 2.36" clip-rule="evenodd"/><path fill="url(#paint21_linear_85_112)" fill-rule="evenodd" d="m17.102.997.44 1.48 1.15-.3c.39-.09.77-.22 1.16-.26l-.28-1.52c-.42.05-.83.17-1.24.27z" clip-rule="evenodd"/><path fill="url(#paint22_linear_85_112)" fill-rule="evenodd" d="m12.873 2.716.72 1.37 1.07-.52.54-.26c.18-.08.37-.14.56-.21l-.57-1.43c-.2.07-.4.14-.6.22l-.57.28z" clip-rule="evenodd"/><path fill="url(#paint23_linear_85_112)" fill-rule="evenodd" d="m9.064 5.196.96 1.21.95-.71c.16-.12.32-.24.48-.35l.51-.31-.83-1.31-.54.33c-.18.12-.34.25-.51.38z" clip-rule="evenodd"/><path fill="url(#paint24_linear_85_112)" fill-rule="evenodd" d="m30.628.927-.43 1.49c.39.08.76.22 1.13.36l1.12.41.58-1.43-1.2-.44c-.38-.15-.78-.3-1.2-.39" clip-rule="evenodd"/><path fill="url(#paint25_linear_85_112)" fill-rule="evenodd" d="m26.15.087-.14 1.54c.79.06 1.57.23 2.359.33l.3-1.52c-.84-.11-1.68-.28-2.52-.35" clip-rule="evenodd"/><path fill="url(#paint26_linear_85_112)" fill-rule="evenodd" d="m21.6.097.15 1.54c.79-.03 1.59-.09 2.38-.11l.01-1.55c-.84.02-1.69.08-2.54.12" clip-rule="evenodd"/><path fill="url(#paint27_linear_85_112)" fill-rule="evenodd" d="m42.045 8.185-1.17 1.02.4.44c.13.15.24.32.36.47l.71.95 1.27-.89-.76-1.02c-.13-.17-.25-.34-.39-.5z" clip-rule="evenodd"/><path fill="url(#paint28_linear_85_112)" fill-rule="evenodd" d="m38.726 5.056-.95 1.22.48.36c.15.13.29.27.44.4l.88.799 1.08-1.12-.94-.86c-.16-.14-.31-.29-.47-.42z" clip-rule="evenodd"/><path fill="url(#paint29_linear_85_112)" fill-rule="evenodd" d="m34.727 4.256 1.53.93.85-1.3-1.09-.66-.55-.33-.57-.28-.7 1.38z" clip-rule="evenodd"/><path fill="url(#paint30_linear_85_112)" fill-rule="evenodd" d="m47.724 20.462-1.53.23c.05.39.14.78.16 1.18l.06 1.189 1.55-.06-.06-1.27c-.04-.44-.12-.85-.18-1.27" clip-rule="evenodd"/><path fill="url(#paint31_linear_85_112)" fill-rule="evenodd" d="m46.634 16.033-1.46.51c.31.73.47 1.52.67 2.279l1.51-.36c-.22-.81-.4-1.64-.72-2.43" clip-rule="evenodd"/><path fill="url(#paint32_linear_85_112)" fill-rule="evenodd" d="m44.724 11.914-1.34.78c.45.66.73 1.41 1.09 2.11l1.41-.64c-.37-.75-.69-1.55-1.16-2.25" clip-rule="evenodd"/></g><g clip-path="url(#circleClip)"><svg xmlns="http://www.w3.org/2000/svg" id="Group_29978" width="48" height="48" data-name="Group 29978" viewBox="0 0 256 256"><defs><linearGradient id="linear-gradient" x1="1" x2="0" y1=".527" y2=".53" gradientUnits="objectBoundingBox"><stop offset="0" stop-color="#075eb6"/><stop offset="1" stop-color="#0377fc"/></linearGradient><style>.cls-2{fill:#fff}</style></defs><circle id="Ellipse_991" cx="128" cy="128" r="128" fill="url(#linear-gradient)" data-name="Ellipse 991"/><g id="Group_29977" data-name="Group 29977" transform="translate(1680.221 18360.523)"><path id="Path_9212" d="M-319.405 3483.155c3.505 2.359 6.5 4.015 9.061 6.187a142 142 0 0 1 10.31 9.837c5 5.188 7.149 11.683 8.19 18.673 1.75 11.754-1.505 21.866-8.644 31.349-10.056 13.358-32.271 18.531-45.527 12.45-7.333-3.365-13.96-7.555-18.238-13.93-6.531-9.729-10.661-20.542-5.831-32.617 1.248-3.121 2.42-6.275 3.738-9.7-4.99 1-9.923 1.979-14.885 2.97-.853-3.422-1.7-6.379-2.248-9.4a2.57 2.57 0 0 1 1.448-2.055c10.962-2.32 21.965-4.448 32.925-6.771 1.95-.416 2.5.16 2.712 1.9.768 6.242 1.55 12.485 2.415 18.713.645 4.646 1.336 9.292 2.189 13.9.358 1.936-.075 2.826-2.089 3-2.941.252-5.871.638-8.91.982l-2.763-18.35c-4.1 7.373-6.849 13.914-4.044 21.6 2.239 6.134 5.356 11.763 10.769 15.427 8.72 5.908 18.185 7.544 28.26 3.285a27.9 27.9 0 0 0 13.485-11.3 28.26 28.26 0 0 0 3.446-22.761c-1.964-7.261-5.832-13.033-12.5-16.9-2.064-1.2-3.687-3.013-3.349-6.027.355-3.157.08-6.389.08-10.462" class="cls-2" data-name="Path 9212" transform="translate(-1221.731 -21713.785)"/><path id="Path_9213" d="M-287.513 3407.323c4.909-1.666 9.412-3.19 14.388-4.879 1.031 2.958 2.164 5.705 2.86 8.559a3.21 3.21 0 0 1-1.619 2.634q-14.473 5.563-29.065 10.8c-4.117 1.49-4.1 1.146-5.2-3.065-2.144-8.25-4.666-16.4-7.02-24.6-.644-2.24-1.244-4.5-1.951-7.065a80 80 0 0 1 9.621-2.767c.656-.117 2.089 2.007 2.519 3.313.931 2.826 1.384 5.8 2.155 8.686.379 1.426 1.029 2.77 1.753 4.67 3.175-5.816 3.416-11.532 2.455-17.336a27.71 27.71 0 0 0-15.114-20.725 30.8 30.8 0 0 0-14.2-3.217c-10.507.184-18.789 5.262-24.371 14.255a27.8 27.8 0 0 0 2.65 32.58 68 68 0 0 0 10.307 8.885c1.84 1.377 2.75 2.733 2.67 5-.119 3.414-.031 6.83-.031 11.029-3.037-2.107-5.634-3.691-7.979-5.583-4.362-3.524-8.734-7.061-12.818-10.894-5.762-5.409-8.4-12.558-9.568-20.118-2.1-13.6 2.058-25.495 11.84-34.956 10.483-10.142 23.248-13.3 37.566-10.2 10.624 2.3 18.758 8.4 24.495 17.228 5.973 9.2 7.591 19.583 5.309 30.433-.477 2.294-1.023 4.558-1.652 7.333" class="cls-2" data-name="Path 9213" transform="translate(-1228.105 -21666.727)"/><path id="Path_9214" d="M-298.613 3398.434v104.738c-3.343 0-6.52.052-9.694-.021-2.3-.047-1.6-1.907-1.6-3.13q-.054-24.905-.015-49.815c0-16.067.068-32.137-.056-48.2-.022-2.789.666-3.907 3.576-3.62 2.435.24 4.913.048 7.789.048" class="cls-2" data-name="Path 9214" transform="translate(-1247.924 -21683.535)"/></g></svg></g><defs><linearGradient id="paint0_linear_85_112" x1="89.53" x2="-825.17" y1="68.3" y2="-779.228" gradientUnits="userSpaceOnUse"><stop stop-color="#B6509E"/><stop offset="1" stop-color="#2EBAC6"/></linearGradient><linearGradient id="paint1_linear_85_112" x1="128.494" x2="-821.333" y1="88.03" y2="-890.21" gradientUnits="userSpaceOnUse"><stop stop-color="#B6509E"/><stop offset="1" stop-color="#2EBAC6"/></linearGradient><linearGradient id="paint2_linear_85_112" x1="208.381" x2="-798.122" y1="123.642" y2="-1059.46" gradientUnits="userSpaceOnUse"><stop stop-color="#B6509E"/><stop offset="1" stop-color="#2EBAC6"/></linearGradient><linearGradient id="paint3_linear_85_112" x1="97.496" x2="-879.277" y1="92.507" y2="-598.994" gradientUnits="userSpaceOnUse"><stop stop-color="#B6509E"/><stop offset="1" stop-color="#2EBAC6"/></linearGradient><linearGradient id="paint4_linear_85_112" x1="78.258" x2="-846.56" y1="70.379" y2="-650.515" gradientUnits="userSpaceOnUse"><stop stop-color="#B6509E"/><stop offset="1" stop-color="#2EBAC6"/></linearGradient><linearGradient id="paint5_linear_85_112" x1="75.026" x2="-829.603" y1="62.533" y2="-702.513" gradientUnits="userSpaceOnUse"><stop stop-color="#B6509E"/><stop offset="1" stop-color="#2EBAC6"/></linearGradient><linearGradient id="paint6_linear_85_112" x1="262.521" x2="-1053.41" y1="317.895" y2="-374.189" gradientUnits="userSpaceOnUse"><stop stop-color="#B6509E"/><stop offset="1" stop-color="#2EBAC6"/></linearGradient><linearGradient id="paint7_linear_85_112" x1="189.598" x2="-1025.6" y1="215.72" y2="-471.757" gradientUnits="userSpaceOnUse"><stop stop-color="#B6509E"/><stop offset="1" stop-color="#2EBAC6"/></linearGradient><linearGradient id="paint8_linear_85_112" x1="133.663" x2="-930.647" y1="135.723" y2="-551.282" gradientUnits="userSpaceOnUse"><stop stop-color="#B6509E"/><stop offset="1" stop-color="#2EBAC6"/></linearGradient><linearGradient id="paint9_linear_85_112" x1="438.358" x2="-505.593" y1="383.608" y2="-318.594" gradientUnits="userSpaceOnUse"><stop stop-color="#B6509E"/><stop offset="1" stop-color="#2EBAC6"/></linearGradient><linearGradient id="paint10_linear_85_112" x1="367.884" x2="-644.885" y1="352.282" y2="-333.003" gradientUnits="userSpaceOnUse"><stop stop-color="#B6509E"/><stop offset="1" stop-color="#2EBAC6"/></linearGradient><linearGradient id="paint11_linear_85_112" x1="310.913" x2="-819.374" y1="330.087" y2="-355.394" gradientUnits="userSpaceOnUse"><stop stop-color="#B6509E"/><stop offset="1" stop-color="#2EBAC6"/></linearGradient><linearGradient id="paint12_linear_85_112" x1="796.792" x2="-129.901" y1="536.642" y2="-367.096" gradientUnits="userSpaceOnUse"><stop stop-color="#B6509E"/><stop offset="1" stop-color="#2EBAC6"/></linearGradient><linearGradient id="paint13_linear_85_112" x1="640.69" x2="-263.86" y1="473.543" y2="-328.827" gradientUnits="userSpaceOnUse"><stop stop-color="#B6509E"/><stop offset="1" stop-color="#2EBAC6"/></linearGradient><linearGradient id="paint14_linear_85_112" x1="527.908" x2="-382.812" y1="424.179" y2="-316.503" gradientUnits="userSpaceOnUse"><stop stop-color="#B6509E"/><stop offset="1" stop-color="#2EBAC6"/></linearGradient><linearGradient id="paint15_linear_85_112" x1="1168.67" x2="194.923" y1="698.93" y2="-373.582" gradientUnits="userSpaceOnUse"><stop stop-color="#B6509E"/><stop offset="1" stop-color="#2EBAC6"/></linearGradient><linearGradient id="paint16_linear_85_112" x1="1359.4" x2="349.59" y1="702.843" y2="-584.24" gradientUnits="userSpaceOnUse"><stop stop-color="#B6509E"/><stop offset="1" stop-color="#2EBAC6"/></linearGradient><linearGradient id="paint17_linear_85_112" x1="1029.35" x2="55.146" y1="617.607" y2="-450.02" gradientUnits="userSpaceOnUse"><stop stop-color="#B6509E"/><stop offset="1" stop-color="#2EBAC6"/></linearGradient><linearGradient id="paint18_linear_85_112" x1="874.387" x2="-38.877" y1="702.532" y2="-37.617" gradientUnits="userSpaceOnUse"><stop stop-color="#B6509E"/><stop offset="1" stop-color="#2EBAC6"/></linearGradient><linearGradient id="paint19_linear_85_112" x1="933.728" x2="28.774" y1="687.088" y2="-118.691" gradientUnits="userSpaceOnUse"><stop stop-color="#B6509E"/><stop offset="1" stop-color="#2EBAC6"/></linearGradient><linearGradient id="paint20_linear_85_112" x1="1019.51" x2="92.815" y1="686.801" y2="-216.936" gradientUnits="userSpaceOnUse"><stop stop-color="#B6509E"/><stop offset="1" stop-color="#2EBAC6"/></linearGradient><linearGradient id="paint21_linear_85_112" x1="812.862" x2="-319.316" y1="861.405" y2="172.282" gradientUnits="userSpaceOnUse"><stop stop-color="#B6509E"/><stop offset="1" stop-color="#2EBAC6"/></linearGradient><linearGradient id="paint22_linear_85_112" x1="813.991" x2="-201.396" y1="781.595" y2="97.365" gradientUnits="userSpaceOnUse"><stop stop-color="#B6509E"/><stop offset="1" stop-color="#2EBAC6"/></linearGradient><linearGradient id="paint23_linear_85_112" x1="837.936" x2="-109.46" y1="731.376" y2="26.812" gradientUnits="userSpaceOnUse"><stop stop-color="#B6509E"/><stop offset="1" stop-color="#2EBAC6"/></linearGradient><linearGradient id="paint24_linear_85_112" x1="606.97" x2="-460.098" y1="612.111" y2="-73.641" gradientUnits="userSpaceOnUse"><stop stop-color="#B6509E"/><stop offset="1" stop-color="#2EBAC6"/></linearGradient><linearGradient id="paint25_linear_85_112" x1="717.133" x2="-498.065" y1="817.847" y2="130.371" gradientUnits="userSpaceOnUse"><stop stop-color="#B6509E"/><stop offset="1" stop-color="#2EBAC6"/></linearGradient><linearGradient id="paint26_linear_85_112" x1="820.019" x2="-495.907" y1="1001.94" y2="309.858" gradientUnits="userSpaceOnUse"><stop stop-color="#B6509E"/><stop offset="1" stop-color="#2EBAC6"/></linearGradient><linearGradient id="paint27_linear_85_112" x1="394.545" x2="-513.251" y1="308.62" y2="-459.241" gradientUnits="userSpaceOnUse"><stop stop-color="#B6509E"/><stop offset="1" stop-color="#2EBAC6"/></linearGradient><linearGradient id="paint28_linear_85_112" x1="450.145" x2="-473.882" y1="380.09" y2="-337.685" gradientUnits="userSpaceOnUse"><stop stop-color="#B6509E"/><stop offset="1" stop-color="#2EBAC6"/></linearGradient><linearGradient id="paint29_linear_85_112" x1="518.793" x2="-455.432" y1="475.886" y2="-216.507" gradientUnits="userSpaceOnUse"><stop stop-color="#B6509E"/><stop offset="1" stop-color="#2EBAC6"/></linearGradient><linearGradient id="paint30_linear_85_112" x1="285.61" x2="-719.969" y1="167.357" y2="-1021.33" gradientUnits="userSpaceOnUse"><stop stop-color="#B6509E"/><stop offset="1" stop-color="#2EBAC6"/></linearGradient><linearGradient id="paint31_linear_85_112" x1="310.89" x2="-638.94" y1="204.963" y2="-773.277" gradientUnits="userSpaceOnUse"><stop stop-color="#B6509E"/><stop offset="1" stop-color="#2EBAC6"/></linearGradient><linearGradient id="paint32_linear_85_112" x1="57.625" x2="16.161" y1="23.836" y2="-9.531" gradientUnits="userSpaceOnUse"><stop stop-color="#B6509E"/><stop offset="1" stop-color="#2EBAC6"/></linearGradient><clipPath id="circleClip"><circle cx="24" cy="24" r="21"/></clipPath><clipPath id="clip0_85_112"><path fill="#fff" d="M0 0h48v48H0z"/></clipPath></defs></svg>