<svg width="48" height="48" viewBox="0 0 48 48"><defs><linearGradient id="a" x1="215.808" x2="52.736" y1="34.56" y2="226.816" gradientUnits="userSpaceOnUse"><stop offset="0" stop-color="#b6509e"/><stop offset="1" stop-color="#2ebac6"/></linearGradient></defs><path fill="url(#a)" d="M128 256a129 129 0 0 1-25.8-2.6 127.3 127.3 0 0 1-45.77-19.261 128.37 128.37 0 0 1-46.375-56.315A127.4 127.4 0 0 1 2.6 153.8a129.25 129.25 0 0 1 0-51.593 127.3 127.3 0 0 1 19.26-45.77 128.37 128.37 0 0 1 56.317-46.378A127.3 127.3 0 0 1 102.2 2.6a129.2 129.2 0 0 1 51.593 0 127.3 127.3 0 0 1 45.77 19.26 128.37 128.37 0 0 1 46.375 56.316A127.3 127.3 0 0 1 253.4 102.2a129.25 129.25 0 0 1 0 51.593 127.3 127.3 0 0 1-19.26 45.77 128.4 128.4 0 0 1-56.316 46.375A127.4 127.4 0 0 1 153.8 253.4 129 129 0 0 1 128 256m0-242.287a115 115 0 0 0-23.033 2.322A113.7 113.7 0 0 0 64.1 33.232a114.6 114.6 0 0 0-41.4 50.283 113.7 113.7 0 0 0-6.659 21.452 115.4 115.4 0 0 0 0 46.065 113.7 113.7 0 0 0 17.2 40.866 114.63 114.63 0 0 0 50.282 41.407 113.8 113.8 0 0 0 21.453 6.658 115.4 115.4 0 0 0 46.065 0 113.6 113.6 0 0 0 40.866-17.2 114.6 114.6 0 0 0 41.393-50.278 113.7 113.7 0 0 0 6.659-21.453 115.4 115.4 0 0 0 0-46.065 113.7 113.7 0 0 0-17.2-40.865A114.6 114.6 0 0 0 172.485 22.7a113.7 113.7 0 0 0-21.453-6.659A115 115 0 0 0 128 13.714Z" style="fill:url(#a)" transform="matrix(.1875 0 0 .1875 0 0)"/><svg xmlns="http://www.w3.org/2000/svg" width="30" height="30" x="9" y="9" fill="none" viewBox="0 0 258 258"><path fill="url(#b)" stroke="#000" stroke-width=".5" d="M129 257c70.692 0 128-57.308 128-128S199.692 1 129 1 1 58.307 1 129c0 70.692 57.307 128 128 128Z"/><path fill="#FFF6F0" stroke="#000" d="M42.6 106.049 129 20.2l86.4 85.849-42.396 42.125-43.173-42.898-.776-.771-.778.771-43.2 42.924z"/><path fill="#2A363A" d="M61.697 161.64h33.945v9.677H71.834v12.288h22.887v9.676H71.834v12.442h24.73v9.677H61.697zm83.582 0v35.174q0 9.216-4.916 14.439-4.838 5.222-14.438 5.222c-9.6 0-11.238-1.741-14.515-5.222q-4.839-5.223-4.839-14.439V161.64h10.138v35.174q0 4.762 2.227 7.45 2.228 2.688 6.989 2.688c4.761 0 5.504-.896 6.989-2.688q2.227-2.688 2.227-7.45V161.64zm45.872 53.76h-10.137v-16.128q0-1.843-.999-2.995-.922-1.152-3.148-1.152h-11.674V215.4h-10.138v-53.76h20.583q4.147 0 7.296 1.152t5.222 3.225a12.8 12.8 0 0 1 3.226 4.685q1.152 2.688 1.152 5.76v1.843q0 3.303-1.767 6.221-1.766 2.842-5.452 4.378v1.382q2.688.307 4.224 2.074 1.612 1.766 1.612 4.454zm-25.958-29.952h9.677q3.686 0 5.606-1.69 1.92-1.766 1.92-4.915v-.922q0-2.688-1.92-4.608-1.92-1.996-5.606-1.996h-9.677z"/><defs><linearGradient id="b" x1="129" x2="129" y1="1" y2="257" gradientUnits="userSpaceOnUse"><stop stop-color="#99B998"/><stop offset="1" stop-color="#FDCEAA"/></linearGradient></defs></svg></svg>