<svg xmlns="http://www.w3.org/2000/svg" width="48" height="48" fill="none" viewBox="0 0 48 48"><g clip-path="url(#a)"><path fill="url(#b)" d="M24 48a23.87 23.87 0 0 1-13.42-4.099 24.07 24.07 0 0 1-8.695-10.559 24 24 0 0 1-1.397-4.504 24.2 24.2 0 0 1 0-9.674 23.9 23.9 0 0 1 3.61-8.582 24.07 24.07 0 0 1 10.56-8.696A24 24 0 0 1 19.163.488c3.191-.65 6.481-.65 9.673 0a23.9 23.9 0 0 1 8.582 3.61 24.07 24.07 0 0 1 8.695 10.56 24 24 0 0 1 1.4 4.505c.65 3.191.65 6.481 0 9.673a23.9 23.9 0 0 1-3.612 8.582 24.07 24.07 0 0 1-10.559 8.695A23.9 23.9 0 0 1 24 48m0-45.429c-1.45 0-2.897.146-4.319.436A21.3 21.3 0 0 0 12.02 6.23a21.5 21.5 0 0 0-7.763 9.428 21.3 21.3 0 0 0-1.248 4.022c-.58 2.85-.58 5.788 0 8.638a21.3 21.3 0 0 0 3.225 7.662 21.5 21.5 0 0 0 9.428 7.764c1.296.547 2.643.966 4.022 1.248 2.85.58 5.787.58 8.637 0a21.3 21.3 0 0 0 7.663-3.225 21.5 21.5 0 0 0 7.76-9.427 21.3 21.3 0 0 0 1.25-4.023c.58-2.85.58-5.787 0-8.637a21.3 21.3 0 0 0-3.226-7.662 21.5 21.5 0 0 0-9.426-7.763 21.3 21.3 0 0 0-4.023-1.248A21.6 21.6 0 0 0 24 2.57"/></g><g clip-path="url(#c)"><svg xmlns="http://www.w3.org/2000/svg" width="48" height="48" viewBox="0 0 258 258"><path fill="url(#d)" stroke="#000" stroke-width="48" d="M129 257c70.692 0 128-57.308 128-128S199.692 1 129 1 1 58.307 1 129c0 70.692 57.307 128 128 128Z"/><path fill="#FFF6F0" stroke="#000" d="M42.6 106.049 129 20.2l86.4 85.849-42.396 42.125-43.173-42.898-.776-.771-.778.771-43.2 42.924z"/><path fill="#2A363A" d="M61.697 161.64h33.945v9.677H71.834v12.288h22.887v9.676H71.834v12.442h24.73v9.677H61.697zm83.582 0v35.174q0 9.216-4.916 14.439-4.838 5.222-14.438 5.222c-9.6 0-11.238-1.741-14.515-5.222q-4.839-5.223-4.839-14.439V161.64h10.138v35.174q0 4.762 2.227 7.45 2.228 2.688 6.989 2.688c4.761 0 5.504-.896 6.989-2.688q2.227-2.688 2.227-7.45V161.64zm45.872 53.76h-10.137v-16.128q0-1.843-.999-2.995-.922-1.152-3.148-1.152h-11.674V215.4h-10.138v-53.76h20.583q4.147 0 7.296 1.152t5.222 3.225a12.8 12.8 0 0 1 3.226 4.685q1.152 2.688 1.152 5.76v1.843q0 3.303-1.767 6.221-1.766 2.842-5.452 4.378v1.382q2.688.307 4.224 2.074 1.612 1.766 1.612 4.454zm-25.958-29.952h9.677q3.686 0 5.606-1.69 1.92-1.766 1.92-4.915v-.922q0-2.688-1.92-4.608-1.92-1.996-5.606-1.996h-9.677z"/><defs><linearGradient id="d" x1="129" x2="129" y1="1" y2="257" gradientUnits="userSpaceOnUse"><stop stop-color="#99B998"/><stop offset="1" stop-color="#FDCEAA"/></linearGradient></defs></svg></g><defs><clipPath id="c"><circle cx="24" cy="24" r="20"/></clipPath><clipPath id="a"><path fill="#fff" d="M0 0h48v48H0z"/></clipPath><linearGradient id="b" x1="40.464" x2="9.888" y1="6.48" y2="42.528" gradientUnits="userSpaceOnUse"><stop stop-color="#B6509E"/><stop offset="1" stop-color="#2EBAC6"/></linearGradient></defs></svg>