<svg xmlns="http://www.w3.org/2000/svg" width="48" height="48" fill="none" viewBox="0 0 48 48"><g clip-path="url(#a)"><path fill="url(#b)" d="M24 48a23.87 23.87 0 0 1-13.42-4.099 24.07 24.07 0 0 1-8.695-10.559 24 24 0 0 1-1.397-4.504 24.2 24.2 0 0 1 0-9.674 23.9 23.9 0 0 1 3.61-8.582 24.07 24.07 0 0 1 10.56-8.696A24 24 0 0 1 19.163.488c3.191-.65 6.481-.65 9.673 0a23.9 23.9 0 0 1 8.582 3.61 24.07 24.07 0 0 1 8.695 10.56 24 24 0 0 1 1.4 4.505c.65 3.191.65 6.481 0 9.673a23.9 23.9 0 0 1-3.612 8.582 24.07 24.07 0 0 1-10.559 8.695A23.9 23.9 0 0 1 24 48m0-45.429c-1.45 0-2.897.146-4.319.436A21.3 21.3 0 0 0 12.02 6.23a21.5 21.5 0 0 0-7.763 9.428 21.3 21.3 0 0 0-1.248 4.022c-.58 2.85-.58 5.788 0 8.638a21.3 21.3 0 0 0 3.225 7.662 21.5 21.5 0 0 0 9.428 7.764c1.296.547 2.643.966 4.022 1.248 2.85.58 5.787.58 8.637 0a21.3 21.3 0 0 0 7.663-3.225 21.5 21.5 0 0 0 7.76-9.427 21.3 21.3 0 0 0 1.25-4.023c.58-2.85.58-5.787 0-8.637a21.3 21.3 0 0 0-3.226-7.662 21.5 21.5 0 0 0-9.426-7.763 21.3 21.3 0 0 0-4.023-1.248A21.6 21.6 0 0 0 24 2.57"/></g><g clip-path="url(#c)"><svg xmlns="http://www.w3.org/2000/svg" width="48" height="48" viewBox="0 0 256 256"><path fill="#fff" stroke="#383D51" stroke-width="48" d="M255.75 128c0 70.554-57.196 127.75-127.75 127.75S.25 198.554.25 128 57.446.25 128 .25 255.75 57.446 255.75 128Z"/><path fill="#000" d="M59.09 192c-.1-1.945-.13-3.89-.032-5.835q.973-.286 1.977-.421a50 50 0 0 0 5.77-1.361c.52-.162 1.037-.357 1.556-.551a15.5 15.5 0 0 0 6.386-4.668 30 30 0 0 0 3.047-4.7 69 69 0 0 0 3.274-7.034c1.945-4.862 3.89-9.692 5.8-14.554l19.839-50.176a3895 3895 0 0 0 18.445-47.848l.389-.972c2.239-.616 4.408-1.264 6.677-1.88.13.324.259.616.357.908a6494 6494 0 0 1 7.65 21.426c8.72 24.344 17.439 48.655 26.386 72.9 2.464 6.613 4.927 13.258 7.423 19.87a63 63 0 0 0 3.468 7.877c.583 1.1 1.2 2.139 1.88 3.177a15.2 15.2 0 0 0 9.011 6.515c2.004.531 4.039.931 6.094 1.2l1.459.227c.129.618.163 1.252.1 1.88v1.977q.033.957-.032 1.912c-.194.032-.357.065-.551.1H144.18a1.2 1.2 0 0 1-.13-.357v-5.252a.6.6 0 0 1 .065-.227 8.4 8.4 0 0 1 1.3-.259 52 52 0 0 0 6.256-1.232 22 22 0 0 0 2.431-.843 10 10 0 0 0 1.167-.583 4.98 4.98 0 0 0 2.658-5.186 16.3 16.3 0 0 0-.551-3.047c-.421-1.556-.972-3.079-1.491-4.57A11669 11669 0 0 1 124.341 81.3a1.85 1.85 0 0 0-.486-.972 3 3 0 0 0-.324.194q-.139.227-.194.486c-5.089 14.619-10.5 29.141-15.883 43.63-3.988 10.733-7.974 21.495-11.674 32.321a613 613 0 0 0-4.31 13.1 31.7 31.7 0 0 0-1.2 5.122 13 13 0 0 0-.1 3.533 5.43 5.43 0 0 0 2.236 3.825 10 10 0 0 0 2.69 1.361 26 26 0 0 0 4.668 1.2c1.75.324 3.5.583 5.284.843.13.032.227.032.389.065l.1.389v5.089a1 1 0 0 1-.065.292 2.5 2.5 0 0 1-.486.065h-.681z"/></svg></g><defs><clipPath id="c"><circle cx="24" cy="24" r="20"/></clipPath><clipPath id="a"><path fill="#fff" d="M0 0h48v48H0z"/></clipPath><linearGradient id="b" x1="40.464" x2="9.888" y1="6.48" y2="42.528" gradientUnits="userSpaceOnUse"><stop stop-color="#B6509E"/><stop offset="1" stop-color="#2EBAC6"/></linearGradient></defs></svg>