<svg width="48" height="48" viewBox="0 0 48 48"><defs><linearGradient id="a" x1="215.808" x2="52.736" y1="34.56" y2="226.816" gradientUnits="userSpaceOnUse"><stop offset="0" stop-color="#b6509e"/><stop offset="1" stop-color="#2ebac6"/></linearGradient></defs><path fill="url(#a)" d="M128 256a129 129 0 0 1-25.8-2.6 127.3 127.3 0 0 1-45.77-19.261 128.37 128.37 0 0 1-46.375-56.315A127.4 127.4 0 0 1 2.6 153.8a129.25 129.25 0 0 1 0-51.593 127.3 127.3 0 0 1 19.26-45.77 128.37 128.37 0 0 1 56.317-46.378A127.3 127.3 0 0 1 102.2 2.6a129.2 129.2 0 0 1 51.593 0 127.3 127.3 0 0 1 45.77 19.26 128.37 128.37 0 0 1 46.375 56.316A127.3 127.3 0 0 1 253.4 102.2a129.25 129.25 0 0 1 0 51.593 127.3 127.3 0 0 1-19.26 45.77 128.4 128.4 0 0 1-56.316 46.375A127.4 127.4 0 0 1 153.8 253.4 129 129 0 0 1 128 256m0-242.287a115 115 0 0 0-23.033 2.322A113.7 113.7 0 0 0 64.1 33.232a114.6 114.6 0 0 0-41.4 50.283 113.7 113.7 0 0 0-6.659 21.452 115.4 115.4 0 0 0 0 46.065 113.7 113.7 0 0 0 17.2 40.866 114.63 114.63 0 0 0 50.282 41.407 113.8 113.8 0 0 0 21.453 6.658 115.4 115.4 0 0 0 46.065 0 113.6 113.6 0 0 0 40.866-17.2 114.6 114.6 0 0 0 41.393-50.278 113.7 113.7 0 0 0 6.659-21.453 115.4 115.4 0 0 0 0-46.065 113.7 113.7 0 0 0-17.2-40.865A114.6 114.6 0 0 0 172.485 22.7a113.7 113.7 0 0 0-21.453-6.659A115 115 0 0 0 128 13.714Z" style="fill:url(#a)" transform="matrix(.1875 0 0 .1875 0 0)"/><svg xmlns="http://www.w3.org/2000/svg" width="30" height="30" x="9" y="9" fill="none" viewBox="0 0 256 256"><path fill="#fff" stroke="#383D51" stroke-width=".5" d="M255.75 128c0 70.554-57.196 127.75-127.75 127.75S.25 198.554.25 128 57.446.25 128 .25 255.75 57.446 255.75 128Z"/><path fill="#000" d="M59.09 192c-.1-1.945-.13-3.89-.032-5.835q.973-.286 1.977-.421a50 50 0 0 0 5.77-1.361c.52-.162 1.037-.357 1.556-.551a15.5 15.5 0 0 0 6.386-4.668 30 30 0 0 0 3.047-4.7 69 69 0 0 0 3.274-7.034c1.945-4.862 3.89-9.692 5.8-14.554l19.839-50.176a3895 3895 0 0 0 18.445-47.848l.389-.972c2.239-.616 4.408-1.264 6.677-1.88.13.324.259.616.357.908a6494 6494 0 0 1 7.65 21.426c8.72 24.344 17.439 48.655 26.386 72.9 2.464 6.613 4.927 13.258 7.423 19.87a63 63 0 0 0 3.468 7.877c.583 1.1 1.2 2.139 1.88 3.177a15.2 15.2 0 0 0 9.011 6.515c2.004.531 4.039.931 6.094 1.2l1.459.227c.129.618.163 1.252.1 1.88v1.977q.033.957-.032 1.912c-.194.032-.357.065-.551.1H144.18a1.2 1.2 0 0 1-.13-.357v-5.252a.6.6 0 0 1 .065-.227 8.4 8.4 0 0 1 1.3-.259 52 52 0 0 0 6.256-1.232 22 22 0 0 0 2.431-.843 10 10 0 0 0 1.167-.583 4.98 4.98 0 0 0 2.658-5.186 16.3 16.3 0 0 0-.551-3.047c-.421-1.556-.972-3.079-1.491-4.57A11669 11669 0 0 1 124.341 81.3a1.85 1.85 0 0 0-.486-.972 3 3 0 0 0-.324.194q-.139.227-.194.486c-5.089 14.619-10.5 29.141-15.883 43.63-3.988 10.733-7.974 21.495-11.674 32.321a613 613 0 0 0-4.31 13.1 31.7 31.7 0 0 0-1.2 5.122 13 13 0 0 0-.1 3.533 5.43 5.43 0 0 0 2.236 3.825 10 10 0 0 0 2.69 1.361 26 26 0 0 0 4.668 1.2c1.75.324 3.5.583 5.284.843.13.032.227.032.389.065l.1.389v5.089a1 1 0 0 1-.065.292 2.5 2.5 0 0 1-.486.065h-.681z"/></svg></svg>