<svg xmlns="http://www.w3.org/2000/svg" width="48" height="48" fill="none" viewBox="0 0 48 48"><g clip-path="url(#a)"><path fill="url(#b)" d="M24 48a23.87 23.87 0 0 1-13.42-4.099 24.07 24.07 0 0 1-8.695-10.559 24 24 0 0 1-1.397-4.504 24.2 24.2 0 0 1 0-9.674 23.9 23.9 0 0 1 3.61-8.582 24.07 24.07 0 0 1 10.56-8.696A24 24 0 0 1 19.163.488c3.191-.65 6.481-.65 9.673 0a23.9 23.9 0 0 1 8.582 3.61 24.07 24.07 0 0 1 8.695 10.56 24 24 0 0 1 1.4 4.505c.65 3.191.65 6.481 0 9.673a23.9 23.9 0 0 1-3.612 8.582 24.07 24.07 0 0 1-10.559 8.695A23.9 23.9 0 0 1 24 48m0-45.429c-1.45 0-2.897.146-4.319.436A21.3 21.3 0 0 0 12.02 6.23a21.5 21.5 0 0 0-7.763 9.428 21.3 21.3 0 0 0-1.248 4.022c-.58 2.85-.58 5.788 0 8.638a21.3 21.3 0 0 0 3.225 7.662 21.5 21.5 0 0 0 9.428 7.764c1.296.547 2.643.966 4.022 1.248 2.85.58 5.787.58 8.637 0a21.3 21.3 0 0 0 7.663-3.225 21.5 21.5 0 0 0 7.76-9.427 21.3 21.3 0 0 0 1.25-4.023c.58-2.85.58-5.787 0-8.637a21.3 21.3 0 0 0-3.226-7.662 21.5 21.5 0 0 0-9.426-7.763 21.3 21.3 0 0 0-4.023-1.248A21.6 21.6 0 0 0 24 2.57"/></g><g clip-path="url(#c)"><svg xmlns="http://www.w3.org/2000/svg" width="48" height="48" viewBox="0 0 256 256"><g clip-path="url(#d)"><path fill="#213147" d="M128 256c70.692 0 128-57.308 128-128S198.692 0 128 0 0 57.307 0 128c0 70.692 57.307 128 128 128"/><g clip-path="url(#e)"><path fill="#213147" d="M47.595 89.58v76.84a13.72 13.72 0 0 0 6.868 11.887l66.546 38.428a13.75 13.75 0 0 0 13.72 0l66.545-38.428a13.72 13.72 0 0 0 6.869-11.887V89.58a13.72 13.72 0 0 0-6.869-11.887l-66.545-38.428a13.75 13.75 0 0 0-13.72 0L54.447 77.693a13.7 13.7 0 0 0-6.852 11.887"/><path fill="#12AAFF" d="m142.386 142.903-9.49 26.026a3.33 3.33 0 0 0 0 2.236l16.326 44.782 18.884-10.906-22.664-62.138c-.514-1.432-2.541-1.432-3.056 0m19.029-43.768c-.515-1.432-2.542-1.432-3.056 0l-9.491 26.026a3.34 3.34 0 0 0 0 2.236l26.75 73.317 18.884-10.906z"/><path fill="#9DCCED" d="M127.861 42.144c.466 0 .933.13 1.351.354l72.014 41.581a2.71 2.71 0 0 1 1.351 2.332v83.145c0 .966-.514 1.85-1.351 2.333l-72.014 41.581a2.65 2.65 0 0 1-1.351.353c-.467 0-.933-.128-1.351-.353l-72.014-41.549a2.71 2.71 0 0 1-1.352-2.332V86.427c0-.965.515-1.85 1.352-2.332l72.014-41.58a2.7 2.7 0 0 1 1.351-.37Zm0-12.144c-2.558 0-5.131.66-7.432 1.995L48.431 73.559A14.86 14.86 0 0 0 41 86.427v83.146a14.85 14.85 0 0 0 7.431 12.868l72.015 41.58a14.9 14.9 0 0 0 7.431 1.995c2.558 0 5.131-.659 7.431-1.995l72.015-41.58a14.86 14.86 0 0 0 7.431-12.868V86.427a14.86 14.86 0 0 0-7.431-12.868l-72.031-41.564A14.8 14.8 0 0 0 127.861 30"/><path fill="#213147" d="m80.232 200.81 6.627-18.144 13.335 11.083-12.466 11.388z"/><path fill="#fff" d="M121.797 80.476H103.54c-1.367 0-2.59.852-3.056 2.14L61.348 189.903l18.884 10.906 43.093-118.147c.402-1.061-.386-2.187-1.528-2.187Zm31.945 0h-18.257c-1.367 0-2.59.852-3.056 2.14L87.744 205.12l18.884 10.906L155.27 82.663a1.63 1.63 0 0 0-1.528-2.187"/></g></g><defs><clipPath id="d"><path fill="#fff" d="M0 0h256v256H0z"/></clipPath><clipPath id="e"><path fill="#fff" d="M41 30h173.722v196H41z"/></clipPath></defs></svg></g><defs><clipPath id="c"><circle cx="24" cy="24" r="20"/></clipPath><clipPath id="a"><path fill="#fff" d="M0 0h48v48H0z"/></clipPath><linearGradient id="b" x1="40.464" x2="9.888" y1="6.48" y2="42.528" gradientUnits="userSpaceOnUse"><stop stop-color="#B6509E"/><stop offset="1" stop-color="#2EBAC6"/></linearGradient></defs></svg>