<svg xmlns="http://www.w3.org/2000/svg" width="48" height="48" fill="none" viewBox="0 0 48 48"><g clip-path="url(#a)"><path fill="url(#b)" d="M24 48a23.87 23.87 0 0 1-13.42-4.099 24.07 24.07 0 0 1-8.695-10.559 24 24 0 0 1-1.397-4.504 24.2 24.2 0 0 1 0-9.674 23.9 23.9 0 0 1 3.61-8.582 24.07 24.07 0 0 1 10.56-8.696A24 24 0 0 1 19.163.488c3.191-.65 6.481-.65 9.673 0a23.9 23.9 0 0 1 8.582 3.61 24.07 24.07 0 0 1 8.695 10.56 24 24 0 0 1 1.4 4.505c.65 3.191.65 6.481 0 9.673a23.9 23.9 0 0 1-3.612 8.582 24.07 24.07 0 0 1-10.559 8.695A23.9 23.9 0 0 1 24 48m0-45.429c-1.45 0-2.897.146-4.319.436A21.3 21.3 0 0 0 12.02 6.23a21.5 21.5 0 0 0-7.763 9.428 21.3 21.3 0 0 0-1.248 4.022c-.58 2.85-.58 5.788 0 8.638a21.3 21.3 0 0 0 3.225 7.662 21.5 21.5 0 0 0 9.428 7.764c1.296.547 2.643.966 4.022 1.248 2.85.58 5.787.58 8.637 0a21.3 21.3 0 0 0 7.663-3.225 21.5 21.5 0 0 0 7.76-9.427 21.3 21.3 0 0 0 1.25-4.023c.58-2.85.58-5.787 0-8.637a21.3 21.3 0 0 0-3.226-7.662 21.5 21.5 0 0 0-9.426-7.763 21.3 21.3 0 0 0-4.023-1.248A21.6 21.6 0 0 0 24 2.57"/></g><g clip-path="url(#c)"><svg xmlns="http://www.w3.org/2000/svg" width="48" height="48" viewBox="0 0 1503 1504"><path fill="#fff" d="M287 258h928v844H287z"/><path fill="#E84142" fill-rule="evenodd" d="M1502.5 752c0 414.77-336.23 751-751 751-414.766 0-751-336.23-751-751C.5 337.234 336.734 1 751.5 1c414.77 0 751 336.234 751 751m-963.812 298.86H392.94c-30.626 0-45.754 0-54.978-5.9-9.963-6.46-16.051-17.16-16.789-28.97-.554-10.88 7.011-24.168 22.139-50.735l359.87-634.32c15.313-26.936 23.061-40.404 32.839-45.385 10.516-5.35 23.062-5.35 33.578 0 9.778 4.981 17.527 18.449 32.839 45.385l73.982 129.144.377.659c16.539 28.897 24.926 43.551 28.588 58.931a109.56 109.56 0 0 1 0 51.289c-3.69 15.497-11.992 30.257-28.781 59.591L687.573 964.702l-.489.856c-16.648 29.135-25.085 43.902-36.778 55.042-12.73 12.18-28.043 21.03-44.832 26.02-15.313 4.24-32.47 4.24-66.786 4.24m368.062 0h208.84c30.81 0 46.31 0 55.54-6.08 9.96-6.46 16.23-17.35 16.79-29.15.53-10.53-6.87-23.3-21.37-48.323-.5-.852-1-1.719-1.51-2.601L1060.43 785.75l-1.19-2.015c-14.7-24.858-22.12-37.411-31.65-42.263a36.73 36.73 0 0 0-33.391 0c-9.594 4.981-17.342 18.08-32.655 44.462L857.306 964.891l-.357.616c-15.259 26.34-22.885 39.503-22.335 50.303.738 11.81 6.826 22.69 16.788 29.15 9.041 5.9 24.538 5.9 55.348 5.9" clip-rule="evenodd"/></svg></g><defs><clipPath id="c"><circle cx="24" cy="24" r="20"/></clipPath><clipPath id="a"><path fill="#fff" d="M0 0h48v48H0z"/></clipPath><linearGradient id="b" x1="40.464" x2="9.888" y1="6.48" y2="42.528" gradientUnits="userSpaceOnUse"><stop stop-color="#B6509E"/><stop offset="1" stop-color="#2EBAC6"/></linearGradient></defs></svg>