<svg width="48" height="48" viewBox="0 0 48 48"><defs><linearGradient id="a" x1="215.808" x2="52.736" y1="34.56" y2="226.816" gradientUnits="userSpaceOnUse"><stop offset="0"/><stop offset="1"/></linearGradient></defs><path fill="url(#a)" d="M128 256a129 129 0 0 1-25.8-2.6 127.3 127.3 0 0 1-45.77-19.261 128.37 128.37 0 0 1-46.375-56.315A127.4 127.4 0 0 1 2.6 153.8a129.25 129.25 0 0 1 0-51.593 127.3 127.3 0 0 1 19.26-45.77 128.37 128.37 0 0 1 56.317-46.378A127.3 127.3 0 0 1 102.2 2.6a129.2 129.2 0 0 1 51.593 0 127.3 127.3 0 0 1 45.77 19.26 128.37 128.37 0 0 1 46.375 56.316A127.3 127.3 0 0 1 253.4 102.2a129.25 129.25 0 0 1 0 51.593 127.3 127.3 0 0 1-19.26 45.77 128.4 128.4 0 0 1-56.316 46.375A127.4 127.4 0 0 1 153.8 253.4 129 129 0 0 1 128 256m0-242.287a115 115 0 0 0-23.033 2.322A113.7 113.7 0 0 0 64.1 33.232a114.6 114.6 0 0 0-41.4 50.283 113.7 113.7 0 0 0-6.659 21.452 115.4 115.4 0 0 0 0 46.065 113.7 113.7 0 0 0 17.2 40.866 114.63 114.63 0 0 0 50.282 41.407 113.8 113.8 0 0 0 21.453 6.658 115.4 115.4 0 0 0 46.065 0 113.6 113.6 0 0 0 40.866-17.2 114.6 114.6 0 0 0 41.393-50.278 113.7 113.7 0 0 0 6.659-21.453 115.4 115.4 0 0 0 0-46.065 113.7 113.7 0 0 0-17.2-40.865A114.6 114.6 0 0 0 172.485 22.7a113.7 113.7 0 0 0-21.453-6.659A115 115 0 0 0 128 13.714Z" style="fill:url(#a)" transform="matrix(.1875 0 0 .1875 0 0)"/><svg xmlns="http://www.w3.org/2000/svg" width="30" height="30" x="9" y="9" fill="none" viewBox="0 0 1503 1504"><path fill="#fff" d="M287 258h928v844H287z"/><path fill="#E84142" fill-rule="evenodd" d="M1502.5 752c0 414.77-336.23 751-751 751-414.766 0-751-336.23-751-751C.5 337.234 336.734 1 751.5 1c414.77 0 751 336.234 751 751m-963.812 298.86H392.94c-30.626 0-45.754 0-54.978-5.9-9.963-6.46-16.051-17.16-16.789-28.97-.554-10.88 7.011-24.168 22.139-50.735l359.87-634.32c15.313-26.936 23.061-40.404 32.839-45.385 10.516-5.35 23.062-5.35 33.578 0 9.778 4.981 17.527 18.449 32.839 45.385l73.982 129.144.377.659c16.539 28.897 24.926 43.551 28.588 58.931a109.56 109.56 0 0 1 0 51.289c-3.69 15.497-11.992 30.257-28.781 59.591L687.573 964.702l-.489.856c-16.648 29.135-25.085 43.902-36.778 55.042-12.73 12.18-28.043 21.03-44.832 26.02-15.313 4.24-32.47 4.24-66.786 4.24m368.062 0h208.84c30.81 0 46.31 0 55.54-6.08 9.96-6.46 16.23-17.35 16.79-29.15.53-10.53-6.87-23.3-21.37-48.323-.5-.852-1-1.719-1.51-2.601L1060.43 785.75l-1.19-2.015c-14.7-24.858-22.12-37.411-31.65-42.263a36.73 36.73 0 0 0-33.391 0c-9.594 4.981-17.342 18.08-32.655 44.462L857.306 964.891l-.357.616c-15.259 26.34-22.885 39.503-22.335 50.303.738 11.81 6.826 22.69 16.788 29.15 9.041 5.9 24.538 5.9 55.348 5.9" clip-rule="evenodd"/></svg></svg>