<svg xmlns="http://www.w3.org/2000/svg" width="48" height="48" fill="none" viewBox="0 0 48 48"><g clip-path="url(#a)"><path fill="url(#b)" d="M24 48a23.87 23.87 0 0 1-13.42-4.099 24.07 24.07 0 0 1-8.695-10.559 24 24 0 0 1-1.397-4.504 24.2 24.2 0 0 1 0-9.674 23.9 23.9 0 0 1 3.61-8.582 24.07 24.07 0 0 1 10.56-8.696A24 24 0 0 1 19.163.488c3.191-.65 6.481-.65 9.673 0a23.9 23.9 0 0 1 8.582 3.61 24.07 24.07 0 0 1 8.695 10.56 24 24 0 0 1 1.4 4.505c.65 3.191.65 6.481 0 9.673a23.9 23.9 0 0 1-3.612 8.582 24.07 24.07 0 0 1-10.559 8.695A23.9 23.9 0 0 1 24 48m0-45.429c-1.45 0-2.897.146-4.319.436A21.3 21.3 0 0 0 12.02 6.23a21.5 21.5 0 0 0-7.763 9.428 21.3 21.3 0 0 0-1.248 4.022c-.58 2.85-.58 5.788 0 8.638a21.3 21.3 0 0 0 3.225 7.662 21.5 21.5 0 0 0 9.428 7.764c1.296.547 2.643.966 4.022 1.248 2.85.58 5.787.58 8.637 0a21.3 21.3 0 0 0 7.663-3.225 21.5 21.5 0 0 0 7.76-9.427 21.3 21.3 0 0 0 1.25-4.023c.58-2.85.58-5.787 0-8.637a21.3 21.3 0 0 0-3.226-7.662 21.5 21.5 0 0 0-9.426-7.763 21.3 21.3 0 0 0-4.023-1.248A21.6 21.6 0 0 0 24 2.57"/></g><g clip-path="url(#c)"><svg xmlns="http://www.w3.org/2000/svg" width="48" height="48" viewBox="0 0 46 46"><path fill="#fff" stroke="#383D51" stroke-width="48" d="M45.75 23c0 12.565-10.185 22.75-22.75 22.75S.25 35.565.25 23 10.435.25 23 .25 45.75 10.435 45.75 23Z"/><path fill="#000" fill-rule="evenodd" d="M29.175 25.718c5.36.785 9.098 2.562 9.098 4.628 0 2.794-6.838 5.059-15.273 5.059S7.727 33.141 7.727 30.346c0-2.066 3.739-3.843 9.098-4.628a31.6 31.6 0 0 0 6.175.58 32 32 0 0 0 6.036-.552l.14-.028Zm-2.301-8.45c4.864.536 8.372 2.053 8.372 3.84 0 2.235-5.483 4.047-12.246 4.047s-12.246-1.812-12.246-4.047c0-1.787 3.508-3.304 8.372-3.84a24.4 24.4 0 0 0 3.874.3 24.6 24.6 0 0 0 3.748-.28z" clip-rule="evenodd"/><path fill="#000" d="M23 16.672c5.017 0 9.084-1.359 9.084-3.035S28.017 10.602 23 10.602s-9.084 1.358-9.084 3.035c0 1.676 4.067 3.035 9.084 3.035"/></svg></g><defs><clipPath id="c"><circle cx="24" cy="24" r="20"/></clipPath><clipPath id="a"><path fill="#fff" d="M0 0h48v48H0z"/></clipPath><linearGradient id="b" x1="40.464" x2="9.888" y1="6.48" y2="42.528" gradientUnits="userSpaceOnUse"><stop stop-color="#B6509E"/><stop offset="1" stop-color="#2EBAC6"/></linearGradient></defs></svg>