<svg xmlns="http://www.w3.org/2000/svg" width="48" height="48" fill="none" viewBox="0 0 48 48"><g clip-path="url(#a)"><path fill="url(#b)" d="M24 48a23.87 23.87 0 0 1-13.42-4.099 24.07 24.07 0 0 1-8.695-10.559 24 24 0 0 1-1.397-4.504 24.2 24.2 0 0 1 0-9.674 23.9 23.9 0 0 1 3.61-8.582 24.07 24.07 0 0 1 10.56-8.696A24 24 0 0 1 19.163.488c3.191-.65 6.481-.65 9.673 0a23.9 23.9 0 0 1 8.582 3.61 24.07 24.07 0 0 1 8.695 10.56 24 24 0 0 1 1.4 4.505c.65 3.191.65 6.481 0 9.673a23.9 23.9 0 0 1-3.612 8.582 24.07 24.07 0 0 1-10.559 8.695A23.9 23.9 0 0 1 24 48m0-45.429c-1.45 0-2.897.146-4.319.436A21.3 21.3 0 0 0 12.02 6.23a21.5 21.5 0 0 0-7.763 9.428 21.3 21.3 0 0 0-1.248 4.022c-.58 2.85-.58 5.788 0 8.638a21.3 21.3 0 0 0 3.225 7.662 21.5 21.5 0 0 0 9.428 7.764c1.296.547 2.643.966 4.022 1.248 2.85.58 5.787.58 8.637 0a21.3 21.3 0 0 0 7.663-3.225 21.5 21.5 0 0 0 7.76-9.427 21.3 21.3 0 0 0 1.25-4.023c.58-2.85.58-5.787 0-8.637a21.3 21.3 0 0 0-3.226-7.662 21.5 21.5 0 0 0-9.426-7.763 21.3 21.3 0 0 0-4.023-1.248A21.6 21.6 0 0 0 24 2.57"/></g><g clip-path="url(#c)"><svg xmlns="http://www.w3.org/2000/svg" width="48" height="48" viewBox="0 0 48 48"><g clip-path="url(#d)"><g clip-path="url(#e)"><path fill="#1E1E1E" fill-rule="evenodd" d="M24 0c13.253 0 24 10.747 24 24S37.253 48 24 48 0 37.253 0 24 10.747 0 24 0" clip-rule="evenodd"/><path fill="#fff" d="M24.36 34.032c-7.675 0-13.896-2.218-13.896-5.189 0-1.55 1.694-2.947 4.406-3.931 2.117 1.358 5.67 2.054 9.696 2.054 3.932 0 7.407-.85 9.543-2.15 2.558.974 4.147 2.333 4.147 3.83 0 2.976-6.22 5.386-13.896 5.386"/><path fill="#fff" d="M24.442 26.3c-5.818 0-10.536-1.825-10.536-4.076 0-1.248 1.454-2.366 3.734-3.11 1.627.85 4.066 1.392 6.802 1.392s5.174-.543 6.801-1.392c2.285.748 3.735 1.862 3.735 3.11.004 2.251-4.714 4.075-10.536 4.075"/><path fill="#fff" d="M24.403 19.829c-4.497 0-8.145-1.507-8.145-3.36s3.648-3.36 8.145-3.36c4.498 0 8.146 1.507 8.146 3.36s-3.648 3.36-8.146 3.36"/></g></g><defs><clipPath id="d"><path fill="#fff" d="M0 0h48v48H0z"/></clipPath><clipPath id="e"><path fill="#fff" d="M0 0h48v48H0z"/></clipPath></defs></svg></g><defs><clipPath id="c"><circle cx="24" cy="24" r="20"/></clipPath><clipPath id="a"><path fill="#fff" d="M0 0h48v48H0z"/></clipPath><linearGradient id="b" x1="40.464" x2="9.888" y1="6.48" y2="42.528" gradientUnits="userSpaceOnUse"><stop stop-color="#B6509E"/><stop offset="1" stop-color="#2EBAC6"/></linearGradient></defs></svg>