<svg xmlns="http://www.w3.org/2000/svg" width="48" height="48" viewBox="0 0 48 48"><defs><linearGradient id="a" x1="215.808" x2="52.736" y1="34.56" y2="226.816" gradientUnits="userSpaceOnUse"><stop offset="0" stop-color="#b6509e"/><stop offset="1" stop-color="#2ebac6"/></linearGradient></defs><path fill="url(#a)" d="M128 256a129 129 0 0 1-25.8-2.6 127.3 127.3 0 0 1-45.77-19.261 128.37 128.37 0 0 1-46.375-56.315A127.4 127.4 0 0 1 2.6 153.8a129.25 129.25 0 0 1 0-51.593 127.3 127.3 0 0 1 19.26-45.77 128.37 128.37 0 0 1 56.317-46.378A127.3 127.3 0 0 1 102.2 2.6a129.2 129.2 0 0 1 51.593 0 127.3 127.3 0 0 1 45.77 19.26 128.37 128.37 0 0 1 46.375 56.316A127.3 127.3 0 0 1 253.4 102.2a129.25 129.25 0 0 1 0 51.593 127.3 127.3 0 0 1-19.26 45.77 128.4 128.4 0 0 1-56.316 46.375A127.4 127.4 0 0 1 153.8 253.4 129 129 0 0 1 128 256m0-242.287a115 115 0 0 0-23.033 2.322A113.7 113.7 0 0 0 64.1 33.232a114.6 114.6 0 0 0-41.4 50.283 113.7 113.7 0 0 0-6.659 21.452 115.4 115.4 0 0 0 0 46.065 113.7 113.7 0 0 0 17.2 40.866 114.63 114.63 0 0 0 50.282 41.407 113.8 113.8 0 0 0 21.453 6.658 115.4 115.4 0 0 0 46.065 0 113.6 113.6 0 0 0 40.866-17.2 114.6 114.6 0 0 0 41.393-50.278 113.7 113.7 0 0 0 6.659-21.453 115.4 115.4 0 0 0 0-46.065 113.7 113.7 0 0 0-17.2-40.865A114.6 114.6 0 0 0 172.485 22.7a113.7 113.7 0 0 0-21.453-6.659A115 115 0 0 0 128 13.714Z" style="fill:url(#a)" transform="matrix(.17969 0 0 .17969 1 1)"/><svg xmlns="http://www.w3.org/2000/svg" width="40" height="40" x="4" y="4" fill="none" viewBox="0 0 46 46"><path fill="#fff" stroke="#383D51" stroke-width=".5" d="M45.75 23c0 12.565-10.185 22.75-22.75 22.75S.25 35.565.25 23 10.435.25 23 .25 45.75 10.435 45.75 23Z"/><path fill="#000" fill-rule="evenodd" d="M29.175 25.718c5.36.785 9.098 2.562 9.098 4.628 0 2.794-6.838 5.059-15.273 5.059S7.727 33.141 7.727 30.346c0-2.066 3.739-3.843 9.098-4.628a31.6 31.6 0 0 0 6.175.58 32 32 0 0 0 6.036-.552l.14-.028Zm-2.301-8.45c4.864.536 8.372 2.053 8.372 3.84 0 2.235-5.483 4.047-12.246 4.047s-12.246-1.812-12.246-4.047c0-1.787 3.508-3.304 8.372-3.84a24.4 24.4 0 0 0 3.874.3 24.6 24.6 0 0 0 3.748-.28z" clip-rule="evenodd"/><path fill="#000" d="M23 16.672c5.017 0 9.084-1.359 9.084-3.035S28.017 10.602 23 10.602s-9.084 1.358-9.084 3.035c0 1.676 4.067 3.035 9.084 3.035"/></svg></svg>