<svg width="48" height="48" viewBox="0 0 48 48"><defs><linearGradient id="a" x1="215.808" x2="52.736" y1="34.56" y2="226.816" gradientUnits="userSpaceOnUse"><stop offset="0" stop-color="#b6509e"/><stop offset="1" stop-color="#2ebac6"/></linearGradient></defs><path fill="url(#a)" d="M128 256a129 129 0 0 1-25.8-2.6 127.3 127.3 0 0 1-45.77-19.261 128.37 128.37 0 0 1-46.375-56.315A127.4 127.4 0 0 1 2.6 153.8a129.25 129.25 0 0 1 0-51.593 127.3 127.3 0 0 1 19.26-45.77 128.37 128.37 0 0 1 56.317-46.378A127.3 127.3 0 0 1 102.2 2.6a129.2 129.2 0 0 1 51.593 0 127.3 127.3 0 0 1 45.77 19.26 128.37 128.37 0 0 1 46.375 56.316A127.3 127.3 0 0 1 253.4 102.2a129.25 129.25 0 0 1 0 51.593 127.3 127.3 0 0 1-19.26 45.77 128.4 128.4 0 0 1-56.316 46.375A127.4 127.4 0 0 1 153.8 253.4 129 129 0 0 1 128 256m0-242.287a115 115 0 0 0-23.033 2.322A113.7 113.7 0 0 0 64.1 33.232a114.6 114.6 0 0 0-41.4 50.283 113.7 113.7 0 0 0-6.659 21.452 115.4 115.4 0 0 0 0 46.065 113.7 113.7 0 0 0 17.2 40.866 114.63 114.63 0 0 0 50.282 41.407 113.8 113.8 0 0 0 21.453 6.658 115.4 115.4 0 0 0 46.065 0 113.6 113.6 0 0 0 40.866-17.2 114.6 114.6 0 0 0 41.393-50.278 113.7 113.7 0 0 0 6.659-21.453 115.4 115.4 0 0 0 0-46.065 113.7 113.7 0 0 0-17.2-40.865A114.6 114.6 0 0 0 172.485 22.7a113.7 113.7 0 0 0-21.453-6.659A115 115 0 0 0 128 13.714Z" style="fill:url(#a)" transform="matrix(.1875 0 0 .1875 0 0)"/><svg xmlns="http://www.w3.org/2000/svg" xml:space="preserve" width="30" height="30" x="9" y="9" viewBox="0 0 2496 2496"><path d="M1248 0c689.3 0 1248 558.7 1248 1248s-558.7 1248-1248 1248S0 1937.3 0 1248 558.7 0 1248 0" style="fill-rule:evenodd;clip-rule:evenodd;fill:#f0b90b"/><path d="m685.9 1248 .9 330 280.4 165v193.2l-444.5-260.7v-524zm0-330v192.3l-163.3-96.6V821.4l163.3-96.6L850 821.4zm398.4-96.6 163.3-96.6 164.1 96.6-164.1 96.6z" style="fill:#fff"/><path d="M803.9 1509.6v-193.2l163.3 96.6v192.3zm280.4 302.6 163.3 96.6 164.1-96.6v192.3l-164.1 96.6-163.3-96.6zm561.6-990.8 163.3-96.6 164.1 96.6v192.3l-164.1 96.6V918zm163.3 756.6.9-330 163.3-96.6v524l-444.5 260.7v-193.2z" style="fill:#fff"/><path d="m1692.1 1509.6-163.3 95.7V1413l163.3-96.6z" style="fill:#fff"/><path d="m1692.1 986.4.9 193.2-281.2 165v330.8l-163.3 95.7-163.3-95.7v-330.8l-281.2-165V986.4l164-96.6 279.5 165.8 281.2-165.8 164.1 96.6zM803.9 656.5l443.7-261.6 444.5 261.6-163.3 96.6-281.2-165.8-280.4 165.8z" style="fill:#fff"/></svg></svg>