<svg xmlns="http://www.w3.org/2000/svg" width="48" height="48" fill="none" viewBox="0 0 48 48"><g clip-path="url(#a)"><path fill="url(#b)" d="M24 48a23.87 23.87 0 0 1-13.42-4.099 24.07 24.07 0 0 1-8.695-10.559 24 24 0 0 1-1.397-4.504 24.2 24.2 0 0 1 0-9.674 23.9 23.9 0 0 1 3.61-8.582 24.07 24.07 0 0 1 10.56-8.696A24 24 0 0 1 19.163.488c3.191-.65 6.481-.65 9.673 0a23.9 23.9 0 0 1 8.582 3.61 24.07 24.07 0 0 1 8.695 10.56 24 24 0 0 1 1.4 4.505c.65 3.191.65 6.481 0 9.673a23.9 23.9 0 0 1-3.612 8.582 24.07 24.07 0 0 1-10.559 8.695A23.9 23.9 0 0 1 24 48m0-45.429c-1.45 0-2.897.146-4.319.436A21.3 21.3 0 0 0 12.02 6.23a21.5 21.5 0 0 0-7.763 9.428 21.3 21.3 0 0 0-1.248 4.022c-.58 2.85-.58 5.788 0 8.638a21.3 21.3 0 0 0 3.225 7.662 21.5 21.5 0 0 0 9.428 7.764c1.296.547 2.643.966 4.022 1.248 2.85.58 5.787.58 8.637 0a21.3 21.3 0 0 0 7.663-3.225 21.5 21.5 0 0 0 7.76-9.427 21.3 21.3 0 0 0 1.25-4.023c.58-2.85.58-5.787 0-8.637a21.3 21.3 0 0 0-3.226-7.662 21.5 21.5 0 0 0-9.426-7.763 21.3 21.3 0 0 0-4.023-1.248A21.6 21.6 0 0 0 24 2.57"/></g><g clip-path="url(#c)"><svg xmlns="http://www.w3.org/2000/svg" xml:space="preserve" width="48" height="48" viewBox="0 0 2496 2496"><path d="M1248 0c689.3 0 1248 558.7 1248 1248s-558.7 1248-1248 1248S0 1937.3 0 1248 558.7 0 1248 0" style="fill-rule:evenodd;clip-rule:evenodd;fill:#f0b90b"/><path d="m685.9 1248 .9 330 280.4 165v193.2l-444.5-260.7v-524zm0-330v192.3l-163.3-96.6V821.4l163.3-96.6L850 821.4zm398.4-96.6 163.3-96.6 164.1 96.6-164.1 96.6z" style="fill:#fff"/><path d="M803.9 1509.6v-193.2l163.3 96.6v192.3zm280.4 302.6 163.3 96.6 164.1-96.6v192.3l-164.1 96.6-163.3-96.6zm561.6-990.8 163.3-96.6 164.1 96.6v192.3l-164.1 96.6V918zm163.3 756.6.9-330 163.3-96.6v524l-444.5 260.7v-193.2z" style="fill:#fff"/><path d="m1692.1 1509.6-163.3 95.7V1413l163.3-96.6z" style="fill:#fff"/><path d="m1692.1 986.4.9 193.2-281.2 165v330.8l-163.3 95.7-163.3-95.7v-330.8l-281.2-165V986.4l164-96.6 279.5 165.8 281.2-165.8 164.1 96.6zM803.9 656.5l443.7-261.6 444.5 261.6-163.3 96.6-281.2-165.8-280.4 165.8z" style="fill:#fff"/></svg></g><defs><clipPath id="c"><circle cx="24" cy="24" r="20"/></clipPath><clipPath id="a"><path fill="#fff" d="M0 0h48v48H0z"/></clipPath><linearGradient id="b" x1="40.464" x2="9.888" y1="6.48" y2="42.528" gradientUnits="userSpaceOnUse"><stop stop-color="#B6509E"/><stop offset="1" stop-color="#2EBAC6"/></linearGradient></defs></svg>