<svg xmlns="http://www.w3.org/2000/svg" width="48" height="48" fill="none" viewBox="0 0 48 48"><g clip-path="url(#a)"><path fill="url(#b)" d="M24 48a23.87 23.87 0 0 1-13.42-4.099 24.07 24.07 0 0 1-8.695-10.559 24 24 0 0 1-1.397-4.504 24.2 24.2 0 0 1 0-9.674 23.9 23.9 0 0 1 3.61-8.582 24.07 24.07 0 0 1 10.56-8.696A24 24 0 0 1 19.163.488c3.191-.65 6.481-.65 9.673 0a23.9 23.9 0 0 1 8.582 3.61 24.07 24.07 0 0 1 8.695 10.56 24 24 0 0 1 1.4 4.505c.65 3.191.65 6.481 0 9.673a23.9 23.9 0 0 1-3.612 8.582 24.07 24.07 0 0 1-10.559 8.695A23.9 23.9 0 0 1 24 48m0-45.429c-1.45 0-2.897.146-4.319.436A21.3 21.3 0 0 0 12.02 6.23a21.5 21.5 0 0 0-7.763 9.428 21.3 21.3 0 0 0-1.248 4.022c-.58 2.85-.58 5.788 0 8.638a21.3 21.3 0 0 0 3.225 7.662 21.5 21.5 0 0 0 9.428 7.764c1.296.547 2.643.966 4.022 1.248 2.85.58 5.787.58 8.637 0a21.3 21.3 0 0 0 7.663-3.225 21.5 21.5 0 0 0 7.76-9.427 21.3 21.3 0 0 0 1.25-4.023c.58-2.85.58-5.787 0-8.637a21.3 21.3 0 0 0-3.226-7.662 21.5 21.5 0 0 0-9.426-7.763 21.3 21.3 0 0 0-4.023-1.248A21.6 21.6 0 0 0 24 2.57"/></g><g clip-path="url(#c)"><svg xmlns="http://www.w3.org/2000/svg" width="48" height="48" viewBox="0 0 32 32"><path fill="#000" d="M16 32c8.837 0 16-7.163 16-16S24.837 0 16 0 0 7.163 0 16s7.163 16 16 16"/><path fill="#FFB500" d="m19.39 16.7.01 3.82.21-.13-.23.23-.01.01h-.01l-3.26 1.92v1.17l4.4-2.5-.05-5.08z"/><path fill="#FFB500" d="M20.59 16.02v.02l.05 5.18.99.46-.02-6.15-3.26-2.04-1.21.69 3.41 1.8s.03.03.03.04zm1-4.62v-1.18l-5.54-3.16v1.25zm-10.25-.53 4.57-2.56V7.06l-5.53 3.23.02 6.4.89-.65.02-5.1s.01-.04.03-.05zm10.2 10.92-.98-.45-4.5 2.56h-.16l.06-.03-3.43-1.93s-.03-.02-.03-.04c-.02-.03 0-.07.02-.08l1.14-.65 3.29-1.86-5.58-3.18-.91.67 4.42 2.43s.03.02.03.04c.01.03 0 .06-.02.08l-4.41 2.59L16 25.07l5.55-3.28z"/><path fill="#FFB500" d="M16.93 14.2s0-.07.02-.08l1.36-.78 3.21-1.82-5.55-3.09-4.45 2.49 1.1.49 3.33-1.9h.06l3.32 1.9c.02 0 .03.02.03.04.02.03 0 .07-.02.08l-4.41 2.59 4.39 2.47 1.04-.55-3.4-1.8s-.03-.02-.04-.04zm-.98 9.52v-1.15l-2.28-1.25-1 .56zm-5.54-3.15v1.26l4.3-2.52-1.05-.58z"/><path fill="#FFB500" d="m14.88 12.8-.01 1.19 4.3-2.52-.94-.54zM17 17.99l-4.39-2.42s-.02-.02-.03-.04v-.02l-.01-3.98-1.13-.5-.02 4.99L17 19.21z"/></svg></g><defs><clipPath id="c"><circle cx="24" cy="24" r="20"/></clipPath><clipPath id="a"><path fill="#fff" d="M0 0h48v48H0z"/></clipPath><linearGradient id="b" x1="40.464" x2="9.888" y1="6.48" y2="42.528" gradientUnits="userSpaceOnUse"><stop stop-color="#B6509E"/><stop offset="1" stop-color="#2EBAC6"/></linearGradient></defs></svg>