<svg xmlns="http://www.w3.org/2000/svg" id="Group_30952" width="48" height="48" version="1.1" viewBox="0 0 48 48"><defs id="defs10"><linearGradient id="linear-gradient" x1="215.808" x2="52.736" y1="34.56" y2="226.816" gradientUnits="userSpaceOnUse"><stop id="stop2" offset="0" stop-color="#b6509e"/><stop id="stop4" offset="1" stop-color="#2ebac6"/></linearGradient><linearGradient id="linear-gradient-2" x1=".907" x2=".163" y1=".227" y2=".853"/></defs><g id="Group_29109" transform="matrix(.17969 0 0 .17969 1 1)"><path id="Subtraction_108" fill="url(#linear-gradient)" d="M128 256a129 129 0 0 1-25.8-2.6 127.3 127.3 0 0 1-45.77-19.261 128.37 128.37 0 0 1-46.375-56.315A127.4 127.4 0 0 1 2.6 153.8a129.25 129.25 0 0 1 0-51.593 127.3 127.3 0 0 1 19.26-45.77 128.37 128.37 0 0 1 56.317-46.378A127.3 127.3 0 0 1 102.2 2.6a129.2 129.2 0 0 1 51.593 0 127.3 127.3 0 0 1 45.77 19.26 128.37 128.37 0 0 1 46.375 56.316A127.3 127.3 0 0 1 253.4 102.2a129.25 129.25 0 0 1 0 51.593 127.3 127.3 0 0 1-19.26 45.77 128.4 128.4 0 0 1-56.316 46.375A127.4 127.4 0 0 1 153.8 253.4 129 129 0 0 1 128 256m0-242.287a115 115 0 0 0-23.033 2.322A113.7 113.7 0 0 0 64.1 33.232a114.6 114.6 0 0 0-41.4 50.283 113.7 113.7 0 0 0-6.659 21.452 115.4 115.4 0 0 0 0 46.065 113.7 113.7 0 0 0 17.2 40.866 114.63 114.63 0 0 0 50.282 41.407 113.8 113.8 0 0 0 21.453 6.658 115.4 115.4 0 0 0 46.065 0 113.6 113.6 0 0 0 40.866-17.2 114.6 114.6 0 0 0 41.393-50.278 113.7 113.7 0 0 0 6.659-21.453 115.4 115.4 0 0 0 0-46.065 113.7 113.7 0 0 0-17.2-40.865A114.6 114.6 0 0 0 172.485 22.7a113.7 113.7 0 0 0-21.453-6.659A115 115 0 0 0 128 13.714Z" style="fill:url(#linear-gradient)"/></g><svg xmlns="http://www.w3.org/2000/svg" id="g1" width="40" height="40" x="4" y="4" viewBox="0 0 500 500"><defs><linearGradient id="a" x1=".888" x2=".5" y1=".199" y2="1" gradientUnits="objectBoundingBox"><stop offset="0" stop-color="#b6509e"/><stop offset="1" stop-color="#2ebac6"/></linearGradient><linearGradient id="b" x1=".907" x2=".163" y1=".227" y2=".853" gradientUnits="objectBoundingBox"><stop offset="0" stop-color="#b6509e"/><stop offset="1" stop-color="#2ebac6"/></linearGradient><style>.a{fill:#fff}.e{fill:#959190}</style></defs><g transform="translate(-16032 -3347)"><circle cx="250" cy="250" r="250" class="a" transform="translate(16032 3347)"/><path d="M16281.688 3847v-360.4c-30.256-.1-54.688-8.329-54.688-18.463 0-7.542 13.53-14.028 32.922-16.9a113.4 113.4 0 0 0 22.345 2.121 114 114 0 0 0 21.843-2.02l.5-.1c19.391 2.867 32.922 9.354 32.922 16.9 0 10.046-24 18.219-53.895 18.462V3847zm-43.64-412.1c0-6.526 12.663-12.064 30.227-14.019a87 87 0 0 0 13.988 1.093 87.6 87.6 0 0 0 13.537-1.025l.454-.073c17.56 1.956 30.223 7.494 30.223 14.024 0 8.159-19.8 14.774-44.214 14.774s-44.215-6.619-44.215-14.774m11.052-26.966c0-6.119 14.846-11.08 33.161-11.08s33.16 4.961 33.16 11.08-14.848 11.08-33.162 11.08-33.159-4.96-33.159-11.08m32.588-12.106V3347h1.953v48.828z"/><path fill="url(#a)" d="M250 500a252 252 0 0 1-50.384-5.079 248.6 248.6 0 0 1-89.393-37.621 250.73 250.73 0 0 1-90.577-109.989 248.7 248.7 0 0 1-14.567-46.928 252.4 252.4 0 0 1 0-100.767A248.6 248.6 0 0 1 42.7 110.223a250.73 250.73 0 0 1 109.989-90.577 248.7 248.7 0 0 1 46.927-14.567 252.4 252.4 0 0 1 100.767 0A248.6 248.6 0 0 1 389.777 42.7a250.73 250.73 0 0 1 90.576 109.993 248.7 248.7 0 0 1 14.567 46.927 252.4 252.4 0 0 1 0 100.767 248.6 248.6 0 0 1-37.62 89.39 250.73 250.73 0 0 1-109.993 90.576 248.7 248.7 0 0 1-46.928 14.567A252 252 0 0 1 250 500m0-480.468a232 232 0 0 0-46.447 4.682 229.2 229.2 0 0 0-82.41 34.678 231.15 231.15 0 0 0-83.5 101.4 229.3 229.3 0 0 0-13.429 43.261 232.7 232.7 0 0 0 0 92.895 229.2 229.2 0 0 0 34.678 82.41 231.14 231.14 0 0 0 101.4 83.5 229.3 229.3 0 0 0 43.261 13.429 232.7 232.7 0 0 0 92.895 0 229.2 229.2 0 0 0 82.41-34.678 231.14 231.14 0 0 0 83.5-101.4 229.3 229.3 0 0 0 13.429-43.261 232.7 232.7 0 0 0 0-92.895 229.2 229.2 0 0 0-34.678-82.41 231.14 231.14 0 0 0-101.4-83.5 229.3 229.3 0 0 0-43.261-13.429A232 232 0 0 0 250 19.531z" transform="translate(16032 3347)"/><path fill="#3b3735" d="M16393.681 3673.598v38.628l47.742-67.273zm46.006-41.223-46.006-76.388v55.555z"/><path fill="#1f1d19" d="M16393.681 3615.87v47.308l45.572-26.475z"/><path d="m16343.34 3632.375 46.006-76.388v55.555z" class="e"/><path fill="#403c3a" d="M16389.343 3615.87v47.308l-45.572-26.475z"/><path d="M16389.331 3673.598v38.628l-47.742-67.273z" class="e"/><g transform="translate(16088.5 3555.984)"><circle cx="78.125" cy="78.125" r="78.125" fill="url(#b)"/><path d="m112.312 109.25-26.42-63.861c-1.5-3.299-3.705-4.917-6.627-4.917h-2.337c-2.922 0-5.129 1.618-6.622 4.917L58.814 73.211h-8.7a4.76 4.76 0 0 0-4.739 4.723v.065a4.76 4.76 0 0 0 4.739 4.723h4.678L43.817 109.25a5.6 5.6 0 0 0-.325 1.812 5 5 0 0 0 1.3 3.559 4.56 4.56 0 0 0 3.5 1.358 4.75 4.75 0 0 0 2.731-.907 5.76 5.76 0 0 0 1.883-2.394l12.076-29.956h8.375a4.76 4.76 0 0 0 4.735-4.723v-.127a4.76 4.76 0 0 0-4.739-4.723h-4.48l9.219-22.972 25.126 62.5a5.76 5.76 0 0 0 1.887 2.395 4.75 4.75 0 0 0 2.727.906 4.56 4.56 0 0 0 3.506-1.359 5 5 0 0 0 1.3-3.559 4.3 4.3 0 0 0-.326-1.81" class="a"/></g></g></svg></svg>