<svg width="48" height="48" viewBox="0 0 48 48"><defs><linearGradient id="a" x1="215.808" x2="52.736" y1="34.56" y2="226.816" gradientUnits="userSpaceOnUse"><stop offset="0" stop-color="#b6509e"/><stop offset="1" stop-color="#2ebac6"/></linearGradient></defs><path fill="url(#a)" d="M128 256a129 129 0 0 1-25.8-2.6 127.3 127.3 0 0 1-45.77-19.261 128.37 128.37 0 0 1-46.375-56.315A127.4 127.4 0 0 1 2.6 153.8a129.25 129.25 0 0 1 0-51.593 127.3 127.3 0 0 1 19.26-45.77 128.37 128.37 0 0 1 56.317-46.378A127.3 127.3 0 0 1 102.2 2.6a129.2 129.2 0 0 1 51.593 0 127.3 127.3 0 0 1 45.77 19.26 128.37 128.37 0 0 1 46.375 56.316A127.3 127.3 0 0 1 253.4 102.2a129.25 129.25 0 0 1 0 51.593 127.3 127.3 0 0 1-19.26 45.77 128.4 128.4 0 0 1-56.316 46.375A127.4 127.4 0 0 1 153.8 253.4 129 129 0 0 1 128 256m0-242.287a115 115 0 0 0-23.033 2.322A113.7 113.7 0 0 0 64.1 33.232a114.6 114.6 0 0 0-41.4 50.283 113.7 113.7 0 0 0-6.659 21.452 115.4 115.4 0 0 0 0 46.065 113.7 113.7 0 0 0 17.2 40.866 114.63 114.63 0 0 0 50.282 41.407 113.8 113.8 0 0 0 21.453 6.658 115.4 115.4 0 0 0 46.065 0 113.6 113.6 0 0 0 40.866-17.2 114.6 114.6 0 0 0 41.393-50.278 113.7 113.7 0 0 0 6.659-21.453 115.4 115.4 0 0 0 0-46.065 113.7 113.7 0 0 0-17.2-40.865A114.6 114.6 0 0 0 172.485 22.7a113.7 113.7 0 0 0-21.453-6.659A115 115 0 0 0 128 13.714Z" style="fill:url(#a)" transform="matrix(.1875 0 0 .1875 0 0)"/><svg xmlns="http://www.w3.org/2000/svg" width="30" height="30" x="9" y="9" fill="none" viewBox="0 0 256 256"><path fill="#F7931A" d="M252.139 158.965c-17.096 68.571-86.547 110.303-155.126 93.203C28.46 235.072-13.27 165.617 3.833 97.049 20.923 28.47 90.374-13.266 158.933 3.83c68.576 17.096 110.303 86.56 93.207 155.135Z"/><path fill="#fff" d="M184.4 109.765c2.548-17.031-10.42-26.187-28.152-32.295L162 54.398l-14.044-3.5-5.6 22.464c-3.692-.92-7.484-1.788-11.252-2.648l5.64-22.612-14.036-3.5-5.756 23.064c-3.056-.696-6.056-1.384-8.968-2.108l.016-.072-19.367-4.836-3.736 15s10.42 2.388 10.2 2.536c5.687 1.42 6.715 5.184 6.543 8.168l-6.552 26.283c.393.1.9.244 1.46.468-.468-.116-.968-.244-1.484-.368l-9.183 36.82c-.696 1.728-2.46 4.32-6.436 3.336.14.204-10.208-2.548-10.208-2.548l-6.972 16.076 18.276 4.556c3.4.852 6.732 1.744 10.012 2.584l-5.812 23.335 14.028 3.5 5.755-23.087c3.832 1.04 7.552 2 11.192 2.904l-5.736 22.979 14.044 3.5 5.812-23.291c23.948 4.532 41.956 2.704 49.536-18.956 6.108-17.44-.304-27.5-12.904-34.06 9.176-2.116 16.088-8.152 17.932-20.62m-32.088 44.996c-4.34 17.44-33.704 8.012-43.224 5.648l7.712-30.916c9.52 2.376 40.048 7.08 35.512 25.268m4.344-45.248c-3.96 15.864-28.4 7.804-36.328 5.828l6.992-28.04c7.928 1.977 33.46 5.665 29.336 22.212"/></svg></svg>