<svg xmlns="http://www.w3.org/2000/svg" width="48" height="48" fill="none" viewBox="0 0 48 48"><g clip-path="url(#a)"><path fill="url(#b)" d="M24 48a23.87 23.87 0 0 1-13.42-4.099 24.07 24.07 0 0 1-8.695-10.559 24 24 0 0 1-1.397-4.504 24.2 24.2 0 0 1 0-9.674 23.9 23.9 0 0 1 3.61-8.582 24.07 24.07 0 0 1 10.56-8.696A24 24 0 0 1 19.163.488c3.191-.65 6.481-.65 9.673 0a23.9 23.9 0 0 1 8.582 3.61 24.07 24.07 0 0 1 8.695 10.56 24 24 0 0 1 1.4 4.505c.65 3.191.65 6.481 0 9.673a23.9 23.9 0 0 1-3.612 8.582 24.07 24.07 0 0 1-10.559 8.695A23.9 23.9 0 0 1 24 48m0-45.429c-1.45 0-2.897.146-4.319.436A21.3 21.3 0 0 0 12.02 6.23a21.5 21.5 0 0 0-7.763 9.428 21.3 21.3 0 0 0-1.248 4.022c-.58 2.85-.58 5.788 0 8.638a21.3 21.3 0 0 0 3.225 7.662 21.5 21.5 0 0 0 9.428 7.764c1.296.547 2.643.966 4.022 1.248 2.85.58 5.787.58 8.637 0a21.3 21.3 0 0 0 7.663-3.225 21.5 21.5 0 0 0 7.76-9.427 21.3 21.3 0 0 0 1.25-4.023c.58-2.85.58-5.787 0-8.637a21.3 21.3 0 0 0-3.226-7.662 21.5 21.5 0 0 0-9.426-7.763 21.3 21.3 0 0 0-4.023-1.248A21.6 21.6 0 0 0 24 2.57"/></g><g clip-path="url(#c)"><svg xmlns="http://www.w3.org/2000/svg" width="48" height="48" viewBox="0 0 256 256"><path fill="#F7931A" d="M252.139 158.965c-17.096 68.571-86.547 110.303-155.126 93.203C28.46 235.072-13.27 165.617 3.833 97.049 20.923 28.47 90.374-13.266 158.933 3.83c68.576 17.096 110.303 86.56 93.207 155.135Z"/><path fill="#fff" d="M184.4 109.765c2.548-17.031-10.42-26.187-28.152-32.295L162 54.398l-14.044-3.5-5.6 22.464c-3.692-.92-7.484-1.788-11.252-2.648l5.64-22.612-14.036-3.5-5.756 23.064c-3.056-.696-6.056-1.384-8.968-2.108l.016-.072-19.367-4.836-3.736 15s10.42 2.388 10.2 2.536c5.687 1.42 6.715 5.184 6.543 8.168l-6.552 26.283c.393.1.9.244 1.46.468-.468-.116-.968-.244-1.484-.368l-9.183 36.82c-.696 1.728-2.46 4.32-6.436 3.336.14.204-10.208-2.548-10.208-2.548l-6.972 16.076 18.276 4.556c3.4.852 6.732 1.744 10.012 2.584l-5.812 23.335 14.028 3.5 5.755-23.087c3.832 1.04 7.552 2 11.192 2.904l-5.736 22.979 14.044 3.5 5.812-23.291c23.948 4.532 41.956 2.704 49.536-18.956 6.108-17.44-.304-27.5-12.904-34.06 9.176-2.116 16.088-8.152 17.932-20.62m-32.088 44.996c-4.34 17.44-33.704 8.012-43.224 5.648l7.712-30.916c9.52 2.376 40.048 7.08 35.512 25.268m4.344-45.248c-3.96 15.864-28.4 7.804-36.328 5.828l6.992-28.04c7.928 1.977 33.46 5.665 29.336 22.212"/></svg></g><defs><clipPath id="c"><circle cx="24" cy="24" r="20"/></clipPath><clipPath id="a"><path fill="#fff" d="M0 0h48v48H0z"/></clipPath><linearGradient id="b" x1="40.464" x2="9.888" y1="6.48" y2="42.528" gradientUnits="userSpaceOnUse"><stop stop-color="#B6509E"/><stop offset="1" stop-color="#2EBAC6"/></linearGradient></defs></svg>