<svg width="48" height="48" viewBox="0 0 48 48"><defs><linearGradient id="a" x1="215.808" x2="52.736" y1="34.56" y2="226.816" gradientUnits="userSpaceOnUse"><stop offset="0"/><stop offset="1"/></linearGradient></defs><path fill="url(#a)" d="M128 256a129 129 0 0 1-25.8-2.6 127.3 127.3 0 0 1-45.77-19.261 128.37 128.37 0 0 1-46.375-56.315A127.4 127.4 0 0 1 2.6 153.8a129.25 129.25 0 0 1 0-51.593 127.3 127.3 0 0 1 19.26-45.77 128.37 128.37 0 0 1 56.317-46.378A127.3 127.3 0 0 1 102.2 2.6a129.2 129.2 0 0 1 51.593 0 127.3 127.3 0 0 1 45.77 19.26 128.37 128.37 0 0 1 46.375 56.316A127.3 127.3 0 0 1 253.4 102.2a129.25 129.25 0 0 1 0 51.593 127.3 127.3 0 0 1-19.26 45.77 128.4 128.4 0 0 1-56.316 46.375A127.4 127.4 0 0 1 153.8 253.4 129 129 0 0 1 128 256m0-242.287a115 115 0 0 0-23.033 2.322A113.7 113.7 0 0 0 64.1 33.232a114.6 114.6 0 0 0-41.4 50.283 113.7 113.7 0 0 0-6.659 21.452 115.4 115.4 0 0 0 0 46.065 113.7 113.7 0 0 0 17.2 40.866 114.63 114.63 0 0 0 50.282 41.407 113.8 113.8 0 0 0 21.453 6.658 115.4 115.4 0 0 0 46.065 0 113.6 113.6 0 0 0 40.866-17.2 114.6 114.6 0 0 0 41.393-50.278 113.7 113.7 0 0 0 6.659-21.453 115.4 115.4 0 0 0 0-46.065 113.7 113.7 0 0 0-17.2-40.865A114.6 114.6 0 0 0 172.485 22.7a113.7 113.7 0 0 0-21.453-6.659A115 115 0 0 0 128 13.714Z" style="fill:url(#a)" transform="matrix(.1875 0 0 .1875 0 0)"/><svg xmlns="http://www.w3.org/2000/svg" width="30" height="30" x="9" y="9" fill="none" viewBox="0 0 96 96"><circle cx="48" cy="48" r="48" fill="url(#b)"/><path fill="#633001" fill-rule="evenodd" d="M47.858 79.875c-9.342-.007-16.866-2.249-22.124-6.275-5.321-4.075-8.144-9.857-8.144-16.4 0-6.304 2.817-10.85 6.004-13.923 2.497-2.408 5.253-3.95 7.172-4.838a100 100 0 0 1-1.46-4.876c-.648-2.41-1.284-5.237-1.284-7.309 0-2.452.535-4.915 1.977-6.829 1.523-2.021 3.816-3.104 6.574-3.104 2.156 0 3.986.8 5.42 2.179 1.369 1.318 2.28 3.07 2.91 4.895 1.106 3.208 1.537 7.238 1.657 11.26h2.643c.12-4.022.551-8.052 1.657-11.26.63-1.825 1.541-3.577 2.91-4.895 1.434-1.38 3.264-2.18 5.42-2.18 2.758 0 5.051 1.084 6.574 3.105 1.442 1.914 1.977 4.377 1.977 6.83 0 2.071-.636 4.898-1.284 7.308a100 100 0 0 1-1.46 4.876c1.919.888 4.675 2.43 7.172 4.838 3.187 3.073 6.004 7.619 6.004 13.923 0 6.543-2.823 12.325-8.144 16.4-5.257 4.026-12.782 6.268-22.124 6.275z" clip-rule="evenodd"/><path fill="#D1884F" d="M36.573 18.653c-4.04 0-5.9 3.045-5.9 7.256 0 3.347 2.16 10.05 3.048 12.66a1.177 1.177 0 0 1-.686 1.458c-3.238 1.29-12.794 6.012-12.794 16.828 0 11.393 9.711 19.983 27.619 19.997h.043c17.908-.014 27.619-8.604 27.619-19.997 0-10.816-9.556-15.539-12.794-16.828a1.176 1.176 0 0 1-.686-1.458c.887-2.61 3.048-9.313 3.048-12.66 0-4.211-1.86-7.256-5.9-7.256-5.816 0-7.266 8.322-7.37 17.254a1.084 1.084 0 0 1-1.074 1.08h-5.73c-.59 0-1.067-.484-1.074-1.08-.103-8.932-1.553-17.254-7.369-17.254"/><path fill="#FEDC90" d="M47.903 73.202c-13.158 0-27.64-7.115-27.662-16.326v.043c0 11.403 9.727 19.997 27.662 19.997s27.661-8.594 27.661-19.997v-.043c-.022 9.21-14.503 16.326-27.661 16.326"/><path fill="#633001" d="M40.592 54.047c0 3.11-1.455 4.73-3.25 4.73s-3.249-1.62-3.249-4.73 1.455-4.73 3.25-4.73 3.249 1.62 3.249 4.73m21.12 0c0 3.11-1.455 4.73-3.25 4.73s-3.248-1.62-3.248-4.73 1.454-4.73 3.249-4.73c1.794 0 3.25 1.62 3.25 4.73Z"/><defs><linearGradient id="b" x1="48" x2="48" y1="0" y2="96" gradientUnits="userSpaceOnUse"><stop stop-color="#53DEE9"/><stop offset="1" stop-color="#1FC7D4"/></linearGradient></defs></svg></svg>