<svg xmlns="http://www.w3.org/2000/svg" width="48" height="48" fill="none" viewBox="0 0 48 48"><g clip-path="url(#a)"><path fill="url(#b)" d="M24 48a23.87 23.87 0 0 1-13.42-4.099 24.07 24.07 0 0 1-8.695-10.559 24 24 0 0 1-1.397-4.504 24.2 24.2 0 0 1 0-9.674 23.9 23.9 0 0 1 3.61-8.582 24.07 24.07 0 0 1 10.56-8.696A24 24 0 0 1 19.163.488c3.191-.65 6.481-.65 9.673 0a23.9 23.9 0 0 1 8.582 3.61 24.07 24.07 0 0 1 8.695 10.56 24 24 0 0 1 1.4 4.505c.65 3.191.65 6.481 0 9.673a23.9 23.9 0 0 1-3.612 8.582 24.07 24.07 0 0 1-10.559 8.695A23.9 23.9 0 0 1 24 48m0-45.429c-1.45 0-2.897.146-4.319.436A21.3 21.3 0 0 0 12.02 6.23a21.5 21.5 0 0 0-7.763 9.428 21.3 21.3 0 0 0-1.248 4.022c-.58 2.85-.58 5.788 0 8.638a21.3 21.3 0 0 0 3.225 7.662 21.5 21.5 0 0 0 9.428 7.764c1.296.547 2.643.966 4.022 1.248 2.85.58 5.787.58 8.637 0a21.3 21.3 0 0 0 7.663-3.225 21.5 21.5 0 0 0 7.76-9.427 21.3 21.3 0 0 0 1.25-4.023c.58-2.85.58-5.787 0-8.637a21.3 21.3 0 0 0-3.226-7.662 21.5 21.5 0 0 0-9.426-7.763 21.3 21.3 0 0 0-4.023-1.248A21.6 21.6 0 0 0 24 2.57"/></g><g clip-path="url(#c)"><svg xmlns="http://www.w3.org/2000/svg" width="48" height="48" viewBox="0 0 96 96"><circle cx="48" cy="48" r="48" fill="url(#d)"/><path fill="#633001" fill-rule="evenodd" d="M47.858 79.875c-9.342-.007-16.866-2.249-22.124-6.275-5.321-4.075-8.144-9.857-8.144-16.4 0-6.304 2.817-10.85 6.004-13.923 2.497-2.408 5.253-3.95 7.172-4.838a100 100 0 0 1-1.46-4.876c-.648-2.41-1.284-5.237-1.284-7.309 0-2.452.535-4.915 1.977-6.829 1.523-2.021 3.816-3.104 6.574-3.104 2.156 0 3.986.8 5.42 2.179 1.369 1.318 2.28 3.07 2.91 4.895 1.106 3.208 1.537 7.238 1.657 11.26h2.643c.12-4.022.551-8.052 1.657-11.26.63-1.825 1.541-3.577 2.91-4.895 1.434-1.38 3.264-2.18 5.42-2.18 2.758 0 5.051 1.084 6.574 3.105 1.442 1.914 1.977 4.377 1.977 6.83 0 2.071-.636 4.898-1.284 7.308a100 100 0 0 1-1.46 4.876c1.919.888 4.675 2.43 7.172 4.838 3.187 3.073 6.004 7.619 6.004 13.923 0 6.543-2.823 12.325-8.144 16.4-5.257 4.026-12.782 6.268-22.124 6.275z" clip-rule="evenodd"/><path fill="#D1884F" d="M36.573 18.653c-4.04 0-5.9 3.045-5.9 7.256 0 3.347 2.16 10.05 3.048 12.66a1.177 1.177 0 0 1-.686 1.458c-3.238 1.29-12.794 6.012-12.794 16.828 0 11.393 9.711 19.983 27.619 19.997h.043c17.908-.014 27.619-8.604 27.619-19.997 0-10.816-9.556-15.539-12.794-16.828a1.176 1.176 0 0 1-.686-1.458c.887-2.61 3.048-9.313 3.048-12.66 0-4.211-1.86-7.256-5.9-7.256-5.816 0-7.266 8.322-7.37 17.254a1.084 1.084 0 0 1-1.074 1.08h-5.73c-.59 0-1.067-.484-1.074-1.08-.103-8.932-1.553-17.254-7.369-17.254"/><path fill="#FEDC90" d="M47.903 73.202c-13.158 0-27.64-7.115-27.662-16.326v.043c0 11.403 9.727 19.997 27.662 19.997s27.661-8.594 27.661-19.997v-.043c-.022 9.21-14.503 16.326-27.661 16.326"/><path fill="#633001" d="M40.592 54.047c0 3.11-1.455 4.73-3.25 4.73s-3.249-1.62-3.249-4.73 1.455-4.73 3.25-4.73 3.249 1.62 3.249 4.73m21.12 0c0 3.11-1.455 4.73-3.25 4.73s-3.248-1.62-3.248-4.73 1.454-4.73 3.249-4.73c1.794 0 3.25 1.62 3.25 4.73Z"/><defs><linearGradient id="d" x1="48" x2="48" y1="0" y2="96" gradientUnits="userSpaceOnUse"><stop stop-color="#53DEE9"/><stop offset="1" stop-color="#1FC7D4"/></linearGradient></defs></svg></g><defs><clipPath id="c"><circle cx="24" cy="24" r="20"/></clipPath><clipPath id="a"><path fill="#fff" d="M0 0h48v48H0z"/></clipPath><linearGradient id="b" x1="40.464" x2="9.888" y1="6.48" y2="42.528" gradientUnits="userSpaceOnUse"><stop stop-color="#B6509E"/><stop offset="1" stop-color="#2EBAC6"/></linearGradient></defs></svg>