<svg xmlns="http://www.w3.org/2000/svg" width="48" height="48" fill="none" viewBox="0 0 48 48"><g clip-path="url(#a)"><path fill="url(#b)" d="M24 48a23.87 23.87 0 0 1-13.42-4.099 24.07 24.07 0 0 1-8.695-10.559 24 24 0 0 1-1.397-4.504 24.2 24.2 0 0 1 0-9.674 23.9 23.9 0 0 1 3.61-8.582 24.07 24.07 0 0 1 10.56-8.696A24 24 0 0 1 19.163.488c3.191-.65 6.481-.65 9.673 0a23.9 23.9 0 0 1 8.582 3.61 24.07 24.07 0 0 1 8.695 10.56 24 24 0 0 1 1.4 4.505c.65 3.191.65 6.481 0 9.673a23.9 23.9 0 0 1-3.612 8.582 24.07 24.07 0 0 1-10.559 8.695A23.9 23.9 0 0 1 24 48m0-45.429c-1.45 0-2.897.146-4.319.436A21.3 21.3 0 0 0 12.02 6.23a21.5 21.5 0 0 0-7.763 9.428 21.3 21.3 0 0 0-1.248 4.022c-.58 2.85-.58 5.788 0 8.638a21.3 21.3 0 0 0 3.225 7.662 21.5 21.5 0 0 0 9.428 7.764c1.296.547 2.643.966 4.022 1.248 2.85.58 5.787.58 8.637 0a21.3 21.3 0 0 0 7.663-3.225 21.5 21.5 0 0 0 7.76-9.427 21.3 21.3 0 0 0 1.25-4.023c.58-2.85.58-5.787 0-8.637a21.3 21.3 0 0 0-3.226-7.662 21.5 21.5 0 0 0-9.426-7.763 21.3 21.3 0 0 0-4.023-1.248A21.6 21.6 0 0 0 24 2.57"/></g><g clip-path="url(#c)"><svg xmlns="http://www.w3.org/2000/svg" width="48" height="48" viewBox="0 0 256 256"><g clip-path="url(#d)"><path fill="#fff" d="M249.6 128C249.6 60.842 195.158 6.4 128 6.4S6.4 60.842 6.4 128 60.842 249.6 128 249.6 249.6 195.158 249.6 128"/><path fill="#0052FF" d="m128 38.4-54.097 91.376L128 104.653z"/><path fill="#6697FF" d="m128 162.061-54.097-32.4L128 104.653z"/><path fill="#0052FF" d="m127.995 172.663-54.092-32.41 54.092 77.347z"/><path fill="#6697FF" d="m128 38.4 54.095 91.376L128 104.653z"/><path fill="#CCDCFF" d="m128 162.061 54.095-32.285L128 104.653z"/><path fill="#6697FF" d="m128 172.663 54.095-31.824L128 217.6z"/><path fill="#0052FF" fill-rule="evenodd" d="M128 12.8C64.377 12.8 12.8 64.377 12.8 128S64.377 243.2 128 243.2 243.2 191.623 243.2 128 191.623 12.8 128 12.8M0 128C0 57.308 57.308 0 128 0s128 57.308 128 128-57.308 128-128 128S0 198.692 0 128" clip-rule="evenodd"/></g><defs><clipPath id="d"><path fill="#fff" d="M0 0h256v256H0z"/></clipPath></defs></svg></g><defs><clipPath id="c"><circle cx="24" cy="24" r="20"/></clipPath><clipPath id="a"><path fill="#fff" d="M0 0h48v48H0z"/></clipPath><linearGradient id="b" x1="40.464" x2="9.888" y1="6.48" y2="42.528" gradientUnits="userSpaceOnUse"><stop stop-color="#B6509E"/><stop offset="1" stop-color="#2EBAC6"/></linearGradient></defs></svg>