<svg xmlns="http://www.w3.org/2000/svg" width="48" height="48" fill="none" viewBox="0 0 48 48"><g clip-path="url(#a)"><path fill="url(#b)" d="M24 48a23.87 23.87 0 0 1-13.42-4.099 24.07 24.07 0 0 1-8.695-10.559 24 24 0 0 1-1.397-4.504 24.2 24.2 0 0 1 0-9.674 23.9 23.9 0 0 1 3.61-8.582 24.07 24.07 0 0 1 10.56-8.696A24 24 0 0 1 19.163.488c3.191-.65 6.481-.65 9.673 0a23.9 23.9 0 0 1 8.582 3.61 24.07 24.07 0 0 1 8.695 10.56 24 24 0 0 1 1.4 4.505c.65 3.191.65 6.481 0 9.673a23.9 23.9 0 0 1-3.612 8.582 24.07 24.07 0 0 1-10.559 8.695A23.9 23.9 0 0 1 24 48m0-45.429c-1.45 0-2.897.146-4.319.436A21.3 21.3 0 0 0 12.02 6.23a21.5 21.5 0 0 0-7.763 9.428 21.3 21.3 0 0 0-1.248 4.022c-.58 2.85-.58 5.788 0 8.638a21.3 21.3 0 0 0 3.225 7.662 21.5 21.5 0 0 0 9.428 7.764c1.296.547 2.643.966 4.022 1.248 2.85.58 5.787.58 8.637 0a21.3 21.3 0 0 0 7.663-3.225 21.5 21.5 0 0 0 7.76-9.427 21.3 21.3 0 0 0 1.25-4.023c.58-2.85.58-5.787 0-8.637a21.3 21.3 0 0 0-3.226-7.662 21.5 21.5 0 0 0-9.426-7.763 21.3 21.3 0 0 0-4.023-1.248A21.6 21.6 0 0 0 24 2.57"/></g><g clip-path="url(#c)"><svg xmlns="http://www.w3.org/2000/svg" width="48" height="48" viewBox="0 0 32 32"><defs><linearGradient id="d" x1="22.895" x2="4.045" y1="5.098" y2="34.55" gradientTransform="translate(4.646 3.261)scale(.6308)" gradientUnits="userSpaceOnUse"><stop stop-color="#1682FE"/><stop offset=".3" stop-color="#60D8A4"/><stop offset=".7" stop-color="#FCA75B"/><stop offset="1" stop-color="#FF5A5A"/></linearGradient></defs><circle cx="16" cy="16" r="16" style="fill:#fff"/><path fill="url(#d)" d="M25.188 13.502v-5h-2.5v-2.5h-4.999v-2.5h-5v2.5h-5v2.5h-2.5v14.999h2.5v2.5h5V28.5h4.999v-2.499h5v-2.5h2.5v-5h-4.999v2.5h-2.5v2.5h-5v-2.5h-2.498v-9.999h2.5v-2.5h4.999v2.5h2.5v2.5z"/><path fill="#1682FE" d="M17.689 8.376h1.741v2.625h-1.741zM12.685 3.5h1.741v2.625h-1.741z"/><path fill="#60D8A4" d="M7.687 6h1.741v2.625H7.687z"/><path fill="#F4BB3B" d="M5.186 16h1.759v7.499H5.186z"/><path fill="#60D8A4" d="M5.186 8.502h1.759v7.499H5.186z"/><path fill="#1682FE" d="M20.187 10.875h1.741V13.5h-1.741z"/><path fill="#FF5A5A" d="M20.186 18.5h1.741v2.625h-1.741zM17.689 21h1.741v2.625h-1.741zm-5.003 4.874h1.741v2.625h-1.741z"/><path fill="#F4BB3B" d="M7.686 23.375h1.741V26H7.686z"/><path fill="#3A3A3A" d="M26.814 13.5v-5h-2.501V6h-4.999V3.5h-5V6h-5v2.5H6.813v15h2.5V26h4.999v2.499h5V26h5.001v-2.5h2.501v-5h-5V21h-2.5v2.5h-5V21h-2.5V11h2.5V8.5h5V11h2.5v2.5z"/></svg></g><defs><clipPath id="c"><circle cx="24" cy="24" r="20"/></clipPath><clipPath id="a"><path fill="#fff" d="M0 0h48v48H0z"/></clipPath><linearGradient id="b" x1="40.464" x2="9.888" y1="6.48" y2="42.528" gradientUnits="userSpaceOnUse"><stop stop-color="#B6509E"/><stop offset="1" stop-color="#2EBAC6"/></linearGradient></defs></svg>