<svg xmlns="http://www.w3.org/2000/svg" width="48" height="48" viewBox="0 0 48 48"><defs><linearGradient id="a" x1="215.808" x2="52.736" y1="34.56" y2="226.816" gradientUnits="userSpaceOnUse"><stop offset="0" stop-color="#b6509e"/><stop offset="1" stop-color="#2ebac6"/></linearGradient></defs><path fill="url(#a)" d="M128 256a129 129 0 0 1-25.8-2.6 127.3 127.3 0 0 1-45.77-19.261 128.37 128.37 0 0 1-46.375-56.315A127.4 127.4 0 0 1 2.6 153.8a129.25 129.25 0 0 1 0-51.593 127.3 127.3 0 0 1 19.26-45.77 128.37 128.37 0 0 1 56.317-46.378A127.3 127.3 0 0 1 102.2 2.6a129.2 129.2 0 0 1 51.593 0 127.3 127.3 0 0 1 45.77 19.26 128.37 128.37 0 0 1 46.375 56.316A127.3 127.3 0 0 1 253.4 102.2a129.25 129.25 0 0 1 0 51.593 127.3 127.3 0 0 1-19.26 45.77 128.4 128.4 0 0 1-56.316 46.375A127.4 127.4 0 0 1 153.8 253.4 129 129 0 0 1 128 256m0-242.287a115 115 0 0 0-23.033 2.322A113.7 113.7 0 0 0 64.1 33.232a114.6 114.6 0 0 0-41.4 50.283 113.7 113.7 0 0 0-6.659 21.452 115.4 115.4 0 0 0 0 46.065 113.7 113.7 0 0 0 17.2 40.866 114.63 114.63 0 0 0 50.282 41.407 113.8 113.8 0 0 0 21.453 6.658 115.4 115.4 0 0 0 46.065 0 113.6 113.6 0 0 0 40.866-17.2 114.6 114.6 0 0 0 41.393-50.278 113.7 113.7 0 0 0 6.659-21.453 115.4 115.4 0 0 0 0-46.065 113.7 113.7 0 0 0-17.2-40.865A114.6 114.6 0 0 0 172.485 22.7a113.7 113.7 0 0 0-21.453-6.659A115 115 0 0 0 128 13.714Z" style="fill:url(#a)" transform="matrix(.17969 0 0 .17969 1 1)"/><svg xmlns="http://www.w3.org/2000/svg" width="40" height="40" x="4" y="4" viewBox="0 0 32 32"><defs><linearGradient id="b" x1="22.895" x2="4.045" y1="5.098" y2="34.55" gradientTransform="translate(4.646 3.261)scale(.6308)" gradientUnits="userSpaceOnUse"><stop stop-color="#1682FE"/><stop offset=".3" stop-color="#60D8A4"/><stop offset=".7" stop-color="#FCA75B"/><stop offset="1" stop-color="#FF5A5A"/></linearGradient></defs><circle cx="16" cy="16" r="16" style="fill:#fff"/><path fill="url(#b)" d="M25.188 13.502v-5h-2.5v-2.5h-4.999v-2.5h-5v2.5h-5v2.5h-2.5v14.999h2.5v2.5h5V28.5h4.999v-2.499h5v-2.5h2.5v-5h-4.999v2.5h-2.5v2.5h-5v-2.5h-2.498v-9.999h2.5v-2.5h4.999v2.5h2.5v2.5z"/><path fill="#1682FE" d="M17.689 8.376h1.741v2.625h-1.741zM12.685 3.5h1.741v2.625h-1.741z"/><path fill="#60D8A4" d="M7.687 6h1.741v2.625H7.687z"/><path fill="#F4BB3B" d="M5.186 16h1.759v7.499H5.186z"/><path fill="#60D8A4" d="M5.186 8.502h1.759v7.499H5.186z"/><path fill="#1682FE" d="M20.187 10.875h1.741V13.5h-1.741z"/><path fill="#FF5A5A" d="M20.186 18.5h1.741v2.625h-1.741zM17.689 21h1.741v2.625h-1.741zm-5.003 4.874h1.741v2.625h-1.741z"/><path fill="#F4BB3B" d="M7.686 23.375h1.741V26H7.686z"/><path fill="#3A3A3A" d="M26.814 13.5v-5h-2.501V6h-4.999V3.5h-5V6h-5v2.5H6.813v15h2.5V26h4.999v2.499h5V26h5.001v-2.5h2.501v-5h-5V21h-2.5v2.5h-5V21h-2.5V11h2.5V8.5h5V11h2.5v2.5z"/></svg></svg>