<svg xmlns="http://www.w3.org/2000/svg" width="48" height="48" fill="none" viewBox="0 0 48 48"><g clip-path="url(#a)"><path fill="url(#b)" d="M24 48a23.87 23.87 0 0 1-13.42-4.099 24.07 24.07 0 0 1-8.695-10.559 24 24 0 0 1-1.397-4.504 24.2 24.2 0 0 1 0-9.674 23.9 23.9 0 0 1 3.61-8.582 24.07 24.07 0 0 1 10.56-8.696A24 24 0 0 1 19.163.488c3.191-.65 6.481-.65 9.673 0a23.9 23.9 0 0 1 8.582 3.61 24.07 24.07 0 0 1 8.695 10.56 24 24 0 0 1 1.4 4.505c.65 3.191.65 6.481 0 9.673a23.9 23.9 0 0 1-3.612 8.582 24.07 24.07 0 0 1-10.559 8.695A23.9 23.9 0 0 1 24 48m0-45.429c-1.45 0-2.897.146-4.319.436A21.3 21.3 0 0 0 12.02 6.23a21.5 21.5 0 0 0-7.763 9.428 21.3 21.3 0 0 0-1.248 4.022c-.58 2.85-.58 5.788 0 8.638a21.3 21.3 0 0 0 3.225 7.662 21.5 21.5 0 0 0 9.428 7.764c1.296.547 2.643.966 4.022 1.248 2.85.58 5.787.58 8.637 0a21.3 21.3 0 0 0 7.663-3.225 21.5 21.5 0 0 0 7.76-9.427 21.3 21.3 0 0 0 1.25-4.023c.58-2.85.58-5.787 0-8.637a21.3 21.3 0 0 0-3.226-7.662 21.5 21.5 0 0 0-9.426-7.763 21.3 21.3 0 0 0-4.023-1.248A21.6 21.6 0 0 0 24 2.57"/></g><g clip-path="url(#c)"><svg xmlns="http://www.w3.org/2000/svg" width="48" height="48" viewBox="0 0 48 48"><g clip-path="url(#d)"><path fill="#8150E6" d="M47.879 24c0 13.186-10.652 23.875-23.792 23.875S.295 37.185.295 24 10.947.125 24.087.125 47.879 10.815 47.879 24"/><path fill="#3C176B" d="M46.99 30.486 30.05 13.76l-9.652-1.809-5.65 21.33 14.255 14.082c8.671-1.829 15.605-8.395 17.986-16.877"/><path fill="#6B42BD" d="M22.033 31.412V18.213h3.324q1.676 0 3.079.427a6.5 6.5 0 0 1 2.427 1.328q.141.125.273.259c.012-1.79-.634-3.572-1.548-5.185a11.4 11.4 0 0 0-3.133-.434h-8.064v16.787c1.225.014 2.422.114 3.642.017"/><path fill="#9B74EC" d="M35.994 20.854q-.867-2.103-2.312-3.495a9.3 9.3 0 0 0-3.324-2.071q-.38-.137-.77-.246c.914 1.613 1.56 3.396 1.548 5.185.555.562.91 2.742 1.242 3.578l-10.345 9.477v-1.87c-1.22.097-2.417-.003-3.642-.017v5.492h7.631q1.85 0 3.772-.68a10.7 10.7 0 0 0 3.498-2.056q1.575-1.375 2.572-3.478t.998-4.98c0-1.898-.29-3.437-.868-4.84"/><path fill="#fff" d="M21.109 29.672q1.704 0 3.222-.427t2.645-1.328q1.128-.9 1.778-2.34t.65-3.495c0-1.349-.192-2.398-.578-3.368q-.578-1.455-1.604-2.356a6.5 6.5 0 0 0-2.428-1.328q-1.402-.427-3.079-.427h-3.323v15.069zm-6.36-18.674h8.065q2.024 0 3.902.68a9.3 9.3 0 0 1 3.324 2.071q1.446 1.392 2.313 3.495c.578 1.402.867 2.94.867 4.838q0 2.879-.997 4.981-.998 2.103-2.573 3.479a10.7 10.7 0 0 1-3.497 2.055q-1.923.68-3.773.68h-7.63z"/></g><defs><clipPath id="d"><path fill="#fff" d="M0 0h48v48H0z"/></clipPath></defs></svg></g><defs><clipPath id="c"><circle cx="24" cy="24" r="20"/></clipPath><clipPath id="a"><path fill="#fff" d="M0 0h48v48H0z"/></clipPath><linearGradient id="b" x1="40.464" x2="9.888" y1="6.48" y2="42.528" gradientUnits="userSpaceOnUse"><stop stop-color="#B6509E"/><stop offset="1" stop-color="#2EBAC6"/></linearGradient></defs></svg>