<svg xmlns="http://www.w3.org/2000/svg" width="48" height="48" viewBox="0 0 48 48"><defs><linearGradient id="a" x1="215.808" x2="52.736" y1="34.56" y2="226.816" gradientUnits="userSpaceOnUse"><stop offset="0" stop-color="#b6509e"/><stop offset="1" stop-color="#2ebac6"/></linearGradient></defs><path fill="url(#a)" d="M128 256a129 129 0 0 1-25.8-2.6 127.3 127.3 0 0 1-45.77-19.261 128.37 128.37 0 0 1-46.375-56.315A127.4 127.4 0 0 1 2.6 153.8a129.25 129.25 0 0 1 0-51.593 127.3 127.3 0 0 1 19.26-45.77 128.37 128.37 0 0 1 56.317-46.378A127.3 127.3 0 0 1 102.2 2.6a129.2 129.2 0 0 1 51.593 0 127.3 127.3 0 0 1 45.77 19.26 128.37 128.37 0 0 1 46.375 56.316A127.3 127.3 0 0 1 253.4 102.2a129.25 129.25 0 0 1 0 51.593 127.3 127.3 0 0 1-19.26 45.77 128.4 128.4 0 0 1-56.316 46.375A127.4 127.4 0 0 1 153.8 253.4 129 129 0 0 1 128 256m0-242.287a115 115 0 0 0-23.033 2.322A113.7 113.7 0 0 0 64.1 33.232a114.6 114.6 0 0 0-41.4 50.283 113.7 113.7 0 0 0-6.659 21.452 115.4 115.4 0 0 0 0 46.065 113.7 113.7 0 0 0 17.2 40.866 114.63 114.63 0 0 0 50.282 41.407 113.8 113.8 0 0 0 21.453 6.658 115.4 115.4 0 0 0 46.065 0 113.6 113.6 0 0 0 40.866-17.2 114.6 114.6 0 0 0 41.393-50.278 113.7 113.7 0 0 0 6.659-21.453 115.4 115.4 0 0 0 0-46.065 113.7 113.7 0 0 0-17.2-40.865A114.6 114.6 0 0 0 172.485 22.7a113.7 113.7 0 0 0-21.453-6.659A115 115 0 0 0 128 13.714Z" style="fill:url(#a)" transform="matrix(.17969 0 0 .17969 1 1)"/><svg xmlns="http://www.w3.org/2000/svg" width="40" height="40" x="4" y="4" fill="none" viewBox="0 0 256 256"><mask id="b" width="255" height="256" mask-type="alpha" maskUnits="userSpaceOnUse"><path fill="#fff" d="M1.573.667h253.78v254.665H1.573z"/></mask><g mask="url(#b)"><path fill="#8150E6" d="M255.353 127.999c0 70.324-56.81 127.333-126.89 127.333S1.573 198.323 1.573 127.999C1.573 57.676 58.383.667 128.463.667S255.353 57.676 255.353 128Z"/></g><path fill="#3C176B" d="m250.611 162.593-90.339-89.208-51.478-9.646-30.128 113.762 76.02 75.101c46.25-9.753 83.228-44.773 95.925-90.009"/><path fill="#6B42BD" d="M117.509 167.53V97.136h17.729q8.939 0 16.418 2.277 7.476 2.278 12.949 7.085c.501.439.983.901 1.454 1.378.061-9.542-3.383-19.05-8.256-27.65a61 61 0 0 0-16.707-2.317H98.084v89.533c6.537.074 12.921.608 19.425.088"/><path fill="#9B74EC" d="M191.97 111.219q-4.625-11.215-12.333-18.637-7.71-7.42-17.729-11.047a61 61 0 0 0-4.105-1.31c4.873 8.6 8.317 18.108 8.256 27.65 2.958 2.998 4.848 14.624 6.623 19.085l-55.173 50.543v-9.974c-6.504.52-12.888-.014-19.424-.088v29.289h40.699q9.864.001 20.118-3.626 10.25-3.626 18.653-10.963t13.721-18.552q5.319-11.214 5.319-26.564c0-10.12-1.541-18.328-4.625-25.806"/><path fill="#fff" d="M112.579 158.25q9.096 0 17.189-2.276 8.094-2.278 14.106-7.084t9.481-12.481q3.47-7.671 3.469-18.637c0-7.194-1.029-12.79-3.084-17.963q-3.085-7.757-8.555-12.565-5.475-4.808-12.95-7.084-7.479-2.277-16.419-2.277H98.088v80.367zM78.663 58.656h43.011q10.789.001 20.813 3.626 10.018 3.628 17.728 11.048 7.71 7.423 12.333 18.636c3.084 7.478 4.625 15.687 4.625 25.806q0 15.35-5.318 26.564-5.32 11.217-13.721 18.553-8.403 7.336-18.653 10.962-10.255 3.628-20.119 3.627H78.663z"/></svg></svg>