<svg xmlns="http://www.w3.org/2000/svg" width="48" height="48" fill="none" viewBox="0 0 48 48"><g clip-path="url(#a)"><path fill="url(#b)" d="M24 48a23.87 23.87 0 0 1-13.42-4.099 24.07 24.07 0 0 1-8.695-10.559 24 24 0 0 1-1.397-4.504 24.2 24.2 0 0 1 0-9.674 23.9 23.9 0 0 1 3.61-8.582 24.07 24.07 0 0 1 10.56-8.696A24 24 0 0 1 19.163.488c3.191-.65 6.481-.65 9.673 0a23.9 23.9 0 0 1 8.582 3.61 24.07 24.07 0 0 1 8.695 10.56 24 24 0 0 1 1.4 4.505c.65 3.191.65 6.481 0 9.673a23.9 23.9 0 0 1-3.612 8.582 24.07 24.07 0 0 1-10.559 8.695A23.9 23.9 0 0 1 24 48m0-45.429c-1.45 0-2.897.146-4.319.436A21.3 21.3 0 0 0 12.02 6.23a21.5 21.5 0 0 0-7.763 9.428 21.3 21.3 0 0 0-1.248 4.022c-.58 2.85-.58 5.788 0 8.638a21.3 21.3 0 0 0 3.225 7.662 21.5 21.5 0 0 0 9.428 7.764c1.296.547 2.643.966 4.022 1.248 2.85.58 5.787.58 8.637 0a21.3 21.3 0 0 0 7.663-3.225 21.5 21.5 0 0 0 7.76-9.427 21.3 21.3 0 0 0 1.25-4.023c.58-2.85.58-5.787 0-8.637a21.3 21.3 0 0 0-3.226-7.662 21.5 21.5 0 0 0-9.426-7.763 21.3 21.3 0 0 0-4.023-1.248A21.6 21.6 0 0 0 24 2.57"/></g><g clip-path="url(#c)"><svg xmlns="http://www.w3.org/2000/svg" width="48" height="48" viewBox="0 0 48 48"><g clip-path="url(#d)"><path fill="url(#e)" d="M48 24C48 10.745 37.255 0 24 0S0 10.745 0 24s10.745 24 24 24 24-10.745 24-24"/><path fill="#fff" d="M13.518 20.96c.312.662 1.082 1.973 1.082 1.973l8.912-14.677-8.697 6.051c-.518.344-.943.81-1.238 1.358a6.26 6.26 0 0 0-.059 5.294m-3.53 4.832a9.88 9.88 0 0 0 3.893 7.18l9.619 6.683s-6.019-8.642-11.095-17.241a8.7 8.7 0 0 1-1.02-2.933 4.7 4.7 0 0 1 0-1.408c-.133.245-.39.745-.39.745a11.4 11.4 0 0 0-1.039 3.317 20.3 20.3 0 0 0 .031 3.657m24.54 1.16c-.31-.663-1.081-1.974-1.081-1.974l-8.912 14.677 8.697-6.047c.518-.344.943-.81 1.238-1.357a6.26 6.26 0 0 0 .059-5.299m3.532-4.833a9.88 9.88 0 0 0-3.893-7.18l-9.62-6.683s6.015 8.642 11.095 17.241a8.7 8.7 0 0 1 1.016 2.933 4.7 4.7 0 0 1 0 1.408c.133-.245.39-.745.39-.745a11.3 11.3 0 0 0 1.039-3.316 20 20 0 0 0-.027-3.658"/><path fill="#fff" d="M13.577 15.665a3.8 3.8 0 0 1 1.238-1.358l8.697-6.051L14.6 22.937s-.78-1.31-1.083-1.974a6.26 6.26 0 0 1 .059-5.299m-3.59 10.128a9.88 9.88 0 0 0 3.893 7.18l9.62 6.682s-6.019-8.642-11.095-17.241a8.7 8.7 0 0 1-1.02-2.932 4.7 4.7 0 0 1 0-1.408c-.133.244-.39.744-.39.744a11.4 11.4 0 0 0-1.039 3.317 20.3 20.3 0 0 0 .031 3.657m24.526 1.163c-.311-.663-1.082-1.974-1.082-1.974l-8.896 14.673 8.697-6.047c.518-.344.943-.81 1.238-1.357a6.26 6.26 0 0 0 .059-5.299zm3.531-4.833a9.88 9.88 0 0 0-3.893-7.18l-9.604-6.687s6.015 8.642 11.095 17.242a8.7 8.7 0 0 1 1.016 2.932 4.7 4.7 0 0 1 0 1.408c.133-.244.39-.745.39-.745a11.3 11.3 0 0 0 1.039-3.316 20 20 0 0 0-.027-3.658z"/></g><defs><linearGradient id="e" x1="31.972" x2="-14.682" y1="53.689" y2="-28.428" gradientUnits="userSpaceOnUse"><stop stop-color="#44BCF0"/><stop offset=".379" stop-color="#7298F8"/><stop offset="1" stop-color="#A099FF"/></linearGradient><clipPath id="d"><path fill="#fff" d="M0 0h48v48H0z"/></clipPath></defs></svg></g><defs><clipPath id="c"><circle cx="24" cy="24" r="20"/></clipPath><clipPath id="a"><path fill="#fff" d="M0 0h48v48H0z"/></clipPath><linearGradient id="b" x1="40.464" x2="9.888" y1="6.48" y2="42.528" gradientUnits="userSpaceOnUse"><stop stop-color="#B6509E"/><stop offset="1" stop-color="#2EBAC6"/></linearGradient></defs></svg>