<svg width="48" height="48" viewBox="0 0 48 48"><defs><linearGradient id="a" x1="215.808" x2="52.736" y1="34.56" y2="226.816" gradientUnits="userSpaceOnUse"><stop offset="0" stop-color="#b6509e"/><stop offset="1" stop-color="#2ebac6"/></linearGradient></defs><path fill="url(#a)" d="M128 256a129 129 0 0 1-25.8-2.6 127.3 127.3 0 0 1-45.77-19.261 128.37 128.37 0 0 1-46.375-56.315A127.4 127.4 0 0 1 2.6 153.8a129.25 129.25 0 0 1 0-51.593 127.3 127.3 0 0 1 19.26-45.77 128.37 128.37 0 0 1 56.317-46.378A127.3 127.3 0 0 1 102.2 2.6a129.2 129.2 0 0 1 51.593 0 127.3 127.3 0 0 1 45.77 19.26 128.37 128.37 0 0 1 46.375 56.316A127.3 127.3 0 0 1 253.4 102.2a129.25 129.25 0 0 1 0 51.593 127.3 127.3 0 0 1-19.26 45.77 128.4 128.4 0 0 1-56.316 46.375A127.4 127.4 0 0 1 153.8 253.4 129 129 0 0 1 128 256m0-242.287a115 115 0 0 0-23.033 2.322A113.7 113.7 0 0 0 64.1 33.232a114.6 114.6 0 0 0-41.4 50.283 113.7 113.7 0 0 0-6.659 21.452 115.4 115.4 0 0 0 0 46.065 113.7 113.7 0 0 0 17.2 40.866 114.63 114.63 0 0 0 50.282 41.407 113.8 113.8 0 0 0 21.453 6.658 115.4 115.4 0 0 0 46.065 0 113.6 113.6 0 0 0 40.866-17.2 114.6 114.6 0 0 0 41.393-50.278 113.7 113.7 0 0 0 6.659-21.453 115.4 115.4 0 0 0 0-46.065 113.7 113.7 0 0 0-17.2-40.865A114.6 114.6 0 0 0 172.485 22.7a113.7 113.7 0 0 0-21.453-6.659A115 115 0 0 0 128 13.714Z" style="fill:url(#a)" transform="matrix(.1875 0 0 .1875 0 0)"/><svg xmlns="http://www.w3.org/2000/svg" width="30" height="30" x="9" y="9" fill="none" viewBox="0 0 256 256"><rect width="256" height="256" fill="url(#b)" rx="128"/><path fill="#fff" d="M72.097 111.782c1.661 3.538 5.772 10.53 5.772 10.53l47.526-78.28-46.384 32.272a20.2 20.2 0 0 0-6.602 7.24 33.4 33.4 0 0 0-.312 28.238m-18.832 25.777a52.55 52.55 0 0 0 6.228 21.381 52.7 52.7 0 0 0 14.535 16.91l51.304 35.644s-32.099-46.091-59.173-91.954a46.2 46.2 0 0 1-5.44-15.639 25 25 0 0 1 0-7.51c-.706 1.303-2.076 3.972-2.076 3.972a60.6 60.6 0 0 0-5.544 17.688 108 108 0 0 0 .166 19.508m130.888 6.185c-1.661-3.537-5.772-10.53-5.772-10.53l-47.526 78.28 46.384-32.251a20.2 20.2 0 0 0 6.603-7.24 33.39 33.39 0 0 0 .311-28.259m18.832-25.776a52.55 52.55 0 0 0-6.228-21.382 52.7 52.7 0 0 0-14.535-16.91l-51.304-35.644s32.078 46.09 59.173 91.954a46.2 46.2 0 0 1 5.419 15.64c.379 2.489.379 5.02 0 7.509.706-1.303 2.076-3.972 2.076-3.972a60.5 60.5 0 0 0 5.544-17.687c.542-6.494.493-13.023-.145-19.508"/><path fill="#fff" d="M72.409 83.544a20.2 20.2 0 0 1 6.602-7.24l46.384-32.272-47.526 78.301s-4.153-6.992-5.772-10.53a33.39 33.39 0 0 1 .312-28.259M53.265 137.56a52.55 52.55 0 0 0 6.228 21.381 52.7 52.7 0 0 0 14.535 16.91l51.304 35.644s-32.099-46.091-59.173-91.954a46.2 46.2 0 0 1-5.44-15.639 25 25 0 0 1 0-7.51c-.706 1.303-2.076 3.972-2.076 3.972a60.6 60.6 0 0 0-5.544 17.688 108 108 0 0 0 .166 19.508m130.805 6.206c-1.661-3.538-5.772-10.53-5.772-10.53l-47.443 78.259 46.384-32.251a20.2 20.2 0 0 0 6.603-7.24 33.39 33.39 0 0 0 .311-28.259zm18.832-25.777a52.55 52.55 0 0 0-6.228-21.381 52.7 52.7 0 0 0-14.535-16.91l-51.221-35.665s32.078 46.09 59.173 91.954a46.2 46.2 0 0 1 5.419 15.64c.379 2.489.379 5.02 0 7.509.706-1.303 2.076-3.972 2.076-3.972a60.5 60.5 0 0 0 5.544-17.687c.542-6.494.493-13.023-.145-19.508z"/><defs><linearGradient id="b" x1="170.517" x2="-78.302" y1="286.341" y2="-151.616" gradientUnits="userSpaceOnUse"><stop stop-color="#44BCF0"/><stop offset=".379" stop-color="#7298F8"/><stop offset="1" stop-color="#A099FF"/></linearGradient></defs></svg></svg>