<svg xmlns="http://www.w3.org/2000/svg" width="48" height="48" fill="none" viewBox="0 0 48 48"><g clip-path="url(#a)"><path fill="url(#b)" d="M24 48a23.87 23.87 0 0 1-13.42-4.099 24.07 24.07 0 0 1-8.695-10.559 24 24 0 0 1-1.397-4.504 24.2 24.2 0 0 1 0-9.674 23.9 23.9 0 0 1 3.61-8.582 24.07 24.07 0 0 1 10.56-8.696A24 24 0 0 1 19.163.488c3.191-.65 6.481-.65 9.673 0a23.9 23.9 0 0 1 8.582 3.61 24.07 24.07 0 0 1 8.695 10.56 24 24 0 0 1 1.4 4.505c.65 3.191.65 6.481 0 9.673a23.9 23.9 0 0 1-3.612 8.582 24.07 24.07 0 0 1-10.559 8.695A23.9 23.9 0 0 1 24 48m0-45.429c-1.45 0-2.897.146-4.319.436A21.3 21.3 0 0 0 12.02 6.23a21.5 21.5 0 0 0-7.763 9.428 21.3 21.3 0 0 0-1.248 4.022c-.58 2.85-.58 5.788 0 8.638a21.3 21.3 0 0 0 3.225 7.662 21.5 21.5 0 0 0 9.428 7.764c1.296.547 2.643.966 4.022 1.248 2.85.58 5.787.58 8.637 0a21.3 21.3 0 0 0 7.663-3.225 21.5 21.5 0 0 0 7.76-9.427 21.3 21.3 0 0 0 1.25-4.023c.58-2.85.58-5.787 0-8.637a21.3 21.3 0 0 0-3.226-7.662 21.5 21.5 0 0 0-9.426-7.763 21.3 21.3 0 0 0-4.023-1.248A21.6 21.6 0 0 0 24 2.57"/></g><g clip-path="url(#c)"><svg xmlns="http://www.w3.org/2000/svg" width="48" height="48" viewBox="0 0 116 115"><g clip-path="url(#d)"><circle cx="57.764" cy="57.286" r="57.295" fill="url(#e)"/><path fill="#fff" d="M89.019 49.396 57.723 17.439 26.425 49.396l15.647 15.977 15.651-15.977 15.648 15.977z"/><path fill="#1F2333" d="M56.462 94.24q-2.334 0-4.016-.841-1.655-.868-2.55-2.442-.87-1.6-.869-3.771V74.867h3.582v12.427q0 1.737.977 2.74 1.004 1.005 2.876 1.004t2.849-1.004q1.005-1.003 1.004-2.74V74.867h3.581v12.319q0 2.17-.895 3.771-.869 1.574-2.55 2.442-1.656.84-3.99.841m15.624-.38V74.867h8.248q1.791 0 3.12.624t2.063 1.764.733 2.686v.325q0 1.71-.814 2.768a4.8 4.8 0 0 1-2.008 1.547v.488q1.085.055 1.682.76.597.678.597 1.818v6.213h-3.582v-5.698q0-.651-.352-1.058-.326-.407-1.113-.407h-4.993v7.163zm3.582-10.419h4.287q1.275 0 1.98-.678.733-.706.733-1.845v-.272q0-1.14-.706-1.818-.706-.705-2.007-.705h-4.287z"/><path fill="#1F2333" fill-rule="evenodd" d="M28.946 94.307V74.42H42.05v4.15h-8.628v3.637h7.868v4.15h-7.868v3.8h8.79v4.15zm23.296-.51-.004-.002c-1.176-.617-2.09-1.49-2.731-2.617l-.002-.004-.003-.004c-.62-1.144-.922-2.477-.922-3.984V74.42h4.476v12.874c0 1.07.298 1.86.848 2.427.561.56 1.39.87 2.558.87 1.17 0 1.987-.312 2.528-.868l.005-.005c.567-.567.873-1.357.873-2.424V74.42h4.475v12.766c0 1.508-.311 2.843-.951 3.988-.624 1.13-1.541 2.005-2.737 2.622l-.002.002c-1.18.6-2.583.89-4.191.89-1.609 0-3.02-.29-4.216-.89zm10.759-2.84q.895-1.6.895-3.771V74.867h-3.581v12.427q0 1.737-1.004 2.74-.977 1.005-2.85 1.004-1.871 0-2.875-1.004-.977-1.003-.977-2.74V74.867h-3.582v12.319q0 2.17.869 3.771.895 1.574 2.55 2.442 1.682.84 4.016.841 2.333 0 3.988-.841 1.683-.868 2.551-2.442m8.637 3.35V74.42h8.695c1.246 0 2.353.217 3.31.666s1.711 1.09 2.249 1.927c.54.842.803 1.824.803 2.928v.325c0 1.21-.288 2.237-.906 3.04a5.3 5.3 0 0 1-1.638 1.423 2.5 2.5 0 0 1 1.296.808c.485.553.706 1.272.706 2.11v6.66h-4.476v-6.145c0-.35-.093-.591-.244-.765l-.005-.007-.006-.007c-.096-.12-.304-.239-.763-.239h-4.546v7.163zm4.028-7.61h4.993q.787 0 1.112.407.353.407.353 1.058v5.698h3.582v-6.213q0-1.14-.597-1.818-.597-.706-1.682-.76v-.488a4.8 4.8 0 0 0 2.007-1.547q.815-1.058.815-2.768v-.325q0-1.547-.733-2.686t-2.062-1.764-3.12-.624h-8.25V93.86h3.582zm5.982-7.55-.003-.002c-.363-.364-.904-.575-1.692-.575h-3.84v4.424h3.84c.771 0 1.307-.203 1.671-.553.39-.376.596-.869.596-1.523v-.272c0-.66-.2-1.141-.569-1.495zm.286 3.616q-.705.678-1.98.678h-4.287v-5.318h4.287q1.302 0 2.007.705.706.68.706 1.818v.272q0 1.14-.733 1.845" clip-rule="evenodd"/></g><defs><linearGradient id="e" x1="19.049" x2="83.049" y1="92.008" y2="35.087" gradientUnits="userSpaceOnUse"><stop offset=".073" stop-color="#AAC4FD"/><stop offset="1" stop-color="#76A0FC"/></linearGradient><clipPath id="d"><path fill="#fff" d="M.48 0h115v115H.48z"/></clipPath></defs></svg></g><defs><clipPath id="c"><circle cx="24" cy="24" r="20"/></clipPath><clipPath id="a"><path fill="#fff" d="M0 0h48v48H0z"/></clipPath><linearGradient id="b" x1="40.464" x2="9.888" y1="6.48" y2="42.528" gradientUnits="userSpaceOnUse"><stop stop-color="#B6509E"/><stop offset="1" stop-color="#2EBAC6"/></linearGradient></defs></svg>