<svg xmlns="http://www.w3.org/2000/svg" width="48" height="48" fill="none" viewBox="0 0 48 48"><g clip-path="url(#clip0_85_109)"><path fill="url(#paint0_linear_85_109)" d="M24 48a23.87 23.87 0 0 1-13.42-4.099 24.07 24.07 0 0 1-8.695-10.559 24 24 0 0 1-1.397-4.504 24.2 24.2 0 0 1 0-9.674 23.9 23.9 0 0 1 3.61-8.582 24.07 24.07 0 0 1 10.56-8.696A24 24 0 0 1 19.163.488c3.191-.65 6.481-.65 9.673 0a23.9 23.9 0 0 1 8.582 3.61 24.07 24.07 0 0 1 8.695 10.56 24 24 0 0 1 1.4 4.505c.65 3.191.65 6.481 0 9.673a23.9 23.9 0 0 1-3.612 8.582 24.07 24.07 0 0 1-10.559 8.695A23.9 23.9 0 0 1 24 48m0-45.429c-1.45 0-2.897.146-4.319.436A21.3 21.3 0 0 0 12.02 6.23a21.5 21.5 0 0 0-7.763 9.428 21.3 21.3 0 0 0-1.248 4.022c-.58 2.85-.58 5.788 0 8.638a21.3 21.3 0 0 0 3.225 7.662 21.5 21.5 0 0 0 9.428 7.764c1.296.547 2.643.966 4.022 1.248 2.85.58 5.787.58 8.637 0a21.3 21.3 0 0 0 7.663-3.225 21.5 21.5 0 0 0 7.76-9.427 21.3 21.3 0 0 0 1.25-4.023c.58-2.85.58-5.787 0-8.637a21.3 21.3 0 0 0-3.226-7.662 21.5 21.5 0 0 0-9.426-7.763 21.3 21.3 0 0 0-4.023-1.248A21.6 21.6 0 0 0 24 2.57"/></g><g clip-path="url(#circleClip)"><svg xmlns="http://www.w3.org/2000/svg" id="Layer_1" width="48" height="48" data-name="Layer 1" viewBox="0 0 512 512"><defs><linearGradient id="linear-gradient" x1="137.46" x2="374.54" y1="50.68" y2="461.32" gradientUnits="userSpaceOnUse"><stop offset="0" stop-color="#0095d7"/><stop offset="1" stop-color="#0072aa"/></linearGradient><style>.cls-1{fill:#fff}</style></defs><circle cx="256" cy="256" r="255" class="cls-1"/><circle id="Ellipse_256" cx="256" cy="256" r="237.05" data-name="Ellipse 256" style="fill:url(#linear-gradient)"/><path d="m378.38 336.35-33-19a3.06 3.06 0 0 0-1.5-.4 3.2 3.2 0 0 0-.81.11 3 3 0 0 0-1.82 1.45 65.8 65.8 0 0 1-10.48 14.24 81.5 81.5 0 0 1-18.89 14.53 82.6 82.6 0 0 1-21.46 8.24 96 96 0 0 1-21.52 2.58 78.8 78.8 0 0 1-36.74-8.71 92.1 92.1 0 0 1-28.45-22.85 99.7 99.7 0 0 1-10.2-14.85l-3.88-6.89h83.78a3 3 0 0 0 3-3v-26.1a3 3 0 0 0-3-3h-93.1l-.46-4.12a122 122 0 0 1-.75-13.39c0-3.75.2-7.68.6-11.7l.42-4.17h93.29a3 3 0 0 0 3-3v-26.1a3 3 0 0 0-3-3h-84.67l3.59-6.79a99.7 99.7 0 0 1 8.76-13.76 86.35 86.35 0 0 1 27.68-23.58c11.14-6.08 24.35-9.17 39.27-9.17a99 99 0 0 1 21.06 2.36 84.7 84.7 0 0 1 20.8 7.58 74.9 74.9 0 0 1 29.56 28.46 3 3 0 0 0 1.94 1.41 2.8 2.8 0 0 0 .64.07 3 3 0 0 0 1.71-.53l30.65-21.11a3 3 0 0 0 .88-4c-9.08-15.27-22.06-28.06-38.58-38-18.7-11.25-41.25-17-67-17-21.85 0-41.57 4.12-58.62 12.24a136.52 136.52 0 0 0-70.74 77.08c-.1.25-.18.5-.26.75v.07q-.12.39-.27.78l-1.1 3.08H74.27a3 3 0 0 0-3 3v26.1a3 3 0 0 0 3 3h57.38l-.33 4.93c-.23 3.55-.34 6.51-.34 9.3 0 4.65.24 9.38.7 14.06l.5 5.09H74.27a3 3 0 0 0-3 3v26.1a3 3 0 0 0 3 3h66.16l1.17 2.92a154.3 154.3 0 0 0 27.74 45.35 144.1 144.1 0 0 0 43.06 33.13c16.45 8.36 34.9 12.6 54.82 12.6a147.7 147.7 0 0 0 34.94-4.37 144 144 0 0 0 33.53-12.7 123.5 123.5 0 0 0 28-20.32 83.6 83.6 0 0 0 15.83-21 3 3 0 0 0-1.14-4" class="cls-1"/></svg></g><defs><clipPath id="circleClip"><circle cx="24" cy="24" r="20"/></clipPath><clipPath id="clip0_85_109"><path fill="#fff" d="M0 0h48v48H0z"/></clipPath><linearGradient id="paint0_linear_85_109" x1="40.464" x2="9.888" y1="6.48" y2="42.528" gradientUnits="userSpaceOnUse"><stop stop-color="#B6509E"/><stop offset="1" stop-color="#2EBAC6"/></linearGradient></defs></svg>