<svg width="48" height="48" viewBox="0 0 48 48"><defs><linearGradient id="a" x1="215.808" x2="52.736" y1="34.56" y2="226.816" gradientUnits="userSpaceOnUse"><stop offset="0" stop-color="#b6509e"/><stop offset="1" stop-color="#2ebac6"/></linearGradient></defs><path fill="url(#a)" d="M128 256a129 129 0 0 1-25.8-2.6 127.3 127.3 0 0 1-45.77-19.261 128.37 128.37 0 0 1-46.375-56.315A127.4 127.4 0 0 1 2.6 153.8a129.25 129.25 0 0 1 0-51.593 127.3 127.3 0 0 1 19.26-45.77 128.37 128.37 0 0 1 56.317-46.378A127.3 127.3 0 0 1 102.2 2.6a129.2 129.2 0 0 1 51.593 0 127.3 127.3 0 0 1 45.77 19.26 128.37 128.37 0 0 1 46.375 56.316A127.3 127.3 0 0 1 253.4 102.2a129.25 129.25 0 0 1 0 51.593 127.3 127.3 0 0 1-19.26 45.77 128.4 128.4 0 0 1-56.316 46.375A127.4 127.4 0 0 1 153.8 253.4 129 129 0 0 1 128 256m0-242.287a115 115 0 0 0-23.033 2.322A113.7 113.7 0 0 0 64.1 33.232a114.6 114.6 0 0 0-41.4 50.283 113.7 113.7 0 0 0-6.659 21.452 115.4 115.4 0 0 0 0 46.065 113.7 113.7 0 0 0 17.2 40.866 114.63 114.63 0 0 0 50.282 41.407 113.8 113.8 0 0 0 21.453 6.658 115.4 115.4 0 0 0 46.065 0 113.6 113.6 0 0 0 40.866-17.2 114.6 114.6 0 0 0 41.393-50.278 113.7 113.7 0 0 0 6.659-21.453 115.4 115.4 0 0 0 0-46.065 113.7 113.7 0 0 0-17.2-40.865A114.6 114.6 0 0 0 172.485 22.7a113.7 113.7 0 0 0-21.453-6.659A115 115 0 0 0 128 13.714Z" style="fill:url(#a)" transform="matrix(.1875 0 0 .1875 0 0)"/><svg xmlns="http://www.w3.org/2000/svg" width="30" height="30" x="9" y="9" fill="none" viewBox="0 0 256 256"><circle cx="128" cy="128" r="128" fill="#fff"/><path fill="url(#b)" fill-rule="evenodd" d="M216.829 220.16C240.978 196.878 256 164.193 256 128c0-42.772-20.979-80.643-53.207-103.887-44.378 5.07-81.248 25.7-93.993 55.242h119.04L214.4 110.08h-112s-.701 11.776-.64 17.28c.089 8.033.64 17.28.64 17.28h97.28l-12.8 29.703h-71.04c14.067 26.592 53.687 45.782 100.989 45.817m-37.354 25.069C163.723 252.155 146.311 256 128 256 57.308 256 0 198.692 0 128S57.308 0 128 0c11.727 0 23.085 1.577 33.875 4.53-41.443 7.585-75.521 36.399-90.68 74.825H44.8L31.36 110.08h33.92v14.08c0 2.352 0 3.119.016 3.885.033 1.509.128 3.016.412 16.595H43.52l-12.16 29.703h42.108c17.622 39.728 49.146 63.24 106.007 70.886" clip-rule="evenodd"/><defs><linearGradient id="b" x1="30.08" x2="224" y1="203.52" y2="52.48" gradientUnits="userSpaceOnUse"><stop offset=".333" stop-color="#15BCFF"/><stop offset=".664" stop-color="#406BEE"/><stop offset=".925" stop-color="#AE3EEB"/></linearGradient></defs></svg></svg>