<svg width="48" height="48" viewBox="0 0 48 48"><defs><linearGradient id="a" x1="215.808" x2="52.736" y1="34.56" y2="226.816" gradientUnits="userSpaceOnUse"><stop offset="0" stop-color="#b6509e"/><stop offset="1" stop-color="#2ebac6"/></linearGradient></defs><path fill="url(#a)" d="M128 256a129 129 0 0 1-25.8-2.6 127.3 127.3 0 0 1-45.77-19.261 128.37 128.37 0 0 1-46.375-56.315A127.4 127.4 0 0 1 2.6 153.8a129.25 129.25 0 0 1 0-51.593 127.3 127.3 0 0 1 19.26-45.77 128.37 128.37 0 0 1 56.317-46.378A127.3 127.3 0 0 1 102.2 2.6a129.2 129.2 0 0 1 51.593 0 127.3 127.3 0 0 1 45.77 19.26 128.37 128.37 0 0 1 46.375 56.316A127.3 127.3 0 0 1 253.4 102.2a129.25 129.25 0 0 1 0 51.593 127.3 127.3 0 0 1-19.26 45.77 128.4 128.4 0 0 1-56.316 46.375A127.4 127.4 0 0 1 153.8 253.4 129 129 0 0 1 128 256m0-242.287a115 115 0 0 0-23.033 2.322A113.7 113.7 0 0 0 64.1 33.232a114.6 114.6 0 0 0-41.4 50.283 113.7 113.7 0 0 0-6.659 21.452 115.4 115.4 0 0 0 0 46.065 113.7 113.7 0 0 0 17.2 40.866 114.63 114.63 0 0 0 50.282 41.407 113.8 113.8 0 0 0 21.453 6.658 115.4 115.4 0 0 0 46.065 0 113.6 113.6 0 0 0 40.866-17.2 114.6 114.6 0 0 0 41.393-50.278 113.7 113.7 0 0 0 6.659-21.453 115.4 115.4 0 0 0 0-46.065 113.7 113.7 0 0 0-17.2-40.865A114.6 114.6 0 0 0 172.485 22.7a113.7 113.7 0 0 0-21.453-6.659A115 115 0 0 0 128 13.714Z" style="fill:url(#a)" transform="matrix(.1875 0 0 .1875 0 0)"/><svg xmlns="http://www.w3.org/2000/svg" width="30" height="30" x="9" y="9" fill="none" viewBox="0 0 256 256"><g clip-path="url(#b)"><path fill="#000" stroke="#000" stroke-miterlimit="11.339" stroke-width="1.237" d="M128 256c70.692 0 128-57.308 128-128S198.692 0 128 0 0 57.307 0 128c0 70.692 57.308 128 128 128Z"/><path fill="#fff" d="M57.388 56.804c-5.397 5.667-9.85 10.434-9.894 10.524-.045.135 4.812 4.903 10.794 10.57 5.981 5.711 11.199 10.704 11.558 11.018l.675.63-1.214 2.024c-10.66 17.63-12.863 38.859-6.162 58.378 1.26 3.688 3.418 8.41 5.262 11.514.9 1.529 1.305 2.518 1.215 2.698s-5.532 5.937-12.099 12.818c-6.566 6.836-11.918 12.548-12.008 12.638-.045.135 18.35 17.901 20.104 19.34l.674.584 10.39-10.839a7343 7343 0 0 0 11.873-12.458l1.53-1.529 1.439.9c7.33 4.677 15.921 7.915 25.411 9.624 4.767.855 13.852 1.08 18.934.45 9.805-1.124 19.52-4.408 27.48-9.22l2.069-1.259 2.204 2.159c4.812 4.677 22.802 21.768 22.982 21.858s19.924-20.554 19.879-20.824c-.044-.135-13.582-13.133-21.858-20.914l-2.743-2.608 1.259-2.069c10.569-17.585 12.773-38.904 5.937-58.558-.989-2.878-4.003-9.355-5.757-12.323l-.854-1.485 11.558-12.098c6.342-6.611 11.514-12.143 11.469-12.278-.18-.45-20.419-19.564-20.689-19.564-.18 0-5.262 5.172-11.333 11.558-6.072 6.342-11.109 11.559-11.244 11.604-.09.045-.675-.225-1.215-.63-1.529-1.034-5.397-3.148-7.555-4.138-6.567-3.013-12.684-4.857-19.79-5.891-3.688-.54-14.752-.63-18.17-.135-8.185 1.17-14.887 3.193-21.723 6.611-1.979.945-4.272 2.204-5.172 2.744l-1.62.99-1.843-1.8c-.99-.99-5.487-5.217-9.94-9.49-4.452-4.227-8.995-8.545-10.074-9.624l-1.98-1.934zm75.514 29.324c7.151.854 13.538 3.283 19.429 7.42 3.014 2.115 7.511 6.612 9.625 9.626 12.008 17 9.715 40.118-5.397 54.285-12.908 12.053-31.573 14.752-47.269 6.746-11.334-5.802-19.34-16.416-21.903-29.144-.81-4.048-.81-11.604 0-15.606.764-3.958 1.799-6.792 3.733-10.749 7.736-15.562 24.511-24.647 41.782-22.578"/></g><defs><clipPath id="b"><path fill="#fff" d="M0 0h256v256H0z"/></clipPath></defs></svg></svg>