<svg xmlns="http://www.w3.org/2000/svg" width="48" height="48" viewBox="0 0 48 48"><defs><linearGradient id="a" x1="215.808" x2="52.736" y1="34.56" y2="226.816" gradientUnits="userSpaceOnUse"><stop offset="0" stop-color="#b6509e"/><stop offset="1" stop-color="#2ebac6"/></linearGradient></defs><path fill="url(#a)" d="M128 256a129 129 0 0 1-25.8-2.6 127.3 127.3 0 0 1-45.77-19.261 128.37 128.37 0 0 1-46.375-56.315A127.4 127.4 0 0 1 2.6 153.8a129.25 129.25 0 0 1 0-51.593 127.3 127.3 0 0 1 19.26-45.77 128.37 128.37 0 0 1 56.317-46.378A127.3 127.3 0 0 1 102.2 2.6a129.2 129.2 0 0 1 51.593 0 127.3 127.3 0 0 1 45.77 19.26 128.37 128.37 0 0 1 46.375 56.316A127.3 127.3 0 0 1 253.4 102.2a129.25 129.25 0 0 1 0 51.593 127.3 127.3 0 0 1-19.26 45.77 128.4 128.4 0 0 1-56.316 46.375A127.4 127.4 0 0 1 153.8 253.4 129 129 0 0 1 128 256m0-242.287a115 115 0 0 0-23.033 2.322A113.7 113.7 0 0 0 64.1 33.232a114.6 114.6 0 0 0-41.4 50.283 113.7 113.7 0 0 0-6.659 21.452 115.4 115.4 0 0 0 0 46.065 113.7 113.7 0 0 0 17.2 40.866 114.63 114.63 0 0 0 50.282 41.407 113.8 113.8 0 0 0 21.453 6.658 115.4 115.4 0 0 0 46.065 0 113.6 113.6 0 0 0 40.866-17.2 114.6 114.6 0 0 0 41.393-50.278 113.7 113.7 0 0 0 6.659-21.453 115.4 115.4 0 0 0 0-46.065 113.7 113.7 0 0 0-17.2-40.865A114.6 114.6 0 0 0 172.485 22.7a113.7 113.7 0 0 0-21.453-6.659A115 115 0 0 0 128 13.714Z" style="fill:url(#a)" transform="matrix(.17969 0 0 .17969 1 1)"/><svg xmlns="http://www.w3.org/2000/svg" width="40" height="40" x="4" y="4" fill="none" viewBox="0 0 256 256"><path fill="#1969FF" d="M128 256c70.692 0 128-57.308 128-128S198.692 0 128 0 0 57.307 0 128c0 70.692 57.307 128 128 128"/><path fill="#fff" d="M120.238 40.705c4.313-2.273 10.874-2.273 15.187 0l44.004 23.199c2.597 1.369 4.023 3.41 4.279 5.516h.042v116.608c-.057 2.297-1.497 4.579-4.321 6.068l-44.004 23.199c-4.313 2.273-10.874 2.273-15.187 0l-44.004-23.199c-2.812-1.482-4.162-3.781-4.229-6.068a8 8 0 0 1 0-.588V70.205a6 6 0 0 1 0-.484v-.301h.02c.195-2.13 1.557-4.118 4.21-5.516zm56.512 93.545-41.339 21.865c-4.306 2.278-10.858 2.278-15.164 0L79 134.299v51.368l41.247 21.701c2.437 1.304 4.972 2.575 7.44 2.63l.142.002c2.463.008 4.854-1.244 7.279-2.43l41.642-22.09zM65.106 183.5c0 4.47.515 7.408 1.537 9.478.848 1.716 2.12 3.027 4.44 4.622l.133.091c.51.346 1.071.709 1.754 1.136l.806.498 2.474 1.506-3.548 5.919-2.77-1.687-.465-.289a61 61 0 0 1-2.083-1.348c-6.617-4.5-9.085-9.407-9.133-19.615l-.001-.311zm59.394-80.25q-.481.165-.894.383l-43.937 23.273-.132.072-.037.022.069.04.1.054 43.937 23.273q.412.218.894.383zm7 0v47.5c.32-.11.621-.238.894-.383l43.937-23.273.132-.072.037-.022-.069-.04-.1-.054-43.937-23.273a6 6 0 0 0-.894-.383m45.25-25.5-39.5 20.75 39.5 20.75zm-97.75 0v41.5l39.5-20.75zm53.356-30.843c-2.287-1.21-6.425-1.21-8.712 0L79.669 70.156l-.132.072-.037.022.07.04.1.054 43.974 23.25c2.287 1.208 6.425 1.208 8.712 0l43.975-23.25.132-.072.037-.022-.069-.04-.1-.054zm50.942 2.343 2.77 1.687.465.289c.801.498 1.464.927 2.083 1.348 6.617 4.5 9.085 9.407 9.133 19.615l.001.311h-6.856c0-4.47-.515-7.408-1.537-9.478-.848-1.716-2.119-3.027-4.441-4.622l-.132-.09a54 54 0 0 0-1.754-1.137l-.806-.498-2.474-1.506z"/></svg></svg>