<svg xmlns="http://www.w3.org/2000/svg" width="48" height="48" fill="none" viewBox="0 0 48 48"><g clip-path="url(#a)"><path fill="url(#b)" d="M24 48a23.87 23.87 0 0 1-13.42-4.099 24.07 24.07 0 0 1-8.695-10.559 24 24 0 0 1-1.397-4.504 24.2 24.2 0 0 1 0-9.674 23.9 23.9 0 0 1 3.61-8.582 24.07 24.07 0 0 1 10.56-8.696A24 24 0 0 1 19.163.488c3.191-.65 6.481-.65 9.673 0a23.9 23.9 0 0 1 8.582 3.61 24.07 24.07 0 0 1 8.695 10.56 24 24 0 0 1 1.4 4.505c.65 3.191.65 6.481 0 9.673a23.9 23.9 0 0 1-3.612 8.582 24.07 24.07 0 0 1-10.559 8.695A23.9 23.9 0 0 1 24 48m0-45.429c-1.45 0-2.897.146-4.319.436A21.3 21.3 0 0 0 12.02 6.23a21.5 21.5 0 0 0-7.763 9.428 21.3 21.3 0 0 0-1.248 4.022c-.58 2.85-.58 5.788 0 8.638a21.3 21.3 0 0 0 3.225 7.662 21.5 21.5 0 0 0 9.428 7.764c1.296.547 2.643.966 4.022 1.248 2.85.58 5.787.58 8.637 0a21.3 21.3 0 0 0 7.663-3.225 21.5 21.5 0 0 0 7.76-9.427 21.3 21.3 0 0 0 1.25-4.023c.58-2.85.58-5.787 0-8.637a21.3 21.3 0 0 0-3.226-7.662 21.5 21.5 0 0 0-9.426-7.763 21.3 21.3 0 0 0-4.023-1.248A21.6 21.6 0 0 0 24 2.57"/></g><g clip-path="url(#c)"><svg xmlns="http://www.w3.org/2000/svg" width="48" height="48" viewBox="0 0 256 256"><path fill="#1969FF" d="M128 256c70.692 0 128-57.308 128-128S198.692 0 128 0 0 57.307 0 128c0 70.692 57.307 128 128 128"/><path fill="#fff" d="M120.238 40.705c4.313-2.273 10.874-2.273 15.187 0l44.004 23.199c2.597 1.369 4.023 3.41 4.279 5.516h.042v116.608c-.057 2.297-1.497 4.579-4.321 6.068l-44.004 23.199c-4.313 2.273-10.874 2.273-15.187 0l-44.004-23.199c-2.812-1.482-4.162-3.781-4.229-6.068a8 8 0 0 1 0-.588V70.205a6 6 0 0 1 0-.484v-.301h.02c.195-2.13 1.557-4.118 4.21-5.516zm56.512 93.545-41.339 21.865c-4.306 2.278-10.858 2.278-15.164 0L79 134.299v51.368l41.247 21.701c2.437 1.304 4.972 2.575 7.44 2.63l.142.002c2.463.008 4.854-1.244 7.279-2.43l41.642-22.09zM65.106 183.5c0 4.47.515 7.408 1.537 9.478.848 1.716 2.12 3.027 4.44 4.622l.133.091c.51.346 1.071.709 1.754 1.136l.806.498 2.474 1.506-3.548 5.919-2.77-1.687-.465-.289a61 61 0 0 1-2.083-1.348c-6.617-4.5-9.085-9.407-9.133-19.615l-.001-.311zm59.394-80.25q-.481.165-.894.383l-43.937 23.273-.132.072-.037.022.069.04.1.054 43.937 23.273q.412.218.894.383zm7 0v47.5c.32-.11.621-.238.894-.383l43.937-23.273.132-.072.037-.022-.069-.04-.1-.054-43.937-23.273a6 6 0 0 0-.894-.383m45.25-25.5-39.5 20.75 39.5 20.75zm-97.75 0v41.5l39.5-20.75zm53.356-30.843c-2.287-1.21-6.425-1.21-8.712 0L79.669 70.156l-.132.072-.037.022.07.04.1.054 43.974 23.25c2.287 1.208 6.425 1.208 8.712 0l43.975-23.25.132-.072.037-.022-.069-.04-.1-.054zm50.942 2.343 2.77 1.687.465.289c.801.498 1.464.927 2.083 1.348 6.617 4.5 9.085 9.407 9.133 19.615l.001.311h-6.856c0-4.47-.515-7.408-1.537-9.478-.848-1.716-2.119-3.027-4.441-4.622l-.132-.09a54 54 0 0 0-1.754-1.137l-.806-.498-2.474-1.506z"/></svg></g><defs><clipPath id="c"><circle cx="24" cy="24" r="20"/></clipPath><clipPath id="a"><path fill="#fff" d="M0 0h48v48H0z"/></clipPath><linearGradient id="b" x1="40.464" x2="9.888" y1="6.48" y2="42.528" gradientUnits="userSpaceOnUse"><stop stop-color="#B6509E"/><stop offset="1" stop-color="#2EBAC6"/></linearGradient></defs></svg>