<svg xmlns="http://www.w3.org/2000/svg" width="48" height="48" fill="none" viewBox="0 0 48 48"><g clip-path="url(#a)"><path fill="url(#b)" d="M24 48a23.87 23.87 0 0 1-13.42-4.099 24.07 24.07 0 0 1-8.695-10.559 24 24 0 0 1-1.397-4.504 24.2 24.2 0 0 1 0-9.674 23.9 23.9 0 0 1 3.61-8.582 24.07 24.07 0 0 1 10.56-8.696A24 24 0 0 1 19.163.488c3.191-.65 6.481-.65 9.673 0a23.9 23.9 0 0 1 8.582 3.61 24.07 24.07 0 0 1 8.695 10.56 24 24 0 0 1 1.4 4.505c.65 3.191.65 6.481 0 9.673a23.9 23.9 0 0 1-3.612 8.582 24.07 24.07 0 0 1-10.559 8.695A23.9 23.9 0 0 1 24 48m0-45.429c-1.45 0-2.897.146-4.319.436A21.3 21.3 0 0 0 12.02 6.23a21.5 21.5 0 0 0-7.763 9.428 21.3 21.3 0 0 0-1.248 4.022c-.58 2.85-.58 5.788 0 8.638a21.3 21.3 0 0 0 3.225 7.662 21.5 21.5 0 0 0 9.428 7.764c1.296.547 2.643.966 4.022 1.248 2.85.58 5.787.58 8.637 0a21.3 21.3 0 0 0 7.663-3.225 21.5 21.5 0 0 0 7.76-9.427 21.3 21.3 0 0 0 1.25-4.023c.58-2.85.58-5.787 0-8.637a21.3 21.3 0 0 0-3.226-7.662 21.5 21.5 0 0 0-9.426-7.763 21.3 21.3 0 0 0-4.023-1.248A21.6 21.6 0 0 0 24 2.57"/></g><g clip-path="url(#c)"><svg xmlns="http://www.w3.org/2000/svg" width="48" height="48" viewBox="0 0 48 48"><path fill="#000" d="M24 46.728c12.553 0 22.728-10.175 22.728-22.728C46.728 11.448 36.553 1.272 24 1.272 11.448 1.272 1.272 11.448 1.272 24S11.448 46.728 24 46.728"/><path fill="#fff" d="M33.23 29.515c0-2.101-.873-3.827-2.595-5.132-1.274-.965-3.054-1.756-5.94-2.644-5.198-1.597-5.198-2.516-5.198-3.256 0-1.023 1.514-2.44 4.354-2.44 1.681 0 4.503.423 4.503 3.261h4.727c0-1.337-.3-2.585-.867-3.674l3.794-3.793-3.343-3.343-3.866 3.867c-1.402-.687-3.08-1.044-4.946-1.044-1.74 0-3.338.335-4.716.98l-3.802-3.801-3.343 3.342 3.607 3.607a6.1 6.1 0 0 0-.828 3.04c0 2.101.874 3.827 2.596 5.132 1.273.965 3.048 1.755 5.935 2.642 5.197 1.595 5.2 2.518 5.2 3.258 0 1.023-1.513 2.44-4.353 2.44-1.681 0-4.503-.423-4.503-3.261h-4.728c0 1.342.302 2.594.873 3.686l-3.8 3.8 3.342 3.343 3.88-3.88c1.4.684 3.073 1.04 4.934 1.04 1.734 0 3.328-.334 4.703-.974l3.815 3.815 3.343-3.342-3.614-3.614c.544-.948.837-1.99.837-3.055"/></svg></g><defs><clipPath id="c"><circle cx="24" cy="24" r="20"/></clipPath><clipPath id="a"><path fill="#fff" d="M0 0h48v48H0z"/></clipPath><linearGradient id="b" x1="40.464" x2="9.888" y1="6.48" y2="42.528" gradientUnits="userSpaceOnUse"><stop stop-color="#B6509E"/><stop offset="1" stop-color="#2EBAC6"/></linearGradient></defs></svg>