<svg xmlns="http://www.w3.org/2000/svg" width="48" height="48" fill="none" viewBox="0 0 48 48"><g clip-path="url(#a)"><path fill="url(#b)" d="M24 48a23.87 23.87 0 0 1-13.42-4.099 24.07 24.07 0 0 1-8.695-10.559 24 24 0 0 1-1.397-4.504 24.2 24.2 0 0 1 0-9.674 23.9 23.9 0 0 1 3.61-8.582 24.07 24.07 0 0 1 10.56-8.696A24 24 0 0 1 19.163.488c3.191-.65 6.481-.65 9.673 0a23.9 23.9 0 0 1 8.582 3.61 24.07 24.07 0 0 1 8.695 10.56 24 24 0 0 1 1.4 4.505c.65 3.191.65 6.481 0 9.673a23.9 23.9 0 0 1-3.612 8.582 24.07 24.07 0 0 1-10.559 8.695A23.9 23.9 0 0 1 24 48m0-45.429c-1.45 0-2.897.146-4.319.436A21.3 21.3 0 0 0 12.02 6.23a21.5 21.5 0 0 0-7.763 9.428 21.3 21.3 0 0 0-1.248 4.022c-.58 2.85-.58 5.788 0 8.638a21.3 21.3 0 0 0 3.225 7.662 21.5 21.5 0 0 0 9.428 7.764c1.296.547 2.643.966 4.022 1.248 2.85.58 5.787.58 8.637 0a21.3 21.3 0 0 0 7.663-3.225 21.5 21.5 0 0 0 7.76-9.427 21.3 21.3 0 0 0 1.25-4.023c.58-2.85.58-5.787 0-8.637a21.3 21.3 0 0 0-3.226-7.662 21.5 21.5 0 0 0-9.426-7.763 21.3 21.3 0 0 0-4.023-1.248A21.6 21.6 0 0 0 24 2.57"/></g><g clip-path="url(#c)"><svg xmlns="http://www.w3.org/2000/svg" width="48" height="48" viewBox="0 0 48 48"><g clip-path="url(#d)"><g clip-path="url(#e)"><path fill="url(#f)" d="M48 24C48 10.745 37.255 0 24 0S0 10.745 0 24s10.745 24 24 24 24-10.745 24-24"/><g opacity=".8" style="mix-blend-mode:screen"><path fill="#fff" fill-rule="evenodd" d="M37.421 35.684v-4.762h-.013l-3.277-7.553h-5.244L32 30.758H21.848a7.3 7.3 0 0 1-5.203-2.171 7.34 7.34 0 0 1-2.167-5.214 7.34 7.34 0 0 1 2.167-5.213 7.3 7.3 0 0 1 5.203-2.17l9.673-.011-2.048-4.926-7.625.01c-6.774 0-12.532 5.522-12.532 12.31s5.758 12.311 12.532 12.311zM21.024 22.712a2.46 2.46 0 0 0 2.459-2.463 2.46 2.46 0 0 0-2.459-2.464 2.46 2.46 0 0 0-2.458 2.464 2.46 2.46 0 0 0 2.458 2.463m2.459 3.859a2.46 2.46 0 0 1-2.459 2.463 2.46 2.46 0 0 1-2.458-2.463 2.46 2.46 0 0 1 2.458-2.464 2.46 2.46 0 0 1 2.459 2.464" clip-rule="evenodd"/><path fill="#000" d="M37.421 30.922h.469v-.455l-.455-.013zm0 4.762v.469h.469v-.469zm-.013-4.762-.43.186.119.273.297.01zm-3.277-7.553.43-.187-.123-.282h-.307zm-5.244 0v-.47h-.707l.275.651zM32 30.758v.469h.706l-.275-.651zM21.848 15.99v.468zm9.673-.011.001.469.702-.001-.27-.648zm-2.048-4.926.433-.18-.12-.29h-.314zm-7.625.01v.469zm15.104 19.86v4.761h.938v-4.762zm.442.467h.013l.028-.936h-.012zm-3.693-7.835 3.277 7.553.86-.373-3.277-7.553zm-4.814.282h5.244V22.9h-5.244zm3.545 6.739-3.113-7.39-.864.364 3.114 7.39zm-10.584.65H32v-.937H21.848zm-5.534-2.308a7.78 7.78 0 0 0 5.534 2.309v-.938a6.84 6.84 0 0 1-4.871-2.033zm-2.305-5.545a7.8 7.8 0 0 0 2.305 5.545l.663-.662a6.87 6.87 0 0 1-2.03-4.883zm2.305-5.544a7.8 7.8 0 0 0-2.305 5.544h.938a6.87 6.87 0 0 1 2.03-4.881zm5.534-2.308c-2.084 0-4.05.821-5.534 2.308l.663.663a6.84 6.84 0 0 1 4.87-2.034zm9.673-.01-9.674.01.001.937 9.674-.01zm-2.481-4.278 2.049 4.926.865-.36-2.048-4.926zm-7.192.299 7.626-.01-.002-.938-7.625.01zM9.785 23.373c0-6.518 5.536-11.841 12.063-11.841v-.937c-7.022 0-13 5.72-13 12.778zm12.063 11.842c-6.527 0-12.063-5.323-12.063-11.842h-.938c0 7.059 5.979 12.78 13 12.78zm15.573 0H21.848v.938H37.42zM23.014 20.249a1.99 1.99 0 0 1-1.99 1.995v.937a2.93 2.93 0 0 0 2.927-2.931zm-1.99-1.994c1.098 0 1.99.892 1.99 1.994h.937a2.93 2.93 0 0 0-2.927-2.931zm-1.989 1.994c0-1.102.892-1.994 1.99-1.994v-.937a2.93 2.93 0 0 0-2.927 2.932zm1.99 1.995a1.99 1.99 0 0 1-1.99-1.994h-.937a2.93 2.93 0 0 0 2.926 2.931zm0 7.26a2.93 2.93 0 0 0 2.926-2.932h-.937a1.99 1.99 0 0 1-1.99 1.994zm-2.927-2.932a2.93 2.93 0 0 0 2.926 2.932v-.938a1.99 1.99 0 0 1-1.989-1.994zm2.926-2.932a2.93 2.93 0 0 0-2.927 2.932h.938c0-1.103.892-1.995 1.99-1.995zm2.927 2.932a2.93 2.93 0 0 0-2.927-2.932v.937c1.098 0 1.99.892 1.99 1.995z"/></g></g></g><defs><clipPath id="d"><path fill="#fff" d="M0 0h48v48H0z"/></clipPath><clipPath id="e"><path fill="#fff" d="M0 0h48v48H0z"/></clipPath><linearGradient id="f" x1="24" x2="24" y1="0" y2="48" gradientUnits="userSpaceOnUse"><stop stop-color="#B3B2D3"/><stop offset=".526" stop-color="#8C8ADA"/><stop offset="1" stop-color="#6D69DE"/></linearGradient></defs></svg></g><defs><clipPath id="c"><circle cx="24" cy="24" r="20"/></clipPath><clipPath id="a"><path fill="#fff" d="M0 0h48v48H0z"/></clipPath><linearGradient id="b" x1="40.464" x2="9.888" y1="6.48" y2="42.528" gradientUnits="userSpaceOnUse"><stop stop-color="#B6509E"/><stop offset="1" stop-color="#2EBAC6"/></linearGradient></defs></svg>