<svg width="48" height="48" viewBox="0 0 48 48"><defs><linearGradient id="a" x1="215.808" x2="52.736" y1="34.56" y2="226.816" gradientUnits="userSpaceOnUse"><stop offset="0" stop-color="#b6509e"/><stop offset="1" stop-color="#2ebac6"/></linearGradient></defs><path fill="url(#a)" d="M128 256a129 129 0 0 1-25.8-2.6 127.3 127.3 0 0 1-45.77-19.261 128.37 128.37 0 0 1-46.375-56.315A127.4 127.4 0 0 1 2.6 153.8a129.25 129.25 0 0 1 0-51.593 127.3 127.3 0 0 1 19.26-45.77 128.37 128.37 0 0 1 56.317-46.378A127.3 127.3 0 0 1 102.2 2.6a129.2 129.2 0 0 1 51.593 0 127.3 127.3 0 0 1 45.77 19.26 128.37 128.37 0 0 1 46.375 56.316A127.3 127.3 0 0 1 253.4 102.2a129.25 129.25 0 0 1 0 51.593 127.3 127.3 0 0 1-19.26 45.77 128.4 128.4 0 0 1-56.316 46.375A127.4 127.4 0 0 1 153.8 253.4 129 129 0 0 1 128 256m0-242.287a115 115 0 0 0-23.033 2.322A113.7 113.7 0 0 0 64.1 33.232a114.6 114.6 0 0 0-41.4 50.283 113.7 113.7 0 0 0-6.659 21.452 115.4 115.4 0 0 0 0 46.065 113.7 113.7 0 0 0 17.2 40.866 114.63 114.63 0 0 0 50.282 41.407 113.8 113.8 0 0 0 21.453 6.658 115.4 115.4 0 0 0 46.065 0 113.6 113.6 0 0 0 40.866-17.2 114.6 114.6 0 0 0 41.393-50.278 113.7 113.7 0 0 0 6.659-21.453 115.4 115.4 0 0 0 0-46.065 113.7 113.7 0 0 0-17.2-40.865A114.6 114.6 0 0 0 172.485 22.7a113.7 113.7 0 0 0-21.453-6.659A115 115 0 0 0 128 13.714Z" style="fill:url(#a)" transform="matrix(.1875 0 0 .1875 0 0)"/><svg xmlns="http://www.w3.org/2000/svg" width="30" height="30" x="9" y="9" fill="none" viewBox="0 0 256 256"><path fill="#FA34F3" d="M249.446 78.787h-6.574V52.51h-13.127V39.383h-13.128V26.255h-13.128V13.128h-26.255V0H78.787v13.128H52.53v13.127H39.404v13.128H26.276v13.128H13.128v26.276H0v23.121h256V78.787z"/><path fill="#CF15F9" d="M249.446 98.468H0v54.21h256v-54.21z"/><path fill="#AC15F9" d="M249.446 137.851H0v39.383h13.128v6.082h229.744v-6.082H256v-39.383z"/><path fill="#8F17F9" d="M236.319 177.234H13.127v26.255h13.149v13.128h13.127l.226 8.499h176.988v-8.499h13.127v-13.128h13.128v-26.255z"/><path fill="#7E18F8" d="M124.723 256H78.786v-13.128H52.531v-13.127H39.403v-13.128h177.214v13.128h-13.128v13.127h-26.255V256z"/><path fill="#fff" d="M166.134 148.173v4.505h9.031v-13.537h-9.031zm-9.032 4.505h-22.589v9.053h18.063v9.031h9.032v-9.031h4.526v-9.053zm-13.558-13.537h22.59v-9.052h-22.59zm-9.031-22.61v13.558h9.031v-13.558zm31.621-9.031h-4.526v-9.032h-9.032v9.032h-9.032v9.031h31.621V107.5zm58.737 0h-40.653v9.031h18.063v45.2h9.032v-45.2h18.084V107.5zm-108.442 0v22.589h-22.59V107.5h-9.031v54.231h9.031v-22.59h22.59v22.59h9.031V107.5zm-49.705 0H39.629v9.031h36.147V107.5zm9.052 45.178v-22.589H48.661v9.052h18.063v13.537zm-36.147 9.053h27.095v-9.053H39.629zm-9.052-45.2v36.147h9.052v-36.147z"/></svg></svg>