<svg xmlns="http://www.w3.org/2000/svg" width="48" height="48" fill="none" viewBox="0 0 48 48"><g clip-path="url(#a)"><path fill="url(#b)" d="M24 48a23.87 23.87 0 0 1-13.42-4.099 24.07 24.07 0 0 1-8.695-10.559 24 24 0 0 1-1.397-4.504 24.2 24.2 0 0 1 0-9.674 23.9 23.9 0 0 1 3.61-8.582 24.07 24.07 0 0 1 10.56-8.696A24 24 0 0 1 19.163.488c3.191-.65 6.481-.65 9.673 0a23.9 23.9 0 0 1 8.582 3.61 24.07 24.07 0 0 1 8.695 10.56 24 24 0 0 1 1.4 4.505c.65 3.191.65 6.481 0 9.673a23.9 23.9 0 0 1-3.612 8.582 24.07 24.07 0 0 1-10.559 8.695A23.9 23.9 0 0 1 24 48m0-45.429c-1.45 0-2.897.146-4.319.436A21.3 21.3 0 0 0 12.02 6.23a21.5 21.5 0 0 0-7.763 9.428 21.3 21.3 0 0 0-1.248 4.022c-.58 2.85-.58 5.788 0 8.638a21.3 21.3 0 0 0 3.225 7.662 21.5 21.5 0 0 0 9.428 7.764c1.296.547 2.643.966 4.022 1.248 2.85.58 5.787.58 8.637 0a21.3 21.3 0 0 0 7.663-3.225 21.5 21.5 0 0 0 7.76-9.427 21.3 21.3 0 0 0 1.25-4.023c.58-2.85.58-5.787 0-8.637a21.3 21.3 0 0 0-3.226-7.662 21.5 21.5 0 0 0-9.426-7.763 21.3 21.3 0 0 0-4.023-1.248A21.6 21.6 0 0 0 24 2.57"/></g><g clip-path="url(#c)"><svg xmlns="http://www.w3.org/2000/svg" width="48" height="48" viewBox="0 0 256 256"><path fill="#FA34F3" d="M249.446 78.787h-6.574V52.51h-13.127V39.383h-13.128V26.255h-13.128V13.128h-26.255V0H78.787v13.128H52.53v13.127H39.404v13.128H26.276v13.128H13.128v26.276H0v23.121h256V78.787z"/><path fill="#CF15F9" d="M249.446 98.468H0v54.21h256v-54.21z"/><path fill="#AC15F9" d="M249.446 137.851H0v39.383h13.128v6.082h229.744v-6.082H256v-39.383z"/><path fill="#8F17F9" d="M236.319 177.234H13.127v26.255h13.149v13.128h13.127l.226 8.499h176.988v-8.499h13.127v-13.128h13.128v-26.255z"/><path fill="#7E18F8" d="M124.723 256H78.786v-13.128H52.531v-13.127H39.403v-13.128h177.214v13.128h-13.128v13.127h-26.255V256z"/><path fill="#fff" d="M166.134 148.173v4.505h9.031v-13.537h-9.031zm-9.032 4.505h-22.589v9.053h18.063v9.031h9.032v-9.031h4.526v-9.053zm-13.558-13.537h22.59v-9.052h-22.59zm-9.031-22.61v13.558h9.031v-13.558zm31.621-9.031h-4.526v-9.032h-9.032v9.032h-9.032v9.031h31.621V107.5zm58.737 0h-40.653v9.031h18.063v45.2h9.032v-45.2h18.084V107.5zm-108.442 0v22.589h-22.59V107.5h-9.031v54.231h9.031v-22.59h22.59v22.59h9.031V107.5zm-49.705 0H39.629v9.031h36.147V107.5zm9.052 45.178v-22.589H48.661v9.052h18.063v13.537zm-36.147 9.053h27.095v-9.053H39.629zm-9.052-45.2v36.147h9.052v-36.147z"/></svg></g><defs><clipPath id="c"><circle cx="24" cy="24" r="20"/></clipPath><clipPath id="a"><path fill="#fff" d="M0 0h48v48H0z"/></clipPath><linearGradient id="b" x1="40.464" x2="9.888" y1="6.48" y2="42.528" gradientUnits="userSpaceOnUse"><stop stop-color="#B6509E"/><stop offset="1" stop-color="#2EBAC6"/></linearGradient></defs></svg>