<svg width="48" height="48" viewBox="0 0 48 48"><defs><linearGradient id="a" x1="215.808" x2="52.736" y1="34.56" y2="226.816" gradientUnits="userSpaceOnUse"><stop offset="0" stop-color="#b6509e"/><stop offset="1" stop-color="#2ebac6"/></linearGradient></defs><path fill="url(#a)" d="M128 256a129 129 0 0 1-25.8-2.6 127.3 127.3 0 0 1-45.77-19.261 128.37 128.37 0 0 1-46.375-56.315A127.4 127.4 0 0 1 2.6 153.8a129.25 129.25 0 0 1 0-51.593 127.3 127.3 0 0 1 19.26-45.77 128.37 128.37 0 0 1 56.317-46.378A127.3 127.3 0 0 1 102.2 2.6a129.2 129.2 0 0 1 51.593 0 127.3 127.3 0 0 1 45.77 19.26 128.37 128.37 0 0 1 46.375 56.316A127.3 127.3 0 0 1 253.4 102.2a129.25 129.25 0 0 1 0 51.593 127.3 127.3 0 0 1-19.26 45.77 128.4 128.4 0 0 1-56.316 46.375A127.4 127.4 0 0 1 153.8 253.4 129 129 0 0 1 128 256m0-242.287a115 115 0 0 0-23.033 2.322A113.7 113.7 0 0 0 64.1 33.232a114.6 114.6 0 0 0-41.4 50.283 113.7 113.7 0 0 0-6.659 21.452 115.4 115.4 0 0 0 0 46.065 113.7 113.7 0 0 0 17.2 40.866 114.63 114.63 0 0 0 50.282 41.407 113.8 113.8 0 0 0 21.453 6.658 115.4 115.4 0 0 0 46.065 0 113.6 113.6 0 0 0 40.866-17.2 114.6 114.6 0 0 0 41.393-50.278 113.7 113.7 0 0 0 6.659-21.453 115.4 115.4 0 0 0 0-46.065 113.7 113.7 0 0 0-17.2-40.865A114.6 114.6 0 0 0 172.485 22.7a113.7 113.7 0 0 0-21.453-6.659A115 115 0 0 0 128 13.714Z" style="fill:url(#a)" transform="matrix(.1875 0 0 .1875 0 0)"/><svg xmlns="http://www.w3.org/2000/svg" width="30" height="30" x="9" y="9" viewBox="0 0 32 32"><path fill-rule="evenodd" d="M16 32C7.163 32 0 24.837 0 16S7.163 0 16 0s16 7.163 16 16-7.163 16-16 16m8.777-21.5-.798.81c.635 1.011.834 2.28.4 3.494-.726 2.06-2.975 3.146-5.024 2.41-.29-.11-.562-.24-.798-.405L16 19.403l-2.23-2.28a4.02 4.02 0 0 1-3.61.459 4.09 4.09 0 0 1-2.43-5.224c.11-.331.273-.626.454-.901l-.961-.975-.182.312a10.74 10.74 0 0 0-1.54 5.537C5.48 22.2 10.196 27 15.98 27H16c5.785 0 10.482-4.764 10.5-10.632 0-1.95-.526-3.863-1.523-5.537zM9.363 12.652a2.23 2.23 0 0 0-.435 1.325c0 1.195.96 2.17 2.14 2.17.489 0 .942-.165 1.305-.46zm10.5 2.851c.344.24.743.368 1.197.368 1.178 0 2.14-.975 2.14-2.17 0-.442-.127-.865-.363-1.214zm-3.827 2.281 8.56-8.645-.327-.368A11.18 11.18 0 0 0 15.927 5h-.018c-3.137 0-6.057 1.288-8.197 3.587l-.344.368 8.668 8.83zm-7.254-8.83a10.08 10.08 0 0 1 7.145-2.924h.019c2.72 0 5.331 1.122 7.253 3.072l-7.163 7.23-7.254-7.377z"/></svg></svg>