<svg xmlns="http://www.w3.org/2000/svg" width="48" height="48" fill="none" viewBox="0 0 48 48"><g clip-path="url(#a)"><path fill="url(#b)" d="M24 48a23.87 23.87 0 0 1-13.42-4.099 24.07 24.07 0 0 1-8.695-10.559 24 24 0 0 1-1.397-4.504 24.2 24.2 0 0 1 0-9.674 23.9 23.9 0 0 1 3.61-8.582 24.07 24.07 0 0 1 10.56-8.696A24 24 0 0 1 19.163.488c3.191-.65 6.481-.65 9.673 0a23.9 23.9 0 0 1 8.582 3.61 24.07 24.07 0 0 1 8.695 10.56 24 24 0 0 1 1.4 4.505c.65 3.191.65 6.481 0 9.673a23.9 23.9 0 0 1-3.612 8.582 24.07 24.07 0 0 1-10.559 8.695A23.9 23.9 0 0 1 24 48m0-45.429c-1.45 0-2.897.146-4.319.436A21.3 21.3 0 0 0 12.02 6.23a21.5 21.5 0 0 0-7.763 9.428 21.3 21.3 0 0 0-1.248 4.022c-.58 2.85-.58 5.788 0 8.638a21.3 21.3 0 0 0 3.225 7.662 21.5 21.5 0 0 0 9.428 7.764c1.296.547 2.643.966 4.022 1.248 2.85.58 5.787.58 8.637 0a21.3 21.3 0 0 0 7.663-3.225 21.5 21.5 0 0 0 7.76-9.427 21.3 21.3 0 0 0 1.25-4.023c.58-2.85.58-5.787 0-8.637a21.3 21.3 0 0 0-3.226-7.662 21.5 21.5 0 0 0-9.426-7.763 21.3 21.3 0 0 0-4.023-1.248A21.6 21.6 0 0 0 24 2.57"/></g><g clip-path="url(#c)"><svg xmlns="http://www.w3.org/2000/svg" width="48" height="48" viewBox="0 0 48 48"><g clip-path="url(#d)"><path fill="#000" fill-rule="evenodd" d="M24 48C10.745 48 0 37.255 0 24S10.745 0 24 0s24 10.745 24 24-10.745 24-24 24m13.166-32.25-1.197 1.215c.952 1.517 1.25 3.42.6 5.241-1.09 3.09-4.463 4.719-7.537 3.615a5.5 5.5 0 0 1-1.197-.608L24 29.106l-3.345-3.42a6.03 6.03 0 0 1-5.415.688 6.135 6.135 0 0 1-3.645-7.836c.165-.496.41-.939.681-1.351l-1.441-1.463-.274.468a16.1 16.1 0 0 0-2.31 8.306C8.22 33.3 15.295 40.5 23.97 40.5H24c8.678 0 15.723-7.146 15.75-15.948a16.23 16.23 0 0 0-2.285-8.305zm-23.121 3.228a3.35 3.35 0 0 0-.653 1.987c0 1.793 1.44 3.256 3.21 3.256a3.08 3.08 0 0 0 1.957-.69zm15.75 4.276c.515.36 1.114.552 1.795.552 1.767 0 3.21-1.462 3.21-3.254a3.25 3.25 0 0 0-.544-1.822zm-5.741 3.422 12.84-12.967-.49-.553A16.77 16.77 0 0 0 23.89 7.5h-.027c-4.705 0-9.085 1.932-12.295 5.38l-.516.552zM13.173 13.431a15.12 15.12 0 0 1 10.718-4.386h.028c4.08 0 7.997 1.683 10.88 4.608L24.054 24.498z" clip-rule="evenodd"/></g><defs><clipPath id="d"><path fill="#fff" d="M0 0h48v48H0z"/></clipPath></defs></svg></g><defs><clipPath id="c"><circle cx="24" cy="24" r="20"/></clipPath><clipPath id="a"><path fill="#fff" d="M0 0h48v48H0z"/></clipPath><linearGradient id="b" x1="40.464" x2="9.888" y1="6.48" y2="42.528" gradientUnits="userSpaceOnUse"><stop stop-color="#B6509E"/><stop offset="1" stop-color="#2EBAC6"/></linearGradient></defs></svg>