<svg xmlns="http://www.w3.org/2000/svg" width="48" height="48" fill="none" viewBox="0 0 48 48"><g clip-path="url(#a)"><path fill="url(#b)" d="M24 48a23.87 23.87 0 0 1-13.42-4.099 24.07 24.07 0 0 1-8.695-10.559 24 24 0 0 1-1.397-4.504 24.2 24.2 0 0 1 0-9.674 23.9 23.9 0 0 1 3.61-8.582 24.07 24.07 0 0 1 10.56-8.696A24 24 0 0 1 19.163.488c3.191-.65 6.481-.65 9.673 0a23.9 23.9 0 0 1 8.582 3.61 24.07 24.07 0 0 1 8.695 10.56 24 24 0 0 1 1.4 4.505c.65 3.191.65 6.481 0 9.673a23.9 23.9 0 0 1-3.612 8.582 24.07 24.07 0 0 1-10.559 8.695A23.9 23.9 0 0 1 24 48m0-45.429c-1.45 0-2.897.146-4.319.436A21.3 21.3 0 0 0 12.02 6.23a21.5 21.5 0 0 0-7.763 9.428 21.3 21.3 0 0 0-1.248 4.022c-.58 2.85-.58 5.788 0 8.638a21.3 21.3 0 0 0 3.225 7.662 21.5 21.5 0 0 0 9.428 7.764c1.296.547 2.643.966 4.022 1.248 2.85.58 5.787.58 8.637 0a21.3 21.3 0 0 0 7.663-3.225 21.5 21.5 0 0 0 7.76-9.427 21.3 21.3 0 0 0 1.25-4.023c.58-2.85.58-5.787 0-8.637a21.3 21.3 0 0 0-3.226-7.662 21.5 21.5 0 0 0-9.426-7.763 21.3 21.3 0 0 0-4.023-1.248A21.6 21.6 0 0 0 24 2.57"/></g><g clip-path="url(#c)"><svg xmlns="http://www.w3.org/2000/svg" width="48" height="48" viewBox="0 0 48 48"><g clip-path="url(#d)"><circle cx="24" cy="24" r="24" fill="#192D22"/><path fill="#FDBC33" d="M15.562 12q2.273-.025 4.544-.039 1.06-.005 2.117-.018 1.024-.011 2.047-.014l.773-.008c3.611-.055 6.72 1.008 9.369 3.513 2.05 2.036 3.474 4.964 3.534 7.88-.009 3.566-1.11 6.823-3.666 9.381-2.702 2.511-5.773 3.402-9.397 3.36q-1.463-.003-2.924-.016-1.274-.01-2.547-.013-1.924-.01-3.85-.026v-6.75h-3c-.1-2.26-.1-2.26.34-2.93.436-.472.74-.8 1.397-.857l1.264.037v-3l-.786.047c-.652 0-.873-.03-1.453-.375-.97-1.058-.791-2.036-.761-3.422h3z"/><path fill="#192D22" d="M19.313 15.75q1.575-.027 3.15-.041.535-.007 1.069-.016c3.152-.056 5.64.206 8.097 2.377 1.686 1.915 2.59 3.659 2.543 6.241-.156 2.076-1.002 4.207-2.484 5.689-1.988 1.642-4.068 2.284-6.608 2.268h-.5l-1.576-.006q-1.845-.003-3.691-.012v-3l.77-.005q1.422-.012 2.843-.034.613-.008 1.228-.012.885-.007 1.769-.022h.55c1.157-.026 1.815-.225 2.777-.864h.375c.452-.904.78-1.864 1.125-2.813H19.313v-3h11.25c-.25-1.45-.25-1.45-.938-2.437v-.375l-.41-.165c-.527-.21-.527-.21-.908-.406-.826-.266-1.631-.247-2.494-.257l-.564-.011q-.888-.016-1.776-.029l-1.207-.021q-1.477-.027-2.953-.049z"/><path fill="#FCFDFD" d="M47.812 26.25H48V48H26.25v-.188l.605-.096c6.61-1.089 12.539-4.099 16.528-9.642 2.48-3.576 3.859-7.524 4.43-11.824"/></g><defs><clipPath id="d"><path fill="#fff" d="M0 0h48v48H0z"/></clipPath></defs></svg></g><defs><clipPath id="c"><circle cx="24" cy="24" r="20"/></clipPath><clipPath id="a"><path fill="#fff" d="M0 0h48v48H0z"/></clipPath><linearGradient id="b" x1="40.464" x2="9.888" y1="6.48" y2="42.528" gradientUnits="userSpaceOnUse"><stop stop-color="#B6509E"/><stop offset="1" stop-color="#2EBAC6"/></linearGradient></defs></svg>