<svg xmlns="http://www.w3.org/2000/svg" width="48" height="48" fill="none" viewBox="0 0 48 48"><g clip-path="url(#a)"><path fill="url(#b)" d="M24 48a23.87 23.87 0 0 1-13.42-4.099 24.07 24.07 0 0 1-8.695-10.559 24 24 0 0 1-1.397-4.504 24.2 24.2 0 0 1 0-9.674 23.9 23.9 0 0 1 3.61-8.582 24.07 24.07 0 0 1 10.56-8.696A24 24 0 0 1 19.163.488c3.191-.65 6.481-.65 9.673 0a23.9 23.9 0 0 1 8.582 3.61 24.07 24.07 0 0 1 8.695 10.56 24 24 0 0 1 1.4 4.505c.65 3.191.65 6.481 0 9.673a23.9 23.9 0 0 1-3.612 8.582 24.07 24.07 0 0 1-10.559 8.695A23.9 23.9 0 0 1 24 48m0-45.429c-1.45 0-2.897.146-4.319.436A21.3 21.3 0 0 0 12.02 6.23a21.5 21.5 0 0 0-7.763 9.428 21.3 21.3 0 0 0-1.248 4.022c-.58 2.85-.58 5.788 0 8.638a21.3 21.3 0 0 0 3.225 7.662 21.5 21.5 0 0 0 9.428 7.764c1.296.547 2.643.966 4.022 1.248 2.85.58 5.787.58 8.637 0a21.3 21.3 0 0 0 7.663-3.225 21.5 21.5 0 0 0 7.76-9.427 21.3 21.3 0 0 0 1.25-4.023c.58-2.85.58-5.787 0-8.637a21.3 21.3 0 0 0-3.226-7.662 21.5 21.5 0 0 0-9.426-7.763 21.3 21.3 0 0 0-4.023-1.248A21.6 21.6 0 0 0 24 2.57"/></g><g clip-path="url(#c)"><svg xmlns="http://www.w3.org/2000/svg" width="48" height="48" viewBox="0 0 256 256"><g clip-path="url(#d)"><path fill="#fff" d="M128 256c70.692 0 128-57.308 128-128S198.692 0 128 0 0 57.307 0 128c0 70.692 57.307 128 128 128"/><path fill="#26DDF9" d="M152.901 48.902a55.45 55.45 0 0 0-54.784 49.213 55.1 55.1 0 0 0-46.075 36.458 55.11 55.11 0 0 0 39.772 72.073 55.107 55.107 0 0 0 66.987-47.844 55.104 55.104 0 0 0 49.171-57.748 55.105 55.105 0 0 0-55.071-52.152m42.194 61.341a42.93 42.93 0 0 1-12.081 23.883 42.93 42.93 0 0 1-23.883 12.081v-35.964zM61.822 146.67a42.92 42.92 0 0 1 35.966-35.968v35.968zm84.391 12.457a42.654 42.654 0 0 1-84.392 0zm.46-48.884v36.427h-36.429v-36.427zm48.424-12.457h-84.393a42.654 42.654 0 0 1 84.392 0z"/><path fill="#26DDF9" d="M128 256a129 129 0 0 1-25.8-2.6 127.3 127.3 0 0 1-45.769-19.26 128.37 128.37 0 0 1-46.375-56.316A127.4 127.4 0 0 1 2.6 153.8a129.25 129.25 0 0 1 0-51.593 127.3 127.3 0 0 1 19.26-45.773 128.37 128.37 0 0 1 56.317-46.375A127.4 127.4 0 0 1 102.2 2.6a129.25 129.25 0 0 1 51.593 0 127.3 127.3 0 0 1 45.77 19.26 128.4 128.4 0 0 1 46.375 56.316A127.3 127.3 0 0 1 253.4 102.2a129.3 129.3 0 0 1 0 51.593 127.3 127.3 0 0 1-19.26 45.77 128.37 128.37 0 0 1-56.316 46.375A127.3 127.3 0 0 1 153.8 253.4 129 129 0 0 1 128 256m0-252a125 125 0 0 0-24.99 2.519 123.3 123.3 0 0 0-44.34 18.658 124.37 124.37 0 0 0-44.926 54.557 123.4 123.4 0 0 0-7.225 23.276 125.2 125.2 0 0 0 0 49.981 123.3 123.3 0 0 0 18.658 44.339 124.36 124.36 0 0 0 54.556 44.926 123.3 123.3 0 0 0 23.276 7.225 125.2 125.2 0 0 0 49.981 0 123.3 123.3 0 0 0 44.339-18.658 124.36 124.36 0 0 0 44.926-54.556 123.3 123.3 0 0 0 7.225-23.276 125.2 125.2 0 0 0 0-49.981 123.3 123.3 0 0 0-18.657-44.34 124.37 124.37 0 0 0-54.556-44.926 123.4 123.4 0 0 0-23.277-7.225A125 125 0 0 0 128 4"/></g><defs><clipPath id="d"><path fill="#fff" d="M0 0h256v256H0z"/></clipPath></defs></svg></g><defs><clipPath id="c"><circle cx="24" cy="24" r="20"/></clipPath><clipPath id="a"><path fill="#fff" d="M0 0h48v48H0z"/></clipPath><linearGradient id="b" x1="40.464" x2="9.888" y1="6.48" y2="42.528" gradientUnits="userSpaceOnUse"><stop stop-color="#B6509E"/><stop offset="1" stop-color="#2EBAC6"/></linearGradient></defs></svg>