<svg width="48" height="48" viewBox="0 0 48 48"><defs><linearGradient id="a" x1="215.808" x2="52.736" y1="34.56" y2="226.816" gradientUnits="userSpaceOnUse"><stop offset="0"/><stop offset="1"/></linearGradient></defs><path fill="url(#a)" d="M128 256a129 129 0 0 1-25.8-2.6 127.3 127.3 0 0 1-45.77-19.261 128.37 128.37 0 0 1-46.375-56.315A127.4 127.4 0 0 1 2.6 153.8a129.25 129.25 0 0 1 0-51.593 127.3 127.3 0 0 1 19.26-45.77 128.37 128.37 0 0 1 56.317-46.378A127.3 127.3 0 0 1 102.2 2.6a129.2 129.2 0 0 1 51.593 0 127.3 127.3 0 0 1 45.77 19.26 128.37 128.37 0 0 1 46.375 56.316A127.3 127.3 0 0 1 253.4 102.2a129.25 129.25 0 0 1 0 51.593 127.3 127.3 0 0 1-19.26 45.77 128.4 128.4 0 0 1-56.316 46.375A127.4 127.4 0 0 1 153.8 253.4 129 129 0 0 1 128 256m0-242.287a115 115 0 0 0-23.033 2.322A113.7 113.7 0 0 0 64.1 33.232a114.6 114.6 0 0 0-41.4 50.283 113.7 113.7 0 0 0-6.659 21.452 115.4 115.4 0 0 0 0 46.065 113.7 113.7 0 0 0 17.2 40.866 114.63 114.63 0 0 0 50.282 41.407 113.8 113.8 0 0 0 21.453 6.658 115.4 115.4 0 0 0 46.065 0 113.6 113.6 0 0 0 40.866-17.2 114.6 114.6 0 0 0 41.393-50.278 113.7 113.7 0 0 0 6.659-21.453 115.4 115.4 0 0 0 0-46.065 113.7 113.7 0 0 0-17.2-40.865A114.6 114.6 0 0 0 172.485 22.7a113.7 113.7 0 0 0-21.453-6.659A115 115 0 0 0 128 13.714Z" style="fill:url(#a)" transform="matrix(.1875 0 0 .1875 0 0)"/><svg xmlns="http://www.w3.org/2000/svg" width="30" height="30" x="9" y="9" fill="none" viewBox="0 0 256 256"><g clip-path="url(#b)"><path fill="#FC0" d="M128 251.897c68.427 0 123.897-55.47 123.897-123.897S196.427 4.103 128 4.103 4.103 59.573 4.103 128 59.573 251.897 128 251.897"/><path fill="#039" d="M128 10.667a116.778 116.778 0 1 0 82.965 34.368A117.33 117.33 0 0 0 128 10.667M128 0a128.001 128.001 0 0 1 90.51 218.51A128 128 0 1 1 128 0"/><path fill="#039" d="M234.667 128a106.66 106.66 0 0 1-65.847 98.547A106.672 106.672 0 0 1 23.383 148.81 106.667 106.667 0 0 1 128 21.333 106.524 106.524 0 0 1 234.667 128"/><path fill="#FC0" d="m128 44.373 2.56 7.68h7.68l-5.973 5.12 2.56 6.827L128 59.733 121.174 64l2.56-6.827-5.974-5.12h7.68zm-37.546 10.24 2.56 7.68h7.68l-6.827 4.267 2.56 7.68-5.973-4.267-6.827 4.267 2.56-7.68-6.827-4.267h8.534zM62.294 81.92l2.56 7.68h8.533l-6.827 4.267 2.56 7.68-6.826-5.12-5.974 5.12 2.56-7.68-6.826-4.267h7.68zm103.253-27.307 2.56 7.68h8.533l-6.826 4.267 2.56 7.68-6.827-4.267-5.973 4.267 2.56-7.68-6.827-4.267h7.68zm37.547 34.134-6.827 4.266 2.56 7.68L192 96.427l-5.973 4.266 2.56-7.68-6.827-4.266h7.68l2.56-7.68 2.56 7.68zm10.24 37.546-6.827 4.267 2.56 7.68-5.973-5.12-6.827 5.12 2.56-7.68-6.827-4.267h8.534l2.56-7.68 1.706 7.68zM199.68 174.08l-6.826-5.12-6.827 5.12 2.56-7.68-5.973-4.267h7.68l2.56-7.68 2.56 7.68h8.533l-6.827 4.267zm-77.653 37.547 2.56-7.68-6.827-5.12h8.534l2.56-7.68 2.56 7.68h7.68l-5.974 5.12 1.707 7.68-5.973-5.12zm-37.547-10.24 2.56-7.68-6.826-4.267h7.68l2.56-7.68 2.56 7.68h8.533l-6.827 4.267 2.56 7.68-6.826-4.267zm87.04 0-5.973-5.12-6.827 5.12 2.56-7.68-6.826-4.267h8.533l2.56-7.68 2.56 7.68h7.68l-6.827 4.267zM42.667 126.293H51.2l1.707-7.68 2.56 7.68H64l-6.826 4.267 2.56 7.68-6.827-4.267-5.973 4.267 2.56-7.68zM56.32 174.08l2.56-7.68-6.826-4.267h8.533l2.56-7.68 2.56 7.68h7.68l-5.973 4.267 2.56 7.68-6.827-5.12z"/></g><defs><clipPath id="b"><path fill="#fff" d="M0 0h256v256H0z"/></clipPath></defs></svg></svg>