<svg xmlns="http://www.w3.org/2000/svg" width="48" height="48" fill="none" viewBox="0 0 48 48"><g clip-path="url(#a)"><path fill="url(#b)" d="M24 48a23.87 23.87 0 0 1-13.42-4.099 24.07 24.07 0 0 1-8.695-10.559 24 24 0 0 1-1.397-4.504 24.2 24.2 0 0 1 0-9.674 23.9 23.9 0 0 1 3.61-8.582 24.07 24.07 0 0 1 10.56-8.696A24 24 0 0 1 19.163.488c3.191-.65 6.481-.65 9.673 0a23.9 23.9 0 0 1 8.582 3.61 24.07 24.07 0 0 1 8.695 10.56 24 24 0 0 1 1.4 4.505c.65 3.191.65 6.481 0 9.673a23.9 23.9 0 0 1-3.612 8.582 24.07 24.07 0 0 1-10.559 8.695A23.9 23.9 0 0 1 24 48m0-45.429c-1.45 0-2.897.146-4.319.436A21.3 21.3 0 0 0 12.02 6.23a21.5 21.5 0 0 0-7.763 9.428 21.3 21.3 0 0 0-1.248 4.022c-.58 2.85-.58 5.788 0 8.638a21.3 21.3 0 0 0 3.225 7.662 21.5 21.5 0 0 0 9.428 7.764c1.296.547 2.643.966 4.022 1.248 2.85.58 5.787.58 8.637 0a21.3 21.3 0 0 0 7.663-3.225 21.5 21.5 0 0 0 7.76-9.427 21.3 21.3 0 0 0 1.25-4.023c.58-2.85.58-5.787 0-8.637a21.3 21.3 0 0 0-3.226-7.662 21.5 21.5 0 0 0-9.426-7.763 21.3 21.3 0 0 0-4.023-1.248A21.6 21.6 0 0 0 24 2.57"/></g><g clip-path="url(#c)"><svg xmlns="http://www.w3.org/2000/svg" width="48" height="48" viewBox="0 0 256 256"><g clip-path="url(#d)"><path fill="#FC0" d="M128 251.897c68.427 0 123.897-55.47 123.897-123.897S196.427 4.103 128 4.103 4.103 59.573 4.103 128 59.573 251.897 128 251.897"/><path fill="#039" d="M128 10.667a116.778 116.778 0 1 0 82.965 34.368A117.33 117.33 0 0 0 128 10.667M128 0a128.001 128.001 0 0 1 90.51 218.51A128 128 0 1 1 128 0"/><path fill="#039" d="M234.667 128a106.66 106.66 0 0 1-65.847 98.547A106.672 106.672 0 0 1 23.383 148.81 106.667 106.667 0 0 1 128 21.333 106.524 106.524 0 0 1 234.667 128"/><path fill="#FC0" d="m128 44.373 2.56 7.68h7.68l-5.973 5.12 2.56 6.827L128 59.733 121.174 64l2.56-6.827-5.974-5.12h7.68zm-37.546 10.24 2.56 7.68h7.68l-6.827 4.267 2.56 7.68-5.973-4.267-6.827 4.267 2.56-7.68-6.827-4.267h8.534zM62.294 81.92l2.56 7.68h8.533l-6.827 4.267 2.56 7.68-6.826-5.12-5.974 5.12 2.56-7.68-6.826-4.267h7.68zm103.253-27.307 2.56 7.68h8.533l-6.826 4.267 2.56 7.68-6.827-4.267-5.973 4.267 2.56-7.68-6.827-4.267h7.68zm37.547 34.134-6.827 4.266 2.56 7.68L192 96.427l-5.973 4.266 2.56-7.68-6.827-4.266h7.68l2.56-7.68 2.56 7.68zm10.24 37.546-6.827 4.267 2.56 7.68-5.973-5.12-6.827 5.12 2.56-7.68-6.827-4.267h8.534l2.56-7.68 1.706 7.68zM199.68 174.08l-6.826-5.12-6.827 5.12 2.56-7.68-5.973-4.267h7.68l2.56-7.68 2.56 7.68h8.533l-6.827 4.267zm-77.653 37.547 2.56-7.68-6.827-5.12h8.534l2.56-7.68 2.56 7.68h7.68l-5.974 5.12 1.707 7.68-5.973-5.12zm-37.547-10.24 2.56-7.68-6.826-4.267h7.68l2.56-7.68 2.56 7.68h8.533l-6.827 4.267 2.56 7.68-6.826-4.267zm87.04 0-5.973-5.12-6.827 5.12 2.56-7.68-6.826-4.267h8.533l2.56-7.68 2.56 7.68h7.68l-6.827 4.267zM42.667 126.293H51.2l1.707-7.68 2.56 7.68H64l-6.826 4.267 2.56 7.68-6.827-4.267-5.973 4.267 2.56-7.68zM56.32 174.08l2.56-7.68-6.826-4.267h8.533l2.56-7.68 2.56 7.68h7.68l-5.973 4.267 2.56 7.68-6.827-5.12z"/></g><defs><clipPath id="d"><path fill="#fff" d="M0 0h256v256H0z"/></clipPath></defs></svg></g><defs><clipPath id="c"><circle cx="24" cy="24" r="20"/></clipPath><clipPath id="a"><path fill="#fff" d="M0 0h48v48H0z"/></clipPath><linearGradient id="b" x1="40.464" x2="9.888" y1="6.48" y2="42.528" gradientUnits="userSpaceOnUse"><stop stop-color="#B6509E"/><stop offset="1" stop-color="#2EBAC6"/></linearGradient></defs></svg>