<svg width="48" height="48" viewBox="0 0 48 48"><defs><linearGradient id="a" x1="215.808" x2="52.736" y1="34.56" y2="226.816" gradientUnits="userSpaceOnUse"><stop offset="0" stop-color="#b6509e"/><stop offset="1" stop-color="#2ebac6"/></linearGradient></defs><path fill="url(#a)" d="M128 256a129 129 0 0 1-25.8-2.6 127.3 127.3 0 0 1-45.77-19.261 128.37 128.37 0 0 1-46.375-56.315A127.4 127.4 0 0 1 2.6 153.8a129.25 129.25 0 0 1 0-51.593 127.3 127.3 0 0 1 19.26-45.77 128.37 128.37 0 0 1 56.317-46.378A127.3 127.3 0 0 1 102.2 2.6a129.2 129.2 0 0 1 51.593 0 127.3 127.3 0 0 1 45.77 19.26 128.37 128.37 0 0 1 46.375 56.316A127.3 127.3 0 0 1 253.4 102.2a129.25 129.25 0 0 1 0 51.593 127.3 127.3 0 0 1-19.26 45.77 128.4 128.4 0 0 1-56.316 46.375A127.4 127.4 0 0 1 153.8 253.4 129 129 0 0 1 128 256m0-242.287a115 115 0 0 0-23.033 2.322A113.7 113.7 0 0 0 64.1 33.232a114.6 114.6 0 0 0-41.4 50.283 113.7 113.7 0 0 0-6.659 21.452 115.4 115.4 0 0 0 0 46.065 113.7 113.7 0 0 0 17.2 40.866 114.63 114.63 0 0 0 50.282 41.407 113.8 113.8 0 0 0 21.453 6.658 115.4 115.4 0 0 0 46.065 0 113.6 113.6 0 0 0 40.866-17.2 114.6 114.6 0 0 0 41.393-50.278 113.7 113.7 0 0 0 6.659-21.453 115.4 115.4 0 0 0 0-46.065 113.7 113.7 0 0 0-17.2-40.865A114.6 114.6 0 0 0 172.485 22.7a113.7 113.7 0 0 0-21.453-6.659A115 115 0 0 0 128 13.714Z" style="fill:url(#a)" transform="matrix(.1875 0 0 .1875 0 0)"/><svg xmlns="http://www.w3.org/2000/svg" xml:space="preserve" width="30" height="30" x="9" y="9" viewBox="0 0 100 100"><path d="M50 100c27.6 0 50-22.4 50-50S77.6 0 50 0 0 22.4 0 50s22.4 50 50 50" style="fill:#31cb9e"/><path d="M44.6 54.7 74 70.5c1 .5 1.1 1.8.2 2.4L54.3 87.2c-.9.7-2.2.2-2.5-.9zm-.9-40.3c1.2-.8 2.8.1 2.5 1.5L38.3 50l7.8 34.1c.3 1.3-1.3 2.3-2.5 1.5l-20-14.3c-1-.7-1.6-1.9-1.6-3.1V31.8c0-1.2.6-2.4 1.6-3.1zm32.2 19.5c1-.6 2.4.1 2.4 1.3v29.6c0 1.1-1.3 1.8-2.4 1.3L46 50zM51.8 13.7c.2-1.1 1.6-1.5 2.5-.9L74.2 27c.9.6.8 1.9-.2 2.4L44.6 45.3z" style="fill:#fff"/></svg></svg>