<svg xmlns="http://www.w3.org/2000/svg" width="48" height="48" fill="none" viewBox="0 0 48 48"><g clip-path="url(#a)"><path fill="url(#b)" d="M24 48a23.87 23.87 0 0 1-13.42-4.099 24.07 24.07 0 0 1-8.695-10.559 24 24 0 0 1-1.397-4.504 24.2 24.2 0 0 1 0-9.674 23.9 23.9 0 0 1 3.61-8.582 24.07 24.07 0 0 1 10.56-8.696A24 24 0 0 1 19.163.488c3.191-.65 6.481-.65 9.673 0a23.9 23.9 0 0 1 8.582 3.61 24.07 24.07 0 0 1 8.695 10.56 24 24 0 0 1 1.4 4.505c.65 3.191.65 6.481 0 9.673a23.9 23.9 0 0 1-3.612 8.582 24.07 24.07 0 0 1-10.559 8.695A23.9 23.9 0 0 1 24 48m0-45.429c-1.45 0-2.897.146-4.319.436A21.3 21.3 0 0 0 12.02 6.23a21.5 21.5 0 0 0-7.763 9.428 21.3 21.3 0 0 0-1.248 4.022c-.58 2.85-.58 5.788 0 8.638a21.3 21.3 0 0 0 3.225 7.662 21.5 21.5 0 0 0 9.428 7.764c1.296.547 2.643.966 4.022 1.248 2.85.58 5.787.58 8.637 0a21.3 21.3 0 0 0 7.663-3.225 21.5 21.5 0 0 0 7.76-9.427 21.3 21.3 0 0 0 1.25-4.023c.58-2.85.58-5.787 0-8.637a21.3 21.3 0 0 0-3.226-7.662 21.5 21.5 0 0 0-9.426-7.763 21.3 21.3 0 0 0-4.023-1.248A21.6 21.6 0 0 0 24 2.57"/></g><g clip-path="url(#c)"><svg xmlns="http://www.w3.org/2000/svg" width="48" height="48" viewBox="0 0 256 256"><path fill="#6C8275" d="M128 256c70.692 0 128-57.308 128-128S198.692 0 128 0 0 57.307 0 128c0 70.692 57.307 128 128 128"/><path fill="#fff" d="m118.179 128.005 69.288 39.689a3.66 3.66 0 0 0 3.697.043 3.66 3.66 0 0 0 1.846-3.203V91.421a3.64 3.64 0 0 0-1.844-3.207 3.63 3.63 0 0 0-3.699.075zm67.819-57.288-47.366-34.838a3.764 3.764 0 0 0-5.037.405c-.424.45-.731.998-.894 1.595l-17.294 77.599 70.175-38.8a3.5 3.5 0 0 0 1.887-2.862 3.5 3.5 0 0 0-1.471-3.097m-47.421 149.385 47.421-34.839a3.54 3.54 0 0 0 1.5-3.131 3.56 3.56 0 0 0-1.891-2.912l-70.2-38.8 17.294 77.6a3.746 3.746 0 0 0 4.185 2.836 3.76 3.76 0 0 0 1.691-.702"/><path fill="#fff" d="m100.163 126.564 18.015-84.255a3.575 3.575 0 0 0-5.543-3.627L66.489 74.071a9.56 9.56 0 0 0-3.742 7.622v89.8a9.56 9.56 0 0 0 3.742 7.733l45.924 35.282a3.576 3.576 0 0 0 5.543-3.631z"/></svg></g><defs><clipPath id="c"><circle cx="24" cy="24" r="20"/></clipPath><clipPath id="a"><path fill="#fff" d="M0 0h48v48H0z"/></clipPath><linearGradient id="b" x1="40.464" x2="9.888" y1="6.48" y2="42.528" gradientUnits="userSpaceOnUse"><stop stop-color="#B6509E"/><stop offset="1" stop-color="#2EBAC6"/></linearGradient></defs></svg>