<svg width="48" height="48" viewBox="0 0 48 48"><defs><linearGradient id="a" x1="215.808" x2="52.736" y1="34.56" y2="226.816" gradientUnits="userSpaceOnUse"><stop offset="0"/><stop offset="1"/></linearGradient></defs><path fill="url(#a)" d="M128 256a129 129 0 0 1-25.8-2.6 127.3 127.3 0 0 1-45.77-19.261 128.37 128.37 0 0 1-46.375-56.315A127.4 127.4 0 0 1 2.6 153.8a129.25 129.25 0 0 1 0-51.593 127.3 127.3 0 0 1 19.26-45.77 128.37 128.37 0 0 1 56.317-46.378A127.3 127.3 0 0 1 102.2 2.6a129.2 129.2 0 0 1 51.593 0 127.3 127.3 0 0 1 45.77 19.26 128.37 128.37 0 0 1 46.375 56.316A127.3 127.3 0 0 1 253.4 102.2a129.25 129.25 0 0 1 0 51.593 127.3 127.3 0 0 1-19.26 45.77 128.4 128.4 0 0 1-56.316 46.375A127.4 127.4 0 0 1 153.8 253.4 129 129 0 0 1 128 256m0-242.287a115 115 0 0 0-23.033 2.322A113.7 113.7 0 0 0 64.1 33.232a114.6 114.6 0 0 0-41.4 50.283 113.7 113.7 0 0 0-6.659 21.452 115.4 115.4 0 0 0 0 46.065 113.7 113.7 0 0 0 17.2 40.866 114.63 114.63 0 0 0 50.282 41.407 113.8 113.8 0 0 0 21.453 6.658 115.4 115.4 0 0 0 46.065 0 113.6 113.6 0 0 0 40.866-17.2 114.6 114.6 0 0 0 41.393-50.278 113.7 113.7 0 0 0 6.659-21.453 115.4 115.4 0 0 0 0-46.065 113.7 113.7 0 0 0-17.2-40.865A114.6 114.6 0 0 0 172.485 22.7a113.7 113.7 0 0 0-21.453-6.659A115 115 0 0 0 128 13.714Z" style="fill:url(#a)" transform="matrix(.1875 0 0 .1875 0 0)"/><svg xmlns="http://www.w3.org/2000/svg" width="30" height="30" x="9" y="9" fill="none" viewBox="0 0 256 256"><path fill="#6C8275" d="M128 256c70.692 0 128-57.308 128-128S198.692 0 128 0 0 57.307 0 128c0 70.692 57.307 128 128 128"/><path fill="#fff" d="m118.179 128.005 69.288 39.689a3.66 3.66 0 0 0 3.697.043 3.66 3.66 0 0 0 1.846-3.203V91.421a3.64 3.64 0 0 0-1.844-3.207 3.63 3.63 0 0 0-3.699.075zm67.819-57.288-47.366-34.838a3.764 3.764 0 0 0-5.037.405c-.424.45-.731.998-.894 1.595l-17.294 77.599 70.175-38.8a3.5 3.5 0 0 0 1.887-2.862 3.5 3.5 0 0 0-1.471-3.097m-47.421 149.385 47.421-34.839a3.54 3.54 0 0 0 1.5-3.131 3.56 3.56 0 0 0-1.891-2.912l-70.2-38.8 17.294 77.6a3.746 3.746 0 0 0 4.185 2.836 3.76 3.76 0 0 0 1.691-.702"/><path fill="#fff" d="m100.163 126.564 18.015-84.255a3.575 3.575 0 0 0-5.543-3.627L66.489 74.071a9.56 9.56 0 0 0-3.742 7.622v89.8a9.56 9.56 0 0 0 3.742 7.733l45.924 35.282a3.576 3.576 0 0 0 5.543-3.631z"/></svg></svg>