<svg width="48" height="48" viewBox="0 0 48 48"><defs><linearGradient id="a" x1="215.808" x2="52.736" y1="34.56" y2="226.816" gradientUnits="userSpaceOnUse"><stop offset="0"/><stop offset="1"/></linearGradient></defs><path fill="url(#a)" d="M128 256a129 129 0 0 1-25.8-2.6 127.3 127.3 0 0 1-45.77-19.261 128.37 128.37 0 0 1-46.375-56.315A127.4 127.4 0 0 1 2.6 153.8a129.25 129.25 0 0 1 0-51.593 127.3 127.3 0 0 1 19.26-45.77 128.37 128.37 0 0 1 56.317-46.378A127.3 127.3 0 0 1 102.2 2.6a129.2 129.2 0 0 1 51.593 0 127.3 127.3 0 0 1 45.77 19.26 128.37 128.37 0 0 1 46.375 56.316A127.3 127.3 0 0 1 253.4 102.2a129.25 129.25 0 0 1 0 51.593 127.3 127.3 0 0 1-19.26 45.77 128.4 128.4 0 0 1-56.316 46.375A127.4 127.4 0 0 1 153.8 253.4 129 129 0 0 1 128 256m0-242.287a115 115 0 0 0-23.033 2.322A113.7 113.7 0 0 0 64.1 33.232a114.6 114.6 0 0 0-41.4 50.283 113.7 113.7 0 0 0-6.659 21.452 115.4 115.4 0 0 0 0 46.065 113.7 113.7 0 0 0 17.2 40.866 114.63 114.63 0 0 0 50.282 41.407 113.8 113.8 0 0 0 21.453 6.658 115.4 115.4 0 0 0 46.065 0 113.6 113.6 0 0 0 40.866-17.2 114.6 114.6 0 0 0 41.393-50.278 113.7 113.7 0 0 0 6.659-21.453 115.4 115.4 0 0 0 0-46.065 113.7 113.7 0 0 0-17.2-40.865A114.6 114.6 0 0 0 172.485 22.7a113.7 113.7 0 0 0-21.453-6.659A115 115 0 0 0 128 13.714Z" style="fill:url(#a)" transform="matrix(.1875 0 0 .1875 0 0)"/><svg xmlns="http://www.w3.org/2000/svg" width="30" height="30" x="9" y="9" viewBox="0 0 128 128"><defs><clipPath id="b"><path d="M0 0h128v128H0z"/></clipPath></defs><g clip-path="url(#b)"><path fill="#745ddf" d="M125.435 82.316a63.91 63.91 0 0 1-50.039 45.091v-18.212a30.4 30.4 0 0 0 11.364-7.628 29.4 29.4 0 0 0 4.461-6.26 29.7 29.7 0 0 0 3.46-14.063c0-16.1-11.623-22.537-22.52-27.311l-5.518-2.439c-5.9-2.646-10.413-5-10.413-9.029 0-5.569 4.86-8.562 9.444-8.562 4.878 0 7.645 1.8 10.568 6.867l2.266 3.926 14.581-9.357-1.9-3.528a28.32 28.32 0 0 0-15.792-13.6V1.507c1.418.242 2.819.553 4.238.917.138.035.294.069.45.1a4 4 0 0 1 .467.121.5.5 0 0 1 .138.035c.381.1.778.19 1.176.311a63.99 63.99 0 0 1 43.569 79.325"/><path fill="#2eb6ea" d="M76.779 82.127c0 7.334-6.625 11.865-12.748 11.865-7.351 0-11.554-6.071-12.367-11.71l-.692-4.895-17.642 4.968.8 3.944c2.525 12.436 11.018 21.379 22.555 24.077v17.625a64.4 64.4 0 0 1-9.271-1.782c-.432-.1-.848-.225-1.28-.346A64.04 64.04 0 0 1 0 64.45V2.96A2.53 2.53 0 0 1 2.525.435h54.156v17.608a25.94 25.94 0 0 0-15.1 11.692 24.7 24.7 0 0 0-3.252 12.4v.346c.171 14.358 10.724 20.36 20.687 24.874L64 69.517l.415.19c7.902 3.616 12.364 5.985 12.364 12.42"/><path fill="#fff" d="M94.681 81.244a29.7 29.7 0 0 1-3.459 14.062 29.4 29.4 0 0 1-4.463 6.261 30.4 30.4 0 0 1-11.364 7.626l.008 18.3-5.115.452s-10.969.329-13.581 0l-.027-17.573c-11.536-2.699-20.029-11.641-22.554-24.079l-.8-3.944 17.642-4.964.692 4.895c.817 5.641 5.02 11.713 12.371 11.713 6.123 0 12.748-4.532 12.748-11.865 0-6.434-4.463-8.8-12.367-12.419l-.415-.19-4.981-2.162c-9.963-4.516-20.514-10.518-20.687-24.874v-.346a24.7 24.7 0 0 1 3.252-12.4A25.94 25.94 0 0 1 56.68 18.043V.417C68.216.319 69.099.387 75.395 1.493v16.723a28.32 28.32 0 0 1 15.792 13.6l1.9 3.528-14.578 9.349-2.266-3.926C73.32 35.699 70.552 33.9 65.675 33.9c-4.584 0-9.444 2.992-9.444 8.562 0 4.03 4.514 6.382 10.413 9.029l5.516 2.442c10.9 4.774 22.521 11.208 22.521 27.311"/></g></svg></svg>