<svg width="48" height="48" viewBox="0 0 48 48"><defs><linearGradient id="a" x1="215.808" x2="52.736" y1="34.56" y2="226.816" gradientUnits="userSpaceOnUse"><stop offset="0" stop-color="#b6509e"/><stop offset="1" stop-color="#2ebac6"/></linearGradient></defs><path fill="url(#a)" d="M128 256a129 129 0 0 1-25.8-2.6 127.3 127.3 0 0 1-45.77-19.261 128.37 128.37 0 0 1-46.375-56.315A127.4 127.4 0 0 1 2.6 153.8a129.25 129.25 0 0 1 0-51.593 127.3 127.3 0 0 1 19.26-45.77 128.37 128.37 0 0 1 56.317-46.378A127.3 127.3 0 0 1 102.2 2.6a129.2 129.2 0 0 1 51.593 0 127.3 127.3 0 0 1 45.77 19.26 128.37 128.37 0 0 1 46.375 56.316A127.3 127.3 0 0 1 253.4 102.2a129.25 129.25 0 0 1 0 51.593 127.3 127.3 0 0 1-19.26 45.77 128.4 128.4 0 0 1-56.316 46.375A127.4 127.4 0 0 1 153.8 253.4 129 129 0 0 1 128 256m0-242.287a115 115 0 0 0-23.033 2.322A113.7 113.7 0 0 0 64.1 33.232a114.6 114.6 0 0 0-41.4 50.283 113.7 113.7 0 0 0-6.659 21.452 115.4 115.4 0 0 0 0 46.065 113.7 113.7 0 0 0 17.2 40.866 114.63 114.63 0 0 0 50.282 41.407 113.8 113.8 0 0 0 21.453 6.658 115.4 115.4 0 0 0 46.065 0 113.6 113.6 0 0 0 40.866-17.2 114.6 114.6 0 0 0 41.393-50.278 113.7 113.7 0 0 0 6.659-21.453 115.4 115.4 0 0 0 0-46.065 113.7 113.7 0 0 0-17.2-40.865A114.6 114.6 0 0 0 172.485 22.7a113.7 113.7 0 0 0-21.453-6.659A115 115 0 0 0 128 13.714Z" style="fill:url(#a)" transform="matrix(.1875 0 0 .1875 0 0)"/><svg xmlns="http://www.w3.org/2000/svg" width="30" height="30" x="9" y="9" shape-rendering="geometricPrecision" text-rendering="geometricPrecision" viewBox="0 0 256 256"><defs><linearGradient id="b" x1="0" x2="0" y1="-100" y2="100" gradientUnits="userSpaceOnUse" spreadMethod="pad"><stop offset="0%" stop-color="#ffa6aa"/><stop offset="20.565%" stop-color="#fb7c83"/><stop offset="51.89%" stop-color="#fa515a"/><stop offset="100%" stop-color="#ff5c65"/></linearGradient><linearGradient id="c" x1="0" x2="0" y1="-81.035" y2="81.034" gradientUnits="userSpaceOnUse" spreadMethod="pad"><stop offset="0%" stop-color="#e3252e"/><stop offset="100%" stop-color="#ff898f"/></linearGradient></defs><g transform="translate(-103.68 -103.68)scale(1.28)"><circle r="100" fill="url(#b)" transform="translate(181 181)"/><circle r="80.034" fill="none" stroke="url(#c)" stroke-width="2" transform="translate(181 181)"/><g fill="#fff"><path d="M218.774 141.466h-9.746l-28.714 60.632-28.609-60.632h-9.851v80.125h10.899v-52.978l24.941 52.978h5.345l24.836-52.978v52.978h10.899z"/><path d="M125.828 164.477h108.97v11.47h-108.97zm.003 25.809h108.97v11.47h-108.97z"/></g></g></svg></svg>