<svg xmlns="http://www.w3.org/2000/svg" width="48" height="48" viewBox="0 0 48 48"><defs><linearGradient id="a" x1="215.808" x2="52.736" y1="34.56" y2="226.816" gradientUnits="userSpaceOnUse"><stop offset="0" stop-color="#b6509e"/><stop offset="1" stop-color="#2ebac6"/></linearGradient></defs><path fill="url(#a)" d="M128 256a129 129 0 0 1-25.8-2.6 127.3 127.3 0 0 1-45.77-19.261 128.37 128.37 0 0 1-46.375-56.315A127.4 127.4 0 0 1 2.6 153.8a129.25 129.25 0 0 1 0-51.593 127.3 127.3 0 0 1 19.26-45.77 128.37 128.37 0 0 1 56.317-46.378A127.3 127.3 0 0 1 102.2 2.6a129.2 129.2 0 0 1 51.593 0 127.3 127.3 0 0 1 45.77 19.26 128.37 128.37 0 0 1 46.375 56.316A127.3 127.3 0 0 1 253.4 102.2a129.25 129.25 0 0 1 0 51.593 127.3 127.3 0 0 1-19.26 45.77 128.4 128.4 0 0 1-56.316 46.375A127.4 127.4 0 0 1 153.8 253.4 129 129 0 0 1 128 256m0-242.287a115 115 0 0 0-23.033 2.322A113.7 113.7 0 0 0 64.1 33.232a114.6 114.6 0 0 0-41.4 50.283 113.7 113.7 0 0 0-6.659 21.452 115.4 115.4 0 0 0 0 46.065 113.7 113.7 0 0 0 17.2 40.866 114.63 114.63 0 0 0 50.282 41.407 113.8 113.8 0 0 0 21.453 6.658 115.4 115.4 0 0 0 46.065 0 113.6 113.6 0 0 0 40.866-17.2 114.6 114.6 0 0 0 41.393-50.278 113.7 113.7 0 0 0 6.659-21.453 115.4 115.4 0 0 0 0-46.065 113.7 113.7 0 0 0-17.2-40.865A114.6 114.6 0 0 0 172.485 22.7a113.7 113.7 0 0 0-21.453-6.659A115 115 0 0 0 128 13.714Z" style="fill:url(#a)" transform="matrix(.17969 0 0 .17969 1 1)"/><svg xmlns="http://www.w3.org/2000/svg" width="40" height="40" x="4" y="4" viewBox="0 0 256 256"><defs><linearGradient id="c" x1=".854" x2=".146" y1=".146" y2=".854" gradientUnits="objectBoundingBox"><stop offset="0" stop-color="#ff2d55"/><stop offset="1" stop-color="#ffbc5b"/></linearGradient><linearGradient id="d" x1=".5" x2=".5" y2="1" gradientUnits="objectBoundingBox"><stop offset="0" stop-color="#a524b3"/><stop offset="1" stop-color="#ff2d55"/></linearGradient><clipPath id="b"><path d="M0 0h256v256H0z"/></clipPath></defs><g clip-path="url(#b)"><circle cx="128" cy="128" r="128" fill="url(#c)"/><path fill="url(#d)" fill-rule="evenodd" d="M125.7 0v95.913h79.927z" transform="translate(-35.095 83.124)"/><path fill="#fff" fill-rule="evenodd" d="M10.678 179.037h79.927V83.124z"/><path fill="#fc9965" fill-rule="evenodd" d="M25.577 204.614a131 131 0 0 0 25.577 25.577h153.46a131 131 0 0 0 25.577-25.577z"/><path fill="#ff2d55" fill-rule="evenodd" d="M51.153 230.19a127.884 127.884 0 0 0 153.46 0z"/><path fill="url(#d)" fill-rule="evenodd" d="M252.3 0v70.336h58.635z" transform="translate(-80.744 134.278)"/><path fill="#ffbc5b" fill-rule="evenodd" d="M171.555 179.037H10.678a127.3 127.3 0 0 0 14.9 25.577h146.041v-25.577z"/><path fill="#fff" fill-rule="evenodd" d="M112.985 204.614h58.571v-70.336z"/><circle cx="31.971" cy="31.971" r="31.971" fill="#ffc95b" transform="translate(139.585 51.153)"/><circle cx="15.985" cy="15.985" r="15.985" fill="#ffc95b" transform="translate(74.62 31.971)"/></g></svg></svg>