<svg xmlns="http://www.w3.org/2000/svg" width="48" height="48" fill="none" viewBox="0 0 48 48"><g clip-path="url(#a)"><path fill="url(#b)" d="M24 48a23.87 23.87 0 0 1-13.42-4.099 24.07 24.07 0 0 1-8.695-10.559 24 24 0 0 1-1.397-4.504 24.2 24.2 0 0 1 0-9.674 23.9 23.9 0 0 1 3.61-8.582 24.07 24.07 0 0 1 10.56-8.696A24 24 0 0 1 19.163.488c3.191-.65 6.481-.65 9.673 0a23.9 23.9 0 0 1 8.582 3.61 24.07 24.07 0 0 1 8.695 10.56 24 24 0 0 1 1.4 4.505c.65 3.191.65 6.481 0 9.673a23.9 23.9 0 0 1-3.612 8.582 24.07 24.07 0 0 1-10.559 8.695A23.9 23.9 0 0 1 24 48m0-45.429c-1.45 0-2.897.146-4.319.436A21.3 21.3 0 0 0 12.02 6.23a21.5 21.5 0 0 0-7.763 9.428 21.3 21.3 0 0 0-1.248 4.022c-.58 2.85-.58 5.788 0 8.638a21.3 21.3 0 0 0 3.225 7.662 21.5 21.5 0 0 0 9.428 7.764c1.296.547 2.643.966 4.022 1.248 2.85.58 5.787.58 8.637 0a21.3 21.3 0 0 0 7.663-3.225 21.5 21.5 0 0 0 7.76-9.427 21.3 21.3 0 0 0 1.25-4.023c.58-2.85.58-5.787 0-8.637a21.3 21.3 0 0 0-3.226-7.662 21.5 21.5 0 0 0-9.426-7.763 21.3 21.3 0 0 0-4.023-1.248A21.6 21.6 0 0 0 24 2.57"/></g><g clip-path="url(#c)"><svg xmlns="http://www.w3.org/2000/svg" width="48" height="48" viewBox="0 0 256 256"><defs><linearGradient id="e" x1=".854" x2=".146" y1=".146" y2=".854" gradientUnits="objectBoundingBox"><stop offset="0" stop-color="#ff2d55"/><stop offset="1" stop-color="#ffbc5b"/></linearGradient><linearGradient id="f" x1=".5" x2=".5" y2="1" gradientUnits="objectBoundingBox"><stop offset="0" stop-color="#a524b3"/><stop offset="1" stop-color="#ff2d55"/></linearGradient><clipPath id="d"><path d="M0 0h256v256H0z"/></clipPath></defs><g clip-path="url(#d)"><circle cx="128" cy="128" r="128" fill="url(#e)"/><path fill="url(#f)" fill-rule="evenodd" d="M125.7 0v95.913h79.927z" transform="translate(-35.095 83.124)"/><path fill="#fff" fill-rule="evenodd" d="M10.678 179.037h79.927V83.124z"/><path fill="#fc9965" fill-rule="evenodd" d="M25.577 204.614a131 131 0 0 0 25.577 25.577h153.46a131 131 0 0 0 25.577-25.577z"/><path fill="#ff2d55" fill-rule="evenodd" d="M51.153 230.19a127.884 127.884 0 0 0 153.46 0z"/><path fill="url(#f)" fill-rule="evenodd" d="M252.3 0v70.336h58.635z" transform="translate(-80.744 134.278)"/><path fill="#ffbc5b" fill-rule="evenodd" d="M171.555 179.037H10.678a127.3 127.3 0 0 0 14.9 25.577h146.041v-25.577z"/><path fill="#fff" fill-rule="evenodd" d="M112.985 204.614h58.571v-70.336z"/><circle cx="31.971" cy="31.971" r="31.971" fill="#ffc95b" transform="translate(139.585 51.153)"/><circle cx="15.985" cy="15.985" r="15.985" fill="#ffc95b" transform="translate(74.62 31.971)"/></g></svg></g><defs><clipPath id="c"><circle cx="24" cy="24" r="20"/></clipPath><clipPath id="a"><path fill="#fff" d="M0 0h48v48H0z"/></clipPath><linearGradient id="b" x1="40.464" x2="9.888" y1="6.48" y2="42.528" gradientUnits="userSpaceOnUse"><stop stop-color="#B6509E"/><stop offset="1" stop-color="#2EBAC6"/></linearGradient></defs></svg>