<svg width="48" height="48" viewBox="0 0 48 48"><defs><linearGradient id="a" x1="215.808" x2="52.736" y1="34.56" y2="226.816" gradientUnits="userSpaceOnUse"><stop offset="0" stop-color="#b6509e"/><stop offset="1" stop-color="#2ebac6"/></linearGradient></defs><path fill="url(#a)" d="M128 256a129 129 0 0 1-25.8-2.6 127.3 127.3 0 0 1-45.77-19.261 128.37 128.37 0 0 1-46.375-56.315A127.4 127.4 0 0 1 2.6 153.8a129.25 129.25 0 0 1 0-51.593 127.3 127.3 0 0 1 19.26-45.77 128.37 128.37 0 0 1 56.317-46.378A127.3 127.3 0 0 1 102.2 2.6a129.2 129.2 0 0 1 51.593 0 127.3 127.3 0 0 1 45.77 19.26 128.37 128.37 0 0 1 46.375 56.316A127.3 127.3 0 0 1 253.4 102.2a129.25 129.25 0 0 1 0 51.593 127.3 127.3 0 0 1-19.26 45.77 128.4 128.4 0 0 1-56.316 46.375A127.4 127.4 0 0 1 153.8 253.4 129 129 0 0 1 128 256m0-242.287a115 115 0 0 0-23.033 2.322A113.7 113.7 0 0 0 64.1 33.232a114.6 114.6 0 0 0-41.4 50.283 113.7 113.7 0 0 0-6.659 21.452 115.4 115.4 0 0 0 0 46.065 113.7 113.7 0 0 0 17.2 40.866 114.63 114.63 0 0 0 50.282 41.407 113.8 113.8 0 0 0 21.453 6.658 115.4 115.4 0 0 0 46.065 0 113.6 113.6 0 0 0 40.866-17.2 114.6 114.6 0 0 0 41.393-50.278 113.7 113.7 0 0 0 6.659-21.453 115.4 115.4 0 0 0 0-46.065 113.7 113.7 0 0 0-17.2-40.865A114.6 114.6 0 0 0 172.485 22.7a113.7 113.7 0 0 0-21.453-6.659A115 115 0 0 0 128 13.714Z" style="fill:url(#a)" transform="matrix(.1875 0 0 .1875 0 0)"/><svg xmlns="http://www.w3.org/2000/svg" width="30" height="30" x="9" y="9" fill="none" viewBox="0 0 584 584"><rect width="584" height="584" fill="#000" rx="292"/><path fill="#fff" d="M78.336 165.659 419.34 506.663 507 419.004 165.995 78z"/><path fill="#fff" d="M165.996 506.664 507 165.66 419.341 78 78.337 419.005z"/><rect width="368" height="368" fill="#000" rx="184"/><path fill="#8247E5" d="M361.236 245.99c-4.92-2.81-11.246-2.81-16.87 0l-39.363 23.181-26.711 14.751-38.66 23.181c-4.921 2.81-11.247 2.81-16.87 0l-30.226-18.264c-4.92-2.81-8.435-8.429-8.435-14.751v-35.123c0-5.619 2.812-11.239 8.435-14.751l30.226-17.561c4.92-2.81 11.246-2.81 16.87 0l30.225 18.263c4.921 2.81 8.435 8.43 8.435 14.752v23.181l26.711-15.454v-23.883c0-5.62-2.812-11.24-8.435-14.752l-56.233-33.015c-4.921-2.81-11.247-2.81-16.87 0l-57.639 33.718c-5.624 2.809-8.435 8.429-8.435 14.049v66.03c0 5.619 2.811 11.239 8.435 14.751l56.936 33.015c4.92 2.81 11.246 2.81 16.87 0l38.66-22.478 26.711-15.454 38.66-22.478c4.921-2.81 11.247-2.81 16.87 0l30.226 17.561c4.92 2.81 8.435 8.429 8.435 14.751v35.123c0 5.619-2.812 11.239-8.435 14.751l-29.523 17.561c-4.92 2.81-11.246 2.81-16.87 0l-30.225-17.561c-4.921-2.81-8.435-8.429-8.435-14.751v-22.479l-26.711 15.454v23.181c0 5.62 2.812 11.239 8.435 14.751l56.936 33.015c4.921 2.81 11.247 2.81 16.87 0l56.936-33.015c4.921-2.809 8.435-8.429 8.435-14.751v-66.733c0-5.619-2.811-11.239-8.435-14.751z"/></svg></svg>