<svg width="48" height="48" viewBox="0 0 48 48"><defs><linearGradient id="a" x1="215.808" x2="52.736" y1="34.56" y2="226.816" gradientUnits="userSpaceOnUse"><stop offset="0" stop-color="#b6509e"/><stop offset="1" stop-color="#2ebac6"/></linearGradient></defs><path fill="url(#a)" d="M128 256a129 129 0 0 1-25.8-2.6 127.3 127.3 0 0 1-45.77-19.261 128.37 128.37 0 0 1-46.375-56.315A127.4 127.4 0 0 1 2.6 153.8a129.25 129.25 0 0 1 0-51.593 127.3 127.3 0 0 1 19.26-45.77 128.37 128.37 0 0 1 56.317-46.378A127.3 127.3 0 0 1 102.2 2.6a129.2 129.2 0 0 1 51.593 0 127.3 127.3 0 0 1 45.77 19.26 128.37 128.37 0 0 1 46.375 56.316A127.3 127.3 0 0 1 253.4 102.2a129.25 129.25 0 0 1 0 51.593 127.3 127.3 0 0 1-19.26 45.77 128.4 128.4 0 0 1-56.316 46.375A127.4 127.4 0 0 1 153.8 253.4 129 129 0 0 1 128 256m0-242.287a115 115 0 0 0-23.033 2.322A113.7 113.7 0 0 0 64.1 33.232a114.6 114.6 0 0 0-41.4 50.283 113.7 113.7 0 0 0-6.659 21.452 115.4 115.4 0 0 0 0 46.065 113.7 113.7 0 0 0 17.2 40.866 114.63 114.63 0 0 0 50.282 41.407 113.8 113.8 0 0 0 21.453 6.658 115.4 115.4 0 0 0 46.065 0 113.6 113.6 0 0 0 40.866-17.2 114.6 114.6 0 0 0 41.393-50.278 113.7 113.7 0 0 0 6.659-21.453 115.4 115.4 0 0 0 0-46.065 113.7 113.7 0 0 0-17.2-40.865A114.6 114.6 0 0 0 172.485 22.7a113.7 113.7 0 0 0-21.453-6.659A115 115 0 0 0 128 13.714Z" style="fill:url(#a)" transform="matrix(.1875 0 0 .1875 0 0)"/><svg xmlns="http://www.w3.org/2000/svg" width="30" height="30" x="9" y="9" viewBox="0 0 1500 1500.01"><g data-name="Capa 2"><g data-name="Capa 1"><path d="M1500 750c0-414.21-335.78-750-750-750S0 335.79 0 750s335.78 750 750 750 750-335.79 750-750" style="fill:#00d2ff"/><path d="M1256.15 712.56c0-1.78-32.47-22.52-49.55-33.34a120 120 0 0 1-20.43-16.17c-12.79-12.64-34.09-34.74-41-48.34-4.45-8.69-2.62-24.33.84-39.25a102.4 102.4 0 0 0-12.65-76.59l-22.22-36.18a244.5 244.5 0 0 1-24.49-52.62 153 153 0 0 0-38.91-62.55c-36.15-35.26-136.2-52.62-219.31-55.39a135 135 0 0 0-15.64-3.72c-37-6.3-76.48-16.48-111.9-9.87-52.58 9.79-105.74 26.27-145.42 66.93-8 8.21-20.5 12.08-29.12 19.86-17.09 15.42-40.1 15.42-55.28 32.54-8.89 10-13 42.61-36.3 55.06-38.54 20.65-67.06 43.4-76.4 55-7.06 8.73-12.53 18.94-19.4 27.86-7 9.15-40.21 24.64-49.86 34.33s-22.59 33.27-16.78 61.13c.54 2.54 1 4.64 1.33 6.34 3.8 14.16 14.13 39.83 11.74 51.6-2.78 13.93-38.62 117.78 41.46 145.46 16.67 5.77 23.73 17 25.55 34.1 1.41 12.76 5.2 25.85 11.85 39.94 7.29 15.37 21.64 23.73 22.81 24.75 4.83 4.26 27.31 27.72 29.16 31.14 28.41 52.51 20.43 78.75 74.81 96.59a198.6 198.6 0 0 1 40 18.34 216 216 0 0 0 49 21.72c.5.14 1.26.41 2.15.73 12.08-29.19 24.33-56.88 36.54-82.94-97.89-100.38-72.15-212.84-62.76-243a5.61 5.61 0 0 1 9.07-2.54c20.54 18 83 82.93 75.67 200.14 21.6-43.14 42.61-81.08 61.8-113.47-70.64-119.72-18-224.66-1.41-252.33a5.65 5.65 0 0 1 9.53-.26c14.4 21.38 53.53 91.47 29.3 192.45 17.57-26.86 31.83-46.74 41.15-59.22 25.24-166.92 151.3-221.69 184.43-233.3a5.61 5.61 0 0 1 7.47 5.8c-3.06 34.52-24.34 167.44-170.56 235.7-17.57 23.15-34.5 47.52-50.69 72.52C807.64 777.87 886 757.3 951.1 773.1a5.68 5.68 0 0 1 3.3 8.91c-18.72 24.78-93.17 108.36-233.4 89.21-23.7 39.95-45.42 80.43-64.7 119.15 60.55-45.82 149.04-63.37 217.7-40.3a5.74 5.74 0 0 1 2.5 9.32c-21.32 23-103.42 98.27-238.4 68.38-12.65 26.74-31.52 70.71-40.73 92.44-3.17 7.47-6.09 15-8.68 22.71-6 17.7-14 39.78-23.61 61.87a25 25 0 0 0 14.72 33.46 550.24 550.24 0 0 0 331.2 12.27 24.84 24.84 0 0 0 16.18-14.35c2.27-5.39 4.51-10.49 4.51-10.49s47.08-109.36 54-157c2.73-18.73 8.17-32.78 13.78-43a44.92 44.92 0 0 1 36.91-23.19c35.88-1.9 112.28-6.91 140.07-15.72 36.94-11.73 20.92-79 18.94-86.26s17.77-24.11 21.84-33.95-10-13.21-15.73-24 14.25-18.57 17.1-28.37-6.5-20.58-10.29-27.83-5.24-16.32-5.24-16.32 27-19.79 41.38-32.28 11.69-22.78 11.66-25.21"/></g></g></svg></svg>