<svg xmlns="http://www.w3.org/2000/svg" width="48" height="48" fill="none" viewBox="0 0 48 48"><g clip-path="url(#a)"><path fill="url(#b)" d="M24 48a23.87 23.87 0 0 1-13.42-4.099 24.07 24.07 0 0 1-8.695-10.559 24 24 0 0 1-1.397-4.504 24.2 24.2 0 0 1 0-9.674 23.9 23.9 0 0 1 3.61-8.582 24.07 24.07 0 0 1 10.56-8.696A24 24 0 0 1 19.163.488c3.191-.65 6.481-.65 9.673 0a23.9 23.9 0 0 1 8.582 3.61 24.07 24.07 0 0 1 8.695 10.56 24 24 0 0 1 1.4 4.505c.65 3.191.65 6.481 0 9.673a23.9 23.9 0 0 1-3.612 8.582 24.07 24.07 0 0 1-10.559 8.695A23.9 23.9 0 0 1 24 48m0-45.429c-1.45 0-2.897.146-4.319.436A21.3 21.3 0 0 0 12.02 6.23a21.5 21.5 0 0 0-7.763 9.428 21.3 21.3 0 0 0-1.248 4.022c-.58 2.85-.58 5.788 0 8.638a21.3 21.3 0 0 0 3.225 7.662 21.5 21.5 0 0 0 9.428 7.764c1.296.547 2.643.966 4.022 1.248 2.85.58 5.787.58 8.637 0a21.3 21.3 0 0 0 7.663-3.225 21.5 21.5 0 0 0 7.76-9.427 21.3 21.3 0 0 0 1.25-4.023c.58-2.85.58-5.787 0-8.637a21.3 21.3 0 0 0-3.226-7.662 21.5 21.5 0 0 0-9.426-7.763 21.3 21.3 0 0 0-4.023-1.248A21.6 21.6 0 0 0 24 2.57"/></g><g clip-path="url(#c)"><svg xmlns="http://www.w3.org/2000/svg" width="48" height="48" viewBox="0 0 256 256"><circle cx="128" cy="128" r="128" fill="#fff"/><path fill="url(#d)" d="M171.886 51.2c-18.127 0-32.914 14.833-33.392 33.014v36.843c-3.339 0-6.677.478-10.494.478-3.816 0-7.155 0-10.494.479v-37.8c0-18.181-15.265-33.014-33.869-32.535-17.65 0-31.96 14.832-32.437 32.535v88.039c.477 18.182 15.265 33.015 33.868 32.536 18.127-.478 32.438-14.833 32.438-32.536V135.41c3.339 0 6.678-.478 10.494-.478 3.817 0 7.155 0 10.494-.478v37.321c.478 18.181 15.265 33.014 33.868 32.536 18.128-.479 32.438-14.833 32.438-32.536v-87.56c0-18.182-14.788-33.015-32.914-33.015M84.592 64.597c10.97 0 19.557 8.613 19.557 19.617v38.757c-9.54 1.435-19.08 4.306-28.144 8.134-3.816 1.913-7.632 3.827-10.971 6.698V84.214c0-10.526 8.586-19.617 19.557-19.617Zm19.557 107.656c0 11.005-8.586 19.618-19.558 19.618-10.97 0-19.557-8.613-19.557-19.618v-8.612c0-7.656 6.201-15.312 16.695-19.617 7.156-3.35 14.788-5.264 22.897-6.699zm67.737 19.618c-10.972 0-19.558-8.613-19.558-19.618v-38.756c9.541-1.435 19.081-4.306 28.144-8.134 3.816-1.914 7.633-3.828 10.971-6.699v53.589c0 11.005-9.063 19.618-19.557 19.618m2.861-78.948c-7.155 3.349-14.787 5.263-22.896 6.698V84.214c0-11.004 8.587-19.617 19.558-19.617s19.557 8.613 19.557 19.617v8.613c.477 8.134-5.724 15.311-16.219 20.096"/><defs><linearGradient id="d" x1="128" x2="21.778" y1="51.2" y2="157.1" gradientUnits="userSpaceOnUse"><stop stop-color="#00E8A2"/><stop offset="1" stop-color="#00ADE8"/></linearGradient></defs></svg></g><defs><clipPath id="c"><circle cx="24" cy="24" r="20"/></clipPath><clipPath id="a"><path fill="#fff" d="M0 0h48v48H0z"/></clipPath><linearGradient id="b" x1="40.464" x2="9.888" y1="6.48" y2="42.528" gradientUnits="userSpaceOnUse"><stop stop-color="#B6509E"/><stop offset="1" stop-color="#2EBAC6"/></linearGradient></defs></svg>