<svg width="48" height="48" viewBox="0 0 48 48"><defs><linearGradient id="a" x1="215.808" x2="52.736" y1="34.56" y2="226.816" gradientUnits="userSpaceOnUse"><stop offset="0"/><stop offset="1"/></linearGradient></defs><path fill="url(#a)" d="M128 256a129 129 0 0 1-25.8-2.6 127.3 127.3 0 0 1-45.77-19.261 128.37 128.37 0 0 1-46.375-56.315A127.4 127.4 0 0 1 2.6 153.8a129.25 129.25 0 0 1 0-51.593 127.3 127.3 0 0 1 19.26-45.77 128.37 128.37 0 0 1 56.317-46.378A127.3 127.3 0 0 1 102.2 2.6a129.2 129.2 0 0 1 51.593 0 127.3 127.3 0 0 1 45.77 19.26 128.37 128.37 0 0 1 46.375 56.316A127.3 127.3 0 0 1 253.4 102.2a129.25 129.25 0 0 1 0 51.593 127.3 127.3 0 0 1-19.26 45.77 128.4 128.4 0 0 1-56.316 46.375A127.4 127.4 0 0 1 153.8 253.4 129 129 0 0 1 128 256m0-242.287a115 115 0 0 0-23.033 2.322A113.7 113.7 0 0 0 64.1 33.232a114.6 114.6 0 0 0-41.4 50.283 113.7 113.7 0 0 0-6.659 21.452 115.4 115.4 0 0 0 0 46.065 113.7 113.7 0 0 0 17.2 40.866 114.63 114.63 0 0 0 50.282 41.407 113.8 113.8 0 0 0 21.453 6.658 115.4 115.4 0 0 0 46.065 0 113.6 113.6 0 0 0 40.866-17.2 114.6 114.6 0 0 0 41.393-50.278 113.7 113.7 0 0 0 6.659-21.453 115.4 115.4 0 0 0 0-46.065 113.7 113.7 0 0 0-17.2-40.865A114.6 114.6 0 0 0 172.485 22.7a113.7 113.7 0 0 0-21.453-6.659A115 115 0 0 0 128 13.714Z" style="fill:url(#a)" transform="matrix(.1875 0 0 .1875 0 0)"/><svg xmlns="http://www.w3.org/2000/svg" width="30" height="30" x="9" y="9" fill="none" viewBox="0 0 256 256"><circle cx="128" cy="128" r="128" fill="#fff"/><path fill="url(#b)" d="M171.886 51.2c-18.127 0-32.914 14.833-33.392 33.014v36.843c-3.339 0-6.677.478-10.494.478-3.816 0-7.155 0-10.494.479v-37.8c0-18.181-15.265-33.014-33.869-32.535-17.65 0-31.96 14.832-32.437 32.535v88.039c.477 18.182 15.265 33.015 33.868 32.536 18.127-.478 32.438-14.833 32.438-32.536V135.41c3.339 0 6.678-.478 10.494-.478 3.817 0 7.155 0 10.494-.478v37.321c.478 18.181 15.265 33.014 33.868 32.536 18.128-.479 32.438-14.833 32.438-32.536v-87.56c0-18.182-14.788-33.015-32.914-33.015M84.592 64.597c10.97 0 19.557 8.613 19.557 19.617v38.757c-9.54 1.435-19.08 4.306-28.144 8.134-3.816 1.913-7.632 3.827-10.971 6.698V84.214c0-10.526 8.586-19.617 19.557-19.617Zm19.557 107.656c0 11.005-8.586 19.618-19.558 19.618-10.97 0-19.557-8.613-19.557-19.618v-8.612c0-7.656 6.201-15.312 16.695-19.617 7.156-3.35 14.788-5.264 22.897-6.699zm67.737 19.618c-10.972 0-19.558-8.613-19.558-19.618v-38.756c9.541-1.435 19.081-4.306 28.144-8.134 3.816-1.914 7.633-3.828 10.971-6.699v53.589c0 11.005-9.063 19.618-19.557 19.618m2.861-78.948c-7.155 3.349-14.787 5.263-22.896 6.698V84.214c0-11.004 8.587-19.617 19.558-19.617s19.557 8.613 19.557 19.617v8.613c.477 8.134-5.724 15.311-16.219 20.096"/><defs><linearGradient id="b" x1="128" x2="21.778" y1="51.2" y2="157.1" gradientUnits="userSpaceOnUse"><stop stop-color="#00E8A2"/><stop offset="1" stop-color="#00ADE8"/></linearGradient></defs></svg></svg>