<svg xmlns="http://www.w3.org/2000/svg" width="48" height="48" viewBox="0 0 48 48"><defs><linearGradient id="a" x1="215.808" x2="52.736" y1="34.56" y2="226.816" gradientUnits="userSpaceOnUse"><stop offset="0" stop-color="#b6509e"/><stop offset="1" stop-color="#2ebac6"/></linearGradient></defs><path fill="url(#a)" d="M128 256a129 129 0 0 1-25.8-2.6 127.3 127.3 0 0 1-45.77-19.261 128.37 128.37 0 0 1-46.375-56.315A127.4 127.4 0 0 1 2.6 153.8a129.25 129.25 0 0 1 0-51.593 127.3 127.3 0 0 1 19.26-45.77 128.37 128.37 0 0 1 56.317-46.378A127.3 127.3 0 0 1 102.2 2.6a129.2 129.2 0 0 1 51.593 0 127.3 127.3 0 0 1 45.77 19.26 128.37 128.37 0 0 1 46.375 56.316A127.3 127.3 0 0 1 253.4 102.2a129.25 129.25 0 0 1 0 51.593 127.3 127.3 0 0 1-19.26 45.77 128.4 128.4 0 0 1-56.316 46.375A127.4 127.4 0 0 1 153.8 253.4 129 129 0 0 1 128 256m0-242.287a115 115 0 0 0-23.033 2.322A113.7 113.7 0 0 0 64.1 33.232a114.6 114.6 0 0 0-41.4 50.283 113.7 113.7 0 0 0-6.659 21.452 115.4 115.4 0 0 0 0 46.065 113.7 113.7 0 0 0 17.2 40.866 114.63 114.63 0 0 0 50.282 41.407 113.8 113.8 0 0 0 21.453 6.658 115.4 115.4 0 0 0 46.065 0 113.6 113.6 0 0 0 40.866-17.2 114.6 114.6 0 0 0 41.393-50.278 113.7 113.7 0 0 0 6.659-21.453 115.4 115.4 0 0 0 0-46.065 113.7 113.7 0 0 0-17.2-40.865A114.6 114.6 0 0 0 172.485 22.7a113.7 113.7 0 0 0-21.453-6.659A115 115 0 0 0 128 13.714Z" style="fill:url(#a)" transform="matrix(.17969 0 0 .17969 1 1)"/><svg xmlns="http://www.w3.org/2000/svg" width="40" height="40" x="4" y="4" fill="none" viewBox="0 0 500 500"><circle cx="250" cy="250" r="250" fill="#FF0420"/><path fill="#fff" d="M177.133 316.446q-22.329 0-36.589-10.508-14.073-10.695-14.073-30.397 0-4.128.938-10.133 2.44-13.51 6.943-32.461 12.76-51.6 65.861-51.6 14.448 0 25.894 4.878 11.446 4.69 18.013 14.261 6.568 9.381 6.568 22.516 0 3.94-.939 9.945-2.814 16.7-6.755 32.461-6.567 25.707-22.704 38.466-16.137 12.572-43.157 12.572m2.627-27.02q10.508 0 17.826-6.192 7.506-6.192 10.695-18.951 4.316-17.639 6.568-30.773.75-3.94.75-8.069 0-17.075-17.825-17.075-10.508 0-18.014 6.192-7.318 6.193-10.507 18.952-3.378 12.572-6.755 30.773-.751 3.752-.751 7.88 0 17.263 18.013 17.263m79.543 25.144q-2.065 0-3.19-1.314-.938-1.501-.563-3.377l25.894-121.965q.375-2.064 2.064-3.378 1.689-1.313 3.565-1.313h49.912q20.827 0 33.399 8.631 12.76 8.632 12.76 24.956 0 4.691-1.126 9.757-4.69 21.579-18.951 31.899-14.073 10.32-38.654 10.32h-25.331l-8.631 41.093q-.376 2.063-2.064 3.377-1.69 1.314-3.565 1.314zm66.424-71.678q7.88 0 13.697-4.316 6.005-4.316 7.881-12.384.563-3.19.563-5.629 0-5.442-3.19-8.256-3.19-3.002-10.883-3.002h-22.517l-7.13 33.587z"/></svg></svg>