<svg width="48" height="48" viewBox="0 0 48 48"><defs><linearGradient id="a" x1="215.808" x2="52.736" y1="34.56" y2="226.816" gradientUnits="userSpaceOnUse"><stop offset="0" stop-color="#b6509e"/><stop offset="1" stop-color="#2ebac6"/></linearGradient></defs><path fill="url(#a)" d="M128 256a129 129 0 0 1-25.8-2.6 127.3 127.3 0 0 1-45.77-19.261 128.37 128.37 0 0 1-46.375-56.315A127.4 127.4 0 0 1 2.6 153.8a129.25 129.25 0 0 1 0-51.593 127.3 127.3 0 0 1 19.26-45.77 128.37 128.37 0 0 1 56.317-46.378A127.3 127.3 0 0 1 102.2 2.6a129.2 129.2 0 0 1 51.593 0 127.3 127.3 0 0 1 45.77 19.26 128.37 128.37 0 0 1 46.375 56.316A127.3 127.3 0 0 1 253.4 102.2a129.25 129.25 0 0 1 0 51.593 127.3 127.3 0 0 1-19.26 45.77 128.4 128.4 0 0 1-56.316 46.375A127.4 127.4 0 0 1 153.8 253.4 129 129 0 0 1 128 256m0-242.287a115 115 0 0 0-23.033 2.322A113.7 113.7 0 0 0 64.1 33.232a114.6 114.6 0 0 0-41.4 50.283 113.7 113.7 0 0 0-6.659 21.452 115.4 115.4 0 0 0 0 46.065 113.7 113.7 0 0 0 17.2 40.866 114.63 114.63 0 0 0 50.282 41.407 113.8 113.8 0 0 0 21.453 6.658 115.4 115.4 0 0 0 46.065 0 113.6 113.6 0 0 0 40.866-17.2 114.6 114.6 0 0 0 41.393-50.278 113.7 113.7 0 0 0 6.659-21.453 115.4 115.4 0 0 0 0-46.065 113.7 113.7 0 0 0-17.2-40.865A114.6 114.6 0 0 0 172.485 22.7a113.7 113.7 0 0 0-21.453-6.659A115 115 0 0 0 128 13.714Z" style="fill:url(#a)" transform="matrix(.1875 0 0 .1875 0 0)"/><svg xmlns="http://www.w3.org/2000/svg" width="30" height="30" x="9" y="9" fill="none" viewBox="0 0 48 48"><path fill="#0071F3" d="M24 48c13.255 0 24-10.745 24-24S37.255 0 24 0 0 10.745 0 24s10.745 24 24 24"/><path fill="#fff" d="M27.812 9.605h-8.444c-.935 0-1.756.68-1.898 1.616l-.595 3.825v.028H14.04a1.36 1.36 0 0 0-1.36 1.36c0 .765.624 1.36 1.36 1.389h2.409l-.425 2.635-.029.198h-2.833a1.36 1.36 0 0 0-1.36 1.36c0 .737.623 1.36 1.36 1.36h2.408l-1.303 8.246-.425 2.748-.227 1.474a1.917 1.917 0 0 0 1.899 2.21h6.347c.935 0 1.728-.68 1.898-1.615l1.219-7.566h2.976c5.355 0 9.719-4.42 9.634-9.803-.085-5.3-4.505-9.465-9.776-9.465m-8.585 8.218 8.557.028a1.42 1.42 0 0 1 1.417 1.417 1.42 1.42 0 0 1-1.417 1.417h-9.01zm8.613 8.274h-3.57c-.935 0-1.728.68-1.898 1.615l-1.219 7.594h-4.647l1.842-11.901h9.436a4.14 4.14 0 0 0 4.137-4.137c0-2.267-1.87-4.137-4.137-4.137l-8.104-.029.425-2.72h7.877c3.854 0 6.97 3.174 6.886 7.028-.114 3.74-3.259 6.687-7.028 6.687"/></svg></svg>