<svg xmlns="http://www.w3.org/2000/svg" width="48" height="48" fill="none" viewBox="0 0 48 48"><g clip-path="url(#a)"><path fill="url(#b)" d="M24 48a23.87 23.87 0 0 1-13.42-4.099 24.07 24.07 0 0 1-8.695-10.559 24 24 0 0 1-1.397-4.504 24.2 24.2 0 0 1 0-9.674 23.9 23.9 0 0 1 3.61-8.582 24.07 24.07 0 0 1 10.56-8.696A24 24 0 0 1 19.163.488c3.191-.65 6.481-.65 9.673 0a23.9 23.9 0 0 1 8.582 3.61 24.07 24.07 0 0 1 8.695 10.56 24 24 0 0 1 1.4 4.505c.65 3.191.65 6.481 0 9.673a23.9 23.9 0 0 1-3.612 8.582 24.07 24.07 0 0 1-10.559 8.695A23.9 23.9 0 0 1 24 48m0-45.429c-1.45 0-2.897.146-4.319.436A21.3 21.3 0 0 0 12.02 6.23a21.5 21.5 0 0 0-7.763 9.428 21.3 21.3 0 0 0-1.248 4.022c-.58 2.85-.58 5.788 0 8.638a21.3 21.3 0 0 0 3.225 7.662 21.5 21.5 0 0 0 9.428 7.764c1.296.547 2.643.966 4.022 1.248 2.85.58 5.787.58 8.637 0a21.3 21.3 0 0 0 7.663-3.225 21.5 21.5 0 0 0 7.76-9.427 21.3 21.3 0 0 0 1.25-4.023c.58-2.85.58-5.787 0-8.637a21.3 21.3 0 0 0-3.226-7.662 21.5 21.5 0 0 0-9.426-7.763 21.3 21.3 0 0 0-4.023-1.248A21.6 21.6 0 0 0 24 2.57"/></g><g clip-path="url(#c)"><svg xmlns="http://www.w3.org/2000/svg" width="48" height="48" viewBox="0 0 48 48"><path fill="#0071F3" d="M24 48c13.255 0 24-10.745 24-24S37.255 0 24 0 0 10.745 0 24s10.745 24 24 24"/><path fill="#fff" d="M27.812 9.605h-8.444c-.935 0-1.756.68-1.898 1.616l-.595 3.825v.028H14.04a1.36 1.36 0 0 0-1.36 1.36c0 .765.624 1.36 1.36 1.389h2.409l-.425 2.635-.029.198h-2.833a1.36 1.36 0 0 0-1.36 1.36c0 .737.623 1.36 1.36 1.36h2.408l-1.303 8.246-.425 2.748-.227 1.474a1.917 1.917 0 0 0 1.899 2.21h6.347c.935 0 1.728-.68 1.898-1.615l1.219-7.566h2.976c5.355 0 9.719-4.42 9.634-9.803-.085-5.3-4.505-9.465-9.776-9.465m-8.585 8.218 8.557.028a1.42 1.42 0 0 1 1.417 1.417 1.42 1.42 0 0 1-1.417 1.417h-9.01zm8.613 8.274h-3.57c-.935 0-1.728.68-1.898 1.615l-1.219 7.594h-4.647l1.842-11.901h9.436a4.14 4.14 0 0 0 4.137-4.137c0-2.267-1.87-4.137-4.137-4.137l-8.104-.029.425-2.72h7.877c3.854 0 6.97 3.174 6.886 7.028-.114 3.74-3.259 6.687-7.028 6.687"/></svg></g><defs><clipPath id="c"><circle cx="24" cy="24" r="20"/></clipPath><clipPath id="a"><path fill="#fff" d="M0 0h48v48H0z"/></clipPath><linearGradient id="b" x1="40.464" x2="9.888" y1="6.48" y2="42.528" gradientUnits="userSpaceOnUse"><stop stop-color="#B6509E"/><stop offset="1" stop-color="#2EBAC6"/></linearGradient></defs></svg>