<svg id="Group_30952" width="48" height="48" version="1.1" viewBox="0 0 48 48"><defs id="defs10"><linearGradient id="linear-gradient" x1="215.808" x2="52.736" y1="34.56" y2="226.816" gradientUnits="userSpaceOnUse"><stop id="stop2" offset="0" stop-color="#b6509e"/><stop id="stop4" offset="1" stop-color="#2ebac6"/></linearGradient><linearGradient id="linear-gradient-2" x1=".907" x2=".163" y1=".227" y2=".853"/></defs><g id="Group_29109" transform="matrix(.1875 0 0 .1875 0 0)"><path id="Subtraction_108" fill="url(#linear-gradient)" d="M128 256a129 129 0 0 1-25.8-2.6 127.3 127.3 0 0 1-45.77-19.261 128.37 128.37 0 0 1-46.375-56.315A127.4 127.4 0 0 1 2.6 153.8a129.25 129.25 0 0 1 0-51.593 127.3 127.3 0 0 1 19.26-45.77 128.37 128.37 0 0 1 56.317-46.378A127.3 127.3 0 0 1 102.2 2.6a129.2 129.2 0 0 1 51.593 0 127.3 127.3 0 0 1 45.77 19.26 128.37 128.37 0 0 1 46.375 56.316A127.3 127.3 0 0 1 253.4 102.2a129.25 129.25 0 0 1 0 51.593 127.3 127.3 0 0 1-19.26 45.77 128.4 128.4 0 0 1-56.316 46.375A127.4 127.4 0 0 1 153.8 253.4 129 129 0 0 1 128 256m0-242.287a115 115 0 0 0-23.033 2.322A113.7 113.7 0 0 0 64.1 33.232a114.6 114.6 0 0 0-41.4 50.283 113.7 113.7 0 0 0-6.659 21.452 115.4 115.4 0 0 0 0 46.065 113.7 113.7 0 0 0 17.2 40.866 114.63 114.63 0 0 0 50.282 41.407 113.8 113.8 0 0 0 21.453 6.658 115.4 115.4 0 0 0 46.065 0 113.6 113.6 0 0 0 40.866-17.2 114.6 114.6 0 0 0 41.393-50.278 113.7 113.7 0 0 0 6.659-21.453 115.4 115.4 0 0 0 0-46.065 113.7 113.7 0 0 0-17.2-40.865A114.6 114.6 0 0 0 172.485 22.7a113.7 113.7 0 0 0-21.453-6.659A115 115 0 0 0 128 13.714Z" style="fill:url(#linear-gradient)"/></g><svg xmlns="http://www.w3.org/2000/svg" id="g1" width="30" height="30" x="9" y="9" viewBox="0 0 255.999 255.999"><defs><style>.prefix__cls-2{fill:#fff}</style></defs><g id="prefix__Group_28181" data-name="Group 28181" transform="translate(2174 18304)"><circle id="prefix__XMLID_5_" cx="128" cy="128" r="128" fill="#0e3158" transform="translate(-2174 -18304)"/><g id="prefix__Group_28180" data-name="Group 28180" transform="translate(-498 -23.001)"><path id="prefix__Path_10315" d="m23.217 35.712 12.494-7.18 1.676 2.9 46.04-26.568-3.365-1.935L76.683.967 75.007 0 0 43.328v1.935L21.541 32.81z" class="prefix__cls-2" data-name="Path 10315" transform="translate(-1623 -18238)"/><path id="prefix__Path_10316" d="M23.217 59.361 59.3 38.514l1.69 2.929 46.04-26.569-3.365-1.962-3.379-1.935-1.69-.967L0 66.936v1.935l21.541-12.454z" class="prefix__cls-2" data-name="Path 10316" transform="translate(-1623 -18234.371)"/><path id="prefix__Path_10317" d="M23.217 71.19 71.1 43.531l1.69 2.9 46.04-26.6-3.379-1.894-3.365-1.976-1.694-.961L0 78.739v1.976l21.541-12.454z" class="prefix__cls-2" data-name="Path 10317" transform="translate(-1623 -18232.563)"/><path id="prefix__Path_10318" d="M23.217 82.989 83.236 48.34l1.69 2.9 45.7-26.378-3.38-1.962-3.365-1.935-1.69-.965L0 90.565V92.5l21.541-12.454z" class="prefix__cls-2" data-name="Path 10318" transform="translate(-1623 -18230.75)"/><path id="prefix__Path_10319" d="M23.217 94.778 95.036 53.33l1.69 2.943 45.7-26.406-3.379-1.948-3.365-1.962-1.69-.967L0 102.368v1.932l21.541-12.424z" class="prefix__cls-2" data-name="Path 10319" transform="translate(-1623 -18228.939)"/><path id="prefix__Path_10320" d="m147.479 30.985-1.69-.995L0 114.194v1.935L21.541 103.7l1.676 2.9 71.819-41.443 1.69 2.9L150 37.32v-4.864z" class="prefix__cls-2" data-name="Path 10320" transform="translate(-1623 -18227.129)"/><path id="prefix__Path_10321" d="m7.219 121.419 12.081-6.962 1.676 2.9 71.7-41.38 1.69 2.929 53.615-30.956v-9.74L5.57 120.452z" class="prefix__cls-2" data-name="Path 10321" transform="translate(-1620.981 -18224.148)"/><path id="prefix__Path_10322" d="m89.537 85.989 1.69 2.929 53.615-30.956V48.22L14.23 123.622l1.676.981 12.263-7.085 1.69 2.929" class="prefix__cls-2" data-name="Path 10322" transform="translate(-1617.841 -18220.518)"/><path id="prefix__Path_10323" d="m24.577 127.808 12.262-7.108 1.69 2.929 47.879-27.65 1.69 2.929 53.615-30.956V58.21L22.86 126.813z" class="prefix__cls-2" data-name="Path 10323" transform="translate(-1614.713 -18216.896)"/><path id="prefix__Path_10324" d="m33.23 130.991 12.263-7.085 1.69 2.9 36.08-20.819 1.69 2.9 53.615-30.97v-9.7L31.54 130.024z" class="prefix__cls-2" data-name="Path 10324" transform="translate(-1611.566 -18213.268)"/><path id="prefix__Path_10325" d="m40.2 133.2 1.69.967 12.3-7.085 1.649 2.929 24.28-14.048 1.69 2.943 53.615-30.97V78.21z" class="prefix__cls-2" data-name="Path 10325" transform="translate(-1608.427 -18209.646)"/><path id="prefix__Path_10326" d="m50.55 137.38 12.263-7.126L64.5 133.2l12.481-7.249 1.69 2.943 53.615-30.943V88.22L48.86 136.412z" class="prefix__cls-2" data-name="Path 10326" transform="translate(-1605.287 -18206.018)"/><path id="prefix__Path_10327" d="m95.227 9.868-3.366-1.935L88.482 6l-1.676-1.01L0 55.117v1.935l21.541-12.413 1.676 2.9 24.294-14.02 1.717 2.943z" class="prefix__cls-2" data-name="Path 10327" transform="translate(-1623 -18236.189)"/></g></g></svg></svg>