<svg xmlns="http://www.w3.org/2000/svg" width="48" height="48" fill="none" viewBox="0 0 48 48"><g clip-path="url(#clip0_85_109)"><path fill="url(#paint0_linear_85_109)" d="M24 48a23.87 23.87 0 0 1-13.42-4.099 24.07 24.07 0 0 1-8.695-10.559 24 24 0 0 1-1.397-4.504 24.2 24.2 0 0 1 0-9.674 23.9 23.9 0 0 1 3.61-8.582 24.07 24.07 0 0 1 10.56-8.696A24 24 0 0 1 19.163.488c3.191-.65 6.481-.65 9.673 0a23.9 23.9 0 0 1 8.582 3.61 24.07 24.07 0 0 1 8.695 10.56 24 24 0 0 1 1.4 4.505c.65 3.191.65 6.481 0 9.673a23.9 23.9 0 0 1-3.612 8.582 24.07 24.07 0 0 1-10.559 8.695A23.9 23.9 0 0 1 24 48m0-45.429c-1.45 0-2.897.146-4.319.436A21.3 21.3 0 0 0 12.02 6.23a21.5 21.5 0 0 0-7.763 9.428 21.3 21.3 0 0 0-1.248 4.022c-.58 2.85-.58 5.788 0 8.638a21.3 21.3 0 0 0 3.225 7.662 21.5 21.5 0 0 0 9.428 7.764c1.296.547 2.643.966 4.022 1.248 2.85.58 5.787.58 8.637 0a21.3 21.3 0 0 0 7.663-3.225 21.5 21.5 0 0 0 7.76-9.427 21.3 21.3 0 0 0 1.25-4.023c.58-2.85.58-5.787 0-8.637a21.3 21.3 0 0 0-3.226-7.662 21.5 21.5 0 0 0-9.426-7.763 21.3 21.3 0 0 0-4.023-1.248A21.6 21.6 0 0 0 24 2.57"/></g><g clip-path="url(#circleClip)"><svg xmlns="http://www.w3.org/2000/svg" width="48" height="48" viewBox="0 0 255.999 255.999"><defs><style>.prefix__cls-2{fill:#fff}</style></defs><g id="prefix__Group_28181" data-name="Group 28181" transform="translate(2174 18304)"><circle id="prefix__XMLID_5_" cx="128" cy="128" r="128" fill="#0e3158" transform="translate(-2174 -18304)"/><g id="prefix__Group_28180" data-name="Group 28180" transform="translate(-498 -23.001)"><path id="prefix__Path_10315" d="m23.217 35.712 12.494-7.18 1.676 2.9 46.04-26.568-3.365-1.935L76.683.967 75.007 0 0 43.328v1.935L21.541 32.81z" class="prefix__cls-2" data-name="Path 10315" transform="translate(-1623 -18238)"/><path id="prefix__Path_10316" d="M23.217 59.361 59.3 38.514l1.69 2.929 46.04-26.569-3.365-1.962-3.379-1.935-1.69-.967L0 66.936v1.935l21.541-12.454z" class="prefix__cls-2" data-name="Path 10316" transform="translate(-1623 -18234.371)"/><path id="prefix__Path_10317" d="M23.217 71.19 71.1 43.531l1.69 2.9 46.04-26.6-3.379-1.894-3.365-1.976-1.694-.961L0 78.739v1.976l21.541-12.454z" class="prefix__cls-2" data-name="Path 10317" transform="translate(-1623 -18232.563)"/><path id="prefix__Path_10318" d="M23.217 82.989 83.236 48.34l1.69 2.9 45.7-26.378-3.38-1.962-3.365-1.935-1.69-.965L0 90.565V92.5l21.541-12.454z" class="prefix__cls-2" data-name="Path 10318" transform="translate(-1623 -18230.75)"/><path id="prefix__Path_10319" d="M23.217 94.778 95.036 53.33l1.69 2.943 45.7-26.406-3.379-1.948-3.365-1.962-1.69-.967L0 102.368v1.932l21.541-12.424z" class="prefix__cls-2" data-name="Path 10319" transform="translate(-1623 -18228.939)"/><path id="prefix__Path_10320" d="m147.479 30.985-1.69-.995L0 114.194v1.935L21.541 103.7l1.676 2.9 71.819-41.443 1.69 2.9L150 37.32v-4.864z" class="prefix__cls-2" data-name="Path 10320" transform="translate(-1623 -18227.129)"/><path id="prefix__Path_10321" d="m7.219 121.419 12.081-6.962 1.676 2.9 71.7-41.38 1.69 2.929 53.615-30.956v-9.74L5.57 120.452z" class="prefix__cls-2" data-name="Path 10321" transform="translate(-1620.981 -18224.148)"/><path id="prefix__Path_10322" d="m89.537 85.989 1.69 2.929 53.615-30.956V48.22L14.23 123.622l1.676.981 12.263-7.085 1.69 2.929" class="prefix__cls-2" data-name="Path 10322" transform="translate(-1617.841 -18220.518)"/><path id="prefix__Path_10323" d="m24.577 127.808 12.262-7.108 1.69 2.929 47.879-27.65 1.69 2.929 53.615-30.956V58.21L22.86 126.813z" class="prefix__cls-2" data-name="Path 10323" transform="translate(-1614.713 -18216.896)"/><path id="prefix__Path_10324" d="m33.23 130.991 12.263-7.085 1.69 2.9 36.08-20.819 1.69 2.9 53.615-30.97v-9.7L31.54 130.024z" class="prefix__cls-2" data-name="Path 10324" transform="translate(-1611.566 -18213.268)"/><path id="prefix__Path_10325" d="m40.2 133.2 1.69.967 12.3-7.085 1.649 2.929 24.28-14.048 1.69 2.943 53.615-30.97V78.21z" class="prefix__cls-2" data-name="Path 10325" transform="translate(-1608.427 -18209.646)"/><path id="prefix__Path_10326" d="m50.55 137.38 12.263-7.126L64.5 133.2l12.481-7.249 1.69 2.943 53.615-30.943V88.22L48.86 136.412z" class="prefix__cls-2" data-name="Path 10326" transform="translate(-1605.287 -18206.018)"/><path id="prefix__Path_10327" d="m95.227 9.868-3.366-1.935L88.482 6l-1.676-1.01L0 55.117v1.935l21.541-12.413 1.676 2.9 24.294-14.02 1.717 2.943z" class="prefix__cls-2" data-name="Path 10327" transform="translate(-1623 -18236.189)"/></g></g></svg></g><defs><clipPath id="circleClip"><circle cx="24" cy="24" r="20"/></clipPath><clipPath id="clip0_85_109"><path fill="#fff" d="M0 0h48v48H0z"/></clipPath><linearGradient id="paint0_linear_85_109" x1="40.464" x2="9.888" y1="6.48" y2="42.528" gradientUnits="userSpaceOnUse"><stop stop-color="#B6509E"/><stop offset="1" stop-color="#2EBAC6"/></linearGradient></defs></svg>