<svg xmlns="http://www.w3.org/2000/svg" width="48" height="48" fill="none" viewBox="0 0 48 48"><g clip-path="url(#a)"><path fill="url(#b)" d="M24 48a23.87 23.87 0 0 1-13.42-4.099 24.07 24.07 0 0 1-8.695-10.559 24 24 0 0 1-1.397-4.504 24.2 24.2 0 0 1 0-9.674 23.9 23.9 0 0 1 3.61-8.582 24.07 24.07 0 0 1 10.56-8.696A24 24 0 0 1 19.163.488c3.191-.65 6.481-.65 9.673 0a23.9 23.9 0 0 1 8.582 3.61 24.07 24.07 0 0 1 8.695 10.56 24 24 0 0 1 1.4 4.505c.65 3.191.65 6.481 0 9.673a23.9 23.9 0 0 1-3.612 8.582 24.07 24.07 0 0 1-10.559 8.695A23.9 23.9 0 0 1 24 48m0-45.429c-1.45 0-2.897.146-4.319.436A21.3 21.3 0 0 0 12.02 6.23a21.5 21.5 0 0 0-7.763 9.428 21.3 21.3 0 0 0-1.248 4.022c-.58 2.85-.58 5.788 0 8.638a21.3 21.3 0 0 0 3.225 7.662 21.5 21.5 0 0 0 9.428 7.764c1.296.547 2.643.966 4.022 1.248 2.85.58 5.787.58 8.637 0a21.3 21.3 0 0 0 7.663-3.225 21.5 21.5 0 0 0 7.76-9.427 21.3 21.3 0 0 0 1.25-4.023c.58-2.85.58-5.787 0-8.637a21.3 21.3 0 0 0-3.226-7.662 21.5 21.5 0 0 0-9.426-7.763 21.3 21.3 0 0 0-4.023-1.248A21.6 21.6 0 0 0 24 2.57"/></g><g clip-path="url(#c)"><svg xmlns="http://www.w3.org/2000/svg" width="48" height="48" viewBox="0 0 256 256"><path fill="#B3BDC7" fill-rule="evenodd" d="M18.872 194.93a128 128 0 0 0 6.775 9.945l15.724-9.078a110 110 0 0 1-6.902-9.872zM224.936 75.96a110 110 0 0 1 5.114 10.903l15.725-9.078a128 128 0 0 0-5.242-10.83zm9.376-19.27-15.632 9.025a111 111 0 0 0-7.401-9.583l15.83-9.14a128 128 0 0 1 7.203 9.698M28.706 175.396l-15.632 9.025a127 127 0 0 1-4.81-11.078l15.832-9.141a109 109 0 0 0 4.61 11.194M1.565 107.928a127 127 0 0 1 3.563-15.914l25.117-14.5a109.3 109.3 0 0 0-7.41 18.134zm44.653-53.493C61.514 37.44 82.03 25.24 105.242 20.357L139.603.52A130 130 0 0 0 128 0C76.474 0 32.06 30.445 11.763 74.327zm106.34-33.683a110 110 0 0 0-19.436-2.635L158.267 3.6a127 127 0 0 1 15.585 4.859l-21.294 12.294ZM107.832 254.42A129 129 0 0 0 128 256c54.58 0 101.181-34.161 119.589-82.268l-29.067 16.781c-18.269 26.405-47.793 44.428-81.637 47.133zm121.753-84.151 23.136-13.357a128 128 0 0 0 2.568-15.338l-20.197 11.66a109 109 0 0 1-5.507 17.035m-115.748 66.828-23.166 13.374a127 127 0 0 1-14.583-5.436l20.215-11.671a109.4 109.4 0 0 0 17.534 3.733M4.475 161.673a127 127 0 0 1-2.698-12.298l16.833-9.719a110 110 0 0 0 2.085 12.653zM202.683 47.238c-3.135-2.9-6.438-5.62-9.895-8.144l16.819-9.71a129 129 0 0 1 9.288 8.494zM181.404 31.81l17.733-10.239a128 128 0 0 0-11.824-7.03L168.2 25.577a109.5 109.5 0 0 1 13.204 6.233M.27 136.387l17.745-10.245c.082-4.936.489-9.792 1.2-14.549L.111 122.624a130 130 0 0 0 .16 13.764Zm51.9 94.743c3.598 2.65 7.34 5.116 11.21 7.384l18.443-10.647a110 110 0 0 1-12.36-6.72zm185.754-107.245a112 112 0 0 1-.368 14.069l18.442-10.647a129 129 0 0 0-.766-13.414zm15.269-22.672-16.536 9.547a109 109 0 0 0-2.672-12.313l16.027-9.253a127 127 0 0 1 3.181 12.019m-194.44 112.26-16.523 9.54a129 129 0 0 1-8.813-8.768l16.022-9.251c2.94 2.999 6.05 5.831 9.315 8.479Z" clip-rule="evenodd"/><circle cx="128" cy="128" r="100" fill="#fff"/><path fill="#0090FF" fill-rule="evenodd" d="M128.374 28.004c-55.43-.5-99.875 44.5-100.374 99.498C28 183 72.944 228 127.875 228c55.159.137 99.986-44.521 100.125-99.748.137-55.227-44.466-100.11-99.626-100.248m47.441 45c-1.998 1.499-4.495.999-6.492-1-1.498-1.5-2.497-3-4.049-4.5-2.996-4.055-7.491-4.5-10.986-1a32 32 0 0 0-6.492 9.458c-3.496 10.5-5.993 21.5-9.448 32.432l27.466 4.054-1.998 7.5-26.494-3.946-2.955 16.054 28.464 4.054-1.997 7.499-27.965-4.053c-1.998 6.499-2.997 13.513-5.494 19.499-2.496 7-4.993 14-7.99 20.5-4.048 8.499-10.986 14.499-20.474 15.999-5.493 1-11.486.5-15.98-3a6.66 6.66 0 0 1-2.996-4.5 7.17 7.17 0 0 1 2.497-5.5c.998-.499 3.495 0 4.993.5a22.2 22.2 0 0 1 4.05 5.5c2.996 4.054 6.99 4.5 10.986 1.5 4.494-4.054 6.991-9.459 8.489-14.999 2.996-12 5.993-23.5 8.489-35.499v-2.095l-26.466-4.054.998-7.5 27.466 4.054 3.442-15.472-28.465-4.487.999-8 29.463 4.054c.999-3 1.498-5.5 2.497-8 2.497-9 4.994-18 10.986-25.999 5.993-8 12.984-13 23.471-12.5a15.49 15.49 0 0 1 11.985 5 4.26 4.26 0 0 1 1.498 2.5c0 1.946 0 4.446-1.498 5.946Z" clip-rule="evenodd"/></svg></g><defs><clipPath id="c"><circle cx="24" cy="24" r="20"/></clipPath><clipPath id="a"><path fill="#fff" d="M0 0h48v48H0z"/></clipPath><linearGradient id="b" x1="40.464" x2="9.888" y1="6.48" y2="42.528" gradientUnits="userSpaceOnUse"><stop stop-color="#B6509E"/><stop offset="1" stop-color="#2EBAC6"/></linearGradient></defs></svg>