<svg xmlns="http://www.w3.org/2000/svg" width="48" height="48" fill="none" viewBox="0 0 48 48"><g clip-path="url(#a)"><path fill="url(#b)" d="M24 48a23.87 23.87 0 0 1-13.42-4.099 24.07 24.07 0 0 1-8.695-10.559 24 24 0 0 1-1.397-4.504 24.2 24.2 0 0 1 0-9.674 23.9 23.9 0 0 1 3.61-8.582 24.07 24.07 0 0 1 10.56-8.696A24 24 0 0 1 19.163.488c3.191-.65 6.481-.65 9.673 0a23.9 23.9 0 0 1 8.582 3.61 24.07 24.07 0 0 1 8.695 10.56 24 24 0 0 1 1.4 4.505c.65 3.191.65 6.481 0 9.673a23.9 23.9 0 0 1-3.612 8.582 24.07 24.07 0 0 1-10.559 8.695A23.9 23.9 0 0 1 24 48m0-45.429c-1.45 0-2.897.146-4.319.436A21.3 21.3 0 0 0 12.02 6.23a21.5 21.5 0 0 0-7.763 9.428 21.3 21.3 0 0 0-1.248 4.022c-.58 2.85-.58 5.788 0 8.638a21.3 21.3 0 0 0 3.225 7.662 21.5 21.5 0 0 0 9.428 7.764c1.296.547 2.643.966 4.022 1.248 2.85.58 5.787.58 8.637 0a21.3 21.3 0 0 0 7.663-3.225 21.5 21.5 0 0 0 7.76-9.427 21.3 21.3 0 0 0 1.25-4.023c.58-2.85.58-5.787 0-8.637a21.3 21.3 0 0 0-3.226-7.662 21.5 21.5 0 0 0-9.426-7.763 21.3 21.3 0 0 0-4.023-1.248A21.6 21.6 0 0 0 24 2.57"/></g><g clip-path="url(#c)"><svg xmlns="http://www.w3.org/2000/svg" width="48" height="48" viewBox="0 0 256 256"><path fill="#fff" stroke="#383D51" stroke-width="48" d="M255.75 128c0 70.554-57.196 127.75-127.75 127.75S.25 198.554.25 128 57.446.25 128 .25 255.75 57.446 255.75 128Z"/><path fill="#553680" d="M222.034 175.452 135.709 20.623a8.56 8.56 0 0 0-7.523-4.488 8.55 8.55 0 0 0-7.524 4.488L34.37 175.453a8.567 8.567 0 0 0 3.07 11.55l86.422 51.676a9.08 9.08 0 0 0 8.976 0l86.292-51.577a8.753 8.753 0 0 0 2.9-11.649zm-65.242-62.399-2.112-1.782-.132-.132a21 21 0 0 0-2.112-1.518l-.132-.132c-.693-.462-1.419-.957-2.244-1.419-.132 0-.132-.132-.231-.132a21 21 0 0 0-2.244-1.188c-.132 0-.132-.132-.231-.132-.693-.363-1.518-.693-2.343-1.056-.132 0-.132-.132-.231-.132-.693-.231-1.419-.594-2.112-.825a36 36 0 0 0-5.874-1.65 29.4 29.4 0 0 1-6.006 7.755 33.3 33.3 0 0 1 10.362 2.475 40 40 0 0 1 5.412 2.838.33.33 0 0 1 .231.132q.691.415 1.287.957.333.184.594.462.642.419 1.188.957c.231.231.462.363.693.594.363.363.693.594 1.056.957l.693.693.957.957.693.693q.376.51.825.957c.231.264.462.594.693.825l.693 1.056q.35.446.594.957l.693 1.056q.264.499.594.957c.231.363.363.693.594 1.056s.363.693.594 1.056c.132.363.363.693.462 1.056q.26.66.594 1.287a30.4 30.4 0 0 1 2.013 7.524l1.056 4.125c.462 1.782 4.719 16.829 14.585 21.911 11.319 5.874 26.267 13.2 32.141 16l-77.547 46.4v-31.779c0-5.049 10-10.956 14.585-12.936l.231-.132a40 40 0 0 0 2.838-1.518l.363-.231a36.4 36.4 0 0 0 5.643-4.125c.132-.132.363-.231.462-.462.231-.132.363-.363.594-.462.594-.462 1.056-1.056 1.65-1.518l.231-.231a12.7 12.7 0 0 0 1.65-1.881c.132-.231.363-.363.462-.594q.692-.787 1.287-1.65c.132-.132.231-.363.363-.462l1.419-2.112c0-.132.132-.132.132-.231.594-.957 1.188-2.013 1.782-2.937a45.7 45.7 0 0 1-5.544-8.712 32 32 0 0 1-2.244 5.049c-.363.693-.825 1.419-1.188 2.112-.132.132-.132.231-.231.231a18 18 0 0 1-1.188 1.65c-.132.132-.231.363-.363.462a8.2 8.2 0 0 1-1.287 1.518c-.132.132-.132.231-.231.231a32.9 32.9 0 0 1-10.131 7.755l-.693.363c-2.013.825-19.3 8.712-19.3 20.591v31.778l-77.71-46.264c5.048-3.069 19.666-11.78 31.678-15.542 4.72-1.518 14.717 4.818 20.36 9.4l.363.363a20 20 0 0 0 2.343 2.013l.231.231a33.4 33.4 0 0 0 5.775 3.894l1.419.693a.33.33 0 0 1 .231.132 45 45 0 0 0 3.993 1.881q.289.137.594.231c.132 0 .231.132.462.132a69 69 0 0 0 6.006 1.782 29.3 29.3 0 0 1 6.138-7.755 33.7 33.7 0 0 1-9.669-2.112c-.132-.132-.363-.132-.462-.231a5 5 0 0 1-1.056-.462c-.132-.132-.363-.132-.462-.231-.363-.132-.693-.363-.957-.462a33.7 33.7 0 0 1-6.468-4.125l-3.069-2.838a58 58 0 0 0-9.174-6.6c-7.656-4.356-14.123-5.775-19.073-4.224-10.23 3.3-21.91 9.537-28.973 13.661l77.58-139.387v61.114c0 2.112-3.168 7.755-13.892 12.605l-.693.363c-1.056.462-2.013 1.056-3.069 1.65l-.231.132a45 45 0 0 0-5.775 4.125 25.5 25.5 0 0 0-3.168 3.069l-.132.132a24 24 0 0 0-2.838 3.3l-.132.132c-.462.594-.825 1.188-1.287 1.782 0 .132-.132.132-.132.231-.363.594-.693 1.056-1.056 1.65 0 .132-.132.132-.132.231l-1.056 1.782c-.132.132-.132.231-.23.462-.364.594-.595 1.188-.826 1.65a.32.32 0 0 1-.132.231c-.23.594-.462 1.056-.693 1.65a4.4 4.4 0 0 0-.23.594l-.694 1.782a4.4 4.4 0 0 0-.23.594 6.7 6.7 0 0 1-.463 1.287 6 6 0 0 0-.23.693c-.133.594-.364 1.188-.463 1.65q-.139.406-.23.825c-.133.363-.133.825-.232 1.188-.132.363-.132.693-.23 1.056-.133.462-.133.957-.232 1.419 0 .363-.132.594-.132.957 0 .462-.132.825-.132 1.287.022.433-.023.867-.132 1.287v1.782a40.5 40.5 0 0 0 .462 6.369 46.6 46.6 0 0 1 9.67 3.663 35.4 35.4 0 0 1-1.519-9.537v-.594c-.022-.783.023-1.567.132-2.343v-.594q.045-1.015.231-2.013v-.231c.132-.693.231-1.419.363-2.244 0-.231.132-.363.132-.594.132-.594.363-1.188.462-1.782 0-.132.132-.231.132-.363l.693-2.112c.132-.132.132-.363.231-.462.231-.594.462-1.188.693-1.65.132-.132.132-.231.231-.462q.44-.99 1.056-1.881.133-.17.231-.363c.363-.594.594-1.056.957-1.65q.133-.17.231-.363.595-.926 1.287-1.782 0-.026.009-.051a.1.1 0 0 1 .029-.043.13.13 0 0 1 .094-.038c.462-.594.825-1.056 1.287-1.65q.134-.17.231-.363a37 37 0 0 1 7.194-6.138l3.663-1.782c2.013-.825 19.205-8.942 19.205-20.855V32.502l78.306 140.574c-6.963-3.4-19.3-9.537-28.841-14.486-5.544-2.838-9.174-12.836-10.23-16.5l-1.056-4.224a22.7 22.7 0 0 0-1.287-6.7 43.4 43.4 0 0 0-12.308-18.116"/></svg></g><defs><clipPath id="c"><circle cx="24" cy="24" r="20"/></clipPath><clipPath id="a"><path fill="#fff" d="M0 0h48v48H0z"/></clipPath><linearGradient id="b" x1="40.464" x2="9.888" y1="6.48" y2="42.528" gradientUnits="userSpaceOnUse"><stop stop-color="#B6509E"/><stop offset="1" stop-color="#2EBAC6"/></linearGradient></defs></svg>