<svg xmlns="http://www.w3.org/2000/svg" width="48" height="48" fill="none" viewBox="0 0 48 48"><g clip-path="url(#a)"><path fill="url(#b)" d="M24 48a23.87 23.87 0 0 1-13.42-4.099 24.07 24.07 0 0 1-8.695-10.559 24 24 0 0 1-1.397-4.504 24.2 24.2 0 0 1 0-9.674 23.9 23.9 0 0 1 3.61-8.582 24.07 24.07 0 0 1 10.56-8.696A24 24 0 0 1 19.163.488c3.191-.65 6.481-.65 9.673 0a23.9 23.9 0 0 1 8.582 3.61 24.07 24.07 0 0 1 8.695 10.56 24 24 0 0 1 1.4 4.505c.65 3.191.65 6.481 0 9.673a23.9 23.9 0 0 1-3.612 8.582 24.07 24.07 0 0 1-10.559 8.695A23.9 23.9 0 0 1 24 48m0-45.429c-1.45 0-2.897.146-4.319.436A21.3 21.3 0 0 0 12.02 6.23a21.5 21.5 0 0 0-7.763 9.428 21.3 21.3 0 0 0-1.248 4.022c-.58 2.85-.58 5.788 0 8.638a21.3 21.3 0 0 0 3.225 7.662 21.5 21.5 0 0 0 9.428 7.764c1.296.547 2.643.966 4.022 1.248 2.85.58 5.787.58 8.637 0a21.3 21.3 0 0 0 7.663-3.225 21.5 21.5 0 0 0 7.76-9.427 21.3 21.3 0 0 0 1.25-4.023c.58-2.85.58-5.787 0-8.637a21.3 21.3 0 0 0-3.226-7.662 21.5 21.5 0 0 0-9.426-7.763 21.3 21.3 0 0 0-4.023-1.248A21.6 21.6 0 0 0 24 2.57"/></g><g clip-path="url(#c)"><svg xmlns="http://www.w3.org/2000/svg" width="48" height="48" viewBox="0 0 48 48"><g clip-path="url(#d)"><path fill="url(#e)" d="M24 48c13.255 0 24-10.745 24-24S37.255 0 24 0 0 10.745 0 24s10.745 24 24 24"/><mask id="g" width="48" height="48" maskUnits="userSpaceOnUse" style="mask-type:alpha"><path fill="url(#f)" d="M24 48c13.255 0 24-10.745 24-24S37.255 0 24 0 0 10.745 0 24s10.745 24 24 24"/></mask><g mask="url(#g)"><path fill="url(#h)" d="M-.8 13.2c0-.53.43-.96.96-.96h13.12c.53 0 .96.43.96.96v22.32c0 .53-.43.96-.96.96H.16a.96.96 0 0 1-.96-.96z" opacity=".2"/><path fill="#E74310" d="M28.96 32.56c0-.53.43-.96.96-.96h17.12c.53 0 .96.43.96.96v8.32c0 .53-.43.96-.96.96H29.92a.96.96 0 0 1-.96-.96z" opacity=".2"/><path fill="#DF3600" d="M40.08 35.12c.53 0 .96.43.96.96v16.16c0 .53-.43.96-.96.96h-6.32a.96.96 0 0 1-.96-.96V36.08c0-.53.43-.96.96-.96z" opacity=".2"/><path fill="url(#i)" d="M19.44 15.6c.53 0 .96.43.96.96v12.88c0 .53-.43.96-.96.96h-7.12a.96.96 0 0 1-.96-.96V16.56c0-.53.43-.96.96-.96z" opacity=".1"/><path fill="url(#j)" d="M4.56 19.44c0-.53.43-.96.96-.96H17.2c.53 0 .96.43.96.96v12.24c0 .53-.43.96-.96.96H5.52a.96.96 0 0 1-.96-.96z" opacity=".1"/><path fill="#FF9776" d="M48 6.56c.53 0 .96.43.96.96v16.16c0 .53-.43.96-.96.96H33.12a.96.96 0 0 1-.96-.96V7.52c0-.53.43-.96.96-.96z" opacity=".2"/><path fill="#FFCA8C" d="M38.96-4.16c.53 0 .96.43.96.96v17.76c0 .53-.43.96-.96.96h-8.32a.96.96 0 0 1-.96-.96V-3.2c0-.53.43-.96.96-.96z" opacity=".2"/><path fill="url(#k)" d="M43.28-.96c.53 0 .96.43.96.96v19.76c0 .53-.43.96-.96.96H25.2a.96.96 0 0 1-.96-.96V0c0-.53.43-.96.96-.96z" opacity=".2"/><path fill="#DF3600" d="M16.96-6.56c.53 0 .96.43.96.96V7.68c0 .53-.43.96-.96.96h-6.32a.96.96 0 0 1-.96-.96V-5.6c0-.53.43-.96.96-.96zm.72 41.2c.53 0 .96.43.96.96v11.44c0 .53-.43.96-.96.96H1.6a.96.96 0 0 1-.96-.96V35.6c0-.53.43-.96.96-.96z" opacity=".1"/><path fill="#FFD494" d="M31.84 28.24c.53 0 .96.43.96.96v17.84c0 .53-.43.96-.96.96h-18.4a.96.96 0 0 1-.96-.96V29.2c0-.53.43-.96.96-.96z" opacity=".1"/><path fill="#FFD494" d="M25.76 0c.53 0 .96.43.96.96V5.6c0 .53-.43.96-.96.96H6.56a.96.96 0 0 1-.96-.96V.96c0-.53.43-.96.96-.96z" opacity=".2"/><path fill="#DF3600" d="M10.62 47.533 46.573 11.58l-1.233-1.233L9.386 46.3zm-2.697-2.617L43.876 8.963 42.27 7.357 6.318 43.31z" opacity=".1"/><path fill="#F45C2C" d="M6.405 43.238 42.358 7.285 40.753 5.68 4.8 41.633z" opacity=".1"/><path fill="#F45C2C" d="M4.965 41.478 40.918 5.525l-1.321-1.32L3.644 40.156z" opacity=".2"/><path fill="#FFBC6E" d="M3.641 40.154 39.594 4.2l-1.321-1.32L2.32 38.833z" opacity=".1"/><path fill="#DF3600" d="M2.761 38.394 38.714 2.44l-1.321-1.32L1.44 37.073z" opacity=".1"/><path fill="#FFD5A4" d="m-1.479 27.834 28.35-28.35-1.322-1.32L-2.8 26.513z" opacity=".09"/><path fill="#FFD5A4" d="m-2.999 26.23 28.35-28.349-1.322-1.321L-4.32 24.909z" opacity=".08"/><path fill="#FFD5A4" d="m-4.359 24.39 28.35-28.349-1.322-1.321L-5.68 23.069z" opacity=".05"/><path fill="#FFD5A4" d="M.761 31.687 33.687-1.239 32.366-2.56-.56 30.366zm.88 2.08L34.567.841 33.246-.48.32 32.446z" opacity=".2"/><path fill="#FFD5A4" d="M.201 29.274 29.424.051l-1.321-1.32L-1.12 27.952z" opacity=".1"/><path fill="#DF3600" d="M10.567 47.56 46.52 11.606 43.883 8.97 7.932 44.923z" opacity=".1"/><path fill="#DF3600" d="M10.567 47.56 46.52 11.606l-2.65-2.65L7.917 44.91z" opacity=".1"/></g><path fill="#fff" d="m23.965 29.179-9.132-5.402 9.132-15.148 9.122 15.148z"/><path fill="#fff" d="m23.965 38.375-9.132-12.86 9.132 5.393 9.13-5.393z"/></g><defs><linearGradient id="h" x1="6.72" x2="6.72" y1="12.24" y2="36.48" gradientUnits="userSpaceOnUse"><stop stop-color="#FFE090"/><stop offset="1" stop-color="#FFE090" stop-opacity="0"/></linearGradient><linearGradient id="i" x1="15.84" x2="15.84" y1="15.6" y2="29.28" gradientUnits="userSpaceOnUse"><stop stop-color="#DF3600"/><stop offset="1" stop-color="#DF3600" stop-opacity="0"/></linearGradient><linearGradient id="j" x1="4.56" x2="17.131" y1="25.623" y2="25.623" gradientUnits="userSpaceOnUse"><stop stop-color="#DF3600"/><stop offset="1" stop-color="#DF3600" stop-opacity="0"/></linearGradient><linearGradient id="k" x1="34.24" x2="34.24" y1="-.96" y2="20.72" gradientUnits="userSpaceOnUse"><stop stop-color="#DF3600"/><stop offset="1" stop-color="#DF3600" stop-opacity="0"/></linearGradient><radialGradient id="e" cx="0" cy="0" r="1" gradientTransform="rotate(54.168 -3.385 21.071)scale(39.7666)" gradientUnits="userSpaceOnUse"><stop stop-color="#FFD794"/><stop offset="1" stop-color="#ED5A37"/></radialGradient><radialGradient id="f" cx="0" cy="0" r="1" gradientTransform="rotate(54.168 -3.385 21.071)scale(39.7666)" gradientUnits="userSpaceOnUse"><stop stop-color="#FFD794"/><stop offset="1" stop-color="#ED5A37"/></radialGradient><clipPath id="d"><path fill="#fff" d="M0 0h48v48H0z"/></clipPath></defs></svg></g><defs><clipPath id="c"><circle cx="24" cy="24" r="20"/></clipPath><clipPath id="a"><path fill="#fff" d="M0 0h48v48H0z"/></clipPath><linearGradient id="b" x1="40.464" x2="9.888" y1="6.48" y2="42.528" gradientUnits="userSpaceOnUse"><stop stop-color="#B6509E"/><stop offset="1" stop-color="#2EBAC6"/></linearGradient></defs></svg>