<svg xmlns="http://www.w3.org/2000/svg" width="48" height="48" fill="none" viewBox="0 0 48 48"><g clip-path="url(#a)"><path fill="url(#b)" d="M24 48a23.87 23.87 0 0 1-13.42-4.099 24.07 24.07 0 0 1-8.695-10.559 24 24 0 0 1-1.397-4.504 24.2 24.2 0 0 1 0-9.674 23.9 23.9 0 0 1 3.61-8.582 24.07 24.07 0 0 1 10.56-8.696A24 24 0 0 1 19.163.488c3.191-.65 6.481-.65 9.673 0a23.9 23.9 0 0 1 8.582 3.61 24.07 24.07 0 0 1 8.695 10.56 24 24 0 0 1 1.4 4.505c.65 3.191.65 6.481 0 9.673a23.9 23.9 0 0 1-3.612 8.582 24.07 24.07 0 0 1-10.559 8.695A23.9 23.9 0 0 1 24 48m0-45.429c-1.45 0-2.897.146-4.319.436A21.3 21.3 0 0 0 12.02 6.23a21.5 21.5 0 0 0-7.763 9.428 21.3 21.3 0 0 0-1.248 4.022c-.58 2.85-.58 5.788 0 8.638a21.3 21.3 0 0 0 3.225 7.662 21.5 21.5 0 0 0 9.428 7.764c1.296.547 2.643.966 4.022 1.248 2.85.58 5.787.58 8.637 0a21.3 21.3 0 0 0 7.663-3.225 21.5 21.5 0 0 0 7.76-9.427 21.3 21.3 0 0 0 1.25-4.023c.58-2.85.58-5.787 0-8.637a21.3 21.3 0 0 0-3.226-7.662 21.5 21.5 0 0 0-9.426-7.763 21.3 21.3 0 0 0-4.023-1.248A21.6 21.6 0 0 0 24 2.57"/></g><g clip-path="url(#c)"><svg xmlns="http://www.w3.org/2000/svg" width="48" height="48" viewBox="0 0 48 48"><g clip-path="url(#d)"><path fill="#FFD58F" d="M4.647 38.07a22.3 22.3 0 0 1-3.39-6.695 30 30 0 0 1-.71-2.723q-1.044-4.94.192-10.106.815-3.41 2.279-6.062a23.9 23.9 0 0 1 8.177-8.717 22 22 0 0 1 4.913-2.345q1.314-.437 2.708-.76 5.325-1.236 10.877.12 6.65 1.627 11.26 6.3 4.217 4.273 5.912 9.888.735 2.438 1.03 5.34.2 1.983-.092 4.207-.18 1.37-.487 2.773a23.2 23.2 0 0 1-3.829 8.602 23.75 23.75 0 0 1-7.722 6.955 22.4 22.4 0 0 1-5.12 2.118q-1.365.376-2.74.63-3.739.69-7.487.052a32 32 0 0 1-2.75-.594q-3.973-1.043-7.506-3.549-2.133-1.512-3.732-3.257a26 26 0 0 1-1.783-2.178M22.38 2.186q-7.414.582-12.95 5.479a21.2 21.2 0 0 0-3.73 4.328q-4.628 7.227-3.287 15.62.228 1.422.63 2.74a22.5 22.5 0 0 0 3.523 6.926q.059.077.149.092.24.422.604.745.197.431.592.698.275.419.704.669.185.394.569.604.32.36.739.598a.15.15 0 0 0 .056.15q7.224 5.842 16.589 4.912 1.855-.184 4.123-.915a21.4 21.4 0 0 0 6.223-3.162 19.6 19.6 0 0 0 3.238-2.92 21.6 21.6 0 0 0 4.815-8.452q1.337-4.525.745-9.08-.862-6.622-5.306-11.69-5.49-6.265-14.014-7.271a17.4 17.4 0 0 0-4.012-.07"/><path fill="#FF6B2D" d="M26.393 2.258q-.132.318-.065.663l-.011.246a4.6 4.6 0 0 0-1.156-.176 63 63 0 0 0-3.73.065q.318-.41.766-.66a1 1 0 0 1 .111-.04q.105-.033.073-.169a17.4 17.4 0 0 1 4.012.07"/><path fill="#FF6123" d="M22.381 2.187q.032.135-.073.17a1 1 0 0 0-.111.039 2.5 2.5 0 0 0-.766.66l-.07.046a4 4 0 0 0-1.723.141q-.492.15-1.003.175a1 1 0 0 0-.297.055 8 8 0 0 0-.285.104 4 4 0 0 1-.43.14q-1.28.35-2.466.937a5 5 0 0 1-.502.216q-.259.091-.521.178a.1.1 0 0 1-.036.004q-.016-.003-.023-.014-.01-.016-.004-.04.572-.488-.043-.216a1 1 0 0 0-.125.07q-.69.476-1.426.878-.3.164-.569.337-.278.181-.562.353a3.5 3.5 0 0 0-.602.472 6 6 0 0 1-.59.5 9 9 0 0 0-.225.229q-.18.186-.498.045 5.536-4.897 12.95-5.479"/><path fill="#FF4128" d="M26.393 2.258q8.523 1.005 14.014 7.27 4.444 5.07 5.306 11.692.592 4.554-.745 9.08-.204.13-.17-.142.022-.19.16-.506.103-.236.131-.506.034-.305.123-.826.396-2.318.19-4.989a18.7 18.7 0 0 0-1.383-6.496 2 2 0 0 0-.198-.333 1.5 1.5 0 0 1-.176-.358q-.48-1.396-1.32-2.697a6 6 0 0 0-.396-.445 1.23 1.23 0 0 1-.325-.685.3.3 0 0 0-.05-.128 8 8 0 0 1-.454-.689q-.15-.255-.435-.552a2.9 2.9 0 0 1-.556-.822 1.3 1.3 0 0 0-.318-.453 93 93 0 0 1-1.743-1.596q-.01-.01-.176-.22-.158-.2-.464-.145-.493.026-.977-.436-.825-.787-2.288-1.564a.8.8 0 0 1-.184-.14 1.3 1.3 0 0 0-.179-.155.9.9 0 0 0-.32-.123q-.315-.07-.572-.263l-.338-.255a4 4 0 0 0-.728-.355q-.48-.18-.95-.39a6 6 0 0 0-.842-.288 21 21 0 0 1-.857-.26q-.91-.292-2.71-.457-.075-.007-.135-.105-.067-.345.065-.663"/><path fill="#FF5C41" d="M26.328 2.92q.06.1.135.106 1.8.165 2.71.458.517.166.857.259.495.135.842.288.47.21.95.39.383.142.728.355l.338.255q.255.192.571.263a.9.9 0 0 1 .321.123q.096.069.179.154a.8.8 0 0 0 .184.141q1.464.777 2.288 1.564.484.462.977.436.126.015.188.102.072.1.08.108 1.103 1.125 2.292 2.16.052.043.075.112.252.747.813 1.384.186.21.389.508.15.216.26.574.11.352.27.686.03.058.092.098.369.236.559.608l.271.535q.57.925.976 1.93.05.124.26.51.122.22.231.533 1.071 3.056 1.097 6.088-.045.284-.03-.105a2 2 0 0 0-.024-.38q-.014-.075-.014 0 .003.82-.03 1.638-.006.066-.004 0 .015-1.052-.115-2.096-.009-.07-.007.001a39 39 0 0 1-.142 4.565 1 1 0 0 1-.068.283q-.12.493-.215.991-.08.413-.066-.04a20.2 20.2 0 0 0 .413-4.61 18 18 0 0 0-.3-2.748 42 42 0 0 0-.6-2.707q-.18-.705-.463-1.163a.1.1 0 0 0-.048-.043.1.1 0 0 0-.06-.006l-.092.021a.08.08 0 0 1-.055-.007.07.07 0 0 1-.033-.04q-.265-.858-.375-1.014a3.5 3.5 0 0 1-.51-1.093.26.26 0 0 0-.069-.118l-.735-.72a.2.2 0 0 1-.06-.119 1.47 1.47 0 0 0-.406-.787.2.2 0 0 1-.056-.12q-.075-.825-.73-1.417a.7.7 0 0 1-.206-.356 1.7 1.7 0 0 0-.3-.642 19 19 0 0 0-.424-.559 2 2 0 0 0-.976-.665.23.23 0 0 1-.113-.075q-.74-.89-.932-1.01a2.6 2.6 0 0 1-.483-.385q-.282-.285-.485-.35a1.6 1.6 0 0 0-.552-.07.14.14 0 0 1-.065-.012.13.13 0 0 1-.05-.04 9 9 0 0 0-.184-.233 1 1 0 0 0-.276-.231 15 15 0 0 1-1.037-.684q-.557-.394-1.445-.66.06-.286-.139-.396a12 12 0 0 0-1.84-.812l-.756-.289a12 12 0 0 0-1.353-.404q-1.327-.324-2.182-.387-.171-.012-.227-.101-.072-.111-.025-.286z"/><path fill="#FF824C" d="M26.317 3.167q-.047.175.025.286.056.089.227.101.855.062 2.182.387.82.203 1.352.404l.756.289q1.02.357 1.841.812.2.11.139.396l-.012.387q-1.584-.75-1.93-.845a20 20 0 0 1-1.614-.512 6 6 0 0 0-.71-.206 11 11 0 0 1-.72-.187 4.5 4.5 0 0 0-.755-.159q-.386-.045-.77-.097l-.017-.215a.07.07 0 0 0-.028-.049.12.12 0 0 0-.065-.023 33.3 33.3 0 0 0-5.565.02.4.4 0 0 0-.254.12l-.833.821q-.712-.03-1.768.338-2.686.93-4.542 2.083a.3.3 0 0 1-.131.04.5.5 0 0 0-.211.07l-.128.142q-.082.09-.217.031v-.598l-.012-.493q.035.21.209.097.656-.43 1.248-.722.27-.133 1.314-.59a19.3 19.3 0 0 1 4.493-1.35l.476-.015a.67.67 0 0 0 .496-.232l.143-.156q.218-.215.425-.44l.07-.046q2.034-.09 3.73-.065.55.009 1.156.176"/><path fill="#FF7135" d="M21.36 3.102q-.206.225-.424.44-.008.007-.143.156a.67.67 0 0 1-.496.232l-.476.016a19.3 19.3 0 0 0-4.493 1.35q-1.043.455-1.314.59-.592.29-1.248.721-.173.113-.209-.097l1.514-1.513q-.006.025.004.04.006.012.023.015.016.002.036-.004.262-.087.52-.178a5 5 0 0 0 .503-.216 13.7 13.7 0 0 1 2.465-.936q.214-.058.43-.141.143-.056.287-.104a1 1 0 0 1 .297-.055q.51-.024 1.002-.175a4 4 0 0 1 1.723-.14"/><path fill="#FF752F" d="M14.07 4.997 12.558 6.51l.012.493q-.006-.127-.112-.106a.82.82 0 0 0-.488.33.2.2 0 0 1-.107.076.65.65 0 0 0-.425.398l-.211.011-.705.023a.2.2 0 0 0-.12.055q-.68.644-1.384 1.262-.701.618-1.596 1.775-.21.273-.687.811-.353.402-.652.848a1.3 1.3 0 0 1-.305.323q.036-.417-.076-.815a21.2 21.2 0 0 1 3.73-4.328q.318.141.498-.045l.224-.23q.313-.231.591-.5.307-.293.601-.47.285-.172.564-.354.267-.174.568-.337.736-.402 1.426-.878a1 1 0 0 1 .125-.07q.616-.272.043.215"/><path fill="#FF935A" d="m19.566 4.897-.985.985q-.165 0-.33-.004-.165 0-.32.047-.974.3-1.898.726-.12.055-.912.356a3.7 3.7 0 0 0-.872.472q-.075.056-.425.445a1.4 1.4 0 0 1-.663.41l-.522-.029-.07-.704q.135.058.216-.03l.129-.143a.5.5 0 0 1 .21-.07.3.3 0 0 0 .132-.04q1.856-1.152 4.542-2.083 1.056-.368 1.768-.338"/><path fill="#FF9A62" d="M18.58 5.882q-1.248 1.283-2.532 2.53-.127.124-.232.011a.23.23 0 0 0-.11-.073.91.91 0 0 0-.916.282q-.962 1.024-1.976 1.975-.074.068-.033-.027l.057-.128a1 1 0 0 1 .056-.12l1.804-1.806q.185-.186-.076-.186l-1.46-.005q.402-.12.662-.411.35-.39.425-.445.405-.296.872-.472.79-.301.912-.356.925-.425 1.899-.726.153-.048.32-.047l.329.004"/><path fill="#FF6C53" d="M32.839 5.842q.888.266 1.445.66.655.462 1.038.684a1 1 0 0 1 .275.23 9 9 0 0 1 .185.234q.019.026.05.04.03.014.064.013a1.6 1.6 0 0 1 .552.07q.203.063.485.349.218.22.483.386.192.118.932 1.009.044.053.113.075.6.191.976.665.193.244.424.56.227.31.3.641a.67.67 0 0 0 .207.356q.653.593.729 1.418a.2.2 0 0 0 .056.12q.324.328.406.786.014.074.06.12l.735.72a.26.26 0 0 1 .069.117q.159.59.51 1.093.11.156.375 1.015.008.025.033.039a.08.08 0 0 0 .055.007l.093-.021a.1.1 0 0 1 .059.006q.03.015.047.043.284.458.464 1.163.371 1.46.6 2.707.267 1.445.3 2.747a20.2 20.2 0 0 1-.413 4.61 15 15 0 0 1-.355 1.294q-.06.165-.273.46.501-1.871.633-3.69.127-1.743.027-3.552a16.4 16.4 0 0 0-.345-2.515q-.218-1.02-.561-2.483-.22-.938-.775-.252l-.105.081a.18.18 0 0 1-.158-.124 7.5 7.5 0 0 0-.678-1.402.07.07 0 0 0-.08-.03.1.1 0 0 0-.026.014q-.094.081-.176.057-.06-.018-.101-.12a5.2 5.2 0 0 0-.562-1.006l-.097-.163-.601-1.004a.27.27 0 0 1-.04-.16.22.22 0 0 1 .064-.141l.317-.315a.44.44 0 0 0 .132-.207.27.27 0 0 0-.079-.26.3.3 0 0 1-.077-.11 1.1 1.1 0 0 0-.376-.492.2.2 0 0 1-.07-.11 3 3 0 0 0-.127-.465.94.94 0 0 0-.278-.373 2.5 2.5 0 0 1-.408-.455 5 5 0 0 0-.369-.476 28 28 0 0 1-.668-.739.2.2 0 0 0-.116-.066l-.318-.05a.2.2 0 0 1-.117-.058 18.4 18.4 0 0 0-1.87-1.771.22.22 0 0 0-.124-.05 12 12 0 0 0-1.21-.033.6.6 0 0 1-.312-.064 1.1 1.1 0 0 1-.269-.197 1.6 1.6 0 0 0-.371-.292q-.4-.206-.788-.428l-.012-.528z"/><path fill="#FF7C63" d="M32.839 6.757q.387.223.788.428.15.075.371.292.12.12.27.197a.6.6 0 0 0 .312.064q.606-.013 1.209.033.07.006.124.05a18.4 18.4 0 0 1 1.87 1.77q.045.048.117.06l.318.049q.066.01.116.066.327.375.668.74.133.14.37.475.176.253.407.454.21.185.278.374.08.226.127.464a.2.2 0 0 0 .07.111q.26.193.376.492.022.056.077.11.11.112.079.26a.44.44 0 0 1-.132.207l-.317.315a.22.22 0 0 0-.063.14.27.27 0 0 0 .039.161l.601 1.004.097.163q.334.469.562 1.007.042.1.101.12.082.023.176-.058a.07.07 0 0 1 .085-.005.1.1 0 0 1 .02.021q.435.712.68 1.402a.18.18 0 0 0 .157.124.5.5 0 0 1-.141.141l-.097-.006a.1.1 0 0 1-.056-.023.1.1 0 0 1-.034-.053 8 8 0 0 0-.579-1.412.12.12 0 0 0-.091-.062.13.13 0 0 0-.109.036l-.383.373a.14.14 0 0 1-.128.035.15.15 0 0 1-.105-.089 3.7 3.7 0 0 0-.658-1.006.1.1 0 0 0-.05-.029.14.14 0 0 0-.063 0q-.15.03-.186-.127l-.054-1.504a.3.3 0 0 1 .033-.133l.032-.061a.1.1 0 0 0 .01-.05l-.002-.078-.052-.62a1 1 0 0 0-.023-.142.3.3 0 0 0-.041-.093 52 52 0 0 0-2.475-2.972.9.9 0 0 0-.494-.303 2.4 2.4 0 0 0-.733-.018.12.12 0 0 1-.114-.05 2.55 2.55 0 0 0-.86-.812q-.22-.124-1.28-.975a.3.3 0 0 0-.066-.04.2.2 0 0 0-.06-.014l-.983.016a.1.1 0 0 1-.045-.008.1.1 0 0 1-.038-.021.1.1 0 0 1-.024-.033.1.1 0 0 1-.009-.038z"/><path fill="#FF9A62" d="M12.569 7.003V7.6l.07.704q-.014.031-.04.025h-.009l-.008.003-.006.006-.002.008q.015.274-.083.073a.08.08 0 0 0-.085-.046l-.2.024a.4.4 0 0 0-.182.073Q10.31 9.766 9.36 10.84a21 21 0 0 1-1.025 1.093 4.4 4.4 0 0 0-.43.47q-.194.253-.38.513-.022.03-.25.425-.101.18-.282.411-.156.201-.64 1.126a.7.7 0 0 1-.221.266q-.15.104-.32.165a.1.1 0 0 1 0-.07q.325-.316.375-.775a.26.26 0 0 1 .046-.128q.264-.374 1.2-1.764.976-1.448 2.42-2.854.18-.175.613-.511a5 5 0 0 0 .595-.54.85.85 0 0 1 .373-.236q.566-.177.828-.483a.08.08 0 0 0 .018-.054.07.07 0 0 0-.026-.048.55.55 0 0 0-.432-.113 1 1 0 0 1-.386-.03.65.65 0 0 1 .425-.4.2.2 0 0 0 .107-.075.82.82 0 0 1 .489-.33q.105-.023.11.106"/><path fill="#FF7D40" d="M11.226 7.712a.49.49 0 0 1 .086.447.1.1 0 0 1-.035.05.13.13 0 0 1-.06.028 1.3 1.3 0 0 0-.384.136 6 6 0 0 1-.362.176q-.313.139-.688.495a405 405 0 0 1-1.714 1.62 5 5 0 0 0-.351.368q-.164.196-.332.388a6 6 0 0 0-.456.612q-.476.731-1.018 1.416-.036.049-.05-.014a.2.2 0 0 0-.085-.132v-.493q.18-.136.305-.323.3-.447.652-.848.477-.54.687-.81.896-1.158 1.596-1.776.704-.618 1.384-1.262a.2.2 0 0 1 .12-.055z"/><path fill="#FF8E54" d="m11.226 7.712.21-.01a1 1 0 0 0 .387.03.55.55 0 0 1 .432.113.07.07 0 0 1 .023.077.1.1 0 0 1-.015.025q-.263.306-.828.483a.85.85 0 0 0-.373.235 5 5 0 0 1-.595.54 8 8 0 0 0-.612.512q-1.444 1.406-2.421 2.855-.936 1.39-1.2 1.763a.26.26 0 0 0-.046.128 1.23 1.23 0 0 1-.376.775l-.046-1.267.01-.669q.07.046.087.132.012.063.049.014.541-.686 1.018-1.416.221-.339.456-.612l.332-.388q.168-.195.35-.368.86-.808 1.715-1.62.376-.356.688-.495.203-.092.362-.176.18-.097.384-.136a.13.13 0 0 0 .06-.027.1.1 0 0 0 .035-.051.49.49 0 0 0-.086-.447"/><path fill="#FF4D34" d="M37.408 7.712q.305-.054.464.145.166.21.176.22.861.81 1.743 1.596.189.168.318.454.208.46.556.821.284.296.435.552.21.357.453.689.04.054.05.128.062.406.326.685.343.365.395.445a12.3 12.3 0 0 1 1.32 2.697q.071.204.177.358.156.23.198.333a18.7 18.7 0 0 1 1.383 6.496l-.106 1.62-.035-1.303q-.026-3.031-1.097-6.088a3.5 3.5 0 0 0-.23-.533 6 6 0 0 1-.261-.51 12.7 12.7 0 0 0-.976-1.93l-.271-.535a1.54 1.54 0 0 0-.559-.608.25.25 0 0 1-.091-.098 5 5 0 0 1-.27-.686 2.1 2.1 0 0 0-.261-.574 5 5 0 0 0-.389-.508 4 4 0 0 1-.813-1.384.25.25 0 0 0-.075-.113 40 40 0 0 1-2.293-2.159l-.079-.108a.26.26 0 0 0-.188-.102"/><path fill="#FF942A" d="M5.7 11.994q.114.398.077.815v.493l-.011.669q-.189.135-.355.449-.676 1.268-1.122 2.383-.334.841-.418 1.15a4.2 4.2 0 0 0-.14 1.226q.013.457-.106.633a1.9 1.9 0 0 0-.327 1.339.23.23 0 0 1-.025.13.51.51 0 0 0 .028.55.2.2 0 0 1 .027.064.14.14 0 0 1 0 .063 1 1 0 0 1-.202.388.56.56 0 0 0-.364.314.25.25 0 0 1-.087.099q-.21.137-.212.502 0 .394.052.784a.25.25 0 0 0 .057.121q.205.25-.02.458a.2.2 0 0 0-.04.054.2.2 0 0 0-.015.061q-.014.75.16 1.48a.25.25 0 0 1-.008.136.75.75 0 0 0 .05.62q.034.058.037.13.013.23.18.601.042.102.047.213.017.608.221 1.123.114.287.145.57.034.297.113.587.054.197.307.587.304.474.33 1.061.005.07.047.127.412.553.625 1.21.054.17.345.242a.2.2 0 0 1 .11.07q.23.304.388.643.214.454.348.66.425.653.542.876.28.534.715.946.015.014.024.044t.014.073l.012.147-.533.487a.23.23 0 0 1-.15-.093 22.5 22.5 0 0 1-3.521-6.925 20 20 0 0 1-.63-2.74Q1.071 19.222 5.7 11.995"/><path fill="#FF622B" d="m23.683 32.24 2.693-2.384a.2.2 0 0 0 .066-.119l.624-2.89a.62.62 0 0 1 .215-.356 26 26 0 0 0 3.225-3.237q1.545-1.86 2.652-4.278.99-2.16.912-4.407.24-.144.24.14a11 11 0 0 1-.492 3.168q-.533 1.761-1.728 3.587a23.7 23.7 0 0 1-4.79 5.35.2.2 0 0 0-.068.115l-.656 2.976a.24.24 0 0 1-.066.12 30 30 0 0 1-2.666 2.412.14.14 0 0 1-.062.03.1.1 0 0 1-.06-.009q-.113-.056-.039-.218"/><path fill="#FFB878" d="M5.733 26.814q-.28.281-.64.623-.137.13-.175-.035l-.14-.614a.6.6 0 0 0-.037-.13q-.226-.405.107-.689.187-.159.2-.172 5.3-5.304 10.64-10.57.053-.053.05.019l-.032 1.55a.2.2 0 0 1-.015.062.2.2 0 0 1-.041.052q-.44.373-1.195 1.134-4.36 4.386-8.722 8.77"/><path fill="#FF7E4E" d="m43.918 30.258-1.48 3.457a.36.36 0 0 1-.117.148.4.4 0 0 1-.178.073q-.18.026-.291.214a1 1 0 0 0-.057.192.45.45 0 0 1-.091.181 3.4 3.4 0 0 0-.423.653q-.313.634-.349.69a7 7 0 0 1-.736.969 2 2 0 0 0-.172.225q-.39.609-.794 1.044-.074.08-.551.637-.232.269-.603.602-1.23 1.108-1.816 1.533a.22.22 0 0 1-.13.038q-.211.007-.17.228 0 .014-.006.026a.04.04 0 0 1-.02.016q-.452.144-.534.26-.162.231-.402.378-2.096 1.269-4.136 1.92-.102.032-.17.176l-.011-.246.005-.176a9 9 0 0 0 .974-.35q.15-.063.957-.381a5.6 5.6 0 0 0 1.172-.63q.117-.084.447-.23a.97.97 0 0 0 .407-.33q.215-.3.33-.385.405-.299.858-.518a.04.04 0 0 1 .03-.002q.016.005.03.019.033.04.06-.028a.14.14 0 0 1 .059-.076q.1-.056.203-.105a1 1 0 0 0 .192-.118q1.889-1.53 3.14-3.139 1.297-1.666 1.707-2.27.189-.276.367-.848a.2.2 0 0 1 .034-.058.13.13 0 0 1 .052-.035l.34-.114a.2.2 0 0 0 .11-.077q.16-.25.25-.53.141-.449.185-.55.535-1.251.95-2.546.068-.216.15-.814a7 7 0 0 1 .201-.903q.216-.756.279-2.543.007-.227-.021-.185-.02.027-.02.094-.01.581-.135 1.147.259-3.16-.006-5.384-.048-.416-.46-2.114l-.12-.559a5 5 0 0 0-.364-1.095q-.04-.087-.147-.073.555-.686.775.252.343 1.463.561 2.483.279 1.31.345 2.515.1 1.809-.027 3.553a20 20 0 0 1-.633 3.69"/><path fill="#FF8D64" d="M42.897 17.766q.106-.015.147.073.245.528.364 1.095l.12.559q.412 1.699.46 2.114.265 2.224.006 5.384-.03.274-.084.544-.071.342-.103.537a11.8 11.8 0 0 1-.663 2.438q-.174.441-.717 2.01a.26.26 0 0 1-.074.112q-.27.24-.314.498a1.4 1.4 0 0 1-.258.605q-.24.326-.573.218.066-.176.138-.35.05-.117.194-.316.135-.182.24-.446.69-1.724 1.115-3.166.585-1.997.671-4.058a24 24 0 0 0-.055-2.812 21.3 21.3 0 0 0-.649-3.802 3 3 0 0 0-.222-.622 2 2 0 0 0-.134-.152q-.107-.117.145-.241a.5.5 0 0 0 .14-.14z"/><path fill="#FF752F" d="M27.941 20.405q-.122.03-.2-.045l-.105-.094q-1.447-.939-2.642.294a.65.65 0 0 0-.15.338 1.96 1.96 0 0 0-.144 1.485q.025.088-.026.139-.52-1.226.13-2.076a2 2 0 0 1 1.448-.807q.96-.094 1.69.766"/><path fill="#FE9F73" d="M23.824 33.531a.3.3 0 0 1-.176-.07l13.717-13.695q.07-.07.084.011.01.072-.085.168a2999 2999 0 0 1-10.52 10.523l-1.394 1.42a27 27 0 0 1-1.441 1.376q-.159.136-.185.267"/><path fill="#FFAD5F" d="M27.941 20.405q.876 1.348-.176 2.545-.106-.073-.038-.14a1 1 0 0 0 .08-.082q.445-.726.161-1.464-.224-.579-.753-.882a1.67 1.67 0 0 0-2.116.353.48.48 0 0 1-.254.163.65.65 0 0 1 .149-.338q1.195-1.233 2.642-.294.009.005.104.094.08.075.201.045"/><path fill="#FFCBA9" d="M27.765 22.95a1.1 1.1 0 0 1-.43.338q-1.677.69-2.66-.766.05-.05.025-.14a1.96 1.96 0 0 1 .145-1.484.48.48 0 0 0 .254-.162 1.67 1.67 0 0 1 2.116-.354q.53.303.753.882.285.738-.162 1.463a1 1 0 0 1-.079.084q-.069.066.038.139"/><path fill="#FFBD7A" d="M11.422 24.78a549 549 0 0 1-5.068 5.094.07.07 0 0 1-.06.02.06.06 0 0 1-.048-.034l-.45-.937a.1.1 0 0 1-.007-.06.1.1 0 0 1 .032-.056l7.101-7.083q.099-.1.098.04v1.296a.3.3 0 0 1-.078.198q-.393.425-.75.77-.65.63-.77.752"/><path fill="#FF9F37" d="M3.126 22.346a5.5 5.5 0 0 0 .055 1.541.3.3 0 0 1-.01.136q-.24.744.005 1.556a.3.3 0 0 1 .01.14 3.7 3.7 0 0 0-.015 1.176q.008.039.133.365.06.155.046.33a.3.3 0 0 0 .02.135q.2.488.322 1 .003.014.066.603.041.382.282.705.04.056.038.125a1.36 1.36 0 0 0 .224.801q.153.243.195.573.008.063.06.116.14.14.202.402.093.393.553 1.18.015.024.044.042.028.015.062.02.165.018.232.188l.064.16q.836 1.636 1.703 2.685.141.172.084.308l-.252.252-.012-.147a.3.3 0 0 0-.014-.073.1.1 0 0 0-.024-.044 3.6 3.6 0 0 1-.715-.946 13 13 0 0 0-.542-.876 6 6 0 0 1-.348-.66 3.7 3.7 0 0 0-.387-.643.2.2 0 0 0-.111-.07q-.291-.073-.345-.241a4.1 4.1 0 0 0-.625-1.21.24.24 0 0 1-.047-.128 2.1 2.1 0 0 0-.33-1.06q-.252-.39-.307-.588a4 4 0 0 1-.113-.587 2.2 2.2 0 0 0-.145-.57 3.3 3.3 0 0 1-.22-1.123.6.6 0 0 0-.049-.213q-.165-.371-.179-.6a.3.3 0 0 0-.036-.132.75.75 0 0 1-.05-.619.25.25 0 0 0 .008-.137 6 6 0 0 1-.16-1.479.2.2 0 0 1 .014-.061.2.2 0 0 1 .04-.054q.224-.21.02-.458a.25.25 0 0 1-.057-.121 6 6 0 0 1-.052-.784q.002-.364.212-.502.06-.041.087-.1a.56.56 0 0 1 .364-.313"/><path fill="#FF622B" d="m45.26 23.648.036 1.302q-.003.723-.106 1.435-.045.313-.064.814-.015.412-.103.816a10 10 0 0 0-.187 1.193 8.9 8.9 0 0 1-1.024 3.405q-.15.279-.349.811a3.5 3.5 0 0 1-.57.99q-.346.425-.588.913a3.3 3.3 0 0 1-.408.632 5 5 0 0 0-.486.701 17 17 0 0 1-.987 1.523 5 5 0 0 1-.155.173q-.15.164-.116.395a19.6 19.6 0 0 1-3.238 2.92.2.2 0 0 1-.194-.047.08.08 0 0 1-.023-.053q0-.032.019-.06.14-.195.339-.317.3-.186.373-.25a24 24 0 0 0 2.173-2.19q.105-.121.041-.13a.1.1 0 0 0-.051.011.2.2 0 0 0-.052.044 7 7 0 0 1-.802.82q-.056.048-.009-.008.713-.849 1.415-1.705.63-.768.915-1.212.09-.136.27-.34.15-.168.245-.37.153-.324.289-.502.324-.42.723-1.17a.15.15 0 0 1 .05-.056q.327-.225.477-.585l.135-.323a16.4 16.4 0 0 0 .897-2.248q.094-.3.277-1.092.111-.484.279-1.094a4 4 0 0 0 .126-1.24 1 1 0 0 0 .068-.283q.205-2.277.142-4.565-.002-.071.007-.001.13 1.044.116 2.096-.002.066.002 0 .034-.818.031-1.637 0-.078.014 0 .032.187.024.378-.015.39.03.106"/><path fill="#FF6123" d="M45.402 23.331q.206 2.67-.19 4.989-.09.521-.123.826-.028.27-.13.506-.139.316-.161.506-.034.274.17.141a21.6 21.6 0 0 1-4.815 8.452.46.46 0 0 1 .116-.395q.147-.16.155-.173.534-.735.987-1.523.213-.373.486-.7.239-.292.408-.633.242-.488.588-.913.37-.454.57-.99.199-.532.35-.81a8.9 8.9 0 0 0 1.023-3.406q.057-.602.187-1.193.088-.404.103-.816.018-.502.064-.815.103-.711.106-1.434z"/><path fill="#FF752F" d="M15.59 24.815q2.097.663 3.026.98.179.06.1.246a40 40 0 0 1-3.03-.977q-.166-.062-.097-.249"/><path fill="#FF925D" d="m30.686 43.496-.005-.423v-.246l.035-.352a6.6 6.6 0 0 0 1.738-.8q.162-.105-.043-.08a.9.9 0 0 1-.37-.017q-.225-.076-.019-.192.231-.133.456-.274.23-.143.459-.26a16.4 16.4 0 0 0 2.797-1.817.1.1 0 0 1 .053-.02q.031-.004.065.006a.15.15 0 0 0 .131-.017q.1-.065.117-.072a1 1 0 0 0 .389-.277q.171-.203.18-.211.402-.409.81-.813.082-.08.352-.436.144-.192.386-.42.177-.17.863-1.06.15-.196.359-.62.159-.327.397-.608.081-.098.14-.522l1.232-.012q.334.109.573-.218.201-.272.258-.605.043-.258.314-.498a.26.26 0 0 0 .074-.112 69 69 0 0 1 .717-2.01q.463-1.185.663-2.438.032-.196.102-.537.055-.269.085-.544.125-.566.135-1.147 0-.067.02-.094.03-.043.02.186-.062 1.786-.278 2.542-.15.525-.201.903-.083.599-.15.814a29 29 0 0 1-.95 2.546q-.043.101-.185.55-.09.28-.25.53a.2.2 0 0 1-.11.077l-.34.114a.13.13 0 0 0-.052.035.2.2 0 0 0-.034.058q-.178.572-.367.848-.41.604-1.706 2.27-1.253 1.61-3.14 3.14a1 1 0 0 1-.193.117 4 4 0 0 0-.203.105.14.14 0 0 0-.06.076q-.026.069-.06.028a.1.1 0 0 0-.029-.02.04.04 0 0 0-.03.003q-.453.22-.857.518-.117.086-.33.386a.97.97 0 0 1-.408.329q-.33.146-.447.23a5.6 5.6 0 0 1-1.172.63q-.807.319-.957.382a9 9 0 0 1-.974.349"/><path fill="#FF7135" d="M44.827 27.554a4 4 0 0 1-.127 1.24q-.167.61-.278 1.094-.183.792-.277 1.092a16.4 16.4 0 0 1-.897 2.248l-.135.323q-.15.36-.477.585a.15.15 0 0 0-.05.057q-.399.749-.723 1.17a2.8 2.8 0 0 0-.289.5 1.5 1.5 0 0 1-.245.37q-.18.205-.27.341-.285.444-.915 1.212-.702.856-1.415 1.705-.048.056.009.008.433-.379.802-.82a.2.2 0 0 1 .052-.044.1.1 0 0 1 .05-.011q.066.009-.04.13a24 24 0 0 1-2.173 2.19 4 4 0 0 1-.373.25 1.2 1.2 0 0 0-.34.317.1.1 0 0 0-.018.06q.001.032.023.053a.2.2 0 0 0 .194.047 21.4 21.4 0 0 1-6.223 3.162l-.011-.563.01-.352q.069-.144.171-.176 2.04-.651 4.136-1.92.24-.147.402-.377.083-.117.534-.26a.04.04 0 0 0 .02-.017.04.04 0 0 0 .005-.026q-.04-.22.172-.228a.22.22 0 0 0 .13-.038q.584-.424 1.815-1.533.37-.333.603-.602.477-.556.551-.637.405-.435.794-1.044.076-.12.172-.225.41-.45.736-.969.035-.056.35-.69.171-.347.422-.653a.45.45 0 0 0 .091-.181 1 1 0 0 1 .056-.192q.112-.188.292-.214a.4.4 0 0 0 .178-.073.36.36 0 0 0 .117-.148l1.48-3.457q.214-.294.273-.46.138-.39.355-1.294-.014.454.066.041.096-.498.215-.99"/><path fill="#FF752F" d="M22.528 29.173q.008.054-.043.06-.983.15-1.928-.129a.13.13 0 0 0-.128.034l-1.092 1.09a.174.174 0 0 1-.238.01 9 9 0 0 1-.72-.715l-.125-.102q-.11-.09-.055-.248l.845.835a.12.12 0 0 0 .166 0l1.148-1.138a.1.1 0 0 1 .055-.03.1.1 0 0 1 .064 0q.863.258 1.904.157.15-.014.147.176"/><path fill="#FFA970" d="m30.897 33.953 9.08.012q-.06.425-.141.522-.238.28-.397.608-.21.424-.36.62-.685.89-.862 1.06-.242.228-.386.42-.27.356-.352.436-.408.404-.81.813-.009.008-.18.21a1 1 0 0 1-.389.278q-.017.008-.117.072a.15.15 0 0 1-.13.017.2.2 0 0 0-.066-.006.1.1 0 0 0-.053.02 16.4 16.4 0 0 1-2.797 1.817 6 6 0 0 0-.459.26q-.225.14-.456.274-.207.116.018.192a.9.9 0 0 0 .37.017q.207-.025.044.08-.81.527-1.738.8l-.03-.569-.003-.266a.07.07 0 0 0-.022-.05.08.08 0 0 0-.054-.021l-2.757-.009a.12.12 0 0 1-.085-.035.12.12 0 0 1-.035-.083v-7.35a.124.124 0 0 1 .124-.125z"/><path fill="#FF993E" d="m9.889 38.317.08.024a.2.2 0 0 1 .057.03q.023.02.033.046.066.185.227.293.022.015.035.042a.2.2 0 0 1 .015.063l.01.182-1.161 1.09a1.3 1.3 0 0 1-.569-.603z"/><path fill="#FFAD5F" d="M30.68 42.827v.246q-1.084.454-1.296.493-.683.127-1.352.31-.51.138-1.046.173a15 15 0 0 0-1.333.145 7 7 0 0 1-1.274.094 51 51 0 0 1-3.449-.235 7 7 0 0 1-1.042-.198 16 16 0 0 0-1.039-.234 3 3 0 0 1-.58-.194 2.6 2.6 0 0 0-.595-.175.1.1 0 0 1-.05-.028.1.1 0 0 1-.024-.054q-.03-.255-.241-.32l-.289-.093a9 9 0 0 0-1.067-.447q-.67-.23-.89-.356a3.1 3.1 0 0 1-.755-.605 1.4 1.4 0 0 0-.321-.27q-.036-.019-.315-.203a1.3 1.3 0 0 0-.385-.16 1.6 1.6 0 0 1-.606-.321 7 7 0 0 0-.54-.406 4.3 4.3 0 0 1-.79-.651l.177-.177q.199-.113.256.051.03.084.065.123.228.237.516.402a8.4 8.4 0 0 1 1.144.783l.003.01q0 .007-.002.012l-.006.01q-.08.086.034.037a.06.06 0 0 1 .06.006q.26.18.535.337.034.02.352.28.199.165.518.18a.43.43 0 0 1 .273.122q.156.142.224.18.822.451 1.87.781.178.056.34.23.018.019.029.05a.2.2 0 0 1 .009.07q-.003.155.176.222.152.057.383.2.196.122.388.173 2.705.716 5.51.682.567-.006 2.815-.316.997-.137 3.61-.959"/><path fill="#FFA855" d="M11.402 39.338a4.3 4.3 0 0 0 .79.651q.195.127.539.406.291.237.606.32.23.06.385.161.279.183.315.203.167.099.32.27.32.352.757.605.218.126.89.356.547.189 1.066.447l.289.093q.21.065.24.32.004.032.025.054a.1.1 0 0 0 .05.028q.31.052.596.175.347.15.58.194.523.1 1.038.233.588.154 1.042.199 1.72.176 3.449.235.548.017 1.274-.094.663-.103 1.333-.145a5.3 5.3 0 0 0 1.045-.173q.67-.183 1.353-.31.21-.039 1.297-.493l.005.423q-.7.188-1.39.406-.758.24-1.398.358-1.845.332-2.244.362-1.425.102-4.434-.106a9 9 0 0 1-1.082-.122 1.6 1.6 0 0 1-.36-.151 1.2 1.2 0 0 0-.387-.12 3.7 3.7 0 0 1-1.166-.353 4 4 0 0 0-.513-.181q-.3-.09-.505-.345a.3.3 0 0 0-.107-.085q-.918-.405-1.854-.763-.735-.28-1.705-.918a71 71 0 0 1-1.282-.855 12 12 0 0 1-1.21-.969z"/><path fill="#FFA14B" d="M11.05 39.654q.573.525 1.209.969.36.249 1.282.855.969.637 1.705.918.936.358 1.854.763.06.027.107.085.205.254.505.345.384.116.512.181.549.273 1.167.353.207.027.386.12.247.128.36.15.385.075 1.083.123 3.009.209 4.434.106.399-.03 2.244-.362a12 12 0 0 0 1.399-.358q.69-.217 1.39-.406l-.006.176a12.2 12.2 0 0 1-4.957 1.005 10 10 0 0 0-1.02.046q-.75.075-1.5.032l-1.367-.077q-1.433-.06-2.835-.367a2.7 2.7 0 0 1-1.007-.448.23.23 0 0 0-.128-.04 1 1 0 0 1-.597-.194l-.425-.304a6 6 0 0 0-.92-.384 2 2 0 0 1-.45-.203 3 3 0 0 0-.449-.228 8.2 8.2 0 0 1-1.673-.884 2 2 0 0 1-.231-.216.8.8 0 0 0-.268-.183l-.402-.176a9 9 0 0 1-1.43-1.089.2.2 0 0 0-.121-.056l-.098-.005z"/><path fill="#FF993E" d="m10.804 39.9.097.006a.2.2 0 0 1 .12.056q.661.616 1.43 1.089l.403.175q.15.066.268.184.168.173.23.216.74.515 1.674.884.199.08.45.228.213.128.45.203.475.152.92.384l.424.304q.257.188.597.193.073.002.128.041.455.327 1.007.448 1.402.308 2.835.367l1.368.077q.749.043 1.499-.032.508-.051 1.02-.046a12.2 12.2 0 0 0 4.957-1.005l.01.246-.01.352a8.2 8.2 0 0 1-1.895.422q-1.657.15-2.572.256a20.5 20.5 0 0 1-4.255.055 63 63 0 0 1-2.876-.325l-.302-.024a1.1 1.1 0 0 1-.623-.243q-.135-.107-.613-.209a17 17 0 0 0-.393-.02q-.293-.014-.383-.302a.2.2 0 0 0-.032-.058.14.14 0 0 0-.051-.036 43 43 0 0 1-.667-.28 9 9 0 0 1-.645-.326 5 5 0 0 0-.708-.315 5 5 0 0 1-.708-.303 21 21 0 0 1-3.181-2.136q-.213-.177-.325-.209z"/><path fill="#FF8C28" d="M10.452 40.217q.112.032.325.209a21 21 0 0 0 3.181 2.136q.245.137.708.303.365.13.708.315.453.245.645.327.332.142.667.279.029.012.05.036a.2.2 0 0 1 .033.058q.09.287.383.301.377.019.393.021.478.101.613.209.277.218.622.243l.303.024q1.434.195 2.876.325 2.131.195 4.255-.055.915-.106 2.572-.256a8.2 8.2 0 0 0 1.895-.422l.01.563q-2.266.73-4.122.915-9.365.93-16.589-4.911a.15.15 0 0 1-.056-.151z"/><g filter="url(#e)"><path fill="url(#f)" d="M24 45.889c12.089 0 21.889-9.8 21.889-21.889S36.089 2.111 24 2.111 2.111 11.911 2.111 24 11.911 45.889 24 45.889"/></g><path fill="#fff" d="M34.07 14.569q.08 2.247-.912 4.407-1.107 2.416-2.652 4.278a26 26 0 0 1-3.225 3.237.62.62 0 0 0-.215.355l-.624 2.892a.2.2 0 0 1-.066.118l-2.693 2.384q-.204-.1-.281-.428-.06-.249-.417-1.231l-.457-1.408q.003-.19-.147-.176-1.041.1-1.904-.156a.1.1 0 0 0-.064-.001.1.1 0 0 0-.055.03l-1.148 1.138a.12.12 0 0 1-.166 0l-.845-.835q-.132-.081-.148-.197-.01-.085.086-.196.484-.542.943-1.07a.12.12 0 0 0 .016-.139q-.395-.767-.38-1.53.079-.186-.1-.246a161 161 0 0 0-3.027-.98q-.208-.116-.062-.279a147 147 0 0 0 2.127-2.401.85.85 0 0 1 .37-.258q.22-.076.451-.124l2.562-.62a.22.22 0 0 0 .117-.073 20.8 20.8 0 0 1 7.632-5.898 12.7 12.7 0 0 1 3.025-.882 7.8 7.8 0 0 1 2.016-.036q.3.03.243.325m-9.396 7.953q.984 1.456 2.66.766.231-.096.431-.338 1.052-1.197.176-2.545-.729-.86-1.689-.766-.9.09-1.448.807-.65.85-.13 2.076M9.889 38.317l-1.273 1.167a2.1 2.1 0 0 1-.704-.669 5407 5407 0 0 0 8.968-8.36q.26-.243.46-.183.241.071.419.424a.24.24 0 0 1-.051.284zm-2.569-.2a3 3 0 0 1-.604-.745l.533-.487.252-.252.804-.768 5.63-5.23q.21-.197.37-.012l.358.414a.15.15 0 0 1 .034.117.2.2 0 0 1-.063.12zm4.258 1.045-.176.175-.352.317-.247.246-.351.317-.528.469a2.9 2.9 0 0 1-.74-.598l1.162-1.091 6.326-5.894a.21.21 0 0 1 .253-.025q.352.213.437.557a.1.1 0 0 1-.002.062.13.13 0 0 1-.035.055z"/><path fill="#FFB87B" d="M10.847 17.885A532 532 0 0 1 5.27 23.5q-.215.213-.225-.097l-.041-1.02a.23.23 0 0 1 .03-.132q.256-.41.747-.88.663-.633 2.78-2.78a178 178 0 0 1 3.719-3.66q.093-.088.422-.445.156-.168.425-.444 1.21-1.24 2.45-2.45a.04.04 0 0 1 .04-.01.05.05 0 0 1 .033.03q.153.435.167.889l.027.827q.048.745-.107 1.481a.24.24 0 0 1-.064.119L5.27 25.399q-.25.252-.264-.104a3.3 3.3 0 0 0-.112-.752q-.099-.377.162-.602.127-.11.138-.121 5.123-5.118 10.24-10.24a.3.3 0 0 0 .068-.092q.048-.11-.097-.085a.2.2 0 0 0-.093.053 399 399 0 0 0-4.465 4.43" opacity=".4"/><path fill="#FFB66F" d="M18.475 21.753a4 4 0 0 0-.452.124.85.85 0 0 0-.369.258q-1.05 1.212-2.126 2.401-.147.162.061.279-.07.187.098.25 1.275.476 3.029.976-.015.763.38 1.53a.12.12 0 0 1-.016.138q-.458.53-.943 1.071-.096.11-.086.196.015.116.148.197-.054.158.055.248l.125.102q.34.379.72.714a.174.174 0 0 0 .238-.008l1.092-1.091a.13.13 0 0 1 .128-.034q.945.28 1.928.13.05-.007.043-.061l.457 1.408a.7.7 0 0 1-.081.527q-1.202 1.155-4.385 4.408l-.383.392a288 288 0 0 1-4.275 4.336.06.06 0 0 0-.017.05.06.06 0 0 0 .031.043q.735.387 1.423.775.116.065.11.147a.12.12 0 0 0 .07.115q.022.01.047.01.288.002.444.189a.3.3 0 0 0 .106.086l1.847.749q.062.026.09.084.028.06.007.121-.054.146.06.24a.5.5 0 0 1 .084.094q.041.054.077 0a.06.06 0 0 0 .008-.044.1.1 0 0 0-.025-.044q-.232-.232.031-.471a.2.2 0 0 0 .041-.054q.015-.03.014-.06a.84.84 0 0 0-.137-.453.24.24 0 0 0-.107-.08l-.974-.42a.1.1 0 0 1-.043-.035.1.1 0 0 1-.022-.052.13.13 0 0 1 .035-.108l3.34-3.372q.21-.213.323.068a.5.5 0 0 0 .152.16q.096.078.137.167.197.427.137.772-.058.33.176.392L18.54 42.11q-.18.183.073.225 1.137.186 2.27.362.034.005.318-.01a.4.4 0 0 1 .314.131.22.22 0 0 0 .116.065q1.651.273 2.685.156a188 188 0 0 0 2.497-.298q1.904-.24 3.668-.935a.063.063 0 0 1 .077.028q.058.103.127.073l.03.57-.035.351q-2.615.822-3.611.959-2.248.311-2.815.316a20.5 20.5 0 0 1-5.51-.682 1.4 1.4 0 0 1-.388-.174 2.4 2.4 0 0 0-.383-.2q-.18-.066-.176-.22a.2.2 0 0 0-.01-.07.1.1 0 0 0-.028-.051.8.8 0 0 0-.34-.23q-1.048-.33-1.87-.781a1.4 1.4 0 0 1-.224-.18.43.43 0 0 0-.273-.121.85.85 0 0 1-.518-.18 6 6 0 0 0-.352-.28 7 7 0 0 1-.536-.339.06.06 0 0 0-.06-.005q-.113.049-.033-.037l.006-.01.002-.011a.03.03 0 0 0-.01-.02 8.4 8.4 0 0 0-1.137-.774 2.3 2.3 0 0 1-.516-.402.4.4 0 0 1-.065-.123q-.058-.165-.256-.05l5.747-5.41a.13.13 0 0 0 .035-.055.1.1 0 0 0 .002-.062q-.085-.344-.437-.557a.21.21 0 0 0-.253.025l-6.326 5.894-.01-.182a.2.2 0 0 0-.015-.063.1.1 0 0 0-.035-.042.57.57 0 0 1-.227-.293.1.1 0 0 0-.033-.047.2.2 0 0 0-.057-.03l-.08-.023 7.819-7.337a.24.24 0 0 0 .05-.284q-.177-.353-.418-.424-.2-.06-.46.183-4.479 4.185-8.968 8.36a1.65 1.65 0 0 1-.592-.698l7.314-6.842a.2.2 0 0 0 .063-.12.15.15 0 0 0-.034-.118l-.357-.414q-.16-.185-.372.011l-5.629 5.23A20 20 0 0 1 6.79 33.46a.1.1 0 0 0-.043-.044.1.1 0 0 0-.06-.014q-.402.02-.52-.26-.202-.483-.407-.965a7 7 0 0 0-.228-.423 1.5 1.5 0 0 1-.166-.459q-.036-.188-.196-.24a.2.2 0 0 1-.056-.031.2.2 0 0 1-.038-.048l-.29-.57q-.108-.214 0-.563.05-.16-.07-.254a.13.13 0 0 1-.04-.048.1.1 0 0 1-.01-.057.56.56 0 0 0-.153-.46q-.37-.409-.176-.616l.695-.741q5.217-5.184 10.415-10.386.093-.093.17-.096.109-.005.144.123l.01.02a.06.06 0 0 0 .042.021q.011 0 .023-.003.166-.068.492-.066 2.235.007 4.541 0 .176-.002.051.123l-3.927 3.98q-.14.14.056.148l1.253.043a.18.18 0 0 1 .115.048l.024.024q.024.024-.007.03-.225.045.041.078m-6.284 2.275q.359-.345.75-.77a.3.3 0 0 0 .08-.198v-1.295q0-.141-.099-.041l-7.101 7.083a.1.1 0 0 0-.032.056.1.1 0 0 0 .006.06l.452.938a.06.06 0 0 0 .048.034.07.07 0 0 0 .06-.02 548 548 0 0 0 5.067-5.095q.12-.12.77-.752" opacity=".4"/><path fill="#FF9571" d="M26.328 4.223q.384.052.77.097.36.042.755.16.357.105.72.186.38.087.71.206.797.29 1.614.512.345.095 1.93.845l.012.528-.005.919q0 .02.009.038a.1.1 0 0 0 .024.033.1.1 0 0 0 .038.021.1.1 0 0 0 .045.008l.982-.016a.2.2 0 0 1 .061.013q.033.015.066.04 1.06.852 1.28.976.495.274.86.811a.12.12 0 0 0 .114.05q.392-.045.733.019a.9.9 0 0 1 .494.303 52 52 0 0 1 2.475 2.973q.025.031.04.092.018.063.024.143l.052.619q.005.045.002.079a.1.1 0 0 1-.01.049l-.032.06a.3.3 0 0 0-.033.134l.054 1.504.002 2.13q.001.282.206.077l.884-.884a.11.11 0 0 1 .09-.031.11.11 0 0 1 .08.052q.387.645.63 1.36a.1.1 0 0 0 .033.05.2.2 0 0 0 .057.033q.108.036.02.125a1190 1190 0 0 1-7.127 7.09.14.14 0 0 1-.066.037.2.2 0 0 1-.077 0 .2.2 0 0 1-.072-.038.2.2 0 0 1-.051-.066l-.172-.363a.24.24 0 0 0-.099-.095q-.231-.138-.06-.355.36-.458.844-.937.79-.785.891-.891.507-.532 1.015-1.06.063-.066-.022-.058a.2.2 0 0 0-.121.064A87 87 0 0 1 34.6 24.26l-.225.254a1 1 0 0 1-.309.24.3.3 0 0 0-.105.086q-.267.346-.577.064a.08.08 0 0 0-.052-.02.07.07 0 0 0-.05.02l-8.538 8.538a.4.4 0 0 1-.155.096.5.5 0 0 1-.194.025l-.572-.032q.027-.129.184-.267.655-.572 1.442-1.376 1.36-1.387 1.395-1.42 5.273-5.25 10.519-10.523.094-.096.085-.168-.014-.081-.084-.011L23.648 33.46q-.215.174-.41-.005a.68.68 0 0 1-.223-.447q-.036-.36.043-.45.215-.242-.01-.282a.1.1 0 0 1-.047-.027.1.1 0 0 1-.021-.05l-.076-1.092a.7.7 0 0 0 .081-.527q.358.982.417 1.231.077.329.281.428-.075.16.04.218a.1.1 0 0 0 .059.008.14.14 0 0 0 .062-.029 30 30 0 0 0 2.666-2.412.24.24 0 0 0 .066-.12l.656-2.976a.2.2 0 0 1 .069-.115 23.7 23.7 0 0 0 4.789-5.35q1.194-1.826 1.728-3.587.492-1.62.493-3.167 0-.285-.24-.141.057-.296-.244-.325a7.8 7.8 0 0 0-2.016.036 12.7 12.7 0 0 0-3.025.882.11.11 0 0 0-.1-.053.05.05 0 0 1-.038-.016.04.04 0 0 1-.007-.037q.13-.36.497-.381.284-.015.336-.209.035-.131-.094-.307-.294-.401-.581-.808a9 9 0 0 0-.624-.777 10 10 0 0 1-.91-1.164 5 5 0 0 0-.367-.498 5 5 0 0 1-.375-.486 10 10 0 0 0-.976-1.283 1.2 1.2 0 0 1-.22-.313q-.143-.36.319-.36.014 0 .026-.006l.022-.016a.05.05 0 0 0 .008-.046l-.221-.539q-.12-.288-.375-.046-.2.19-.481-.01-.126-.09.028-.092l1.183-.007q.267 0 .36-.246a2.3 2.3 0 0 0 .142-.884l-.01-.489q.018-.933 0-1.866"/><path fill="#FFA879" d="M40.112 15.625q.036.158.185.126a.14.14 0 0 1 .064.001q.031.008.05.029.412.447.658 1.006a.16.16 0 0 0 .106.089.14.14 0 0 0 .128-.035l.382-.373a.13.13 0 0 1 .109-.037.12.12 0 0 1 .091.063q.358.68.579 1.412.01.032.034.053a.1.1 0 0 0 .056.023l.097.006q-.252.125-.145.24.126.137.134.153.12.234.222.622a21.3 21.3 0 0 1 .65 3.802 24 24 0 0 1 .054 2.812 17 17 0 0 1-.671 4.058 36 36 0 0 1-1.115 3.166q-.105.264-.24.447a1.7 1.7 0 0 0-.194.315q-.072.174-.138.35l-1.231.012-9.08-.012q-.073-.6-.598-.592-1.041.018-2.08-.021a.6.6 0 0 0-.242.046q-.12.047-.247.069a.2.2 0 0 1-.13-.024q-.25-.132-.46.079l-.264.265-5.55 5.538q-.234-.063-.176-.392.06-.345-.137-.772a.5.5 0 0 0-.137-.167.5.5 0 0 1-.152-.16q-.113-.28-.323-.068l-3.34 3.373a.13.13 0 0 0-.035.107q.004.03.022.052a.1.1 0 0 0 .043.035l.974.42q.077.033.107.08.134.209.137.453 0 .03-.014.06a.2.2 0 0 1-.04.054q-.264.24-.032.471a.1.1 0 0 1 .024.044.06.06 0 0 1-.007.044q-.035.054-.077 0a.5.5 0 0 0-.085-.095q-.113-.093-.059-.239a.16.16 0 0 0-.006-.12.17.17 0 0 0-.091-.086l-1.847-.748a.3.3 0 0 1-.105-.086q-.157-.187-.445-.189a.12.12 0 0 1-.11-.078.1.1 0 0 1-.007-.047q.006-.082-.11-.147a56 56 0 0 0-1.423-.775.06.06 0 0 1-.029-.07l.015-.023a288 288 0 0 0 4.275-4.336l.383-.392q3.183-3.254 4.385-4.407l.076 1.09a.1.1 0 0 0 .02.051q.02.022.049.027.223.039.01.283-.08.09-.044.449a.68.68 0 0 0 .222.447q.196.18.411.005.096.07.176.07l.572.032a.5.5 0 0 0 .194-.025.4.4 0 0 0 .155-.096l8.538-8.538a.07.07 0 0 1 .05-.02q.029 0 .052.02.311.282.577-.064a.3.3 0 0 1 .105-.087q.18-.09.309-.24l.225-.253a87 87 0 0 0 2.396-2.395.2.2 0 0 1 .12-.064q.087-.008.023.058-.508.528-1.015 1.06-.1.106-.89.891-.484.48-.845.937-.171.217.06.355a.24.24 0 0 1 .099.095l.172.363q.019.038.05.066a.2.2 0 0 0 .073.037.2.2 0 0 0 .077.001.14.14 0 0 0 .066-.037q3.614-3.565 7.128-7.09.086-.089-.021-.125a.2.2 0 0 1-.057-.034.1.1 0 0 1-.033-.05 7 7 0 0 0-.63-1.36.1.1 0 0 0-.08-.051.1.1 0 0 0-.09.03l-.884.885q-.206.206-.206-.078z" opacity=".4"/><path fill="#FFBB7C" d="m30.897 33.953-3.043.014a.124.124 0 0 0-.124.124v7.35q.001.05.035.084a.12.12 0 0 0 .085.035l2.757.009q.031 0 .054.02a.07.07 0 0 1 .022.051l.003.266q-.069.03-.126-.073a.06.06 0 0 0-.034-.029.06.06 0 0 0-.044.001 15 15 0 0 1-3.668.935q-1.248.157-2.497.298-1.033.117-2.685-.156a.22.22 0 0 1-.116-.065.4.4 0 0 0-.314-.13q-.284.015-.317.01-1.134-.177-2.27-.363-.255-.042-.074-.225l2.785-2.796 5.814-5.803q.21-.21.46-.079c.044.023.09.031.13.024q.127-.022.247-.069a.6.6 0 0 1 .242-.046q1.039.04 2.08.02.526-.007.598.593" opacity=".4"/></g><defs><linearGradient id="f" x1="39.202" x2="5.419" y1="7.32" y2="40.188" gradientUnits="userSpaceOnUse"><stop stop-color="#FF9270"/><stop offset="1" stop-color="#FFA970"/></linearGradient><clipPath id="d"><path fill="#fff" d="M0 0h48v48H0z"/></clipPath><filter id="e" width="48" height="48" color-interpolation-filters="sRGB" filterUnits="userSpaceOnUse"><feFlood flood-opacity="0" result="BackgroundImageFix"/><feBlend in="SourceGraphic" in2="BackgroundImageFix" result="shape"/><feColorMatrix in="SourceAlpha" result="hardAlpha" values="0 0 0 0 0 0 0 0 0 0 0 0 0 0 0 0 0 0 127 0"/><feOffset/><feGaussianBlur stdDeviation="10"/><feComposite in2="hardAlpha" k2="-1" k3="1" operator="arithmetic"/><feColorMatrix values="0 0 0 0 1 0 0 0 0 0 0 0 0 0 0 0 0 0 0.79 0"/><feBlend in2="shape" result="effect1_innerShadow_86_314"/></filter></defs></svg></g><defs><clipPath id="c"><circle cx="24" cy="24" r="20"/></clipPath><clipPath id="a"><path fill="#fff" d="M0 0h48v48H0z"/></clipPath><linearGradient id="b" x1="40.464" x2="9.888" y1="6.48" y2="42.528" gradientUnits="userSpaceOnUse"><stop stop-color="#B6509E"/><stop offset="1" stop-color="#2EBAC6"/></linearGradient></defs></svg>