<svg xmlns="http://www.w3.org/2000/svg" width="48" height="48" fill="none" viewBox="0 0 48 48"><g clip-path="url(#a)"><path fill="url(#b)" d="M24 48a23.87 23.87 0 0 1-13.42-4.099 24.07 24.07 0 0 1-8.695-10.559 24 24 0 0 1-1.397-4.504 24.2 24.2 0 0 1 0-9.674 23.9 23.9 0 0 1 3.61-8.582 24.07 24.07 0 0 1 10.56-8.696A24 24 0 0 1 19.163.488c3.191-.65 6.481-.65 9.673 0a23.9 23.9 0 0 1 8.582 3.61 24.07 24.07 0 0 1 8.695 10.56 24 24 0 0 1 1.4 4.505c.65 3.191.65 6.481 0 9.673a23.9 23.9 0 0 1-3.612 8.582 24.07 24.07 0 0 1-10.559 8.695A23.9 23.9 0 0 1 24 48m0-45.429c-1.45 0-2.897.146-4.319.436A21.3 21.3 0 0 0 12.02 6.23a21.5 21.5 0 0 0-7.763 9.428 21.3 21.3 0 0 0-1.248 4.022c-.58 2.85-.58 5.788 0 8.638a21.3 21.3 0 0 0 3.225 7.662 21.5 21.5 0 0 0 9.428 7.764c1.296.547 2.643.966 4.022 1.248 2.85.58 5.787.58 8.637 0a21.3 21.3 0 0 0 7.663-3.225 21.5 21.5 0 0 0 7.76-9.427 21.3 21.3 0 0 0 1.25-4.023c.58-2.85.58-5.787 0-8.637a21.3 21.3 0 0 0-3.226-7.662 21.5 21.5 0 0 0-9.426-7.763 21.3 21.3 0 0 0-4.023-1.248A21.6 21.6 0 0 0 24 2.57"/></g><g clip-path="url(#c)"><svg xmlns="http://www.w3.org/2000/svg" width="48" height="48" viewBox="0 0 1000 1000"><circle cx="500" cy="500" r="500" fill="#00b3ed"/><path fill="#fff" d="M815.35 757.37H640.76l1-.84 3.77-3.33 2.35-2.14 3.73-3.33 2.35-2.17c1.31-1.27 2.6-2.57 3.9-3.89l2-2c1.46-1.7 3.23-3.47 4.8-5.23l.93-1q2.8-3.35 5.51-6.68l1.47-1.89c1.27-1.65 2.53-3.27 3.77-5 .62-.86 1.17-1.77 1.86-2.64 1-1.49 2.1-3 3.1-4.53.63-1 1.26-2 1.9-3 .94-1.49 2.16-3.36 2.76-4.56s1.18-2.28 1.8-3.34c.88-1.53 1.71-3.1 2.51-4.7.57-1.18 1.18-2.24 1.66-3.33.81-1.71 1.58-3.35 2.35-5 .47-1.18 1-2.24 1.4-3.33.77-1.91 1.48-3.84 2.17-5.78.36-1 .74-1.89 1.07-2.86 1-2.94 1.91-5.88 2.71-8.94a192.82 192.82 0 0 0-28.25-149.46l3-5.11a56.6 56.6 0 0 1 10.78-13.62 36 36 0 0 1 9.2-6.2 29.3 29.3 0 0 1 6.3-2.07 25.5 25.5 0 0 1 6.4-.42 25 25 0 0 1 4.24.6 29.3 29.3 0 0 1 9.53 4 27 27 0 0 1 2.35 1.56 45 45 0 0 1 3.75 3.1 52.8 52.8 0 0 1 7 8.11 44 44 0 0 1 3.33 5l107.85 189.41a64 64 0 0 1 4.44 9.28c.38 1 .73 2 1 3a46 46 0 0 1 1.4 5.77 34 34 0 0 1 .3 5.88 30.2 30.2 0 0 1-.7 6.71 26.1 26.1 0 0 1-3 8 27.2 27.2 0 0 1-5.47 6.67 31.5 31.5 0 0 1-5.64 3.94l-2.17 1.1a52.3 52.3 0 0 1-21.92 4.26M612.64 688q-.24-2.78-.6-5.64a4.6 4.6 0 0 0-.2-1.6c-.27-2.1-.58-4.24-.94-6.4l-.2-1.17c-.33-1.91-.71-3.84-1.1-5.81a9 9 0 0 0-.31-1.54c-.4-2.23-1-4.49-1.57-6.66a6.2 6.2 0 0 0-.37-1.51q-.75-3.07-1.67-6.2l-.36-1.29c-.7-2.41-1.46-4.82-2.27-7.28l-.57-1.7-36 62a68 68 0 0 0-3.33 6.91 48 48 0 0 0-3.53 13 35 35 0 0 0-.17 6 30.6 30.6 0 0 0 .61 4.47 26.63 26.63 0 0 0 8.5 14.71 32 32 0 0 0 7.73 5 51.3 51.3 0 0 0 21.75 4.27h4l.34-.8c.51-1.56 1-2.84 1.58-4.17l.2-.5c.47-1.2.9-2.5 1.34-3.67l.39-1.1c.47-1.36.9-2.76 1.37-4.16l.27-.87c.37-1.24.73-2.5 1.06-3.77a5.4 5.4 0 0 1 .31-1.18c.38-1.48.73-3 1.06-4.53l.23-1.18c.27-1.34.54-2.67.78-4l.2-1.18c.27-1.6.51-3.24.73-4.89a3.9 3.9 0 0 1 .16-1.35c.19-1.48.36-3 .5-4.53v-1c0-1.8.33-3.53.33-5.33v-14.56c0-2-.2-4-.36-6ZM476.8 469.23c-50-82.08-21.24-192.81 74.91-214.75 0 0-58.57 94.45 27 160.35 3 2.32 5.94 4.65 8.88 7l23.35-40c.36-.8.73-1.6 1.09-2.42 1.14-2.48 2.17-5 3.11-7.55a101 101 0 0 0 4.29-15.57c.47-2.63.89-5.31 1.18-8v-.06a100.6 100.6 0 0 0 0-23.14c-.28-2.66-.68-5.34-1.18-8-.36-2-.8-4-1.33-5.89-.75-2.94-1.63-5.84-2.63-8.74s-2.12-5.72-3.35-8.5c-.36-.81-.7-1.63-1.09-2.43l-56.7-99.66-24-43.25a65 65 0 0 0-6.93-9.84 45 45 0 0 0-7.64-7.06 36 36 0 0 0-4.05-2.47 26.29 26.29 0 0 0-25 0 37 37 0 0 0-7.93 5.6 53.3 53.3 0 0 0-7.34 8.4q-1.72 2.47-3.34 5.28l-314.6 554.1a55 55 0 0 0-7 18.83 36.5 36.5 0 0 0-.42 4.9v2.36a29 29 0 0 0 .56 4.47 25.4 25.4 0 0 0 1.18 4.17c.27.67.53 1.34.82 2a23.1 23.1 0 0 0 4.61 6.59 27 27 0 0 0 2 1.91 32 32 0 0 0 2.61 2 39.2 39.2 0 0 0 13.75 5.76 58.4 58.4 0 0 0 8.64 1.24h162.6a39 39 0 0 0 5.3-.51l1.6-.2 3.87-.6 1.6-.27c1.71-.33 3.35-.66 5.11-1.06h.58c1.5-.31 3-.73 4.49-1.17l1.74-.53 3.33-1.18 1.71-.6c1.61-.6 3.18-1.2 4.71-1.9a176.6 176.6 0 0 1-25.59-39.04C307.63 620.08 372 511.25 372 511.25s-9.6 103.15 57.67 107.86a63.56 63.56 0 0 0 51.12-16.63 51 51 0 0 0 9.33-11.85l1.83-3.14a53 53 0 0 0 5.62-14 126.2 126.2 0 0 0-20.77-104.26"/></svg></g><defs><clipPath id="c"><circle cx="24" cy="24" r="20"/></clipPath><clipPath id="a"><path fill="#fff" d="M0 0h48v48H0z"/></clipPath><linearGradient id="b" x1="40.464" x2="9.888" y1="6.48" y2="42.528" gradientUnits="userSpaceOnUse"><stop stop-color="#B6509E"/><stop offset="1" stop-color="#2EBAC6"/></linearGradient></defs></svg>