<svg xmlns="http://www.w3.org/2000/svg" width="48" height="48" fill="none" viewBox="0 0 48 48"><g clip-path="url(#a)"><path fill="url(#b)" d="M24 48a23.87 23.87 0 0 1-13.42-4.099 24.07 24.07 0 0 1-8.695-10.559 24 24 0 0 1-1.397-4.504 24.2 24.2 0 0 1 0-9.674 23.9 23.9 0 0 1 3.61-8.582 24.07 24.07 0 0 1 10.56-8.696A24 24 0 0 1 19.163.488c3.191-.65 6.481-.65 9.673 0a23.9 23.9 0 0 1 8.582 3.61 24.07 24.07 0 0 1 8.695 10.56 24 24 0 0 1 1.4 4.505c.65 3.191.65 6.481 0 9.673a23.9 23.9 0 0 1-3.612 8.582 24.07 24.07 0 0 1-10.559 8.695A23.9 23.9 0 0 1 24 48m0-45.429c-1.45 0-2.897.146-4.319.436A21.3 21.3 0 0 0 12.02 6.23a21.5 21.5 0 0 0-7.763 9.428 21.3 21.3 0 0 0-1.248 4.022c-.58 2.85-.58 5.788 0 8.638a21.3 21.3 0 0 0 3.225 7.662 21.5 21.5 0 0 0 9.428 7.764c1.296.547 2.643.966 4.022 1.248 2.85.58 5.787.58 8.637 0a21.3 21.3 0 0 0 7.663-3.225 21.5 21.5 0 0 0 7.76-9.427 21.3 21.3 0 0 0 1.25-4.023c.58-2.85.58-5.787 0-8.637a21.3 21.3 0 0 0-3.226-7.662 21.5 21.5 0 0 0-9.426-7.763 21.3 21.3 0 0 0-4.023-1.248A21.6 21.6 0 0 0 24 2.57"/></g><g clip-path="url(#c)"><svg xmlns="http://www.w3.org/2000/svg" width="48" height="48" viewBox="0 0 256 256"><g clip-path="url(#d)"><path fill="url(#e)" d="M128 256c70.692 0 128-57.308 128-128S198.692 0 128 0 0 57.308 0 128s57.308 128 128 128"/><path fill="#fff" d="M203.904 106.88h-15.191c-8.361-23.209-30.848-39.127-60.503-39.127H79.442v39.127H62.505v14.039h16.937v14.72H62.505v14.034h16.937v38.656h48.768c29.312 0 51.625-15.785 60.201-38.656h15.488v-14.039h-12.073a64 64 0 0 0 .471-7.593v-.343c0-2.304-.128-4.567-.343-6.784h11.991v-14.039zM93.097 80.256h35.113c21.76 0 37.929 10.711 45.399 26.583H93.097zm35.113 95.447H93.097v-26.071h80.425c-7.506 15.616-23.634 26.071-45.312 26.071m49.961-47.36a50.5 50.5 0 0 1-.512 7.255H93.097v-14.72h84.608c.31 2.363.467 4.744.471 7.127z"/></g><defs><linearGradient id="e" x1="128" x2="128" y1="0" y2="256" gradientUnits="userSpaceOnUse"><stop stop-color="#85C14B"/><stop offset="1" stop-color="#55B150"/></linearGradient><clipPath id="d"><path fill="#fff" d="M0 0h256v256H0z"/></clipPath></defs></svg></g><defs><clipPath id="c"><circle cx="24" cy="24" r="20"/></clipPath><clipPath id="a"><path fill="#fff" d="M0 0h48v48H0z"/></clipPath><linearGradient id="b" x1="40.464" x2="9.888" y1="6.48" y2="42.528" gradientUnits="userSpaceOnUse"><stop stop-color="#B6509E"/><stop offset="1" stop-color="#2EBAC6"/></linearGradient></defs></svg>