<svg xmlns="http://www.w3.org/2000/svg" width="48" height="48" fill="none" viewBox="0 0 48 48"><g clip-path="url(#a)"><path fill="url(#b)" d="M24 48a23.87 23.87 0 0 1-13.42-4.099 24.07 24.07 0 0 1-8.695-10.559 24 24 0 0 1-1.397-4.504 24.2 24.2 0 0 1 0-9.674 23.9 23.9 0 0 1 3.61-8.582 24.07 24.07 0 0 1 10.56-8.696A24 24 0 0 1 19.163.488c3.191-.65 6.481-.65 9.673 0a23.9 23.9 0 0 1 8.582 3.61 24.07 24.07 0 0 1 8.695 10.56 24 24 0 0 1 1.4 4.505c.65 3.191.65 6.481 0 9.673a23.9 23.9 0 0 1-3.612 8.582 24.07 24.07 0 0 1-10.559 8.695A23.9 23.9 0 0 1 24 48m0-45.429c-1.45 0-2.897.146-4.319.436A21.3 21.3 0 0 0 12.02 6.23a21.5 21.5 0 0 0-7.763 9.428 21.3 21.3 0 0 0-1.248 4.022c-.58 2.85-.58 5.788 0 8.638a21.3 21.3 0 0 0 3.225 7.662 21.5 21.5 0 0 0 9.428 7.764c1.296.547 2.643.966 4.022 1.248 2.85.58 5.787.58 8.637 0a21.3 21.3 0 0 0 7.663-3.225 21.5 21.5 0 0 0 7.76-9.427 21.3 21.3 0 0 0 1.25-4.023c.58-2.85.58-5.787 0-8.637a21.3 21.3 0 0 0-3.226-7.662 21.5 21.5 0 0 0-9.426-7.763 21.3 21.3 0 0 0-4.023-1.248A21.6 21.6 0 0 0 24 2.57"/></g><g clip-path="url(#c)"><svg xmlns="http://www.w3.org/2000/svg" width="48" height="48" viewBox="0 0 430 430"><g transform="translate(4995 16437)"><circle cx="215" cy="215" r="215" fill="#1e1a31" transform="translate(-4995 -16437)"/><g fill-rule="evenodd"><path fill="#fff" d="M-4819.182-16229.016a10.59 10.59 0 0 1 0 21.179h-27.381a48.203 48.203 0 0 1 0-96.407h70.613a10.59 10.59 0 0 1 0 21.179h-70.613a27.024 27.024 0 0 0 0 54.048z"/><path fill="#fff" d="M-4840.801-16207.837a10.59 10.59 0 0 1 0-21.179h27.383a48.203 48.203 0 0 1 0 96.406h-70.613a10.59 10.59 0 0 1 0-21.179h70.613a27.024 27.024 0 0 0 0-54.048z"/><path fill="rgba(255,255,255,0.5)" d="m-4875.697-16136.881-17.146-12.336 107.857-151.107 17.149 12.336z"/></g><path fill="#fff" d="M-4709.983-16178.734v25h15.717v-29.53h12.229v45.43h-65.947v-45.52h12.274v29.622h13.91v-25zm-25.727-63.683v19.793h53.673v15.9h-53.673v19.429h-12.274v-55.122zm53.673-61.826v15.807h-27.538v23.417h27.538v15.9h-65.947v-15.9h26.184v-23.417h-26.18v-15.808z"/></g></svg></g><defs><clipPath id="c"><circle cx="24" cy="24" r="20"/></clipPath><clipPath id="a"><path fill="#fff" d="M0 0h48v48H0z"/></clipPath><linearGradient id="b" x1="40.464" x2="9.888" y1="6.48" y2="42.528" gradientUnits="userSpaceOnUse"><stop stop-color="#B6509E"/><stop offset="1" stop-color="#2EBAC6"/></linearGradient></defs></svg>