<svg xmlns="http://www.w3.org/2000/svg" width="48" height="48" viewBox="0 0 48 48"><defs><linearGradient id="a" x1="215.808" x2="52.736" y1="34.56" y2="226.816" gradientUnits="userSpaceOnUse"><stop offset="0" stop-color="#b6509e"/><stop offset="1" stop-color="#2ebac6"/></linearGradient></defs><path fill="url(#a)" d="M128 256a129 129 0 0 1-25.8-2.6 127.3 127.3 0 0 1-45.77-19.261 128.37 128.37 0 0 1-46.375-56.315A127.4 127.4 0 0 1 2.6 153.8a129.25 129.25 0 0 1 0-51.593 127.3 127.3 0 0 1 19.26-45.77 128.37 128.37 0 0 1 56.317-46.378A127.3 127.3 0 0 1 102.2 2.6a129.2 129.2 0 0 1 51.593 0 127.3 127.3 0 0 1 45.77 19.26 128.37 128.37 0 0 1 46.375 56.316A127.3 127.3 0 0 1 253.4 102.2a129.25 129.25 0 0 1 0 51.593 127.3 127.3 0 0 1-19.26 45.77 128.4 128.4 0 0 1-56.316 46.375A127.4 127.4 0 0 1 153.8 253.4 129 129 0 0 1 128 256m0-242.287a115 115 0 0 0-23.033 2.322A113.7 113.7 0 0 0 64.1 33.232a114.6 114.6 0 0 0-41.4 50.283 113.7 113.7 0 0 0-6.659 21.452 115.4 115.4 0 0 0 0 46.065 113.7 113.7 0 0 0 17.2 40.866 114.63 114.63 0 0 0 50.282 41.407 113.8 113.8 0 0 0 21.453 6.658 115.4 115.4 0 0 0 46.065 0 113.6 113.6 0 0 0 40.866-17.2 114.6 114.6 0 0 0 41.393-50.278 113.7 113.7 0 0 0 6.659-21.453 115.4 115.4 0 0 0 0-46.065 113.7 113.7 0 0 0-17.2-40.865A114.6 114.6 0 0 0 172.485 22.7a113.7 113.7 0 0 0-21.453-6.659A115 115 0 0 0 128 13.714Z" style="fill:url(#a)" transform="matrix(.17969 0 0 .17969 1 1)"/><svg xmlns="http://www.w3.org/2000/svg" width="40" height="40" x="4" y="4" viewBox="0 0 430 430"><g transform="translate(4995 16437)"><circle cx="215" cy="215" r="215" fill="#1e1a31" transform="translate(-4995 -16437)"/><g fill-rule="evenodd"><path fill="#fff" d="M-4819.182-16229.016a10.59 10.59 0 0 1 0 21.179h-27.381a48.203 48.203 0 0 1 0-96.407h70.613a10.59 10.59 0 0 1 0 21.179h-70.613a27.024 27.024 0 0 0 0 54.048z"/><path fill="#fff" d="M-4840.801-16207.837a10.59 10.59 0 0 1 0-21.179h27.383a48.203 48.203 0 0 1 0 96.406h-70.613a10.59 10.59 0 0 1 0-21.179h70.613a27.024 27.024 0 0 0 0-54.048z"/><path fill="rgba(255,255,255,0.5)" d="m-4875.697-16136.881-17.146-12.336 107.857-151.107 17.149 12.336z"/></g><path fill="#fff" d="M-4709.983-16178.734v25h15.717v-29.53h12.229v45.43h-65.947v-45.52h12.274v29.622h13.91v-25zm-25.727-63.683v19.793h53.673v15.9h-53.673v19.429h-12.274v-55.122zm53.673-61.826v15.807h-27.538v23.417h27.538v15.9h-65.947v-15.9h26.184v-23.417h-26.18v-15.808z"/></g></svg></svg>