<svg xmlns="http://www.w3.org/2000/svg" width="48" height="48" fill="none" viewBox="0 0 48 48"><g clip-path="url(#a)"><path fill="url(#b)" d="M24 48a23.87 23.87 0 0 1-13.42-4.099 24.07 24.07 0 0 1-8.695-10.559 24 24 0 0 1-1.397-4.504 24.2 24.2 0 0 1 0-9.674 23.9 23.9 0 0 1 3.61-8.582 24.07 24.07 0 0 1 10.56-8.696A24 24 0 0 1 19.163.488c3.191-.65 6.481-.65 9.673 0a23.9 23.9 0 0 1 8.582 3.61 24.07 24.07 0 0 1 8.695 10.56 24 24 0 0 1 1.4 4.505c.65 3.191.65 6.481 0 9.673a23.9 23.9 0 0 1-3.612 8.582 24.07 24.07 0 0 1-10.559 8.695A23.9 23.9 0 0 1 24 48m0-45.429c-1.45 0-2.897.146-4.319.436A21.3 21.3 0 0 0 12.02 6.23a21.5 21.5 0 0 0-7.763 9.428 21.3 21.3 0 0 0-1.248 4.022c-.58 2.85-.58 5.788 0 8.638a21.3 21.3 0 0 0 3.225 7.662 21.5 21.5 0 0 0 9.428 7.764c1.296.547 2.643.966 4.022 1.248 2.85.58 5.787.58 8.637 0a21.3 21.3 0 0 0 7.663-3.225 21.5 21.5 0 0 0 7.76-9.427 21.3 21.3 0 0 0 1.25-4.023c.58-2.85.58-5.787 0-8.637a21.3 21.3 0 0 0-3.226-7.662 21.5 21.5 0 0 0-9.426-7.763 21.3 21.3 0 0 0-4.023-1.248A21.6 21.6 0 0 0 24 2.57"/></g><g clip-path="url(#c)"><svg xmlns="http://www.w3.org/2000/svg" width="48" height="48" viewBox="0 0 33 33"><path fill="#fff" d="M16.01 32.02c-2.16 0-4.25-.42-6.23-1.26a16 16 0 0 1-5.09-3.43A15.98 15.98 0 0 1 0 16.01c0-2.16.42-4.25 1.26-6.23a16 16 0 0 1 3.43-5.09A15.98 15.98 0 0 1 16.01 0c2.16 0 4.25.42 6.23 1.26 1.91.81 3.62 1.96 5.09 3.43a15.98 15.98 0 0 1 4.69 11.32c0 2.16-.42 4.25-1.26 6.23a16 16 0 0 1-3.43 5.09 16 16 0 0 1-5.09 3.43c-1.97.84-4.07 1.26-6.23 1.26"/><path fill="#000" d="M16.01 31.17c8.367 0 15.15-6.783 15.15-15.15S24.377.87 16.01.87.86 7.653.86 16.02s6.783 15.15 15.15 15.15"/><path fill="#fff" d="M16.38 9.99a4.04 4.04 0 0 1 3.67 3.92l3.11 1.29-1.62-2.64 3.44-3.44-2.06-2.06-2.95 2.95-3.59-5.85zM20 14.68a4.046 4.046 0 0 1-3.61 3.35v2.13l6.83-4.14zm-7.96 0-3.22 1.34 6.83 4.14v-2.13a4.026 4.026 0 0 1-3.61-3.35m11.1 3.51-6.76 4.09v5.43l2.78-3.92 2.91 2.9 2.05-2.05-3.25-3.26zm-7.48 4.09L8.9 18.19l2.27 3.19-3.25 3.26 2.05 2.05 2.9-2.9 2.79 3.92zM8.88 15.2l3.11-1.29a4.03 4.03 0 0 1 3.67-3.92V4.15L12.07 10 9.12 7.05 7.06 9.11l3.44 3.44-1.62 2.64zm7.28-1.65c-1-.31-1-.48-1-.61 0-.19.29-.45.83-.45.32 0 .85.08.85.61h.97c0-.95-.73-1.58-1.82-1.58-1.17 0-1.79.73-1.79 1.42 0 .94.83 1.28 1.68 1.54 1 .31 1 .48 1 .61 0 .19-.29.45-.83.45-.32 0-.85-.08-.85-.61h-.97c0 .95.73 1.58 1.82 1.58 1.17 0 1.79-.73 1.79-1.42 0-.94-.83-1.28-1.68-1.54"/></svg></g><defs><clipPath id="c"><circle cx="24" cy="24" r="20"/></clipPath><clipPath id="a"><path fill="#fff" d="M0 0h48v48H0z"/></clipPath><linearGradient id="b" x1="40.464" x2="9.888" y1="6.48" y2="42.528" gradientUnits="userSpaceOnUse"><stop stop-color="#B6509E"/><stop offset="1" stop-color="#2EBAC6"/></linearGradient></defs></svg>