<svg xmlns="http://www.w3.org/2000/svg" width="48" height="48" viewBox="0 0 48 48"><defs><linearGradient id="a" x1="215.808" x2="52.736" y1="34.56" y2="226.816" gradientUnits="userSpaceOnUse"><stop offset="0" stop-color="#b6509e"/><stop offset="1" stop-color="#2ebac6"/></linearGradient></defs><path fill="url(#a)" d="M128 256a129 129 0 0 1-25.8-2.6 127.3 127.3 0 0 1-45.77-19.261 128.37 128.37 0 0 1-46.375-56.315A127.4 127.4 0 0 1 2.6 153.8a129.25 129.25 0 0 1 0-51.593 127.3 127.3 0 0 1 19.26-45.77 128.37 128.37 0 0 1 56.317-46.378A127.3 127.3 0 0 1 102.2 2.6a129.2 129.2 0 0 1 51.593 0 127.3 127.3 0 0 1 45.77 19.26 128.37 128.37 0 0 1 46.375 56.316A127.3 127.3 0 0 1 253.4 102.2a129.25 129.25 0 0 1 0 51.593 127.3 127.3 0 0 1-19.26 45.77 128.4 128.4 0 0 1-56.316 46.375A127.4 127.4 0 0 1 153.8 253.4 129 129 0 0 1 128 256m0-242.287a115 115 0 0 0-23.033 2.322A113.7 113.7 0 0 0 64.1 33.232a114.6 114.6 0 0 0-41.4 50.283 113.7 113.7 0 0 0-6.659 21.452 115.4 115.4 0 0 0 0 46.065 113.7 113.7 0 0 0 17.2 40.866 114.63 114.63 0 0 0 50.282 41.407 113.8 113.8 0 0 0 21.453 6.658 115.4 115.4 0 0 0 46.065 0 113.6 113.6 0 0 0 40.866-17.2 114.6 114.6 0 0 0 41.393-50.278 113.7 113.7 0 0 0 6.659-21.453 115.4 115.4 0 0 0 0-46.065 113.7 113.7 0 0 0-17.2-40.865A114.6 114.6 0 0 0 172.485 22.7a113.7 113.7 0 0 0-21.453-6.659A115 115 0 0 0 128 13.714Z" style="fill:url(#a)" transform="matrix(.17969 0 0 .17969 1 1)"/><svg xmlns="http://www.w3.org/2000/svg" width="40" height="40" x="4" y="4" viewBox="0 0 256 256"><defs><linearGradient id="b" x1=".5" x2=".5" y2="1" gradientUnits="objectBoundingBox"><stop offset="0" stop-color="#090220"/><stop offset="1" stop-color="#170659"/></linearGradient></defs><g data-name="Group 30015"><circle cx="128" cy="128" r="128" fill="url(#b)" data-name="Ellipse 1584"/><g data-name="Group 30014"><path fill="#00d1ff" d="M85.831 96.175a5.39 5.39 0 0 0-4.218-1.96H47.424a1 1 0 0 1-.739-.288.88.88 0 0 1-.285-.633v-23.04a.88.88 0 0 1 .285-.633 1 1 0 0 1 .739-.289h36.128q13.674 0 23.591 11.174l8.775 10.713-17.094 20.852zm63.139-15.782q9.915-11.06 23.7-11.06h36.014a.93.93 0 0 1 .684.229.96.96 0 0 1 .227.692v23.041a1 1 0 0 1-.227.633.82.82 0 0 1-.684.288H174.5a5.39 5.39 0 0 0-4.218 1.96L145.1 126.818l25.3 30.873a5.4 5.4 0 0 0 4.1 1.845h34.189a.82.82 0 0 1 .684.289 1.18 1.18 0 0 1 .227.747v23.041a1 1 0 0 1-.227.633.82.82 0 0 1-.684.289h-36.014q-13.789 0-23.591-11.174l-20.969-25.574-20.972 25.574q-9.915 11.172-23.705 11.172H47.424a.82.82 0 0 1-.684-.289 1.16 1.16 0 0 1-.227-.75v-23.04a1 1 0 0 1 .227-.633.82.82 0 0 1 .684-.288h34.189a5.6 5.6 0 0 0 4.218-1.96l24.73-30.181z" data-name="Path 10399"/></g></g></svg></svg>