<svg xmlns="http://www.w3.org/2000/svg" width="48" height="48" viewBox="0 0 48 48"><defs><linearGradient id="a" x1="215.808" x2="52.736" y1="34.56" y2="226.816" gradientUnits="userSpaceOnUse"><stop offset="0" stop-color="#b6509e"/><stop offset="1" stop-color="#2ebac6"/></linearGradient></defs><path fill="url(#a)" d="M128 256a129 129 0 0 1-25.8-2.6 127.3 127.3 0 0 1-45.77-19.261 128.37 128.37 0 0 1-46.375-56.315A127.4 127.4 0 0 1 2.6 153.8a129.25 129.25 0 0 1 0-51.593 127.3 127.3 0 0 1 19.26-45.77 128.37 128.37 0 0 1 56.317-46.378A127.3 127.3 0 0 1 102.2 2.6a129.2 129.2 0 0 1 51.593 0 127.3 127.3 0 0 1 45.77 19.26 128.37 128.37 0 0 1 46.375 56.316A127.3 127.3 0 0 1 253.4 102.2a129.25 129.25 0 0 1 0 51.593 127.3 127.3 0 0 1-19.26 45.77 128.4 128.4 0 0 1-56.316 46.375A127.4 127.4 0 0 1 153.8 253.4 129 129 0 0 1 128 256m0-242.287a115 115 0 0 0-23.033 2.322A113.7 113.7 0 0 0 64.1 33.232a114.6 114.6 0 0 0-41.4 50.283 113.7 113.7 0 0 0-6.659 21.452 115.4 115.4 0 0 0 0 46.065 113.7 113.7 0 0 0 17.2 40.866 114.63 114.63 0 0 0 50.282 41.407 113.8 113.8 0 0 0 21.453 6.658 115.4 115.4 0 0 0 46.065 0 113.6 113.6 0 0 0 40.866-17.2 114.6 114.6 0 0 0 41.393-50.278 113.7 113.7 0 0 0 6.659-21.453 115.4 115.4 0 0 0 0-46.065 113.7 113.7 0 0 0-17.2-40.865A114.6 114.6 0 0 0 172.485 22.7a113.7 113.7 0 0 0-21.453-6.659A115 115 0 0 0 128 13.714Z" style="fill:url(#a)" transform="matrix(.17969 0 0 .17969 1 1)"/><svg xmlns="http://www.w3.org/2000/svg" width="40" height="40" x="4" y="4" fill="none" viewBox="0 0 256 256"><g clip-path="url(#b)"><path fill="#fff" d="M128 256.006c70.692 0 128-57.308 128-128s-57.308-128-128-128-128 57.307-128 128c0 70.692 57.308 128 128 128"/><path fill="#00A3FF" d="m88.897 120.994-1.109 1.702c-12.511 19.193-9.717 44.328 6.718 60.431 9.669 9.474 22.341 14.212 35.013 14.213z"/><path fill="#00A3FF" d="m129.507 144.197-40.622-23.203 40.622 76.346zm40.679-23.203 1.11 1.702c12.511 19.193 9.716 44.328-6.719 60.431-9.668 9.474-22.34 14.212-35.013 14.213z" opacity=".6"/><path fill="#00A3FF" d="m129.561 144.197 40.621-23.203-40.621 76.346zm.012-51.836v40.02l34.991-19.997z" opacity=".2"/><path fill="#00A3FF" d="m129.563 92.361-35.016 20.022 35.016 19.998z" opacity=".6"/><path fill="#00A3FF" d="m129.563 58.705-35.016 53.691 35.016-20.078z"/><path fill="#00A3FF" d="m129.573 92.311 35.018 20.079-35.018-53.718v33.64Z" opacity=".6"/></g><defs><clipPath id="b"><path fill="#fff" d="M0 0h256v256H0z"/></clipPath></defs></svg></svg>