<svg width="48" height="48" viewBox="0 0 48 48"><defs><linearGradient id="a" x1="215.808" x2="52.736" y1="34.56" y2="226.816" gradientUnits="userSpaceOnUse"><stop offset="0"/><stop offset="1"/></linearGradient></defs><path fill="url(#a)" d="M128 256a129 129 0 0 1-25.8-2.6 127.3 127.3 0 0 1-45.77-19.261 128.37 128.37 0 0 1-46.375-56.315A127.4 127.4 0 0 1 2.6 153.8a129.25 129.25 0 0 1 0-51.593 127.3 127.3 0 0 1 19.26-45.77 128.37 128.37 0 0 1 56.317-46.378A127.3 127.3 0 0 1 102.2 2.6a129.2 129.2 0 0 1 51.593 0 127.3 127.3 0 0 1 45.77 19.26 128.37 128.37 0 0 1 46.375 56.316A127.3 127.3 0 0 1 253.4 102.2a129.25 129.25 0 0 1 0 51.593 127.3 127.3 0 0 1-19.26 45.77 128.4 128.4 0 0 1-56.316 46.375A127.4 127.4 0 0 1 153.8 253.4 129 129 0 0 1 128 256m0-242.287a115 115 0 0 0-23.033 2.322A113.7 113.7 0 0 0 64.1 33.232a114.6 114.6 0 0 0-41.4 50.283 113.7 113.7 0 0 0-6.659 21.452 115.4 115.4 0 0 0 0 46.065 113.7 113.7 0 0 0 17.2 40.866 114.63 114.63 0 0 0 50.282 41.407 113.8 113.8 0 0 0 21.453 6.658 115.4 115.4 0 0 0 46.065 0 113.6 113.6 0 0 0 40.866-17.2 114.6 114.6 0 0 0 41.393-50.278 113.7 113.7 0 0 0 6.659-21.453 115.4 115.4 0 0 0 0-46.065 113.7 113.7 0 0 0-17.2-40.865A114.6 114.6 0 0 0 172.485 22.7a113.7 113.7 0 0 0-21.453-6.659A115 115 0 0 0 128 13.714Z" style="fill:url(#a)" transform="matrix(.1875 0 0 .1875 0 0)"/><svg xmlns="http://www.w3.org/2000/svg" width="30" height="30" x="9" y="9" fill="none" viewBox="0 0 120 120"><path fill="#000" d="M0 60C0 26.863 26.863 0 60 0s60 26.863 60 60-26.863 60-60 60S0 93.137 0 60"/><path fill="#000" d="M0 60C0 26.863 26.863 0 60 0s60 26.863 60 60-26.863 60-60 60S0 93.137 0 60"/><path fill="#A6A6A6" d="m68.897 15.88 2.596 6.08A50.35 50.35 0 0 0 98.04 48.505l6.081 2.596c1.591.678 2.883 1.651 3.881 2.81C104.972 32.2 87.799 15.026 66.086 12c1.157.995 2.132 2.29 2.811 3.88M15.88 51.1l6.082-2.596A50.36 50.36 0 0 0 48.51 21.96l2.593-6.08c.682-1.592 1.655-2.886 2.812-3.881C32.202 15.026 15.028 32.2 12 53.91c.997-1.159 2.29-2.132 3.88-2.81m88.24 17.798-6.081 2.596a50.35 50.35 0 0 0-26.546 26.545l-2.596 6.078A10.54 10.54 0 0 1 66.086 108c21.713-3.028 38.886-20.202 41.915-41.913-.998 1.159-2.29 2.132-3.881 2.81Zm-53.016 35.219-2.594-6.078a50.36 50.36 0 0 0-26.548-26.545l-6.081-2.596c-1.591-.679-2.884-1.652-3.881-2.811C15.028 87.798 32.202 104.972 53.915 108c-1.157-.997-2.13-2.292-2.812-3.883Z"/><path fill="#fff" d="m38.56 55.377 2.904-1.24a24.06 24.06 0 0 0 12.68-12.678l1.24-2.905c1.736-4.068 7.504-4.068 9.24 0l1.24 2.905a24.06 24.06 0 0 0 12.68 12.677l2.905 1.24c4.068 1.737 4.068 7.502 0 9.24l-2.905 1.24a24.05 24.05 0 0 0-12.68 12.679l-1.24 2.902c-1.736 4.068-7.504 4.068-9.24 0l-1.24-2.902a24.05 24.05 0 0 0-12.68-12.68l-2.905-1.24c-4.068-1.737-4.068-7.502 0-9.238Z"/></svg></svg>