<svg xmlns="http://www.w3.org/2000/svg" width="48" height="48" fill="none" viewBox="0 0 48 48"><g clip-path="url(#a)"><path fill="url(#b)" d="M24 48a23.87 23.87 0 0 1-13.42-4.099 24.07 24.07 0 0 1-8.695-10.559 24 24 0 0 1-1.397-4.504 24.2 24.2 0 0 1 0-9.674 23.9 23.9 0 0 1 3.61-8.582 24.07 24.07 0 0 1 10.56-8.696A24 24 0 0 1 19.163.488c3.191-.65 6.481-.65 9.673 0a23.9 23.9 0 0 1 8.582 3.61 24.07 24.07 0 0 1 8.695 10.56 24 24 0 0 1 1.4 4.505c.65 3.191.65 6.481 0 9.673a23.9 23.9 0 0 1-3.612 8.582 24.07 24.07 0 0 1-10.559 8.695A23.9 23.9 0 0 1 24 48m0-45.429c-1.45 0-2.897.146-4.319.436A21.3 21.3 0 0 0 12.02 6.23a21.5 21.5 0 0 0-7.763 9.428 21.3 21.3 0 0 0-1.248 4.022c-.58 2.85-.58 5.788 0 8.638a21.3 21.3 0 0 0 3.225 7.662 21.5 21.5 0 0 0 9.428 7.764c1.296.547 2.643.966 4.022 1.248 2.85.58 5.787.58 8.637 0a21.3 21.3 0 0 0 7.663-3.225 21.5 21.5 0 0 0 7.76-9.427 21.3 21.3 0 0 0 1.25-4.023c.58-2.85.58-5.787 0-8.637a21.3 21.3 0 0 0-3.226-7.662 21.5 21.5 0 0 0-9.426-7.763 21.3 21.3 0 0 0-4.023-1.248A21.6 21.6 0 0 0 24 2.57"/></g><g clip-path="url(#c)"><svg xmlns="http://www.w3.org/2000/svg" width="48" height="48" viewBox="0 0 120 120"><path fill="#000" d="M0 60C0 26.863 26.863 0 60 0s60 26.863 60 60-26.863 60-60 60S0 93.137 0 60"/><path fill="#000" d="M0 60C0 26.863 26.863 0 60 0s60 26.863 60 60-26.863 60-60 60S0 93.137 0 60"/><path fill="#A6A6A6" d="m68.897 15.88 2.596 6.08A50.35 50.35 0 0 0 98.04 48.505l6.081 2.596c1.591.678 2.883 1.651 3.881 2.81C104.972 32.2 87.799 15.026 66.086 12c1.157.995 2.132 2.29 2.811 3.88M15.88 51.1l6.082-2.596A50.36 50.36 0 0 0 48.51 21.96l2.593-6.08c.682-1.592 1.655-2.886 2.812-3.881C32.202 15.026 15.028 32.2 12 53.91c.997-1.159 2.29-2.132 3.88-2.81m88.24 17.798-6.081 2.596a50.35 50.35 0 0 0-26.546 26.545l-2.596 6.078A10.54 10.54 0 0 1 66.086 108c21.713-3.028 38.886-20.202 41.915-41.913-.998 1.159-2.29 2.132-3.881 2.81Zm-53.016 35.219-2.594-6.078a50.36 50.36 0 0 0-26.548-26.545l-6.081-2.596c-1.591-.679-2.884-1.652-3.881-2.811C15.028 87.798 32.202 104.972 53.915 108c-1.157-.997-2.13-2.292-2.812-3.883Z"/><path fill="#fff" d="m38.56 55.377 2.904-1.24a24.06 24.06 0 0 0 12.68-12.678l1.24-2.905c1.736-4.068 7.504-4.068 9.24 0l1.24 2.905a24.06 24.06 0 0 0 12.68 12.677l2.905 1.24c4.068 1.737 4.068 7.502 0 9.24l-2.905 1.24a24.05 24.05 0 0 0-12.68 12.679l-1.24 2.902c-1.736 4.068-7.504 4.068-9.24 0l-1.24-2.902a24.05 24.05 0 0 0-12.68-12.68l-2.905-1.24c-4.068-1.737-4.068-7.502 0-9.238Z"/></svg></g><defs><clipPath id="c"><circle cx="24" cy="24" r="20"/></clipPath><clipPath id="a"><path fill="#fff" d="M0 0h48v48H0z"/></clipPath><linearGradient id="b" x1="40.464" x2="9.888" y1="6.48" y2="42.528" gradientUnits="userSpaceOnUse"><stop stop-color="#B6509E"/><stop offset="1" stop-color="#2EBAC6"/></linearGradient></defs></svg>