<svg xmlns="http://www.w3.org/2000/svg" width="48" height="48" fill="none" viewBox="0 0 48 48"><g clip-path="url(#a)"><path fill="url(#b)" d="M24 48a23.87 23.87 0 0 1-13.42-4.099 24.07 24.07 0 0 1-8.695-10.559 24 24 0 0 1-1.397-4.504 24.2 24.2 0 0 1 0-9.674 23.9 23.9 0 0 1 3.61-8.582 24.07 24.07 0 0 1 10.56-8.696A24 24 0 0 1 19.163.488c3.191-.65 6.481-.65 9.673 0a23.9 23.9 0 0 1 8.582 3.61 24.07 24.07 0 0 1 8.695 10.56 24 24 0 0 1 1.4 4.505c.65 3.191.65 6.481 0 9.673a23.9 23.9 0 0 1-3.612 8.582 24.07 24.07 0 0 1-10.559 8.695A23.9 23.9 0 0 1 24 48m0-45.429c-1.45 0-2.897.146-4.319.436A21.3 21.3 0 0 0 12.02 6.23a21.5 21.5 0 0 0-7.763 9.428 21.3 21.3 0 0 0-1.248 4.022c-.58 2.85-.58 5.788 0 8.638a21.3 21.3 0 0 0 3.225 7.662 21.5 21.5 0 0 0 9.428 7.764c1.296.547 2.643.966 4.022 1.248 2.85.58 5.787.58 8.637 0a21.3 21.3 0 0 0 7.663-3.225 21.5 21.5 0 0 0 7.76-9.427 21.3 21.3 0 0 0 1.25-4.023c.58-2.85.58-5.787 0-8.637a21.3 21.3 0 0 0-3.226-7.662 21.5 21.5 0 0 0-9.426-7.763 21.3 21.3 0 0 0-4.023-1.248A21.6 21.6 0 0 0 24 2.57"/></g><g clip-path="url(#c)"><svg xmlns="http://www.w3.org/2000/svg" xmlns:xlink="http://www.w3.org/1999/xlink" width="48" height="48" viewBox="0 0 30 30"><defs><linearGradient id="d" x1=".907" x2=".163" y1=".227" y2=".853" gradientUnits="objectBoundingBox"><stop offset="0" stop-color="#b6509e"/><stop offset="1" stop-color="#2ebac6"/></linearGradient><linearGradient xlink:href="#d" id="e" x1=".699" x2=".059" y1=".251" y2="1"/></defs><circle cx="15" cy="15" r="15" fill="url(#d)"/><path fill="#fff" d="m23.46 7.651-8.229-2.469a.6.6 0 0 0-.353 0L6.649 7.651a.615.615 0 0 0-.438.589v9.052a5.85 5.85 0 0 0 1.417 3.582 14.7 14.7 0 0 0 2.952 2.734 26.5 26.5 0 0 0 4.224 2.473.6.6 0 0 0 .5 0 26.5 26.5 0 0 0 4.224-2.473 14.7 14.7 0 0 0 2.952-2.734 5.85 5.85 0 0 0 1.417-3.582V8.239a.61.61 0 0 0-.437-.588"/><path fill="url(#e)" d="M12.352 10.146 8.454.725A1.05 1.05 0 0 0 7.477 0h-.345a1.05 1.05 0 0 0-.977.725l-1.7 4.1H3.177a.7.7 0 0 0-.7.7v.01a.7.7 0 0 0 .7.7h.69l-1.619 3.911a.8.8 0 0 0-.048.267.74.74 0 0 0 .192.525.67.67 0 0 0 .517.2.7.7 0 0 0 .4-.134.85.85 0 0 0 .278-.353L5.37 6.232h1.235a.7.7 0 0 0 .7-.7v-.015a.7.7 0 0 0-.7-.7h-.66L7.3 1.432l3.706 9.22a.85.85 0 0 0 .278.353.7.7 0 0 0 .4.134.67.67 0 0 0 .517-.2.74.74 0 0 0 .192-.525.6.6 0 0 0-.041-.268" transform="translate(7.761 8.906)"/></svg></g><defs><clipPath id="c"><circle cx="24" cy="24" r="20"/></clipPath><clipPath id="a"><path fill="#fff" d="M0 0h48v48H0z"/></clipPath><linearGradient id="b" x1="40.464" x2="9.888" y1="6.48" y2="42.528" gradientUnits="userSpaceOnUse"><stop stop-color="#B6509E"/><stop offset="1" stop-color="#2EBAC6"/></linearGradient></defs></svg>