<svg xmlns="http://www.w3.org/2000/svg" width="48" height="48" viewBox="0 0 48 48"><defs><linearGradient id="a" x1="215.808" x2="52.736" y1="34.56" y2="226.816" gradientUnits="userSpaceOnUse"><stop offset="0" stop-color="#b6509e"/><stop offset="1" stop-color="#2ebac6"/></linearGradient></defs><path fill="url(#a)" d="M128 256a129 129 0 0 1-25.8-2.6 127.3 127.3 0 0 1-45.77-19.261 128.37 128.37 0 0 1-46.375-56.315A127.4 127.4 0 0 1 2.6 153.8a129.25 129.25 0 0 1 0-51.593 127.3 127.3 0 0 1 19.26-45.77 128.37 128.37 0 0 1 56.317-46.378A127.3 127.3 0 0 1 102.2 2.6a129.2 129.2 0 0 1 51.593 0 127.3 127.3 0 0 1 45.77 19.26 128.37 128.37 0 0 1 46.375 56.316A127.3 127.3 0 0 1 253.4 102.2a129.25 129.25 0 0 1 0 51.593 127.3 127.3 0 0 1-19.26 45.77 128.4 128.4 0 0 1-56.316 46.375A127.4 127.4 0 0 1 153.8 253.4 129 129 0 0 1 128 256m0-242.287a115 115 0 0 0-23.033 2.322A113.7 113.7 0 0 0 64.1 33.232a114.6 114.6 0 0 0-41.4 50.283 113.7 113.7 0 0 0-6.659 21.452 115.4 115.4 0 0 0 0 46.065 113.7 113.7 0 0 0 17.2 40.866 114.63 114.63 0 0 0 50.282 41.407 113.8 113.8 0 0 0 21.453 6.658 115.4 115.4 0 0 0 46.065 0 113.6 113.6 0 0 0 40.866-17.2 114.6 114.6 0 0 0 41.393-50.278 113.7 113.7 0 0 0 6.659-21.453 115.4 115.4 0 0 0 0-46.065 113.7 113.7 0 0 0-17.2-40.865A114.6 114.6 0 0 0 172.485 22.7a113.7 113.7 0 0 0-21.453-6.659A115 115 0 0 0 128 13.714Z" style="fill:url(#a)" transform="matrix(.17969 0 0 .17969 1 1)"/><svg xmlns="http://www.w3.org/2000/svg" xmlns:xlink="http://www.w3.org/1999/xlink" width="40" height="40" x="4" y="4" viewBox="0 0 30 30"><defs><linearGradient id="b" x1=".907" x2=".163" y1=".227" y2=".853" gradientUnits="objectBoundingBox"><stop offset="0" stop-color="#b6509e"/><stop offset="1" stop-color="#2ebac6"/></linearGradient><linearGradient xlink:href="#b" id="c" x1=".699" x2=".059" y1=".251" y2="1"/></defs><circle cx="15" cy="15" r="15" fill="url(#b)"/><path fill="#fff" d="m23.46 7.651-8.229-2.469a.6.6 0 0 0-.353 0L6.649 7.651a.615.615 0 0 0-.438.589v9.052a5.85 5.85 0 0 0 1.417 3.582 14.7 14.7 0 0 0 2.952 2.734 26.5 26.5 0 0 0 4.224 2.473.6.6 0 0 0 .5 0 26.5 26.5 0 0 0 4.224-2.473 14.7 14.7 0 0 0 2.952-2.734 5.85 5.85 0 0 0 1.417-3.582V8.239a.61.61 0 0 0-.437-.588"/><path fill="url(#c)" d="M12.352 10.146 8.454.725A1.05 1.05 0 0 0 7.477 0h-.345a1.05 1.05 0 0 0-.977.725l-1.7 4.1H3.177a.7.7 0 0 0-.7.7v.01a.7.7 0 0 0 .7.7h.69l-1.619 3.911a.8.8 0 0 0-.048.267.74.74 0 0 0 .192.525.67.67 0 0 0 .517.2.7.7 0 0 0 .4-.134.85.85 0 0 0 .278-.353L5.37 6.232h1.235a.7.7 0 0 0 .7-.7v-.015a.7.7 0 0 0-.7-.7h-.66L7.3 1.432l3.706 9.22a.85.85 0 0 0 .278.353.7.7 0 0 0 .4.134.67.67 0 0 0 .517-.2.74.74 0 0 0 .192-.525.6.6 0 0 0-.041-.268" transform="translate(7.761 8.906)"/></svg></svg>