<svg xmlns="http://www.w3.org/2000/svg" width="48" height="48" fill="none" viewBox="0 0 48 48"><g clip-path="url(#a)"><path fill="url(#b)" d="M24 48a23.87 23.87 0 0 1-13.42-4.099 24.07 24.07 0 0 1-8.695-10.559 24 24 0 0 1-1.397-4.504 24.2 24.2 0 0 1 0-9.674 23.9 23.9 0 0 1 3.61-8.582 24.07 24.07 0 0 1 10.56-8.696A24 24 0 0 1 19.163.488c3.191-.65 6.481-.65 9.673 0a23.9 23.9 0 0 1 8.582 3.61 24.07 24.07 0 0 1 8.695 10.56 24 24 0 0 1 1.4 4.505c.65 3.191.65 6.481 0 9.673a23.9 23.9 0 0 1-3.612 8.582 24.07 24.07 0 0 1-10.559 8.695A23.9 23.9 0 0 1 24 48m0-45.429c-1.45 0-2.897.146-4.319.436A21.3 21.3 0 0 0 12.02 6.23a21.5 21.5 0 0 0-7.763 9.428 21.3 21.3 0 0 0-1.248 4.022c-.58 2.85-.58 5.788 0 8.638a21.3 21.3 0 0 0 3.225 7.662 21.5 21.5 0 0 0 9.428 7.764c1.296.547 2.643.966 4.022 1.248 2.85.58 5.787.58 8.637 0a21.3 21.3 0 0 0 7.663-3.225 21.5 21.5 0 0 0 7.76-9.427 21.3 21.3 0 0 0 1.25-4.023c.58-2.85.58-5.787 0-8.637a21.3 21.3 0 0 0-3.226-7.662 21.5 21.5 0 0 0-9.426-7.763 21.3 21.3 0 0 0-4.023-1.248A21.6 21.6 0 0 0 24 2.57"/></g><g clip-path="url(#c)"><svg xmlns="http://www.w3.org/2000/svg" width="48" height="48" viewBox="0 0 48 48"><g clip-path="url(#d)"><mask id="f" width="48" height="48" maskUnits="userSpaceOnUse" style="mask-type:luminance"><path fill="#fff" d="M24 45c11.598 0 21-9.402 21-21S35.598 3 24 3 3 12.402 3 24s9.402 21 21 21"/></mask><g clip-path="url(#e)" mask="url(#f)"><mask id="g" width="48" height="48" maskUnits="userSpaceOnUse" style="mask-type:luminance"><path fill="#fff" d="M0 0h48v48H0z"/></mask><g mask="url(#g)"><mask id="h" width="48" height="48" maskUnits="userSpaceOnUse" style="mask-type:luminance"><path fill="#fff" d="M0 0h48v48H0z"/></mask><g mask="url(#h)"><path fill="#fff" d="M24 48c13.255 0 24-10.745 24-24S37.255 0 24 0 0 10.745 0 24s10.745 24 24 24"/><path fill="#000" d="M23.964 48V13.413c-2.904-.01-5.25-.8-5.25-1.773 0-.723 1.3-1.347 3.16-1.621.707.14 1.425.208 2.145.204.703.005 1.406-.06 2.097-.194l.048-.01c1.861.276 3.16.898 3.16 1.621 0 .964-2.304 1.75-5.173 1.773V48zm-4.19-39.55c0-.627 1.215-1.16 2.9-1.347a8.7 8.7 0 0 0 2.642.008l.044-.008c1.685.188 2.901.72 2.901 1.346 0 .783-1.9 1.418-4.244 1.418s-4.244-.635-4.244-1.418m1.06-2.589c0-.586 1.425-1.062 3.183-1.062 1.759 0 3.183.476 3.183 1.062s-1.427 1.064-3.183 1.064c-1.758 0-3.182-.477-3.182-1.064m3.128-1.16V.013h.188V4.7z"/><path fill="url(#i)" d="M23.993 48a23.87 23.87 0 0 1-13.414-4.097 24.07 24.07 0 0 1-8.694-10.556 24 24 0 0 1-1.397-4.504 24.3 24.3 0 0 1 0-9.672 23.9 23.9 0 0 1 3.61-8.579 24.07 24.07 0 0 1 10.557-8.693A24 24 0 0 1 19.159.5c3.19-.649 6.48-.649 9.67 0a23.9 23.9 0 0 1 8.58 3.61 24.07 24.07 0 0 1 8.694 10.557A24 24 0 0 1 47.5 19.17c.649 3.19.649 6.48 0 9.67a23.9 23.9 0 0 1-3.61 8.58 24.07 24.07 0 0 1-10.557 8.694A23.9 23.9 0 0 1 23.993 48m0-46.112a22 22 0 0 0-12.366 3.777 22.2 22.2 0 0 0-8.014 9.731 22 22 0 0 0-1.289 4.152 22.3 22.3 0 0 0 0 8.916 22 22 0 0 0 3.328 7.91 22.2 22.2 0 0 0 9.73 8.013c1.34.566 2.73.997 4.153 1.289 2.942.6 5.974.6 8.916 0a22 22 0 0 0 7.909-3.328 22.2 22.2 0 0 0 8.013-9.732 22 22 0 0 0 1.29-4.15 22.3 22.3 0 0 0 0-8.917 22 22 0 0 0-3.328-7.909 22.2 22.2 0 0 0-9.731-8.013 22 22 0 0 0-8.61-1.739"/><path fill="url(#j)" d="M12.923 35.07a7.5 7.5 0 1 0 0-15 7.5 7.5 0 0 0 0 15"/><path fill="#fff" d="m16.204 30.559-2.537-6.132a.68.68 0 0 0-.635-.472h-.227a.68.68 0 0 0-.634.472l-1.103 2.67h-.835a.455.455 0 0 0-.454.454v.006a.453.453 0 0 0 .453.454h.45l-1.054 2.546a.5.5 0 0 0-.03.174.48.48 0 0 0 .125.341.44.44 0 0 0 .336.132.47.47 0 0 0 .262-.087.53.53 0 0 0 .182-.23l1.157-2.876h.804a.46.46 0 0 0 .456-.454v-.013a.45.45 0 0 0-.456-.453h-.43l.886-2.204 2.412 6c.037.091.1.17.18.229a.45.45 0 0 0 .263.087.44.44 0 0 0 .337-.131.48.48 0 0 0 .124-.341.4.4 0 0 0-.032-.174z"/></g></g></g><g clip-path="url(#k)"><path fill="#343434" d="m34.999 19-.11.365v10.58l.11.106 4.998-2.903z"/><path fill="#8C8C8C" d="M34.999 19 30 27.148l4.999 2.904z"/><path fill="#3C3C3B" d="m34.999 30.981-.062.074v3.769l.062.176L40 28.08z"/><path fill="#8C8C8C" d="M34.999 35v-4.019L30 28.08z"/><path fill="#141414" d="m34.999 30.051 4.998-2.903L35 24.916z"/><path fill="#393939" d="m30 27.148 4.999 2.903v-5.135z"/></g><path fill="url(#l)" fill-rule="evenodd" d="M24 44.5c11.322 0 20.5-9.178 20.5-20.5S35.322 3.5 24 3.5 3.5 12.678 3.5 24 12.678 44.5 24 44.5m0 1.5c12.15 0 22-9.85 22-22S36.15 2 24 2 2 11.85 2 24s9.85 22 22 22" clip-rule="evenodd"/></g><defs><linearGradient id="i" x1="42.613" x2="23.993" y1="9.563" y2="48" gradientUnits="userSpaceOnUse"><stop stop-color="#B6509E"/><stop offset="1" stop-color="#2EBAC6"/></linearGradient><linearGradient id="j" x1="19.028" x2="7.868" y1="23.476" y2="32.865" gradientUnits="userSpaceOnUse"><stop stop-color="#B6509E"/><stop offset="1" stop-color="#2EBAC6"/></linearGradient><linearGradient id="l" x1="38.826" x2="11.565" y1="8.217" y2="40.261" gradientUnits="userSpaceOnUse"><stop stop-color="#B6509E"/><stop offset="1" stop-color="#2EBAC6"/></linearGradient><clipPath id="d"><path fill="#fff" d="M0 0h48v48H0z"/></clipPath><clipPath id="e"><path fill="#fff" d="M0 0h48v48H0z"/></clipPath><clipPath id="k"><path fill="#fff" d="M30 19h10v16H30z"/></clipPath></defs></svg></g><defs><clipPath id="c"><circle cx="24" cy="24" r="20"/></clipPath><clipPath id="a"><path fill="#fff" d="M0 0h48v48H0z"/></clipPath><linearGradient id="b" x1="40.464" x2="9.888" y1="6.48" y2="42.528" gradientUnits="userSpaceOnUse"><stop stop-color="#B6509E"/><stop offset="1" stop-color="#2EBAC6"/></linearGradient></defs></svg>