<svg width="48" height="48" viewBox="0 0 48 48"><defs><linearGradient id="a" x1="215.808" x2="52.736" y1="34.56" y2="226.816" gradientUnits="userSpaceOnUse"><stop offset="0"/><stop offset="1"/></linearGradient></defs><path fill="url(#a)" d="M128 256a129 129 0 0 1-25.8-2.6 127.3 127.3 0 0 1-45.77-19.261 128.37 128.37 0 0 1-46.375-56.315A127.4 127.4 0 0 1 2.6 153.8a129.25 129.25 0 0 1 0-51.593 127.3 127.3 0 0 1 19.26-45.77 128.37 128.37 0 0 1 56.317-46.378A127.3 127.3 0 0 1 102.2 2.6a129.2 129.2 0 0 1 51.593 0 127.3 127.3 0 0 1 45.77 19.26 128.37 128.37 0 0 1 46.375 56.316A127.3 127.3 0 0 1 253.4 102.2a129.25 129.25 0 0 1 0 51.593 127.3 127.3 0 0 1-19.26 45.77 128.4 128.4 0 0 1-56.316 46.375A127.4 127.4 0 0 1 153.8 253.4 129 129 0 0 1 128 256m0-242.287a115 115 0 0 0-23.033 2.322A113.7 113.7 0 0 0 64.1 33.232a114.6 114.6 0 0 0-41.4 50.283 113.7 113.7 0 0 0-6.659 21.452 115.4 115.4 0 0 0 0 46.065 113.7 113.7 0 0 0 17.2 40.866 114.63 114.63 0 0 0 50.282 41.407 113.8 113.8 0 0 0 21.453 6.658 115.4 115.4 0 0 0 46.065 0 113.6 113.6 0 0 0 40.866-17.2 114.6 114.6 0 0 0 41.393-50.278 113.7 113.7 0 0 0 6.659-21.453 115.4 115.4 0 0 0 0-46.065 113.7 113.7 0 0 0-17.2-40.865A114.6 114.6 0 0 0 172.485 22.7a113.7 113.7 0 0 0-21.453-6.659A115 115 0 0 0 128 13.714Z" style="fill:url(#a)" transform="matrix(.1875 0 0 .1875 0 0)"/><svg xmlns="http://www.w3.org/2000/svg" width="30" height="30" x="9" y="9" fill="none" viewBox="0 0 24 24"><path fill="#fff" d="M12 0c6.627 0 12 5.373 12 12s-5.373 12-12 12S0 18.629 0 12 5.372 0 12 0"/><path fill="url(#b)" d="M15.984 9.277a1 1 0 0 0-.996 0l-2.285 1.362-1.553.887-2.286 1.362a1 1 0 0 1-.996 0L6.05 11.822a1.02 1.02 0 0 1-.498-.858V8.863a.96.96 0 0 1 .498-.859l1.79-1.036a1 1 0 0 1 .996 0l1.787 1.036a1.02 1.02 0 0 1 .498.859v1.361l1.553-.917V7.945a.96.96 0 0 0-.498-.858L8.864 5.133a1 1 0 0 0-.996 0l-3.37 1.954A.96.96 0 0 0 4 7.945v3.937a.96.96 0 0 0 .498.858l3.37 1.953a1 1 0 0 0 .996 0l2.285-1.332 1.554-.917 2.285-1.332a1 1 0 0 1 .996 0l1.787 1.036a1.02 1.02 0 0 1 .499.858v2.102a.96.96 0 0 1-.498.858l-1.788 1.066a1 1 0 0 1-.996 0l-1.787-1.036a1.02 1.02 0 0 1-.498-.859v-1.361l-1.553.917v1.362a.96.96 0 0 0 .498.858l3.37 1.954a1 1 0 0 0 .995 0l3.37-1.954a1.02 1.02 0 0 0 .498-.858v-3.937a.96.96 0 0 0-.498-.858z"/><defs><linearGradient id="b" x1="19.881" x2="2.946" y1="4.999" y2="17.549" gradientUnits="userSpaceOnUse"><stop stop-color="#00A3FF"/><stop offset="1" stop-color="#3ADCFF"/></linearGradient></defs></svg></svg>