<svg xmlns="http://www.w3.org/2000/svg" width="48" height="48" fill="none" viewBox="0 0 48 48"><g clip-path="url(#a)"><path fill="url(#b)" d="M24 48a23.87 23.87 0 0 1-13.42-4.099 24.07 24.07 0 0 1-8.695-10.559 24 24 0 0 1-1.397-4.504 24.2 24.2 0 0 1 0-9.674 23.9 23.9 0 0 1 3.61-8.582 24.07 24.07 0 0 1 10.56-8.696A24 24 0 0 1 19.163.488c3.191-.65 6.481-.65 9.673 0a23.9 23.9 0 0 1 8.582 3.61 24.07 24.07 0 0 1 8.695 10.56 24 24 0 0 1 1.4 4.505c.65 3.191.65 6.481 0 9.673a23.9 23.9 0 0 1-3.612 8.582 24.07 24.07 0 0 1-10.559 8.695A23.9 23.9 0 0 1 24 48m0-45.429c-1.45 0-2.897.146-4.319.436A21.3 21.3 0 0 0 12.02 6.23a21.5 21.5 0 0 0-7.763 9.428 21.3 21.3 0 0 0-1.248 4.022c-.58 2.85-.58 5.788 0 8.638a21.3 21.3 0 0 0 3.225 7.662 21.5 21.5 0 0 0 9.428 7.764c1.296.547 2.643.966 4.022 1.248 2.85.58 5.787.58 8.637 0a21.3 21.3 0 0 0 7.663-3.225 21.5 21.5 0 0 0 7.76-9.427 21.3 21.3 0 0 0 1.25-4.023c.58-2.85.58-5.787 0-8.637a21.3 21.3 0 0 0-3.226-7.662 21.5 21.5 0 0 0-9.426-7.763 21.3 21.3 0 0 0-4.023-1.248A21.6 21.6 0 0 0 24 2.57"/></g><g clip-path="url(#c)"><svg xmlns="http://www.w3.org/2000/svg" width="48" height="48" viewBox="0 0 24 24"><path fill="#fff" d="M12 0c6.627 0 12 5.373 12 12s-5.373 12-12 12S0 18.629 0 12 5.372 0 12 0"/><path fill="url(#d)" d="M15.984 9.277a1 1 0 0 0-.996 0l-2.285 1.362-1.553.887-2.286 1.362a1 1 0 0 1-.996 0L6.05 11.822a1.02 1.02 0 0 1-.498-.858V8.863a.96.96 0 0 1 .498-.859l1.79-1.036a1 1 0 0 1 .996 0l1.787 1.036a1.02 1.02 0 0 1 .498.859v1.361l1.553-.917V7.945a.96.96 0 0 0-.498-.858L8.864 5.133a1 1 0 0 0-.996 0l-3.37 1.954A.96.96 0 0 0 4 7.945v3.937a.96.96 0 0 0 .498.858l3.37 1.953a1 1 0 0 0 .996 0l2.285-1.332 1.554-.917 2.285-1.332a1 1 0 0 1 .996 0l1.787 1.036a1.02 1.02 0 0 1 .499.858v2.102a.96.96 0 0 1-.498.858l-1.788 1.066a1 1 0 0 1-.996 0l-1.787-1.036a1.02 1.02 0 0 1-.498-.859v-1.361l-1.553.917v1.362a.96.96 0 0 0 .498.858l3.37 1.954a1 1 0 0 0 .995 0l3.37-1.954a1.02 1.02 0 0 0 .498-.858v-3.937a.96.96 0 0 0-.498-.858z"/><defs><linearGradient id="d" x1="19.881" x2="2.946" y1="4.999" y2="17.549" gradientUnits="userSpaceOnUse"><stop stop-color="#00A3FF"/><stop offset="1" stop-color="#3ADCFF"/></linearGradient></defs></svg></g><defs><clipPath id="c"><circle cx="24" cy="24" r="20"/></clipPath><clipPath id="a"><path fill="#fff" d="M0 0h48v48H0z"/></clipPath><linearGradient id="b" x1="40.464" x2="9.888" y1="6.48" y2="42.528" gradientUnits="userSpaceOnUse"><stop stop-color="#B6509E"/><stop offset="1" stop-color="#2EBAC6"/></linearGradient></defs></svg>