<svg xmlns="http://www.w3.org/2000/svg" width="48" height="48" fill="none" viewBox="0 0 48 48"><g clip-path="url(#a)"><path fill="url(#b)" d="M24 48a23.87 23.87 0 0 1-13.42-4.099 24.07 24.07 0 0 1-8.695-10.559 24 24 0 0 1-1.397-4.504 24.2 24.2 0 0 1 0-9.674 23.9 23.9 0 0 1 3.61-8.582 24.07 24.07 0 0 1 10.56-8.696A24 24 0 0 1 19.163.488c3.191-.65 6.481-.65 9.673 0a23.9 23.9 0 0 1 8.582 3.61 24.07 24.07 0 0 1 8.695 10.56 24 24 0 0 1 1.4 4.505c.65 3.191.65 6.481 0 9.673a23.9 23.9 0 0 1-3.612 8.582 24.07 24.07 0 0 1-10.559 8.695A23.9 23.9 0 0 1 24 48m0-45.429c-1.45 0-2.897.146-4.319.436A21.3 21.3 0 0 0 12.02 6.23a21.5 21.5 0 0 0-7.763 9.428 21.3 21.3 0 0 0-1.248 4.022c-.58 2.85-.58 5.788 0 8.638a21.3 21.3 0 0 0 3.225 7.662 21.5 21.5 0 0 0 9.428 7.764c1.296.547 2.643.966 4.022 1.248 2.85.58 5.787.58 8.637 0a21.3 21.3 0 0 0 7.663-3.225 21.5 21.5 0 0 0 7.76-9.427 21.3 21.3 0 0 0 1.25-4.023c.58-2.85.58-5.787 0-8.637a21.3 21.3 0 0 0-3.226-7.662 21.5 21.5 0 0 0-9.426-7.763 21.3 21.3 0 0 0-4.023-1.248A21.6 21.6 0 0 0 24 2.57"/></g><g clip-path="url(#c)"><svg xmlns="http://www.w3.org/2000/svg" width="48" height="48" viewBox="0 0 32 33"><path fill="#fff" d="M16 32.35c8.837 0 16-7.164 16-16s-7.163-16-16-16-16 7.163-16 16 7.163 16 16 16"/><path fill="#000" d="M19.53 16.32c-.26-.14-1.51-.5-2.33-.69-.41-.09-.83-.18-1.24-.26-1.24-.25-2.18-.41-2.64-.7-.62-.39-.7-1.23-.7-1.44v-1.12c0-.49.17-.89.51-1.23.35-.34.75-.51 1.24-.51h3.17c.49 0 .89.17 1.23.51q.51.51.51 1.23v.73h1.55v-.59c0-.89-.33-1.67-.97-2.32s-1.43-.98-2.33-.98h-.75V6.8h-1.54v2.15h-.88c-.91 0-1.69.33-2.33.97s-.97 1.42-.97 2.33v.89c0 1.06.59 2.2 1.55 2.79.47.29 1.12.42 2.02.6.38.08.82.16 1.31.27.43.08.72.15.92.19.19.04.46.11.83.21q.525.135.78.27c.17.09.37.19.58.32.19.12.32.25.4.39s.12.31.12.48v1.66c0 .51-.18.93-.54 1.3s-.79.54-1.3.54h-3.36c-.51 0-.93-.18-1.29-.54s-.54-.79-.54-1.3v-.93h-1.55v.79c0 .92.33 1.73.99 2.39s1.46 1 2.39 1h.87v2.3h1.55v-2.3h.94c.92 0 1.72-.33 2.39-.99s1-1.46 1-2.39v-1.43c0-1.06-.5-1.81-1.61-2.44z"/><path fill="#000" d="M13.44 28.18C7.99 27 3.9 22.14 3.9 16.35S7.99 5.7 13.44 4.52V3.24c-6.15 1.2-10.8 6.61-10.8 13.11s4.64 11.92 10.8 13.11zm5.12-24.95v1.28c5.45 1.18 9.54 6.04 9.54 11.83s-4.09 10.65-9.54 11.83v1.28c6.15-1.2 10.8-6.61 10.8-13.11S24.72 4.42 18.56 3.23"/></svg></g><defs><clipPath id="c"><circle cx="24" cy="24" r="20"/></clipPath><clipPath id="a"><path fill="#fff" d="M0 0h48v48H0z"/></clipPath><linearGradient id="b" x1="40.464" x2="9.888" y1="6.48" y2="42.528" gradientUnits="userSpaceOnUse"><stop stop-color="#B6509E"/><stop offset="1" stop-color="#2EBAC6"/></linearGradient></defs></svg>