<svg width="48" height="48" viewBox="0 0 48 48"><defs><linearGradient id="a" x1="215.808" x2="52.736" y1="34.56" y2="226.816" gradientUnits="userSpaceOnUse"><stop offset="0"/><stop offset="1"/></linearGradient></defs><path fill="url(#a)" d="M128 256a129 129 0 0 1-25.8-2.6 127.3 127.3 0 0 1-45.77-19.261 128.37 128.37 0 0 1-46.375-56.315A127.4 127.4 0 0 1 2.6 153.8a129.25 129.25 0 0 1 0-51.593 127.3 127.3 0 0 1 19.26-45.77 128.37 128.37 0 0 1 56.317-46.378A127.3 127.3 0 0 1 102.2 2.6a129.2 129.2 0 0 1 51.593 0 127.3 127.3 0 0 1 45.77 19.26 128.37 128.37 0 0 1 46.375 56.316A127.3 127.3 0 0 1 253.4 102.2a129.25 129.25 0 0 1 0 51.593 127.3 127.3 0 0 1-19.26 45.77 128.4 128.4 0 0 1-56.316 46.375A127.4 127.4 0 0 1 153.8 253.4 129 129 0 0 1 128 256m0-242.287a115 115 0 0 0-23.033 2.322A113.7 113.7 0 0 0 64.1 33.232a114.6 114.6 0 0 0-41.4 50.283 113.7 113.7 0 0 0-6.659 21.452 115.4 115.4 0 0 0 0 46.065 113.7 113.7 0 0 0 17.2 40.866 114.63 114.63 0 0 0 50.282 41.407 113.8 113.8 0 0 0 21.453 6.658 115.4 115.4 0 0 0 46.065 0 113.6 113.6 0 0 0 40.866-17.2 114.6 114.6 0 0 0 41.393-50.278 113.7 113.7 0 0 0 6.659-21.453 115.4 115.4 0 0 0 0-46.065 113.7 113.7 0 0 0-17.2-40.865A114.6 114.6 0 0 0 172.485 22.7a113.7 113.7 0 0 0-21.453-6.659A115 115 0 0 0 128 13.714Z" style="fill:url(#a)" transform="matrix(.1875 0 0 .1875 0 0)"/><svg xmlns="http://www.w3.org/2000/svg" width="30" height="30" x="9" y="9" fill="none" viewBox="0 0 32 32"><circle cx="16" cy="16" r="16" fill="#178DD0"/><path fill="#fff" d="M7.5 8.51c0-1.452 1.09-2.67 2.538-2.778A82 82 0 0 1 16 5.5c2.267 0 4.4.116 5.962.232C23.411 5.84 24.5 7.058 24.5 8.51c0 1.444-1.076 2.656-2.516 2.764A81 81 0 0 1 16 11.5c-2.36 0-4.461-.113-5.984-.226C8.576 11.166 7.5 9.954 7.5 8.51m-.037 8.114a1.68 1.68 0 0 1 1.87-1.504q.497.053 1.158.142c.387.052.74.133 1.057.23 1.348.408 1.952 1.811 1.952 3.22v5.79C13.5 25.33 12.829 26 12 26h-1.87c-1.419 0-2.623-1.01-2.747-2.423a35.4 35.4 0 0 1 .08-6.953m16.824 0a1.68 1.68 0 0 0-1.87-1.504 43 43 0 0 0-1.158.142c-.387.052-.74.133-1.057.23-1.348.408-1.952 1.811-1.952 3.22v5.79c0 .828.671 1.498 1.5 1.498h1.87c1.419 0 2.623-1.01 2.746-2.423a35.4 35.4 0 0 0-.079-6.953"/></svg></svg>