<svg xmlns="http://www.w3.org/2000/svg" width="48" height="48" fill="none" viewBox="0 0 48 48"><g clip-path="url(#a)"><path fill="url(#b)" d="M24 48a23.87 23.87 0 0 1-13.42-4.099 24.07 24.07 0 0 1-8.695-10.559 24 24 0 0 1-1.397-4.504 24.2 24.2 0 0 1 0-9.674 23.9 23.9 0 0 1 3.61-8.582 24.07 24.07 0 0 1 10.56-8.696A24 24 0 0 1 19.163.488c3.191-.65 6.481-.65 9.673 0a23.9 23.9 0 0 1 8.582 3.61 24.07 24.07 0 0 1 8.695 10.56 24 24 0 0 1 1.4 4.505c.65 3.191.65 6.481 0 9.673a23.9 23.9 0 0 1-3.612 8.582 24.07 24.07 0 0 1-10.559 8.695A23.9 23.9 0 0 1 24 48m0-45.429c-1.45 0-2.897.146-4.319.436A21.3 21.3 0 0 0 12.02 6.23a21.5 21.5 0 0 0-7.763 9.428 21.3 21.3 0 0 0-1.248 4.022c-.58 2.85-.58 5.788 0 8.638a21.3 21.3 0 0 0 3.225 7.662 21.5 21.5 0 0 0 9.428 7.764c1.296.547 2.643.966 4.022 1.248 2.85.58 5.787.58 8.637 0a21.3 21.3 0 0 0 7.663-3.225 21.5 21.5 0 0 0 7.76-9.427 21.3 21.3 0 0 0 1.25-4.023c.58-2.85.58-5.787 0-8.637a21.3 21.3 0 0 0-3.226-7.662 21.5 21.5 0 0 0-9.426-7.763 21.3 21.3 0 0 0-4.023-1.248A21.6 21.6 0 0 0 24 2.57"/></g><g clip-path="url(#c)"><svg xmlns="http://www.w3.org/2000/svg" width="48" height="48" viewBox="0 0 32 32"><circle cx="16" cy="16" r="16" fill="#178DD0"/><path fill="#fff" d="M7.5 8.51c0-1.452 1.09-2.67 2.538-2.778A82 82 0 0 1 16 5.5c2.267 0 4.4.116 5.962.232C23.411 5.84 24.5 7.058 24.5 8.51c0 1.444-1.076 2.656-2.516 2.764A81 81 0 0 1 16 11.5c-2.36 0-4.461-.113-5.984-.226C8.576 11.166 7.5 9.954 7.5 8.51m-.037 8.114a1.68 1.68 0 0 1 1.87-1.504q.497.053 1.158.142c.387.052.74.133 1.057.23 1.348.408 1.952 1.811 1.952 3.22v5.79C13.5 25.33 12.829 26 12 26h-1.87c-1.419 0-2.623-1.01-2.747-2.423a35.4 35.4 0 0 1 .08-6.953m16.824 0a1.68 1.68 0 0 0-1.87-1.504 43 43 0 0 0-1.158.142c-.387.052-.74.133-1.057.23-1.348.408-1.952 1.811-1.952 3.22v5.79c0 .828.671 1.498 1.5 1.498h1.87c1.419 0 2.623-1.01 2.746-2.423a35.4 35.4 0 0 0-.079-6.953"/></svg></g><defs><clipPath id="c"><circle cx="24" cy="24" r="20"/></clipPath><clipPath id="a"><path fill="#fff" d="M0 0h48v48H0z"/></clipPath><linearGradient id="b" x1="40.464" x2="9.888" y1="6.48" y2="42.528" gradientUnits="userSpaceOnUse"><stop stop-color="#B6509E"/><stop offset="1" stop-color="#2EBAC6"/></linearGradient></defs></svg>