<svg xmlns="http://www.w3.org/2000/svg" width="48" height="48" fill="none" viewBox="0 0 48 48"><g clip-path="url(#clip0_85_109)"><path fill="url(#paint0_linear_85_109)" d="M24 48a23.87 23.87 0 0 1-13.42-4.099 24.07 24.07 0 0 1-8.695-10.559 24 24 0 0 1-1.397-4.504 24.2 24.2 0 0 1 0-9.674 23.9 23.9 0 0 1 3.61-8.582 24.07 24.07 0 0 1 10.56-8.696A24 24 0 0 1 19.163.488c3.191-.65 6.481-.65 9.673 0a23.9 23.9 0 0 1 8.582 3.61 24.07 24.07 0 0 1 8.695 10.56 24 24 0 0 1 1.4 4.505c.65 3.191.65 6.481 0 9.673a23.9 23.9 0 0 1-3.612 8.582 24.07 24.07 0 0 1-10.559 8.695A23.9 23.9 0 0 1 24 48m0-45.429c-1.45 0-2.897.146-4.319.436A21.3 21.3 0 0 0 12.02 6.23a21.5 21.5 0 0 0-7.763 9.428 21.3 21.3 0 0 0-1.248 4.022c-.58 2.85-.58 5.788 0 8.638a21.3 21.3 0 0 0 3.225 7.662 21.5 21.5 0 0 0 9.428 7.764c1.296.547 2.643.966 4.022 1.248 2.85.58 5.787.58 8.637 0a21.3 21.3 0 0 0 7.663-3.225 21.5 21.5 0 0 0 7.76-9.427 21.3 21.3 0 0 0 1.25-4.023c.58-2.85.58-5.787 0-8.637a21.3 21.3 0 0 0-3.226-7.662 21.5 21.5 0 0 0-9.426-7.763 21.3 21.3 0 0 0-4.023-1.248A21.6 21.6 0 0 0 24 2.57"/></g><g clip-path="url(#circleClip)"><svg xmlns="http://www.w3.org/2000/svg" xml:space="preserve" id="TUSD" width="48" height="48" version="1.1" viewBox="0 0 500 500"><style>.st0{fill:#002868}.st1{fill:#fff}</style><path id="Coin_BG" d="M250 500C112.5 500 0 387.5 0 250S112.5 0 250 0s250 112.5 250 250-112.5 250-250 250" class="st0"/><path id="BG_1_" d="M376 400H124c-13.2 0-24-10.8-24-24V124c0-13.2 10.8-24 24-24h252c13.2 0 24 10.8 24 24v252c0 13.2-10.8 24-24 24" class="st1"/><path d="M158.54 369.8c-.79 0-1.43-.72-1.43-1.51v-40.31c0-.79-.64-1.51-1.43-1.51h-14.23c-.8 0-1.51-.64-1.51-1.43v-7.79c0-.79.72-1.51 1.51-1.51h43.8c.79 0 1.51.71 1.51 1.51v7.79c0 .79-.72 1.43-1.51 1.43H171.1c-.79 0-1.51.71-1.51 1.51v40.31c0 .79-.64 1.51-1.43 1.51zm71.94-52.55c0-.79.64-1.51 1.43-1.51h9.54c.79 0 1.51.71 1.51 1.51v27.51c0 16.3-9.22 25.76-23.85 25.76-14.55 0-23.69-9.46-23.69-25.76v-27.51c0-.79.64-1.51 1.43-1.51h9.54c.79 0 1.51.71 1.51 1.51v27.9c0 8.03 4.13 13.75 11.29 13.75s11.29-5.72 11.29-13.75zm56.29 16.14c-1.27 0-1.67-.48-2.15-1.43-1.67-3.9-5.33-6.36-10.89-6.36-5.01 0-9.22 1.75-9.22 5.09 0 3.66 3.9 5.17 12.48 6.2 13.04 1.51 20.51 5.49 20.51 15.82 0 11.61-10.18 17.73-23.21 17.73-11.29 0-20.99-5.49-22.5-17.01-.16-1.11.4-1.51 1.51-1.51h8.75c1.11 0 1.75.48 2.07 1.35 1.19 3.82 5.25 6.76 11.13 6.76 5.17 0 9.7-1.91 9.7-5.96 0-4.85-4.77-5.72-14.31-6.92-10.97-1.43-18.6-4.61-18.6-14.71s8.67-17.33 22.26-17.33c12.24 0 20.75 6.6 22.5 16.46.24 1.11-.08 1.83-1.27 1.83h-8.76zm21.54 36.41c-.79 0-1.43-.72-1.43-1.51v-51.04c0-.79.64-1.51 1.43-1.51h21.62c16.06 0 28.54 11.05 28.54 27.19 0 15.9-12.32 26.87-28.54 26.87zm21.62-10.74c8.67 0 15.42-6.84 15.42-16.3s-6.76-16.3-15.5-16.3h-8.98c-.79 0-1.43.71-1.43 1.51v29.65c0 .79.64 1.43 1.43 1.43h9.06z" class="st0"/><path id="BG" d="M392 286H108c-2.2 0-4-1.8-4-4V124c0-11 9-20 20-20h252c11 0 20 9 20 20v158c0 2.2-1.8 4-4 4" class="st0"/><path id="_x7C_" d="M264.73 253.56h-26c-1.65 0-3-1.35-3-3v-110c0-1.65 1.35-3 3-3h26c1.65 0 3 1.35 3 3v110c0 1.65-1.35 3-3 3" class="st1"/><path id="_x2014_" d="M309 169.56H191c-1.65 0-3-1.35-3-3v-26c0-1.65 1.35-3 3-3h118c1.65 0 3 1.35 3 3v26c0 1.65-1.35 3-3 3" class="st1"/></svg></g><defs><clipPath id="circleClip"><circle cx="24" cy="24" r="20"/></clipPath><clipPath id="clip0_85_109"><path fill="#fff" d="M0 0h48v48H0z"/></clipPath><linearGradient id="paint0_linear_85_109" x1="40.464" x2="9.888" y1="6.48" y2="42.528" gradientUnits="userSpaceOnUse"><stop stop-color="#B6509E"/><stop offset="1" stop-color="#2EBAC6"/></linearGradient></defs></svg>