<svg xmlns="http://www.w3.org/2000/svg" width="48" height="48" viewBox="0 0 48 48"><defs><linearGradient id="a" x1="215.808" x2="52.736" y1="34.56" y2="226.816" gradientUnits="userSpaceOnUse"><stop offset="0" stop-color="#b6509e"/><stop offset="1" stop-color="#2ebac6"/></linearGradient></defs><path fill="url(#a)" d="M128 256a129 129 0 0 1-25.8-2.6 127.3 127.3 0 0 1-45.77-19.261 128.37 128.37 0 0 1-46.375-56.315A127.4 127.4 0 0 1 2.6 153.8a129.25 129.25 0 0 1 0-51.593 127.3 127.3 0 0 1 19.26-45.77 128.37 128.37 0 0 1 56.317-46.378A127.3 127.3 0 0 1 102.2 2.6a129.2 129.2 0 0 1 51.593 0 127.3 127.3 0 0 1 45.77 19.26 128.37 128.37 0 0 1 46.375 56.316A127.3 127.3 0 0 1 253.4 102.2a129.25 129.25 0 0 1 0 51.593 127.3 127.3 0 0 1-19.26 45.77 128.4 128.4 0 0 1-56.316 46.375A127.4 127.4 0 0 1 153.8 253.4 129 129 0 0 1 128 256m0-242.287a115 115 0 0 0-23.033 2.322A113.7 113.7 0 0 0 64.1 33.232a114.6 114.6 0 0 0-41.4 50.283 113.7 113.7 0 0 0-6.659 21.452 115.4 115.4 0 0 0 0 46.065 113.7 113.7 0 0 0 17.2 40.866 114.63 114.63 0 0 0 50.282 41.407 113.8 113.8 0 0 0 21.453 6.658 115.4 115.4 0 0 0 46.065 0 113.6 113.6 0 0 0 40.866-17.2 114.6 114.6 0 0 0 41.393-50.278 113.7 113.7 0 0 0 6.659-21.453 115.4 115.4 0 0 0 0-46.065 113.7 113.7 0 0 0-17.2-40.865A114.6 114.6 0 0 0 172.485 22.7a113.7 113.7 0 0 0-21.453-6.659A115 115 0 0 0 128 13.714Z" style="fill:url(#a)" transform="matrix(.17969 0 0 .17969 1 1)"/><svg xmlns="http://www.w3.org/2000/svg" width="40" height="40" x="4" y="4" fill="none" viewBox="0 0 256 256"><rect width="256" height="256" fill="#0052FF" rx="128"/><path fill="#fff" fill-rule="evenodd" d="M120.7 39v47.117c-15.872 2.361-25.007 12.707-25.007 25.113 0 15.862 10.401 22.451 25.155 25.013l8.95 1.587c8.345 1.464 12.336 2.562 12.336 8.663 0 5.856-4.475 10.493-14.029 10.493-9.434 0-15.239-4.149-15.239-12.568H94c0 14.154 10.522 24.281 26.848 26.478v16.35h14.755v-16.472c15.48-2.441 25.397-12.08 25.397-25.868 0-16.716-11.61-22.572-25.881-24.768l-8.587-1.343c-7.619-1.22-11.851-2.928-11.851-9.151 0-4.88 3.628-9.639 12.819-9.639 9.554 0 13.545 4.637 13.545 10.859h18.867c-.242-11.81-8.673-22.042-24.212-24.63V39.116c45.586 4.14 81.3 42.465 81.3 89.13 0 49.429-40.071 89.5-89.5 89.5S38 177.675 38 128.246C38 81.104 74.447 42.475 120.7 39" clip-rule="evenodd"/></svg></svg>