<svg xmlns="http://www.w3.org/2000/svg" width="48" height="48" fill="none" viewBox="0 0 48 48"><g clip-path="url(#a)"><path fill="url(#b)" d="M24 48a23.87 23.87 0 0 1-13.42-4.099 24.07 24.07 0 0 1-8.695-10.559 24 24 0 0 1-1.397-4.504 24.2 24.2 0 0 1 0-9.674 23.9 23.9 0 0 1 3.61-8.582 24.07 24.07 0 0 1 10.56-8.696A24 24 0 0 1 19.163.488c3.191-.65 6.481-.65 9.673 0a23.9 23.9 0 0 1 8.582 3.61 24.07 24.07 0 0 1 8.695 10.56 24 24 0 0 1 1.4 4.505c.65 3.191.65 6.481 0 9.673a23.9 23.9 0 0 1-3.612 8.582 24.07 24.07 0 0 1-10.559 8.695A23.9 23.9 0 0 1 24 48m0-45.429c-1.45 0-2.897.146-4.319.436A21.3 21.3 0 0 0 12.02 6.23a21.5 21.5 0 0 0-7.763 9.428 21.3 21.3 0 0 0-1.248 4.022c-.58 2.85-.58 5.788 0 8.638a21.3 21.3 0 0 0 3.225 7.662 21.5 21.5 0 0 0 9.428 7.764c1.296.547 2.643.966 4.022 1.248 2.85.58 5.787.58 8.637 0a21.3 21.3 0 0 0 7.663-3.225 21.5 21.5 0 0 0 7.76-9.427 21.3 21.3 0 0 0 1.25-4.023c.58-2.85.58-5.787 0-8.637a21.3 21.3 0 0 0-3.226-7.662 21.5 21.5 0 0 0-9.426-7.763 21.3 21.3 0 0 0-4.023-1.248A21.6 21.6 0 0 0 24 2.57"/></g><g clip-path="url(#c)"><svg xmlns="http://www.w3.org/2000/svg" width="48" height="48" viewBox="0 0 48 48"><g clip-path="url(#d)"><path fill="#2775C9" d="M24 48c13.255 0 24-10.745 24-24S37.255 0 24 0 0 10.745 0 24s10.745 24 24 24"/><path fill="#fff" d="M23.625 41.25a17.625 17.625 0 1 1 0-35.25 17.625 17.625 0 0 1 0 35.25m-1.05-24.165A3.87 3.87 0 0 0 18.9 20.79c0 1.815 1.11 3 3.465 3.495l1.65.39c1.605.375 2.265.915 2.265 1.83s-1.155 1.815-2.655 1.815a2.85 2.85 0 0 1-2.7-1.365 1.02 1.02 0 0 0-.915-.585h-.885a.526.526 0 0 0-.42.615 4.095 4.095 0 0 0 3.915 3.12v1.26a1.058 1.058 0 1 0 2.115 0V30.09a3.93 3.93 0 0 0 3.885-3.87c0-1.905-1.095-3-3.69-3.555l-1.5-.33c-1.5-.375-2.205-.87-2.205-1.71s.9-1.77 2.4-1.77a2.46 2.46 0 0 1 2.385 1.215 1.2 1.2 0 0 0 1.08.69h.705a.63.63 0 0 0 .465-.75 3.975 3.975 0 0 0-3.57-3v-1.035a1.058 1.058 0 0 0-2.115 0zm-12.165 6.54a13.185 13.185 0 0 0 9 12.495h.21a.675.675 0 0 0 .675-.675v-.315a1.41 1.41 0 0 0-.87-1.305 11.039 11.039 0 0 1 0-20.475 1.395 1.395 0 0 0 .87-1.29v-.345a.63.63 0 0 0-.84-.6 13.185 13.185 0 0 0-9.045 12.51m26.43 0a13.19 13.19 0 0 0-9-12.48h-.225a.705.705 0 0 0-.705.705v.225a1.5 1.5 0 0 0 .915 1.35 11.04 11.04 0 0 1 0 20.46 1.5 1.5 0 0 0-.9 1.335v.255a.705.705 0 0 0 .93.66 13.185 13.185 0 0 0 8.985-12.51"/></g><defs><clipPath id="d"><path fill="#fff" d="M0 0h48v48H0z"/></clipPath></defs></svg></g><defs><clipPath id="c"><circle cx="24" cy="24" r="20"/></clipPath><clipPath id="a"><path fill="#fff" d="M0 0h48v48H0z"/></clipPath><linearGradient id="b" x1="40.464" x2="9.888" y1="6.48" y2="42.528" gradientUnits="userSpaceOnUse"><stop stop-color="#B6509E"/><stop offset="1" stop-color="#2EBAC6"/></linearGradient></defs></svg>