<svg xmlns="http://www.w3.org/2000/svg" width="48" height="48" viewBox="0 0 48 48"><defs><linearGradient id="a" x1="215.808" x2="52.736" y1="34.56" y2="226.816" gradientUnits="userSpaceOnUse"><stop offset="0" stop-color="#b6509e"/><stop offset="1" stop-color="#2ebac6"/></linearGradient></defs><path fill="url(#a)" d="M128 256a129 129 0 0 1-25.8-2.6 127.3 127.3 0 0 1-45.77-19.261 128.37 128.37 0 0 1-46.375-56.315A127.4 127.4 0 0 1 2.6 153.8a129.25 129.25 0 0 1 0-51.593 127.3 127.3 0 0 1 19.26-45.77 128.37 128.37 0 0 1 56.317-46.378A127.3 127.3 0 0 1 102.2 2.6a129.2 129.2 0 0 1 51.593 0 127.3 127.3 0 0 1 45.77 19.26 128.37 128.37 0 0 1 46.375 56.316A127.3 127.3 0 0 1 253.4 102.2a129.25 129.25 0 0 1 0 51.593 127.3 127.3 0 0 1-19.26 45.77 128.4 128.4 0 0 1-56.316 46.375A127.4 127.4 0 0 1 153.8 253.4 129 129 0 0 1 128 256m0-242.287a115 115 0 0 0-23.033 2.322A113.7 113.7 0 0 0 64.1 33.232a114.6 114.6 0 0 0-41.4 50.283 113.7 113.7 0 0 0-6.659 21.452 115.4 115.4 0 0 0 0 46.065 113.7 113.7 0 0 0 17.2 40.866 114.63 114.63 0 0 0 50.282 41.407 113.8 113.8 0 0 0 21.453 6.658 115.4 115.4 0 0 0 46.065 0 113.6 113.6 0 0 0 40.866-17.2 114.6 114.6 0 0 0 41.393-50.278 113.7 113.7 0 0 0 6.659-21.453 115.4 115.4 0 0 0 0-46.065 113.7 113.7 0 0 0-17.2-40.865A114.6 114.6 0 0 0 172.485 22.7a113.7 113.7 0 0 0-21.453-6.659A115 115 0 0 0 128 13.714Z" style="fill:url(#a)" transform="matrix(.17969 0 0 .17969 1 1)"/><svg xmlns="http://www.w3.org/2000/svg" width="40" height="40" x="4" y="4" viewBox="0 0 32 32"><g fill="none"><circle cx="16" cy="16" r="16" fill="#2775C9"/><path fill="#FFF" d="M15.75 27.5A11.75 11.75 0 1 1 27.5 15.75 11.75 11.75 0 0 1 15.75 27.5m-.7-16.11a2.58 2.58 0 0 0-2.45 2.47c0 1.21.74 2 2.31 2.33l1.1.26c1.07.25 1.51.61 1.51 1.22s-.77 1.21-1.77 1.21a1.9 1.9 0 0 1-1.8-.91.68.68 0 0 0-.61-.39h-.59a.35.35 0 0 0-.28.41 2.73 2.73 0 0 0 2.61 2.08v.84a.7.7 0 0 0 1.41 0v-.85a2.62 2.62 0 0 0 2.59-2.58c0-1.27-.73-2-2.46-2.37l-1-.22c-1-.25-1.47-.58-1.47-1.14s.6-1.18 1.6-1.18a1.64 1.64 0 0 1 1.59.81.8.8 0 0 0 .72.46h.47a.42.42 0 0 0 .31-.5 2.65 2.65 0 0 0-2.38-2v-.69a.7.7 0 0 0-1.41 0zm-8.11 4.36a8.79 8.79 0 0 0 6 8.33h.14a.45.45 0 0 0 .45-.45v-.21a.94.94 0 0 0-.58-.87 7.36 7.36 0 0 1 0-13.65.93.93 0 0 0 .58-.86v-.23a.42.42 0 0 0-.56-.4 8.79 8.79 0 0 0-6.03 8.34m17.62 0a8.79 8.79 0 0 0-6-8.32h-.15a.47.47 0 0 0-.47.47v.15a1 1 0 0 0 .61.9 7.36 7.36 0 0 1 0 13.64 1 1 0 0 0-.6.89v.17a.47.47 0 0 0 .62.44 8.79 8.79 0 0 0 5.99-8.34"/></g></svg></svg>