<svg xmlns="http://www.w3.org/2000/svg" width="48" height="48" fill="none" viewBox="0 0 48 48"><g clip-path="url(#a)"><path fill="url(#b)" d="M24 48a23.87 23.87 0 0 1-13.42-4.099 24.07 24.07 0 0 1-8.695-10.559 24 24 0 0 1-1.397-4.504 24.2 24.2 0 0 1 0-9.674 23.9 23.9 0 0 1 3.61-8.582 24.07 24.07 0 0 1 10.56-8.696A24 24 0 0 1 19.163.488c3.191-.65 6.481-.65 9.673 0a23.9 23.9 0 0 1 8.582 3.61 24.07 24.07 0 0 1 8.695 10.56 24 24 0 0 1 1.4 4.505c.65 3.191.65 6.481 0 9.673a23.9 23.9 0 0 1-3.612 8.582 24.07 24.07 0 0 1-10.559 8.695A23.9 23.9 0 0 1 24 48m0-45.429c-1.45 0-2.897.146-4.319.436A21.3 21.3 0 0 0 12.02 6.23a21.5 21.5 0 0 0-7.763 9.428 21.3 21.3 0 0 0-1.248 4.022c-.58 2.85-.58 5.788 0 8.638a21.3 21.3 0 0 0 3.225 7.662 21.5 21.5 0 0 0 9.428 7.764c1.296.547 2.643.966 4.022 1.248 2.85.58 5.787.58 8.637 0a21.3 21.3 0 0 0 7.663-3.225 21.5 21.5 0 0 0 7.76-9.427 21.3 21.3 0 0 0 1.25-4.023c.58-2.85.58-5.787 0-8.637a21.3 21.3 0 0 0-3.226-7.662 21.5 21.5 0 0 0-9.426-7.763 21.3 21.3 0 0 0-4.023-1.248A21.6 21.6 0 0 0 24 2.57"/></g><g clip-path="url(#c)"><svg xmlns="http://www.w3.org/2000/svg" width="48" height="48" viewBox="0 0 48 48"><g clip-path="url(#d)"><g clip-path="url(#e)"><path fill="#2775CA" d="M24 48c13.3 0 24-10.7 24-24S37.3 0 24 0 0 10.7 0 24s10.7 24 24 24"/><path fill="#fff" d="M30.6 27.8c0-3.5-2.1-4.7-6.3-5.2-3-.4-3.6-1.2-3.6-2.6s1-2.3 3-2.3c1.8 0 2.8.6 3.3 2.1.1.3.4.5.7.5h1.6c.4 0 .7-.3.7-.7v-.1c-.4-2.2-2.2-3.9-4.5-4.1V13c0-.4-.3-.7-.8-.8h-1.5c-.4 0-.7.3-.8.8v2.3c-3 .4-4.9 2.4-4.9 4.9 0 3.3 2 4.6 6.2 5.1 2.8.5 3.7 1.1 3.7 2.7s-1.4 2.7-3.3 2.7c-2.6 0-3.5-1.1-3.8-2.6-.1-.4-.4-.6-.7-.6h-1.7c-.4 0-.7.3-.7.7v.1c.4 2.5 2 4.3 5.3 4.8v2.4c0 .4.3.7.8.8h1.5c.4 0 .7-.3.8-.8v-2.4c3-.5 5-2.6 5-5.3"/><path fill="#fff" d="M18.9 38.3C11.1 35.5 7.1 26.8 10 19.1c1.5-4.2 4.8-7.4 8.9-8.9.4-.2.6-.5.6-1V7.8c0-.4-.2-.7-.6-.8-.1 0-.3 0-.4.1C9 10.1 3.8 20.2 6.8 29.7c1.8 5.6 6.1 9.9 11.7 11.7.4.2.8 0 .9-.4.1-.1.1-.2.1-.4v-1.4c0-.3-.3-.7-.6-.9M29.5 7.1c-.4-.2-.8 0-.9.4-.1.1-.1.2-.1.4v1.4c0 .4.3.8.6 1 7.8 2.8 11.8 11.5 8.9 19.2-1.5 4.2-4.8 7.4-8.9 8.9-.4.2-.6.5-.6 1v1.4c0 .4.2.7.6.8.1 0 .3 0 .4-.1 9.5-3 14.7-13.1 11.7-22.6-1.8-5.7-6.2-10-11.7-11.8"/></g></g><defs><clipPath id="d"><path fill="#fff" d="M0 0h48v48H0z"/></clipPath><clipPath id="e"><path fill="#fff" d="M0 0h48v48H0z"/></clipPath></defs></svg></g><defs><clipPath id="c"><circle cx="24" cy="24" r="20"/></clipPath><clipPath id="a"><path fill="#fff" d="M0 0h48v48H0z"/></clipPath><linearGradient id="b" x1="40.464" x2="9.888" y1="6.48" y2="42.528" gradientUnits="userSpaceOnUse"><stop stop-color="#B6509E"/><stop offset="1" stop-color="#2EBAC6"/></linearGradient></defs></svg>