<svg width="48" height="48" viewBox="0 0 48 48"><defs><linearGradient id="a" x1="215.808" x2="52.736" y1="34.56" y2="226.816" gradientUnits="userSpaceOnUse"><stop offset="0" stop-color="#b6509e"/><stop offset="1" stop-color="#2ebac6"/></linearGradient></defs><path fill="url(#a)" d="M128 256a129 129 0 0 1-25.8-2.6 127.3 127.3 0 0 1-45.77-19.261 128.37 128.37 0 0 1-46.375-56.315A127.4 127.4 0 0 1 2.6 153.8a129.25 129.25 0 0 1 0-51.593 127.3 127.3 0 0 1 19.26-45.77 128.37 128.37 0 0 1 56.317-46.378A127.3 127.3 0 0 1 102.2 2.6a129.2 129.2 0 0 1 51.593 0 127.3 127.3 0 0 1 45.77 19.26 128.37 128.37 0 0 1 46.375 56.316A127.3 127.3 0 0 1 253.4 102.2a129.25 129.25 0 0 1 0 51.593 127.3 127.3 0 0 1-19.26 45.77 128.4 128.4 0 0 1-56.316 46.375A127.4 127.4 0 0 1 153.8 253.4 129 129 0 0 1 128 256m0-242.287a115 115 0 0 0-23.033 2.322A113.7 113.7 0 0 0 64.1 33.232a114.6 114.6 0 0 0-41.4 50.283 113.7 113.7 0 0 0-6.659 21.452 115.4 115.4 0 0 0 0 46.065 113.7 113.7 0 0 0 17.2 40.866 114.63 114.63 0 0 0 50.282 41.407 113.8 113.8 0 0 0 21.453 6.658 115.4 115.4 0 0 0 46.065 0 113.6 113.6 0 0 0 40.866-17.2 114.6 114.6 0 0 0 41.393-50.278 113.7 113.7 0 0 0 6.659-21.453 115.4 115.4 0 0 0 0-46.065 113.7 113.7 0 0 0-17.2-40.865A114.6 114.6 0 0 0 172.485 22.7a113.7 113.7 0 0 0-21.453-6.659A115 115 0 0 0 128 13.714Z" style="fill:url(#a)" transform="matrix(.1875 0 0 .1875 0 0)"/><svg xmlns="http://www.w3.org/2000/svg" width="30" height="30" x="9" y="9" fill="none" viewBox="0 0 256 256"><path fill="#00A64F" d="M128 253.632c69.279 0 125.44-56.161 125.44-125.44S197.279 2.752 128 2.752 2.56 58.913 2.56 128.192 58.721 253.632 128 253.632"/><path fill="url(#b)" d="M128 253.632c69.279 0 125.44-56.161 125.44-125.44S197.279 2.752 128 2.752 2.56 58.913 2.56 128.192 58.721 253.632 128 253.632"/><path fill="url(#c)" d="M128 253.632c69.279 0 125.44-56.161 125.44-125.44S197.279 2.752 128 2.752 2.56 58.913 2.56 128.192 58.721 253.632 128 253.632"/><path fill="url(#d)" d="M128 253.632c69.279 0 125.44-56.161 125.44-125.44S197.279 2.752 128 2.752 2.56 58.913 2.56 128.192 58.721 253.632 128 253.632"/><path fill="#fff" d="M150.656 118.464h-10.688V87.168h46.464v-19.2h-46.464V37.952h-23.936v30.144H105.92c-21.824 0-40.064 11.008-40.064 35.136 0 21.056 16 34.304 39.488 34.304h10.688v31.296H69.568v19.2h46.464v30.016h23.936v-30.144h10.112c21.888 0 40.064-11.008 40.064-35.136 0-21.056-16-34.304-39.488-34.304m-34.624 19.072v-19.072h-7.616c-10.176 0-18.432-4.288-18.432-15.68 0-11.264 7.872-15.552 18.944-15.552h7.104v31.296h23.936V137.6zm31.04 31.296h-7.104v-31.296h7.616c10.176 0 18.432 4.288 18.432 15.68 0 11.328-7.872 15.616-18.944 15.616"/><defs><radialGradient id="b" cx="0" cy="0" r="1" gradientTransform="translate(13.529 197.758)scale(200.692)" gradientUnits="userSpaceOnUse"><stop offset=".09" stop-color="#00522C"/><stop offset="1" stop-color="#00522C" stop-opacity="0"/></radialGradient><radialGradient id="c" cx="0" cy="0" r="1" gradientTransform="rotate(-97.18 208.446 23.352)scale(200.701)" gradientUnits="userSpaceOnUse"><stop offset=".09" stop-color="#00A64F"/><stop offset="1" stop-color="#00A64F" stop-opacity="0"/></radialGradient><radialGradient id="d" cx="0" cy="0" r="1" gradientTransform="translate(244.316 46.738)scale(166.631)" gradientUnits="userSpaceOnUse"><stop offset=".098" stop-color="#8AD137"/><stop offset="1" stop-color="#8AD137" stop-opacity="0"/></radialGradient></defs></svg></svg>