<svg xmlns="http://www.w3.org/2000/svg" width="48" height="48" fill="none" viewBox="0 0 48 48"><g clip-path="url(#a)"><path fill="url(#b)" d="M24 48a23.87 23.87 0 0 1-13.42-4.099 24.07 24.07 0 0 1-8.695-10.559 24 24 0 0 1-1.397-4.504 24.2 24.2 0 0 1 0-9.674 23.9 23.9 0 0 1 3.61-8.582 24.07 24.07 0 0 1 10.56-8.696A24 24 0 0 1 19.163.488c3.191-.65 6.481-.65 9.673 0a23.9 23.9 0 0 1 8.582 3.61 24.07 24.07 0 0 1 8.695 10.56 24 24 0 0 1 1.4 4.505c.65 3.191.65 6.481 0 9.673a23.9 23.9 0 0 1-3.612 8.582 24.07 24.07 0 0 1-10.559 8.695A23.9 23.9 0 0 1 24 48m0-45.429c-1.45 0-2.897.146-4.319.436A21.3 21.3 0 0 0 12.02 6.23a21.5 21.5 0 0 0-7.763 9.428 21.3 21.3 0 0 0-1.248 4.022c-.58 2.85-.58 5.788 0 8.638a21.3 21.3 0 0 0 3.225 7.662 21.5 21.5 0 0 0 9.428 7.764c1.296.547 2.643.966 4.022 1.248 2.85.58 5.787.58 8.637 0a21.3 21.3 0 0 0 7.663-3.225 21.5 21.5 0 0 0 7.76-9.427 21.3 21.3 0 0 0 1.25-4.023c.58-2.85.58-5.787 0-8.637a21.3 21.3 0 0 0-3.226-7.662 21.5 21.5 0 0 0-9.426-7.763 21.3 21.3 0 0 0-4.023-1.248A21.6 21.6 0 0 0 24 2.57"/></g><g clip-path="url(#c)"><svg xmlns="http://www.w3.org/2000/svg" width="48" height="48" viewBox="0 0 256 256"><path fill="#00A64F" d="M128 253.632c69.279 0 125.44-56.161 125.44-125.44S197.279 2.752 128 2.752 2.56 58.913 2.56 128.192 58.721 253.632 128 253.632"/><path fill="url(#d)" d="M128 253.632c69.279 0 125.44-56.161 125.44-125.44S197.279 2.752 128 2.752 2.56 58.913 2.56 128.192 58.721 253.632 128 253.632"/><path fill="url(#e)" d="M128 253.632c69.279 0 125.44-56.161 125.44-125.44S197.279 2.752 128 2.752 2.56 58.913 2.56 128.192 58.721 253.632 128 253.632"/><path fill="url(#f)" d="M128 253.632c69.279 0 125.44-56.161 125.44-125.44S197.279 2.752 128 2.752 2.56 58.913 2.56 128.192 58.721 253.632 128 253.632"/><path fill="#fff" d="M150.656 118.464h-10.688V87.168h46.464v-19.2h-46.464V37.952h-23.936v30.144H105.92c-21.824 0-40.064 11.008-40.064 35.136 0 21.056 16 34.304 39.488 34.304h10.688v31.296H69.568v19.2h46.464v30.016h23.936v-30.144h10.112c21.888 0 40.064-11.008 40.064-35.136 0-21.056-16-34.304-39.488-34.304m-34.624 19.072v-19.072h-7.616c-10.176 0-18.432-4.288-18.432-15.68 0-11.264 7.872-15.552 18.944-15.552h7.104v31.296h23.936V137.6zm31.04 31.296h-7.104v-31.296h7.616c10.176 0 18.432 4.288 18.432 15.68 0 11.328-7.872 15.616-18.944 15.616"/><defs><radialGradient id="d" cx="0" cy="0" r="1" gradientTransform="translate(13.529 197.758)scale(200.692)" gradientUnits="userSpaceOnUse"><stop offset=".09" stop-color="#00522C"/><stop offset="1" stop-color="#00522C" stop-opacity="0"/></radialGradient><radialGradient id="e" cx="0" cy="0" r="1" gradientTransform="rotate(-97.18 208.446 23.352)scale(200.701)" gradientUnits="userSpaceOnUse"><stop offset=".09" stop-color="#00A64F"/><stop offset="1" stop-color="#00A64F" stop-opacity="0"/></radialGradient><radialGradient id="f" cx="0" cy="0" r="1" gradientTransform="translate(244.316 46.738)scale(166.631)" gradientUnits="userSpaceOnUse"><stop offset=".098" stop-color="#8AD137"/><stop offset="1" stop-color="#8AD137" stop-opacity="0"/></radialGradient></defs></svg></g><defs><clipPath id="c"><circle cx="24" cy="24" r="20"/></clipPath><clipPath id="a"><path fill="#fff" d="M0 0h48v48H0z"/></clipPath><linearGradient id="b" x1="40.464" x2="9.888" y1="6.48" y2="42.528" gradientUnits="userSpaceOnUse"><stop stop-color="#B6509E"/><stop offset="1" stop-color="#2EBAC6"/></linearGradient></defs></svg>