<svg xmlns="http://www.w3.org/2000/svg" width="48" height="48" fill="none" viewBox="0 0 48 48"><g clip-path="url(#a)"><path fill="url(#b)" d="M24 48a23.87 23.87 0 0 1-13.42-4.099 24.07 24.07 0 0 1-8.695-10.559 24 24 0 0 1-1.397-4.504 24.2 24.2 0 0 1 0-9.674 23.9 23.9 0 0 1 3.61-8.582 24.07 24.07 0 0 1 10.56-8.696A24 24 0 0 1 19.163.488c3.191-.65 6.481-.65 9.673 0a23.9 23.9 0 0 1 8.582 3.61 24.07 24.07 0 0 1 8.695 10.56 24 24 0 0 1 1.4 4.505c.65 3.191.65 6.481 0 9.673a23.9 23.9 0 0 1-3.612 8.582 24.07 24.07 0 0 1-10.559 8.695A23.9 23.9 0 0 1 24 48m0-45.429c-1.45 0-2.897.146-4.319.436A21.3 21.3 0 0 0 12.02 6.23a21.5 21.5 0 0 0-7.763 9.428 21.3 21.3 0 0 0-1.248 4.022c-.58 2.85-.58 5.788 0 8.638a21.3 21.3 0 0 0 3.225 7.662 21.5 21.5 0 0 0 9.428 7.764c1.296.547 2.643.966 4.022 1.248 2.85.58 5.787.58 8.637 0a21.3 21.3 0 0 0 7.663-3.225 21.5 21.5 0 0 0 7.76-9.427 21.3 21.3 0 0 0 1.25-4.023c.58-2.85.58-5.787 0-8.637a21.3 21.3 0 0 0-3.226-7.662 21.5 21.5 0 0 0-9.426-7.763 21.3 21.3 0 0 0-4.023-1.248A21.6 21.6 0 0 0 24 2.57"/></g><g clip-path="url(#c)"><svg xmlns="http://www.w3.org/2000/svg" width="48" height="48" viewBox="0 0 125 125"><g clip-path="url(#d)"><path fill="#000" d="M102.679 22.322H22.321v80.357h80.358z"/><path fill="#fff" fill-rule="evenodd" d="M62.5 125C28.96 125.036 0 96.04 0 62.5 0 27.66 26.978-.036 62.5 0 97.991.036 125 27.66 125 62.5c0 33.504-28.996 62.464-62.5 62.5M44.772 91.804H32.656c-2.544 0-3.799 0-4.567-.492a3.08 3.08 0 0 1-1.397-2.41c-.045-.902.58-2.01 1.84-4.215l29.91-52.718c1.272-2.237 1.92-3.357 2.732-3.773a3.07 3.07 0 0 1 2.79 0c.813.416 1.456 1.536 2.728 3.773L72.839 42.7l.032.058c1.375 2.402 2.071 3.616 2.379 4.897.337 1.4.337 2.86 0 4.26-.313 1.29-1 2.517-2.393 4.955L57.143 84.638l-.04.076c-1.384 2.42-2.085 3.648-3.054 4.572a9.14 9.14 0 0 1-3.728 2.165c-1.272.353-2.696.353-5.549.353m30.59 0h17.357c2.562 0 3.848 0 4.616-.505a3.07 3.07 0 0 0 1.397-2.424c.045-.875-.571-1.938-1.777-4.018l-.125-.214-8.696-14.875-.098-.165c-1.224-2.067-1.84-3.112-2.634-3.514a3.05 3.05 0 0 0-2.773 0c-.799.415-1.442 1.505-2.714 3.697l-8.66 14.87-.032.054c-1.268 2.187-1.902 3.281-1.857 4.178a3.1 3.1 0 0 0 1.397 2.424c.75.492 2.036.492 4.599.492" clip-rule="evenodd"/></g><defs><clipPath id="d"><path fill="#fff" d="M0 0h125v125H0z"/></clipPath></defs></svg></g><defs><clipPath id="c"><circle cx="24" cy="24" r="20"/></clipPath><clipPath id="a"><path fill="#fff" d="M0 0h48v48H0z"/></clipPath><linearGradient id="b" x1="40.464" x2="9.888" y1="6.48" y2="42.528" gradientUnits="userSpaceOnUse"><stop stop-color="#B6509E"/><stop offset="1" stop-color="#2EBAC6"/></linearGradient></defs></svg>