<svg width="48" height="48" viewBox="0 0 48 48"><defs><linearGradient id="a" x1="215.808" x2="52.736" y1="34.56" y2="226.816" gradientUnits="userSpaceOnUse"><stop offset="0"/><stop offset="1"/></linearGradient></defs><path fill="url(#a)" d="M128 256a129 129 0 0 1-25.8-2.6 127.3 127.3 0 0 1-45.77-19.261 128.37 128.37 0 0 1-46.375-56.315A127.4 127.4 0 0 1 2.6 153.8a129.25 129.25 0 0 1 0-51.593 127.3 127.3 0 0 1 19.26-45.77 128.37 128.37 0 0 1 56.317-46.378A127.3 127.3 0 0 1 102.2 2.6a129.2 129.2 0 0 1 51.593 0 127.3 127.3 0 0 1 45.77 19.26 128.37 128.37 0 0 1 46.375 56.316A127.3 127.3 0 0 1 253.4 102.2a129.25 129.25 0 0 1 0 51.593 127.3 127.3 0 0 1-19.26 45.77 128.4 128.4 0 0 1-56.316 46.375A127.4 127.4 0 0 1 153.8 253.4 129 129 0 0 1 128 256m0-242.287a115 115 0 0 0-23.033 2.322A113.7 113.7 0 0 0 64.1 33.232a114.6 114.6 0 0 0-41.4 50.283 113.7 113.7 0 0 0-6.659 21.452 115.4 115.4 0 0 0 0 46.065 113.7 113.7 0 0 0 17.2 40.866 114.63 114.63 0 0 0 50.282 41.407 113.8 113.8 0 0 0 21.453 6.658 115.4 115.4 0 0 0 46.065 0 113.6 113.6 0 0 0 40.866-17.2 114.6 114.6 0 0 0 41.393-50.278 113.7 113.7 0 0 0 6.659-21.453 115.4 115.4 0 0 0 0-46.065 113.7 113.7 0 0 0-17.2-40.865A114.6 114.6 0 0 0 172.485 22.7a113.7 113.7 0 0 0-21.453-6.659A115 115 0 0 0 128 13.714Z" style="fill:url(#a)" transform="matrix(.1875 0 0 .1875 0 0)"/><svg xmlns="http://www.w3.org/2000/svg" width="30" height="30" x="9" y="9" fill="none" viewBox="0 0 125 125"><g clip-path="url(#b)"><path fill="#000" d="M102.679 22.322H22.321v80.357h80.358z"/><path fill="#fff" fill-rule="evenodd" d="M62.5 125C28.96 125.036 0 96.04 0 62.5 0 27.66 26.978-.036 62.5 0 97.991.036 125 27.66 125 62.5c0 33.504-28.996 62.464-62.5 62.5M44.772 91.804H32.656c-2.544 0-3.799 0-4.567-.492a3.08 3.08 0 0 1-1.397-2.41c-.045-.902.58-2.01 1.84-4.215l29.91-52.718c1.272-2.237 1.92-3.357 2.732-3.773a3.07 3.07 0 0 1 2.79 0c.813.416 1.456 1.536 2.728 3.773L72.839 42.7l.032.058c1.375 2.402 2.071 3.616 2.379 4.897.337 1.4.337 2.86 0 4.26-.313 1.29-1 2.517-2.393 4.955L57.143 84.638l-.04.076c-1.384 2.42-2.085 3.648-3.054 4.572a9.14 9.14 0 0 1-3.728 2.165c-1.272.353-2.696.353-5.549.353m30.59 0h17.357c2.562 0 3.848 0 4.616-.505a3.07 3.07 0 0 0 1.397-2.424c.045-.875-.571-1.938-1.777-4.018l-.125-.214-8.696-14.875-.098-.165c-1.224-2.067-1.84-3.112-2.634-3.514a3.05 3.05 0 0 0-2.773 0c-.799.415-1.442 1.505-2.714 3.697l-8.66 14.87-.032.054c-1.268 2.187-1.902 3.281-1.857 4.178a3.1 3.1 0 0 0 1.397 2.424c.75.492 2.036.492 4.599.492" clip-rule="evenodd"/></g><defs><clipPath id="b"><path fill="#fff" d="M0 0h125v125H0z"/></clipPath></defs></svg></svg>