<svg xmlns="http://www.w3.org/2000/svg" width="48" height="48" fill="none" viewBox="0 0 48 48"><g clip-path="url(#a)"><path fill="url(#b)" d="M24 48a23.87 23.87 0 0 1-13.42-4.099 24.07 24.07 0 0 1-8.695-10.559 24 24 0 0 1-1.397-4.504 24.2 24.2 0 0 1 0-9.674 23.9 23.9 0 0 1 3.61-8.582 24.07 24.07 0 0 1 10.56-8.696A24 24 0 0 1 19.163.488c3.191-.65 6.481-.65 9.673 0a23.9 23.9 0 0 1 8.582 3.61 24.07 24.07 0 0 1 8.695 10.56 24 24 0 0 1 1.4 4.505c.65 3.191.65 6.481 0 9.673a23.9 23.9 0 0 1-3.612 8.582 24.07 24.07 0 0 1-10.559 8.695A23.9 23.9 0 0 1 24 48m0-45.429c-1.45 0-2.897.146-4.319.436A21.3 21.3 0 0 0 12.02 6.23a21.5 21.5 0 0 0-7.763 9.428 21.3 21.3 0 0 0-1.248 4.022c-.58 2.85-.58 5.788 0 8.638a21.3 21.3 0 0 0 3.225 7.662 21.5 21.5 0 0 0 9.428 7.764c1.296.547 2.643.966 4.022 1.248 2.85.58 5.787.58 8.637 0a21.3 21.3 0 0 0 7.663-3.225 21.5 21.5 0 0 0 7.76-9.427 21.3 21.3 0 0 0 1.25-4.023c.58-2.85.58-5.787 0-8.637a21.3 21.3 0 0 0-3.226-7.662 21.5 21.5 0 0 0-9.426-7.763 21.3 21.3 0 0 0-4.023-1.248A21.6 21.6 0 0 0 24 2.57"/></g><g clip-path="url(#c)"><svg xmlns="http://www.w3.org/2000/svg" width="48" height="48" viewBox="0 0 32 32"><path fill="#FECA00" d="M16 32c8.837 0 16-7.163 16-16S24.837 0 16 0 0 7.163 0 16s7.163 16 16 16"/><path fill="#868686" d="m16 6.83-5.54 9.35L16 13.61z"/><path fill="#363636" d="m16 19.49-5.54-3.32L16 13.61z"/><path fill="#868686" d="m16 20.57-5.54-3.32L16 25.17z"/><path fill="#332600" d="m16 6.83 5.54 9.35L16 13.61z"/><path fill="#140F02" d="m16 19.49 5.54-3.3L16 13.62v5.88z"/><path fill="#332701" d="m16 20.57 5.54-3.26L16 25.17z"/><path fill="#FFFDF7" d="m26.7 6.46-.86.86c2.06 2.32 3.31 5.37 3.31 8.71s-1.24 6.35-3.28 8.67l.86.86a14.33 14.33 0 0 0 3.63-9.54c0-3.67-1.39-7.03-3.66-9.58zM7.33 6.17C9.65 4.13 12.68 2.89 16 2.89s6.35 1.24 8.67 3.28l.86-.86a14.33 14.33 0 0 0-9.54-3.63c-3.67 0-7 1.37-9.54 3.63l.86.86zm17.38 19.7A13.07 13.07 0 0 1 16 29.18c-3.34 0-6.39-1.25-8.71-3.31l-.86.86c2.54 2.28 5.9 3.66 9.58 3.66s7.03-1.39 9.58-3.66l-.86-.86zM6.14 24.71a13.08 13.08 0 0 1-3.28-8.67c0-3.32 1.25-6.39 3.31-8.71l-.86-.86c-2.28 2.54-3.66 5.9-3.66 9.58s1.37 7 3.63 9.54l.86-.86z"/></svg></g><defs><clipPath id="c"><circle cx="24" cy="24" r="20"/></clipPath><clipPath id="a"><path fill="#fff" d="M0 0h48v48H0z"/></clipPath><linearGradient id="b" x1="40.464" x2="9.888" y1="6.48" y2="42.528" gradientUnits="userSpaceOnUse"><stop stop-color="#B6509E"/><stop offset="1" stop-color="#2EBAC6"/></linearGradient></defs></svg>