<svg xmlns="http://www.w3.org/2000/svg" xmlns:xlink="http://www.w3.org/1999/xlink" xml:space="preserve" id="Слой_1" x="0" y="0" version="1.1" viewBox="0 0 136.06 136.06">
  <style>
    .st7{fill:none;stroke:#140275;stroke-width:2;stroke-linejoin:round;stroke-miterlimit:10}
  </style>
  <linearGradient id="SVGID_1_" x1="22.9214" x2="116.4103" y1="90.9567" y2="43.636" gradientUnits="userSpaceOnUse">
    <stop offset="0" stop-color="#00bfff"/>
    <stop offset=".5016" stop-color="#6963ed"/>
    <stop offset=".5227" stop-color="#6d62ee"/>
    <stop offset=".8463" stop-color="#ab57fa"/>
    <stop offset="1" stop-color="#c353ff"/>
  </linearGradient>
  <circle cx="68.2" cy="68.04" r="56.88" fill="url(#SVGID_1_)"/>
  <circle cx="68.2" cy="68.04" r="52.51" class="st7"/>
  <path d="M68.14 25.45 42.11 41.74v26.3M53.98 48.66l-11.87-6.92M68.14 111.18 42.11 94.59V74.23M52.12 88.44l-10.01 6.15M68.14 82.37l26.09-14.33-26.09-42.59-26.03 42.59z" class="st7"/>
  <path d="m68.14 25.45 26.09 16.29v26.3M82.36 48.66l11.87-6.92M68.14 89.13l26.09-14.9-26.09 36.95-26.03-36.95zM68.14 111.18l26.09-16.59V74.23M84.22 88.44l10.01 6.15" class="st7"/>
  <defs>
    <path id="SVGID_00000012436156626035655470000018101052534918904452_" d="M0-.23h136.52v136.52H0z"/>
  </defs>
  <clipPath id="SVGID_00000182489989766577318960000002857892000974477188_">
    <use xlink:href="#SVGID_00000012436156626035655470000018101052534918904452_" overflow="visible"/>
  </clipPath>
  <g clip-path="url(#SVGID_00000182489989766577318960000002857892000974477188_)">
    <linearGradient id="SVGID_00000050639163786797587950000009184285104329117859_" x1="112.4136" x2="25.452" y1="121.9628" y2="19.4384" gradientTransform="matrix(1 0 0 -1 0 137.937)" gradientUnits="userSpaceOnUse">
      <stop offset="0" stop-color="#b6509e"/>
      <stop offset="1" stop-color="#2ebac6"/>
    </linearGradient>
    <path fill="url(#SVGID_00000050639163786797587950000009184285104329117859_)" d="M68.26 136.29c-4.62 0-9.23-.46-13.76-1.39-8.73-1.79-17.02-5.28-24.41-10.27-10.97-7.41-19.56-17.84-24.73-30.03-1.74-4.13-3.08-8.42-3.98-12.81-1.85-9.08-1.85-18.43 0-27.51 1.79-8.73 5.28-17.02 10.27-24.41C19.07 18.89 29.5 10.3 41.69 5.14c4.13-1.75 8.42-3.08 12.81-3.98 9.08-1.85 18.44-1.85 27.51 0 8.73 1.79 17.02 5.28 24.41 10.27 10.97 7.41 19.56 17.84 24.73 30.03 1.75 4.13 3.08 8.42 3.98 12.81 1.85 9.08 1.85 18.43 0 27.51-1.79 8.73-5.28 17.03-10.27 24.41-7.41 10.97-17.84 19.56-30.03 24.73-4.13 1.75-8.42 3.08-12.81 3.98-4.53.93-9.14 1.39-13.76 1.39zm0-129.2c-4.13 0-8.24.41-12.28 1.24-7.8 1.6-15.2 4.71-21.79 9.17-9.8 6.62-17.47 15.93-22.08 26.81-1.56 3.69-2.75 7.52-3.56 11.44-1.65 8.11-1.65 16.46 0 24.56 1.6 7.8 4.71 15.2 9.17 21.79 6.61 9.8 15.93 17.47 26.81 22.08 3.69 1.56 7.52 2.75 11.44 3.55 8.11 1.65 16.46 1.65 24.57 0 7.8-1.6 15.2-4.71 21.79-9.17 9.8-6.62 17.46-15.93 22.07-26.81 1.56-3.69 2.75-7.52 3.55-11.44 1.65-8.11 1.65-16.46 0-24.56-1.6-7.8-4.71-15.2-9.17-21.79-6.61-9.8-15.93-17.47-26.81-22.08-3.69-1.56-7.52-2.75-11.44-3.55-4.03-.83-8.15-1.24-12.27-1.24z"/>
  </g>
  <defs>
    <circle id="SVGID_00000128459960474444965360000017990244531527068548_" cx="68.26" cy="68.03" r="56.88"/>
  </defs>
  <clipPath id="SVGID_00000183216655846965892620000011999210843519044761_">
    <use xlink:href="#SVGID_00000128459960474444965360000017990244531527068548_" overflow="visible"/>
  </clipPath>
</svg>
