<svg xmlns="http://www.w3.org/2000/svg" width="48" height="48" fill="none" viewBox="0 0 48 48"><g clip-path="url(#clip0_85_109)"><path fill="url(#paint0_linear_85_109)" d="M24 48a23.87 23.87 0 0 1-13.42-4.099 24.07 24.07 0 0 1-8.695-10.559 24 24 0 0 1-1.397-4.504 24.2 24.2 0 0 1 0-9.674 23.9 23.9 0 0 1 3.61-8.582 24.07 24.07 0 0 1 10.56-8.696A24 24 0 0 1 19.163.488c3.191-.65 6.481-.65 9.673 0a23.9 23.9 0 0 1 8.582 3.61 24.07 24.07 0 0 1 8.695 10.56 24 24 0 0 1 1.4 4.505c.65 3.191.65 6.481 0 9.673a23.9 23.9 0 0 1-3.612 8.582 24.07 24.07 0 0 1-10.559 8.695A23.9 23.9 0 0 1 24 48m0-45.429c-1.45 0-2.897.146-4.319.436A21.3 21.3 0 0 0 12.02 6.23a21.5 21.5 0 0 0-7.763 9.428 21.3 21.3 0 0 0-1.248 4.022c-.58 2.85-.58 5.788 0 8.638a21.3 21.3 0 0 0 3.225 7.662 21.5 21.5 0 0 0 9.428 7.764c1.296.547 2.643.966 4.022 1.248 2.85.58 5.787.58 8.637 0a21.3 21.3 0 0 0 7.663-3.225 21.5 21.5 0 0 0 7.76-9.427 21.3 21.3 0 0 0 1.25-4.023c.58-2.85.58-5.787 0-8.637a21.3 21.3 0 0 0-3.226-7.662 21.5 21.5 0 0 0-9.426-7.763 21.3 21.3 0 0 0-4.023-1.248A21.6 21.6 0 0 0 24 2.57"/></g><g clip-path="url(#circleClip)"><svg xmlns="http://www.w3.org/2000/svg" xml:space="preserve" id="Слой_1" width="48" height="48" version="1.1" viewBox="0 0 136.06 136.06"><style>.st1{stroke-linejoin:round}.st1,.st2{fill:none;stroke:#140275;stroke-width:2.5;stroke-miterlimit:10}</style><linearGradient id="SVGID_1_" x1="15.093" x2="124.316" y1="94.808" y2="39.523" gradientUnits="userSpaceOnUse"><stop offset="0" stop-color="#00bfff"/><stop offset=".502" stop-color="#6963ed"/><stop offset=".523" stop-color="#6d62ee"/><stop offset=".846" stop-color="#ab57fa"/><stop offset="1" stop-color="#c353ff"/></linearGradient><circle cx="67.99" cy="68.03" r="66.45" fill="url(#SVGID_1_)"/><circle cx="67.99" cy="68.03" r="61.35" class="st1"/><path d="m67.92 18.28-30.4 19.03v30.72" class="st2"/><path d="m51.38 45.4-13.86-8.09" class="st1"/><path d="m67.92 118.43-30.4-19.38V75.26" class="st2"/><path d="m49.21 91.86-11.69 7.19m30.4-14.27L98.4 68.03 67.92 18.28l-30.4 49.75z" class="st1"/><path d="M67.92 18.28 98.4 37.31v30.72" class="st2"/><path d="m84.54 45.4 13.86-8.09M67.92 92.67 98.4 75.26l-30.48 43.17-30.4-43.17z" class="st1"/><path d="M67.92 118.43 98.4 99.05V75.26" class="st2"/><path d="m86.71 91.86 11.69 7.19" class="st1"/></svg></g><defs><clipPath id="circleClip"><circle cx="24" cy="24" r="20"/></clipPath><clipPath id="clip0_85_109"><path fill="#fff" d="M0 0h48v48H0z"/></clipPath><linearGradient id="paint0_linear_85_109" x1="40.464" x2="9.888" y1="6.48" y2="42.528" gradientUnits="userSpaceOnUse"><stop stop-color="#B6509E"/><stop offset="1" stop-color="#2EBAC6"/></linearGradient></defs></svg>