<svg xmlns="http://www.w3.org/2000/svg" width="48" height="48" fill="none" viewBox="0 0 48 48"><g clip-path="url(#a)"><path fill="url(#b)" d="M24 48a23.87 23.87 0 0 1-13.42-4.099 24.07 24.07 0 0 1-8.695-10.559 24 24 0 0 1-1.397-4.504 24.2 24.2 0 0 1 0-9.674 23.9 23.9 0 0 1 3.61-8.582 24.07 24.07 0 0 1 10.56-8.696A24 24 0 0 1 19.163.488c3.191-.65 6.481-.65 9.673 0a23.9 23.9 0 0 1 8.582 3.61 24.07 24.07 0 0 1 8.695 10.56 24 24 0 0 1 1.4 4.505c.65 3.191.65 6.481 0 9.673a23.9 23.9 0 0 1-3.612 8.582 24.07 24.07 0 0 1-10.559 8.695A23.9 23.9 0 0 1 24 48m0-45.429c-1.45 0-2.897.146-4.319.436A21.3 21.3 0 0 0 12.02 6.23a21.5 21.5 0 0 0-7.763 9.428 21.3 21.3 0 0 0-1.248 4.022c-.58 2.85-.58 5.788 0 8.638a21.3 21.3 0 0 0 3.225 7.662 21.5 21.5 0 0 0 9.428 7.764c1.296.547 2.643.966 4.022 1.248 2.85.58 5.787.58 8.637 0a21.3 21.3 0 0 0 7.663-3.225 21.5 21.5 0 0 0 7.76-9.427 21.3 21.3 0 0 0 1.25-4.023c.58-2.85.58-5.787 0-8.637a21.3 21.3 0 0 0-3.226-7.662 21.5 21.5 0 0 0-9.426-7.763 21.3 21.3 0 0 0-4.023-1.248A21.6 21.6 0 0 0 24 2.57"/></g><g clip-path="url(#c)"><svg xmlns="http://www.w3.org/2000/svg" width="48" height="48" viewBox="0 0 125 125"><path fill="#fff" d="M62.5 123.728c33.815 0 61.227-27.412 61.227-61.227S96.315 1.273 62.5 1.273 1.272 28.686 1.272 62.501s27.413 61.227 61.228 61.227"/><path fill="url(#d)" d="M80.208 75.712 97.53 65.71a2.98 2.98 0 0 0 1.485-2.575V43.132c0-1.057-.57-2.045-1.485-2.575L80.208 30.555a2.98 2.98 0 0 0-2.973 0L59.913 40.557a2.98 2.98 0 0 0-1.485 2.575V78.88L46.28 85.892 34.133 78.88V64.852L46.28 57.84l8.013 4.625v-9.41l-6.528-3.768a2.98 2.98 0 0 0-2.972 0L27.47 59.29a2.98 2.98 0 0 0-1.485 2.575v20.002c0 1.058.57 2.045 1.485 2.575l17.323 10.003a2.99 2.99 0 0 0 2.972 0l17.323-10a2.98 2.98 0 0 0 1.485-2.575V46.122l.22-.125L78.72 39.11l12.148 7.012V60.15L78.72 67.162l-8-4.62v9.41l6.515 3.763a2.99 2.99 0 0 0 2.973 0z"/><defs><linearGradient id="d" x1="32.19" x2="94.96" y1="84.6" y2="38.83" gradientUnits="userSpaceOnUse"><stop stop-color="#A726C1"/><stop offset=".88" stop-color="#803BDF"/><stop offset="1" stop-color="#7B3FE4"/></linearGradient></defs></svg></g><defs><clipPath id="c"><circle cx="24" cy="24" r="20"/></clipPath><clipPath id="a"><path fill="#fff" d="M0 0h48v48H0z"/></clipPath><linearGradient id="b" x1="40.464" x2="9.888" y1="6.48" y2="42.528" gradientUnits="userSpaceOnUse"><stop stop-color="#B6509E"/><stop offset="1" stop-color="#2EBAC6"/></linearGradient></defs></svg>