<svg width="48" height="48" viewBox="0 0 48 48"><defs><linearGradient id="a" x1="215.808" x2="52.736" y1="34.56" y2="226.816" gradientUnits="userSpaceOnUse"><stop offset="0" stop-color="#b6509e"/><stop offset="1" stop-color="#2ebac6"/></linearGradient></defs><path fill="url(#a)" d="M128 256a129 129 0 0 1-25.8-2.6 127.3 127.3 0 0 1-45.77-19.261 128.37 128.37 0 0 1-46.375-56.315A127.4 127.4 0 0 1 2.6 153.8a129.25 129.25 0 0 1 0-51.593 127.3 127.3 0 0 1 19.26-45.77 128.37 128.37 0 0 1 56.317-46.378A127.3 127.3 0 0 1 102.2 2.6a129.2 129.2 0 0 1 51.593 0 127.3 127.3 0 0 1 45.77 19.26 128.37 128.37 0 0 1 46.375 56.316A127.3 127.3 0 0 1 253.4 102.2a129.25 129.25 0 0 1 0 51.593 127.3 127.3 0 0 1-19.26 45.77 128.4 128.4 0 0 1-56.316 46.375A127.4 127.4 0 0 1 153.8 253.4 129 129 0 0 1 128 256m0-242.287a115 115 0 0 0-23.033 2.322A113.7 113.7 0 0 0 64.1 33.232a114.6 114.6 0 0 0-41.4 50.283 113.7 113.7 0 0 0-6.659 21.452 115.4 115.4 0 0 0 0 46.065 113.7 113.7 0 0 0 17.2 40.866 114.63 114.63 0 0 0 50.282 41.407 113.8 113.8 0 0 0 21.453 6.658 115.4 115.4 0 0 0 46.065 0 113.6 113.6 0 0 0 40.866-17.2 114.6 114.6 0 0 0 41.393-50.278 113.7 113.7 0 0 0 6.659-21.453 115.4 115.4 0 0 0 0-46.065 113.7 113.7 0 0 0-17.2-40.865A114.6 114.6 0 0 0 172.485 22.7a113.7 113.7 0 0 0-21.453-6.659A115 115 0 0 0 128 13.714Z" style="fill:url(#a)" transform="matrix(.1875 0 0 .1875 0 0)"/><svg xmlns="http://www.w3.org/2000/svg" width="30" height="30" x="9" y="9" fill="none" viewBox="0 0 125 125"><path fill="#fff" d="M62.5 123.728c33.815 0 61.227-27.412 61.227-61.227S96.315 1.273 62.5 1.273 1.272 28.686 1.272 62.501s27.413 61.227 61.228 61.227"/><path fill="url(#b)" d="M80.208 75.712 97.53 65.71a2.98 2.98 0 0 0 1.485-2.575V43.132c0-1.057-.57-2.045-1.485-2.575L80.208 30.555a2.98 2.98 0 0 0-2.973 0L59.913 40.557a2.98 2.98 0 0 0-1.485 2.575V78.88L46.28 85.892 34.133 78.88V64.852L46.28 57.84l8.013 4.625v-9.41l-6.528-3.768a2.98 2.98 0 0 0-2.972 0L27.47 59.29a2.98 2.98 0 0 0-1.485 2.575v20.002c0 1.058.57 2.045 1.485 2.575l17.323 10.003a2.99 2.99 0 0 0 2.972 0l17.323-10a2.98 2.98 0 0 0 1.485-2.575V46.122l.22-.125L78.72 39.11l12.148 7.012V60.15L78.72 67.162l-8-4.62v9.41l6.515 3.763a2.99 2.99 0 0 0 2.973 0z"/><defs><linearGradient id="b" x1="32.19" x2="94.96" y1="84.6" y2="38.83" gradientUnits="userSpaceOnUse"><stop stop-color="#A726C1"/><stop offset=".88" stop-color="#803BDF"/><stop offset="1" stop-color="#7B3FE4"/></linearGradient></defs></svg></svg>