<svg xmlns="http://www.w3.org/2000/svg" width="48" height="48" fill="none" viewBox="0 0 48 48"><g clip-path="url(#a)"><path fill="url(#b)" d="M24 48a23.87 23.87 0 0 1-13.42-4.099 24.07 24.07 0 0 1-8.695-10.559 24 24 0 0 1-1.397-4.504 24.2 24.2 0 0 1 0-9.674 23.9 23.9 0 0 1 3.61-8.582 24.07 24.07 0 0 1 10.56-8.696A24 24 0 0 1 19.163.488c3.191-.65 6.481-.65 9.673 0a23.9 23.9 0 0 1 8.582 3.61 24.07 24.07 0 0 1 8.695 10.56 24 24 0 0 1 1.4 4.505c.65 3.191.65 6.481 0 9.673a23.9 23.9 0 0 1-3.612 8.582 24.07 24.07 0 0 1-10.559 8.695A23.9 23.9 0 0 1 24 48m0-45.429c-1.45 0-2.897.146-4.319.436A21.3 21.3 0 0 0 12.02 6.23a21.5 21.5 0 0 0-7.763 9.428 21.3 21.3 0 0 0-1.248 4.022c-.58 2.85-.58 5.788 0 8.638a21.3 21.3 0 0 0 3.225 7.662 21.5 21.5 0 0 0 9.428 7.764c1.296.547 2.643.966 4.022 1.248 2.85.58 5.787.58 8.637 0a21.3 21.3 0 0 0 7.663-3.225 21.5 21.5 0 0 0 7.76-9.427 21.3 21.3 0 0 0 1.25-4.023c.58-2.85.58-5.787 0-8.637a21.3 21.3 0 0 0-3.226-7.662 21.5 21.5 0 0 0-9.426-7.763 21.3 21.3 0 0 0-4.023-1.248A21.6 21.6 0 0 0 24 2.57"/></g><g clip-path="url(#c)"><svg xmlns="http://www.w3.org/2000/svg" width="48" height="48" viewBox="0 0 256 256"><path fill="#fff" d="M128 256c70.692 0 128-57.308 128-128S198.692 0 128 0 0 57.307 0 128c0 70.692 57.307 128 128 128"/><path fill="#000" d="M91.036 221.498c47.857 0 47.857-.713 55.972-3.121 10.6-3.148-29.94-31.213-55.972-31.213s-47.133 7.685-47.133 17.165 21.1 17.169 47.133 17.169"/><path fill="#000" d="m199.706 75.513 2.2 2.372-1.924 2.6c-62.415 84.39-98.37 122.6-113.625 117.474-9.292-3.121-18.61-12.509-27.929-26.141-3.276-4.791-6.35-9.837-9.149-14.858-1.863-3.343-3.44-6.393-4.258-8.11a20.2 20.2 0 0 1-1.835-5.313l-.042-.213c-.146-.753-.2-.99-.306-1.4a85.088 85.088 0 0 1 123.685-96.148l.324.2q15.436 10.75 32.859 29.537m-37.159-23.02a77.3 77.3 0 0 0-112.166 87.43c.17.636.245.995.424 1.917l.037.189a12.6 12.6 0 0 0 1.223 3.466c.747 1.567 2.248 4.469 4.031 7.67 2.69 4.826 5.643 9.672 8.774 14.252 8.42 12.316 16.77 20.727 23.972 23.147 9.607 3.227 45.774-35.058 102.931-112.1q-15.566-16.432-29.226-25.971"/><path fill="#EC1C79" d="M162.546 52.493a77.3 77.3 0 0 0-112.165 87.43c.169.636.245.995.424 1.917l.037.189a12.6 12.6 0 0 0 1.223 3.464c.747 1.567 2.248 4.469 4.03 7.67 2.69 4.826 5.644 9.672 8.775 14.252 8.419 12.316 16.769 20.727 23.972 23.147 9.607 3.227 45.774-35.058 102.931-112.1q-15.566-16.432-29.227-25.969"/><path fill="#000" d="M140.663 220.718a85.058 85.058 0 0 1-83.422-101.65 85.056 85.056 0 1 1 83.422 101.65m0-7.8a77.25 77.25 0 0 0 42.918-13.02 77.248 77.248 0 0 0 11.707-118.857A77.252 77.252 0 0 0 69.29 165.226a77.26 77.26 0 0 0 41.81 41.809 77.3 77.3 0 0 0 29.563 5.88z"/><path fill="#fff" d="M140.662 212.915a77.26 77.26 0 0 0 71.372-47.689 77.25 77.25 0 0 0-16.746-84.188A77.254 77.254 0 0 0 76.43 92.743a77.251 77.251 0 0 0 64.232 120.172"/><circle cx="140.41" cy="135.41" r="77" fill="#fff"/><path fill="url(#d)" d="M166.81 89.21c-10.904 0-19.8 8.923-20.087 19.86v22.163c-2.009 0-4.017.288-6.313.288s-4.304 0-6.313.288V109.07c0-10.937-9.183-19.86-20.374-19.572-10.617 0-19.226 8.922-19.513 19.572v52.961c.287 10.937 9.183 19.86 20.374 19.572 10.904-.287 19.513-8.922 19.513-19.572v-22.163c2.009 0 4.017-.288 6.313-.288s4.304 0 6.313-.287v22.45c.287 10.938 9.183 19.86 20.374 19.573 10.904-.288 19.513-8.923 19.513-19.573V109.07c0-10.937-8.896-19.86-19.8-19.86m-52.513 8.06c6.6 0 11.765 5.18 11.765 11.8v23.314c-5.739.864-11.478 2.591-16.93 4.894-2.296 1.151-4.592 2.302-6.6 4.029V109.07c0-6.332 5.165-11.8 11.765-11.8m11.765 64.761c0 6.62-5.165 11.801-11.765 11.801s-11.765-5.181-11.765-11.801v-5.181c0-4.605 3.73-9.211 10.043-11.801 4.305-2.015 8.896-3.166 13.774-4.03zm40.748 11.801c-6.6 0-11.765-5.181-11.765-11.801v-23.314c5.739-.864 11.478-2.591 16.93-4.893 2.295-1.152 4.591-2.303 6.6-4.03v32.237c0 6.62-5.452 11.801-11.765 11.801m1.721-47.492c-4.304 2.015-8.895 3.166-13.773 4.03v-21.3c0-6.62 5.165-11.8 11.765-11.8s11.765 5.18 11.765 11.8v5.181c.287 4.893-3.444 9.211-9.757 12.089"/><path fill="#000" d="M45.07 111.479a4.37 4.37 0 0 1 3.904-7.817l12.485 6.243a4.38 4.38 0 0 1 2.228 2.525 4.37 4.37 0 0 1-6.136 5.292zm-1.438 20.701a4.38 4.38 0 0 1-2.311-2.454 4.369 4.369 0 0 1 5.973-5.481l12.485 5.762a4.38 4.38 0 0 1 2.312 2.454 4.369 4.369 0 0 1-5.974 5.481z"/><defs><linearGradient id="d" x1="140.41" x2="76.511" y1="89.21" y2="152.915" gradientUnits="userSpaceOnUse"><stop stop-color="#00E8A2"/><stop offset="1" stop-color="#00ADE8"/></linearGradient></defs></svg></g><defs><clipPath id="c"><circle cx="24" cy="24" r="20"/></clipPath><clipPath id="a"><path fill="#fff" d="M0 0h48v48H0z"/></clipPath><linearGradient id="b" x1="40.464" x2="9.888" y1="6.48" y2="42.528" gradientUnits="userSpaceOnUse"><stop stop-color="#B6509E"/><stop offset="1" stop-color="#2EBAC6"/></linearGradient></defs></svg>