<svg width="48" height="48" viewBox="0 0 48 48"><defs><linearGradient id="a" x1="215.808" x2="52.736" y1="34.56" y2="226.816" gradientUnits="userSpaceOnUse"><stop offset="0"/><stop offset="1"/></linearGradient></defs><path fill="url(#a)" d="M128 256a129 129 0 0 1-25.8-2.6 127.3 127.3 0 0 1-45.77-19.261 128.37 128.37 0 0 1-46.375-56.315A127.4 127.4 0 0 1 2.6 153.8a129.25 129.25 0 0 1 0-51.593 127.3 127.3 0 0 1 19.26-45.77 128.37 128.37 0 0 1 56.317-46.378A127.3 127.3 0 0 1 102.2 2.6a129.2 129.2 0 0 1 51.593 0 127.3 127.3 0 0 1 45.77 19.26 128.37 128.37 0 0 1 46.375 56.316A127.3 127.3 0 0 1 253.4 102.2a129.25 129.25 0 0 1 0 51.593 127.3 127.3 0 0 1-19.26 45.77 128.4 128.4 0 0 1-56.316 46.375A127.4 127.4 0 0 1 153.8 253.4 129 129 0 0 1 128 256m0-242.287a115 115 0 0 0-23.033 2.322A113.7 113.7 0 0 0 64.1 33.232a114.6 114.6 0 0 0-41.4 50.283 113.7 113.7 0 0 0-6.659 21.452 115.4 115.4 0 0 0 0 46.065 113.7 113.7 0 0 0 17.2 40.866 114.63 114.63 0 0 0 50.282 41.407 113.8 113.8 0 0 0 21.453 6.658 115.4 115.4 0 0 0 46.065 0 113.6 113.6 0 0 0 40.866-17.2 114.6 114.6 0 0 0 41.393-50.278 113.7 113.7 0 0 0 6.659-21.453 115.4 115.4 0 0 0 0-46.065 113.7 113.7 0 0 0-17.2-40.865A114.6 114.6 0 0 0 172.485 22.7a113.7 113.7 0 0 0-21.453-6.659A115 115 0 0 0 128 13.714Z" style="fill:url(#a)" transform="matrix(.1875 0 0 .1875 0 0)"/><svg xmlns="http://www.w3.org/2000/svg" width="30" height="30" x="9" y="9" fill="none" viewBox="0 0 512 512"><rect width="512" height="512" fill="#00A3FF" rx="256"/><path fill="#fff" d="m361.012 237.812 2.866 4.397c32.326 49.589 25.106 114.533-17.358 156.139-24.981 24.478-57.722 36.718-90.464 36.721z" opacity=".6"/><path fill="#fff" d="M256.044 297.764 361 237.812 256.044 435.069z" opacity=".2"/><path fill="#fff" d="m150.988 237.812-2.866 4.397c-32.326 49.589-25.106 114.533 17.358 156.139 24.981 24.478 57.722 36.718 90.464 36.721z"/><path fill="#fff" d="m255.914 297.764-104.956-59.952 104.956 197.257z" opacity=".6"/><path fill="#fff" d="M256.083 163.833v103.4l90.408-51.667z" opacity=".2"/><path fill="#fff" d="m256.056 163.833-90.473 51.732 90.473 51.668z" opacity=".6"/><path fill="#fff" d="m256.056 76.875-90.473 138.724 90.473-51.877z"/><path fill="#fff" d="m256.083 163.706 90.477 51.879-90.477-138.793z" opacity=".6"/></svg></svg>