<svg xmlns="http://www.w3.org/2000/svg" width="48" height="48" viewBox="0 0 48 48"><defs><linearGradient id="a" x1="215.808" x2="52.736" y1="34.56" y2="226.816" gradientUnits="userSpaceOnUse"><stop offset="0" stop-color="#b6509e"/><stop offset="1" stop-color="#2ebac6"/></linearGradient></defs><path fill="url(#a)" d="M128 256a129 129 0 0 1-25.8-2.6 127.3 127.3 0 0 1-45.77-19.261 128.37 128.37 0 0 1-46.375-56.315A127.4 127.4 0 0 1 2.6 153.8a129.25 129.25 0 0 1 0-51.593 127.3 127.3 0 0 1 19.26-45.77 128.37 128.37 0 0 1 56.317-46.378A127.3 127.3 0 0 1 102.2 2.6a129.2 129.2 0 0 1 51.593 0 127.3 127.3 0 0 1 45.77 19.26 128.37 128.37 0 0 1 46.375 56.316A127.3 127.3 0 0 1 253.4 102.2a129.25 129.25 0 0 1 0 51.593 127.3 127.3 0 0 1-19.26 45.77 128.4 128.4 0 0 1-56.316 46.375A127.4 127.4 0 0 1 153.8 253.4 129 129 0 0 1 128 256m0-242.287a115 115 0 0 0-23.033 2.322A113.7 113.7 0 0 0 64.1 33.232a114.6 114.6 0 0 0-41.4 50.283 113.7 113.7 0 0 0-6.659 21.452 115.4 115.4 0 0 0 0 46.065 113.7 113.7 0 0 0 17.2 40.866 114.63 114.63 0 0 0 50.282 41.407 113.8 113.8 0 0 0 21.453 6.658 115.4 115.4 0 0 0 46.065 0 113.6 113.6 0 0 0 40.866-17.2 114.6 114.6 0 0 0 41.393-50.278 113.7 113.7 0 0 0 6.659-21.453 115.4 115.4 0 0 0 0-46.065 113.7 113.7 0 0 0-17.2-40.865A114.6 114.6 0 0 0 172.485 22.7a113.7 113.7 0 0 0-21.453-6.659A115 115 0 0 0 128 13.714Z" style="fill:url(#a)" transform="matrix(.17969 0 0 .17969 1 1)"/><svg xmlns="http://www.w3.org/2000/svg" width="40" height="40" x="4" y="4" style="shape-rendering:geometricPrecision;text-rendering:geometricPrecision;image-rendering:optimizeQuality;fill-rule:evenodd;clip-rule:evenodd"><path fill="#003370" d="M42.5-.5h288q34 9 43 43v288q-9 34-43 43h-288q-34-9-43-43v-288q9-34 43-43" style="opacity:1"/><path fill="#0ae13a" d="m187.5 143.5 25 26q10.82 19.239-2.5 37a759 759 0 0 1-23.5 23 3855 3855 0 0 1-52 52.5q-18.852 13.772-39 2-19.435-17.349-7.5-40.5a1800 1800 0 0 1 50-51q4.18-5.2 1-11l-49-49Q74.737 108.359 95.5 89q20.19-11.82 39 2a3924 3924 0 0 0 53 52.5m89-4q-24.742 11.303-41.5-10-8.53-16.036-.5-32 18.233-23.044 44-8.5 20.241 18.483 6.5 42.5a94 94 0 0 1-8.5 8" style="opacity:1"/><path fill="#04785b" d="M234.5 97.5q-8.03 15.964.5 32 16.758 21.303 41.5 10a2457 2457 0 0 1-41.5 42q-2.727 4.374-.5 9l-22-21-25-26q23.46-22.959 47-46" style="opacity:1"/><path fill="#0db40b" d="m212.5 169.5 22 21a3637 3637 0 0 0 50.5 51q13.601 23.88-6.5 42.5-17.167 10.403-35 1a1487 1487 0 0 0-57-55.5 759 759 0 0 0 23.5-23q13.32-17.761 2.5-37" style="opacity:1"/></svg></svg>