<svg xmlns="http://www.w3.org/2000/svg" width="48" height="48" fill="none" viewBox="0 0 48 48"><g clip-path="url(#a)"><path fill="url(#b)" d="M24 48a23.87 23.87 0 0 1-13.42-4.099 24.07 24.07 0 0 1-8.695-10.559 24 24 0 0 1-1.397-4.504 24.2 24.2 0 0 1 0-9.674 23.9 23.9 0 0 1 3.61-8.582 24.07 24.07 0 0 1 10.56-8.696A24 24 0 0 1 19.163.488c3.191-.65 6.481-.65 9.673 0a23.9 23.9 0 0 1 8.582 3.61 24.07 24.07 0 0 1 8.695 10.56 24 24 0 0 1 1.4 4.505c.65 3.191.65 6.481 0 9.673a23.9 23.9 0 0 1-3.612 8.582 24.07 24.07 0 0 1-10.559 8.695A23.9 23.9 0 0 1 24 48m0-45.429c-1.45 0-2.897.146-4.319.436A21.3 21.3 0 0 0 12.02 6.23a21.5 21.5 0 0 0-7.763 9.428 21.3 21.3 0 0 0-1.248 4.022c-.58 2.85-.58 5.788 0 8.638a21.3 21.3 0 0 0 3.225 7.662 21.5 21.5 0 0 0 9.428 7.764c1.296.547 2.643.966 4.022 1.248 2.85.58 5.787.58 8.637 0a21.3 21.3 0 0 0 7.663-3.225 21.5 21.5 0 0 0 7.76-9.427 21.3 21.3 0 0 0 1.25-4.023c.58-2.85.58-5.787 0-8.637a21.3 21.3 0 0 0-3.226-7.662 21.5 21.5 0 0 0-9.426-7.763 21.3 21.3 0 0 0-4.023-1.248A21.6 21.6 0 0 0 24 2.57"/></g><g clip-path="url(#c)"><svg xmlns="http://www.w3.org/2000/svg" width="48" height="48" viewBox="0 0 48 48"><path fill="#09E33A" d="M15.578 7.904c.423.332.792.704 1.16 1.095q.308.316.644.598c.707.617 1.358 1.294 2.019 1.96l.438.44 2.316 2.327 2.292 2.304a21 21 0 0 0 1.541-1.439l.474-.482.25-.256q.664-.675 1.33-1.349.845-.855 1.685-1.712.681-.697 1.368-1.389.26-.262.517-.527c1.201-1.234 2.362-2.39 4.181-2.434 1.538-.013 2.676.351 3.82 1.419A4.98 4.98 0 0 1 41 11.769c-.055 2.215-1.37 3.515-2.852 4.972l-.516.515q-.675.672-1.352 1.341-.959.949-1.913 1.9l-1.018 1.01-.461.458-.215.211-.194.193-.17.168c-.263.287-.26.534-.27.913l-.012.3c.103.71.697 1.205 1.187 1.686l.216.214.463.46q.368.363.735.728 1.042 1.038 2.088 2.072.64.634 1.279 1.27l.486.481c1.626 1.601 1.626 1.601 2.062 2.531l.106.215c.517 1.102.384 2.49 0 3.608-.508 1.013-1.209 1.688-2.118 2.336l-.245.18c-1.305.639-2.631.565-3.99.139-1.56-.603-2.838-2.3-3.993-3.462l-.5-.503-2.64-2.65-2.61-2.623c-.317.142-.537.3-.78.548l-.209.209-.224.23-.239.241-.513.52-.815.826q-1.16 1.17-2.317 2.345-.709.72-1.42 1.434l-.537.547-.757.765-.22.227c-.934.932-2.03 1.59-3.364 1.608l-.286-.004-.299-.002c-1.287-.033-2.193-.466-3.163-1.318a5.6 5.6 0 0 1-.635-.85l-.124-.192c-.585-.955-.78-2.251-.568-3.355.4-1.493 1.298-2.44 2.373-3.49q.38-.373.757-.748.802-.795 1.606-1.585.934-.92 1.864-1.844l.746-.733.456-.452.21-.203c.488-.488.879-1.013.88-1.74-.086-.78-.644-1.26-1.179-1.786l-.213-.213-.456-.454-.72-.717-1.529-1.521-1.774-1.768-.712-.707-.433-.432-.202-.2a16 16 0 0 1-.452-.477v-.212l-.318-.106c-.8-.921-1.01-2.26-.94-3.445.178-1.413.84-2.565 1.947-3.46 1.7-1.178 3.883-1.162 5.584-.014"/><path fill="#0DB50A" d="M28.366 20.663c.496.415.965.847 1.42 1.308l.185.186.578.583.39.392.86.866q.711.715 1.427 1.425l2.18 2.17q.657.657 1.316 1.31.64.636 1.277 1.273l.485.482c1.622 1.604 1.622 1.604 2.06 2.534l.105.215c.517 1.102.384 2.49 0 3.608-.508 1.013-1.209 1.688-2.118 2.336l-.245.18c-1.305.639-2.631.565-3.99.139-1.568-.606-2.855-2.318-4.016-3.486a1982 1982 0 0 1-3.184-3.198l-2.649-2.66c.664-.787.664-.787.99-1.1q.09-.09.186-.181l.194-.187.42-.411q.325-.32.652-.634c.863-.83 1.574-1.552 2.006-2.69l.118-.272c.153-.424.134-.84.133-1.288v-.288c-.012-.695-.106-1.262-.463-1.869l-.185-.319-.133-.212z"/><path fill="#02795B" d="M38.875 7.834c1.066.808 1.783 1.835 2.062 3.158.194 1.435-.16 2.779-1.03 3.937-.547.64-1.159 1.222-1.759 1.812l-.516.515q-.675.672-1.352 1.341-.959.949-1.913 1.9l-1.018 1.01-.461.458-.215.211-.194.193-.17.168c-.3.327-.248.63-.244 1.059l.003.383.004.294a21 21 0 0 1-1.448-1.333l-.2-.201-.648-.652-.453-.454-1.185-1.191-1.212-1.217-2.373-2.385c.143-.32.304-.544.55-.793l.21-.215.23-.233.244-.248.8-.81.277-.28 1.305-1.315q.825-.83 1.643-1.663.576-.585 1.156-1.166.276-.278.55-.558c2.043-2.084 4.565-3.549 7.357-1.725"/><path fill="#0AE23A" d="M38.875 7.834c1.066.808 1.783 1.835 2.062 3.158.218 1.617-.287 2.948-1.25 4.23-.811.927-1.903 1.353-3.113 1.459-.891.042-1.688-.072-2.49-.478l-.277-.136c-1.242-.678-1.944-1.768-2.386-3.094a4.9 4.9 0 0 1 .333-3.247c.218-.312.218-.312.424-.531l.139-.252c.592-.924 1.563-1.52 2.61-1.826a5.23 5.23 0 0 1 3.948.717"/></svg></g><defs><clipPath id="c"><circle cx="24" cy="24" r="20"/></clipPath><clipPath id="a"><path fill="#fff" d="M0 0h48v48H0z"/></clipPath><linearGradient id="b" x1="40.464" x2="9.888" y1="6.48" y2="42.528" gradientUnits="userSpaceOnUse"><stop stop-color="#B6509E"/><stop offset="1" stop-color="#2EBAC6"/></linearGradient></defs></svg>