<svg xmlns="http://www.w3.org/2000/svg" width="48" height="48" viewBox="0 0 48 48"><defs><linearGradient id="a" x1="215.808" x2="52.736" y1="34.56" y2="226.816" gradientUnits="userSpaceOnUse"><stop offset="0" stop-color="#b6509e"/><stop offset="1" stop-color="#2ebac6"/></linearGradient></defs><path fill="url(#a)" d="M128 256a129 129 0 0 1-25.8-2.6 127.3 127.3 0 0 1-45.77-19.261 128.37 128.37 0 0 1-46.375-56.315A127.4 127.4 0 0 1 2.6 153.8a129.25 129.25 0 0 1 0-51.593 127.3 127.3 0 0 1 19.26-45.77 128.37 128.37 0 0 1 56.317-46.378A127.3 127.3 0 0 1 102.2 2.6a129.2 129.2 0 0 1 51.593 0 127.3 127.3 0 0 1 45.77 19.26 128.37 128.37 0 0 1 46.375 56.316A127.3 127.3 0 0 1 253.4 102.2a129.25 129.25 0 0 1 0 51.593 127.3 127.3 0 0 1-19.26 45.77 128.4 128.4 0 0 1-56.316 46.375A127.4 127.4 0 0 1 153.8 253.4 129 129 0 0 1 128 256m0-242.287a115 115 0 0 0-23.033 2.322A113.7 113.7 0 0 0 64.1 33.232a114.6 114.6 0 0 0-41.4 50.283 113.7 113.7 0 0 0-6.659 21.452 115.4 115.4 0 0 0 0 46.065 113.7 113.7 0 0 0 17.2 40.866 114.63 114.63 0 0 0 50.282 41.407 113.8 113.8 0 0 0 21.453 6.658 115.4 115.4 0 0 0 46.065 0 113.6 113.6 0 0 0 40.866-17.2 114.6 114.6 0 0 0 41.393-50.278 113.7 113.7 0 0 0 6.659-21.453 115.4 115.4 0 0 0 0-46.065 113.7 113.7 0 0 0-17.2-40.865A114.6 114.6 0 0 0 172.485 22.7a113.7 113.7 0 0 0-21.453-6.659A115 115 0 0 0 128 13.714Z" style="fill:url(#a)" transform="matrix(.17969 0 0 .17969 1 1)"/><svg xmlns="http://www.w3.org/2000/svg" width="40" height="40" x="4" y="4"><path fill="#FEFEFE" d="M0 0h553v553H0z"/><path fill="#09E33A" d="M197.238 133.844c4.003 3.125 7.481 6.632 10.961 10.312a86 86 0 0 0 6.08 5.631c6.675 5.814 12.821 12.19 19.065 18.46l4.136 4.14q5.407 5.414 10.81 10.834 5.529 5.543 11.062 11.082Q270.18 205.148 281 216c5.127-4.28 9.88-8.775 14.55-13.547l4.471-4.54 2.366-2.408c4.176-4.246 8.37-8.475 12.56-12.706a5058 5058 0 0 0 15.91-16.13q6.439-6.558 12.921-13.073a884 884 0 0 0 4.88-4.964c11.342-11.621 22.305-22.506 39.485-22.925 14.521-.122 25.265 3.305 36.08 13.36 8.177 8.544 12.686 19.4 13.09 31.183-.518 20.854-12.937 33.09-26.93 46.82q-2.439 2.421-4.873 4.845a4172 4172 0 0 1-12.772 12.632c-6.034 5.953-12.047 11.925-18.062 17.896a4378 4378 0 0 1-9.612 9.508l-4.36 4.311-2.025 1.99-1.834 1.817-1.601 1.578c-2.49 2.708-2.464 5.032-2.557 8.603l-.113 2.828c.975 6.688 6.585 11.343 11.21 15.87l2.042 2.023q2.185 2.164 4.377 4.321 3.476 3.425 6.937 6.866a8910 8910 0 0 0 19.72 19.51q6.048 5.97 12.074 11.964 2.289 2.271 4.59 4.53C428.88 363.241 428.88 363.241 433 372l.999 2.018c4.878 10.382 3.624 23.458.001 33.982-4.804 9.537-11.415 15.893-20 22l-2.313 1.688c-12.33 6.021-24.85 5.329-37.687 1.312-14.721-5.673-26.796-21.66-37.703-32.605l-4.724-4.729q-6.158-6.165-12.31-12.334-6.303-6.317-12.61-12.63Q294.323 358.354 282 346c-2.998 1.345-5.07 2.828-7.375 5.161l-1.962 1.971-2.119 2.16-2.258 2.277a2670 2670 0 0 0-4.849 4.904q-3.841 3.891-7.696 7.769a11215 11215 0 0 0-21.881 22.09q-6.687 6.765-13.397 13.506-2.547 2.565-5.083 5.143a1597 1597 0 0 1-7.148 7.21l-2.082 2.135c-8.81 8.776-19.164 14.974-31.762 15.143l-2.7-.031-2.818-.028c-12.156-.306-20.715-4.381-29.87-12.41-2.305-2.511-4.2-5.11-6-8l-1.176-1.813c-5.519-8.99-7.355-21.197-5.363-31.593 3.782-14.062 12.263-22.979 22.416-32.877a1218 1218 0 0 0 7.149-7.04c5.04-4.99 10.1-9.96 15.161-14.927a5980 5980 0 0 0 17.605-17.357c2.34-2.31 4.692-4.608 7.044-6.905q2.156-2.128 4.31-4.259l1.978-1.911c4.613-4.6 8.299-9.541 8.314-16.38-.817-7.351-6.088-11.867-11.134-16.83l-2.012-2.002q-2.151-2.14-4.308-4.273c-2.274-2.247-4.54-4.501-6.806-6.757a10827 10827 0 0 0-14.428-14.326q-8.387-8.314-16.757-16.646a3411 3411 0 0 0-6.728-6.664l-4.086-4.066-1.908-1.876c-1.462-1.462-2.873-2.975-4.271-4.498v-2l-3-1c-7.55-8.671-9.545-21.274-8.875-32.438 1.678-13.313 7.934-24.154 18.383-32.585 16.062-11.1 36.674-10.945 52.73-.133"/><path fill="#0DB50A" d="M318 254c4.685 3.912 9.12 7.98 13.414 12.316l1.75 1.755q2.733 2.743 5.461 5.491l3.68 3.694q4.061 4.076 8.116 8.158a2656 2656 0 0 0 13.477 13.42 12345 12345 0 0 1 20.582 20.44q6.209 6.178 12.435 12.339 6.041 5.978 12.058 11.98 2.284 2.275 4.582 4.539C428.87 363.238 428.87 363.238 433 372l.999 2.018c4.878 10.383 3.624 23.458.001 33.982-4.804 9.537-11.415 15.893-20 22l-2.313 1.688c-12.33 6.021-24.85 5.329-37.687 1.312-14.803-5.704-26.958-21.823-37.922-32.824a20058 20058 0 0 1-17.279-17.308 25749 25749 0 0 0-12.791-12.811Q293.5 357.532 281 345c6.263-7.406 6.263-7.406 9.34-10.358.58-.562 1.161-1.123 1.76-1.701l1.837-1.765 3.961-3.87a958 958 0 0 1 6.162-5.968c8.142-7.82 14.858-14.619 18.94-25.338l1.116-2.553c1.445-3.999 1.266-7.92 1.259-12.135l-.003-2.71c-.117-6.55-1-11.885-4.372-17.602l-1.75-3-1.25-2z"/><path fill="#02795B" d="M417.25 133.188c10.058 7.604 16.835 17.275 19.469 29.734 1.83 13.521-1.518 26.172-9.719 37.078-5.178 6.025-10.951 11.511-16.617 17.07q-2.439 2.421-4.873 4.845a4172 4172 0 0 1-12.772 12.632c-6.034 5.953-12.047 11.925-18.062 17.896a4378 4378 0 0 1-9.612 9.508l-4.36 4.311-2.025 1.99-1.834 1.817-1.601 1.578c-2.833 3.081-2.346 5.944-2.307 9.978l.028 3.602L353 288a198 198 0 0 1-13.67-12.556l-1.894-1.894q-3.062-3.066-6.12-6.136l-4.274-4.279q-5.599-5.604-11.19-11.215-5.72-5.734-11.444-11.463A45637 45637 0 0 1 282 218c1.353-3.012 2.868-5.126 5.183-7.471l1.987-2.026 2.179-2.19 2.297-2.332a2859 2859 0 0 1 7.557-7.626l2.616-2.636q6.155-6.204 12.325-12.394c5.19-5.205 10.358-10.43 15.518-15.665a2832 2832 0 0 1 10.913-10.977 1071 1071 0 0 0 5.19-5.25c19.302-19.634 43.113-33.427 69.485-16.245"/><path fill="#0AE23A" d="M417.25 133.188c10.058 7.604 16.835 17.275 19.469 29.734 2.061 15.23-2.709 27.766-11.801 39.844-7.666 8.724-17.975 12.735-29.406 13.734-8.412.398-15.932-.674-23.512-4.5l-2.61-1.285c-11.733-6.383-18.363-16.644-22.53-29.133-2.5-10.42-1.37-20.9 3.14-30.582 2.063-2.938 2.063-2.938 4-5l1.313-2.375c5.594-8.703 14.763-14.31 24.643-17.197 12.918-2.708 26.314-.394 37.294 6.76"/></svg></svg>