<svg width="50" height="50" viewBox="0 0 50 50" fill="none" xmlns="http://www.w3.org/2000/svg">
<g clip-path="url(#clip0_1_6)">
<path d="M4.52 15.2V34.8C4.52 36.06 5.18 37.2 6.28 37.84L23.26 47.64C24.34 48.26 25.68 48.26 26.76 47.64L43.74 37.84C44.82 37.22 45.5 36.06 45.5 34.8V15.2C45.5 13.94 44.84 12.8 43.74 12.16L26.76 2.36C25.68 1.74 24.34 1.74 23.26 2.36L6.28 12.16C5.2 12.78 4.54 13.94 4.54 15.2H4.52Z" fill="#213147"/>
<path d="M28.7 28.8L26.28 35.44C26.22 35.62 26.22 35.82 26.28 36.02L30.44 47.44L35.26 44.66L29.48 28.8C29.34 28.44 28.84 28.44 28.7 28.8Z" fill="#12AAFF"/>
<path d="M33.56 17.64C33.42 17.28 32.92 17.28 32.78 17.64L30.36 24.28C30.3 24.46 30.3 24.66 30.36 24.86L37.18 43.56L42 40.78L33.56 17.66V17.64Z" fill="#12AAFF"/>
<path d="M25 3.1C25.12 3.1 25.24 3.14 25.34 3.2L43.7 13.8C43.92 13.92 44.04 14.16 44.04 14.4V35.6C44.04 35.84 43.9 36.08 43.7 36.2L25.34 46.8C25.24 46.86 25.12 46.9 25 46.9C24.88 46.9 24.76 46.86 24.66 46.8L6.3 36.2C6.08 36.08 5.96 35.84 5.96 35.6V14.38C5.96 14.14 6.1 13.9 6.3 13.78L24.66 3.18C24.76 3.12 24.88 3.08 25 3.08V3.1ZM25 0C24.34 0 23.7 0.16 23.1 0.5L4.74 11.1C3.56 11.78 2.84 13.02 2.84 14.38V35.58C2.84 36.94 3.56 38.18 4.74 38.86L23.1 49.46C23.68 49.8 24.34 49.96 25 49.96C25.66 49.96 26.3 49.8 26.9 49.46L45.26 38.86C46.44 38.18 47.16 36.94 47.16 35.58V14.38C47.16 13.02 46.44 11.78 45.26 11.1L26.88 0.5C26.3 0.16 25.64 0 24.98 0H25Z" fill="#9DCCED"/>
<path d="M12.84 43.58L14.54 38.94L17.94 41.76L14.76 44.68L12.84 43.58Z" fill="#213147"/>
<path d="M23.44 12.88H18.78C18.44 12.88 18.12 13.1 18 13.42L8.02 40.78L12.84 43.56L23.84 13.42C23.94 13.14 23.74 12.86 23.46 12.86L23.44 12.88Z" fill="white"/>
<path d="M31.6 12.88H26.94C26.6 12.88 26.28 13.1 26.16 13.42L14.76 44.66L19.58 47.44L31.98 13.42C32.08 13.14 31.88 12.86 31.6 12.86V12.88Z" fill="white"/>
</g>
<defs>
<clipPath id="clip0_1_6">
<rect width="50" height="50" fill="white"/>
</clipPath>
</defs>
</svg>
