<svg width="50" height="50" viewBox="0 0 50 50" fill="none" xmlns="http://www.w3.org/2000/svg">
<g clip-path="url(#clip0_1_5)">
<path fill-rule="evenodd" clip-rule="evenodd" d="M49.9834 25.0166C49.9834 38.8147 38.7981 50 25 50C11.2021 50 0.0166321 38.8147 0.0166321 25.0166C0.0166321 11.2187 11.2021 0.0332642 25 0.0332642C38.7981 0.0332642 49.9834 11.2187 49.9834 25.0166ZM17.9204 34.9587H13.0719C12.053 34.9587 11.5498 34.9587 11.2429 34.7625C10.9115 34.5476 10.7089 34.1916 10.6844 33.7987C10.666 33.4368 10.9176 32.9947 11.4209 32.1109L23.3926 11.0091C23.902 10.1131 24.1598 9.66503 24.4851 9.49933C24.8349 9.32135 25.2523 9.32135 25.6021 9.49933C25.9274 9.66503 26.1852 10.1131 26.6945 11.0091L29.1557 15.3054L29.1682 15.3273C29.7184 16.2886 29.9974 16.7761 30.1193 17.2877C30.2543 17.8462 30.2543 18.4354 30.1193 18.9939C29.9965 19.5095 29.7203 20.0005 29.1618 20.9763L22.8734 32.0925L22.8571 32.121C22.3033 33.0903 22.0226 33.5815 21.6336 33.9521C21.2101 34.3573 20.7007 34.6517 20.1422 34.8177C19.6328 34.9587 19.062 34.9587 17.9204 34.9587ZM30.1647 34.9587H37.1121C38.1371 34.9587 38.6527 34.9587 38.9597 34.7565C39.2911 34.5416 39.4997 34.1793 39.5183 33.7868C39.5359 33.4365 39.2898 33.0116 38.8074 32.1792C38.7907 32.1509 38.7741 32.122 38.7571 32.0927L35.2771 26.1394L35.2375 26.0724C34.7485 25.2454 34.5017 24.8278 34.1846 24.6664C33.835 24.4884 33.4235 24.4884 33.0738 24.6664C32.7547 24.8321 32.4969 25.2679 31.9875 26.1455L28.5198 32.0988L28.5079 32.1193C28.0003 32.9956 27.7466 33.4335 27.7649 33.7927C27.7895 34.1856 27.992 34.5476 28.3234 34.7625C28.6242 34.9587 29.1397 34.9587 30.1647 34.9587Z" fill="#E84142"/>
</g>
<defs>
<clipPath id="clip0_1_5">
<rect width="50" height="50" fill="white"/>
</clipPath>
</defs>
</svg>
