<svg width="50" height="50" viewBox="0 0 50 50" fill="none" xmlns="http://www.w3.org/2000/svg">
<g clip-path="url(#clip0_1_10)">
<path d="M50 24.46C49.7 10.88 38.6 0 25 0C11.2 0 0 11.2 0 25C0 34.96 5.92 43.98 15.06 47.94C16.28 46.12 17.2 44.1 17.82 42C18.32 40.72 18.86 39.48 19.44 38.26C20.16 38.48 20.92 38.6 21.7 38.6C23.8 38.6 25.8 37.76 27.26 36.28L27.34 36.2C26.48 35.88 25.56 35.72 24.64 35.72C22.94 35.72 21.28 36.28 19.92 37.32C20.62 35.88 21.36 34.48 22.14 33.12C22.98 33.42 23.86 33.56 24.74 33.56C26.7 33.56 28.58 32.82 30.02 31.5L30.1 31.42C29.14 31.02 28.1 30.8 27.06 30.8C25.52 30.8 24.02 31.26 22.74 32.1C23.52 30.82 24.3 29.58 25.14 28.4C25.78 28.58 26.46 28.66 27.12 28.66C29.32 28.66 31.42 27.74 32.9 26.1L32.96 26.02C32.2 25.76 31.38 25.64 30.58 25.64C28.98 25.64 27.42 26.14 26.12 27.06C26.18 26.98 26.26 26.88 26.32 26.78C26.82 26.14 27.34 25.48 27.86 24.86C31.1 23.8 33.5 21.04 34.08 17.66L34.1 17.54H34.08C30.7 18.42 28.12 21.14 27.42 24.56C26.92 25.16 26.42 25.78 25.94 26.4C26.28 25.52 26.44 24.6 26.44 23.66C26.44 22.32 26.1 21.02 25.44 19.86L25.38 19.94C24.4 21.28 23.86 22.9 23.86 24.56C23.86 25.78 24.14 27 24.7 28.1C23.9 29.22 23.14 30.38 22.4 31.6C22.5 31.12 22.54 30.62 22.54 30.14C22.54 28.14 21.76 26.22 20.38 24.78L20.34 24.88C19.96 25.8 19.78 26.8 19.78 27.78C19.78 29.66 20.46 31.46 21.68 32.88C20.94 34.16 20.26 35.48 19.58 36.84C19.64 36.42 19.68 35.98 19.68 35.56C19.68 33.4 18.82 31.32 17.28 29.82L17.24 29.92C16.96 30.76 16.8 31.66 16.8 32.54C16.8 34.6 17.58 36.58 19 38.08C18.56 39.02 18.14 39.96 17.74 40.94C17.64 40.84 17.5 40.76 17.36 40.72C16.64 40.52 15.96 40.2 15.34 39.82C14.82 39.5 14.26 39.26 13.68 39.06C11.42 38.32 11.76 37.24 10.58 35.04C10.2 34.6 9.8 34.16 9.38 33.74C8.98 33.48 8.66 33.14 8.44 32.72C8.18 32.2 8.02 31.64 7.96 31.06C7.94 30.4 7.52 29.84 6.9 29.64C3.58 28.5 5.06 24.18 5.18 23.62C5.12 22.9 4.96 22.18 4.7 21.48C4.68 21.4 4.66 21.3 4.64 21.2C4.6 21.02 4.58 20.82 4.58 20.62C4.58 19.9 4.84 19.2 5.32 18.66C5.72 18.26 7.1 17.62 7.4 17.24C7.7 16.86 7.9 16.44 8.2 16.1C9.12 15.18 10.2 14.4 11.38 13.82C12.34 13.3 12.5 11.96 12.88 11.54C13.5 10.82 14.46 10.82 15.18 10.2C15.54 9.88 16.06 9.72 16.4 9.38C18.06 7.86 20.18 6.88 22.42 6.6C22.78 6.58 23.16 6.56 23.54 6.56C24.74 6.56 25.92 6.72 27.06 7.02C27.28 7.06 27.5 7.1 27.7 7.16C31.14 7.28 35.28 8 36.8 9.46C37.54 10.18 38.1 11.06 38.4 12.06C38.64 12.82 38.98 13.56 39.4 14.24L40.32 15.74C40.74 16.4 40.96 17.18 40.96 17.96C40.96 18.28 40.92 18.6 40.86 18.92C40.76 19.2 40.72 19.5 40.72 19.8C40.72 20.06 40.76 20.3 40.82 20.54C41.3 21.28 41.88 21.94 42.52 22.54C42.78 22.8 43.06 23.02 43.36 23.2C44.06 23.62 44.76 24.08 45.4 24.58C45.4 24.62 45.4 24.66 45.4 24.7C45.4 25.08 45.22 25.42 44.92 25.62C44.34 26.14 43.2 26.96 43.2 26.96C43.24 27.2 43.32 27.42 43.4 27.62C43.56 27.92 43.94 28.38 43.82 28.76C43.7 29.16 42.88 29.5 43.1 29.94C43.32 30.4 43.92 30.52 43.74 30.94C43.58 31.34 42.76 32.04 42.84 32.34C42.92 32.64 43.6 35.44 42.04 35.92C40.12 36.3 38.18 36.52 36.22 36.56C35.58 36.6 35 36.96 34.7 37.52C34.4 38.08 34.22 38.68 34.14 39.3C33.58 41.52 32.82 43.7 31.9 45.8C30.98 47.9 31.84 45.92 31.76 46.12C31.56 46.54 31.42 46.98 31.38 47.44C31.52 47.78 31.72 48.08 31.96 48.34C32.16 48.56 32.44 48.7 32.76 48.7C32.86 48.7 32.98 48.68 33.08 48.66C43.2 45.14 49.98 35.58 49.98 24.86C49.98 24.72 49.98 24.56 49.98 24.42L50 24.46Z" fill="#00DACC"/>
</g>
<defs>
<clipPath id="clip0_1_10">
<rect width="50" height="50" fill="white"/>
</clipPath>
</defs>
</svg>
