<svg width="50" height="50" viewBox="0 0 50 50" fill="none" xmlns="http://www.w3.org/2000/svg">
<g clip-path="url(#clip0_1_7)">
<path d="M25 50C38.8071 50 50 38.8071 50 25C50 11.1929 38.8071 0 25 0C11.1929 0 0 11.1929 0 25C0 38.8071 11.1929 50 25 50Z" fill="#FF0420"/>
<path d="M17.71 31.64C16.22 31.64 15 31.29 14.05 30.59C13.11 29.88 12.64 28.86 12.64 27.55C12.64 27.27 12.67 26.94 12.73 26.54C12.89 25.64 13.12 24.56 13.42 23.29C14.27 19.85 16.47 18.13 20.01 18.13C20.97 18.13 21.84 18.29 22.6 18.62C23.36 18.93 23.96 19.41 24.4 20.05C24.84 20.68 25.06 21.43 25.06 22.3C25.06 22.56 25.03 22.89 24.97 23.29C24.78 24.4 24.56 25.49 24.29 26.54C23.85 28.25 23.1 29.54 22.02 30.39C20.95 31.23 19.51 31.64 17.71 31.64ZM17.98 28.94C18.68 28.94 19.27 28.73 19.76 28.32C20.26 27.91 20.62 27.28 20.83 26.42C21.12 25.24 21.34 24.22 21.49 23.34C21.54 23.08 21.57 22.81 21.57 22.53C21.57 21.39 20.98 20.82 19.79 20.82C19.09 20.82 18.49 21.03 17.99 21.44C17.5 21.85 17.15 22.48 16.94 23.34C16.71 24.18 16.49 25.2 16.26 26.42C16.21 26.67 16.18 26.93 16.18 27.21C16.17 28.37 16.78 28.94 17.98 28.94Z" fill="white"/>
<path d="M25.93 31.46C25.79 31.46 25.69 31.42 25.61 31.33C25.55 31.23 25.53 31.12 25.55 30.99L28.14 18.79C28.16 18.65 28.23 18.54 28.35 18.45C28.46 18.36 28.58 18.32 28.71 18.32H33.7C35.09 18.32 36.2 18.61 37.04 19.18C37.89 19.76 38.32 20.59 38.32 21.68C38.32 21.99 38.28 22.32 38.21 22.66C37.9 24.1 37.27 25.16 36.31 25.85C35.37 26.54 34.08 26.88 32.44 26.88H29.91L29.05 30.99C29.02 31.13 28.96 31.24 28.84 31.33C28.73 31.42 28.61 31.46 28.48 31.46H25.93ZM32.57 24.29C33.1 24.29 33.55 24.15 33.94 23.86C34.34 23.57 34.6 23.16 34.73 22.62C34.77 22.41 34.79 22.22 34.79 22.06C34.79 21.7 34.68 21.42 34.47 21.23C34.26 21.03 33.89 20.93 33.38 20.93H31.13L30.42 24.29H32.57Z" fill="white"/>
</g>
<defs>
<clipPath id="clip0_1_7">
<rect width="50" height="50" fill="white"/>
</clipPath>
</defs>
</svg>
