<svg width="50" height="50" viewBox="0 0 50 50" fill="none" xmlns="http://www.w3.org/2000/svg">
<g clip-path="url(#clip0_17_2)">
<path d="M22.75 0.137501C16.2625 0.712498 10.125 3.9125 5.89999 8.9375C0.324987 15.575 -1.40001 24.575 1.31249 32.8375C3.77499 40.325 9.66249 46.2125 17.15 48.675C22.3125 50.375 27.6875 50.3875 32.8375 48.6875C40.325 46.225 46.2125 40.3375 48.675 32.85C50.375 27.6875 50.3875 22.3125 48.6875 17.1625C45.0625 6.1625 34.325 -0.887501 22.75 0.137501ZM26.3125 8.2375C27.6375 8.85 38.875 15.325 39.2875 15.725C39.55 15.9875 39.8875 16.4125 40.0375 16.6875C40.3125 17.1875 40.3125 17.225 40.3125 24.875C40.3125 32.525 40.3125 32.5625 40.0375 33.0625C39.8875 33.3375 39.55 33.7625 39.2875 34.025C38.825 34.475 26.9875 41.2625 26.125 41.575C25.55 41.7875 24.525 41.7875 23.925 41.575C23.075 41.275 11.2125 34.4875 10.7125 34.0125C10.45 33.7625 10.1125 33.3375 9.96249 33.0625C9.68749 32.5625 9.68749 32.525 9.68749 24.875C9.68749 17.225 9.68749 17.1875 9.96249 16.6875C10.1125 16.4125 10.45 15.975 10.7125 15.725C11.1375 15.3125 21.9625 9.0625 23.5625 8.3C24.35 7.925 25.575 7.9 26.3125 8.2375Z" fill="#7F3CE0"/>
<path d="M24.4375 10.45C20.6 12.5625 12.4875 17.225 12.2875 17.4625C12 17.7625 12 17.8125 12 21.1375C12 22.9875 12.025 24.5 12.0625 24.5C12.1 24.5 12.3375 24.375 12.6 24.2125C12.85 24.05 13.3125 23.8125 13.625 23.675C14.1625 23.45 14.675 23.4375 24.8125 23.375C36.9625 23.3 35.775 23.425 37.2125 22.0875L38 21.35V19.55C38 17.875 37.9875 17.75 37.725 17.4625C37.375 17.0875 25.575 10.3875 25.125 10.3C24.95 10.275 24.65 10.3375 24.4375 10.45ZM22.7125 16.2625C22.9 16.325 23.225 16.5375 23.4125 16.725C24.075 17.35 24.125 17.575 24.125 19.75V21.75H22.9375H21.75V20.0625V18.375H20.375H19V20.0625V21.75H17.8125H16.625V19.8375C16.625 17.425 16.8125 16.925 17.9375 16.3375C18.2375 16.175 18.7375 16.1375 20.3375 16.125C21.475 16.125 22.5125 16.1875 22.7125 16.2625ZM32.1 16.3625C33.175 16.9125 33.375 17.45 33.375 19.875V21.75H32.1875H31V20.0625V18.375H29.625H28.25V20.0625V21.75H27.0625H25.875V19.75C25.875 17.575 25.925 17.35 26.5875 16.725C27.1375 16.2 27.425 16.1375 29.6 16.1375C31.3625 16.125 31.7 16.1625 32.1 16.3625Z" fill="#7F3CE0"/>
<path d="M37.7875 24.65C37.7 24.75 37.2125 25.025 36.725 25.2625L35.8125 25.6875L25.125 25.75L14.4375 25.8125L13.875 26.15C13.5625 26.325 13.0125 26.7875 12.65 27.1625L12 27.8625V29.925C12 31.8875 12.0125 32 12.2875 32.2875C12.4375 32.45 15.2625 34.1125 18.5625 35.9875C23.125 38.55 24.675 39.375 24.9875 39.375C25.3125 39.375 26.8875 38.5375 31.5375 35.9C34.9 34 37.7375 32.325 37.825 32.175C38.075 31.8125 38.025 24.35 37.7875 24.65ZM19 29.0625V30.75H20.375H21.7375L21.775 29.0875L21.8125 27.4375L22.975 27.4L24.125 27.3625V29.4C24.125 31.2875 24.1 31.475 23.8375 31.9C23.2 32.95 22.5 33.1625 20.0375 33.1C18.0875 33.0625 17.775 32.95 17.075 32.0875L16.6875 31.6L16.65 29.4875L16.6 27.375H17.8H19V29.0625ZM28.225 29.0875L28.2625 30.75H29.625H31V29.0625V27.375H32.1875H33.375V29.275C33.375 31.425 33.2375 31.925 32.5125 32.5375C31.9375 33.0125 31.3875 33.125 29.4875 33.125C27.925 33.125 27.75 33.1 27.15 32.8C26.6875 32.5625 26.4125 32.325 26.1875 31.95C25.8875 31.4375 25.875 31.325 25.875 29.3875V27.3625L27.0375 27.4L28.1875 27.4375L28.225 29.0875Z" fill="#7F3CE0"/>
</g>
<defs>
<clipPath id="clip0_17_2">
<rect width="50" height="50" fill="white"/>
</clipPath>
</defs>
</svg>
