<svg width="50" height="50" viewBox="0 0 50 50" fill="none" xmlns="http://www.w3.org/2000/svg">
<g clip-path="url(#clip0_1_4)">
<path d="M25 50C38.76 50 50 38.74 50 25C50 11.24 38.74 0 25 0C11.24 0 0 11.26 0 25C0 38.76 11.26 50 25 50Z" fill="url(#paint0_linear_1_4)"/>
<path d="M32.24 30.4L39.32 26.32C39.7 26.1 39.92 25.7 39.92 25.26V17.1C39.92 16.66 39.68 16.26 39.32 16.04L32.24 11.96C31.86 11.74 31.4 11.74 31.02 11.96L23.94 16.04C23.56 16.26 23.34 16.66 23.34 17.1V31.7L18.38 34.56L13.42 31.7V25.98L18.38 23.12L21.66 25V21.16L19 19.62C18.82 19.52 18.6 19.46 18.4 19.46C18.18 19.46 17.98 19.52 17.8 19.62L10.72 23.7C10.34 23.92 10.12 24.32 10.12 24.76V32.92C10.12 33.36 10.36 33.76 10.72 33.98L17.8 38.06C18.18 38.28 18.64 38.28 19.02 38.06L26.1 33.98C26.48 33.76 26.7 33.36 26.7 32.92V18.32L26.78 18.26L31.66 15.44L36.62 18.3V24.02L31.66 26.88L28.4 25V28.84L31.06 30.38C31.44 30.6 31.9 30.6 32.28 30.38L32.24 30.4Z" fill="white"/>
</g>
<defs>
<linearGradient id="paint0_linear_1_4" x1="-9.14467" y1="4.06023" x2="42.4153" y2="35.6802" gradientUnits="userSpaceOnUse">
<stop stop-color="#A229C5"/>
<stop offset="1" stop-color="#7B3FE4"/>
</linearGradient>
<clipPath id="clip0_1_4">
<rect width="50" height="50" fill="white"/>
</clipPath>
</defs>
</svg>
