<svg width="50" height="50" viewBox="0 0 50 50" fill="none" xmlns="http://www.w3.org/2000/svg">
<path d="M44.8764 31.9653V5.06284C44.8391 2.8118 43.0124 1 40.7198 1H12.1275C5.958 1.09151 1 6.05109 1 12.127C1 14.1767 1.55917 15.9336 2.41657 17.4709C3.14349 18.7521 4.28048 19.9598 5.39882 20.8566C5.71567 21.1129 5.56657 21.003 6.53579 21.5886C7.87782 22.3939 9.40621 22.7965 9.40621 22.7965L9.38758 38.8832C9.42485 39.6518 9.49942 40.3839 9.70445 41.0609C10.3382 43.3303 11.9411 45.0689 14.1219 45.9108C15.0352 46.2584 16.0604 46.4963 17.1601 46.5146L39.993 46.5879C44.5409 46.5879 48.2313 42.9642 48.2313 38.4806C48.25 35.8268 46.9079 33.4478 44.8764 31.9653Z" fill="#FFEEDA"/>
<path d="M45.4351 38.6816C45.3419 41.5549 42.9375 43.8609 39.9925 43.8609L24.2797 43.806C25.5285 42.3784 26.2927 40.5301 26.2927 38.517C26.2927 35.3509 24.373 33.1731 24.373 33.1731H40.0112C43.0121 33.1731 45.4537 35.5706 45.4537 38.517L45.4351 38.6816Z" fill="#EBC28E"/>
<path d="M6.88994 18.5877C5.08195 16.904 3.81449 14.7262 3.81449 12.1457V11.8712C3.96361 7.46065 7.65415 3.91025 12.1462 3.78215H40.7385C41.484 3.81876 42.0805 4.33118 42.0805 5.08153V28.8362C42.7328 28.946 43.0497 29.0376 43.6834 29.2573C44.1867 29.4402 44.8764 29.8246 44.8764 29.8246V5.08153C44.8391 2.83049 43.0124 1.01869 40.7198 1.01869H12.1275C5.958 1.1102 1 6.06978 1 12.1457C1 15.6778 2.64024 18.6974 5.32427 20.8204C5.51066 20.9668 5.6784 21.1498 6.16302 21.1498C7.00178 21.1498 7.59823 20.4911 7.56094 19.7772C7.5423 19.1733 7.28136 18.9536 6.88994 18.5877Z" fill="#101010"/>
<path d="M39.9961 30.3914H17.5733C16.0635 30.4098 14.852 31.5993 14.852 33.0817V36.2477C14.8892 37.7119 16.1567 38.9563 17.6665 38.9563H19.3253V36.2477H17.6665V33.155C17.6665 33.155 18.0765 33.155 18.5798 33.155C21.4129 33.155 23.5005 35.7354 23.5005 38.4989C23.5005 40.9512 21.2265 44.0806 17.4242 43.8245C14.0505 43.6048 12.2239 40.6583 12.2239 38.4989V11.6695C12.2239 10.4616 11.2174 9.47337 9.98718 9.47337H7.75049V12.2185H9.40937V38.5171C9.31618 43.861 13.2863 46.5512 17.4242 46.5512L40.0147 46.6245C44.5626 46.6245 48.2532 43.0009 48.2532 38.5171C48.2532 34.0333 44.544 30.3914 39.9961 30.3914ZM45.4386 38.6818C45.3455 41.5551 42.941 43.861 39.9961 43.861L24.2834 43.806C25.5322 42.3786 26.2964 40.5301 26.2964 38.5171C26.2964 35.3511 24.3765 33.1732 24.3765 33.1732H40.0147C43.0156 33.1732 45.4574 35.5706 45.4574 38.5171L45.4386 38.6818Z" fill="#101010"/>
<path d="M33.953 12.7132H17.0474V9.96805H33.953C34.7173 9.96805 35.3509 10.572 35.3509 11.3406C35.3509 12.091 34.7358 12.7132 33.953 12.7132Z" fill="#101010"/>
<path d="M33.953 25.6327H17.0474V22.8876H33.953C34.7173 22.8876 35.3509 23.4916 35.3509 24.2601C35.3509 25.0106 34.7358 25.6327 33.953 25.6327Z" fill="#101010"/>
<path d="M36.9352 19.173H17.0474V16.4278H36.9167C37.6809 16.4278 38.3146 17.0318 38.3146 17.8004C38.3331 18.5507 37.6994 19.173 36.9352 19.173Z" fill="#101010"/>
</svg>
