<?xml version="1.0" encoding="UTF-8" standalone="no"?>
<svg
   id="Group_30952"
   width="48"
   height="48"
   viewBox="0 0 48 48"
   version="1.1"
   sodipodi:docname="a.svg"
   inkscape:version="1.3.2 (091e20e, 2023-11-25)"
   xmlns:inkscape="http://www.inkscape.org/namespaces/inkscape"
   xmlns:sodipodi="http://sodipodi.sourceforge.net/DTD/sodipodi-0.dtd"
   xmlns="http://www.w3.org/2000/svg"
   xmlns:svg="http://www.w3.org/2000/svg">
  <sodipodi:namedview
     id="namedview1"
     pagecolor="#ffffff"
     bordercolor="#000000"
     borderopacity="0.25"
     inkscape:showpageshadow="2"
     inkscape:pageopacity="0.0"
     inkscape:pagecheckerboard="0"
     inkscape:deskcolor="#d1d1d1"
     inkscape:zoom="17.333333"
     inkscape:cx="29.740385"
     inkscape:cy="24"
     inkscape:window-width="1280"
     inkscape:window-height="1387"
     inkscape:window-x="1800"
     inkscape:window-y="25"
     inkscape:window-maximized="0"
     inkscape:current-layer="Group_30952" />
  <defs
     id="defs10">
    <linearGradient
       id="linear-gradient"
       x1="215.80821"
       x2="52.73571"
       y1="34.559513"
       y2="226.81609"
       gradientUnits="userSpaceOnUse">
      <stop
         offset="0"
         stop-color="#b6509e"
         id="stop2" />
      <stop
         offset="1"
         stop-color="#2ebac6"
         id="stop4" />
    </linearGradient>
    <linearGradient
       id="linear-gradient-2"
       x1="0.90700001"
       x2="0.163"
       y1="0.227"
       y2="0.85299999" />
  </defs>
  <g
     id="Group_29109"
     transform="matrix(0.17968682,0,0,0.17968708,1.0000809,1.0001068)">
    <path
       id="Subtraction_108"
       fill="url(#linear-gradient)"
       d="M 128,256 A 128.976,128.976 0 0 1 102.2,253.4 127.309,127.309 0 0 1 56.43,234.139 128.366,128.366 0 0 1 10.055,177.824 127.357,127.357 0 0 1 2.6,153.8 129.251,129.251 0 0 1 2.6,102.207 127.31,127.31 0 0 1 21.86,56.437 128.372,128.372 0 0 1 78.177,10.059 127.33,127.33 0 0 1 102.2,2.6 a 129.244,129.244 0 0 1 51.593,0 127.308,127.308 0 0 1 45.77,19.26 128.367,128.367 0 0 1 46.375,56.316 127.343,127.343 0 0 1 7.462,24.024 129.248,129.248 0 0 1 0,51.593 127.3,127.3 0 0 1 -19.26,45.77 128.382,128.382 0 0 1 -56.316,46.375 A 127.4,127.4 0 0 1 153.8,253.4 128.977,128.977 0 0 1 128,256 Z M 128,13.713 A 115.145,115.145 0 0 0 104.967,16.035 113.657,113.657 0 0 0 64.1,33.232 114.622,114.622 0 0 0 22.7,83.515 a 113.7,113.7 0 0 0 -6.659,21.452 115.4,115.4 0 0 0 0,46.065 113.66,113.66 0 0 0 17.2,40.866 114.627,114.627 0 0 0 50.282,41.407 113.75,113.75 0 0 0 21.453,6.658 115.381,115.381 0 0 0 46.065,0 113.609,113.609 0 0 0 40.866,-17.2 114.622,114.622 0 0 0 41.393,-50.278 113.741,113.741 0 0 0 6.659,-21.453 115.4,115.4 0 0 0 0,-46.065 113.662,113.662 0 0 0 -17.2,-40.865 A 114.619,114.619 0 0 0 172.485,22.7 113.74,113.74 0 0 0 151.032,16.041 115.145,115.145 0 0 0 128,13.714 Z"
       style="fill:url(#linear-gradient)" />
  </g>
  <g
     id="g1"
     transform="translate(0,5.9462983e-4)">
    <template />
  </g>
</svg>
