<svg width="48" height="48" viewBox="0 0 48 48" fill="none" xmlns="http://www.w3.org/2000/svg">
   <g clip-path="url(#clip0_85_109)">
      <path
         d="M24 48C22.3752 48.0004 20.7545 47.8371 19.1625 47.5125C16.0926 46.8837 13.1765 45.6565 10.5807 43.9011C6.72205 41.2964 3.70163 37.6286 1.88539 33.342C1.27195 31.8903 0.803734 30.3815 0.487583 28.8375C-0.162528 25.6458 -0.162528 22.3557 0.487583 19.1639C1.11636 16.094 2.34344 13.1779 4.09882 10.582C6.70355 6.72318 10.3715 3.70256 14.6582 1.88617C16.1098 1.27246 17.6186 0.803985 19.1625 0.48761C22.3543 -0.162537 25.6444 -0.162537 28.8362 0.48761C31.9061 1.11638 34.8222 2.34347 37.418 4.09885C41.2766 6.70358 44.2971 10.3715 46.1133 14.6581C46.7272 16.1097 47.1958 17.6186 47.5124 19.1626C48.1625 22.3544 48.1625 25.6444 47.5124 28.8362C46.8837 31.9062 45.6566 34.8223 43.9012 37.4181C41.2963 41.2766 37.6285 44.297 33.342 46.1134C31.8903 46.7272 30.3815 47.1959 28.8375 47.5125C27.2455 47.8371 25.6248 48.0004 24 48ZM24 2.57129C22.5495 2.57097 21.1026 2.71683 19.6813 3.00667C16.9402 3.56803 14.3365 4.66368 12.0188 6.2311C8.57405 8.55703 5.87768 11.8319 4.25632 15.6591C3.70839 16.9554 3.29017 18.3027 3.00776 19.6814C2.4273 22.5312 2.4273 25.4687 3.00776 28.3185C3.56933 31.0596 4.66517 33.6633 6.23275 35.9809C8.55847 39.4261 11.8333 42.1229 15.6606 43.7447C16.9569 44.2925 18.3043 44.7107 19.683 44.9931C22.5328 45.5736 25.4704 45.5736 28.3202 44.9931C31.0613 44.4317 33.665 43.3359 35.9825 41.7681C39.4266 39.4422 42.1225 36.1676 43.7437 32.341C44.2916 31.0446 44.7098 29.6973 44.9922 28.3185C45.5727 25.4687 45.5727 22.5312 44.9922 19.6814C44.4306 16.9404 43.3348 14.3368 41.7672 12.0192C39.4419 8.57455 36.1675 5.87807 32.3409 4.25635C31.0446 3.70846 29.6972 3.29024 28.3185 3.00779C26.8973 2.71766 25.4505 2.57129 24 2.57129Z"
         fill="url(#paint0_linear_85_109)" />
   </g>
   <g clip-path="url(#circleClip)">
      <template />
   </g>
   <defs>
      <clipPath id="circleClip">
         <circle cx="24" cy="24" r="20" />
      </clipPath>
      <linearGradient id="paint0_linear_85_109" x1="40.464" y1="6.48001" x2="9.88794" y2="42.528"
         gradientUnits="userSpaceOnUse">
         <stop stop-color="#B6509E" />
         <stop offset="1" stop-color="#2EBAC6" />
      </linearGradient>
      <clipPath id="clip0_85_109">
         <rect width="48" height="48" fill="white" />
      </clipPath>
   </defs>
</svg>
