<svg width="48" height="48" viewBox="0 0 48 48" fill="none" xmlns="http://www.w3.org/2000/svg">
    <g clip-path="url(#clip0_85_112)">
        <path fill-rule="evenodd" clip-rule="evenodd"
            d="M45.8841 33.8578L44.4745 33.218C44.1146 33.9278 43.8247 34.6676 43.3748 35.3274L44.7144 36.1072C45.1843 35.4074 45.5042 34.6176 45.8841 33.8578Z"
            fill="url(#paint0_linear_85_112)" />
        <path fill-rule="evenodd" clip-rule="evenodd"
            d="M47.3437 29.539L45.8341 29.1791C45.6342 29.9489 45.4742 30.7287 45.1643 31.4585L46.6239 31.9683C46.9538 31.1886 47.1337 30.3588 47.3437 29.539Z"
            fill="url(#paint1_linear_85_112)" />
        <path fill-rule="evenodd" clip-rule="evenodd"
            d="M47.9635 25.0403L46.4139 24.9703L46.354 26.1599C46.324 26.5598 46.244 26.9497 46.184 27.3396L47.7136 27.5696C47.7736 27.1497 47.8535 26.7298 47.8935 26.3099L47.9635 25.0403Z"
            fill="url(#paint2_linear_85_112)" />
        <path fill-rule="evenodd" clip-rule="evenodd"
            d="M35.2171 43.4452L34.7072 43.7551L34.1673 44.015L34.8771 45.3946L35.447 45.1147L35.9968 44.7848L37.0765 44.125L36.2368 42.8353L35.2171 43.4452Z"
            fill="url(#paint3_linear_85_112)" />
        <path fill-rule="evenodd" clip-rule="evenodd"
            d="M40.6455 41.2857L39.5758 40.1661L38.6961 40.9658C38.5461 41.0958 38.4062 41.2358 38.2562 41.3657L37.7763 41.7256L38.7261 42.9453L39.2359 42.5654C39.3959 42.4254 39.5558 42.2855 39.7058 42.1455L40.6455 41.2857Z"
            fill="url(#paint4_linear_85_112)" />
        <path fill-rule="evenodd" clip-rule="evenodd"
            d="M43.6047 37.8367L42.3351 36.947C41.8452 37.5668 41.4153 38.2466 40.8555 38.8164L42.0152 39.8362C42.625 39.2263 43.0849 38.5065 43.6047 37.8367Z"
            fill="url(#paint5_linear_85_112)" />
        <path fill-rule="evenodd" clip-rule="evenodd"
            d="M24.1201 48.0139L24.1101 46.4643C23.3204 46.4443 22.5206 46.3843 21.7308 46.3543L21.5808 47.8939C22.4206 47.9439 23.2704 48.0039 24.1201 48.0139Z"
            fill="url(#paint6_linear_85_112)" />
        <path fill-rule="evenodd" clip-rule="evenodd"
            d="M28.6589 47.564L28.359 46.0444C27.5692 46.1444 26.7894 46.3144 25.9996 46.3743L26.1396 47.9139C26.9793 47.8439 27.8191 47.674 28.6589 47.564Z"
            fill="url(#paint7_linear_85_112)" />
        <path fill-rule="evenodd" clip-rule="evenodd"
            d="M33.0077 46.2544L32.4278 44.8148L31.3081 45.2247L30.7483 45.4346C30.5583 45.5046 30.3684 45.5346 30.1784 45.5946L30.6083 47.0841C30.8083 47.0242 31.0182 46.9842 31.2182 46.9142L31.818 46.6942L33.0077 46.2544Z"
            fill="url(#paint8_linear_85_112)" />
        <path fill-rule="evenodd" clip-rule="evenodd"
            d="M11.4436 42.6454L10.9638 42.2955L10.014 41.5757L9.04432 42.7953L10.5739 43.935L11.1237 44.2649L11.9535 42.9553L11.4436 42.6454Z"
            fill="url(#paint9_linear_85_112)" />
        <path fill-rule="evenodd" clip-rule="evenodd"
            d="M15.1826 46.3343L15.7525 44.8947C15.5625 44.8248 15.3726 44.7648 15.1926 44.6848L14.6528 44.4249L13.5831 43.905L12.8633 45.2746L14.0129 45.8245L14.5828 46.1044C14.7827 46.1944 14.9827 46.2544 15.1826 46.3343Z"
            fill="url(#paint10_linear_85_112)" />
        <path fill-rule="evenodd" clip-rule="evenodd"
            d="M19.5514 47.594L19.8413 46.0744C19.4414 46.0344 19.0615 45.9045 18.6816 45.8145L17.532 45.5146L17.0821 46.9942L18.3117 47.3141C18.7216 47.414 19.1215 47.554 19.5514 47.594Z"
            fill="url(#paint11_linear_85_112)" />
        <path fill-rule="evenodd" clip-rule="evenodd"
            d="M2.20621 34.0877L3.61582 33.4379C3.23593 32.7381 3.01599 31.9683 2.72607 31.2285L1.25648 31.7284C1.56639 32.5182 1.80632 33.338 2.20621 34.0877Z"
            fill="url(#paint12_linear_85_112)" />
        <path fill-rule="evenodd" clip-rule="evenodd"
            d="M4.51557 38.0267L5.77522 37.1169C5.26537 36.5071 4.91546 35.7873 4.48558 35.1175L3.13596 35.8872C3.58583 36.607 3.97572 37.3668 4.51557 38.0267Z"
            fill="url(#paint13_linear_85_112)" />
        <path fill-rule="evenodd" clip-rule="evenodd"
            d="M7.50474 41.4457L8.56445 40.316L8.12457 39.9161C7.98461 39.7762 7.85465 39.6262 7.72468 39.4762L6.92491 38.5965L5.74523 39.6062L6.60499 40.546C6.74495 40.7059 6.88492 40.8659 7.03487 41.0158L7.50474 41.4457Z"
            fill="url(#paint14_linear_85_112)" />
        <path fill-rule="evenodd" clip-rule="evenodd"
            d="M0.216766 20.7115L1.74634 20.9214L1.92629 19.7417C1.96628 19.3418 2.10624 18.9719 2.19622 18.5821L0.696632 18.2122C0.606657 18.622 0.456699 19.0319 0.406713 19.4518L0.216766 20.7115Z"
            fill="url(#paint15_linear_85_112)" />
        <path fill-rule="evenodd" clip-rule="evenodd"
            d="M0.0268187 22.7209L-0.0331648 23.9905L0.0268187 25.2702L1.57639 25.1902L1.51641 23.9905L1.57639 22.8009L0.0268187 22.7209Z"
            fill="url(#paint16_linear_85_112)" />
        <path fill-rule="evenodd" clip-rule="evenodd"
            d="M0.686635 29.7589L2.18622 29.389C1.95628 28.6293 1.85631 27.8395 1.73634 27.0497L0.196771 27.2596C0.34673 28.0994 0.446702 28.9392 0.686635 29.7589Z"
            fill="url(#paint17_linear_85_112)" />
        <path fill-rule="evenodd" clip-rule="evenodd"
            d="M5.76523 8.37488L6.9449 9.3846L7.74468 8.50485C7.88464 8.35489 8.0046 8.20493 8.14457 8.06497L8.58444 7.66508L7.52474 6.54539L7.05487 6.97527C6.90491 7.12523 6.76495 7.28519 6.62499 7.44514L5.76523 8.37488Z"
            fill="url(#paint18_linear_85_112)" />
        <path fill-rule="evenodd" clip-rule="evenodd"
            d="M3.13596 12.1038L4.47558 12.8736C4.90546 12.2038 5.26536 11.494 5.76523 10.8742L4.50558 9.96444C3.97572 10.6243 3.59583 11.384 3.13596 12.1038Z"
            fill="url(#paint19_linear_85_112)" />
        <path fill-rule="evenodd" clip-rule="evenodd"
            d="M1.26647 16.2427L2.73607 16.7426C3.01599 16.0028 3.24593 15.233 3.62582 14.5332L2.22621 13.8834C1.81632 14.6431 1.56639 15.4529 1.26647 16.2427Z"
            fill="url(#paint20_linear_85_112)" />
        <path fill-rule="evenodd" clip-rule="evenodd"
            d="M17.1021 0.996932L17.542 2.47652L18.6916 2.1766C19.0815 2.08663 19.4614 1.95667 19.8513 1.91668L19.5714 0.397098C19.1515 0.447084 18.7416 0.567051 18.3317 0.667023L17.1021 0.996932Z"
            fill="url(#paint21_linear_85_112)" />
        <path fill-rule="evenodd" clip-rule="evenodd"
            d="M12.8733 2.71645L13.5931 4.08607L14.6628 3.56622L15.2026 3.30629C15.3826 3.22631 15.5725 3.16633 15.7625 3.09635L15.1926 1.66675C14.9927 1.73673 14.7927 1.80671 14.5928 1.88668L14.0229 2.16661L12.8733 2.71645Z"
            fill="url(#paint22_linear_85_112)" />
        <path fill-rule="evenodd" clip-rule="evenodd"
            d="M9.06431 5.19577L10.024 6.40543L10.9738 5.69563C11.1337 5.57566 11.2937 5.45569 11.4536 5.34572L11.9635 5.03581L11.1337 3.72617L10.5939 4.05608C10.4139 4.17605 10.254 4.30601 10.084 4.43598L9.06431 5.19577Z"
            fill="url(#paint23_linear_85_112)" />
        <path fill-rule="evenodd" clip-rule="evenodd"
            d="M30.6283 0.926952L30.1984 2.41654C30.5883 2.49652 30.9582 2.63648 31.3281 2.77644L32.4478 3.18632L33.0277 1.75672L31.828 1.31684C31.4481 1.16689 31.0482 1.01693 30.6283 0.926952Z"
            fill="url(#paint24_linear_85_112)" />
        <path fill-rule="evenodd" clip-rule="evenodd"
            d="M26.1496 0.0871842L26.0096 1.62676C26.7994 1.68674 27.5792 1.85669 28.369 1.95666L28.6689 0.437087C27.8291 0.327118 26.9893 0.157165 26.1496 0.0871842Z"
            fill="url(#paint25_linear_85_112)" />
        <path fill-rule="evenodd" clip-rule="evenodd"
            d="M21.6008 0.0971818L21.7508 1.63675C22.5406 1.60676 23.3403 1.54678 24.1301 1.52679L24.1401 -0.0227851C23.3004 -0.00279064 22.4506 0.0571929 21.6008 0.0971818Z"
            fill="url(#paint26_linear_85_112)" />
        <path fill-rule="evenodd" clip-rule="evenodd"
            d="M42.0452 8.18494L40.8755 9.20465L41.2754 9.64453C41.4053 9.79449 41.5153 9.96444 41.6353 10.1144L42.3451 11.0641L43.6147 10.1744L42.8549 9.15467C42.725 8.98472 42.605 8.81476 42.465 8.65481L42.0452 8.18494Z"
            fill="url(#paint27_linear_85_112)" />
        <path fill-rule="evenodd" clip-rule="evenodd"
            d="M38.7261 5.0558L37.7763 6.27547L38.2562 6.63537C38.4062 6.76533 38.5461 6.90529 38.6961 7.03526L39.5758 7.83503L40.6555 6.71534L39.7158 5.85558C39.5558 5.71562 39.4059 5.56566 39.2459 5.4357L38.7261 5.0558Z"
            fill="url(#paint28_linear_85_112)" />
        <path fill-rule="evenodd" clip-rule="evenodd"
            d="M34.7272 4.25603L36.2568 5.18577L37.1065 3.88613L36.0168 3.22631L35.467 2.8964L34.8971 2.61648L34.1973 3.9961L34.7272 4.25603Z"
            fill="url(#paint29_linear_85_112)" />
        <path fill-rule="evenodd" clip-rule="evenodd"
            d="M47.7236 20.4615L46.194 20.6915C46.244 21.0814 46.334 21.4712 46.354 21.8711L46.4139 23.0608L47.9635 23.0008L47.9035 21.7312C47.8635 21.2913 47.7836 20.8814 47.7236 20.4615Z"
            fill="url(#paint30_linear_85_112)" />
        <path fill-rule="evenodd" clip-rule="evenodd"
            d="M46.6339 16.0328L45.1743 16.5426C45.4842 17.2724 45.6442 18.0622 45.8441 18.822L47.3537 18.4621C47.1337 17.6523 46.9538 16.8225 46.6339 16.0328Z"
            fill="url(#paint31_linear_85_112)" />
        <path fill-rule="evenodd" clip-rule="evenodd"
            d="M44.7244 11.9139L43.3848 12.6937C43.8347 13.3535 44.1146 14.1033 44.4745 14.8031L45.8841 14.1633C45.5142 13.4135 45.1943 12.6137 44.7244 11.9139Z"
            fill="url(#paint32_linear_85_112)" />
    </g>
    <g clip-path="url(#circleClip)">
        <template />
    </g>
    <defs>
        <clipPath id="circleClip">
            <circle cx="24" cy="24" r="21" />
        </clipPath>
        <linearGradient id="paint0_linear_85_112" x1="89.5301" y1="68.3003" x2="-825.17"
            y2="-779.228" gradientUnits="userSpaceOnUse">
            <stop stop-color="#B6509E" />
            <stop offset="1" stop-color="#2EBAC6" />
        </linearGradient>
        <linearGradient id="paint1_linear_85_112" x1="128.494" y1="88.03" x2="-821.333" y2="-890.21"
            gradientUnits="userSpaceOnUse">
            <stop stop-color="#B6509E" />
            <stop offset="1" stop-color="#2EBAC6" />
        </linearGradient>
        <linearGradient id="paint2_linear_85_112" x1="208.381" y1="123.642" x2="-798.122"
            y2="-1059.46" gradientUnits="userSpaceOnUse">
            <stop stop-color="#B6509E" />
            <stop offset="1" stop-color="#2EBAC6" />
        </linearGradient>
        <linearGradient id="paint3_linear_85_112" x1="97.4958" y1="92.507" x2="-879.277"
            y2="-598.994" gradientUnits="userSpaceOnUse">
            <stop stop-color="#B6509E" />
            <stop offset="1" stop-color="#2EBAC6" />
        </linearGradient>
        <linearGradient id="paint4_linear_85_112" x1="78.2578" y1="70.3788" x2="-846.56"
            y2="-650.515" gradientUnits="userSpaceOnUse">
            <stop stop-color="#B6509E" />
            <stop offset="1" stop-color="#2EBAC6" />
        </linearGradient>
        <linearGradient id="paint5_linear_85_112" x1="75.026" y1="62.5335" x2="-829.603"
            y2="-702.513" gradientUnits="userSpaceOnUse">
            <stop stop-color="#B6509E" />
            <stop offset="1" stop-color="#2EBAC6" />
        </linearGradient>
        <linearGradient id="paint6_linear_85_112" x1="262.521" y1="317.895" x2="-1053.41"
            y2="-374.189" gradientUnits="userSpaceOnUse">
            <stop stop-color="#B6509E" />
            <stop offset="1" stop-color="#2EBAC6" />
        </linearGradient>
        <linearGradient id="paint7_linear_85_112" x1="189.598" y1="215.72" x2="-1025.6"
            y2="-471.757" gradientUnits="userSpaceOnUse">
            <stop stop-color="#B6509E" />
            <stop offset="1" stop-color="#2EBAC6" />
        </linearGradient>
        <linearGradient id="paint8_linear_85_112" x1="133.663" y1="135.723" x2="-930.647"
            y2="-551.282" gradientUnits="userSpaceOnUse">
            <stop stop-color="#B6509E" />
            <stop offset="1" stop-color="#2EBAC6" />
        </linearGradient>
        <linearGradient id="paint9_linear_85_112" x1="438.358" y1="383.608" x2="-505.593"
            y2="-318.594" gradientUnits="userSpaceOnUse">
            <stop stop-color="#B6509E" />
            <stop offset="1" stop-color="#2EBAC6" />
        </linearGradient>
        <linearGradient id="paint10_linear_85_112" x1="367.884" y1="352.282" x2="-644.885"
            y2="-333.003" gradientUnits="userSpaceOnUse">
            <stop stop-color="#B6509E" />
            <stop offset="1" stop-color="#2EBAC6" />
        </linearGradient>
        <linearGradient id="paint11_linear_85_112" x1="310.913" y1="330.087" x2="-819.374"
            y2="-355.394" gradientUnits="userSpaceOnUse">
            <stop stop-color="#B6509E" />
            <stop offset="1" stop-color="#2EBAC6" />
        </linearGradient>
        <linearGradient id="paint12_linear_85_112" x1="796.792" y1="536.642" x2="-129.901"
            y2="-367.096" gradientUnits="userSpaceOnUse">
            <stop stop-color="#B6509E" />
            <stop offset="1" stop-color="#2EBAC6" />
        </linearGradient>
        <linearGradient id="paint13_linear_85_112" x1="640.69" y1="473.543" x2="-263.86"
            y2="-328.827" gradientUnits="userSpaceOnUse">
            <stop stop-color="#B6509E" />
            <stop offset="1" stop-color="#2EBAC6" />
        </linearGradient>
        <linearGradient id="paint14_linear_85_112" x1="527.908" y1="424.179" x2="-382.812"
            y2="-316.503" gradientUnits="userSpaceOnUse">
            <stop stop-color="#B6509E" />
            <stop offset="1" stop-color="#2EBAC6" />
        </linearGradient>
        <linearGradient id="paint15_linear_85_112" x1="1168.67" y1="698.93" x2="194.923"
            y2="-373.582" gradientUnits="userSpaceOnUse">
            <stop stop-color="#B6509E" />
            <stop offset="1" stop-color="#2EBAC6" />
        </linearGradient>
        <linearGradient id="paint16_linear_85_112" x1="1359.4" y1="702.843" x2="349.59" y2="-584.24"
            gradientUnits="userSpaceOnUse">
            <stop stop-color="#B6509E" />
            <stop offset="1" stop-color="#2EBAC6" />
        </linearGradient>
        <linearGradient id="paint17_linear_85_112" x1="1029.35" y1="617.607" x2="55.1458"
            y2="-450.02" gradientUnits="userSpaceOnUse">
            <stop stop-color="#B6509E" />
            <stop offset="1" stop-color="#2EBAC6" />
        </linearGradient>
        <linearGradient id="paint18_linear_85_112" x1="874.387" y1="702.532" x2="-38.8773"
            y2="-37.6168" gradientUnits="userSpaceOnUse">
            <stop stop-color="#B6509E" />
            <stop offset="1" stop-color="#2EBAC6" />
        </linearGradient>
        <linearGradient id="paint19_linear_85_112" x1="933.728" y1="687.088" x2="28.7743"
            y2="-118.691" gradientUnits="userSpaceOnUse">
            <stop stop-color="#B6509E" />
            <stop offset="1" stop-color="#2EBAC6" />
        </linearGradient>
        <linearGradient id="paint20_linear_85_112" x1="1019.51" y1="686.801" x2="92.8153"
            y2="-216.936" gradientUnits="userSpaceOnUse">
            <stop stop-color="#B6509E" />
            <stop offset="1" stop-color="#2EBAC6" />
        </linearGradient>
        <linearGradient id="paint21_linear_85_112" x1="812.862" y1="861.405" x2="-319.316"
            y2="172.282" gradientUnits="userSpaceOnUse">
            <stop stop-color="#B6509E" />
            <stop offset="1" stop-color="#2EBAC6" />
        </linearGradient>
        <linearGradient id="paint22_linear_85_112" x1="813.991" y1="781.595" x2="-201.396"
            y2="97.3647" gradientUnits="userSpaceOnUse">
            <stop stop-color="#B6509E" />
            <stop offset="1" stop-color="#2EBAC6" />
        </linearGradient>
        <linearGradient id="paint23_linear_85_112" x1="837.936" y1="731.376" x2="-109.46"
            y2="26.8121" gradientUnits="userSpaceOnUse">
            <stop stop-color="#B6509E" />
            <stop offset="1" stop-color="#2EBAC6" />
        </linearGradient>
        <linearGradient id="paint24_linear_85_112" x1="606.97" y1="612.111" x2="-460.098"
            y2="-73.6413" gradientUnits="userSpaceOnUse">
            <stop stop-color="#B6509E" />
            <stop offset="1" stop-color="#2EBAC6" />
        </linearGradient>
        <linearGradient id="paint25_linear_85_112" x1="717.133" y1="817.847" x2="-498.065"
            y2="130.371" gradientUnits="userSpaceOnUse">
            <stop stop-color="#B6509E" />
            <stop offset="1" stop-color="#2EBAC6" />
        </linearGradient>
        <linearGradient id="paint26_linear_85_112" x1="820.019" y1="1001.94" x2="-495.907"
            y2="309.858" gradientUnits="userSpaceOnUse">
            <stop stop-color="#B6509E" />
            <stop offset="1" stop-color="#2EBAC6" />
        </linearGradient>
        <linearGradient id="paint27_linear_85_112" x1="394.545" y1="308.62" x2="-513.251"
            y2="-459.241" gradientUnits="userSpaceOnUse">
            <stop stop-color="#B6509E" />
            <stop offset="1" stop-color="#2EBAC6" />
        </linearGradient>
        <linearGradient id="paint28_linear_85_112" x1="450.145" y1="380.09" x2="-473.882"
            y2="-337.685" gradientUnits="userSpaceOnUse">
            <stop stop-color="#B6509E" />
            <stop offset="1" stop-color="#2EBAC6" />
        </linearGradient>
        <linearGradient id="paint29_linear_85_112" x1="518.793" y1="475.886" x2="-455.432"
            y2="-216.507" gradientUnits="userSpaceOnUse">
            <stop stop-color="#B6509E" />
            <stop offset="1" stop-color="#2EBAC6" />
        </linearGradient>
        <linearGradient id="paint30_linear_85_112" x1="285.61" y1="167.357" x2="-719.969"
            y2="-1021.33" gradientUnits="userSpaceOnUse">
            <stop stop-color="#B6509E" />
            <stop offset="1" stop-color="#2EBAC6" />
        </linearGradient>
        <linearGradient id="paint31_linear_85_112" x1="310.89" y1="204.963" x2="-638.94"
            y2="-773.277" gradientUnits="userSpaceOnUse">
            <stop stop-color="#B6509E" />
            <stop offset="1" stop-color="#2EBAC6" />
        </linearGradient>
        <linearGradient id="paint32_linear_85_112" x1="57.6248" y1="23.8359" x2="16.1611"
            y2="-9.5312" gradientUnits="userSpaceOnUse">
            <stop stop-color="#B6509E" />
            <stop offset="1" stop-color="#2EBAC6" />
        </linearGradient>
        <clipPath id="clip0_85_112">
            <rect width="48" height="48" fill="white" />
        </clipPath>
    </defs>
</svg>