<?xml version="1.0" encoding="UTF-8" standalone="no"?>
<svg
   xml:space="preserve"
   id="Слой_1"
   width="48"
   height="48"
   version="1.1"
   viewBox="0 0 48 48"
   sodipodi:docname="stata.svg"
   inkscape:version="1.3.2 (091e20e, 2023-11-25)"
   xmlns:inkscape="http://www.inkscape.org/namespaces/inkscape"
   xmlns:sodipodi="http://sodipodi.sourceforge.net/DTD/sodipodi-0.dtd"
   xmlns="http://www.w3.org/2000/svg"
   xmlns:svg="http://www.w3.org/2000/svg"><defs
   id="defs2" /><sodipodi:namedview
   id="namedview2"
   pagecolor="#ffffff"
   bordercolor="#000000"
   borderopacity="0.25"
   inkscape:showpageshadow="2"
   inkscape:pageopacity="0.0"
   inkscape:pagecheckerboard="0"
   inkscape:deskcolor="#d1d1d1"
   inkscape:zoom="17.229167"
   inkscape:cx="40.048368"
   inkscape:cy="24.377267"
   inkscape:window-width="1280"
   inkscape:window-height="1387"
   inkscape:window-x="3080"
   inkscape:window-y="25"
   inkscape:window-maximized="0"
   inkscape:current-layer="Слой_1" />
    <style
   id="style1"
   type="text/css">
        .st39 {
            fill: none
        }
    </style>
    <g
   id="g68"
   transform="matrix(0.09580675,0,0,0.09580675,0.03891643,0.04881207)">
        <g
   id="g67">
            <g
   id="g6">
                <g
   id="g1">
                    <path
   id="path1"
   d="m 407.4,250 c -0.3,3.8 -0.5,7.5 -0.7,11.3 -0.1,1.9 0,3.8 -0.3,5.6 l -0.9,5.5 c -0.7,3.7 -0.8,7.5 -1.8,11.1 -1,3.6 -1.9,7.2 -2.8,10.8 -0.3,1.8 -1,3.6 -1.7,5.3 l -2,5.2 -1.9,5.3 c -0.6,1.8 -1.6,3.4 -2.4,5.1 l -4.8,10.1 c -2,3.2 -4,6.3 -5.9,9.6 l 130.2,83.9 11.5,-19.1 c 3.4,-6.6 6.6,-13.3 9.8,-20 1.5,-3.4 3.3,-6.7 4.6,-10.2 l 3.9,-10.5 3.8,-10.5 c 1.3,-3.5 2.5,-7 3.4,-10.6 l 5.5,-21.6 c 1.8,-7.2 2.5,-14.6 3.8,-22 l 1.6,-11 c 0.5,-3.7 0.5,-7.4 0.8,-11.1 l 1,-22.2 z"
   class="st39" />
                </g>
                <linearGradient
   id="SVGID_00000104708511086881872630000014844121601543802027_"
   x1="482.79099"
   x2="68.039001"
   y1="377.15302"
   y2="43.389"
   gradientUnits="userSpaceOnUse">
                    <stop
   id="stop1"
   offset="0"
   style="stop-color:#b6509e" />
                    <stop
   id="stop2"
   offset="1"
   style="stop-color:#2ebac6" />
                </linearGradient>
                <path
   id="path2"
   d="m 469,348.6 -14.1,-6.4 c -3.6,7.1 -6.5,14.5 -11,21.1 l 13.4,7.8 c 4.7,-7 7.9,-14.9 11.7,-22.5"
   style="clip-rule:evenodd;fill:url(#SVGID_00000104708511086881872630000014844121601543802027_);fill-rule:evenodd" />
                <linearGradient
   id="SVGID_00000147179263232614892750000003495048998020798140_"
   x1="509.181"
   x2="94.43"
   y1="344.35901"
   y2="10.594"
   gradientUnits="userSpaceOnUse">
                    <stop
   id="stop3"
   offset="0"
   style="stop-color:#b6509e" />
                    <stop
   id="stop4"
   offset="1"
   style="stop-color:#2ebac6" />
                </linearGradient>
                <path
   id="path4"
   d="m 483.6,305.4 -15.1,-3.6 c -2,7.7 -3.6,15.5 -6.7,22.8 l 14.6,5.1 c 3.3,-7.8 5.1,-16.1 7.2,-24.3"
   style="clip-rule:evenodd;fill:url(#SVGID_00000147179263232614892750000003495048998020798140_);fill-rule:evenodd" />
                <linearGradient
   id="SVGID_00000154384627953943653370000009301978914104084362_"
   x1="533.46002"
   x2="118.708"
   y1="314.189"
   y2="-19.576"
   gradientUnits="userSpaceOnUse">
                    <stop
   id="stop5"
   offset="0"
   style="stop-color:#b6509e" />
                    <stop
   id="stop6"
   offset="1"
   style="stop-color:#2ebac6" />
                </linearGradient>
                <path
   id="path6"
   d="m 489.8,260.4 -15.5,-0.7 -0.6,11.9 c -0.3,4 -1.1,7.9 -1.7,11.8 l 15.3,2.3 c 0.6,-4.2 1.4,-8.4 1.8,-12.6 z"
   style="clip-rule:evenodd;fill:url(#SVGID_00000154384627953943653370000009301978914104084362_);fill-rule:evenodd" />
            </g>
            <g
   id="g12">
                <g
   id="g7">
                    <path
   id="path7"
   d="m 382.3,334.9 c -16.2,25.2 -39.8,45.8 -67,58.1 l 64.4,140.9 c 54.2,-24.6 100.7,-65.1 132.8,-115.1 z"
   class="st39" />
                </g>
                <linearGradient
   id="SVGID_00000091737110006325924560000006426042477305407383_"
   x1="400.60101"
   x2="-14.151"
   y1="479.28601"
   y2="145.521"
   gradientUnits="userSpaceOnUse">
                    <stop
   id="stop7"
   offset="0"
   style="stop-color:#b6509e" />
                    <stop
   id="stop8"
   offset="1"
   style="stop-color:#2ebac6" />
                </linearGradient>
                <path
   id="polygon8"
   d="m 362.3,444.5 -5.1,3.1 -5.4,2.6 7.1,13.8 5.7,-2.8 5.5,-3.3 10.8,-6.6 -8.4,-12.9 z"
   style="clip-rule:evenodd;fill:url(#SVGID_00000091737110006325924560000006426042477305407383_);fill-rule:evenodd" />
                <linearGradient
   id="SVGID_00000023276711056447914070000011818503130533663874_"
   x1="427.18799"
   x2="12.436"
   y1="446.24799"
   y2="112.483"
   gradientUnits="userSpaceOnUse">
                    <stop
   id="stop9"
   offset="0"
   style="stop-color:#b6509e" />
                    <stop
   id="stop10"
   offset="1"
   style="stop-color:#2ebac6" />
                </linearGradient>
                <path
   id="path10"
   d="m 416.6,422.9 -10.7,-11.2 -8.8,8 c -1.5,1.3 -2.9,2.7 -4.4,4 l -4.8,3.6 9.5,12.2 5.1,-3.8 c 1.6,-1.4 3.2,-2.8 4.7,-4.2 z"
   style="clip-rule:evenodd;fill:url(#SVGID_00000023276711056447914070000011818503130533663874_);fill-rule:evenodd" />
                <linearGradient
   id="SVGID_00000134224490732016085270000001901616526776264596_"
   x1="454.922"
   x2="40.169998"
   y1="411.784"
   y2="78.018997"
   gradientUnits="userSpaceOnUse">
                    <stop
   id="stop11"
   offset="0"
   style="stop-color:#b6509e" />
                    <stop
   id="stop12"
   offset="1"
   style="stop-color:#2ebac6" />
                </linearGradient>
                <path
   id="path12"
   d="m 446.2,388.4 -12.7,-8.9 c -4.9,6.2 -9.2,13 -14.8,18.7 l 11.6,10.2 c 6.1,-6.1 10.7,-13.3 15.9,-20"
   style="clip-rule:evenodd;fill:url(#SVGID_00000134224490732016085270000001901616526776264596_);fill-rule:evenodd" />
            </g>
            <g
   id="g18">
                <g
   id="g13">
                    <path
   id="path13"
   d="m 315.3,393 c -13.6,6 -27.9,10.8 -42.8,12.5 l -5.5,0.9 c -1.9,0.3 -3.8,0.2 -5.6,0.3 -3.8,0.2 -7.5,0.4 -11.3,0.7 -3.8,-0.3 -7.5,-0.5 -11.3,-0.7 -1.9,-0.1 -3.8,0 -5.6,-0.3 l -5.5,-0.9 -21.9,153.4 11,1.6 c 3.7,0.5 7.4,0.5 11.1,0.8 l 22.2,1 22.2,-1 c 3.7,-0.3 7.4,-0.3 11.1,-0.8 l 11,-1.6 c 29.5,-3.7 58.3,-12.8 85.4,-25 z"
   class="st39" />
                </g>
                <linearGradient
   id="SVGID_00000090996555707112800340000017514516171555815814_"
   x1="335.62399"
   x2="-79.127998"
   y1="560.03003"
   y2="226.265"
   gradientUnits="userSpaceOnUse">
                    <stop
   id="stop13"
   offset="0"
   style="stop-color:#b6509e" />
                    <stop
   id="stop14"
   offset="1"
   style="stop-color:#2ebac6" />
                </linearGradient>
                <path
   id="path14"
   d="m 251.3,490.2 -0.1,-15.5 c -7.9,-0.2 -15.9,-0.8 -23.8,-1.1 l -1.5,15.4 c 8.4,0.5 16.9,1.1 25.4,1.2"
   style="clip-rule:evenodd;fill:url(#SVGID_00000090996555707112800340000017514516171555815814_);fill-rule:evenodd" />
                <linearGradient
   id="SVGID_00000001654109847398355510000014461126482698818221_"
   x1="353.94299"
   x2="-60.808998"
   y1="537.26501"
   y2="203.50101"
   gradientUnits="userSpaceOnUse">
                    <stop
   id="stop15"
   offset="0"
   style="stop-color:#b6509e" />
                    <stop
   id="stop16"
   offset="1"
   style="stop-color:#2ebac6" />
                </linearGradient>
                <path
   id="path16"
   d="m 296.7,485.7 -3,-15.2 c -7.9,1 -15.7,2.7 -23.6,3.3 l 1.4,15.4 c 8.4,-0.7 16.8,-2.4 25.2,-3.5"
   style="clip-rule:evenodd;fill:url(#SVGID_00000001654109847398355510000014461126482698818221_);fill-rule:evenodd" />
                <linearGradient
   id="SVGID_00000082365719043996990750000000380436505949655995_"
   x1="375.75101"
   x2="-39.000999"
   y1="510.16501"
   y2="176.39999"
   gradientUnits="userSpaceOnUse">
                    <stop
   id="stop17"
   offset="0"
   style="stop-color:#b6509e" />
                    <stop
   id="stop18"
   offset="1"
   style="stop-color:#2ebac6" />
                </linearGradient>
                <path
   id="path18"
   d="m 340.2,472.6 -5.8,-14.4 -11.2,4.1 -5.6,2.1 c -1.9,0.7 -3.8,1 -5.7,1.6 l 4.3,14.9 c 2,-0.6 4.1,-1 6.1,-1.7 l 6,-2.2 z"
   style="clip-rule:evenodd;fill:url(#SVGID_00000082365719043996990750000000380436505949655995_);fill-rule:evenodd" />
            </g>
            <g
   id="g24">
                <g
   id="g19">
                    <path
   id="path19"
   d="M 227.6,405.5 C 212.7,403.9 198.4,399 184.8,393 l -10.1,-4.8 c -3.2,-2 -6.3,-4 -9.6,-5.9 -3.4,-1.7 -6.1,-4.3 -9.2,-6.5 -3,-2.3 -6.2,-4.3 -8.8,-7 l -101.5,117 c 44.7,38.9 101.1,65 160.1,73 z"
   class="st39" />
                </g>
                <linearGradient
   id="SVGID_00000176002008217702801830000010623875381781764515_"
   x1="308.15201"
   x2="-106.599"
   y1="594.16699"
   y2="260.40201"
   gradientUnits="userSpaceOnUse">
                    <stop
   id="stop19"
   offset="0"
   style="stop-color:#b6509e" />
                    <stop
   id="stop20"
   offset="1"
   style="stop-color:#2ebac6" />
                </linearGradient>
                <path
   id="polygon20"
   d="m 124.5,436.5 -4.8,-3.5 -9.5,-7.2 -9.7,12.2 10.2,7.6 5.1,3.8 5.5,3.3 8.3,-13.1 z"
   style="clip-rule:evenodd;fill:url(#SVGID_00000176002008217702801830000010623875381781764515_);fill-rule:evenodd" />
                <linearGradient
   id="SVGID_00000092444432135618381070000000326992058120110750_"
   x1="312.30801"
   x2="-102.444"
   y1="589.00299"
   y2="255.23801"
   gradientUnits="userSpaceOnUse">
                    <stop
   id="stop21"
   offset="0"
   style="stop-color:#b6509e" />
                    <stop
   id="stop22"
   offset="1"
   style="stop-color:#2ebac6" />
                </linearGradient>
                <path
   id="path22"
   d="m 161.9,473.4 5.7,-14.4 c -1.9,-0.7 -3.8,-1.3 -5.6,-2.1 l -5.4,-2.6 -10.7,-5.2 -7.2,13.7 11.5,5.5 5.7,2.8 c 2,0.9 4,1.5 6,2.3"
   style="clip-rule:evenodd;fill:url(#SVGID_00000092444432135618381070000000326992058120110750_);fill-rule:evenodd" />
                <linearGradient
   id="SVGID_00000070103972701577133060000011142479575005581992_"
   x1="321.517"
   x2="-93.235001"
   y1="577.55902"
   y2="243.79401"
   gradientUnits="userSpaceOnUse">
                    <stop
   id="stop23"
   offset="0"
   style="stop-color:#b6509e" />
                    <stop
   id="stop24"
   offset="1"
   style="stop-color:#2ebac6" />
                </linearGradient>
                <path
   id="path24"
   d="m 205.6,486 2.9,-15.2 c -4,-0.4 -7.8,-1.7 -11.6,-2.6 l -11.5,-3 -4.5,14.8 12.3,3.2 c 4.1,1 8.1,2.4 12.4,2.8"
   style="clip-rule:evenodd;fill:url(#SVGID_00000070103972701577133060000011142479575005581992_);fill-rule:evenodd" />
            </g>
            <g
   id="g30">
                <g
   id="g25">
                    <path
   id="path25"
   d="m 147.1,368.8 c -22.8,-19.6 -39.5,-45.9 -48,-74.5 l -148.6,43.6 c 0.9,3.6 2,7.2 3.4,10.6 l 3.8,10.5 3.9,10.5 c 1.3,3.5 3.1,6.8 4.6,10.2 3.2,6.7 6.4,13.4 9.8,20 l 11.5,19.1 c 3.7,6.5 8.4,12.2 12.8,18.2 4.5,5.9 8.8,12 13.9,17.4 l 15,16.4 16.4,15 z"
   class="st39" />
                </g>
                <linearGradient
   id="SVGID_00000003794775683124157800000011913993280982961829_"
   x1="326.474"
   x2="-88.278"
   y1="571.40002"
   y2="237.63499"
   gradientUnits="userSpaceOnUse">
                    <stop
   id="stop25"
   offset="0"
   style="stop-color:#b6509e" />
                    <stop
   id="stop26"
   offset="1"
   style="stop-color:#2ebac6" />
                </linearGradient>
                <path
   id="path26"
   d="m 32.1,350.9 14.1,-6.5 c -3.8,-7 -6,-14.7 -8.9,-22.1 l -14.7,5 c 3.1,7.9 5.5,16.1 9.5,23.6"
   style="clip-rule:evenodd;fill:url(#SVGID_00000003794775683124157800000011913993280982961829_);fill-rule:evenodd" />
                <linearGradient
   id="SVGID_00000104672211666729212850000016548978226426177681_"
   x1="315.32901"
   x2="-99.422997"
   y1="585.24902"
   y2="251.48399"
   gradientUnits="userSpaceOnUse">
                    <stop
   id="stop27"
   offset="0"
   style="stop-color:#b6509e" />
                    <stop
   id="stop28"
   offset="1"
   style="stop-color:#2ebac6" />
                </linearGradient>
                <path
   id="path28"
   d="m 55.2,390.3 12.6,-9.1 c -5.1,-6.1 -8.6,-13.3 -12.9,-20 l -13.5,7.7 c 4.5,7.2 8.4,14.8 13.8,21.4"
   style="clip-rule:evenodd;fill:url(#SVGID_00000104672211666729212850000016548978226426177681_);fill-rule:evenodd" />
                <linearGradient
   id="SVGID_00000148625317021203904910000009879789421656095403_"
   x1="309.172"
   x2="-105.58"
   y1="592.89899"
   y2="259.13501"
   gradientUnits="userSpaceOnUse">
                    <stop
   id="stop29"
   offset="0"
   style="stop-color:#b6509e" />
                    <stop
   id="stop30"
   offset="1"
   style="stop-color:#2ebac6" />
                </linearGradient>
                <path
   id="path30"
   d="m 85.1,424.5 10.6,-11.3 -4.4,-4 c -1.4,-1.4 -2.7,-2.9 -4,-4.4 l -8,-8.8 -11.8,10.1 8.6,9.4 c 1.4,1.6 2.8,3.2 4.3,4.7 z"
   style="clip-rule:evenodd;fill:url(#SVGID_00000148625317021203904910000009879789421656095403_);fill-rule:evenodd" />
            </g>
            <g
   id="g36">
                <g
   id="g31">
                    <path
   id="path31"
   d="m 99.1,294.3 c -0.9,-3.6 -1.8,-7.2 -2.8,-10.8 -1,-3.6 -1.1,-7.4 -1.8,-11.1 l -0.9,-5.5 c -0.3,-1.9 -0.2,-3.8 -0.3,-5.6 -0.2,-3.8 -0.4,-7.5 -0.7,-11.3 0.3,-3.8 0.5,-7.5 0.7,-11.3 0.1,-1.9 0,-3.8 0.3,-5.6 l 0.9,-5.5 c 0.7,-3.7 0.8,-7.5 1.8,-11.1 1,-3.6 1.9,-7.2 2.8,-10.8 L -49.5,162.1 -55,183.7 c -1.8,7.2 -2.5,14.6 -3.8,22 l -1.6,11 c -0.5,3.7 -0.5,7.4 -0.8,11.1 l -1,22.2 1,22.2 c 0.3,3.7 0.3,7.4 0.8,11.1 l 1.6,11 c 1.2,7.3 2,14.7 3.8,22 l 5.5,21.6 z"
   class="st39" />
                </g>
                <linearGradient
   id="SVGID_00000058550949854323963940000013213978808942152090_"
   x1="385.064"
   x2="-29.688"
   y1="498.56799"
   y2="164.80299"
   gradientUnits="userSpaceOnUse">
                    <stop
   id="stop31"
   offset="0"
   style="stop-color:#b6509e" />
                    <stop
   id="stop32"
   offset="1"
   style="stop-color:#2ebac6" />
                </linearGradient>
                <path
   id="path32"
   d="m 12.2,217.1 15.3,2.1 1.8,-11.8 c 0.4,-4 1.8,-7.7 2.7,-11.6 l -15,-3.7 c -0.9,4.1 -2.4,8.2 -2.9,12.4 z"
   style="clip-rule:evenodd;fill:url(#SVGID_00000058550949854323963940000013213978808942152090_);fill-rule:evenodd" />
                <linearGradient
   id="SVGID_00000148622084711658347150000016511535402227943326_"
   x1="362.065"
   x2="-52.687"
   y1="527.172"
   y2="193.407"
   gradientUnits="userSpaceOnUse">
                    <stop
   id="stop33"
   offset="0"
   style="stop-color:#b6509e" />
                    <stop
   id="stop34"
   offset="1"
   style="stop-color:#2ebac6" />
                </linearGradient>
                <path
   id="polygon34"
   d="m 10.3,237.2 -0.6,12.7 0.6,12.8 15.5,-0.8 -0.6,-12 0.6,-11.9 z"
   style="clip-rule:evenodd;fill:url(#SVGID_00000148622084711658347150000016511535402227943326_);fill-rule:evenodd" />
                <linearGradient
   id="SVGID_00000101083443461405630530000006842283544465970837_"
   x1="342.34799"
   x2="-72.403999"
   y1="551.67401"
   y2="217.909"
   gradientUnits="userSpaceOnUse">
                    <stop
   id="stop35"
   offset="0"
   style="stop-color:#b6509e" />
                    <stop
   id="stop36"
   offset="1"
   style="stop-color:#2ebac6" />
                </linearGradient>
                <path
   id="path36"
   d="m 16.9,307.6 15,-3.7 c -2.3,-7.6 -3.3,-15.5 -4.5,-23.4 L 12,282.6 c 1.5,8.4 2.5,16.8 4.9,25"
   style="clip-rule:evenodd;fill:url(#SVGID_00000101083443461405630530000006842283544465970837_);fill-rule:evenodd" />
            </g>
            <g
   id="g42">
                <g
   id="g37">
                    <path
   id="path37"
   d="m 99.1,205.7 c 8.5,-28.6 25.2,-54.8 48,-74.5 L 45.6,14.2 29.2,29.2 14.2,45.6 C 9,51 4.7,57.1 0.3,63 -4.1,69 -8.8,74.8 -12.5,81.2 L -24,100.3 c -3.4,6.6 -6.6,13.3 -9.8,20 -1.5,3.4 -3.3,6.7 -4.6,10.2 l -3.9,10.5 -3.8,10.5 c -1.3,3.5 -2.5,7 -3.4,10.6 z"
   class="st39" />
                </g>
                <linearGradient
   id="SVGID_00000002376137640156149470000006679357018455115191_"
   x1="465.84698"
   x2="51.096001"
   y1="398.20801"
   y2="64.443001"
   gradientUnits="userSpaceOnUse">
                    <stop
   id="stop37"
   offset="0"
   style="stop-color:#b6509e" />
                    <stop
   id="stop38"
   offset="1"
   style="stop-color:#2ebac6" />
                </linearGradient>
                <path
   id="path38"
   d="m 67.7,93.7 11.8,10.1 8,-8.8 c 1.4,-1.5 2.6,-3 4,-4.4 l 4.4,-4 -10.6,-11.2 -4.7,4.3 c -1.5,1.5 -2.9,3.1 -4.3,4.7 z"
   style="clip-rule:evenodd;fill:url(#SVGID_00000002376137640156149470000006679357018455115191_);fill-rule:evenodd" />
                <linearGradient
   id="SVGID_00000066483276125556409010000015182069227145532805_"
   x1="437.715"
   x2="22.962999"
   y1="433.16699"
   y2="99.402"
   gradientUnits="userSpaceOnUse">
                    <stop
   id="stop39"
   offset="0"
   style="stop-color:#b6509e" />
                    <stop
   id="stop40"
   offset="1"
   style="stop-color:#2ebac6" />
                </linearGradient>
                <path
   id="path40"
   d="m 41.4,131 13.4,7.7 c 4.3,-6.7 7.9,-13.8 12.9,-20 L 55.1,109.6 C 49.8,116.2 46,123.8 41.4,131"
   style="clip-rule:evenodd;fill:url(#SVGID_00000066483276125556409010000015182069227145532805_);fill-rule:evenodd" />
                <linearGradient
   id="SVGID_00000005264282004135174270000000348760371301044121_"
   x1="410.74799"
   x2="-4.0029998"
   y1="466.67599"
   y2="132.911"
   gradientUnits="userSpaceOnUse">
                    <stop
   id="stop41"
   offset="0"
   style="stop-color:#b6509e" />
                    <stop
   id="stop42"
   offset="1"
   style="stop-color:#2ebac6" />
                </linearGradient>
                <path
   id="path42"
   d="m 22.7,172.4 14.7,5 c 2.8,-7.4 5.1,-15.1 8.9,-22.1 l -14,-6.5 c -4.1,7.6 -6.6,15.7 -9.6,23.6"
   style="clip-rule:evenodd;fill:url(#SVGID_00000005264282004135174270000000348760371301044121_);fill-rule:evenodd" />
            </g>
            <g
   id="g48">
                <g
   id="g43">
                    <path
   id="path43"
   d="m 147.1,131.2 c 2.6,-2.7 5.8,-4.7 8.8,-7 3.1,-2.2 5.8,-4.8 9.2,-6.5 3.2,-1.9 6.4,-3.9 9.6,-5.9 l 10.1,-4.8 c 13.6,-6 27.9,-10.8 42.8,-12.5 L 205.7,-58.8 c -59,8 -115.3,34.2 -160.1,73 z"
   class="st39" />
                </g>
                <linearGradient
   id="SVGID_00000142877909234072922670000012744162597170337698_"
   x1="542.26801"
   x2="127.516"
   y1="303.24399"
   y2="-30.52"
   gradientUnits="userSpaceOnUse">
                    <stop
   id="stop43"
   offset="0"
   style="stop-color:#b6509e" />
                    <stop
   id="stop44"
   offset="1"
   style="stop-color:#2ebac6" />
                </linearGradient>
                <path
   id="path44"
   d="m 181.1,19.9 4.4,14.8 11.5,-3 c 3.9,-0.9 7.7,-2.2 11.6,-2.6 l -2.8,-15.2 c -4.2,0.5 -8.3,1.7 -12.4,2.7 z"
   style="clip-rule:evenodd;fill:url(#SVGID_00000142877909234072922670000012744162597170337698_);fill-rule:evenodd" />
                <linearGradient
   id="SVGID_00000106857675396471537470000011430115657239397250_"
   x1="518.87701"
   x2="104.126"
   y1="332.31"
   y2="-1.455"
   gradientUnits="userSpaceOnUse">
                    <stop
   id="stop45"
   offset="0"
   style="stop-color:#b6509e" />
                    <stop
   id="stop46"
   offset="1"
   style="stop-color:#2ebac6" />
                </linearGradient>
                <path
   id="path46"
   d="m 138.8,37.1 7.2,13.7 10.7,-5.2 5.4,-2.6 c 1.8,-0.8 3.7,-1.4 5.6,-2.1 L 162,26.6 c -2,0.7 -4,1.4 -6,2.2 l -5.7,2.8 z"
   style="clip-rule:evenodd;fill:url(#SVGID_00000106857675396471537470000011430115657239397250_);fill-rule:evenodd" />
                <linearGradient
   id="SVGID_00000103977686473083600680000014298624371071771265_"
   x1="493.21301"
   x2="78.461998"
   y1="364.20099"
   y2="30.437"
   gradientUnits="userSpaceOnUse">
                    <stop
   id="stop47"
   offset="0"
   style="stop-color:#b6509e" />
                    <stop
   id="stop48"
   offset="1"
   style="stop-color:#2ebac6" />
                </linearGradient>
                <path
   id="path48"
   d="m 100.7,61.9 9.6,12.1 9.5,-7.1 c 1.6,-1.2 3.2,-2.4 4.8,-3.5 l 5.1,-3.1 -8.3,-13.1 -5.4,3.3 c -1.8,1.2 -3.4,2.5 -5.1,3.8 z"
   style="clip-rule:evenodd;fill:url(#SVGID_00000103977686473083600680000014298624371071771265_);fill-rule:evenodd" />
            </g>
            <g
   id="g54">
                <g
   id="g49">
                    <path
   id="path49"
   d="m 227.6,94.5 5.5,-0.9 c 1.9,-0.3 3.8,-0.2 5.6,-0.3 3.8,-0.2 7.5,-0.4 11.3,-0.7 3.8,0.3 7.5,0.5 11.3,0.7 1.9,0.1 3.8,0 5.6,0.3 l 5.5,0.9 c 14.9,1.6 29.2,6.5 42.8,12.5 l 64.4,-140.9 c -27.1,-12.2 -55.8,-21.3 -85.4,-25 l -11,-1.6 c -3.7,-0.5 -7.4,-0.5 -11.1,-0.8 l -22.2,-1 -22.2,1 c -3.7,0.3 -7.4,0.3 -11.1,0.8 l -11,1.6 z"
   class="st39" />
                </g>
                <linearGradient
   id="SVGID_00000052103213530023177160000002944217849268693427_"
   x1="590.461"
   x2="175.71001"
   y1="243.356"
   y2="-90.408997"
   gradientUnits="userSpaceOnUse">
                    <stop
   id="stop49"
   offset="0"
   style="stop-color:#b6509e" />
                    <stop
   id="stop50"
   offset="1"
   style="stop-color:#2ebac6" />
                </linearGradient>
                <path
   id="path50"
   d="m 316.4,19.2 -4.3,14.9 c 3.9,0.8 7.6,2.2 11.3,3.6 l 11.2,4.1 5.8,-14.3 -12,-4.4 c -3.8,-1.5 -7.8,-3 -12,-3.9"
   style="clip-rule:evenodd;fill:url(#SVGID_00000052103213530023177160000002944217849268693427_);fill-rule:evenodd" />
                <linearGradient
   id="SVGID_00000168113226916419175950000014654502115656089231_"
   x1="578.76801"
   x2="164.01601"
   y1="257.88699"
   y2="-75.876999"
   gradientUnits="userSpaceOnUse">
                    <stop
   id="stop51"
   offset="0"
   style="stop-color:#b6509e" />
                    <stop
   id="stop52"
   offset="1"
   style="stop-color:#2ebac6" />
                </linearGradient>
                <path
   id="path52"
   d="m 271.6,10.8 -1.4,15.4 c 7.9,0.6 15.7,2.3 23.6,3.3 l 3,-15.2 C 288.4,13.2 280,11.5 271.6,10.8"
   style="clip-rule:evenodd;fill:url(#SVGID_00000168113226916419175950000014654502115656089231_);fill-rule:evenodd" />
                <linearGradient
   id="SVGID_00000032624055548118906680000017923149123676298943_"
   x1="562.599"
   x2="147.847"
   y1="277.979"
   y2="-55.785"
   gradientUnits="userSpaceOnUse">
                    <stop
   id="stop53"
   offset="0"
   style="stop-color:#b6509e" />
                    <stop
   id="stop54"
   offset="1"
   style="stop-color:#2ebac6" />
                </linearGradient>
                <path
   id="path54"
   d="m 226.1,10.9 1.5,15.4 c 7.9,-0.3 15.9,-0.9 23.8,-1.1 l 0.1,-15.5 c -8.4,0.2 -16.9,0.8 -25.4,1.2"
   style="clip-rule:evenodd;fill:url(#SVGID_00000032624055548118906680000017923149123676298943_);fill-rule:evenodd" />
            </g>
            <g
   id="g60">
                <g
   id="g55">
                    <path
   id="path55"
   d="m 315.3,107 c 27.2,12.3 50.8,32.9 67,58.1 L 512.5,81.2 C 480.4,31.3 433.9,-9.2 379.7,-33.9 Z"
   class="st39" />
                </g>
                <linearGradient
   id="SVGID_00000064347573839370157820000017572030898596083878_"
   x1="595.19598"
   x2="180.444"
   y1="237.47301"
   y2="-96.292"
   gradientUnits="userSpaceOnUse">
                    <stop
   id="stop55"
   offset="0"
   style="stop-color:#b6509e" />
                    <stop
   id="stop56"
   offset="1"
   style="stop-color:#2ebac6" />
                </linearGradient>
                <path
   id="path56"
   d="m 430.6,91.8 -11.7,10.2 4,4.4 c 1.3,1.5 2.4,3.2 3.6,4.7 l 7.1,9.5 12.7,-8.9 -7.6,-10.2 c -1.3,-1.7 -2.5,-3.4 -3.9,-5 z"
   style="clip-rule:evenodd;fill:url(#SVGID_00000064347573839370157820000017572030898596083878_);fill-rule:evenodd" />
                <linearGradient
   id="SVGID_00000055708723406501865340000017864807875619820717_"
   x1="598.84802"
   x2="184.09599"
   y1="232.93401"
   y2="-100.83"
   gradientUnits="userSpaceOnUse">
                    <stop
   id="stop57"
   offset="0"
   style="stop-color:#b6509e" />
                    <stop
   id="stop58"
   offset="1"
   style="stop-color:#2ebac6" />
                </linearGradient>
                <path
   id="path58"
   d="m 397.4,60.5 -9.5,12.2 4.8,3.6 c 1.5,1.3 2.9,2.7 4.4,4 l 8.8,8 10.8,-11.2 -9.4,-8.6 c -1.6,-1.4 -3.1,-2.9 -4.7,-4.2 z"
   style="clip-rule:evenodd;fill:url(#SVGID_00000055708723406501865340000017864807875619820717_);fill-rule:evenodd" />
                <linearGradient
   id="SVGID_00000003096860706853110920000000256122463884852656_"
   x1="597.237"
   x2="182.48599"
   y1="234.936"
   y2="-98.829002"
   gradientUnits="userSpaceOnUse">
                    <stop
   id="stop59"
   offset="0"
   style="stop-color:#b6509e" />
                    <stop
   id="stop60"
   offset="1"
   style="stop-color:#2ebac6" />
                </linearGradient>
                <path
   id="polygon60"
   d="m 357.4,52.5 5.1,3.1 10.2,6.2 4.49925,-6.881204 L 381.2,48.8 l -10.9,-6.6 -5.5,-3.3 -5.7,-2.8 -7,13.8 z"
   style="clip-rule:evenodd;fill:url(#SVGID_00000003096860706853110920000000256122463884852656_);fill-rule:evenodd"
   sodipodi:nodetypes="cccccccccc" />
            </g>
            <g
   id="g66">
                <g
   id="g61">
                    <path
   id="path60"
   d="m 382.3,165.1 c 1.9,3.2 3.9,6.4 5.9,9.6 l 4.8,10.1 c 0.8,1.7 1.8,3.3 2.4,5.1 l 1.9,5.3 2,5.2 c 0.7,1.7 1.4,3.5 1.7,5.3 0.9,3.6 1.8,7.2 2.8,10.8 1,3.6 1.1,7.4 1.8,11.1 l 0.9,5.5 c 0.3,1.9 0.2,3.8 0.3,5.6 0.2,3.8 0.4,7.5 0.7,11.3 h 154.9 l -1,-22.2 c -0.3,-3.7 -0.3,-7.4 -0.8,-11.1 l -1.6,-11 c -1.2,-7.3 -2,-14.7 -3.8,-22 l -5.5,-21.6 c -0.9,-3.6 -2,-7.2 -3.4,-10.6 l -3.8,-10.5 -3.9,-10.5 c -1.3,-3.5 -3.1,-6.8 -4.6,-10.2 -3.2,-6.7 -6.4,-13.4 -9.8,-20 L 512.7,81.2 Z"
   class="st39" />
                </g>
                <linearGradient
   id="SVGID_00000081649527427247603540000013030321784522334646_"
   x1="555.10602"
   x2="140.354"
   y1="287.29099"
   y2="-46.473999"
   gradientUnits="userSpaceOnUse">
                    <stop
   id="stop61"
   offset="0"
   style="stop-color:#b6509e" />
                    <stop
   id="stop62"
   offset="1"
   style="stop-color:#2ebac6" />
                </linearGradient>
                <path
   id="path62"
   d="m 487.4,214.6 -15.3,2.3 c 0.5,3.9 1.4,7.8 1.6,11.8 l 0.6,11.9 15.5,-0.6 -0.6,-12.7 c -0.4,-4.4 -1.2,-8.5 -1.8,-12.7"
   style="clip-rule:evenodd;fill:url(#SVGID_00000081649527427247603540000013030321784522334646_);fill-rule:evenodd" />
                <linearGradient
   id="SVGID_00000178895552897056328320000005882026752739807421_"
   x1="572.95898"
   x2="158.207"
   y1="265.10599"
   y2="-68.658997"
   gradientUnits="userSpaceOnUse">
                    <stop
   id="stop63"
   offset="0"
   style="stop-color:#b6509e" />
                    <stop
   id="stop64"
   offset="1"
   style="stop-color:#2ebac6" />
                </linearGradient>
                <path
   id="path64"
   d="m 476.5,170.3 -14.6,5.1 c 3.1,7.3 4.7,15.2 6.7,22.8 l 15.1,-3.6 c -2.2,-8.1 -4,-16.4 -7.2,-24.3"
   style="clip-rule:evenodd;fill:url(#SVGID_00000178895552897056328320000005882026752739807421_);fill-rule:evenodd" />
                <linearGradient
   id="SVGID_00000159430980987490825690000002652148113673706165_"
   x1="586.44"
   x2="171.688"
   y1="248.353"
   y2="-85.411003"
   gradientUnits="userSpaceOnUse">
                    <stop
   id="stop65"
   offset="0"
   style="stop-color:#b6509e" />
                    <stop
   id="stop66"
   offset="1"
   style="stop-color:#2ebac6" />
                </linearGradient>
                <path
   id="path66"
   d="m 457.4,129.1 -13.4,7.8 c 4.5,6.6 7.3,14.1 10.9,21.1 l 14.1,-6.4 c -3.7,-7.5 -6.9,-15.5 -11.6,-22.5"
   style="clip-rule:evenodd;fill:url(#SVGID_00000159430980987490825690000002652148113673706165_);fill-rule:evenodd" />
            </g>
        </g>
    </g>
    <g
   id="g2"><template /></g>
</svg>
