<svg xmlns="http://www.w3.org/2000/svg" width="48" height="48" data-name="Group 27021" viewBox="0 0 24 24"><defs><linearGradient id="a" x1=".907" x2=".163" y1=".227" y2=".853" gradientUnits="objectBoundingBox"><stop offset="0" stop-color="#b6509e"/><stop offset="1" stop-color="#2ebac6"/></linearGradient></defs><circle cx="12" cy="12" r="12" fill="url(#a)" data-name="Ellipse 991"/><path fill="#fff" d="m17.251 16.78-4.059-9.809a1.09 1.09 0 0 0-1.017-.755h-.359a1.09 1.09 0 0 0-1.017.755l-1.766 4.274H7.697a.73.73 0 0 0-.728.725v.01a.73.73 0 0 0 .728.725h.718L6.73 16.78a.9.9 0 0 0-.05.278.77.77 0 0 0 .2.547.7.7 0 0 0 .539.209.73.73 0 0 0 .419-.139.9.9 0 0 0 .289-.368l1.853-4.601h1.287a.73.73 0 0 0 .728-.725v-.02a.73.73 0 0 0-.728-.725h-.687l1.415-3.529 3.859 9.6a.9.9 0 0 0 .289.368.73.73 0 0 0 .419.139.7.7 0 0 0 .539-.209.77.77 0 0 0 .2-.547.7.7 0 0 0-.05-.278" data-name="Path 2434"/></svg>