<svg xmlns="http://www.w3.org/2000/svg" width="48" height="48" fill="none" viewBox="0 0 258 258"><path fill="url(#a)" stroke="#000" stroke-width=".5" d="M129 257c70.692 0 128-57.308 128-128S199.692 1 129 1 1 58.307 1 129c0 70.692 57.307 128 128 128Z"/><path fill="#FFF6F0" stroke="#000" d="M42.6 106.049 129 20.2l86.4 85.849-42.396 42.125-43.173-42.898-.776-.771-.778.771-43.2 42.924z"/><path fill="#2A363A" d="M61.697 161.64h33.945v9.677H71.834v12.288h22.887v9.676H71.834v12.442h24.73v9.677H61.697zm83.582 0v35.174q0 9.216-4.916 14.439-4.838 5.222-14.438 5.222c-9.6 0-11.238-1.741-14.515-5.222q-4.839-5.223-4.839-14.439V161.64h10.138v35.174q0 4.762 2.227 7.45 2.228 2.688 6.989 2.688c4.761 0 5.504-.896 6.989-2.688q2.227-2.688 2.227-7.45V161.64zm45.872 53.76h-10.137v-16.128q0-1.843-.999-2.995-.922-1.152-3.148-1.152h-11.674V215.4h-10.138v-53.76h20.583q4.147 0 7.296 1.152t5.222 3.225a12.8 12.8 0 0 1 3.226 4.685q1.152 2.688 1.152 5.76v1.843q0 3.303-1.767 6.221-1.766 2.842-5.452 4.378v1.382q2.688.307 4.224 2.074 1.612 1.766 1.612 4.454zm-25.958-29.952h9.677q3.686 0 5.606-1.69 1.92-1.766 1.92-4.915v-.922q0-2.688-1.92-4.608-1.92-1.996-5.606-1.996h-9.677z"/><defs><linearGradient id="a" x1="129" x2="129" y1="1" y2="257" gradientUnits="userSpaceOnUse"><stop stop-color="#99B998"/><stop offset="1" stop-color="#FDCEAA"/></linearGradient></defs></svg>