<svg xmlns="http://www.w3.org/2000/svg" width="48" height="48" fill="none" viewBox="0 0 46 46"><path fill="#fff" stroke="#383D51" stroke-width=".5" d="M45.75 23c0 12.565-10.185 22.75-22.75 22.75S.25 35.565.25 23 10.435.25 23 .25 45.75 10.435 45.75 23Z"/><path fill="#000" fill-rule="evenodd" d="M29.175 25.718c5.36.785 9.098 2.562 9.098 4.628 0 2.794-6.838 5.059-15.273 5.059S7.727 33.141 7.727 30.346c0-2.066 3.739-3.843 9.098-4.628a31.6 31.6 0 0 0 6.175.58 32 32 0 0 0 6.036-.552l.14-.028Zm-2.301-8.45c4.864.536 8.372 2.053 8.372 3.84 0 2.235-5.483 4.047-12.246 4.047s-12.246-1.812-12.246-4.047c0-1.787 3.508-3.304 8.372-3.84a24.4 24.4 0 0 0 3.874.3 24.6 24.6 0 0 0 3.748-.28z" clip-rule="evenodd"/><path fill="#000" d="M23 16.672c5.017 0 9.084-1.359 9.084-3.035S28.017 10.602 23 10.602s-9.084 1.358-9.084 3.035c0 1.676 4.067 3.035 9.084 3.035"/></svg>