<svg xmlns="http://www.w3.org/2000/svg" width="48" height="48" fill="none" viewBox="0 0 48 48"><g clip-path="url(#a)"><g clip-path="url(#b)"><path fill="#1E1E1E" fill-rule="evenodd" d="M24 0c13.253 0 24 10.747 24 24S37.253 48 24 48 0 37.253 0 24 10.747 0 24 0" clip-rule="evenodd"/><path fill="#fff" d="M24.36 34.032c-7.675 0-13.896-2.218-13.896-5.189 0-1.55 1.694-2.947 4.406-3.931 2.117 1.358 5.67 2.054 9.696 2.054 3.932 0 7.407-.85 9.543-2.15 2.558.974 4.147 2.333 4.147 3.83 0 2.976-6.22 5.386-13.896 5.386"/><path fill="#fff" d="M24.442 26.3c-5.818 0-10.536-1.825-10.536-4.076 0-1.248 1.454-2.366 3.734-3.11 1.627.85 4.066 1.392 6.802 1.392s5.174-.543 6.801-1.392c2.285.748 3.735 1.862 3.735 3.11.004 2.251-4.714 4.075-10.536 4.075"/><path fill="#fff" d="M24.403 19.829c-4.497 0-8.145-1.507-8.145-3.36s3.648-3.36 8.145-3.36c4.498 0 8.146 1.507 8.146 3.36s-3.648 3.36-8.146 3.36"/></g></g><defs><clipPath id="a"><path fill="#fff" d="M0 0h48v48H0z"/></clipPath><clipPath id="b"><path fill="#fff" d="M0 0h48v48H0z"/></clipPath></defs></svg>