<svg xmlns="http://www.w3.org/2000/svg" width="48" height="48" fill="none" viewBox="0 0 32 32"><path fill="#000" d="M16 32c8.837 0 16-7.163 16-16S24.837 0 16 0 0 7.163 0 16s7.163 16 16 16"/><path fill="#FFB500" d="m19.39 16.7.01 3.82.21-.13-.23.23-.01.01h-.01l-3.26 1.92v1.17l4.4-2.5-.05-5.08z"/><path fill="#FFB500" d="M20.59 16.02v.02l.05 5.18.99.46-.02-6.15-3.26-2.04-1.21.69 3.41 1.8s.03.03.03.04zM21.59 11.4v-1.18l-5.54-3.16v1.25zM11.34 10.87l4.57-2.56V7.06l-5.53 3.23.02 6.4.89-.65.02-5.1s.01-.04.03-.05zM21.54 21.79l-.98-.45-4.5 2.56h-.16l.06-.03-3.43-1.93s-.03-.02-.03-.04c-.02-.03 0-.07.02-.08l1.14-.65 3.29-1.86-5.58-3.18-.91.67 4.42 2.43s.03.02.03.04c.01.03 0 .06-.02.08l-4.41 2.59L16 25.07l5.55-3.28z"/><path fill="#FFB500" d="M16.93 14.2s0-.07.02-.08l1.36-.78 3.21-1.82-5.55-3.09-4.45 2.49 1.1.49 3.33-1.9h.06l3.32 1.9c.02 0 .03.02.03.04.02.03 0 .07-.02.08l-4.41 2.59 4.39 2.47 1.04-.55-3.4-1.8s-.03-.02-.04-.04zM15.95 23.72v-1.15l-2.28-1.25-1 .56zM10.41 20.57v1.26l4.3-2.52-1.05-.58z"/><path fill="#FFB500" d="m14.88 12.8-.01 1.19 4.3-2.52-.94-.54zM17 17.99l-4.39-2.42s-.02-.02-.03-.04v-.02l-.01-3.98-1.13-.5-.02 4.99L17 19.21z"/></svg>