<svg xmlns="http://www.w3.org/2000/svg" width="48" height="48" fill="none" viewBox="0 0 256 256"><g clip-path="url(#a)"><path fill="#fff" d="M249.6 128C249.6 60.842 195.158 6.4 128 6.4S6.4 60.842 6.4 128 60.842 249.6 128 249.6 249.6 195.158 249.6 128"/><path fill="#0052FF" d="m128 38.4-54.097 91.376L128 104.653z"/><path fill="#6697FF" d="m128 162.061-54.097-32.4L128 104.653z"/><path fill="#0052FF" d="m127.995 172.663-54.092-32.41 54.092 77.347z"/><path fill="#6697FF" d="m128 38.4 54.095 91.376L128 104.653z"/><path fill="#CCDCFF" d="m128 162.061 54.095-32.285L128 104.653z"/><path fill="#6697FF" d="m128 172.663 54.095-31.824L128 217.6z"/><path fill="#0052FF" fill-rule="evenodd" d="M128 12.8C64.377 12.8 12.8 64.377 12.8 128S64.377 243.2 128 243.2 243.2 191.623 243.2 128 191.623 12.8 128 12.8M0 128C0 57.308 57.308 0 128 0s128 57.308 128 128-57.308 128-128 128S0 198.692 0 128" clip-rule="evenodd"/></g><defs><clipPath id="a"><path fill="#fff" d="M0 0h256v256H0z"/></clipPath></defs></svg>