<svg xmlns="http://www.w3.org/2000/svg" width="48" height="48" fill="none" viewBox="0 0 48 48"><g clip-path="url(#a)"><path fill="#8150E6" d="M47.879 24c0 13.186-10.652 23.875-23.792 23.875S.295 37.185.295 24 10.947.125 24.087.125 47.879 10.815 47.879 24"/><path fill="#3C176B" d="M46.99 30.486 30.05 13.76l-9.652-1.809-5.65 21.33 14.255 14.082c8.671-1.829 15.605-8.395 17.986-16.877"/><path fill="#6B42BD" d="M22.033 31.412V18.213h3.324q1.676 0 3.079.427a6.5 6.5 0 0 1 2.427 1.328q.141.125.273.259c.012-1.79-.634-3.572-1.548-5.185a11.4 11.4 0 0 0-3.133-.434h-8.064v16.787c1.225.014 2.422.114 3.642.017"/><path fill="#9B74EC" d="M35.994 20.854q-.867-2.103-2.312-3.495a9.3 9.3 0 0 0-3.324-2.071q-.38-.137-.77-.246c.914 1.613 1.56 3.396 1.548 5.185.555.562.91 2.742 1.242 3.578l-10.345 9.477v-1.87c-1.22.097-2.417-.003-3.642-.017v5.492h7.631q1.85 0 3.772-.68a10.7 10.7 0 0 0 3.498-2.056q1.575-1.375 2.572-3.478t.998-4.98c0-1.898-.29-3.437-.868-4.84"/><path fill="#fff" d="M21.109 29.672q1.704 0 3.222-.427t2.645-1.328q1.128-.9 1.778-2.34t.65-3.495c0-1.349-.192-2.398-.578-3.368q-.578-1.455-1.604-2.356a6.5 6.5 0 0 0-2.428-1.328q-1.402-.427-3.079-.427h-3.323v15.069zm-6.36-18.674h8.065q2.024 0 3.902.68a9.3 9.3 0 0 1 3.324 2.071q1.446 1.392 2.313 3.495c.578 1.402.867 2.94.867 4.838q0 2.879-.997 4.981-.998 2.103-2.573 3.479a10.7 10.7 0 0 1-3.497 2.055q-1.923.68-3.773.68h-7.63z"/></g><defs><clipPath id="a"><path fill="#fff" d="M0 0h48v48H0z"/></clipPath></defs></svg>