<svg xmlns="http://www.w3.org/2000/svg" width="48" height="48" fill="none" viewBox="0 0 256 256"><rect width="256" height="256" fill="url(#a)" rx="128"/><path fill="#fff" d="M72.097 111.782c1.661 3.538 5.772 10.53 5.772 10.53l47.526-78.28-46.384 32.272a20.2 20.2 0 0 0-6.602 7.24 33.4 33.4 0 0 0-.312 28.238m-18.832 25.777a52.55 52.55 0 0 0 6.228 21.381 52.7 52.7 0 0 0 14.535 16.91l51.304 35.644s-32.099-46.091-59.173-91.954a46.2 46.2 0 0 1-5.44-15.639 25 25 0 0 1 0-7.51c-.706 1.303-2.076 3.972-2.076 3.972a60.6 60.6 0 0 0-5.544 17.688 108 108 0 0 0 .166 19.508m130.888 6.185c-1.661-3.537-5.772-10.53-5.772-10.53l-47.526 78.28 46.384-32.251a20.2 20.2 0 0 0 6.603-7.24 33.39 33.39 0 0 0 .311-28.259m18.832-25.776a52.55 52.55 0 0 0-6.228-21.382 52.7 52.7 0 0 0-14.535-16.91l-51.304-35.644s32.078 46.09 59.173 91.954a46.2 46.2 0 0 1 5.419 15.64c.379 2.489.379 5.02 0 7.509.706-1.303 2.076-3.972 2.076-3.972a60.5 60.5 0 0 0 5.544-17.687c.542-6.494.493-13.023-.145-19.508"/><path fill="#fff" d="M72.409 83.544a20.2 20.2 0 0 1 6.602-7.24l46.384-32.272-47.526 78.301s-4.153-6.992-5.772-10.53a33.39 33.39 0 0 1 .312-28.259M53.265 137.56a52.55 52.55 0 0 0 6.228 21.381 52.7 52.7 0 0 0 14.535 16.91l51.304 35.644s-32.099-46.091-59.173-91.954a46.2 46.2 0 0 1-5.44-15.639 25 25 0 0 1 0-7.51c-.706 1.303-2.076 3.972-2.076 3.972a60.6 60.6 0 0 0-5.544 17.688 108 108 0 0 0 .166 19.508m130.805 6.206c-1.661-3.538-5.772-10.53-5.772-10.53l-47.443 78.259 46.384-32.251a20.2 20.2 0 0 0 6.603-7.24 33.39 33.39 0 0 0 .311-28.259zm18.832-25.777a52.55 52.55 0 0 0-6.228-21.381 52.7 52.7 0 0 0-14.535-16.91l-51.221-35.665s32.078 46.09 59.173 91.954a46.2 46.2 0 0 1 5.419 15.64c.379 2.489.379 5.02 0 7.509.706-1.303 2.076-3.972 2.076-3.972a60.5 60.5 0 0 0 5.544-17.687c.542-6.494.493-13.023-.145-19.508z"/><defs><linearGradient id="a" x1="170.517" x2="-78.302" y1="286.341" y2="-151.616" gradientUnits="userSpaceOnUse"><stop stop-color="#44BCF0"/><stop offset=".379" stop-color="#7298F8"/><stop offset="1" stop-color="#A099FF"/></linearGradient></defs></svg>