<svg xmlns="http://www.w3.org/2000/svg" width="48" height="48" fill="none" viewBox="0 0 32 32"><path fill="#000" d="M16 0c8.84 0 16 7.16 16 16s-7.16 16-16 16S0 24.84 0 16 7.16 0 16 0"/><path fill="#fff" d="m5.13 9.57 17.35 17.35 4.46-4.46L9.59 5.11z"/><path fill="#fff" d="M9.59 26.92 26.94 9.57l-4.46-4.46L5.13 22.46z"/><path fill="#000" d="M16 5.92c5.57 0 10.08 4.51 10.08 10.08S21.57 26.08 16 26.08 5.92 21.57 5.92 16 10.43 5.92 16 5.92"/><path fill="#fff" d="m16 7.95-4.86 8.21L16 13.9z"/><path fill="#B1B1B1" d="m16 19.06-4.86-2.91L16 13.9z"/><path fill="#fff" d="m16 20.01-4.86-2.91L16 24.05z"/><path fill="#B7B7B7" d="m16 7.95 4.86 8.21L16 13.9z"/><path fill="#949090" d="m16 19.06 4.86-2.9L16 13.9zm0 .95 4.86-2.86-4.86 6.9z"/></svg>