<svg xmlns="http://www.w3.org/2000/svg" width="48" height="48" fill="none" viewBox="0 0 48 48"><path fill="#000" d="M24 46.728c12.553 0 22.728-10.175 22.728-22.728C46.728 11.448 36.553 1.272 24 1.272 11.448 1.272 1.272 11.448 1.272 24S11.448 46.728 24 46.728"/><path fill="#fff" d="M33.23 29.515c0-2.101-.873-3.827-2.595-5.132-1.274-.965-3.054-1.756-5.94-2.644-5.198-1.597-5.198-2.516-5.198-3.256 0-1.023 1.514-2.44 4.354-2.44 1.681 0 4.503.423 4.503 3.261h4.727c0-1.337-.3-2.585-.867-3.674l3.794-3.793-3.343-3.343-3.866 3.867c-1.402-.687-3.08-1.044-4.946-1.044-1.74 0-3.338.335-4.716.98l-3.802-3.801-3.343 3.342 3.607 3.607a6.1 6.1 0 0 0-.828 3.04c0 2.101.874 3.827 2.596 5.132 1.273.965 3.048 1.755 5.935 2.642 5.197 1.595 5.2 2.518 5.2 3.258 0 1.023-1.513 2.44-4.353 2.44-1.681 0-4.503-.423-4.503-3.261h-4.728c0 1.342.302 2.594.873 3.686l-3.8 3.8 3.342 3.343 3.88-3.88c1.4.684 3.073 1.04 4.934 1.04 1.734 0 3.328-.334 4.703-.974l3.815 3.815 3.343-3.342-3.614-3.614c.544-.948.837-1.99.837-3.055"/></svg>