<svg xmlns="http://www.w3.org/2000/svg" width="48" height="48" fill="none" viewBox="0 0 48 48"><g clip-path="url(#a)"><path fill="#000" fill-rule="evenodd" d="M24 48C10.745 48 0 37.255 0 24S10.745 0 24 0s24 10.745 24 24-10.745 24-24 24m13.166-32.25-1.197 1.215c.952 1.517 1.25 3.42.6 5.241-1.09 3.09-4.463 4.719-7.537 3.615a5.5 5.5 0 0 1-1.197-.608L24 29.106l-3.345-3.42a6.03 6.03 0 0 1-5.415.688 6.135 6.135 0 0 1-3.645-7.836c.165-.496.41-.939.681-1.351l-1.441-1.463-.274.468a16.1 16.1 0 0 0-2.31 8.306C8.22 33.3 15.295 40.5 23.97 40.5H24c8.678 0 15.723-7.146 15.75-15.948a16.23 16.23 0 0 0-2.285-8.305zm-23.121 3.228a3.35 3.35 0 0 0-.653 1.987c0 1.793 1.44 3.256 3.21 3.256a3.08 3.08 0 0 0 1.957-.69zm15.75 4.276c.515.36 1.114.552 1.795.552 1.767 0 3.21-1.462 3.21-3.254a3.25 3.25 0 0 0-.544-1.822zm-5.741 3.422 12.84-12.967-.49-.553A16.77 16.77 0 0 0 23.89 7.5h-.027c-4.705 0-9.085 1.932-12.295 5.38l-.516.552zM13.173 13.431a15.12 15.12 0 0 1 10.718-4.386h.028c4.08 0 7.997 1.683 10.88 4.608L24.054 24.498z" clip-rule="evenodd"/></g><defs><clipPath id="a"><path fill="#fff" d="M0 0h48v48H0z"/></clipPath></defs></svg>