<svg xmlns="http://www.w3.org/2000/svg" width="48" height="48" fill="none" viewBox="0 0 48 48"><g clip-path="url(#a)"><circle cx="24" cy="24" r="24" fill="#192D22"/><path fill="#FDBC33" d="M15.562 12q2.273-.025 4.544-.039 1.06-.005 2.117-.018 1.024-.011 2.047-.014l.773-.008c3.611-.055 6.72 1.008 9.369 3.513 2.05 2.036 3.474 4.964 3.534 7.88-.009 3.566-1.11 6.823-3.666 9.381-2.702 2.511-5.773 3.402-9.397 3.36q-1.463-.003-2.924-.016-1.274-.01-2.547-.013-1.924-.01-3.85-.026v-6.75h-3c-.1-2.26-.1-2.26.34-2.93.436-.472.74-.8 1.397-.857l1.264.037v-3l-.786.047c-.652 0-.873-.03-1.453-.375-.97-1.058-.791-2.036-.761-3.422h3z"/><path fill="#192D22" d="M19.313 15.75q1.575-.027 3.15-.041.535-.007 1.069-.016c3.152-.056 5.64.206 8.097 2.377 1.686 1.915 2.59 3.659 2.543 6.241-.156 2.076-1.002 4.207-2.484 5.689-1.988 1.642-4.068 2.284-6.608 2.268h-.5l-1.576-.006q-1.845-.003-3.691-.012v-3l.77-.005q1.422-.012 2.843-.034.613-.008 1.228-.012.885-.007 1.769-.022h.55c1.157-.026 1.815-.225 2.777-.864h.375c.452-.904.78-1.864 1.125-2.813H19.313v-3h11.25c-.25-1.45-.25-1.45-.938-2.437v-.375l-.41-.165c-.527-.21-.527-.21-.908-.406-.826-.266-1.631-.247-2.494-.257l-.564-.011q-.888-.016-1.776-.029l-1.207-.021q-1.477-.027-2.953-.049z"/><path fill="#FCFDFD" d="M47.812 26.25H48V48H26.25v-.188l.605-.096c6.61-1.089 12.539-4.099 16.528-9.642 2.48-3.576 3.859-7.524 4.43-11.824"/></g><defs><clipPath id="a"><path fill="#fff" d="M0 0h48v48H0z"/></clipPath></defs></svg>