<svg xmlns="http://www.w3.org/2000/svg" width="48" height="48" fill="none" viewBox="0 0 256 256"><g clip-path="url(#a)"><path fill="#fff" d="M128 256c70.692 0 128-57.308 128-128S198.692 0 128 0 0 57.307 0 128c0 70.692 57.307 128 128 128"/><path fill="#26DDF9" d="M152.901 48.902a55.45 55.45 0 0 0-54.784 49.213 55.1 55.1 0 0 0-46.075 36.458 55.11 55.11 0 0 0 39.772 72.073 55.107 55.107 0 0 0 66.987-47.844 55.104 55.104 0 0 0 49.171-57.748 55.105 55.105 0 0 0-55.071-52.152m42.194 61.341a42.93 42.93 0 0 1-12.081 23.883 42.93 42.93 0 0 1-23.883 12.081v-35.964zM61.822 146.67a42.92 42.92 0 0 1 35.966-35.968v35.968zm84.391 12.457a42.654 42.654 0 0 1-84.392 0zm.46-48.884v36.427h-36.429v-36.427zm48.424-12.457h-84.393a42.654 42.654 0 0 1 84.392 0z"/><path fill="#26DDF9" d="M128 256a129 129 0 0 1-25.8-2.6 127.3 127.3 0 0 1-45.769-19.26 128.37 128.37 0 0 1-46.375-56.316A127.4 127.4 0 0 1 2.6 153.8a129.25 129.25 0 0 1 0-51.593 127.3 127.3 0 0 1 19.26-45.773 128.37 128.37 0 0 1 56.317-46.375A127.4 127.4 0 0 1 102.2 2.6a129.25 129.25 0 0 1 51.593 0 127.3 127.3 0 0 1 45.77 19.26 128.4 128.4 0 0 1 46.375 56.316A127.3 127.3 0 0 1 253.4 102.2a129.3 129.3 0 0 1 0 51.593 127.3 127.3 0 0 1-19.26 45.77 128.37 128.37 0 0 1-56.316 46.375A127.3 127.3 0 0 1 153.8 253.4 129 129 0 0 1 128 256m0-252a125 125 0 0 0-24.99 2.519 123.3 123.3 0 0 0-44.34 18.658 124.37 124.37 0 0 0-44.926 54.557 123.4 123.4 0 0 0-7.225 23.276 125.2 125.2 0 0 0 0 49.981 123.3 123.3 0 0 0 18.658 44.339 124.36 124.36 0 0 0 54.556 44.926 123.3 123.3 0 0 0 23.276 7.225 125.2 125.2 0 0 0 49.981 0 123.3 123.3 0 0 0 44.339-18.658 124.36 124.36 0 0 0 44.926-54.556 123.3 123.3 0 0 0 7.225-23.276 125.2 125.2 0 0 0 0-49.981 123.3 123.3 0 0 0-18.657-44.34 124.37 124.37 0 0 0-54.556-44.926 123.4 123.4 0 0 0-23.277-7.225A125 125 0 0 0 128 4"/></g><defs><clipPath id="a"><path fill="#fff" d="M0 0h256v256H0z"/></clipPath></defs></svg>