<svg xmlns="http://www.w3.org/2000/svg" width="48" height="48" fill="none" viewBox="0 0 256 256"><g clip-path="url(#a)"><path fill="#FC0" d="M128 251.897c68.427 0 123.897-55.47 123.897-123.897S196.427 4.103 128 4.103 4.103 59.573 4.103 128 59.573 251.897 128 251.897"/><path fill="#039" d="M128 10.667a116.778 116.778 0 1 0 82.965 34.368A117.33 117.33 0 0 0 128 10.667M128 0a128.001 128.001 0 0 1 90.51 218.51A128 128 0 1 1 128 0"/><path fill="#039" d="M234.667 128a106.66 106.66 0 0 1-65.847 98.547A106.672 106.672 0 0 1 23.383 148.81 106.667 106.667 0 0 1 128 21.333 106.524 106.524 0 0 1 234.667 128"/><path fill="#FC0" d="m128 44.373 2.56 7.68h7.68l-5.973 5.12 2.56 6.827L128 59.733 121.174 64l2.56-6.827-5.974-5.12h7.68zm-37.546 10.24 2.56 7.68h7.68l-6.827 4.267 2.56 7.68-5.973-4.267-6.827 4.267 2.56-7.68-6.827-4.267h8.534zM62.294 81.92l2.56 7.68h8.533l-6.827 4.267 2.56 7.68-6.826-5.12-5.974 5.12 2.56-7.68-6.826-4.267h7.68zm103.253-27.307 2.56 7.68h8.533l-6.826 4.267 2.56 7.68-6.827-4.267-5.973 4.267 2.56-7.68-6.827-4.267h7.68zm37.547 34.134-6.827 4.266 2.56 7.68L192 96.427l-5.973 4.266 2.56-7.68-6.827-4.266h7.68l2.56-7.68 2.56 7.68zm10.24 37.546-6.827 4.267 2.56 7.68-5.973-5.12-6.827 5.12 2.56-7.68-6.827-4.267h8.534l2.56-7.68 1.706 7.68zM199.68 174.08l-6.826-5.12-6.827 5.12 2.56-7.68-5.973-4.267h7.68l2.56-7.68 2.56 7.68h8.533l-6.827 4.267zm-77.653 37.547 2.56-7.68-6.827-5.12h8.534l2.56-7.68 2.56 7.68h7.68l-5.974 5.12 1.707 7.68-5.973-5.12zm-37.547-10.24 2.56-7.68-6.826-4.267h7.68l2.56-7.68 2.56 7.68h8.533l-6.827 4.267 2.56 7.68-6.826-4.267zm87.04 0-5.973-5.12-6.827 5.12 2.56-7.68-6.826-4.267h8.533l2.56-7.68 2.56 7.68h7.68l-6.827 4.267zM42.667 126.293H51.2l1.707-7.68 2.56 7.68H64l-6.826 4.267 2.56 7.68-6.827-4.267-5.973 4.267 2.56-7.68zM56.32 174.08l2.56-7.68-6.826-4.267h8.533l2.56-7.68 2.56 7.68h7.68l-5.973 4.267 2.56 7.68-6.827-5.12z"/></g><defs><clipPath id="a"><path fill="#fff" d="M0 0h256v256H0z"/></clipPath></defs></svg>