<svg xmlns="http://www.w3.org/2000/svg" width="48" height="48" fill="none" viewBox="0 0 256 256"><path fill="#6C8275" d="M128 256c70.692 0 128-57.308 128-128S198.692 0 128 0 0 57.307 0 128c0 70.692 57.307 128 128 128"/><path fill="#fff" d="m118.179 128.005 69.288 39.689a3.66 3.66 0 0 0 3.697.043 3.66 3.66 0 0 0 1.846-3.203V91.421a3.64 3.64 0 0 0-1.844-3.207 3.63 3.63 0 0 0-3.699.075zm67.819-57.288-47.366-34.838a3.764 3.764 0 0 0-5.037.405c-.424.45-.731.998-.894 1.595l-17.294 77.599 70.175-38.8a3.5 3.5 0 0 0 1.887-2.862 3.5 3.5 0 0 0-1.471-3.097m-47.421 149.385 47.421-34.839a3.54 3.54 0 0 0 1.5-3.131 3.56 3.56 0 0 0-1.891-2.912l-70.2-38.8 17.294 77.6a3.746 3.746 0 0 0 4.185 2.836 3.76 3.76 0 0 0 1.691-.702"/><path fill="#fff" d="m100.163 126.564 18.015-84.255a3.575 3.575 0 0 0-5.543-3.627L66.489 74.071a9.56 9.56 0 0 0-3.742 7.622v89.8a9.56 9.56 0 0 0 3.742 7.733l45.924 35.282a3.576 3.576 0 0 0 5.543-3.631z"/></svg>