<svg xmlns="http://www.w3.org/2000/svg" width="48" height="48" fill="none" viewBox="0 0 256 256"><g clip-path="url(#a)"><path fill="url(#b)" d="M128 255.999c70.692 0 128-57.308 128-128s-57.308-128-128-128-128 57.308-128 128 57.307 128 128 128"/><path fill="#fff" d="m184.309 50.721-15.674-15.647-52.318 52.317 52.317 52.344 15.674-15.674-36.67-36.67zm-44.626 117.887-52.318-52.344-15.674 15.674 36.67 36.67-36.67 36.67 15.674 15.647zm-30.05-74.593 52.33 52.33-15.6 15.6-52.33-52.331z"/></g><defs><linearGradient id="b" x1="0" x2="256" y1="127.999" y2="127.999" gradientUnits="userSpaceOnUse"><stop stop-color="#01AEC9"/><stop offset="1" stop-color="#1E8FCA"/></linearGradient><clipPath id="a"><path fill="#fff" d="M0 0h256v256H0z"/></clipPath></defs></svg>