<svg xmlns="http://www.w3.org/2000/svg" width="48" height="48" fill="none" viewBox="0 0 48 48"><g clip-path="url(#a)"><path fill="url(#b)" d="M48 24c0 13.255-10.745 24-24 24S0 37.255 0 24 10.745 0 24 0s24 10.745 24 24"/><path fill="#fff" d="m30.8 29.073 6.652-3.84a1.15 1.15 0 0 0 .57-.99v-7.68c0-.406-.22-.786-.57-.99l-6.652-3.84a1.14 1.14 0 0 0-1.142 0l-6.651 3.84a1.14 1.14 0 0 0-.57.99V30.29l-4.666 2.693-4.664-2.693v-5.387l4.665-2.692 3.077 1.776v-3.614l-2.507-1.447a1.14 1.14 0 0 0-1.141 0l-6.653 3.841a1.15 1.15 0 0 0-.57.99v7.68c0 .406.22.785.57.989l6.653 3.84a1.15 1.15 0 0 0 1.14 0l6.653-3.84a1.15 1.15 0 0 0 .57-.988V17.711l.084-.048 4.58-2.645 4.665 2.693v5.387L30.23 25.79l-3.072-1.774v3.614l2.501 1.445a1.15 1.15 0 0 0 1.142 0z"/></g><defs><linearGradient id="b" x1="-8.772" x2="40.78" y1="3.945" y2="34.269" gradientUnits="userSpaceOnUse"><stop stop-color="#A229C5"/><stop offset="1" stop-color="#7B3FE4"/></linearGradient><clipPath id="a"><path fill="#fff" d="M0 0h48v48H0z"/></clipPath></defs></svg>