<svg xmlns="http://www.w3.org/2000/svg" width="48" height="48" fill="none" viewBox="0 0 48 48"><g clip-path="url(#a)"><path fill="#060710" d="M48 24c0 13.255-10.745 24-24 24S0 37.255 0 24 10.745 0 24 0s24 10.745 24 24"/><path fill="#D9D9D9" d="M6 14.485 14.485 6l3.536 3.536-8.485 8.485zm24-4.949 8.485 8.485 3.536-3.536L33.535 6zm12.02 24-8.485 8.485-4.95-4.95 8.486-8.485zm-24 4.949L9.537 30 6 33.535l8.485 8.486z"/><path fill="#060710" d="M41 24c0 9.389-7.611 17-17 17S7 33.389 7 24 14.611 7 24 7s17 7.611 17 17"/><path fill="#fff" d="M28.85 20.872c-.334-.191-.763-.191-1.146 0l-2.674 1.576-1.815 1.003-2.627 1.576c-.334.19-.764.19-1.146 0l-2.054-1.242a1.16 1.16 0 0 1-.573-1.003v-2.388c0-.382.191-.764.573-1.003l2.054-1.194c.334-.191.764-.191 1.146 0l2.054 1.242c.334.19.573.573.573 1.003v1.576l1.815-1.05v-1.625c0-.382-.191-.764-.573-1.003l-3.821-2.244c-.334-.191-.764-.191-1.146 0l-3.917 2.292a1.05 1.05 0 0 0-.573.955v4.49c0 .382.191.764.573 1.003l3.869 2.245c.334.19.764.19 1.146 0l2.627-1.529 1.815-1.05 2.627-1.529c.334-.19.764-.19 1.146 0l2.054 1.194c.334.191.573.573.573 1.003v2.388c0 .382-.191.764-.573 1.003l-2.006 1.194c-.335.191-.764.191-1.146 0l-2.054-1.194a1.16 1.16 0 0 1-.573-1.003V26.03l-1.815 1.05v1.577c0 .382.19.764.573 1.003l3.869 2.244c.334.192.764.192 1.146 0l3.868-2.244c.335-.191.573-.573.573-1.003v-4.538c0-.382-.19-.764-.573-1.003z"/></g><defs><clipPath id="a"><path fill="#fff" d="M0 0h48v48H0z"/></clipPath></defs></svg>