<svg xmlns="http://www.w3.org/2000/svg" width="48" height="48" fill="none" viewBox="0 0 48 48"><g clip-path="url(#a)"><path fill="#00D2FF" d="M48 24C48 10.745 37.255 0 24 0S0 10.745 0 24s10.745 24 24 24 24-10.745 24-24"/><path fill="#000" d="M40.197 22.802c0-.057-1.04-.72-1.586-1.067a4 4 0 0 1-.654-.517c-.409-.405-1.09-1.112-1.312-1.547-.142-.279-.084-.779.027-1.256a3.28 3.28 0 0 0-.405-2.451l-.71-1.158a7.8 7.8 0 0 1-.784-1.684 4.9 4.9 0 0 0-1.245-2.001c-1.157-1.129-4.359-1.684-7.018-1.773a4 4 0 0 0-.5-.119c-1.185-.202-2.448-.527-3.582-.316-1.682.313-3.383.84-4.653 2.142-.256.263-.656.386-.932.636-.547.493-1.283.493-1.769 1.04-.284.32-.416 1.364-1.161 1.763-1.234.66-2.146 1.389-2.445 1.76-.226.279-.401.606-.62.891-.225.293-1.288.789-1.596 1.099-.31.31-.723 1.064-.537 1.956l.042.203c.122.453.452 1.274.376 1.65-.089.447-1.236 3.77 1.327 4.656.533.184.759.544.817 1.09.045.41.167.828.38 1.279.233.492.692.76.73.792.154.136.873.887.932.996.91 1.68.654 2.52 2.394 3.091.447.148.877.345 1.28.587a7 7 0 0 0 1.568.695l.07.024q.581-1.403 1.168-2.655c-3.132-3.212-2.308-6.81-2.008-7.775a.18.18 0 0 1 .29-.082c.658.576 2.656 2.654 2.422 6.405a59 59 0 0 1 1.977-3.631c-2.26-3.831-.576-7.19-.045-8.075a.18.18 0 0 1 .305-.008c.461.684 1.713 2.927.938 6.158a38 38 0 0 1 1.317-1.895c.807-5.341 4.841-7.094 5.901-7.465a.18.18 0 0 1 .225.097.2.2 0 0 1 .014.088 9.29 9.29 0 0 1-5.458 7.543c-.562.74-1.104 1.52-1.622 2.32 1.79-1.396 4.297-2.055 6.38-1.549a.183.183 0 0 1 .106.285c-.6.793-2.982 3.468-7.469 2.855a60 60 0 0 0-2.07 3.813c1.937-1.467 4.769-2.028 6.966-1.29a.185.185 0 0 1 .122.218.2.2 0 0 1-.042.08c-.682.736-3.31 3.145-7.629 2.188a96 96 0 0 0-1.303 2.959q-.153.358-.278.726a26 26 0 0 1-.755 1.98.8.8 0 0 0 .47 1.07 17.6 17.6 0 0 0 10.599.393.8.8 0 0 0 .518-.459c.072-.172.144-.336.144-.336s1.507-3.499 1.728-5.023a4 4 0 0 1 .441-1.376 1.44 1.44 0 0 1 1.181-.742c1.148-.061 3.593-.222 4.482-.504 1.182-.375.67-2.528.606-2.76-.063-.232.569-.771.7-1.086.13-.315-.32-.423-.504-.768-.183-.346.456-.594.547-.908s-.208-.659-.33-.89c-.12-.233-.167-.523-.167-.523s.864-.633 1.324-1.033.374-.729.373-.807"/></g><defs><clipPath id="a"><path fill="#fff" d="M0 0h48v48H0z"/></clipPath></defs></svg>