<svg xmlns="http://www.w3.org/2000/svg" width="48" height="48" fill="none" viewBox="0 0 500 500"><circle cx="250" cy="250" r="250" fill="#FF0420"/><path fill="#fff" d="M177.133 316.446q-22.329 0-36.589-10.508-14.073-10.695-14.073-30.397 0-4.128.938-10.133 2.44-13.51 6.943-32.461 12.76-51.6 65.861-51.6 14.448 0 25.894 4.878 11.446 4.69 18.013 14.261 6.568 9.381 6.568 22.516 0 3.94-.939 9.945-2.814 16.7-6.755 32.461-6.567 25.707-22.704 38.466-16.137 12.572-43.157 12.572m2.627-27.02q10.508 0 17.826-6.192 7.506-6.192 10.695-18.951 4.316-17.639 6.568-30.773.75-3.94.75-8.069 0-17.075-17.825-17.075-10.508 0-18.014 6.192-7.318 6.193-10.507 18.952-3.378 12.572-6.755 30.773-.751 3.752-.751 7.88 0 17.263 18.013 17.263m79.543 25.144q-2.065 0-3.19-1.314-.938-1.501-.563-3.377l25.894-121.965q.375-2.064 2.064-3.378 1.689-1.313 3.565-1.313h49.912q20.827 0 33.399 8.631 12.76 8.632 12.76 24.956 0 4.691-1.126 9.757-4.69 21.579-18.951 31.899-14.073 10.32-38.654 10.32h-25.331l-8.631 41.093q-.376 2.063-2.064 3.377-1.69 1.314-3.565 1.314zm66.424-71.678q7.88 0 13.697-4.316 6.005-4.316 7.881-12.384.563-3.19.563-5.629 0-5.442-3.19-8.256-3.19-3.002-10.883-3.002h-22.517l-7.13 33.587z"/></svg>