<svg xmlns="http://www.w3.org/2000/svg" width="48" height="48" fill="none" viewBox="0 0 48 48"><path fill="url(#a)" d="m9 34.59 15.012 7.656V27.234z"/><path fill="url(#b)" d="M24.012 42.246 39 34.622l-14.988-7.388z"/><path fill="url(#c)" d="M24.012 27.234 39 34.622l-6.123-11.715z"/><path fill="url(#d)" d="m9 34.59 15.012-7.356-8.855-4.346z"/><path fill="url(#e)" d="m15.156 22.884 8.855 4.346V6z"/><path fill="url(#f)" d="m24.012 27.234 8.865-4.327-8.865-16.904z"/><path fill="url(#g)" d="m9 34.59 15.012 7.656V27.234z"/><path fill="url(#h)" d="M24.012 42.246 39 34.622l-14.988-7.388z"/><path fill="url(#i)" d="M24.012 27.234 39 34.622l-6.123-11.715z"/><path fill="url(#j)" d="m9 34.59 15.012-7.356-8.855-4.346z"/><path fill="url(#k)" d="m15.156 22.884 8.855 4.346V6z"/><path fill="url(#l)" d="m24.012 27.234 8.865-4.327-8.865-16.904z"/><defs><linearGradient id="a" x1="12.17" x2="27.503" y1="28.775" y2="36.498" gradientUnits="userSpaceOnUse"><stop stop-color="#8277A6"/><stop offset="1" stop-color="#655880"/></linearGradient><linearGradient id="b" x1="22.841" x2="33.982" y1="43.635" y2="27.296" gradientUnits="userSpaceOnUse"><stop stop-color="#665A82"/><stop offset=".237" stop-color="#73638D"/><stop offset="1" stop-color="#B4A6D1"/></linearGradient><linearGradient id="c" x1="31.145" x2="42.858" y1="31.326" y2="18.405" gradientUnits="userSpaceOnUse"><stop stop-color="#B0A0CE"/><stop offset="1" stop-color="#CEC6E2"/></linearGradient><linearGradient id="d" x1="16.732" x2="18.384" y1="30.238" y2="25.282" gradientUnits="userSpaceOnUse"><stop stop-color="#887CAE"/><stop offset="1" stop-color="#7A6E9B"/></linearGradient><linearGradient id="e" x1="26.039" x2="18.259" y1="16.619" y2="16.619" gradientUnits="userSpaceOnUse"><stop stop-color="#B0A0CE"/><stop offset="1" stop-color="#887CAE"/></linearGradient><linearGradient id="f" x1="26.662" x2="32.151" y1="19.132" y2="24.341" gradientUnits="userSpaceOnUse"><stop stop-color="#B0A0CE"/><stop offset="1" stop-color="#CEC6E2"/></linearGradient><linearGradient id="g" x1="12.17" x2="27.503" y1="28.775" y2="36.498" gradientUnits="userSpaceOnUse"><stop stop-color="#8277A6"/><stop offset="1" stop-color="#655880"/></linearGradient><linearGradient id="h" x1="22.841" x2="33.982" y1="43.635" y2="27.296" gradientUnits="userSpaceOnUse"><stop stop-color="#665A82"/><stop offset=".237" stop-color="#73638D"/><stop offset="1" stop-color="#B4A6D1"/></linearGradient><linearGradient id="i" x1="31.145" x2="42.858" y1="31.326" y2="18.405" gradientUnits="userSpaceOnUse"><stop stop-color="#B0A0CE"/><stop offset="1" stop-color="#CEC6E2"/></linearGradient><linearGradient id="j" x1="16.732" x2="18.384" y1="30.238" y2="25.282" gradientUnits="userSpaceOnUse"><stop stop-color="#887CAE"/><stop offset="1" stop-color="#7A6E9B"/></linearGradient><linearGradient id="k" x1="26.039" x2="18.259" y1="16.619" y2="16.619" gradientUnits="userSpaceOnUse"><stop stop-color="#B0A0CE"/><stop offset="1" stop-color="#887CAE"/></linearGradient><linearGradient id="l" x1="26.662" x2="32.151" y1="19.132" y2="24.341" gradientUnits="userSpaceOnUse"><stop stop-color="#B0A0CE"/><stop offset="1" stop-color="#CEC6E2"/></linearGradient></defs></svg>