<svg xmlns="http://www.w3.org/2000/svg" width="48" height="48" fill="none" viewBox="0 0 48 48"><g clip-path="url(#a)"><path fill="url(#b)" d="M24 48c13.255 0 24-10.745 24-24S37.255 0 24 0 0 10.745 0 24s10.745 24 24 24"/><mask id="d" width="48" height="48" maskUnits="userSpaceOnUse" style="mask-type:alpha"><path fill="url(#c)" d="M24 48c13.255 0 24-10.745 24-24S37.255 0 24 0 0 10.745 0 24s10.745 24 24 24"/></mask><g mask="url(#d)"><path fill="url(#e)" d="M-.8 13.2c0-.53.43-.96.96-.96h13.12c.53 0 .96.43.96.96v22.32c0 .53-.43.96-.96.96H.16a.96.96 0 0 1-.96-.96z" opacity=".2"/><path fill="#E74310" d="M28.96 32.56c0-.53.43-.96.96-.96h17.12c.53 0 .96.43.96.96v8.32c0 .53-.43.96-.96.96H29.92a.96.96 0 0 1-.96-.96z" opacity=".2"/><path fill="#DF3600" d="M40.08 35.12c.53 0 .96.43.96.96v16.16c0 .53-.43.96-.96.96h-6.32a.96.96 0 0 1-.96-.96V36.08c0-.53.43-.96.96-.96z" opacity=".2"/><path fill="url(#f)" d="M19.44 15.6c.53 0 .96.43.96.96v12.88c0 .53-.43.96-.96.96h-7.12a.96.96 0 0 1-.96-.96V16.56c0-.53.43-.96.96-.96z" opacity=".1"/><path fill="url(#g)" d="M4.56 19.44c0-.53.43-.96.96-.96H17.2c.53 0 .96.43.96.96v12.24c0 .53-.43.96-.96.96H5.52a.96.96 0 0 1-.96-.96z" opacity=".1"/><path fill="#FF9776" d="M48 6.56c.53 0 .96.43.96.96v16.16c0 .53-.43.96-.96.96H33.12a.96.96 0 0 1-.96-.96V7.52c0-.53.43-.96.96-.96z" opacity=".2"/><path fill="#FFCA8C" d="M38.96-4.16c.53 0 .96.43.96.96v17.76c0 .53-.43.96-.96.96h-8.32a.96.96 0 0 1-.96-.96V-3.2c0-.53.43-.96.96-.96z" opacity=".2"/><path fill="url(#h)" d="M43.28-.96c.53 0 .96.43.96.96v19.76c0 .53-.43.96-.96.96H25.2a.96.96 0 0 1-.96-.96V0c0-.53.43-.96.96-.96z" opacity=".2"/><path fill="#DF3600" d="M16.96-6.56c.53 0 .96.43.96.96V7.68c0 .53-.43.96-.96.96h-6.32a.96.96 0 0 1-.96-.96V-5.6c0-.53.43-.96.96-.96zm.72 41.2c.53 0 .96.43.96.96v11.44c0 .53-.43.96-.96.96H1.6a.96.96 0 0 1-.96-.96V35.6c0-.53.43-.96.96-.96z" opacity=".1"/><path fill="#FFD494" d="M31.84 28.24c.53 0 .96.43.96.96v17.84c0 .53-.43.96-.96.96h-18.4a.96.96 0 0 1-.96-.96V29.2c0-.53.43-.96.96-.96z" opacity=".1"/><path fill="#FFD494" d="M25.76 0c.53 0 .96.43.96.96V5.6c0 .53-.43.96-.96.96H6.56a.96.96 0 0 1-.96-.96V.96c0-.53.43-.96.96-.96z" opacity=".2"/><path fill="#DF3600" d="M10.62 47.533 46.573 11.58l-1.233-1.233L9.386 46.3zm-2.697-2.617L43.876 8.963 42.27 7.357 6.318 43.31z" opacity=".1"/><path fill="#F45C2C" d="M6.405 43.238 42.358 7.285 40.753 5.68 4.8 41.633z" opacity=".1"/><path fill="#F45C2C" d="M4.965 41.478 40.918 5.525l-1.321-1.32L3.644 40.156z" opacity=".2"/><path fill="#FFBC6E" d="M3.641 40.154 39.594 4.2l-1.321-1.32L2.32 38.833z" opacity=".1"/><path fill="#DF3600" d="M2.761 38.394 38.714 2.44l-1.321-1.32L1.44 37.073z" opacity=".1"/><path fill="#FFD5A4" d="m-1.479 27.834 28.35-28.35-1.322-1.32L-2.8 26.513z" opacity=".09"/><path fill="#FFD5A4" d="m-2.999 26.23 28.35-28.349-1.322-1.321L-4.32 24.909z" opacity=".08"/><path fill="#FFD5A4" d="m-4.359 24.39 28.35-28.349-1.322-1.321L-5.68 23.069z" opacity=".05"/><path fill="#FFD5A4" d="M.761 31.687 33.687-1.239 32.366-2.56-.56 30.366zm.88 2.08L34.567.841 33.246-.48.32 32.446z" opacity=".2"/><path fill="#FFD5A4" d="M.201 29.274 29.424.051l-1.321-1.32L-1.12 27.952z" opacity=".1"/><path fill="#DF3600" d="M10.567 47.56 46.52 11.606 43.883 8.97 7.932 44.923z" opacity=".1"/><path fill="#DF3600" d="M10.567 47.56 46.52 11.606l-2.65-2.65L7.917 44.91z" opacity=".1"/></g><path fill="#fff" d="m23.965 29.179-9.132-5.402 9.132-15.148 9.122 15.148z"/><path fill="#fff" d="m23.965 38.375-9.132-12.86 9.132 5.393 9.13-5.393z"/></g><defs><linearGradient id="e" x1="6.72" x2="6.72" y1="12.24" y2="36.48" gradientUnits="userSpaceOnUse"><stop stop-color="#FFE090"/><stop offset="1" stop-color="#FFE090" stop-opacity="0"/></linearGradient><linearGradient id="f" x1="15.84" x2="15.84" y1="15.6" y2="29.28" gradientUnits="userSpaceOnUse"><stop stop-color="#DF3600"/><stop offset="1" stop-color="#DF3600" stop-opacity="0"/></linearGradient><linearGradient id="g" x1="4.56" x2="17.131" y1="25.623" y2="25.623" gradientUnits="userSpaceOnUse"><stop stop-color="#DF3600"/><stop offset="1" stop-color="#DF3600" stop-opacity="0"/></linearGradient><linearGradient id="h" x1="34.24" x2="34.24" y1="-.96" y2="20.72" gradientUnits="userSpaceOnUse"><stop stop-color="#DF3600"/><stop offset="1" stop-color="#DF3600" stop-opacity="0"/></linearGradient><radialGradient id="b" cx="0" cy="0" r="1" gradientTransform="rotate(54.168 -3.385 21.071)scale(39.7666)" gradientUnits="userSpaceOnUse"><stop stop-color="#FFD794"/><stop offset="1" stop-color="#ED5A37"/></radialGradient><radialGradient id="c" cx="0" cy="0" r="1" gradientTransform="rotate(54.168 -3.385 21.071)scale(39.7666)" gradientUnits="userSpaceOnUse"><stop stop-color="#FFD794"/><stop offset="1" stop-color="#ED5A37"/></radialGradient><clipPath id="a"><path fill="#fff" d="M0 0h48v48H0z"/></clipPath></defs></svg>