<svg xmlns="http://www.w3.org/2000/svg" width="48" height="48" fill="none" viewBox="0 0 256 256"><g clip-path="url(#a)"><path fill="url(#b)" d="M128 256c70.692 0 128-57.308 128-128S198.692 0 128 0 0 57.308 0 128s57.308 128 128 128"/><path fill="#fff" d="M203.904 106.88h-15.191c-8.361-23.209-30.848-39.127-60.503-39.127H79.442v39.127H62.505v14.039h16.937v14.72H62.505v14.034h16.937v38.656h48.768c29.312 0 51.625-15.785 60.201-38.656h15.488v-14.039h-12.073a64 64 0 0 0 .471-7.593v-.343c0-2.304-.128-4.567-.343-6.784h11.991v-14.039zM93.097 80.256h35.113c21.76 0 37.929 10.711 45.399 26.583H93.097zm35.113 95.447H93.097v-26.071h80.425c-7.506 15.616-23.634 26.071-45.312 26.071m49.961-47.36a50.5 50.5 0 0 1-.512 7.255H93.097v-14.72h84.608c.31 2.363.467 4.744.471 7.127z"/></g><defs><linearGradient id="b" x1="128" x2="128" y1="0" y2="256" gradientUnits="userSpaceOnUse"><stop stop-color="#85C14B"/><stop offset="1" stop-color="#55B150"/></linearGradient><clipPath id="a"><path fill="#fff" d="M0 0h256v256H0z"/></clipPath></defs></svg>