<svg xmlns="http://www.w3.org/2000/svg" width="48" height="48" fill="none" viewBox="0 0 32 32"><path fill="url(#a)" d="M31.96 15.98c0 8.82-7.15 15.98-15.98 15.98S0 24.81 0 15.98 7.16 0 15.98 0s15.98 7.15 15.98 15.98"/><path fill="url(#b)" d="M15.99 31.93C7.18 31.93.03 24.8.03 16.01c0 0 7.14-3.28 15.96-3.28s15.96 3.28 15.96 3.28c0 8.79-7.14 15.92-15.96 15.92"/><path fill="#fff" d="m24.71 13.78-8.73-8.91-8.73 8.91 4.36 4.45 4.36-4.45 4.36 4.45 4.36-4.45z"/><path fill="#202332" d="M15.6 26.28c-.43 0-.81-.08-1.12-.23-.31-.16-.54-.39-.71-.68q-.24-.45-.24-1.05v-3.43h1v3.46c0 .32.09.58.27.76.19.19.45.28.8.28s.61-.09.79-.28c.19-.19.28-.44.28-.76v-3.46h1v3.43c0 .4-.08.75-.25 1.05-.16.29-.4.52-.71.68s-.68.23-1.11.23m4.36-.1v-5.3h2.3c.33 0 .62.06.87.17.25.12.44.28.57.49.14.21.2.46.2.75v.09c0 .32-.08.57-.23.77s-.34.34-.56.43v.14c.2.01.36.08.47.21s.17.3.17.51v1.73h-1v-1.59c0-.12-.03-.22-.1-.3-.06-.08-.16-.11-.31-.11h-1.39v2h-1zm1-2.91h1.2c.24 0 .42-.06.55-.19.14-.13.2-.3.2-.51v-.08c0-.21-.07-.38-.2-.51s-.32-.2-.56-.2h-1.2v1.48z"/><path fill="#202332" fill-rule="evenodd" d="M7.93 26.3v-5.55h3.65v1.16H9.17v1.01h2.19v1.16H9.17v1.06h2.45v1.16h-3.7zm6.5-.14c-.33-.17-.58-.42-.76-.73-.17-.32-.26-.69-.26-1.11v-3.56h1.25v3.59c0 .3.08.52.24.68s.39.24.71.24.55-.09.7-.24c.16-.16.24-.38.24-.68v-3.59h1.25v3.56q0 .63-.27 1.11c-.17.32-.43.56-.76.73s-.72.25-1.17.25-.84-.08-1.18-.25zm3-.79c.17-.3.25-.65.25-1.05v-3.43h-1v3.46c0 .32-.09.58-.28.76-.18.19-.45.28-.79.28s-.62-.09-.8-.28-.27-.44-.27-.76v-3.46h-1v3.43q0 .6.24 1.05c.17.29.4.52.71.68s.69.23 1.12.23.8-.08 1.11-.23c.31-.16.55-.39.71-.68m2.4.93v-5.55h2.42c.35 0 .66.06.92.19.27.13.48.3.63.54.15.23.22.51.22.82v.09c0 .34-.08.62-.25.85-.13.17-.28.3-.46.4.14.04.27.11.36.23.14.15.2.35.2.59v1.86h-1.25v-1.71c0-.1-.03-.16-.07-.21-.03-.03-.08-.07-.21-.07h-1.27v2h-1.25zm1.13-2.12h1.39c.15 0 .25.04.31.11.07.08.1.17.1.3v1.59h1v-1.73c0-.21-.06-.38-.17-.51a.63.63 0 0 0-.47-.21v-.14c.22-.09.41-.23.56-.43s.23-.45.23-.77v-.09c0-.29-.07-.54-.2-.75-.14-.21-.33-.38-.57-.49-.25-.12-.54-.17-.87-.17h-2.3v5.3h1v-2zm1.67-2.11c-.1-.1-.25-.16-.47-.16h-1.07v1.23h1.07c.21 0 .36-.06.47-.15.11-.1.17-.24.17-.42v-.08c0-.18-.06-.32-.16-.42zm.08 1.01c-.13.13-.32.19-.55.19h-1.2v-1.48h1.2c.24 0 .43.07.56.2s.2.3.2.51v.08c0 .21-.07.38-.2.51z" clip-rule="evenodd"/><path fill="url(#c)" d="M20.48 3.65c.02-.13.2-.13.22 0l.13 1.07c.17 1.38 1.28 2.47 2.68 2.63l1.09.13c.13.02.13.2 0 .22l-1.09.13c-1.41.16-2.52 1.25-2.68 2.63l-.13 1.07a.11.11 0 0 1-.22 0l-.13-1.07c-.17-1.38-1.28-2.47-2.68-2.63l-1.09-.13a.11.11 0 0 1 0-.22l1.09-.13c1.41-.16 2.52-1.25 2.68-2.63z"/><defs><linearGradient id="a" x1="2.85" x2="29.89" y1="14.03" y2="18.05" gradientUnits="userSpaceOnUse"><stop stop-color="#F7F0E7"/><stop offset="1" stop-color="#6B90F6"/></linearGradient><linearGradient id="b" x1="12.94" x2="20.92" y1="12.31" y2="27.24" gradientUnits="userSpaceOnUse"><stop offset=".07" stop-color="#AEC2F7"/><stop offset="1" stop-color="#7F9EF4"/></linearGradient><linearGradient id="c" x1="19.91" x2="23.12" y1="8.19" y2="5.35" gradientUnits="userSpaceOnUse"><stop stop-color="#F5CFAE"/><stop offset="1" stop-color="#F7F0E7"/></linearGradient></defs></svg>