<svg xmlns="http://www.w3.org/2000/svg" width="48" height="48" fill="none" viewBox="0 0 36 36"><g clip-path="url(#a)"><g clip-path="url(#b)"><path fill="#fff" d="M18 36c9.941 0 18-8.059 18-18S27.941 0 18 0 0 8.059 0 18s8.059 18 18 18"/><path fill="#000" d="M17.973 36V10.06c-2.178-.008-3.937-.6-3.937-1.33 0-.542.974-1.01 2.37-1.216a8 8 0 0 0 1.608.153 8 8 0 0 0 1.573-.145l.036-.008c1.396.207 2.37.674 2.37 1.216 0 .723-1.728 1.312-3.88 1.33V36zM14.83 6.337c0-.47.912-.869 2.176-1.01a6.5 6.5 0 0 0 1.981.006l.033-.006c1.264.141 2.176.54 2.176 1.01 0 .587-1.425 1.063-3.183 1.063s-3.183-.476-3.183-1.063m.796-1.941c0-.44 1.068-.797 2.387-.797s2.387.357 2.387.797-1.07.798-2.387.798c-1.319 0-2.387-.358-2.387-.798m2.345-.872V.01h.141v3.514z"/><path fill="url(#c)" d="M17.995 36a17.9 17.9 0 0 1-10.061-3.073 18.05 18.05 0 0 1-6.52-7.917 18 18 0 0 1-1.048-3.378 18.2 18.2 0 0 1 0-7.254 17.9 17.9 0 0 1 2.707-6.434 18.05 18.05 0 0 1 7.918-6.52A18 18 0 0 1 14.369.375a18.2 18.2 0 0 1 7.253 0 17.9 17.9 0 0 1 6.435 2.708A18.05 18.05 0 0 1 34.577 11c.46 1.089.81 2.22 1.048 3.378a18.2 18.2 0 0 1 0 7.253 17.9 17.9 0 0 1-2.708 6.435A18.05 18.05 0 0 1 25 34.586 17.9 17.9 0 0 1 17.995 36m0-34.584A16.5 16.5 0 0 0 8.72 4.249a16.64 16.64 0 0 0-6.01 7.298 16.5 16.5 0 0 0-.967 3.114 16.7 16.7 0 0 0 0 6.687 16.5 16.5 0 0 0 2.496 5.932 16.64 16.64 0 0 0 7.298 6.01c1.004.425 2.047.748 3.114.967 2.207.45 4.481.45 6.687 0a16.5 16.5 0 0 0 5.932-2.496 16.64 16.64 0 0 0 6.01-7.299c.425-1.003.749-2.046.967-3.113a16.7 16.7 0 0 0 0-6.687 16.5 16.5 0 0 0-2.496-5.932 16.64 16.64 0 0 0-7.298-6.01 16.5 16.5 0 0 0-6.458-1.304"/><g clip-path="url(#d)"><path fill="#00A3FF" d="M31.64 20.672a5.625 5.625 0 1 0-11.25 0 5.625 5.625 0 0 0 11.25 0"/><path fill="#fff" d="m28.323 20.273.063.096a2.71 2.71 0 0 1-.381 3.43 2.83 2.83 0 0 1-1.988.808z" opacity=".6"/><path fill="#fff" d="m26.017 21.59 2.306-1.317-2.306 4.334z" opacity=".2"/><path fill="#fff" d="m23.708 20.273-.063.096a2.71 2.71 0 0 0 .382 3.43 2.83 2.83 0 0 0 1.987.808z"/><path fill="#fff" d="m26.014 21.59-2.306-1.317 2.306 4.334z" opacity=".6"/><path fill="#fff" d="M26.018 18.646v2.273l1.986-1.136z" opacity=".2"/><path fill="#fff" d="m26.017 18.646-1.988 1.137 1.988 1.136z" opacity=".6"/><path fill="#fff" d="m26.017 16.736-1.988 3.049 1.988-1.14z"/><path fill="#fff" d="m26.018 18.644 1.988 1.14-1.988-3.05z" opacity=".6"/></g><path fill="url(#e)" d="M9.692 26.303a5.625 5.625 0 1 0 0-11.25 5.625 5.625 0 0 0 0 11.25"/><path fill="#fff" d="M12.153 22.919 10.25 18.32a.51.51 0 0 0-.476-.354h-.17a.51.51 0 0 0-.476.354l-.827 2.003h-.626a.34.34 0 0 0-.341.34v.005a.34.34 0 0 0 .34.34h.337l-.79 1.91a.4.4 0 0 0-.023.13.36.36 0 0 0 .094.256.33.33 0 0 0 .252.099.35.35 0 0 0 .197-.065.4.4 0 0 0 .136-.173l.868-2.157h.603a.343.343 0 0 0 .342-.34v-.01a.34.34 0 0 0-.342-.34h-.322l.664-1.653 1.809 4.5a.4.4 0 0 0 .135.172.34.34 0 0 0 .197.065.33.33 0 0 0 .253-.098.36.36 0 0 0 .093-.256.3.3 0 0 0-.024-.13Z"/></g></g><defs><clipPath id="a"><path fill="#fff" d="M0 0h36v36H0z"/></clipPath><clipPath id="b"><path fill="#fff" d="M0 0h36v36H0z"/></clipPath><clipPath id="d"><path fill="#fff" d="M20.39 15.047h11.25v11.25H20.39z"/></clipPath><linearGradient id="c" x1="31.96" x2="17.995" y1="7.172" y2="36" gradientUnits="userSpaceOnUse"><stop stop-color="#B6509E"/><stop offset="1" stop-color="#2EBAC6"/></linearGradient><linearGradient id="e" x1="14.271" x2="5.901" y1="17.607" y2="24.649" gradientUnits="userSpaceOnUse"><stop stop-color="#B6509E"/><stop offset="1" stop-color="#2EBAC6"/></linearGradient></defs></svg>