<svg xmlns="http://www.w3.org/2000/svg" width="48" height="48" fill="none" viewBox="0 0 32 32"><circle cx="16" cy="16" r="16" fill="#178DD0"/><path fill="#fff" d="M7.5 8.51c0-1.452 1.09-2.67 2.538-2.778A82 82 0 0 1 16 5.5c2.267 0 4.4.116 5.962.232C23.411 5.84 24.5 7.058 24.5 8.51c0 1.444-1.076 2.656-2.516 2.764A81 81 0 0 1 16 11.5c-2.36 0-4.461-.113-5.984-.226C8.576 11.166 7.5 9.954 7.5 8.51m-.037 8.114a1.68 1.68 0 0 1 1.87-1.504q.497.053 1.158.142c.387.052.74.133 1.057.23 1.348.408 1.952 1.811 1.952 3.22v5.79C13.5 25.33 12.829 26 12 26h-1.87c-1.419 0-2.623-1.01-2.747-2.423a35.4 35.4 0 0 1 .08-6.953m16.824 0a1.68 1.68 0 0 0-1.87-1.504 43 43 0 0 0-1.158.142c-.387.052-.74.133-1.057.23-1.348.408-1.952 1.811-1.952 3.22v5.79c0 .828.671 1.498 1.5 1.498h1.87c1.419 0 2.623-1.01 2.746-2.423a35.4 35.4 0 0 0-.079-6.953"/></svg>