<svg xmlns="http://www.w3.org/2000/svg" width="48" height="48" fill="none" viewBox="0 0 48 48"><g clip-path="url(#a)"><path fill="#0052FF" d="M48 24C48 10.745 37.255 0 24 0S0 10.745 0 24s10.745 24 24 24 24-10.745 24-24"/><path fill="#fff" fill-rule="evenodd" d="M22.631 7.313v8.834c-2.976.443-4.689 2.383-4.689 4.709 0 2.974 1.95 4.21 4.717 4.69l1.678.297c1.565.275 2.313.48 2.313 1.624 0 1.098-.839 1.968-2.63 1.968-1.77 0-2.858-.778-2.858-2.357h-3.537c0 2.654 1.973 4.553 5.034 4.965v3.066h2.767V32.02c2.902-.458 4.762-2.265 4.762-4.85 0-3.134-2.177-4.232-4.853-4.644l-1.61-.252c-1.429-.229-2.222-.549-2.222-1.716 0-.915.68-1.807 2.403-1.807 1.792 0 2.54.87 2.54 2.036h3.537c-.045-2.214-1.626-4.133-4.54-4.618V7.334c8.548.777 15.244 7.962 15.244 16.712 0 9.268-7.513 16.781-16.78 16.781-9.269 0-16.782-7.513-16.782-16.78 0-8.84 6.834-16.083 15.506-16.734" clip-rule="evenodd"/><path fill="#0352F2" fill-rule="evenodd" d="M24 48c13.255 0 24-10.745 24-24S37.255 0 24 0 0 10.745 0 24s10.745 24 24 24m0-8c8.837 0 16-7.163 16-16S32.837 8 24 8 8 15.163 8 24s7.163 16 16 16" clip-rule="evenodd"/></g><defs><clipPath id="a"><path fill="#fff" d="M0 0h48v48H0z"/></clipPath></defs></svg>