<svg xmlns="http://www.w3.org/2000/svg" width="48" height="48" fill="none" viewBox="0 0 48 48"><g clip-path="url(#a)"><path fill="#0052FF" d="M48 24C48 10.745 37.255 0 24 0S0 10.745 0 24s10.745 24 24 24 24-10.745 24-24"/><path fill="#fff" fill-rule="evenodd" d="M22.506 7v8.834c-2.976.443-4.689 2.383-4.689 4.71 0 2.973 1.95 4.209 4.717 4.69l1.678.297c1.565.274 2.313.48 2.313 1.624 0 1.098-.839 1.967-2.63 1.967-1.77 0-2.858-.778-2.858-2.356H17.5c0 2.654 1.973 4.553 5.034 4.965v3.065h2.767v-3.088c2.902-.458 4.762-2.265 4.762-4.85 0-3.135-2.177-4.233-4.853-4.645l-1.61-.251c-1.429-.23-2.222-.55-2.222-1.716 0-.915.68-1.808 2.403-1.808 1.792 0 2.54.87 2.54 2.037h3.537c-.045-2.215-1.626-4.133-4.54-4.619V7.022c8.548.776 15.244 7.962 15.244 16.712 0 9.268-7.513 16.78-16.78 16.78C14.512 40.515 7 33.003 7 23.735 7 14.894 13.834 7.652 22.506 7" clip-rule="evenodd"/></g><defs><clipPath id="a"><path fill="#fff" d="M0 0h48v48H0z"/></clipPath></defs></svg>