<svg xmlns="http://www.w3.org/2000/svg" width="48" height="48" fill="none" viewBox="0 0 48 48"><g clip-path="url(#a)"><path fill="#2775C9" d="M24 48c13.255 0 24-10.745 24-24S37.255 0 24 0 0 10.745 0 24s10.745 24 24 24"/><path fill="#fff" d="M23.625 41.25a17.625 17.625 0 1 1 0-35.25 17.625 17.625 0 0 1 0 35.25m-1.05-24.165A3.87 3.87 0 0 0 18.9 20.79c0 1.815 1.11 3 3.465 3.495l1.65.39c1.605.375 2.265.915 2.265 1.83s-1.155 1.815-2.655 1.815a2.85 2.85 0 0 1-2.7-1.365 1.02 1.02 0 0 0-.915-.585h-.885a.526.526 0 0 0-.42.615 4.095 4.095 0 0 0 3.915 3.12v1.26a1.058 1.058 0 1 0 2.115 0V30.09a3.93 3.93 0 0 0 3.885-3.87c0-1.905-1.095-3-3.69-3.555l-1.5-.33c-1.5-.375-2.205-.87-2.205-1.71s.9-1.77 2.4-1.77a2.46 2.46 0 0 1 2.385 1.215 1.2 1.2 0 0 0 1.08.69h.705a.63.63 0 0 0 .465-.75 3.975 3.975 0 0 0-3.57-3v-1.035a1.058 1.058 0 0 0-2.115 0zm-12.165 6.54a13.185 13.185 0 0 0 9 12.495h.21a.675.675 0 0 0 .675-.675v-.315a1.41 1.41 0 0 0-.87-1.305 11.039 11.039 0 0 1 0-20.475 1.395 1.395 0 0 0 .87-1.29v-.345a.63.63 0 0 0-.84-.6 13.185 13.185 0 0 0-9.045 12.51m26.43 0a13.19 13.19 0 0 0-9-12.48h-.225a.705.705 0 0 0-.705.705v.225a1.5 1.5 0 0 0 .915 1.35 11.04 11.04 0 0 1 0 20.46 1.5 1.5 0 0 0-.9 1.335v.255a.705.705 0 0 0 .93.66 13.185 13.185 0 0 0 8.985-12.51"/></g><defs><clipPath id="a"><path fill="#fff" d="M0 0h48v48H0z"/></clipPath></defs></svg>