<svg xmlns="http://www.w3.org/2000/svg" width="48" height="48" fill="none" viewBox="0 0 32 33"><path fill="#000" d="M16 .45c-8.84 0-16 7.17-16 16s7.16 16 16 16 16-7.16 16-16-7.16-16-16-16m-2.56 29.12c-6.15-1.2-10.8-6.61-10.8-13.11S7.28 4.54 13.44 3.35v1.28C7.99 5.81 3.9 10.67 3.9 16.46s4.09 10.65 9.54 11.83zm3.36-5.88v2.3h-1.55v-2.3h-.87c-.93 0-1.74-.33-2.39-1-.66-.66-.99-1.46-.99-2.39v-.79h1.55v.93c0 .51.18.93.54 1.3.36.36.78.54 1.29.54h3.36c.51 0 .93-.18 1.3-.54.36-.36.54-.79.54-1.3v-1.66a.95.95 0 0 0-.12-.48 1.15 1.15 0 0 0-.4-.39c-.21-.13-.41-.24-.58-.32q-.255-.12-.78-.27c-.37-.1-.64-.17-.83-.21s-.49-.11-.92-.19c-.49-.11-.93-.2-1.31-.27-.9-.18-1.55-.31-2.02-.6-.95-.6-1.55-1.74-1.55-2.79v-.89c0-.9.33-1.68.97-2.33.64-.64 1.43-.97 2.33-.97h.88V6.92h1.54v2.15h.75c.9 0 1.68.33 2.33.98.64.65.97 1.43.97 2.32v.59h-1.55v-.73c0-.49-.17-.89-.51-1.23q-.51-.51-1.23-.51h-3.17c-.49 0-.89.17-1.24.51s-.51.75-.51 1.23v1.12c0 .21.08 1.05.7 1.44.46.29 1.4.45 2.64.7.4.08.82.17 1.24.26.81.18 2.07.54 2.33.69 1.11.63 1.61 1.38 1.61 2.44v1.43c0 .93-.34 1.74-1 2.39-.67.66-1.47.99-2.39.99zm1.76 5.88v-1.28c5.45-1.18 9.54-6.04 9.54-11.83S24.01 5.81 18.56 4.63V3.35c6.15 1.2 10.8 6.61 10.8 13.11s-4.64 11.92-10.8 13.11"/></svg>