<svg xmlns="http://www.w3.org/2000/svg" width="48" height="48" fill="none" viewBox="0 0 32 32"><path fill="#fff" d="M16 32c8.837 0 16-7.163 16-16S24.837 0 16 0 0 7.163 0 16s7.163 16 16 16"/><path fill="#0091DA" d="M29.68 24.3C31.15 21.88 32 19.04 32 16c0-8.84-7.16-16-16-16S0 7.16 0 16c0 3.02.84 5.84 2.29 8.25L15.51 1.32v8.67l-7.58 13.8c-1.59.58-3.08 1.32-4.43 2.2C6.43 29.65 10.94 32 16 32s9.56-2.35 12.5-6.01a21.2 21.2 0 0 0-4.5-2.23L16.44 9.99V1.32l13.25 22.97zm-9.26-1.5a24.6 24.6 0 0 0-8.84 0L16 15.14z"/></svg>