<svg xmlns="http://www.w3.org/2000/svg" width="48" height="48" fill="none" viewBox="0 0 125 125"><g clip-path="url(#a)"><path fill="#000" d="M102.679 22.322H22.321v80.357h80.358z"/><path fill="#fff" fill-rule="evenodd" d="M62.5 125C28.96 125.036 0 96.04 0 62.5 0 27.66 26.978-.036 62.5 0 97.991.036 125 27.66 125 62.5c0 33.504-28.996 62.464-62.5 62.5M44.772 91.804H32.656c-2.544 0-3.799 0-4.567-.492a3.08 3.08 0 0 1-1.397-2.41c-.045-.902.58-2.01 1.84-4.215l29.91-52.718c1.272-2.237 1.92-3.357 2.732-3.773a3.07 3.07 0 0 1 2.79 0c.813.416 1.456 1.536 2.728 3.773L72.839 42.7l.032.058c1.375 2.402 2.071 3.616 2.379 4.897.337 1.4.337 2.86 0 4.26-.313 1.29-1 2.517-2.393 4.955L57.143 84.638l-.04.076c-1.384 2.42-2.085 3.648-3.054 4.572a9.14 9.14 0 0 1-3.728 2.165c-1.272.353-2.696.353-5.549.353m30.59 0h17.357c2.562 0 3.848 0 4.616-.505a3.07 3.07 0 0 0 1.397-2.424c.045-.875-.571-1.938-1.777-4.018l-.125-.214-8.696-14.875-.098-.165c-1.224-2.067-1.84-3.112-2.634-3.514a3.05 3.05 0 0 0-2.773 0c-.799.415-1.442 1.505-2.714 3.697l-8.66 14.87-.032.054c-1.268 2.187-1.902 3.281-1.857 4.178a3.1 3.1 0 0 0 1.397 2.424c.75.492 2.036.492 4.599.492" clip-rule="evenodd"/></g><defs><clipPath id="a"><path fill="#fff" d="M0 0h125v125H0z"/></clipPath></defs></svg>