<svg xmlns="http://www.w3.org/2000/svg" width="48" height="48" fill="none" viewBox="0 0 32 32"><path fill="#FECA00" d="M16 32c8.837 0 16-7.163 16-16S24.837 0 16 0 0 7.163 0 16s7.163 16 16 16"/><path fill="#868686" d="m16 6.83-5.54 9.35L16 13.61z"/><path fill="#363636" d="m16 19.49-5.54-3.32L16 13.61z"/><path fill="#868686" d="m16 20.57-5.54-3.32L16 25.17z"/><path fill="#332600" d="m16 6.83 5.54 9.35L16 13.61z"/><path fill="#140F02" d="m16 19.49 5.54-3.3L16 13.62v5.88z"/><path fill="#332701" d="m16 20.57 5.54-3.26L16 25.17z"/><path fill="#FFFDF7" d="m26.7 6.46-.86.86c2.06 2.32 3.31 5.37 3.31 8.71s-1.24 6.35-3.28 8.67l.86.86a14.33 14.33 0 0 0 3.63-9.54c0-3.67-1.39-7.03-3.66-9.58zM7.33 6.17C9.65 4.13 12.68 2.89 16 2.89s6.35 1.24 8.67 3.28l.86-.86a14.33 14.33 0 0 0-9.54-3.63c-3.67 0-7 1.37-9.54 3.63l.86.86zM24.71 25.87A13.07 13.07 0 0 1 16 29.18c-3.34 0-6.39-1.25-8.71-3.31l-.86.86c2.54 2.28 5.9 3.66 9.58 3.66s7.03-1.39 9.58-3.66l-.86-.86zM6.14 24.71a13.08 13.08 0 0 1-3.28-8.67c0-3.32 1.25-6.39 3.31-8.71l-.86-.86c-2.28 2.54-3.66 5.9-3.66 9.58s1.37 7 3.63 9.54l.86-.86z"/></svg>