<svg xmlns="http://www.w3.org/2000/svg" width="48" height="48" fill="none" viewBox="0 0 48 48"><path fill="#000" d="M15.76 43c10.086 0 10.086-.149 11.796-.652 2.234-.658-6.31-6.527-11.797-6.527s-9.935 1.606-9.935 3.589S10.272 43 15.76 43"/><path fill="#000" d="m38.663 12.473.463.495-.406.544C25.567 31.16 17.988 39.15 14.773 38.078c-1.96-.653-3.923-2.616-5.886-5.466a41 41 0 0 1-2.826-4.804 4.2 4.2 0 0 1-.387-1.11l-.01-.046a5 5 0 0 0-.064-.292 17.66 17.66 0 0 1 .34-10.252 17.8 17.8 0 0 1 5.987-8.362 18.05 18.05 0 0 1 19.741-1.492l.069.041q3.254 2.248 6.926 6.178M30.83 7.658A16.4 16.4 0 0 0 12.923 9.05 16.17 16.17 0 0 0 7.5 16.64a16.05 16.05 0 0 0-.308 9.301 5 5 0 0 1 .089.402l.008.04q.074.38.258.724c.157.327.473.935.85 1.604a38 38 0 0 0 1.848 2.98c1.775 2.576 3.534 4.334 5.053 4.84 2.024.676 9.647-7.331 21.693-23.442q-3.28-3.435-6.159-5.431"/><path fill="#EC1C79" d="M30.83 7.658A16.4 16.4 0 0 0 12.923 9.05 16.17 16.17 0 0 0 7.5 16.64a16.05 16.05 0 0 0-.308 9.301 5 5 0 0 1 .089.402l.008.04q.074.38.258.723c.157.328.473.935.85 1.605a38 38 0 0 0 1.848 2.98c1.775 2.575 3.534 4.334 5.053 4.84 2.024.676 9.647-7.331 21.693-23.442q-3.28-3.435-6.16-5.431"/><path fill="#000" d="M26.218 42.837a18 18 0 0 1-6.905-1.312 17.9 17.9 0 0 1-5.865-3.846 17.8 17.8 0 0 1-3.923-5.789 17.67 17.67 0 0 1 0-13.68 17.8 17.8 0 0 1 3.923-5.788 17.9 17.9 0 0 1 5.865-3.846 18 18 0 0 1 6.905-1.313 18 18 0 0 1 12.583 5.26A17.72 17.72 0 0 1 44 25.05c0 4.693-1.869 9.195-5.2 12.527a18 18 0 0 1-12.582 5.26m0-1.63c4.318 0 8.459-1.702 11.512-4.732a16.1 16.1 0 0 0 4.77-11.423 16.1 16.1 0 0 0-4.77-11.422 16.35 16.35 0 0 0-11.512-4.732 16.35 16.35 0 0 0-11.512 4.732 16.1 16.1 0 0 0-4.768 11.422 16.1 16.1 0 0 0 4.768 11.422 16.35 16.35 0 0 0 11.512 4.733"/><path fill="#fff" d="M26.22 41.205c4.318 0 8.459-1.702 11.512-4.731a16.1 16.1 0 0 0 4.77-11.424 16.1 16.1 0 0 0-4.77-11.423A16.35 16.35 0 0 0 26.22 8.895c-4.318 0-8.46 1.702-11.513 4.732a16.1 16.1 0 0 0-4.77 11.423c0 4.285 1.716 8.394 4.77 11.424a16.35 16.35 0 0 0 11.512 4.731"/><path fill="#000" fill-rule="evenodd" d="m14.04 28.36-2.156-6.442h1.888l1.124 3.7 1.243-3.719h1.539l1.243 3.72 1.124-3.701h1.85l-2.155 6.441h-1.556l-1.299-3.682-1.29 3.682zm8.564-.046v-6.396h5.185v1.507h-3.416v.97h3.094v1.397h-3.094v1.015h3.462v1.507zm7.718 0v-4.843h-1.934v-1.553h5.655v1.553h-1.935v4.843zm4.504 0v-6.396h1.786v2.394h2.294v-2.394h1.786v6.396h-1.786v-2.43h-2.294v2.43z" clip-rule="evenodd"/><path fill="#000" d="M6.07 19.994a.91.91 0 0 1-.412-1.226.927.927 0 0 1 1.236-.409l2.632 1.306a.92.92 0 0 1 .495.527.91.91 0 0 1-.272 1.008.93.93 0 0 1-1.047.099zm-.302 4.328a.907.907 0 0 1-.45-1.213.927.927 0 0 1 1.222-.447l2.632 1.206a.92.92 0 0 1 .513.512.91.91 0 0 1-.241 1.017.925.925 0 0 1-1.045.13z"/></svg>