<svg xmlns="http://www.w3.org/2000/svg" width="48" height="48" fill="none" viewBox="0 0 46 46"><path fill="#fff" stroke="#383D51" stroke-width=".5" d="M45.75 23c0 12.565-10.185 22.75-22.75 22.75S.25 35.565.25 23 10.435.25 23 .25 45.75 10.435 45.75 23Z"/><path fill="#000" d="M16.358 39.8c8.6 0 8.6-.128 10.058-.56 1.904-.566-5.38-5.609-10.058-5.609s-8.47 1.38-8.47 3.084 3.792 3.085 8.47 3.085"/><path fill="#000" d="m35.885 13.569.395.426-.346.467C24.72 29.626 18.258 36.492 15.517 35.571c-1.67-.561-3.344-2.248-5.018-4.697a35 35 0 0 1-1.644-2.67 29 29 0 0 1-.765-1.458 3.6 3.6 0 0 1-.33-.954l-.008-.039a4 4 0 0 0-.055-.251A15.29 15.29 0 0 1 29.922 8.225l.058.036q2.774 1.932 5.905 5.308m-6.677-4.137a13.89 13.89 0 0 0-20.155 15.71c.03.115.044.18.076.345l.007.034q.063.327.22.623c.134.281.403.803.724 1.378a33 33 0 0 0 1.576 2.56c1.513 2.214 3.013 3.725 4.308 4.16 1.726.58 8.225-6.3 18.495-20.143q-2.796-2.953-5.251-4.667"/><path fill="#EC1C79" d="M29.207 9.432a13.89 13.89 0 0 0-20.154 15.71c.03.115.044.18.076.345l.007.034q.063.327.22.622c.134.282.403.803.724 1.379a33 33 0 0 0 1.576 2.56c1.513 2.213 3.013 3.725 4.308 4.16 1.726.58 8.225-6.3 18.495-20.143q-2.797-2.953-5.252-4.667"/><path fill="#000" d="M25.275 39.66a15.284 15.284 0 1 1 0-30.567 15.284 15.284 0 0 1 0 30.567m0-1.401a13.88 13.88 0 1 0 0-27.761 13.88 13.88 0 0 0 0 27.76Z"/><path fill="#fff" d="M25.276 38.258a13.881 13.881 0 1 0 0-27.763 13.881 13.881 0 0 0 0 27.763"/><path fill="#000" fill-rule="evenodd" d="m14.892 27.22-1.838-5.535h1.61l.958 3.18 1.06-3.196h1.312l1.06 3.196.958-3.18h1.578l-1.838 5.535h-1.327l-1.107-3.164-1.1 3.164zm7.302-.039v-5.496h4.42v1.295h-2.912v.833h2.638v1.201h-2.638v.872h2.952v1.295zm6.58 0V23.02h-1.649v-1.335h4.821v1.335h-1.649v4.161zm3.84 0v-5.496h1.523v2.057h1.955v-2.057h1.523v5.496h-1.523v-2.088h-1.955v2.088z" clip-rule="evenodd"/><path fill="#000" d="M8.098 20.032a.785.785 0 0 1 .702-1.405l2.244 1.122a.786.786 0 1 1-.703 1.404zm-.258 3.719a.785.785 0 1 1 .658-1.426l2.244 1.036a.786.786 0 1 1-.659 1.425z"/></svg>