<svg xmlns="http://www.w3.org/2000/svg" width="48" height="48" fill="none" viewBox="0 0 48 48"><g clip-path="url(#a)"><path fill="#00A3FF" d="M48 24C48 10.745 37.255 0 24 0S0 10.745 0 24s10.745 24 24 24 24-10.745 24-24"/><path fill="#fff" d="m33.845 22.295.269.412c3.03 4.65 2.353 10.738-1.628 14.638-2.342 2.295-5.411 3.442-8.48 3.443z" opacity=".6"/><path fill="#fff" d="m24.004 27.915 9.84-5.62-9.84 18.493z" opacity=".2"/><path fill="#fff" d="m14.155 22.295-.269.412c-3.03 4.65-2.353 10.738 1.628 14.638 2.342 2.295 5.411 3.442 8.48 3.443z"/><path fill="#fff" d="m23.992 27.915-9.84-5.62 9.84 18.493z" opacity=".6"/><path fill="#fff" d="M24.008 15.36v9.693l8.476-4.844z" opacity=".2"/><path fill="#fff" d="m24.005 15.36-8.482 4.85 8.482 4.843z" opacity=".6"/><path fill="#fff" d="m24.005 7.207-8.482 13.005 8.482-4.863z"/><path fill="#fff" d="m24.008 15.347 8.482 4.864L24.008 7.2z" opacity=".6"/></g><defs><clipPath id="a"><path fill="#fff" d="M0 0h48v48H0z"/></clipPath></defs></svg>