<svg xmlns="http://www.w3.org/2000/svg" width="48" height="48" style="shape-rendering:geometricPrecision;text-rendering:geometricPrecision;image-rendering:optimizeQuality;fill-rule:evenodd;clip-rule:evenodd"><path fill="#003370" d="M42.5-.5h288q34 9 43 43v288q-9 34-43 43h-288q-34-9-43-43v-288q9-34 43-43" style="opacity:1"/><path fill="#0ae13a" d="m187.5 143.5 25 26q10.82 19.239-2.5 37a759 759 0 0 1-23.5 23 3855 3855 0 0 1-52 52.5q-18.852 13.772-39 2-19.435-17.349-7.5-40.5a1800 1800 0 0 1 50-51q4.18-5.2 1-11l-49-49Q74.737 108.359 95.5 89q20.19-11.82 39 2a3924 3924 0 0 0 53 52.5m89-4q-24.742 11.303-41.5-10-8.53-16.036-.5-32 18.233-23.044 44-8.5 20.241 18.483 6.5 42.5a94 94 0 0 1-8.5 8" style="opacity:1"/><path fill="#04785b" d="M234.5 97.5q-8.03 15.964.5 32 16.758 21.303 41.5 10a2457 2457 0 0 1-41.5 42q-2.727 4.374-.5 9l-22-21-25-26q23.46-22.959 47-46" style="opacity:1"/><path fill="#0db40b" d="m212.5 169.5 22 21a3637 3637 0 0 0 50.5 51q13.601 23.88-6.5 42.5-17.167 10.403-35 1a1487 1487 0 0 0-57-55.5 759 759 0 0 0 23.5-23q13.32-17.761 2.5-37" style="opacity:1"/></svg>