<svg xmlns="http://www.w3.org/2000/svg" width="48" height="48" fill="none" viewBox="0 0 48 48"><g clip-path="url(#a)"><path fill="#003370" fill-rule="evenodd" d="M5.634 0h37.732Q47.821 1.179 49 5.634v37.732Q47.821 47.821 43.366 49H5.634Q1.179 47.821 0 43.366V5.634Q1.179 1.179 5.634 0" clip-rule="evenodd"/><path fill="#09E33A" d="M15.889 9.822c.385.302.72.64 1.055.995q.279.285.585.544c.643.561 1.234 1.177 1.835 1.782l.399.4 2.105 2.115 2.084 2.095c.494-.414.951-.848 1.4-1.308l.431-.439.228-.232q.604-.614 1.21-1.226.766-.777 1.53-1.557.621-.633 1.245-1.262l.47-.48c1.091-1.121 2.147-2.172 3.8-2.213 1.398-.011 2.433.32 3.474 1.29a4.53 4.53 0 0 1 1.26 3.01c-.05 2.013-1.245 3.194-2.593 4.52l-.469.467q-.613.612-1.23 1.22L32.97 21.27q-.462.46-.925.918l-.42.416-.195.192-.176.176-.155.152c-.24.262-.237.486-.246.83l-.01.274c.093.645.633 1.095 1.079 1.531l.196.196.421.417q.335.33.668.663.948.942 1.899 1.883.582.577 1.162 1.155l.442.437c1.478 1.456 1.478 1.456 1.875 2.301l.096.195c.47 1.002.349 2.264 0 3.28-.462.921-1.099 1.535-1.925 2.124l-.223.163c-1.187.581-2.392.514-3.628.127-1.417-.548-2.58-2.091-3.63-3.148l-.454-.456-2.4-2.41-2.373-2.384c-.288.13-.488.272-.71.498l-.188.19-.204.208-.218.22-.467.474-.74.75q-1.056 1.065-2.107 2.132-.643.653-1.29 1.304l-.489.496q-.343.35-.688.696l-.2.206c-.849.847-1.845 1.446-3.058 1.462l-.26-.003-.271-.003c-1.17-.03-1.994-.423-2.876-1.198a5 5 0 0 1-.577-.772l-.114-.175c-.53-.868-.708-2.046-.516-3.05.364-1.357 1.18-2.218 2.158-3.173q.346-.338.688-.68.729-.722 1.46-1.44.849-.837 1.694-1.676l.679-.667.415-.41.19-.185c.444-.444.799-.921.8-1.582-.078-.71-.586-1.145-1.072-1.624l-.193-.193-.415-.413-.655-.652q-.694-.693-1.39-1.383-.806-.802-1.612-1.607l-.648-.643-.393-.393-.184-.18q-.21-.214-.411-.435v-.193l-.289-.096c-.727-.837-.919-2.054-.854-3.132.161-1.285.764-2.331 1.77-3.145 1.546-1.072 3.53-1.057 5.076-.013"/><path fill="#0DB50A" d="M27.514 21.42c.451.378.878.771 1.291 1.19l.169.169.526.53.354.357.781.787q.646.65 1.297 1.296.992.984 1.982 1.973.597.596 1.197 1.19.582.577 1.16 1.157.22.22.442.438c1.474 1.458 1.474 1.458 1.872 2.304l.096.195c.47 1.002.349 2.264 0 3.28-.462.921-1.099 1.535-1.925 2.124l-.223.163c-1.187.581-2.392.514-3.628.127-1.425-.551-2.595-2.107-3.65-3.169a1872 1872 0 0 1-2.895-2.907l-2.408-2.42c.603-.714.603-.714.9-.999l.169-.164.177-.17.38-.374.594-.576c.784-.755 1.43-1.411 1.823-2.446l.108-.247c.139-.386.122-.764.121-1.17v-.262c-.012-.633-.096-1.148-.421-1.7l-.169-.29-.12-.192z"/><path fill="#02795B" d="M37.069 9.759c.968.734 1.62 1.667 1.874 2.87a4.76 4.76 0 0 1-.936 3.579c-.498.582-1.054 1.111-1.6 1.648l-.469.467q-.613.612-1.23 1.22L32.97 21.27q-.462.46-.925.918l-.42.416-.195.192-.176.176-.155.152c-.272.298-.225.574-.222.963l.003.348.003.268a19 19 0 0 1-1.316-1.212l-.182-.183-.59-.593-.41-.413-2.18-2.189-2.157-2.167c.13-.291.277-.495.5-.722l.19-.195.21-.212.221-.225.728-.736.252-.254 1.186-1.197q.75-.753 1.494-1.512l1.05-1.06q.252-.252.5-.506c1.859-1.896 4.15-3.227 6.69-1.568"/><path fill="#0AE23A" d="M37.069 9.759c.968.734 1.62 1.667 1.874 2.87.198 1.47-.261 2.68-1.136 3.846-.738.842-1.73 1.23-2.831 1.326-.81.038-1.534-.065-2.264-.435l-.25-.124c-1.13-.616-1.769-1.606-2.17-2.812a4.45 4.45 0 0 1 .303-2.952c.198-.284.198-.284.385-.483l.126-.229c.539-.84 1.421-1.381 2.372-1.66a4.76 4.76 0 0 1 3.59.653"/></g><defs><clipPath id="a"><path fill="#fff" d="M0 0h48v48H0z"/></clipPath></defs></svg>