<?xml version="1.0" encoding="UTF-8"?>
<svg id="_Слой_2" data-name="Слой 2" xmlns="http://www.w3.org/2000/svg" xmlns:xlink="http://www.w3.org/1999/xlink" viewBox="0 0 187.5 93.71">
  <defs>
    <style>
      .cls-1, .cls-2, .cls-3, .cls-4, .cls-5 {
        stroke: #1d1d1b;
        stroke-linecap: round;
        stroke-linejoin: round;
        stroke-width: .5px;
      }

      .cls-1, .cls-2, .cls-6, .cls-5 {
        fill-rule: evenodd;
      }

      .cls-1, .cls-7 {
        fill: #1d1d1b;
      }

      .cls-2 {
        fill: #fff;
      }

      .cls-3 {
        fill: url(#_Безымянный_градиент_2);
      }

      .cls-4 {
        fill: #c6c2d1;
      }

      .cls-6, .cls-7, .cls-8 {
        stroke-width: 0px;
      }

      .cls-6, .cls-8 {
        fill: #0f1423;
      }

      .cls-5 {
        fill: #eaeefa;
      }
    </style>
    <linearGradient id="_Безымянный_градиент_2" data-name="Безымянный градиент 2" x1="54.05" y1="90.31" x2="54.21" y2="90.31" gradientUnits="userSpaceOnUse">
      <stop offset="0" stop-color="#a25da2"/>
      <stop offset="1" stop-color="#00afc2"/>
    </linearGradient>
  </defs>
  <g id="_Слой_1-2" data-name="Слой 1">
    <g>
      <path class="cls-7" d="M100.05,44.02h9.31l1.91,5.88h5.84l-8.89-25.8h-7.03l-8.91,25.8h5.84l1.91-5.88ZM104.81,30l3.17,9.76h-6.55l3.18-9.76h.2Z"/>
      <path class="cls-7" d="M134.75,24.11h-7.03l-8.91,25.8h5.84l1.91-5.88h9.31l1.91,5.88h5.84l-8.89-25.8ZM127.96,39.77l3.18-9.76h.2l3.17,9.76h-6.55Z"/>
      <polygon class="cls-7" points="154.68 43.71 154.44 43.71 148.2 24.11 142.14 24.11 151.05 49.91 158.08 49.91 166.97 24.11 160.92 24.11 154.68 43.71"/>
      <polygon class="cls-7" points="175.52 45.41 175.52 39.25 186.56 39.25 186.56 34.75 175.52 34.75 175.52 28.61 187.45 28.61 187.45 24.11 170.07 24.11 170.07 49.91 187.5 49.91 187.5 45.41 175.52 45.41"/>
      <path class="cls-7" d="M103.52,68.53c-.41-.32-.85-.58-1.34-.79-.49-.21-.98-.38-1.46-.51l-1.61-.46c-.37-.1-.73-.23-1.09-.39-.36-.15-.69-.34-.99-.56s-.53-.48-.71-.78c-.17-.3-.26-.66-.26-1.06,0-.55.15-1.04.46-1.47.31-.43.73-.77,1.27-1.01.54-.24,1.17-.37,1.88-.37,1.01,0,1.85.25,2.52.75.67.5,1.04,1.18,1.13,2.03h1.35c-.03-.78-.26-1.47-.69-2.08-.43-.61-1.01-1.09-1.74-1.44-.73-.35-1.57-.52-2.52-.52s-1.79.18-2.54.53c-.75.35-1.35.84-1.79,1.46-.44.62-.66,1.35-.66,2.17,0,.98.33,1.79.99,2.42.66.63,1.59,1.13,2.79,1.49l1.83.54c.63.18,1.19.4,1.67.63.48.24.85.53,1.12.88s.4.79.4,1.3c0,.61-.17,1.15-.51,1.61-.34.46-.81.82-1.4,1.08-.59.26-1.27.38-2.03.38-.69,0-1.31-.11-1.87-.32-.56-.22-1.01-.53-1.36-.95-.35-.42-.55-.93-.6-1.53h-1.43c.05.81.3,1.51.74,2.13.44.61,1.04,1.09,1.81,1.44.77.35,1.67.52,2.71.52,1.11,0,2.05-.19,2.84-.57.79-.38,1.4-.9,1.82-1.55.42-.65.63-1.39.63-2.2,0-.64-.12-1.18-.37-1.64-.25-.45-.57-.84-.98-1.16Z"/>
      <path class="cls-7" d="M115.75,65.14c-.46-.46-.98-.81-1.56-1.04-.58-.23-1.18-.34-1.8-.34-.99,0-1.86.26-2.62.77-.75.51-1.34,1.21-1.77,2.11-.43.9-.64,1.93-.64,3.08s.21,2.18.64,3.07c.43.89,1.03,1.58,1.81,2.08.78.5,1.71.75,2.78.75.77,0,1.44-.12,2.03-.37.59-.25,1.08-.57,1.48-.98s.68-.85.85-1.34l-1.26-.41c-.14.34-.36.66-.64.94-.28.29-.63.51-1.04.68-.41.17-.89.25-1.43.25-.8,0-1.49-.19-2.07-.56s-1.03-.9-1.35-1.58c-.3-.64-.45-1.38-.47-2.22h8.53v-.66c0-.96-.13-1.79-.4-2.5-.27-.7-.63-1.29-1.09-1.75ZM108.73,68.88c.04-.64.19-1.24.46-1.78.31-.64.74-1.15,1.3-1.54.55-.39,1.19-.58,1.92-.58.69,0,1.29.17,1.82.52.53.34.94.81,1.23,1.4.3.59.44,1.25.44,1.99h-7.16Z"/>
      <path class="cls-7" d="M126.96,64.53c-.41-.28-.85-.48-1.33-.59-.48-.11-.93-.17-1.37-.17-.58,0-1.16.08-1.73.25-.57.17-1.08.44-1.54.81-.46.38-.82.88-1.08,1.5l1.26.46c.21-.49.57-.92,1.09-1.28.52-.36,1.19-.54,2.02-.54.87,0,1.54.22,2,.68.47.45.7,1.07.7,1.85v.27c0,.29-.12.5-.35.63-.23.13-.57.22-1.02.28-.45.06-.99.13-1.63.21-.65.08-1.24.19-1.78.34-.54.14-1,.34-1.4.59-.39.25-.7.57-.91.96-.21.39-.32.87-.32,1.43,0,.74.17,1.36.51,1.88.34.51.79.91,1.37,1.18.57.27,1.2.41,1.9.41.64,0,1.19-.1,1.67-.31.47-.2.87-.47,1.18-.78.31-.32.55-.65.71-.99h.08v1.81h1.33v-7.79c0-.77-.13-1.4-.38-1.9-.25-.5-.58-.89-.99-1.17ZM127.01,70.99c0,.63-.14,1.2-.42,1.72-.28.52-.68.94-1.2,1.25-.52.31-1.13.47-1.84.47-.75,0-1.38-.19-1.87-.57-.5-.38-.75-.92-.75-1.62,0-.46.12-.84.37-1.14.24-.3.59-.53,1.05-.7.46-.17,1.01-.29,1.66-.37.24-.03.51-.06.81-.1.3-.04.6-.09.9-.15.3-.06.57-.12.8-.2s.4-.16.5-.25v1.66Z"/>
      <path class="cls-7" d="M136.39,63.75c-.72,0-1.37.18-1.94.53-.57.36-.97.82-1.2,1.4h-.1v-1.76h-1.29v11.47h1.33v-7.41c0-.57.13-1.07.4-1.51.27-.44.64-.79,1.1-1.04.46-.25,1-.38,1.59-.38.17,0,.34.01.49.03.15.02.25.03.31.04v-1.35c-.09,0-.2,0-.34-.01-.13,0-.26,0-.37,0Z"/>
      <path class="cls-7" d="M145.94,73.31c-.29.35-.64.63-1.06.82-.42.19-.89.29-1.39.29-.75,0-1.41-.2-1.97-.6-.56-.4-.99-.96-1.3-1.68-.31-.71-.46-1.54-.46-2.47s.16-1.74.47-2.45c.32-.7.76-1.25,1.32-1.65.56-.4,1.21-.59,1.94-.59.82,0,1.49.23,2.02.69.53.46.86,1.01,1,1.66h1.34c-.1-.71-.36-1.33-.77-1.87-.41-.53-.92-.95-1.54-1.25-.62-.3-1.32-.44-2.08-.44-1,0-1.88.26-2.64.77-.76.51-1.35,1.21-1.77,2.11-.43.9-.64,1.92-.64,3.07s.21,2.16.63,3.05c.42.89,1.01,1.59,1.77,2.11.76.51,1.65.77,2.68.77.8,0,1.5-.15,2.12-.46.62-.31,1.13-.73,1.52-1.27.39-.54.64-1.16.74-1.85h-1.34c-.1.49-.29.91-.58,1.26Z"/>
      <path class="cls-7" d="M157.6,64.25c-.59-.32-1.27-.48-2.05-.48-.87,0-1.58.18-2.15.53s-.98.83-1.25,1.42h-.12v-5.62h-1.33v15.29h1.33v-7.17c0-.67.14-1.24.41-1.73.28-.49.65-.86,1.13-1.12s1.02-.39,1.63-.39c.89,0,1.6.27,2.12.82.53.55.79,1.29.79,2.24v7.35h1.34v-7.43c0-.91-.16-1.68-.49-2.3-.33-.62-.79-1.09-1.37-1.41Z"/>
    </g>
    <g>
      <polygon class="cls-1" points=".25 81.41 37.71 60.01 37.71 .25 .25 21.48 .25 81.41"/>
      <polygon class="cls-1" points="59.6 12.32 37.71 .25 37.71 60.01 59.6 72.08 59.6 12.32"/>
      <polygon class="cls-5" points="6.63 82.83 41.36 62.87 41.36 3.11 6.63 22.89 6.63 82.83"/>
      <polygon class="cls-5" points="10.92 84.39 45.65 64.43 45.65 5.52 10.92 25.31 10.92 84.39"/>
      <polygon class="cls-5" points="15.09 86.77 49.81 66.81 49.81 7.9 15.09 27.68 15.09 86.77"/>
      <polygon class="cls-5" points="19.41 89.18 54.13 69.22 54.13 10.32 19.41 30.1 19.41 89.18"/>
      <polygon class="cls-1" points="22.14 93.46 59.6 72.05 59.6 12.29 22.14 33.52 22.14 93.46"/>
    </g>
    <g>
      <g>
        <path class="cls-3" d="M54.06,89.83c-.05-.21.02.46-.01.92.17.19.25.05.01-.92Z"/>
        <path class="cls-4" d="M76.04,74.83v-23.07c0-1-.03-1.93-.09-2.81l-1.5-11.05c-.3-.33-3.98-2.42-3.98-2.42-1.88-1.17-5.68-2.05-10.37,1.72-6.43,5.16-9.61,14.2-10.3,18.03-.09.51-.17,1.02-.23,1.54h0s0,0,0,0c-.02.13-.03.27-.04.4,0,0,0,0,0,0,0,.02,0,.04,0,.07,0,.03,0,.05,0,.08,0,.03,0,.06,0,.09,0,.08-.01.16-.02.25,0,0,0,.02,0,.03,0,.06,0,.12-.01.18,0,.04,0,.09,0,.13,0,.05,0,.09,0,.14,0,.07,0,.13,0,.2,0,.03,0,.06,0,.08,0,.05,0,.09,0,.14,0,.02,0,.04,0,.06,0,.16,0,.32,0,.48v.22s0,.03,0,.05c0,0,0,.02,0,.02l-.16,19.11h0s0,0,0,0h0s0,10.29,0,10.29c0,.67.23,1.01.55,1.28.07.06,3.84,2.51,3.97,2.47.09-.03.06-1.34.15-1.39.07-.04.1-.19.12-.38-.26-.28-.72-1.28-.68-1.34.3-.49.48-1.09.48-1.63v-5.32c0-.59.25-1.25.63-1.76.09-.13.19-.24.3-.35v.89c0,.31.06,1.98.16,2.16.14.26.32.44.53.62.12.1,3.74,2.47,3.93,2.36.09-.05-.06-2.24.03-2.32.39-.33-.41-.99-.23-1.55.1-.31.16-.63.16-.93v-2.32c0-.29.06-.61.17-.91.04-.12.1-.24.15-.36.2-.4-.31.26,0,0,.01.02,4.94,3.17,4.94,3.17.04,0,3.39-1.61.83-2.01-.09-.01.08-.06.17-.12.75-.43-.76-1.51-.76-2.49v-.47c0-.41.12-.86.33-1.27.03-.06.06-.12.09-.17.14-.25.32-.48.51-.68v.89c0,.28.03,2.15.23,2.4.04.06,4.17,2.64,4.25,2.68.24.14.11-3.75.11-4.73v-2.32c0-.73.39-1.57.93-2.11v5.37c0,1.01,4.53,3.58,4.53,3.58.77-.45.2-3.85.2-4.89Z"/>
      </g>
      <path class="cls-2" d="M78.08,47.26c0-8.96-5.54-13-12.39-9.03-5.8,3.36-10.67,11.39-12.02,19.22-.24,1.28-.35,2.9-.37,3.87v21.21s0,0,0,0v8.93c0,.98.59,1.41,1.34.98s1.34-1.55,1.34-2.53v-5.32c0-.94.64-2.06,1.42-2.5h.03c.77-.43,1.39-.05,1.39.9v2.29c0,.98.59,1.41,1.34.98s1.34-1.55,1.34-2.53v-2.32c0-.94.64-2.06,1.42-2.5h.03c.77-.43,1.39-.05,1.39.9v.44c0,.98.59,1.41,1.34.98.75-.43,1.34-1.55,1.34-2.53v-.47c0-.94.64-2.06,1.42-2.5h.03c.77-.43,1.39-.05,1.39.9v2.29c0,.98.59,1.41,1.34.98s1.34-1.55,1.34-2.53v-2.32c0-.94.64-2.06,1.42-2.5h.03c.77-.43,1.39-.05,1.39.9v5.19c0,1.01.62,1.49,1.42,1.03s1.42-1.63,1.42-2.67l-.09-29.69Z"/>
      <path id="_椭圆形" data-name="椭圆形" class="cls-6" d="M66.61,61.28c1.16-.67,2.01-2.27,2.01-3.08,0-.3-.15-.48-.39-.38-.36.14-.93.74-1.62,1.14s-1.06.38-1.57.67c-.51.3-.49,1.02-.41,1.25.18.67.82,1.07,1.98.4Z"/>
      <ellipse class="cls-8" cx="61.88" cy="56" rx="3.91" ry="2.22" transform="translate(-14.41 89.84) rotate(-66.06)"/>
      <ellipse class="cls-8" cx="71.13" cy="50.65" rx="3.91" ry="2.22" transform="translate(-4.03 95.11) rotate(-66.06)"/>
    </g>
  </g>
</svg>