<svg viewBox="0 0 1920 1371" fill="none" xmlns="http://www.w3.org/2000/svg">
<g clip-path="url(#clip0_1_609)">
<path d="M480.53 1264.4L310.951 1148.74L585.779 1087.33" stroke="#EDF0FC" stroke-linecap="round" stroke-linejoin="round"/>
<path d="M-140.085 1255.03L310.951 1148.74" stroke="#EDF0FC" stroke-linecap="round" stroke-linejoin="round"/>
<path d="M-161.718 676.943L-6.27297 658.42L60.9739 809.032L212.035 949.891L378.197 640.873L446.419 699.366L523.408 902.118L310.951 1148.74L-161.718 910.896L212.035 949.891L523.408 902.118L585.779 1087.33L565.553 1270.57" stroke="#EDF0FC" stroke-linecap="round" stroke-linejoin="round"/>
<path d="M-161.718 910.896L60.9738 809.032L115.061 483.935L190.1 576.537L378.197 640.873L60.9738 809.032" stroke="#EDF0FC" stroke-linecap="round" stroke-linejoin="round"/>
<path d="M329.227 79.3885L460.062 117.771L508.307 189.055L600.406 307.49L726.123 189.055L585.779 593.109L508.307 189.055L356.271 235.119L285.616 176.868L115.061 483.935L51.7146 477.108L-167.568 191.489L285.616 176.868L51.7146 477.108L-6.27305 658.42L-81.8037 507.325" stroke="#EDF0FC" stroke-linecap="round" stroke-linejoin="round"/>
<path d="M60.9738 809.032L190.1 576.538L431.801 528.773L585.779 593.109L865.492 528.773L1097.43 483.935L1311.84 365.008L1368.61 235.119L1183.69 0.431664L1034.58 0.431651L907.395 82.3145L957.099 222.69L831.381 404.728L726.123 189.055L710.039 0.431622L508.307 189.055" stroke="#EDF0FC" stroke-linecap="round" stroke-linejoin="round"/>
<path d="M446.419 699.366L212.035 949.891" stroke="#EDF0FC" stroke-linecap="round" stroke-linejoin="round"/>
<path d="M585.779 824.629L585.779 593.109" stroke="#EDF0FC" stroke-linecap="round" stroke-linejoin="round"/>
<path d="M907.395 82.3145L810.421 0.431684L726.123 189.055L844.532 196.365" stroke="#EDF0FC" stroke-linecap="round" stroke-linejoin="round"/>
<path d="M585.779 824.629L523.408 902.118L585.779 593.109L727.582 747.614L1097.43 483.935L831.381 404.728L844.532 196.365L957.099 222.69L1311.84 365.008L1530.15 468.339L1345.95 795.87L1454.14 917.473L1259.7 1094.16" stroke="#EDF0FC" stroke-linecap="round" stroke-linejoin="round"/>
<path d="M1034.58 0.431657L957.099 222.69" stroke="#EDF0FC" stroke-linecap="round" stroke-linejoin="round"/>
<path d="M190.1 576.538L356.271 235.119L431.801 528.773L378.197 640.874" stroke="#EDF0FC" stroke-linecap="round" stroke-linejoin="round"/>
<path d="M233.47 12.1612L329.227 79.3886L285.616 176.868" stroke="#EDF0FC" stroke-linecap="round" stroke-linejoin="round"/>
<path d="M460.062 117.771L460.062 12.1611L329.227 79.3884" stroke="#EDF0FC" stroke-linecap="round" stroke-linejoin="round"/>
<path d="M600.406 307.49L585.779 593.109" stroke="#EDF0FC" stroke-linecap="round" stroke-linejoin="round"/>
<path d="M727.582 747.614L841.607 861.664L1182.22 931.852L1151.53 760.776L1100.36 633.597L1097.43 483.935" stroke="#EDF0FC" stroke-linecap="round" stroke-linejoin="round"/>
<path d="M841.607 861.665L1100.36 633.597L1331.34 583.848L1345.95 795.87L1151.53 760.776L841.607 861.665Z" stroke="#EDF0FC" stroke-linecap="round" stroke-linejoin="round"/>
<path d="M523.408 902.118L585.779 940.63L699.813 910.896L787.519 949.891L818.222 1255.03L1259.7 1094.16" stroke="#EDF0FC" stroke-linecap="round" stroke-linejoin="round"/>
<path d="M841.607 861.665L787.519 949.891L1170.53 1087.33L1182.22 931.852L1454.14 917.473L1413.2 1264.4L1259.7 1094.16L1170.53 1087.33" stroke="#EDF0FC" stroke-linecap="round" stroke-linejoin="round"/>
<path d="M1767.95 848.511L1797.19 1063.03L1881.42 1264.4L1413.2 1264.4L1637.36 1063.03L1637.36 875.802L1693.88 788.068L1530.15 468.339L1744.56 196.365L1758.2 0.43177L1183.69 0.43172L957.099 222.69L1368.61 235.119L1744.56 196.365L1446.08 0.431743L1368.61 235.119" stroke="#EDF0FC" stroke-linecap="round" stroke-linejoin="round"/>
<path d="M1914.14 667.198L1693.88 788.068L1767.95 848.511L2068.97 1016.17L1797.19 1063.03L1681.21 1264.4L1637.36 1063.03L1454.14 917.473L1637.36 875.802L1345.95 795.87" stroke="#EDF0FC" stroke-linecap="round" stroke-linejoin="round"/>
<path d="M1311.84 365.007L1331.34 583.848L1530.15 468.339L1914.14 667.198" stroke="#EDF0FC" stroke-linecap="round" stroke-linejoin="round"/>
<path d="M1767.95 848.511L1914.14 667.198L2095.41 788.068" stroke="#EDF0FC" stroke-linecap="round" stroke-linejoin="round"/>
<path d="M1758.2 0.431684L1984.31 138.857L2068.97 419.789L1914.14 667.198L1744.56 196.365L2095.41 437.992" stroke="#EDF0FC" stroke-linecap="round" stroke-linejoin="round"/>
<path d="M2068.97 12.1614L1984.31 138.857L1744.56 196.365" stroke="#EDF0FC" stroke-linecap="round" stroke-linejoin="round"/>
<path d="M818.222 1255.03L585.779 1087.33L699.813 910.896L585.779 824.629L727.582 747.614" stroke="#EDF0FC" stroke-linecap="round" stroke-linejoin="round"/>
<path d="M190.1 12.1611L-34.9735 187.216L-140.085 12.1611" stroke="#EDF0FC" stroke-linecap="round" stroke-linejoin="round"/>
</g>
<defs>
<clipPath id="clip0_1_609">
<rect width="2263.84" height="1371" fill="white" transform="translate(2095.84 1371) rotate(-180)"/>
</clipPath>
</defs>
</svg>
