<svg width="50" height="50" viewBox="0 0 50 50" fill="none" xmlns="http://www.w3.org/2000/svg">
<g clip-path="url(#clip0_3_5)">
<path d="M24.5 7.43312C14.8313 7.43312 7 15.2687 7 24.9331C7 32.6667 12.0137 39.2248 18.9656 41.5362C19.8406 41.701 20.1615 41.16 20.1615 40.6948C20.1615 40.2792 20.1469 39.1781 20.1396 37.7198C15.2717 38.7756 14.245 35.3719 14.245 35.3719C13.4488 33.3521 12.2981 32.8125 12.2981 32.8125C10.7129 31.7275 12.4206 31.7494 12.4206 31.7494C14.1779 31.8719 15.101 33.5519 15.101 33.5519C16.6615 36.2279 19.1975 35.455 20.1979 35.0073C20.3554 33.8756 20.806 33.1042 21.3063 32.6667C17.4198 32.2292 13.335 30.7242 13.335 24.0188C13.335 22.1083 14.0131 20.5479 15.136 19.3229C14.9392 18.881 14.3485 17.1019 15.2892 14.6913C15.2892 14.6913 16.7548 14.2217 20.1017 16.485C21.5017 16.0956 22.9892 15.9031 24.4767 15.8944C25.9642 15.9031 27.4517 16.0956 28.8517 16.485C32.1767 14.2217 33.6423 14.6913 33.6423 14.6913C34.5829 17.1019 33.9923 18.881 33.8173 19.3229C34.9329 20.5479 35.611 22.1083 35.611 24.0188C35.611 30.7417 31.5204 32.2219 27.6267 32.6521C28.2392 33.1771 28.8079 34.2504 28.8079 35.8896C28.8079 38.2317 28.786 40.1129 28.786 40.6817C28.786 41.141 29.0923 41.6879 29.9892 41.5129C36.9906 39.2175 42 32.655 42 24.9331C42 15.2687 34.1644 7.43312 24.5 7.43312Z" fill="#C4BFB8"/>
</g>
<defs>
<clipPath id="clip0_3_5">
<rect width="35" height="35" fill="white" transform="translate(7 7)"/>
</clipPath>
</defs>
</svg>
