<svg width="50" height="50" viewBox="0 0 50 50" fill="none" xmlns="http://www.w3.org/2000/svg">
<path d="M23.0818 28.9106V28.5871C23.0882 27.477 23.1865 26.5921 23.3768 25.9324C23.5734 25.2728 23.8589 24.7399 24.2331 24.334C24.6074 23.928 25.0577 23.5601 25.5842 23.2303C25.9775 22.9765 26.3295 22.7133 26.6403 22.4405C26.9512 22.1678 27.1985 21.8665 27.3825 21.5366C27.5664 21.2004 27.6584 20.8262 27.6584 20.4139C27.6584 19.9762 27.5538 19.5924 27.3444 19.2626C27.1351 18.9328 26.8528 18.679 26.4976 18.5014C26.1487 18.3238 25.7618 18.235 25.3368 18.235C24.9245 18.235 24.5344 18.327 24.1665 18.5109C23.7986 18.6885 23.4973 18.955 23.2626 19.3102C23.0279 19.6591 22.901 20.0936 22.882 20.6137H19C19.0317 19.3451 19.3362 18.2984 19.9134 17.4738C20.4906 16.6429 21.255 16.0244 22.2065 15.6185C23.1579 15.2061 24.2077 15 25.3559 15C26.6181 15 27.7345 15.2093 28.705 15.628C29.6755 16.0403 30.4367 16.6397 30.9886 17.4263C31.5404 18.2128 31.8164 19.1611 31.8164 20.2712C31.8164 21.0133 31.6927 21.673 31.4453 22.2502C31.2043 22.8211 30.8649 23.3286 30.4272 23.7726C29.9895 24.2103 29.4726 24.6067 28.8763 24.9619C28.3752 25.2601 27.9629 25.5709 27.6394 25.8944C27.3222 26.2179 27.0844 26.5921 26.9258 27.0171C26.7736 27.4421 26.6943 27.9654 26.6879 28.5871V28.9106H23.0818ZM24.9657 35C24.3314 35 23.7891 34.778 23.3387 34.334C22.8947 33.8836 22.6759 33.3444 22.6822 32.7165C22.6759 32.0948 22.8947 31.562 23.3387 31.118C23.7891 30.674 24.3314 30.4519 24.9657 30.4519C25.5684 30.4519 26.098 30.674 26.5547 31.118C27.0114 31.562 27.2429 32.0948 27.2493 32.7165C27.2429 33.1351 27.1319 33.5189 26.9163 33.8677C26.7069 34.2103 26.431 34.4862 26.0885 34.6955C25.746 34.8985 25.3717 35 24.9657 35Z" fill="white"/>
<path d="M34.7764 9.63342H39.9897L28.5997 22.6526L42 40.3652H31.5082L23.2915 29.6212L13.8877 40.3652H8.6715L20.8548 26.4393L8 9.63483H18.7582L26.1857 19.4552L34.7764 9.63342ZM32.9475 37.2457H35.8361L17.1885 12.59H14.0888L32.9475 37.2457Z" fill="#C4BFB8"/>
</svg>
