<svg width="50" height="50" viewBox="0 0 50 50" fill="none" xmlns="http://www.w3.org/2000/svg">
<g clip-path="url(#clip0_3_11)">
<path d="M25 40.1042C33.3418 40.1042 40.1042 33.3418 40.1042 25C40.1042 16.6582 33.3418 9.89583 25 9.89583C16.6582 9.89583 9.89584 16.6582 9.89584 25C9.89584 33.3418 16.6582 40.1042 25 40.1042Z" stroke="#C4BFB8" stroke-width="2.5" stroke-linecap="round" stroke-linejoin="round"/>
<path d="M31.7708 25C31.7708 34.375 27.5887 40.1042 25 40.1042C22.4112 40.1042 18.2292 34.375 18.2292 25C18.2292 15.625 22.4112 9.89583 25 9.89583C27.5887 9.89583 31.7708 15.625 31.7708 25Z" stroke="#C4BFB8" stroke-width="2.5" stroke-linecap="round" stroke-linejoin="round"/>
<path d="M10.4167 25H25H39.5833" stroke="#C4BFB8" stroke-width="2.5" stroke-linecap="round" stroke-linejoin="round"/>
</g>
<defs>
<clipPath id="clip0_3_11">
<rect width="50" height="50" fill="white"/>
</clipPath>
</defs>
</svg>
